<svg xmlns="http://www.w3.org/2000/svg" xmlns:xlink="http://www.w3.org/1999/xlink" width="450" height="300" viewBox="-0.75 -0.5000 1.5 1.0000"><style>svg {
  color-scheme: light dark;
}
{
  .canvas g, .title g, .axisbar g, .ticktext g, .tickglyph g, .ticklines g, .legendContent g text {
    fill: rgb(5%, 5%, 5%);
  }
  .ticklines g, .tickglyph g, .legendBorder g {
    stroke: rgb(5%, 5%, 5%);
  }
  .legendBorder g {
    fill: rgb(94%, 94%, 94%);
  }
}
@media (prefers-color-scheme:dark) {
  .canvas g, .title g, .axisbar g, .ticktext g, .tickglyph g, .ticklines g, .legendContent g text {
    fill: rgb(94%, 94%, 94%);
  }
  .ticklines g, .tickglyph g, .legendBorder g {
    stroke: rgb(94%, 94%, 94%);
  }
  .legendBorder g {
    fill: rgb(5%, 5%, 5%);
  }
}
svg { font-family: system-ui,-apple-system,"Segoe UI",Roboto,"Helvetica Neue",Arial,"Noto Sans","Liberation Sans",sans-serif,"Apple Color Emoji","Segoe UI Emoji","Segoe UI Symbol","Noto Color Emoji";
}

ticktext { font-family: SFMono-Regular,Menlo,Monaco,Consolas,"Liberation Mono","Courier New",monospace;
}

</style><g class="chart"><g stroke-width="0.0100" stroke="rgb(2%, 29%, 48%)" stroke-opacity="1.0" fill="rgb(2%, 73%, 80%)" fill-opacity="1.0"><circle cx="-0.4754" cy="-0.4463" r="0.0200"/><circle cx="-0.4754" cy="-0.4425" r="0.0200"/><circle cx="-0.4754" cy="-0.4363" r="0.0200"/><circle cx="-0.4754" cy="-0.4277" r="0.0200"/><circle cx="-0.4754" cy="-0.4168" r="0.0200"/><circle cx="-0.4754" cy="-0.4035" r="0.0200"/><circle cx="-0.4754" cy="-0.3880" r="0.0200"/><circle cx="-0.4754" cy="-0.3704" r="0.0200"/><circle cx="-0.4754" cy="-0.3507" r="0.0200"/><circle cx="-0.4754" cy="-0.3292" r="0.0200"/><circle cx="-0.4754" cy="-0.3059" r="0.0200"/><circle cx="-0.4754" cy="-0.2810" r="0.0200"/><circle cx="-0.4754" cy="-0.2546" r="0.0200"/><circle cx="-0.4754" cy="-0.2270" r="0.0200"/><circle cx="-0.4754" cy="-0.1982" r="0.0200"/><circle cx="-0.4754" cy="-0.1684" r="0.0200"/><circle cx="-0.4754" cy="-0.1379" r="0.0200"/><circle cx="-0.4754" cy="-0.1068" r="0.0200"/><circle cx="-0.4754" cy="-0.0753" r="0.0200"/><circle cx="-0.4754" cy="-0.0436" r="0.0200"/><circle cx="-0.4754" cy="-0.0119" r="0.0200"/><circle cx="-0.4754" cy="0.0196" r="0.0200"/><circle cx="-0.4754" cy="0.0507" r="0.0200"/><circle cx="-0.4754" cy="0.0812" r="0.0200"/><circle cx="-0.4754" cy="0.1110" r="0.0200"/><circle cx="-0.4754" cy="0.1398" r="0.0200"/><circle cx="-0.4754" cy="0.1674" r="0.0200"/><circle cx="-0.4754" cy="0.1938" r="0.0200"/><circle cx="-0.4754" cy="0.2187" r="0.0200"/><circle cx="-0.4754" cy="0.2420" r="0.0200"/><circle cx="-0.4754" cy="0.2635" r="0.0200"/><circle cx="-0.4754" cy="0.2831" r="0.0200"/><circle cx="-0.4754" cy="0.3008" r="0.0200"/><circle cx="-0.4754" cy="0.3163" r="0.0200"/><circle cx="-0.4754" cy="0.3295" r="0.0200"/><circle cx="-0.4754" cy="0.3405" r="0.0200"/><circle cx="-0.4754" cy="0.3491" r="0.0200"/><circle cx="-0.4754" cy="0.3553" r="0.0200"/><circle cx="-0.4754" cy="0.3590" r="0.0200"/><circle cx="-0.4754" cy="0.3603" r="0.0200"/><circle cx="-0.3773" cy="-0.4463" r="0.0200"/><circle cx="-0.3773" cy="-0.4425" r="0.0200"/><circle cx="-0.3773" cy="-0.4363" r="0.0200"/><circle cx="-0.3773" cy="-0.4277" r="0.0200"/><circle cx="-0.3773" cy="-0.4168" r="0.0200"/><circle cx="-0.3773" cy="-0.4035" r="0.0200"/><circle cx="-0.3773" cy="-0.3880" r="0.0200"/><circle cx="-0.3773" cy="-0.3704" r="0.0200"/><circle cx="-0.3773" cy="-0.3507" r="0.0200"/><circle cx="-0.3773" cy="-0.3292" r="0.0200"/><circle cx="-0.3773" cy="-0.3059" r="0.0200"/><circle cx="-0.3773" cy="-0.2810" r="0.0200"/><circle cx="-0.3773" cy="-0.2546" r="0.0200"/><circle cx="-0.3773" cy="-0.2270" r="0.0200"/><circle cx="-0.3773" cy="-0.1982" r="0.0200"/><circle cx="-0.3773" cy="-0.1684" r="0.0200"/><circle cx="-0.3773" cy="-0.1379" r="0.0200"/><circle cx="-0.3773" cy="-0.1068" r="0.0200"/><circle cx="-0.3773" cy="-0.0753" r="0.0200"/><circle cx="-0.3773" cy="-0.0436" r="0.0200"/><circle cx="-0.3773" cy="-0.0119" r="0.0200"/><circle cx="-0.3773" cy="0.0196" r="0.0200"/><circle cx="-0.3773" cy="0.0507" r="0.0200"/><circle cx="-0.3773" cy="0.0812" r="0.0200"/><circle cx="-0.3773" cy="0.1110" r="0.0200"/><circle cx="-0.3773" cy="0.1398" r="0.0200"/><circle cx="-0.3773" cy="0.1674" r="0.0200"/><circle cx="-0.3773" cy="0.1938" r="0.0200"/><circle cx="-0.3773" cy="0.2187" r="0.0200"/><circle cx="-0.3773" cy="0.2420" r="0.0200"/><circle cx="-0.3773" cy="0.2635" r="0.0200"/><circle cx="-0.3773" cy="0.2831" r="0.0200"/><circle cx="-0.3773" cy="0.3008" r="0.0200"/><circle cx="-0.3773" cy="0.3163" r="0.0200"/><circle cx="-0.3773" cy="0.3295" r="0.0200"/><circle cx="-0.3773" cy="0.3405" r="0.0200"/><circle cx="-0.3773" cy="0.3491" r="0.0200"/><circle cx="-0.3773" cy="0.3553" r="0.0200"/><circle cx="-0.3773" cy="0.3590" r="0.0200"/><circle cx="-0.3773" cy="0.3603" r="0.0200"/><circle cx="-0.2805" cy="-0.4463" r="0.0200"/><circle cx="-0.2805" cy="-0.4425" r="0.0200"/><circle cx="-0.2805" cy="-0.4363" r="0.0200"/><circle cx="-0.2805" cy="-0.4277" r="0.0200"/><circle cx="-0.2805" cy="-0.4168" r="0.0200"/><circle cx="-0.2805" cy="-0.4035" r="0.0200"/><circle cx="-0.2805" cy="-0.3880" r="0.0200"/><circle cx="-0.2805" cy="-0.3704" r="0.0200"/><circle cx="-0.2805" cy="-0.3507" r="0.0200"/><circle cx="-0.2805" cy="-0.3292" r="0.0200"/><circle cx="-0.2805" cy="-0.3059" r="0.0200"/><circle cx="-0.2805" cy="-0.2810" r="0.0200"/><circle cx="-0.2805" cy="-0.2546" r="0.0200"/><circle cx="-0.2805" cy="-0.2270" r="0.0200"/><circle cx="-0.2805" cy="-0.1982" r="0.0200"/><circle cx="-0.2805" cy="-0.1684" r="0.0200"/><circle cx="-0.2805" cy="-0.1379" r="0.0200"/><circle cx="-0.2805" cy="-0.1068" r="0.0200"/><circle cx="-0.2805" cy="-0.0753" r="0.0200"/><circle cx="-0.2805" cy="-0.0436" r="0.0200"/><circle cx="-0.2805" cy="-0.0119" r="0.0200"/><circle cx="-0.2805" cy="0.0196" r="0.0200"/><circle cx="-0.2805" cy="0.0507" r="0.0200"/><circle cx="-0.2805" cy="0.0812" r="0.0200"/><circle cx="-0.2805" cy="0.1110" r="0.0200"/><circle cx="-0.2805" cy="0.1398" r="0.0200"/><circle cx="-0.2805" cy="0.1674" r="0.0200"/><circle cx="-0.2805" cy="0.1938" r="0.0200"/><circle cx="-0.2805" cy="0.2187" r="0.0200"/><circle cx="-0.2805" cy="0.2420" r="0.0200"/><circle cx="-0.2805" cy="0.2635" r="0.0200"/><circle cx="-0.2805" cy="0.2831" r="0.0200"/><circle cx="-0.2805" cy="0.3008" r="0.0200"/><circle cx="-0.2805" cy="0.3163" r="0.0200"/><circle cx="-0.2805" cy="0.3295" r="0.0200"/><circle cx="-0.2805" cy="0.3405" r="0.0200"/><circle cx="-0.2805" cy="0.3491" r="0.0200"/><circle cx="-0.2805" cy="0.3553" r="0.0200"/><circle cx="-0.2805" cy="0.3590" r="0.0200"/><circle cx="-0.2805" cy="0.3603" r="0.0200"/><circle cx="-0.1855" cy="-0.4463" r="0.0200"/><circle cx="-0.1855" cy="-0.4425" r="0.0200"/><circle cx="-0.1855" cy="-0.4363" r="0.0200"/><circle cx="-0.1855" cy="-0.4277" r="0.0200"/><circle cx="-0.1855" cy="-0.4168" r="0.0200"/><circle cx="-0.1855" cy="-0.4035" r="0.0200"/><circle cx="-0.1855" cy="-0.3880" r="0.0200"/><circle cx="-0.1855" cy="-0.3704" r="0.0200"/><circle cx="-0.1855" cy="-0.3507" r="0.0200"/><circle cx="-0.1855" cy="-0.3292" r="0.0200"/><circle cx="-0.1855" cy="-0.3059" r="0.0200"/><circle cx="-0.1855" cy="-0.2810" r="0.0200"/><circle cx="-0.1855" cy="-0.2546" r="0.0200"/><circle cx="-0.1855" cy="-0.2270" r="0.0200"/><circle cx="-0.1855" cy="-0.1982" r="0.0200"/><circle cx="-0.1855" cy="-0.1684" r="0.0200"/><circle cx="-0.1855" cy="-0.1379" r="0.0200"/><circle cx="-0.1855" cy="-0.1068" r="0.0200"/><circle cx="-0.1855" cy="-0.0753" r="0.0200"/><circle cx="-0.1855" cy="-0.0436" r="0.0200"/><circle cx="-0.1855" cy="-0.0119" r="0.0200"/><circle cx="-0.1855" cy="0.0196" r="0.0200"/><circle cx="-0.1855" cy="0.0507" r="0.0200"/><circle cx="-0.1855" cy="0.0812" r="0.0200"/><circle cx="-0.1855" cy="0.1110" r="0.0200"/><circle cx="-0.1855" cy="0.1398" r="0.0200"/><circle cx="-0.1855" cy="0.1674" r="0.0200"/><circle cx="-0.1855" cy="0.1938" r="0.0200"/><circle cx="-0.1855" cy="0.2187" r="0.0200"/><circle cx="-0.1855" cy="0.2420" r="0.0200"/><circle cx="-0.1855" cy="0.2635" r="0.0200"/><circle cx="-0.1855" cy="0.2831" r="0.0200"/><circle cx="-0.1855" cy="0.3008" r="0.0200"/><circle cx="-0.1855" cy="0.3163" r="0.0200"/><circle cx="-0.1855" cy="0.3295" r="0.0200"/><circle cx="-0.1855" cy="0.3405" r="0.0200"/><circle cx="-0.1855" cy="0.3491" r="0.0200"/><circle cx="-0.1855" cy="0.3553" r="0.0200"/><circle cx="-0.1855" cy="0.3590" r="0.0200"/><circle cx="-0.1855" cy="0.3603" r="0.0200"/><circle cx="-0.0929" cy="-0.4463" r="0.0200"/><circle cx="-0.0929" cy="-0.4425" r="0.0200"/><circle cx="-0.0929" cy="-0.4363" r="0.0200"/><circle cx="-0.0929" cy="-0.4277" r="0.0200"/><circle cx="-0.0929" cy="-0.4168" r="0.0200"/><circle cx="-0.0929" cy="-0.4035" r="0.0200"/><circle cx="-0.0929" cy="-0.3880" r="0.0200"/><circle cx="-0.0929" cy="-0.3704" r="0.0200"/><circle cx="-0.0929" cy="-0.3507" r="0.0200"/><circle cx="-0.0929" cy="-0.3292" r="0.0200"/><circle cx="-0.0929" cy="-0.3059" r="0.0200"/><circle cx="-0.0929" cy="-0.2810" r="0.0200"/><circle cx="-0.0929" cy="-0.2546" r="0.0200"/><circle cx="-0.0929" cy="-0.2270" r="0.0200"/><circle cx="-0.0929" cy="-0.1982" r="0.0200"/><circle cx="-0.0929" cy="-0.1684" r="0.0200"/><circle cx="-0.0929" cy="-0.1379" r="0.0200"/><circle cx="-0.0929" cy="-0.1068" r="0.0200"/><circle cx="-0.0929" cy="-0.0753" r="0.0200"/><circle cx="-0.0929" cy="-0.0436" r="0.0200"/><circle cx="-0.0929" cy="-0.0119" r="0.0200"/><circle cx="-0.0929" cy="0.0196" r="0.0200"/><circle cx="-0.0929" cy="0.0507" r="0.0200"/><circle cx="-0.0929" cy="0.0812" r="0.0200"/><circle cx="-0.0929" cy="0.1110" r="0.0200"/><circle cx="-0.0929" cy="0.1398" r="0.0200"/><circle cx="-0.0929" cy="0.1674" r="0.0200"/><circle cx="-0.0929" cy="0.1938" r="0.0200"/><circle cx="-0.0929" cy="0.2187" r="0.0200"/><circle cx="-0.0929" cy="0.2420" r="0.0200"/><circle cx="-0.0929" cy="0.2635" r="0.0200"/><circle cx="-0.0929" cy="0.2831" r="0.0200"/><circle cx="-0.0929" cy="0.3008" r="0.0200"/><circle cx="-0.0929" cy="0.3163" r="0.0200"/><circle cx="-0.0929" cy="0.3295" r="0.0200"/><circle cx="-0.0929" cy="0.3405" r="0.0200"/><circle cx="-0.0929" cy="0.3491" r="0.0200"/><circle cx="-0.0929" cy="0.3553" r="0.0200"/><circle cx="-0.0929" cy="0.3590" r="0.0200"/><circle cx="-0.0929" cy="0.3603" r="0.0200"/><circle cx="-0.0033" cy="-0.4463" r="0.0200"/><circle cx="-0.0033" cy="-0.4425" r="0.0200"/><circle cx="-0.0033" cy="-0.4363" r="0.0200"/><circle cx="-0.0033" cy="-0.4277" r="0.0200"/><circle cx="-0.0033" cy="-0.4168" r="0.0200"/><circle cx="-0.0033" cy="-0.4035" r="0.0200"/><circle cx="-0.0033" cy="-0.3880" r="0.0200"/><circle cx="-0.0033" cy="-0.3704" r="0.0200"/><circle cx="-0.0033" cy="-0.3507" r="0.0200"/><circle cx="-0.0033" cy="-0.3292" r="0.0200"/><circle cx="-0.0033" cy="-0.3059" r="0.0200"/><circle cx="-0.0033" cy="-0.2810" r="0.0200"/><circle cx="-0.0033" cy="-0.2546" r="0.0200"/><circle cx="-0.0033" cy="-0.2270" r="0.0200"/><circle cx="-0.0033" cy="-0.1982" r="0.0200"/><circle cx="-0.0033" cy="-0.1684" r="0.0200"/><circle cx="-0.0033" cy="-0.1379" r="0.0200"/><circle cx="-0.0033" cy="-0.1068" r="0.0200"/><circle cx="-0.0033" cy="-0.0753" r="0.0200"/><circle cx="-0.0033" cy="-0.0436" r="0.0200"/><circle cx="-0.0033" cy="-0.0119" r="0.0200"/><circle cx="-0.0033" cy="0.0196" r="0.0200"/><circle cx="-0.0033" cy="0.0507" r="0.0200"/><circle cx="-0.0033" cy="0.0812" r="0.0200"/><circle cx="-0.0033" cy="0.1110" r="0.0200"/><circle cx="-0.0033" cy="0.1398" r="0.0200"/><circle cx="-0.0033" cy="0.1674" r="0.0200"/><circle cx="-0.0033" cy="0.1938" r="0.0200"/><circle cx="-0.0033" cy="0.2187" r="0.0200"/><circle cx="-0.0033" cy="0.2420" r="0.0200"/><circle cx="-0.0033" cy="0.2635" r="0.0200"/><circle cx="-0.0033" cy="0.2831" r="0.0200"/><circle cx="-0.0033" cy="0.3008" r="0.0200"/><circle cx="-0.0033" cy="0.3163" r="0.0200"/><circle cx="-0.0033" cy="0.3295" r="0.0200"/><circle cx="-0.0033" cy="0.3405" r="0.0200"/><circle cx="-0.0033" cy="0.3491" r="0.0200"/><circle cx="-0.0033" cy="0.3553" r="0.0200"/><circle cx="-0.0033" cy="0.3590" r="0.0200"/><circle cx="-0.0033" cy="0.3603" r="0.0200"/><circle cx="0.0828" cy="-0.4463" r="0.0200"/><circle cx="0.0828" cy="-0.4425" r="0.0200"/><circle cx="0.0828" cy="-0.4363" r="0.0200"/><circle cx="0.0828" cy="-0.4277" r="0.0200"/><circle cx="0.0828" cy="-0.4168" r="0.0200"/><circle cx="0.0828" cy="-0.4035" r="0.0200"/><circle cx="0.0828" cy="-0.3880" r="0.0200"/><circle cx="0.0828" cy="-0.3704" r="0.0200"/><circle cx="0.0828" cy="-0.3507" r="0.0200"/><circle cx="0.0828" cy="-0.3292" r="0.0200"/><circle cx="0.0828" cy="-0.3059" r="0.0200"/><circle cx="0.0828" cy="-0.2810" r="0.0200"/><circle cx="0.0828" cy="-0.2546" r="0.0200"/><circle cx="0.0828" cy="-0.2270" r="0.0200"/><circle cx="0.0828" cy="-0.1982" r="0.0200"/><circle cx="0.0828" cy="-0.1684" r="0.0200"/><circle cx="0.0828" cy="-0.1379" r="0.0200"/><circle cx="0.0828" cy="-0.1068" r="0.0200"/><circle cx="0.0828" cy="-0.0753" r="0.0200"/><circle cx="0.0828" cy="-0.0436" r="0.0200"/><circle cx="0.0828" cy="-0.0119" r="0.0200"/><circle cx="0.0828" cy="0.0196" r="0.0200"/><circle cx="0.0828" cy="0.0507" r="0.0200"/><circle cx="0.0828" cy="0.0812" r="0.0200"/><circle cx="0.0828" cy="0.1110" r="0.0200"/><circle cx="0.0828" cy="0.1398" r="0.0200"/><circle cx="0.0828" cy="0.1674" r="0.0200"/><circle cx="0.0828" cy="0.1938" r="0.0200"/><circle cx="0.0828" cy="0.2187" r="0.0200"/><circle cx="0.0828" cy="0.2420" r="0.0200"/><circle cx="0.0828" cy="0.2635" r="0.0200"/><circle cx="0.0828" cy="0.2831" r="0.0200"/><circle cx="0.0828" cy="0.3008" r="0.0200"/><circle cx="0.0828" cy="0.3163" r="0.0200"/><circle cx="0.0828" cy="0.3295" r="0.0200"/><circle cx="0.0828" cy="0.3405" r="0.0200"/><circle cx="0.0828" cy="0.3491" r="0.0200"/><circle cx="0.0828" cy="0.3553" r="0.0200"/><circle cx="0.0828" cy="0.3590" r="0.0200"/><circle cx="0.0828" cy="0.3603" r="0.0200"/><circle cx="0.1649" cy="-0.4463" r="0.0200"/><circle cx="0.1649" cy="-0.4425" r="0.0200"/><circle cx="0.1649" cy="-0.4363" r="0.0200"/><circle cx="0.1649" cy="-0.4277" r="0.0200"/><circle cx="0.1649" cy="-0.4168" r="0.0200"/><circle cx="0.1649" cy="-0.4035" r="0.0200"/><circle cx="0.1649" cy="-0.3880" r="0.0200"/><circle cx="0.1649" cy="-0.3704" r="0.0200"/><circle cx="0.1649" cy="-0.3507" r="0.0200"/><circle cx="0.1649" cy="-0.3292" r="0.0200"/><circle cx="0.1649" cy="-0.3059" r="0.0200"/><circle cx="0.1649" cy="-0.2810" r="0.0200"/><circle cx="0.1649" cy="-0.2546" r="0.0200"/><circle cx="0.1649" cy="-0.2270" r="0.0200"/><circle cx="0.1649" cy="-0.1982" r="0.0200"/><circle cx="0.1649" cy="-0.1684" r="0.0200"/><circle cx="0.1649" cy="-0.1379" r="0.0200"/><circle cx="0.1649" cy="-0.1068" r="0.0200"/><circle cx="0.1649" cy="-0.0753" r="0.0200"/><circle cx="0.1649" cy="-0.0436" r="0.0200"/><circle cx="0.1649" cy="-0.0119" r="0.0200"/><circle cx="0.1649" cy="0.0196" r="0.0200"/><circle cx="0.1649" cy="0.0507" r="0.0200"/><circle cx="0.1649" cy="0.0812" r="0.0200"/><circle cx="0.1649" cy="0.1110" r="0.0200"/><circle cx="0.1649" cy="0.1398" r="0.0200"/><circle cx="0.1649" cy="0.1674" r="0.0200"/><circle cx="0.1649" cy="0.1938" r="0.0200"/><circle cx="0.1649" cy="0.2187" r="0.0200"/><circle cx="0.1649" cy="0.2420" r="0.0200"/><circle cx="0.1649" cy="0.2635" r="0.0200"/><circle cx="0.1649" cy="0.2831" r="0.0200"/><circle cx="0.1649" cy="0.3008" r="0.0200"/><circle cx="0.1649" cy="0.3163" r="0.0200"/><circle cx="0.1649" cy="0.3295" r="0.0200"/><circle cx="0.1649" cy="0.3405" r="0.0200"/><circle cx="0.1649" cy="0.3491" r="0.0200"/><circle cx="0.1649" cy="0.3553" r="0.0200"/><circle cx="0.1649" cy="0.3590" r="0.0200"/><circle cx="0.1649" cy="0.3603" r="0.0200"/><circle cx="0.2424" cy="-0.4463" r="0.0200"/><circle cx="0.2424" cy="-0.4425" r="0.0200"/><circle cx="0.2424" cy="-0.4363" r="0.0200"/><circle cx="0.2424" cy="-0.4277" r="0.0200"/><circle cx="0.2424" cy="-0.4168" r="0.0200"/><circle cx="0.2424" cy="-0.4035" r="0.0200"/><circle cx="0.2424" cy="-0.3880" r="0.0200"/><circle cx="0.2424" cy="-0.3704" r="0.0200"/><circle cx="0.2424" cy="-0.3507" r="0.0200"/><circle cx="0.2424" cy="-0.3292" r="0.0200"/><circle cx="0.2424" cy="-0.3059" r="0.0200"/><circle cx="0.2424" cy="-0.2810" r="0.0200"/><circle cx="0.2424" cy="-0.2546" r="0.0200"/><circle cx="0.2424" cy="-0.2270" r="0.0200"/><circle cx="0.2424" cy="-0.1982" r="0.0200"/><circle cx="0.2424" cy="-0.1684" r="0.0200"/><circle cx="0.2424" cy="-0.1379" r="0.0200"/><circle cx="0.2424" cy="-0.1068" r="0.0200"/><circle cx="0.2424" cy="-0.0753" r="0.0200"/><circle cx="0.2424" cy="-0.0436" r="0.0200"/><circle cx="0.2424" cy="-0.0119" r="0.0200"/><circle cx="0.2424" cy="0.0196" r="0.0200"/><circle cx="0.2424" cy="0.0507" r="0.0200"/><circle cx="0.2424" cy="0.0812" r="0.0200"/><circle cx="0.2424" cy="0.1110" r="0.0200"/><circle cx="0.2424" cy="0.1398" r="0.0200"/><circle cx="0.2424" cy="0.1674" r="0.0200"/><circle cx="0.2424" cy="0.1938" r="0.0200"/><circle cx="0.2424" cy="0.2187" r="0.0200"/><circle cx="0.2424" cy="0.2420" r="0.0200"/><circle cx="0.2424" cy="0.2635" r="0.0200"/><circle cx="0.2424" cy="0.2831" r="0.0200"/><circle cx="0.2424" cy="0.3008" r="0.0200"/><circle cx="0.2424" cy="0.3163" r="0.0200"/><circle cx="0.2424" cy="0.3295" r="0.0200"/><circle cx="0.2424" cy="0.3405" r="0.0200"/><circle cx="0.2424" cy="0.3491" r="0.0200"/><circle cx="0.2424" cy="0.3553" r="0.0200"/><circle cx="0.2424" cy="0.3590" r="0.0200"/><circle cx="0.2424" cy="0.3603" r="0.0200"/><circle cx="0.3149" cy="-0.4463" r="0.0200"/><circle cx="0.3149" cy="-0.4425" r="0.0200"/><circle cx="0.3149" cy="-0.4363" r="0.0200"/><circle cx="0.3149" cy="-0.4277" r="0.0200"/><circle cx="0.3149" cy="-0.4168" r="0.0200"/><circle cx="0.3149" cy="-0.4035" r="0.0200"/><circle cx="0.3149" cy="-0.3880" r="0.0200"/><circle cx="0.3149" cy="-0.3704" r="0.0200"/><circle cx="0.3149" cy="-0.3507" r="0.0200"/><circle cx="0.3149" cy="-0.3292" r="0.0200"/><circle cx="0.3149" cy="-0.3059" r="0.0200"/><circle cx="0.3149" cy="-0.2810" r="0.0200"/><circle cx="0.3149" cy="-0.2546" r="0.0200"/><circle cx="0.3149" cy="-0.2270" r="0.0200"/><circle cx="0.3149" cy="-0.1982" r="0.0200"/><circle cx="0.3149" cy="-0.1684" r="0.0200"/><circle cx="0.3149" cy="-0.1379" r="0.0200"/><circle cx="0.3149" cy="-0.1068" r="0.0200"/><circle cx="0.3149" cy="-0.0753" r="0.0200"/><circle cx="0.3149" cy="-0.0436" r="0.0200"/><circle cx="0.3149" cy="-0.0119" r="0.0200"/><circle cx="0.3149" cy="0.0196" r="0.0200"/><circle cx="0.3149" cy="0.0507" r="0.0200"/><circle cx="0.3149" cy="0.0812" r="0.0200"/><circle cx="0.3149" cy="0.1110" r="0.0200"/><circle cx="0.3149" cy="0.1398" r="0.0200"/><circle cx="0.3149" cy="0.1674" r="0.0200"/><circle cx="0.3149" cy="0.1938" r="0.0200"/><circle cx="0.3149" cy="0.2187" r="0.0200"/><circle cx="0.3149" cy="0.2420" r="0.0200"/><circle cx="0.3149" cy="0.2635" r="0.0200"/><circle cx="0.3149" cy="0.2831" r="0.0200"/><circle cx="0.3149" cy="0.3008" r="0.0200"/><circle cx="0.3149" cy="0.3163" r="0.0200"/><circle cx="0.3149" cy="0.3295" r="0.0200"/><circle cx="0.3149" cy="0.3405" r="0.0200"/><circle cx="0.3149" cy="0.3491" r="0.0200"/><circle cx="0.3149" cy="0.3553" r="0.0200"/><circle cx="0.3149" cy="0.3590" r="0.0200"/><circle cx="0.3149" cy="0.3603" r="0.0200"/><circle cx="0.3819" cy="-0.4463" r="0.0200"/><circle cx="0.3819" cy="-0.4425" r="0.0200"/><circle cx="0.3819" cy="-0.4363" r="0.0200"/><circle cx="0.3819" cy="-0.4277" r="0.0200"/><circle cx="0.3819" cy="-0.4168" r="0.0200"/><circle cx="0.3819" cy="-0.4035" r="0.0200"/><circle cx="0.3819" cy="-0.3880" r="0.0200"/><circle cx="0.3819" cy="-0.3704" r="0.0200"/><circle cx="0.3819" cy="-0.3507" r="0.0200"/><circle cx="0.3819" cy="-0.3292" r="0.0200"/><circle cx="0.3819" cy="-0.3059" r="0.0200"/><circle cx="0.3819" cy="-0.2810" r="0.0200"/><circle cx="0.3819" cy="-0.2546" r="0.0200"/><circle cx="0.3819" cy="-0.2270" r="0.0200"/><circle cx="0.3819" cy="-0.1982" r="0.0200"/><circle cx="0.3819" cy="-0.1684" r="0.0200"/><circle cx="0.3819" cy="-0.1379" r="0.0200"/><circle cx="0.3819" cy="-0.1068" r="0.0200"/><circle cx="0.3819" cy="-0.0753" r="0.0200"/><circle cx="0.3819" cy="-0.0436" r="0.0200"/><circle cx="0.3819" cy="-0.0119" r="0.0200"/><circle cx="0.3819" cy="0.0196" r="0.0200"/><circle cx="0.3819" cy="0.0507" r="0.0200"/><circle cx="0.3819" cy="0.0812" r="0.0200"/><circle cx="0.3819" cy="0.1110" r="0.0200"/><circle cx="0.3819" cy="0.1398" r="0.0200"/><circle cx="0.3819" cy="0.1674" r="0.0200"/><circle cx="0.3819" cy="0.1938" r="0.0200"/><circle cx="0.3819" cy="0.2187" r="0.0200"/><circle cx="0.3819" cy="0.2420" r="0.0200"/><circle cx="0.3819" cy="0.2635" r="0.0200"/><circle cx="0.3819" cy="0.2831" r="0.0200"/><circle cx="0.3819" cy="0.3008" r="0.0200"/><circle cx="0.3819" cy="0.3163" r="0.0200"/><circle cx="0.3819" cy="0.3295" r="0.0200"/><circle cx="0.3819" cy="0.3405" r="0.0200"/><circle cx="0.3819" cy="0.3491" r="0.0200"/><circle cx="0.3819" cy="0.3553" r="0.0200"/><circle cx="0.3819" cy="0.3590" r="0.0200"/><circle cx="0.3819" cy="0.3603" r="0.0200"/><circle cx="0.4430" cy="-0.4463" r="0.0200"/><circle cx="0.4430" cy="-0.4425" r="0.0200"/><circle cx="0.4430" cy="-0.4363" r="0.0200"/><circle cx="0.4430" cy="-0.4277" r="0.0200"/><circle cx="0.4430" cy="-0.4168" r="0.0200"/><circle cx="0.4430" cy="-0.4035" r="0.0200"/><circle cx="0.4430" cy="-0.3880" r="0.0200"/><circle cx="0.4430" cy="-0.3704" r="0.0200"/><circle cx="0.4430" cy="-0.3507" r="0.0200"/><circle cx="0.4430" cy="-0.3292" r="0.0200"/><circle cx="0.4430" cy="-0.3059" r="0.0200"/><circle cx="0.4430" cy="-0.2810" r="0.0200"/><circle cx="0.4430" cy="-0.2546" r="0.0200"/><circle cx="0.4430" cy="-0.2270" r="0.0200"/><circle cx="0.4430" cy="-0.1982" r="0.0200"/><circle cx="0.4430" cy="-0.1684" r="0.0200"/><circle cx="0.4430" cy="-0.1379" r="0.0200"/><circle cx="0.4430" cy="-0.1068" r="0.0200"/><circle cx="0.4430" cy="-0.0753" r="0.0200"/><circle cx="0.4430" cy="-0.0436" r="0.0200"/><circle cx="0.4430" cy="-0.0119" r="0.0200"/><circle cx="0.4430" cy="0.0196" r="0.0200"/><circle cx="0.4430" cy="0.0507" r="0.0200"/><circle cx="0.4430" cy="0.0812" r="0.0200"/><circle cx="0.4430" cy="0.1110" r="0.0200"/><circle cx="0.4430" cy="0.1398" r="0.0200"/><circle cx="0.4430" cy="0.1674" r="0.0200"/><circle cx="0.4430" cy="0.1938" r="0.0200"/><circle cx="0.4430" cy="0.2187" r="0.0200"/><circle cx="0.4430" cy="0.2420" r="0.0200"/><circle cx="0.4430" cy="0.2635" r="0.0200"/><circle cx="0.4430" cy="0.2831" r="0.0200"/><circle cx="0.4430" cy="0.3008" r="0.0200"/><circle cx="0.4430" cy="0.3163" r="0.0200"/><circle cx="0.4430" cy="0.3295" r="0.0200"/><circle cx="0.4430" cy="0.3405" r="0.0200"/><circle cx="0.4430" cy="0.3491" r="0.0200"/><circle cx="0.4430" cy="0.3553" r="0.0200"/><circle cx="0.4430" cy="0.3590" r="0.0200"/><circle cx="0.4430" cy="0.3603" r="0.0200"/><circle cx="0.4979" cy="-0.4463" r="0.0200"/><circle cx="0.4979" cy="-0.4425" r="0.0200"/><circle cx="0.4979" cy="-0.4363" r="0.0200"/><circle cx="0.4979" cy="-0.4277" r="0.0200"/><circle cx="0.4979" cy="-0.4168" r="0.0200"/><circle cx="0.4979" cy="-0.4035" r="0.0200"/><circle cx="0.4979" cy="-0.3880" r="0.0200"/><circle cx="0.4979" cy="-0.3704" r="0.0200"/><circle cx="0.4979" cy="-0.3507" r="0.0200"/><circle cx="0.4979" cy="-0.3292" r="0.0200"/><circle cx="0.4979" cy="-0.3059" r="0.0200"/><circle cx="0.4979" cy="-0.2810" r="0.0200"/><circle cx="0.4979" cy="-0.2546" r="0.0200"/><circle cx="0.4979" cy="-0.2270" r="0.0200"/><circle cx="0.4979" cy="-0.1982" r="0.0200"/><circle cx="0.4979" cy="-0.1684" r="0.0200"/><circle cx="0.4979" cy="-0.1379" r="0.0200"/><circle cx="0.4979" cy="-0.1068" r="0.0200"/><circle cx="0.4979" cy="-0.0753" r="0.0200"/><circle cx="0.4979" cy="-0.0436" r="0.0200"/><circle cx="0.4979" cy="-0.0119" r="0.0200"/><circle cx="0.4979" cy="0.0196" r="0.0200"/><circle cx="0.4979" cy="0.0507" r="0.0200"/><circle cx="0.4979" cy="0.0812" r="0.0200"/><circle cx="0.4979" cy="0.1110" r="0.0200"/><circle cx="0.4979" cy="0.1398" r="0.0200"/><circle cx="0.4979" cy="0.1674" r="0.0200"/><circle cx="0.4979" cy="0.1938" r="0.0200"/><circle cx="0.4979" cy="0.2187" r="0.0200"/><circle cx="0.4979" cy="0.2420" r="0.0200"/><circle cx="0.4979" cy="0.2635" r="0.0200"/><circle cx="0.4979" cy="0.2831" r="0.0200"/><circle cx="0.4979" cy="0.3008" r="0.0200"/><circle cx="0.4979" cy="0.3163" r="0.0200"/><circle cx="0.4979" cy="0.3295" r="0.0200"/><circle cx="0.4979" cy="0.3405" r="0.0200"/><circle cx="0.4979" cy="0.3491" r="0.0200"/><circle cx="0.4979" cy="0.3553" r="0.0200"/><circle cx="0.4979" cy="0.3590" r="0.0200"/><circle cx="0.4979" cy="0.3603" r="0.0200"/><circle cx="0.5461" cy="-0.4463" r="0.0200"/><circle cx="0.5461" cy="-0.4425" r="0.0200"/><circle cx="0.5461" cy="-0.4363" r="0.0200"/><circle cx="0.5461" cy="-0.4277" r="0.0200"/><circle cx="0.5461" cy="-0.4168" r="0.0200"/><circle cx="0.5461" cy="-0.4035" r="0.0200"/><circle cx="0.5461" cy="-0.3880" r="0.0200"/><circle cx="0.5461" cy="-0.3704" r="0.0200"/><circle cx="0.5461" cy="-0.3507" r="0.0200"/><circle cx="0.5461" cy="-0.3292" r="0.0200"/><circle cx="0.5461" cy="-0.3059" r="0.0200"/><circle cx="0.5461" cy="-0.2810" r="0.0200"/><circle cx="0.5461" cy="-0.2546" r="0.0200"/><circle cx="0.5461" cy="-0.2270" r="0.0200"/><circle cx="0.5461" cy="-0.1982" r="0.0200"/><circle cx="0.5461" cy="-0.1684" r="0.0200"/><circle cx="0.5461" cy="-0.1379" r="0.0200"/><circle cx="0.5461" cy="-0.1068" r="0.0200"/><circle cx="0.5461" cy="-0.0753" r="0.0200"/><circle cx="0.5461" cy="-0.0436" r="0.0200"/><circle cx="0.5461" cy="-0.0119" r="0.0200"/><circle cx="0.5461" cy="0.0196" r="0.0200"/><circle cx="0.5461" cy="0.0507" r="0.0200"/><circle cx="0.5461" cy="0.0812" r="0.0200"/><circle cx="0.5461" cy="0.1110" r="0.0200"/><circle cx="0.5461" cy="0.1398" r="0.0200"/><circle cx="0.5461" cy="0.1674" r="0.0200"/><circle cx="0.5461" cy="0.1938" r="0.0200"/><circle cx="0.5461" cy="0.2187" r="0.0200"/><circle cx="0.5461" cy="0.2420" r="0.0200"/><circle cx="0.5461" cy="0.2635" r="0.0200"/><circle cx="0.5461" cy="0.2831" r="0.0200"/><circle cx="0.5461" cy="0.3008" r="0.0200"/><circle cx="0.5461" cy="0.3163" r="0.0200"/><circle cx="0.5461" cy="0.3295" r="0.0200"/><circle cx="0.5461" cy="0.3405" r="0.0200"/><circle cx="0.5461" cy="0.3491" r="0.0200"/><circle cx="0.5461" cy="0.3553" r="0.0200"/><circle cx="0.5461" cy="0.3590" r="0.0200"/><circle cx="0.5461" cy="0.3603" r="0.0200"/><circle cx="0.5874" cy="-0.4463" r="0.0200"/><circle cx="0.5874" cy="-0.4425" r="0.0200"/><circle cx="0.5874" cy="-0.4363" r="0.0200"/><circle cx="0.5874" cy="-0.4277" r="0.0200"/><circle cx="0.5874" cy="-0.4168" r="0.0200"/><circle cx="0.5874" cy="-0.4035" r="0.0200"/><circle cx="0.5874" cy="-0.3880" r="0.0200"/><circle cx="0.5874" cy="-0.3704" r="0.0200"/><circle cx="0.5874" cy="-0.3507" r="0.0200"/><circle cx="0.5874" cy="-0.3292" r="0.0200"/><circle cx="0.5874" cy="-0.3059" r="0.0200"/><circle cx="0.5874" cy="-0.2810" r="0.0200"/><circle cx="0.5874" cy="-0.2546" r="0.0200"/><circle cx="0.5874" cy="-0.2270" r="0.0200"/><circle cx="0.5874" cy="-0.1982" r="0.0200"/><circle cx="0.5874" cy="-0.1684" r="0.0200"/><circle cx="0.5874" cy="-0.1379" r="0.0200"/><circle cx="0.5874" cy="-0.1068" r="0.0200"/><circle cx="0.5874" cy="-0.0753" r="0.0200"/><circle cx="0.5874" cy="-0.0436" r="0.0200"/><circle cx="0.5874" cy="-0.0119" r="0.0200"/><circle cx="0.5874" cy="0.0196" r="0.0200"/><circle cx="0.5874" cy="0.0507" r="0.0200"/><circle cx="0.5874" cy="0.0812" r="0.0200"/><circle cx="0.5874" cy="0.1110" r="0.0200"/><circle cx="0.5874" cy="0.1398" r="0.0200"/><circle cx="0.5874" cy="0.1674" r="0.0200"/><circle cx="0.5874" cy="0.1938" r="0.0200"/><circle cx="0.5874" cy="0.2187" r="0.0200"/><circle cx="0.5874" cy="0.2420" r="0.0200"/><circle cx="0.5874" cy="0.2635" r="0.0200"/><circle cx="0.5874" cy="0.2831" r="0.0200"/><circle cx="0.5874" cy="0.3008" r="0.0200"/><circle cx="0.5874" cy="0.3163" r="0.0200"/><circle cx="0.5874" cy="0.3295" r="0.0200"/><circle cx="0.5874" cy="0.3405" r="0.0200"/><circle cx="0.5874" cy="0.3491" r="0.0200"/><circle cx="0.5874" cy="0.3553" r="0.0200"/><circle cx="0.5874" cy="0.3590" r="0.0200"/><circle cx="0.5874" cy="0.3603" r="0.0200"/><circle cx="0.6216" cy="-0.4463" r="0.0200"/><circle cx="0.6216" cy="-0.4425" r="0.0200"/><circle cx="0.6216" cy="-0.4363" r="0.0200"/><circle cx="0.6216" cy="-0.4277" r="0.0200"/><circle cx="0.6216" cy="-0.4168" r="0.0200"/><circle cx="0.6216" cy="-0.4035" r="0.0200"/><circle cx="0.6216" cy="-0.3880" r="0.0200"/><circle cx="0.6216" cy="-0.3704" r="0.0200"/><circle cx="0.6216" cy="-0.3507" r="0.0200"/><circle cx="0.6216" cy="-0.3292" r="0.0200"/><circle cx="0.6216" cy="-0.3059" r="0.0200"/><circle cx="0.6216" cy="-0.2810" r="0.0200"/><circle cx="0.6216" cy="-0.2546" r="0.0200"/><circle cx="0.6216" cy="-0.2270" r="0.0200"/><circle cx="0.6216" cy="-0.1982" r="0.0200"/><circle cx="0.6216" cy="-0.1684" r="0.0200"/><circle cx="0.6216" cy="-0.1379" r="0.0200"/><circle cx="0.6216" cy="-0.1068" r="0.0200"/><circle cx="0.6216" cy="-0.0753" r="0.0200"/><circle cx="0.6216" cy="-0.0436" r="0.0200"/><circle cx="0.6216" cy="-0.0119" r="0.0200"/><circle cx="0.6216" cy="0.0196" r="0.0200"/><circle cx="0.6216" cy="0.0507" r="0.0200"/><circle cx="0.6216" cy="0.0812" r="0.0200"/><circle cx="0.6216" cy="0.1110" r="0.0200"/><circle cx="0.6216" cy="0.1398" r="0.0200"/><circle cx="0.6216" cy="0.1674" r="0.0200"/><circle cx="0.6216" cy="0.1938" r="0.0200"/><circle cx="0.6216" cy="0.2187" r="0.0200"/><circle cx="0.6216" cy="0.2420" r="0.0200"/><circle cx="0.6216" cy="0.2635" r="0.0200"/><circle cx="0.6216" cy="0.2831" r="0.0200"/><circle cx="0.6216" cy="0.3008" r="0.0200"/><circle cx="0.6216" cy="0.3163" r="0.0200"/><circle cx="0.6216" cy="0.3295" r="0.0200"/><circle cx="0.6216" cy="0.3405" r="0.0200"/><circle cx="0.6216" cy="0.3491" r="0.0200"/><circle cx="0.6216" cy="0.3553" r="0.0200"/><circle cx="0.6216" cy="0.3590" r="0.0200"/><circle cx="0.6216" cy="0.3603" r="0.0200"/><circle cx="0.6484" cy="-0.4463" r="0.0200"/><circle cx="0.6484" cy="-0.4425" r="0.0200"/><circle cx="0.6484" cy="-0.4363" r="0.0200"/><circle cx="0.6484" cy="-0.4277" r="0.0200"/><circle cx="0.6484" cy="-0.4168" r="0.0200"/><circle cx="0.6484" cy="-0.4035" r="0.0200"/><circle cx="0.6484" cy="-0.3880" r="0.0200"/><circle cx="0.6484" cy="-0.3704" r="0.0200"/><circle cx="0.6484" cy="-0.3507" r="0.0200"/><circle cx="0.6484" cy="-0.3292" r="0.0200"/><circle cx="0.6484" cy="-0.3059" r="0.0200"/><circle cx="0.6484" cy="-0.2810" r="0.0200"/><circle cx="0.6484" cy="-0.2546" r="0.0200"/><circle cx="0.6484" cy="-0.2270" r="0.0200"/><circle cx="0.6484" cy="-0.1982" r="0.0200"/><circle cx="0.6484" cy="-0.1684" r="0.0200"/><circle cx="0.6484" cy="-0.1379" r="0.0200"/><circle cx="0.6484" cy="-0.1068" r="0.0200"/><circle cx="0.6484" cy="-0.0753" r="0.0200"/><circle cx="0.6484" cy="-0.0436" r="0.0200"/><circle cx="0.6484" cy="-0.0119" r="0.0200"/><circle cx="0.6484" cy="0.0196" r="0.0200"/><circle cx="0.6484" cy="0.0507" r="0.0200"/><circle cx="0.6484" cy="0.0812" r="0.0200"/><circle cx="0.6484" cy="0.1110" r="0.0200"/><circle cx="0.6484" cy="0.1398" r="0.0200"/><circle cx="0.6484" cy="0.1674" r="0.0200"/><circle cx="0.6484" cy="0.1938" r="0.0200"/><circle cx="0.6484" cy="0.2187" r="0.0200"/><circle cx="0.6484" cy="0.2420" r="0.0200"/><circle cx="0.6484" cy="0.2635" r="0.0200"/><circle cx="0.6484" cy="0.2831" r="0.0200"/><circle cx="0.6484" cy="0.3008" r="0.0200"/><circle cx="0.6484" cy="0.3163" r="0.0200"/><circle cx="0.6484" cy="0.3295" r="0.0200"/><circle cx="0.6484" cy="0.3405" r="0.0200"/><circle cx="0.6484" cy="0.3491" r="0.0200"/><circle cx="0.6484" cy="0.3553" r="0.0200"/><circle cx="0.6484" cy="0.3590" r="0.0200"/><circle cx="0.6484" cy="0.3603" r="0.0200"/><circle cx="0.6676" cy="-0.4463" r="0.0200"/><circle cx="0.6676" cy="-0.4425" r="0.0200"/><circle cx="0.6676" cy="-0.4363" r="0.0200"/><circle cx="0.6676" cy="-0.4277" r="0.0200"/><circle cx="0.6676" cy="-0.4168" r="0.0200"/><circle cx="0.6676" cy="-0.4035" r="0.0200"/><circle cx="0.6676" cy="-0.3880" r="0.0200"/><circle cx="0.6676" cy="-0.3704" r="0.0200"/><circle cx="0.6676" cy="-0.3507" r="0.0200"/><circle cx="0.6676" cy="-0.3292" r="0.0200"/><circle cx="0.6676" cy="-0.3059" r="0.0200"/><circle cx="0.6676" cy="-0.2810" r="0.0200"/><circle cx="0.6676" cy="-0.2546" r="0.0200"/><circle cx="0.6676" cy="-0.2270" r="0.0200"/><circle cx="0.6676" cy="-0.1982" r="0.0200"/><circle cx="0.6676" cy="-0.1684" r="0.0200"/><circle cx="0.6676" cy="-0.1379" r="0.0200"/><circle cx="0.6676" cy="-0.1068" r="0.0200"/><circle cx="0.6676" cy="-0.0753" r="0.0200"/><circle cx="0.6676" cy="-0.0436" r="0.0200"/><circle cx="0.6676" cy="-0.0119" r="0.0200"/><circle cx="0.6676" cy="0.0196" r="0.0200"/><circle cx="0.6676" cy="0.0507" r="0.0200"/><circle cx="0.6676" cy="0.0812" r="0.0200"/><circle cx="0.6676" cy="0.1110" r="0.0200"/><circle cx="0.6676" cy="0.1398" r="0.0200"/><circle cx="0.6676" cy="0.1674" r="0.0200"/><circle cx="0.6676" cy="0.1938" r="0.0200"/><circle cx="0.6676" cy="0.2187" r="0.0200"/><circle cx="0.6676" cy="0.2420" r="0.0200"/><circle cx="0.6676" cy="0.2635" r="0.0200"/><circle cx="0.6676" cy="0.2831" r="0.0200"/><circle cx="0.6676" cy="0.3008" r="0.0200"/><circle cx="0.6676" cy="0.3163" r="0.0200"/><circle cx="0.6676" cy="0.3295" r="0.0200"/><circle cx="0.6676" cy="0.3405" r="0.0200"/><circle cx="0.6676" cy="0.3491" r="0.0200"/><circle cx="0.6676" cy="0.3553" r="0.0200"/><circle cx="0.6676" cy="0.3590" r="0.0200"/><circle cx="0.6676" cy="0.3603" r="0.0200"/><circle cx="0.6792" cy="-0.4463" r="0.0200"/><circle cx="0.6792" cy="-0.4425" r="0.0200"/><circle cx="0.6792" cy="-0.4363" r="0.0200"/><circle cx="0.6792" cy="-0.4277" r="0.0200"/><circle cx="0.6792" cy="-0.4168" r="0.0200"/><circle cx="0.6792" cy="-0.4035" r="0.0200"/><circle cx="0.6792" cy="-0.3880" r="0.0200"/><circle cx="0.6792" cy="-0.3704" r="0.0200"/><circle cx="0.6792" cy="-0.3507" r="0.0200"/><circle cx="0.6792" cy="-0.3292" r="0.0200"/><circle cx="0.6792" cy="-0.3059" r="0.0200"/><circle cx="0.6792" cy="-0.2810" r="0.0200"/><circle cx="0.6792" cy="-0.2546" r="0.0200"/><circle cx="0.6792" cy="-0.2270" r="0.0200"/><circle cx="0.6792" cy="-0.1982" r="0.0200"/><circle cx="0.6792" cy="-0.1684" r="0.0200"/><circle cx="0.6792" cy="-0.1379" r="0.0200"/><circle cx="0.6792" cy="-0.1068" r="0.0200"/><circle cx="0.6792" cy="-0.0753" r="0.0200"/><circle cx="0.6792" cy="-0.0436" r="0.0200"/><circle cx="0.6792" cy="-0.0119" r="0.0200"/><circle cx="0.6792" cy="0.0196" r="0.0200"/><circle cx="0.6792" cy="0.0507" r="0.0200"/><circle cx="0.6792" cy="0.0812" r="0.0200"/><circle cx="0.6792" cy="0.1110" r="0.0200"/><circle cx="0.6792" cy="0.1398" r="0.0200"/><circle cx="0.6792" cy="0.1674" r="0.0200"/><circle cx="0.6792" cy="0.1938" r="0.0200"/><circle cx="0.6792" cy="0.2187" r="0.0200"/><circle cx="0.6792" cy="0.2420" r="0.0200"/><circle cx="0.6792" cy="0.2635" r="0.0200"/><circle cx="0.6792" cy="0.2831" r="0.0200"/><circle cx="0.6792" cy="0.3008" r="0.0200"/><circle cx="0.6792" cy="0.3163" r="0.0200"/><circle cx="0.6792" cy="0.3295" r="0.0200"/><circle cx="0.6792" cy="0.3405" r="0.0200"/><circle cx="0.6792" cy="0.3491" r="0.0200"/><circle cx="0.6792" cy="0.3553" r="0.0200"/><circle cx="0.6792" cy="0.3590" r="0.0200"/><circle cx="0.6792" cy="0.3603" r="0.0200"/><circle cx="0.6831" cy="-0.4463" r="0.0200"/><circle cx="0.6831" cy="-0.4425" r="0.0200"/><circle cx="0.6831" cy="-0.4363" r="0.0200"/><circle cx="0.6831" cy="-0.4277" r="0.0200"/><circle cx="0.6831" cy="-0.4168" r="0.0200"/><circle cx="0.6831" cy="-0.4035" r="0.0200"/><circle cx="0.6831" cy="-0.3880" r="0.0200"/><circle cx="0.6831" cy="-0.3704" r="0.0200"/><circle cx="0.6831" cy="-0.3507" r="0.0200"/><circle cx="0.6831" cy="-0.3292" r="0.0200"/><circle cx="0.6831" cy="-0.3059" r="0.0200"/><circle cx="0.6831" cy="-0.2810" r="0.0200"/><circle cx="0.6831" cy="-0.2546" r="0.0200"/><circle cx="0.6831" cy="-0.2270" r="0.0200"/><circle cx="0.6831" cy="-0.1982" r="0.0200"/><circle cx="0.6831" cy="-0.1684" r="0.0200"/><circle cx="0.6831" cy="-0.1379" r="0.0200"/><circle cx="0.6831" cy="-0.1068" r="0.0200"/><circle cx="0.6831" cy="-0.0753" r="0.0200"/><circle cx="0.6831" cy="-0.0436" r="0.0200"/><circle cx="0.6831" cy="-0.0119" r="0.0200"/><circle cx="0.6831" cy="0.0196" r="0.0200"/><circle cx="0.6831" cy="0.0507" r="0.0200"/><circle cx="0.6831" cy="0.0812" r="0.0200"/><circle cx="0.6831" cy="0.1110" r="0.0200"/><circle cx="0.6831" cy="0.1398" r="0.0200"/><circle cx="0.6831" cy="0.1674" r="0.0200"/><circle cx="0.6831" cy="0.1938" r="0.0200"/><circle cx="0.6831" cy="0.2187" r="0.0200"/><circle cx="0.6831" cy="0.2420" r="0.0200"/><circle cx="0.6831" cy="0.2635" r="0.0200"/><circle cx="0.6831" cy="0.2831" r="0.0200"/><circle cx="0.6831" cy="0.3008" r="0.0200"/><circle cx="0.6831" cy="0.3163" r="0.0200"/><circle cx="0.6831" cy="0.3295" r="0.0200"/><circle cx="0.6831" cy="0.3405" r="0.0200"/><circle cx="0.6831" cy="0.3491" r="0.0200"/><circle cx="0.6831" cy="0.3553" r="0.0200"/><circle cx="0.6831" cy="0.3590" r="0.0200"/><circle cx="0.6831" cy="0.3603" r="0.0200"/><circle cx="0.6792" cy="-0.4463" r="0.0200"/><circle cx="0.6792" cy="-0.4425" r="0.0200"/><circle cx="0.6792" cy="-0.4363" r="0.0200"/><circle cx="0.6792" cy="-0.4277" r="0.0200"/><circle cx="0.6792" cy="-0.4168" r="0.0200"/><circle cx="0.6792" cy="-0.4035" r="0.0200"/><circle cx="0.6792" cy="-0.3880" r="0.0200"/><circle cx="0.6792" cy="-0.3704" r="0.0200"/><circle cx="0.6792" cy="-0.3507" r="0.0200"/><circle cx="0.6792" cy="-0.3292" r="0.0200"/><circle cx="0.6792" cy="-0.3059" r="0.0200"/><circle cx="0.6792" cy="-0.2810" r="0.0200"/><circle cx="0.6792" cy="-0.2546" r="0.0200"/><circle cx="0.6792" cy="-0.2270" r="0.0200"/><circle cx="0.6792" cy="-0.1982" r="0.0200"/><circle cx="0.6792" cy="-0.1684" r="0.0200"/><circle cx="0.6792" cy="-0.1379" r="0.0200"/><circle cx="0.6792" cy="-0.1068" r="0.0200"/><circle cx="0.6792" cy="-0.0753" r="0.0200"/><circle cx="0.6792" cy="-0.0436" r="0.0200"/><circle cx="0.6792" cy="-0.0119" r="0.0200"/><circle cx="0.6792" cy="0.0196" r="0.0200"/><circle cx="0.6792" cy="0.0507" r="0.0200"/><circle cx="0.6792" cy="0.0812" r="0.0200"/><circle cx="0.6792" cy="0.1110" r="0.0200"/><circle cx="0.6792" cy="0.1398" r="0.0200"/><circle cx="0.6792" cy="0.1674" r="0.0200"/><circle cx="0.6792" cy="0.1938" r="0.0200"/><circle cx="0.6792" cy="0.2187" r="0.0200"/><circle cx="0.6792" cy="0.2420" r="0.0200"/><circle cx="0.6792" cy="0.2635" r="0.0200"/><circle cx="0.6792" cy="0.2831" r="0.0200"/><circle cx="0.6792" cy="0.3008" r="0.0200"/><circle cx="0.6792" cy="0.3163" r="0.0200"/><circle cx="0.6792" cy="0.3295" r="0.0200"/><circle cx="0.6792" cy="0.3405" r="0.0200"/><circle cx="0.6792" cy="0.3491" r="0.0200"/><circle cx="0.6792" cy="0.3553" r="0.0200"/><circle cx="0.6792" cy="0.3590" r="0.0200"/><circle cx="0.6792" cy="0.3603" r="0.0200"/><circle cx="0.6676" cy="-0.4463" r="0.0200"/><circle cx="0.6676" cy="-0.4425" r="0.0200"/><circle cx="0.6676" cy="-0.4363" r="0.0200"/><circle cx="0.6676" cy="-0.4277" r="0.0200"/><circle cx="0.6676" cy="-0.4168" r="0.0200"/><circle cx="0.6676" cy="-0.4035" r="0.0200"/><circle cx="0.6676" cy="-0.3880" r="0.0200"/><circle cx="0.6676" cy="-0.3704" r="0.0200"/><circle cx="0.6676" cy="-0.3507" r="0.0200"/><circle cx="0.6676" cy="-0.3292" r="0.0200"/><circle cx="0.6676" cy="-0.3059" r="0.0200"/><circle cx="0.6676" cy="-0.2810" r="0.0200"/><circle cx="0.6676" cy="-0.2546" r="0.0200"/><circle cx="0.6676" cy="-0.2270" r="0.0200"/><circle cx="0.6676" cy="-0.1982" r="0.0200"/><circle cx="0.6676" cy="-0.1684" r="0.0200"/><circle cx="0.6676" cy="-0.1379" r="0.0200"/><circle cx="0.6676" cy="-0.1068" r="0.0200"/><circle cx="0.6676" cy="-0.0753" r="0.0200"/><circle cx="0.6676" cy="-0.0436" r="0.0200"/><circle cx="0.6676" cy="-0.0119" r="0.0200"/><circle cx="0.6676" cy="0.0196" r="0.0200"/><circle cx="0.6676" cy="0.0507" r="0.0200"/><circle cx="0.6676" cy="0.0812" r="0.0200"/><circle cx="0.6676" cy="0.1110" r="0.0200"/><circle cx="0.6676" cy="0.1398" r="0.0200"/><circle cx="0.6676" cy="0.1674" r="0.0200"/><circle cx="0.6676" cy="0.1938" r="0.0200"/><circle cx="0.6676" cy="0.2187" r="0.0200"/><circle cx="0.6676" cy="0.2420" r="0.0200"/><circle cx="0.6676" cy="0.2635" r="0.0200"/><circle cx="0.6676" cy="0.2831" r="0.0200"/><circle cx="0.6676" cy="0.3008" r="0.0200"/><circle cx="0.6676" cy="0.3163" r="0.0200"/><circle cx="0.6676" cy="0.3295" r="0.0200"/><circle cx="0.6676" cy="0.3405" r="0.0200"/><circle cx="0.6676" cy="0.3491" r="0.0200"/><circle cx="0.6676" cy="0.3553" r="0.0200"/><circle cx="0.6676" cy="0.3590" r="0.0200"/><circle cx="0.6676" cy="0.3603" r="0.0200"/><circle cx="0.6484" cy="-0.4463" r="0.0200"/><circle cx="0.6484" cy="-0.4425" r="0.0200"/><circle cx="0.6484" cy="-0.4363" r="0.0200"/><circle cx="0.6484" cy="-0.4277" r="0.0200"/><circle cx="0.6484" cy="-0.4168" r="0.0200"/><circle cx="0.6484" cy="-0.4035" r="0.0200"/><circle cx="0.6484" cy="-0.3880" r="0.0200"/><circle cx="0.6484" cy="-0.3704" r="0.0200"/><circle cx="0.6484" cy="-0.3507" r="0.0200"/><circle cx="0.6484" cy="-0.3292" r="0.0200"/><circle cx="0.6484" cy="-0.3059" r="0.0200"/><circle cx="0.6484" cy="-0.2810" r="0.0200"/><circle cx="0.6484" cy="-0.2546" r="0.0200"/><circle cx="0.6484" cy="-0.2270" r="0.0200"/><circle cx="0.6484" cy="-0.1982" r="0.0200"/><circle cx="0.6484" cy="-0.1684" r="0.0200"/><circle cx="0.6484" cy="-0.1379" r="0.0200"/><circle cx="0.6484" cy="-0.1068" r="0.0200"/><circle cx="0.6484" cy="-0.0753" r="0.0200"/><circle cx="0.6484" cy="-0.0436" r="0.0200"/><circle cx="0.6484" cy="-0.0119" r="0.0200"/><circle cx="0.6484" cy="0.0196" r="0.0200"/><circle cx="0.6484" cy="0.0507" r="0.0200"/><circle cx="0.6484" cy="0.0812" r="0.0200"/><circle cx="0.6484" cy="0.1110" r="0.0200"/><circle cx="0.6484" cy="0.1398" r="0.0200"/><circle cx="0.6484" cy="0.1674" r="0.0200"/><circle cx="0.6484" cy="0.1938" r="0.0200"/><circle cx="0.6484" cy="0.2187" r="0.0200"/><circle cx="0.6484" cy="0.2420" r="0.0200"/><circle cx="0.6484" cy="0.2635" r="0.0200"/><circle cx="0.6484" cy="0.2831" r="0.0200"/><circle cx="0.6484" cy="0.3008" r="0.0200"/><circle cx="0.6484" cy="0.3163" r="0.0200"/><circle cx="0.6484" cy="0.3295" r="0.0200"/><circle cx="0.6484" cy="0.3405" r="0.0200"/><circle cx="0.6484" cy="0.3491" r="0.0200"/><circle cx="0.6484" cy="0.3553" r="0.0200"/><circle cx="0.6484" cy="0.3590" r="0.0200"/><circle cx="0.6484" cy="0.3603" r="0.0200"/><circle cx="0.6216" cy="-0.4463" r="0.0200"/><circle cx="0.6216" cy="-0.4425" r="0.0200"/><circle cx="0.6216" cy="-0.4363" r="0.0200"/><circle cx="0.6216" cy="-0.4277" r="0.0200"/><circle cx="0.6216" cy="-0.4168" r="0.0200"/><circle cx="0.6216" cy="-0.4035" r="0.0200"/><circle cx="0.6216" cy="-0.3880" r="0.0200"/><circle cx="0.6216" cy="-0.3704" r="0.0200"/><circle cx="0.6216" cy="-0.3507" r="0.0200"/><circle cx="0.6216" cy="-0.3292" r="0.0200"/><circle cx="0.6216" cy="-0.3059" r="0.0200"/><circle cx="0.6216" cy="-0.2810" r="0.0200"/><circle cx="0.6216" cy="-0.2546" r="0.0200"/><circle cx="0.6216" cy="-0.2270" r="0.0200"/><circle cx="0.6216" cy="-0.1982" r="0.0200"/><circle cx="0.6216" cy="-0.1684" r="0.0200"/><circle cx="0.6216" cy="-0.1379" r="0.0200"/><circle cx="0.6216" cy="-0.1068" r="0.0200"/><circle cx="0.6216" cy="-0.0753" r="0.0200"/><circle cx="0.6216" cy="-0.0436" r="0.0200"/><circle cx="0.6216" cy="-0.0119" r="0.0200"/><circle cx="0.6216" cy="0.0196" r="0.0200"/><circle cx="0.6216" cy="0.0507" r="0.0200"/><circle cx="0.6216" cy="0.0812" r="0.0200"/><circle cx="0.6216" cy="0.1110" r="0.0200"/><circle cx="0.6216" cy="0.1398" r="0.0200"/><circle cx="0.6216" cy="0.1674" r="0.0200"/><circle cx="0.6216" cy="0.1938" r="0.0200"/><circle cx="0.6216" cy="0.2187" r="0.0200"/><circle cx="0.6216" cy="0.2420" r="0.0200"/><circle cx="0.6216" cy="0.2635" r="0.0200"/><circle cx="0.6216" cy="0.2831" r="0.0200"/><circle cx="0.6216" cy="0.3008" r="0.0200"/><circle cx="0.6216" cy="0.3163" r="0.0200"/><circle cx="0.6216" cy="0.3295" r="0.0200"/><circle cx="0.6216" cy="0.3405" r="0.0200"/><circle cx="0.6216" cy="0.3491" r="0.0200"/><circle cx="0.6216" cy="0.3553" r="0.0200"/><circle cx="0.6216" cy="0.3590" r="0.0200"/><circle cx="0.6216" cy="0.3603" r="0.0200"/><circle cx="0.5874" cy="-0.4463" r="0.0200"/><circle cx="0.5874" cy="-0.4425" r="0.0200"/><circle cx="0.5874" cy="-0.4363" r="0.0200"/><circle cx="0.5874" cy="-0.4277" r="0.0200"/><circle cx="0.5874" cy="-0.4168" r="0.0200"/><circle cx="0.5874" cy="-0.4035" r="0.0200"/><circle cx="0.5874" cy="-0.3880" r="0.0200"/><circle cx="0.5874" cy="-0.3704" r="0.0200"/><circle cx="0.5874" cy="-0.3507" r="0.0200"/><circle cx="0.5874" cy="-0.3292" r="0.0200"/><circle cx="0.5874" cy="-0.3059" r="0.0200"/><circle cx="0.5874" cy="-0.2810" r="0.0200"/><circle cx="0.5874" cy="-0.2546" r="0.0200"/><circle cx="0.5874" cy="-0.2270" r="0.0200"/><circle cx="0.5874" cy="-0.1982" r="0.0200"/><circle cx="0.5874" cy="-0.1684" r="0.0200"/><circle cx="0.5874" cy="-0.1379" r="0.0200"/><circle cx="0.5874" cy="-0.1068" r="0.0200"/><circle cx="0.5874" cy="-0.0753" r="0.0200"/><circle cx="0.5874" cy="-0.0436" r="0.0200"/><circle cx="0.5874" cy="-0.0119" r="0.0200"/><circle cx="0.5874" cy="0.0196" r="0.0200"/><circle cx="0.5874" cy="0.0507" r="0.0200"/><circle cx="0.5874" cy="0.0812" r="0.0200"/><circle cx="0.5874" cy="0.1110" r="0.0200"/><circle cx="0.5874" cy="0.1398" r="0.0200"/><circle cx="0.5874" cy="0.1674" r="0.0200"/><circle cx="0.5874" cy="0.1938" r="0.0200"/><circle cx="0.5874" cy="0.2187" r="0.0200"/><circle cx="0.5874" cy="0.2420" r="0.0200"/><circle cx="0.5874" cy="0.2635" r="0.0200"/><circle cx="0.5874" cy="0.2831" r="0.0200"/><circle cx="0.5874" cy="0.3008" r="0.0200"/><circle cx="0.5874" cy="0.3163" r="0.0200"/><circle cx="0.5874" cy="0.3295" r="0.0200"/><circle cx="0.5874" cy="0.3405" r="0.0200"/><circle cx="0.5874" cy="0.3491" r="0.0200"/><circle cx="0.5874" cy="0.3553" r="0.0200"/><circle cx="0.5874" cy="0.3590" r="0.0200"/><circle cx="0.5874" cy="0.3603" r="0.0200"/><circle cx="0.5461" cy="-0.4463" r="0.0200"/><circle cx="0.5461" cy="-0.4425" r="0.0200"/><circle cx="0.5461" cy="-0.4363" r="0.0200"/><circle cx="0.5461" cy="-0.4277" r="0.0200"/><circle cx="0.5461" cy="-0.4168" r="0.0200"/><circle cx="0.5461" cy="-0.4035" r="0.0200"/><circle cx="0.5461" cy="-0.3880" r="0.0200"/><circle cx="0.5461" cy="-0.3704" r="0.0200"/><circle cx="0.5461" cy="-0.3507" r="0.0200"/><circle cx="0.5461" cy="-0.3292" r="0.0200"/><circle cx="0.5461" cy="-0.3059" r="0.0200"/><circle cx="0.5461" cy="-0.2810" r="0.0200"/><circle cx="0.5461" cy="-0.2546" r="0.0200"/><circle cx="0.5461" cy="-0.2270" r="0.0200"/><circle cx="0.5461" cy="-0.1982" r="0.0200"/><circle cx="0.5461" cy="-0.1684" r="0.0200"/><circle cx="0.5461" cy="-0.1379" r="0.0200"/><circle cx="0.5461" cy="-0.1068" r="0.0200"/><circle cx="0.5461" cy="-0.0753" r="0.0200"/><circle cx="0.5461" cy="-0.0436" r="0.0200"/><circle cx="0.5461" cy="-0.0119" r="0.0200"/><circle cx="0.5461" cy="0.0196" r="0.0200"/><circle cx="0.5461" cy="0.0507" r="0.0200"/><circle cx="0.5461" cy="0.0812" r="0.0200"/><circle cx="0.5461" cy="0.1110" r="0.0200"/><circle cx="0.5461" cy="0.1398" r="0.0200"/><circle cx="0.5461" cy="0.1674" r="0.0200"/><circle cx="0.5461" cy="0.1938" r="0.0200"/><circle cx="0.5461" cy="0.2187" r="0.0200"/><circle cx="0.5461" cy="0.2420" r="0.0200"/><circle cx="0.5461" cy="0.2635" r="0.0200"/><circle cx="0.5461" cy="0.2831" r="0.0200"/><circle cx="0.5461" cy="0.3008" r="0.0200"/><circle cx="0.5461" cy="0.3163" r="0.0200"/><circle cx="0.5461" cy="0.3295" r="0.0200"/><circle cx="0.5461" cy="0.3405" r="0.0200"/><circle cx="0.5461" cy="0.3491" r="0.0200"/><circle cx="0.5461" cy="0.3553" r="0.0200"/><circle cx="0.5461" cy="0.3590" r="0.0200"/><circle cx="0.5461" cy="0.3603" r="0.0200"/><circle cx="0.4979" cy="-0.4463" r="0.0200"/><circle cx="0.4979" cy="-0.4425" r="0.0200"/><circle cx="0.4979" cy="-0.4363" r="0.0200"/><circle cx="0.4979" cy="-0.4277" r="0.0200"/><circle cx="0.4979" cy="-0.4168" r="0.0200"/><circle cx="0.4979" cy="-0.4035" r="0.0200"/><circle cx="0.4979" cy="-0.3880" r="0.0200"/><circle cx="0.4979" cy="-0.3704" r="0.0200"/><circle cx="0.4979" cy="-0.3507" r="0.0200"/><circle cx="0.4979" cy="-0.3292" r="0.0200"/><circle cx="0.4979" cy="-0.3059" r="0.0200"/><circle cx="0.4979" cy="-0.2810" r="0.0200"/><circle cx="0.4979" cy="-0.2546" r="0.0200"/><circle cx="0.4979" cy="-0.2270" r="0.0200"/><circle cx="0.4979" cy="-0.1982" r="0.0200"/><circle cx="0.4979" cy="-0.1684" r="0.0200"/><circle cx="0.4979" cy="-0.1379" r="0.0200"/><circle cx="0.4979" cy="-0.1068" r="0.0200"/><circle cx="0.4979" cy="-0.0753" r="0.0200"/><circle cx="0.4979" cy="-0.0436" r="0.0200"/><circle cx="0.4979" cy="-0.0119" r="0.0200"/><circle cx="0.4979" cy="0.0196" r="0.0200"/><circle cx="0.4979" cy="0.0507" r="0.0200"/><circle cx="0.4979" cy="0.0812" r="0.0200"/><circle cx="0.4979" cy="0.1110" r="0.0200"/><circle cx="0.4979" cy="0.1398" r="0.0200"/><circle cx="0.4979" cy="0.1674" r="0.0200"/><circle cx="0.4979" cy="0.1938" r="0.0200"/><circle cx="0.4979" cy="0.2187" r="0.0200"/><circle cx="0.4979" cy="0.2420" r="0.0200"/><circle cx="0.4979" cy="0.2635" r="0.0200"/><circle cx="0.4979" cy="0.2831" r="0.0200"/><circle cx="0.4979" cy="0.3008" r="0.0200"/><circle cx="0.4979" cy="0.3163" r="0.0200"/><circle cx="0.4979" cy="0.3295" r="0.0200"/><circle cx="0.4979" cy="0.3405" r="0.0200"/><circle cx="0.4979" cy="0.3491" r="0.0200"/><circle cx="0.4979" cy="0.3553" r="0.0200"/><circle cx="0.4979" cy="0.3590" r="0.0200"/><circle cx="0.4979" cy="0.3603" r="0.0200"/><circle cx="0.4430" cy="-0.4463" r="0.0200"/><circle cx="0.4430" cy="-0.4425" r="0.0200"/><circle cx="0.4430" cy="-0.4363" r="0.0200"/><circle cx="0.4430" cy="-0.4277" r="0.0200"/><circle cx="0.4430" cy="-0.4168" r="0.0200"/><circle cx="0.4430" cy="-0.4035" r="0.0200"/><circle cx="0.4430" cy="-0.3880" r="0.0200"/><circle cx="0.4430" cy="-0.3704" r="0.0200"/><circle cx="0.4430" cy="-0.3507" r="0.0200"/><circle cx="0.4430" cy="-0.3292" r="0.0200"/><circle cx="0.4430" cy="-0.3059" r="0.0200"/><circle cx="0.4430" cy="-0.2810" r="0.0200"/><circle cx="0.4430" cy="-0.2546" r="0.0200"/><circle cx="0.4430" cy="-0.2270" r="0.0200"/><circle cx="0.4430" cy="-0.1982" r="0.0200"/><circle cx="0.4430" cy="-0.1684" r="0.0200"/><circle cx="0.4430" cy="-0.1379" r="0.0200"/><circle cx="0.4430" cy="-0.1068" r="0.0200"/><circle cx="0.4430" cy="-0.0753" r="0.0200"/><circle cx="0.4430" cy="-0.0436" r="0.0200"/><circle cx="0.4430" cy="-0.0119" r="0.0200"/><circle cx="0.4430" cy="0.0196" r="0.0200"/><circle cx="0.4430" cy="0.0507" r="0.0200"/><circle cx="0.4430" cy="0.0812" r="0.0200"/><circle cx="0.4430" cy="0.1110" r="0.0200"/><circle cx="0.4430" cy="0.1398" r="0.0200"/><circle cx="0.4430" cy="0.1674" r="0.0200"/><circle cx="0.4430" cy="0.1938" r="0.0200"/><circle cx="0.4430" cy="0.2187" r="0.0200"/><circle cx="0.4430" cy="0.2420" r="0.0200"/><circle cx="0.4430" cy="0.2635" r="0.0200"/><circle cx="0.4430" cy="0.2831" r="0.0200"/><circle cx="0.4430" cy="0.3008" r="0.0200"/><circle cx="0.4430" cy="0.3163" r="0.0200"/><circle cx="0.4430" cy="0.3295" r="0.0200"/><circle cx="0.4430" cy="0.3405" r="0.0200"/><circle cx="0.4430" cy="0.3491" r="0.0200"/><circle cx="0.4430" cy="0.3553" r="0.0200"/><circle cx="0.4430" cy="0.3590" r="0.0200"/><circle cx="0.4430" cy="0.3603" r="0.0200"/><circle cx="0.3819" cy="-0.4463" r="0.0200"/><circle cx="0.3819" cy="-0.4425" r="0.0200"/><circle cx="0.3819" cy="-0.4363" r="0.0200"/><circle cx="0.3819" cy="-0.4277" r="0.0200"/><circle cx="0.3819" cy="-0.4168" r="0.0200"/><circle cx="0.3819" cy="-0.4035" r="0.0200"/><circle cx="0.3819" cy="-0.3880" r="0.0200"/><circle cx="0.3819" cy="-0.3704" r="0.0200"/><circle cx="0.3819" cy="-0.3507" r="0.0200"/><circle cx="0.3819" cy="-0.3292" r="0.0200"/><circle cx="0.3819" cy="-0.3059" r="0.0200"/><circle cx="0.3819" cy="-0.2810" r="0.0200"/><circle cx="0.3819" cy="-0.2546" r="0.0200"/><circle cx="0.3819" cy="-0.2270" r="0.0200"/><circle cx="0.3819" cy="-0.1982" r="0.0200"/><circle cx="0.3819" cy="-0.1684" r="0.0200"/><circle cx="0.3819" cy="-0.1379" r="0.0200"/><circle cx="0.3819" cy="-0.1068" r="0.0200"/><circle cx="0.3819" cy="-0.0753" r="0.0200"/><circle cx="0.3819" cy="-0.0436" r="0.0200"/><circle cx="0.3819" cy="-0.0119" r="0.0200"/><circle cx="0.3819" cy="0.0196" r="0.0200"/><circle cx="0.3819" cy="0.0507" r="0.0200"/><circle cx="0.3819" cy="0.0812" r="0.0200"/><circle cx="0.3819" cy="0.1110" r="0.0200"/><circle cx="0.3819" cy="0.1398" r="0.0200"/><circle cx="0.3819" cy="0.1674" r="0.0200"/><circle cx="0.3819" cy="0.1938" r="0.0200"/><circle cx="0.3819" cy="0.2187" r="0.0200"/><circle cx="0.3819" cy="0.2420" r="0.0200"/><circle cx="0.3819" cy="0.2635" r="0.0200"/><circle cx="0.3819" cy="0.2831" r="0.0200"/><circle cx="0.3819" cy="0.3008" r="0.0200"/><circle cx="0.3819" cy="0.3163" r="0.0200"/><circle cx="0.3819" cy="0.3295" r="0.0200"/><circle cx="0.3819" cy="0.3405" r="0.0200"/><circle cx="0.3819" cy="0.3491" r="0.0200"/><circle cx="0.3819" cy="0.3553" r="0.0200"/><circle cx="0.3819" cy="0.3590" r="0.0200"/><circle cx="0.3819" cy="0.3603" r="0.0200"/><circle cx="0.3149" cy="-0.4463" r="0.0200"/><circle cx="0.3149" cy="-0.4425" r="0.0200"/><circle cx="0.3149" cy="-0.4363" r="0.0200"/><circle cx="0.3149" cy="-0.4277" r="0.0200"/><circle cx="0.3149" cy="-0.4168" r="0.0200"/><circle cx="0.3149" cy="-0.4035" r="0.0200"/><circle cx="0.3149" cy="-0.3880" r="0.0200"/><circle cx="0.3149" cy="-0.3704" r="0.0200"/><circle cx="0.3149" cy="-0.3507" r="0.0200"/><circle cx="0.3149" cy="-0.3292" r="0.0200"/><circle cx="0.3149" cy="-0.3059" r="0.0200"/><circle cx="0.3149" cy="-0.2810" r="0.0200"/><circle cx="0.3149" cy="-0.2546" r="0.0200"/><circle cx="0.3149" cy="-0.2270" r="0.0200"/><circle cx="0.3149" cy="-0.1982" r="0.0200"/><circle cx="0.3149" cy="-0.1684" r="0.0200"/><circle cx="0.3149" cy="-0.1379" r="0.0200"/><circle cx="0.3149" cy="-0.1068" r="0.0200"/><circle cx="0.3149" cy="-0.0753" r="0.0200"/><circle cx="0.3149" cy="-0.0436" r="0.0200"/><circle cx="0.3149" cy="-0.0119" r="0.0200"/><circle cx="0.3149" cy="0.0196" r="0.0200"/><circle cx="0.3149" cy="0.0507" r="0.0200"/><circle cx="0.3149" cy="0.0812" r="0.0200"/><circle cx="0.3149" cy="0.1110" r="0.0200"/><circle cx="0.3149" cy="0.1398" r="0.0200"/><circle cx="0.3149" cy="0.1674" r="0.0200"/><circle cx="0.3149" cy="0.1938" r="0.0200"/><circle cx="0.3149" cy="0.2187" r="0.0200"/><circle cx="0.3149" cy="0.2420" r="0.0200"/><circle cx="0.3149" cy="0.2635" r="0.0200"/><circle cx="0.3149" cy="0.2831" r="0.0200"/><circle cx="0.3149" cy="0.3008" r="0.0200"/><circle cx="0.3149" cy="0.3163" r="0.0200"/><circle cx="0.3149" cy="0.3295" r="0.0200"/><circle cx="0.3149" cy="0.3405" r="0.0200"/><circle cx="0.3149" cy="0.3491" r="0.0200"/><circle cx="0.3149" cy="0.3553" r="0.0200"/><circle cx="0.3149" cy="0.3590" r="0.0200"/><circle cx="0.3149" cy="0.3603" r="0.0200"/><circle cx="0.2424" cy="-0.4463" r="0.0200"/><circle cx="0.2424" cy="-0.4425" r="0.0200"/><circle cx="0.2424" cy="-0.4363" r="0.0200"/><circle cx="0.2424" cy="-0.4277" r="0.0200"/><circle cx="0.2424" cy="-0.4168" r="0.0200"/><circle cx="0.2424" cy="-0.4035" r="0.0200"/><circle cx="0.2424" cy="-0.3880" r="0.0200"/><circle cx="0.2424" cy="-0.3704" r="0.0200"/><circle cx="0.2424" cy="-0.3507" r="0.0200"/><circle cx="0.2424" cy="-0.3292" r="0.0200"/><circle cx="0.2424" cy="-0.3059" r="0.0200"/><circle cx="0.2424" cy="-0.2810" r="0.0200"/><circle cx="0.2424" cy="-0.2546" r="0.0200"/><circle cx="0.2424" cy="-0.2270" r="0.0200"/><circle cx="0.2424" cy="-0.1982" r="0.0200"/><circle cx="0.2424" cy="-0.1684" r="0.0200"/><circle cx="0.2424" cy="-0.1379" r="0.0200"/><circle cx="0.2424" cy="-0.1068" r="0.0200"/><circle cx="0.2424" cy="-0.0753" r="0.0200"/><circle cx="0.2424" cy="-0.0436" r="0.0200"/><circle cx="0.2424" cy="-0.0119" r="0.0200"/><circle cx="0.2424" cy="0.0196" r="0.0200"/><circle cx="0.2424" cy="0.0507" r="0.0200"/><circle cx="0.2424" cy="0.0812" r="0.0200"/><circle cx="0.2424" cy="0.1110" r="0.0200"/><circle cx="0.2424" cy="0.1398" r="0.0200"/><circle cx="0.2424" cy="0.1674" r="0.0200"/><circle cx="0.2424" cy="0.1938" r="0.0200"/><circle cx="0.2424" cy="0.2187" r="0.0200"/><circle cx="0.2424" cy="0.2420" r="0.0200"/><circle cx="0.2424" cy="0.2635" r="0.0200"/><circle cx="0.2424" cy="0.2831" r="0.0200"/><circle cx="0.2424" cy="0.3008" r="0.0200"/><circle cx="0.2424" cy="0.3163" r="0.0200"/><circle cx="0.2424" cy="0.3295" r="0.0200"/><circle cx="0.2424" cy="0.3405" r="0.0200"/><circle cx="0.2424" cy="0.3491" r="0.0200"/><circle cx="0.2424" cy="0.3553" r="0.0200"/><circle cx="0.2424" cy="0.3590" r="0.0200"/><circle cx="0.2424" cy="0.3603" r="0.0200"/><circle cx="0.1649" cy="-0.4463" r="0.0200"/><circle cx="0.1649" cy="-0.4425" r="0.0200"/><circle cx="0.1649" cy="-0.4363" r="0.0200"/><circle cx="0.1649" cy="-0.4277" r="0.0200"/><circle cx="0.1649" cy="-0.4168" r="0.0200"/><circle cx="0.1649" cy="-0.4035" r="0.0200"/><circle cx="0.1649" cy="-0.3880" r="0.0200"/><circle cx="0.1649" cy="-0.3704" r="0.0200"/><circle cx="0.1649" cy="-0.3507" r="0.0200"/><circle cx="0.1649" cy="-0.3292" r="0.0200"/><circle cx="0.1649" cy="-0.3059" r="0.0200"/><circle cx="0.1649" cy="-0.2810" r="0.0200"/><circle cx="0.1649" cy="-0.2546" r="0.0200"/><circle cx="0.1649" cy="-0.2270" r="0.0200"/><circle cx="0.1649" cy="-0.1982" r="0.0200"/><circle cx="0.1649" cy="-0.1684" r="0.0200"/><circle cx="0.1649" cy="-0.1379" r="0.0200"/><circle cx="0.1649" cy="-0.1068" r="0.0200"/><circle cx="0.1649" cy="-0.0753" r="0.0200"/><circle cx="0.1649" cy="-0.0436" r="0.0200"/><circle cx="0.1649" cy="-0.0119" r="0.0200"/><circle cx="0.1649" cy="0.0196" r="0.0200"/><circle cx="0.1649" cy="0.0507" r="0.0200"/><circle cx="0.1649" cy="0.0812" r="0.0200"/><circle cx="0.1649" cy="0.1110" r="0.0200"/><circle cx="0.1649" cy="0.1398" r="0.0200"/><circle cx="0.1649" cy="0.1674" r="0.0200"/><circle cx="0.1649" cy="0.1938" r="0.0200"/><circle cx="0.1649" cy="0.2187" r="0.0200"/><circle cx="0.1649" cy="0.2420" r="0.0200"/><circle cx="0.1649" cy="0.2635" r="0.0200"/><circle cx="0.1649" cy="0.2831" r="0.0200"/><circle cx="0.1649" cy="0.3008" r="0.0200"/><circle cx="0.1649" cy="0.3163" r="0.0200"/><circle cx="0.1649" cy="0.3295" r="0.0200"/><circle cx="0.1649" cy="0.3405" r="0.0200"/><circle cx="0.1649" cy="0.3491" r="0.0200"/><circle cx="0.1649" cy="0.3553" r="0.0200"/><circle cx="0.1649" cy="0.3590" r="0.0200"/><circle cx="0.1649" cy="0.3603" r="0.0200"/><circle cx="0.0828" cy="-0.4463" r="0.0200"/><circle cx="0.0828" cy="-0.4425" r="0.0200"/><circle cx="0.0828" cy="-0.4363" r="0.0200"/><circle cx="0.0828" cy="-0.4277" r="0.0200"/><circle cx="0.0828" cy="-0.4168" r="0.0200"/><circle cx="0.0828" cy="-0.4035" r="0.0200"/><circle cx="0.0828" cy="-0.3880" r="0.0200"/><circle cx="0.0828" cy="-0.3704" r="0.0200"/><circle cx="0.0828" cy="-0.3507" r="0.0200"/><circle cx="0.0828" cy="-0.3292" r="0.0200"/><circle cx="0.0828" cy="-0.3059" r="0.0200"/><circle cx="0.0828" cy="-0.2810" r="0.0200"/><circle cx="0.0828" cy="-0.2546" r="0.0200"/><circle cx="0.0828" cy="-0.2270" r="0.0200"/><circle cx="0.0828" cy="-0.1982" r="0.0200"/><circle cx="0.0828" cy="-0.1684" r="0.0200"/><circle cx="0.0828" cy="-0.1379" r="0.0200"/><circle cx="0.0828" cy="-0.1068" r="0.0200"/><circle cx="0.0828" cy="-0.0753" r="0.0200"/><circle cx="0.0828" cy="-0.0436" r="0.0200"/><circle cx="0.0828" cy="-0.0119" r="0.0200"/><circle cx="0.0828" cy="0.0196" r="0.0200"/><circle cx="0.0828" cy="0.0507" r="0.0200"/><circle cx="0.0828" cy="0.0812" r="0.0200"/><circle cx="0.0828" cy="0.1110" r="0.0200"/><circle cx="0.0828" cy="0.1398" r="0.0200"/><circle cx="0.0828" cy="0.1674" r="0.0200"/><circle cx="0.0828" cy="0.1938" r="0.0200"/><circle cx="0.0828" cy="0.2187" r="0.0200"/><circle cx="0.0828" cy="0.2420" r="0.0200"/><circle cx="0.0828" cy="0.2635" r="0.0200"/><circle cx="0.0828" cy="0.2831" r="0.0200"/><circle cx="0.0828" cy="0.3008" r="0.0200"/><circle cx="0.0828" cy="0.3163" r="0.0200"/><circle cx="0.0828" cy="0.3295" r="0.0200"/><circle cx="0.0828" cy="0.3405" r="0.0200"/><circle cx="0.0828" cy="0.3491" r="0.0200"/><circle cx="0.0828" cy="0.3553" r="0.0200"/><circle cx="0.0828" cy="0.3590" r="0.0200"/><circle cx="0.0828" cy="0.3603" r="0.0200"/><circle cx="-0.0033" cy="-0.4463" r="0.0200"/><circle cx="-0.0033" cy="-0.4425" r="0.0200"/><circle cx="-0.0033" cy="-0.4363" r="0.0200"/><circle cx="-0.0033" cy="-0.4277" r="0.0200"/><circle cx="-0.0033" cy="-0.4168" r="0.0200"/><circle cx="-0.0033" cy="-0.4035" r="0.0200"/><circle cx="-0.0033" cy="-0.3880" r="0.0200"/><circle cx="-0.0033" cy="-0.3704" r="0.0200"/><circle cx="-0.0033" cy="-0.3507" r="0.0200"/><circle cx="-0.0033" cy="-0.3292" r="0.0200"/><circle cx="-0.0033" cy="-0.3059" r="0.0200"/><circle cx="-0.0033" cy="-0.2810" r="0.0200"/><circle cx="-0.0033" cy="-0.2546" r="0.0200"/><circle cx="-0.0033" cy="-0.2270" r="0.0200"/><circle cx="-0.0033" cy="-0.1982" r="0.0200"/><circle cx="-0.0033" cy="-0.1684" r="0.0200"/><circle cx="-0.0033" cy="-0.1379" r="0.0200"/><circle cx="-0.0033" cy="-0.1068" r="0.0200"/><circle cx="-0.0033" cy="-0.0753" r="0.0200"/><circle cx="-0.0033" cy="-0.0436" r="0.0200"/><circle cx="-0.0033" cy="-0.0119" r="0.0200"/><circle cx="-0.0033" cy="0.0196" r="0.0200"/><circle cx="-0.0033" cy="0.0507" r="0.0200"/><circle cx="-0.0033" cy="0.0812" r="0.0200"/><circle cx="-0.0033" cy="0.1110" r="0.0200"/><circle cx="-0.0033" cy="0.1398" r="0.0200"/><circle cx="-0.0033" cy="0.1674" r="0.0200"/><circle cx="-0.0033" cy="0.1938" r="0.0200"/><circle cx="-0.0033" cy="0.2187" r="0.0200"/><circle cx="-0.0033" cy="0.2420" r="0.0200"/><circle cx="-0.0033" cy="0.2635" r="0.0200"/><circle cx="-0.0033" cy="0.2831" r="0.0200"/><circle cx="-0.0033" cy="0.3008" r="0.0200"/><circle cx="-0.0033" cy="0.3163" r="0.0200"/><circle cx="-0.0033" cy="0.3295" r="0.0200"/><circle cx="-0.0033" cy="0.3405" r="0.0200"/><circle cx="-0.0033" cy="0.3491" r="0.0200"/><circle cx="-0.0033" cy="0.3553" r="0.0200"/><circle cx="-0.0033" cy="0.3590" r="0.0200"/><circle cx="-0.0033" cy="0.3603" r="0.0200"/><circle cx="-0.0929" cy="-0.4463" r="0.0200"/><circle cx="-0.0929" cy="-0.4425" r="0.0200"/><circle cx="-0.0929" cy="-0.4363" r="0.0200"/><circle cx="-0.0929" cy="-0.4277" r="0.0200"/><circle cx="-0.0929" cy="-0.4168" r="0.0200"/><circle cx="-0.0929" cy="-0.4035" r="0.0200"/><circle cx="-0.0929" cy="-0.3880" r="0.0200"/><circle cx="-0.0929" cy="-0.3704" r="0.0200"/><circle cx="-0.0929" cy="-0.3507" r="0.0200"/><circle cx="-0.0929" cy="-0.3292" r="0.0200"/><circle cx="-0.0929" cy="-0.3059" r="0.0200"/><circle cx="-0.0929" cy="-0.2810" r="0.0200"/><circle cx="-0.0929" cy="-0.2546" r="0.0200"/><circle cx="-0.0929" cy="-0.2270" r="0.0200"/><circle cx="-0.0929" cy="-0.1982" r="0.0200"/><circle cx="-0.0929" cy="-0.1684" r="0.0200"/><circle cx="-0.0929" cy="-0.1379" r="0.0200"/><circle cx="-0.0929" cy="-0.1068" r="0.0200"/><circle cx="-0.0929" cy="-0.0753" r="0.0200"/><circle cx="-0.0929" cy="-0.0436" r="0.0200"/><circle cx="-0.0929" cy="-0.0119" r="0.0200"/><circle cx="-0.0929" cy="0.0196" r="0.0200"/><circle cx="-0.0929" cy="0.0507" r="0.0200"/><circle cx="-0.0929" cy="0.0812" r="0.0200"/><circle cx="-0.0929" cy="0.1110" r="0.0200"/><circle cx="-0.0929" cy="0.1398" r="0.0200"/><circle cx="-0.0929" cy="0.1674" r="0.0200"/><circle cx="-0.0929" cy="0.1938" r="0.0200"/><circle cx="-0.0929" cy="0.2187" r="0.0200"/><circle cx="-0.0929" cy="0.2420" r="0.0200"/><circle cx="-0.0929" cy="0.2635" r="0.0200"/><circle cx="-0.0929" cy="0.2831" r="0.0200"/><circle cx="-0.0929" cy="0.3008" r="0.0200"/><circle cx="-0.0929" cy="0.3163" r="0.0200"/><circle cx="-0.0929" cy="0.3295" r="0.0200"/><circle cx="-0.0929" cy="0.3405" r="0.0200"/><circle cx="-0.0929" cy="0.3491" r="0.0200"/><circle cx="-0.0929" cy="0.3553" r="0.0200"/><circle cx="-0.0929" cy="0.3590" r="0.0200"/><circle cx="-0.0929" cy="0.3603" r="0.0200"/><circle cx="-0.1855" cy="-0.4463" r="0.0200"/><circle cx="-0.1855" cy="-0.4425" r="0.0200"/><circle cx="-0.1855" cy="-0.4363" r="0.0200"/><circle cx="-0.1855" cy="-0.4277" r="0.0200"/><circle cx="-0.1855" cy="-0.4168" r="0.0200"/><circle cx="-0.1855" cy="-0.4035" r="0.0200"/><circle cx="-0.1855" cy="-0.3880" r="0.0200"/><circle cx="-0.1855" cy="-0.3704" r="0.0200"/><circle cx="-0.1855" cy="-0.3507" r="0.0200"/><circle cx="-0.1855" cy="-0.3292" r="0.0200"/><circle cx="-0.1855" cy="-0.3059" r="0.0200"/><circle cx="-0.1855" cy="-0.2810" r="0.0200"/><circle cx="-0.1855" cy="-0.2546" r="0.0200"/><circle cx="-0.1855" cy="-0.2270" r="0.0200"/><circle cx="-0.1855" cy="-0.1982" r="0.0200"/><circle cx="-0.1855" cy="-0.1684" r="0.0200"/><circle cx="-0.1855" cy="-0.1379" r="0.0200"/><circle cx="-0.1855" cy="-0.1068" r="0.0200"/><circle cx="-0.1855" cy="-0.0753" r="0.0200"/><circle cx="-0.1855" cy="-0.0436" r="0.0200"/><circle cx="-0.1855" cy="-0.0119" r="0.0200"/><circle cx="-0.1855" cy="0.0196" r="0.0200"/><circle cx="-0.1855" cy="0.0507" r="0.0200"/><circle cx="-0.1855" cy="0.0812" r="0.0200"/><circle cx="-0.1855" cy="0.1110" r="0.0200"/><circle cx="-0.1855" cy="0.1398" r="0.0200"/><circle cx="-0.1855" cy="0.1674" r="0.0200"/><circle cx="-0.1855" cy="0.1938" r="0.0200"/><circle cx="-0.1855" cy="0.2187" r="0.0200"/><circle cx="-0.1855" cy="0.2420" r="0.0200"/><circle cx="-0.1855" cy="0.2635" r="0.0200"/><circle cx="-0.1855" cy="0.2831" r="0.0200"/><circle cx="-0.1855" cy="0.3008" r="0.0200"/><circle cx="-0.1855" cy="0.3163" r="0.0200"/><circle cx="-0.1855" cy="0.3295" r="0.0200"/><circle cx="-0.1855" cy="0.3405" r="0.0200"/><circle cx="-0.1855" cy="0.3491" r="0.0200"/><circle cx="-0.1855" cy="0.3553" r="0.0200"/><circle cx="-0.1855" cy="0.3590" r="0.0200"/><circle cx="-0.1855" cy="0.3603" r="0.0200"/><circle cx="-0.2805" cy="-0.4463" r="0.0200"/><circle cx="-0.2805" cy="-0.4425" r="0.0200"/><circle cx="-0.2805" cy="-0.4363" r="0.0200"/><circle cx="-0.2805" cy="-0.4277" r="0.0200"/><circle cx="-0.2805" cy="-0.4168" r="0.0200"/><circle cx="-0.2805" cy="-0.4035" r="0.0200"/><circle cx="-0.2805" cy="-0.3880" r="0.0200"/><circle cx="-0.2805" cy="-0.3704" r="0.0200"/><circle cx="-0.2805" cy="-0.3507" r="0.0200"/><circle cx="-0.2805" cy="-0.3292" r="0.0200"/><circle cx="-0.2805" cy="-0.3059" r="0.0200"/><circle cx="-0.2805" cy="-0.2810" r="0.0200"/><circle cx="-0.2805" cy="-0.2546" r="0.0200"/><circle cx="-0.2805" cy="-0.2270" r="0.0200"/><circle cx="-0.2805" cy="-0.1982" r="0.0200"/><circle cx="-0.2805" cy="-0.1684" r="0.0200"/><circle cx="-0.2805" cy="-0.1379" r="0.0200"/><circle cx="-0.2805" cy="-0.1068" r="0.0200"/><circle cx="-0.2805" cy="-0.0753" r="0.0200"/><circle cx="-0.2805" cy="-0.0436" r="0.0200"/><circle cx="-0.2805" cy="-0.0119" r="0.0200"/><circle cx="-0.2805" cy="0.0196" r="0.0200"/><circle cx="-0.2805" cy="0.0507" r="0.0200"/><circle cx="-0.2805" cy="0.0812" r="0.0200"/><circle cx="-0.2805" cy="0.1110" r="0.0200"/><circle cx="-0.2805" cy="0.1398" r="0.0200"/><circle cx="-0.2805" cy="0.1674" r="0.0200"/><circle cx="-0.2805" cy="0.1938" r="0.0200"/><circle cx="-0.2805" cy="0.2187" r="0.0200"/><circle cx="-0.2805" cy="0.2420" r="0.0200"/><circle cx="-0.2805" cy="0.2635" r="0.0200"/><circle cx="-0.2805" cy="0.2831" r="0.0200"/><circle cx="-0.2805" cy="0.3008" r="0.0200"/><circle cx="-0.2805" cy="0.3163" r="0.0200"/><circle cx="-0.2805" cy="0.3295" r="0.0200"/><circle cx="-0.2805" cy="0.3405" r="0.0200"/><circle cx="-0.2805" cy="0.3491" r="0.0200"/><circle cx="-0.2805" cy="0.3553" r="0.0200"/><circle cx="-0.2805" cy="0.3590" r="0.0200"/><circle cx="-0.2805" cy="0.3603" r="0.0200"/><circle cx="-0.3773" cy="-0.4463" r="0.0200"/><circle cx="-0.3773" cy="-0.4425" r="0.0200"/><circle cx="-0.3773" cy="-0.4363" r="0.0200"/><circle cx="-0.3773" cy="-0.4277" r="0.0200"/><circle cx="-0.3773" cy="-0.4168" r="0.0200"/><circle cx="-0.3773" cy="-0.4035" r="0.0200"/><circle cx="-0.3773" cy="-0.3880" r="0.0200"/><circle cx="-0.3773" cy="-0.3704" r="0.0200"/><circle cx="-0.3773" cy="-0.3507" r="0.0200"/><circle cx="-0.3773" cy="-0.3292" r="0.0200"/><circle cx="-0.3773" cy="-0.3059" r="0.0200"/><circle cx="-0.3773" cy="-0.2810" r="0.0200"/><circle cx="-0.3773" cy="-0.2546" r="0.0200"/><circle cx="-0.3773" cy="-0.2270" r="0.0200"/><circle cx="-0.3773" cy="-0.1982" r="0.0200"/><circle cx="-0.3773" cy="-0.1684" r="0.0200"/><circle cx="-0.3773" cy="-0.1379" r="0.0200"/><circle cx="-0.3773" cy="-0.1068" r="0.0200"/><circle cx="-0.3773" cy="-0.0753" r="0.0200"/><circle cx="-0.3773" cy="-0.0436" r="0.0200"/><circle cx="-0.3773" cy="-0.0119" r="0.0200"/><circle cx="-0.3773" cy="0.0196" r="0.0200"/><circle cx="-0.3773" cy="0.0507" r="0.0200"/><circle cx="-0.3773" cy="0.0812" r="0.0200"/><circle cx="-0.3773" cy="0.1110" r="0.0200"/><circle cx="-0.3773" cy="0.1398" r="0.0200"/><circle cx="-0.3773" cy="0.1674" r="0.0200"/><circle cx="-0.3773" cy="0.1938" r="0.0200"/><circle cx="-0.3773" cy="0.2187" r="0.0200"/><circle cx="-0.3773" cy="0.2420" r="0.0200"/><circle cx="-0.3773" cy="0.2635" r="0.0200"/><circle cx="-0.3773" cy="0.2831" r="0.0200"/><circle cx="-0.3773" cy="0.3008" r="0.0200"/><circle cx="-0.3773" cy="0.3163" r="0.0200"/><circle cx="-0.3773" cy="0.3295" r="0.0200"/><circle cx="-0.3773" cy="0.3405" r="0.0200"/><circle cx="-0.3773" cy="0.3491" r="0.0200"/><circle cx="-0.3773" cy="0.3553" r="0.0200"/><circle cx="-0.3773" cy="0.3590" r="0.0200"/><circle cx="-0.3773" cy="0.3603" r="0.0200"/><circle cx="-0.4754" cy="-0.4463" r="0.0200"/><circle cx="-0.4754" cy="-0.4425" r="0.0200"/><circle cx="-0.4754" cy="-0.4363" r="0.0200"/><circle cx="-0.4754" cy="-0.4277" r="0.0200"/><circle cx="-0.4754" cy="-0.4168" r="0.0200"/><circle cx="-0.4754" cy="-0.4035" r="0.0200"/><circle cx="-0.4754" cy="-0.3880" r="0.0200"/><circle cx="-0.4754" cy="-0.3704" r="0.0200"/><circle cx="-0.4754" cy="-0.3507" r="0.0200"/><circle cx="-0.4754" cy="-0.3292" r="0.0200"/><circle cx="-0.4754" cy="-0.3059" r="0.0200"/><circle cx="-0.4754" cy="-0.2810" r="0.0200"/><circle cx="-0.4754" cy="-0.2546" r="0.0200"/><circle cx="-0.4754" cy="-0.2270" r="0.0200"/><circle cx="-0.4754" cy="-0.1982" r="0.0200"/><circle cx="-0.4754" cy="-0.1684" r="0.0200"/><circle cx="-0.4754" cy="-0.1379" r="0.0200"/><circle cx="-0.4754" cy="-0.1068" r="0.0200"/><circle cx="-0.4754" cy="-0.0753" r="0.0200"/><circle cx="-0.4754" cy="-0.0436" r="0.0200"/><circle cx="-0.4754" cy="-0.0119" r="0.0200"/><circle cx="-0.4754" cy="0.0196" r="0.0200"/><circle cx="-0.4754" cy="0.0507" r="0.0200"/><circle cx="-0.4754" cy="0.0812" r="0.0200"/><circle cx="-0.4754" cy="0.1110" r="0.0200"/><circle cx="-0.4754" cy="0.1398" r="0.0200"/><circle cx="-0.4754" cy="0.1674" r="0.0200"/><circle cx="-0.4754" cy="0.1938" r="0.0200"/><circle cx="-0.4754" cy="0.2187" r="0.0200"/><circle cx="-0.4754" cy="0.2420" r="0.0200"/><circle cx="-0.4754" cy="0.2635" r="0.0200"/><circle cx="-0.4754" cy="0.2831" r="0.0200"/><circle cx="-0.4754" cy="0.3008" r="0.0200"/><circle cx="-0.4754" cy="0.3163" r="0.0200"/><circle cx="-0.4754" cy="0.3295" r="0.0200"/><circle cx="-0.4754" cy="0.3405" r="0.0200"/><circle cx="-0.4754" cy="0.3491" r="0.0200"/><circle cx="-0.4754" cy="0.3553" r="0.0200"/><circle cx="-0.4754" cy="0.3590" r="0.0200"/><circle cx="-0.4754" cy="0.3603" r="0.0200"/><circle cx="-0.5740" cy="-0.4463" r="0.0200"/><circle cx="-0.5740" cy="-0.4425" r="0.0200"/><circle cx="-0.5740" cy="-0.4363" r="0.0200"/><circle cx="-0.5740" cy="-0.4277" r="0.0200"/><circle cx="-0.5740" cy="-0.4168" r="0.0200"/><circle cx="-0.5740" cy="-0.4035" r="0.0200"/><circle cx="-0.5740" cy="-0.3880" r="0.0200"/><circle cx="-0.5740" cy="-0.3704" r="0.0200"/><circle cx="-0.5740" cy="-0.3507" r="0.0200"/><circle cx="-0.5740" cy="-0.3292" r="0.0200"/><circle cx="-0.5740" cy="-0.3059" r="0.0200"/><circle cx="-0.5740" cy="-0.2810" r="0.0200"/><circle cx="-0.5740" cy="-0.2546" r="0.0200"/><circle cx="-0.5740" cy="-0.2270" r="0.0200"/><circle cx="-0.5740" cy="-0.1982" r="0.0200"/><circle cx="-0.5740" cy="-0.1684" r="0.0200"/><circle cx="-0.5740" cy="-0.1379" r="0.0200"/><circle cx="-0.5740" cy="-0.1068" r="0.0200"/><circle cx="-0.5740" cy="-0.0753" r="0.0200"/><circle cx="-0.5740" cy="-0.0436" r="0.0200"/><circle cx="-0.5740" cy="-0.0119" r="0.0200"/><circle cx="-0.5740" cy="0.0196" r="0.0200"/><circle cx="-0.5740" cy="0.0507" r="0.0200"/><circle cx="-0.5740" cy="0.0812" r="0.0200"/><circle cx="-0.5740" cy="0.1110" r="0.0200"/><circle cx="-0.5740" cy="0.1398" r="0.0200"/><circle cx="-0.5740" cy="0.1674" r="0.0200"/><circle cx="-0.5740" cy="0.1938" r="0.0200"/><circle cx="-0.5740" cy="0.2187" r="0.0200"/><circle cx="-0.5740" cy="0.2420" r="0.0200"/><circle cx="-0.5740" cy="0.2635" r="0.0200"/><circle cx="-0.5740" cy="0.2831" r="0.0200"/><circle cx="-0.5740" cy="0.3008" r="0.0200"/><circle cx="-0.5740" cy="0.3163" r="0.0200"/><circle cx="-0.5740" cy="0.3295" r="0.0200"/><circle cx="-0.5740" cy="0.3405" r="0.0200"/><circle cx="-0.5740" cy="0.3491" r="0.0200"/><circle cx="-0.5740" cy="0.3553" r="0.0200"/><circle cx="-0.5740" cy="0.3590" r="0.0200"/><circle cx="-0.5740" cy="0.3603" r="0.0200"/></g><g class="datapadding"></g></g><g class="hud"><g class="frame"><g stroke-width="0" stroke="rgb(0%, 0%, 0%)" stroke-opacity="0" fill="rgb(100%, 100%, 100%)" fill-opacity="0.02"><rect width="1.3011" height="0.8479" x="-0.5960" y="-0.4669"/></g></g><g class="axis"><g class="axisbar"><g stroke-width="0" stroke="rgb(0%, 0%, 0%)" stroke-opacity="0" fill="rgb(5%, 5%, 5%)" fill-opacity="0.4"><rect width="0.0035" height="0.8111" x="-0.5863" y="-0.4492"/></g></g><g class="ticks"><g class="ticklines"><g stroke-width="0.0050" stroke="rgb(5%, 5%, 5%)" stroke-opacity="0.05" fill="none"><polyline points="-0.5740,0.3603 0.6831,0.3603"/><polyline points="-0.5740,0.1583 0.6831,0.1583"/><polyline points="-0.5740,-0.0436 0.6831,-0.0436"/><polyline points="-0.5740,-0.2456 0.6831,-0.2456"/><polyline points="-0.5740,-0.4475 0.6831,-0.4475"/></g></g><g class="tickglyph"><g stroke-width="0.0035" stroke="rgb(5%, 5%, 5%)" stroke-opacity="0.4" fill="rgb(5%, 5%, 5%)" fill-opacity="0.4"><polyline points="-0.6110,0.3603
-0.5846,0.3603"/><polyline points="-0.6110,0.1583
-0.5846,0.1583"/><polyline points="-0.6110,-0.0436
-0.5846,-0.0436"/><polyline points="-0.6110,-0.2456
-0.5846,-0.2456"/><polyline points="-0.6110,-0.4475
-0.5846,-0.4475"/></g></g><g class="ticktext"><g stroke-width="0.0" stroke="none" fill="rgb(5%, 5%, 5%)" fill-opacity="1.0" font-size="0.0400" text-anchor="end"><text x="-0.6303" y="0.3694">-1.0</text><text x="-0.6303" y="0.1674">-0.5</text><text x="-0.6303" y="-0.0345"> 0.0</text><text x="-0.6303" y="-0.2365"> 0.5</text><text x="-0.6303" y="-0.4384"> 1.0</text></g></g></g></g><g class="axis"><g class="axisbar"><g stroke-width="0" stroke="rgb(0%, 0%, 0%)" stroke-opacity="0" fill="rgb(5%, 5%, 5%)" fill-opacity="0.4"><rect width="1.2606" height="0.0033" x="-0.5758" y="0.3685"/></g></g><g class="ticks"><g class="ticklines"><g stroke-width="0.0050" stroke="rgb(5%, 5%, 5%)" stroke-opacity="0.05" fill="none"><polyline points="-0.5740,0.3603 -0.5740,-0.4475"/><polyline points="-0.3226,0.3603 -0.3226,-0.4475"/><polyline points="-0.0712,0.3603 -0.0712,-0.4475"/><polyline points="0.1803,0.3603 0.1803,-0.4475"/><polyline points="0.4317,0.3603 0.4317,-0.4475"/><polyline points="0.6831,0.3603 0.6831,-0.4475"/></g></g><g class="tickglyph"><g stroke-width="0.0033" stroke="rgb(5%, 5%, 5%)" stroke-opacity="0.4" fill="rgb(5%, 5%, 5%)" fill-opacity="0.4"><polyline points="-0.5740,0.3950
-0.5740,0.3702"/><polyline points="-0.3226,0.3950
-0.3226,0.3702"/><polyline points="-0.0712,0.3950
-0.0712,0.3702"/><polyline points="0.1803,0.3950
0.1803,0.3702"/><polyline points="0.4317,0.3950
0.4317,0.3702"/><polyline points="0.6831,0.3950
0.6831,0.3702"/></g></g><g class="ticktext"><g stroke-width="0.0" stroke="none" fill="rgb(5%, 5%, 5%)" fill-opacity="1.0" font-size="0.0400" text-anchor="middle"><text x="-0.5740" y="0.4405">0.0</text><text x="-0.3226" y="0.4405">0.2</text><text x="-0.0712" y="0.4405">0.4</text><text x="0.1803" y="0.4405">0.6</text><text x="0.4317" y="0.4405">0.8</text><text x="0.6831" y="0.4405">1.0</text></g></g></g></g><g class="frame"><g stroke-width="0" stroke="rgb(0%, 0%, 0%)" stroke-opacity="0" fill="rgb(0%, 0%, 0%)" fill-opacity="0"><rect width="1.5" height="1.0000" x="-0.75" y="-0.5000"/></g></g></g></svg>