<svg xmlns="http://www.w3.org/2000/svg" xmlns:xlink="http://www.w3.org/1999/xlink" width="450" height="300" viewBox="-0.75 -0.5 1.5 1.0"><style>svg {
  color-scheme: light dark;
}
{
  .canvas g, .title g, .axisbar g, .ticktext g, .tickglyph g, .ticklines g, .legendContent g text {
    fill: rgb(5%, 5%, 5%);
  }
  .ticklines g, .tickglyph g, .legendBorder g {
    stroke: rgb(5%, 5%, 5%);
  }
  .legendBorder g {
    fill: rgb(94%, 94%, 94%);
  }
}
@media (prefers-color-scheme:dark) {
  .canvas g, .title g, .axisbar g, .ticktext g, .tickglyph g, .ticklines g, .legendContent g text {
    fill: rgb(94%, 94%, 94%);
  }
  .ticklines g, .tickglyph g, .legendBorder g {
    stroke: rgb(94%, 94%, 94%);
  }
  .legendBorder g {
    fill: rgb(5%, 5%, 5%);
  }
}</style><g class="chart"><g stroke-width="0.0100" stroke="rgb(2%, 29%, 48%)" stroke-opacity="1.0" fill="rgb(2%, 73%, 80%)" fill-opacity="1.0"><circle cx="-0.4669" cy="-0.4453" r="0.0200"/><circle cx="-0.4669" cy="-0.4416" r="0.0200"/><circle cx="-0.4669" cy="-0.4354" r="0.0200"/><circle cx="-0.4669" cy="-0.4268" r="0.0200"/><circle cx="-0.4669" cy="-0.4159" r="0.0200"/><circle cx="-0.4669" cy="-0.4026" r="0.0200"/><circle cx="-0.4669" cy="-0.3871" r="0.0200"/><circle cx="-0.4669" cy="-0.3695" r="0.0200"/><circle cx="-0.4669" cy="-0.3499" r="0.0200"/><circle cx="-0.4669" cy="-0.3284" r="0.0200"/><circle cx="-0.4669" cy="-0.3052" r="0.0200"/><circle cx="-0.4669" cy="-0.2803" r="0.0200"/><circle cx="-0.4669" cy="-0.2540" r="0.0200"/><circle cx="-0.4669" cy="-0.2264" r="0.0200"/><circle cx="-0.4669" cy="-0.1976" r="0.0200"/><circle cx="-0.4669" cy="-0.1679" r="0.0200"/><circle cx="-0.4669" cy="-0.1374" r="0.0200"/><circle cx="-0.4669" cy="-0.1063" r="0.0200"/><circle cx="-0.4669" cy="-0.0749" r="0.0200"/><circle cx="-0.4669" cy="-0.0433" r="0.0200"/><circle cx="-0.4669" cy="-0.0116" r="0.0200"/><circle cx="-0.4669" cy="0.0198" r="0.0200"/><circle cx="-0.4669" cy="0.0509" r="0.0200"/><circle cx="-0.4669" cy="0.0814" r="0.0200"/><circle cx="-0.4669" cy="0.1111" r="0.0200"/><circle cx="-0.4669" cy="0.1398" r="0.0200"/><circle cx="-0.4669" cy="0.1675" r="0.0200"/><circle cx="-0.4669" cy="0.1938" r="0.0200"/><circle cx="-0.4669" cy="0.2187" r="0.0200"/><circle cx="-0.4669" cy="0.2419" r="0.0200"/><circle cx="-0.4669" cy="0.2634" r="0.0200"/><circle cx="-0.4669" cy="0.2830" r="0.0200"/><circle cx="-0.4669" cy="0.3006" r="0.0200"/><circle cx="-0.4669" cy="0.3161" r="0.0200"/><circle cx="-0.4669" cy="0.3294" r="0.0200"/><circle cx="-0.4669" cy="0.3403" r="0.0200"/><circle cx="-0.4669" cy="0.3489" r="0.0200"/><circle cx="-0.4669" cy="0.3551" r="0.0200"/><circle cx="-0.4669" cy="0.3588" r="0.0200"/><circle cx="-0.4669" cy="0.3601" r="0.0200"/><circle cx="-0.3692" cy="-0.4453" r="0.0200"/><circle cx="-0.3692" cy="-0.4416" r="0.0200"/><circle cx="-0.3692" cy="-0.4354" r="0.0200"/><circle cx="-0.3692" cy="-0.4268" r="0.0200"/><circle cx="-0.3692" cy="-0.4159" r="0.0200"/><circle cx="-0.3692" cy="-0.4026" r="0.0200"/><circle cx="-0.3692" cy="-0.3871" r="0.0200"/><circle cx="-0.3692" cy="-0.3695" r="0.0200"/><circle cx="-0.3692" cy="-0.3499" r="0.0200"/><circle cx="-0.3692" cy="-0.3284" r="0.0200"/><circle cx="-0.3692" cy="-0.3052" r="0.0200"/><circle cx="-0.3692" cy="-0.2803" r="0.0200"/><circle cx="-0.3692" cy="-0.2540" r="0.0200"/><circle cx="-0.3692" cy="-0.2264" r="0.0200"/><circle cx="-0.3692" cy="-0.1976" r="0.0200"/><circle cx="-0.3692" cy="-0.1679" r="0.0200"/><circle cx="-0.3692" cy="-0.1374" r="0.0200"/><circle cx="-0.3692" cy="-0.1063" r="0.0200"/><circle cx="-0.3692" cy="-0.0749" r="0.0200"/><circle cx="-0.3692" cy="-0.0433" r="0.0200"/><circle cx="-0.3692" cy="-0.0116" r="0.0200"/><circle cx="-0.3692" cy="0.0198" r="0.0200"/><circle cx="-0.3692" cy="0.0509" r="0.0200"/><circle cx="-0.3692" cy="0.0814" r="0.0200"/><circle cx="-0.3692" cy="0.1111" r="0.0200"/><circle cx="-0.3692" cy="0.1398" r="0.0200"/><circle cx="-0.3692" cy="0.1675" r="0.0200"/><circle cx="-0.3692" cy="0.1938" r="0.0200"/><circle cx="-0.3692" cy="0.2187" r="0.0200"/><circle cx="-0.3692" cy="0.2419" r="0.0200"/><circle cx="-0.3692" cy="0.2634" r="0.0200"/><circle cx="-0.3692" cy="0.2830" r="0.0200"/><circle cx="-0.3692" cy="0.3006" r="0.0200"/><circle cx="-0.3692" cy="0.3161" r="0.0200"/><circle cx="-0.3692" cy="0.3294" r="0.0200"/><circle cx="-0.3692" cy="0.3403" r="0.0200"/><circle cx="-0.3692" cy="0.3489" r="0.0200"/><circle cx="-0.3692" cy="0.3551" r="0.0200"/><circle cx="-0.3692" cy="0.3588" r="0.0200"/><circle cx="-0.3692" cy="0.3601" r="0.0200"/><circle cx="-0.2726" cy="-0.4453" r="0.0200"/><circle cx="-0.2726" cy="-0.4416" r="0.0200"/><circle cx="-0.2726" cy="-0.4354" r="0.0200"/><circle cx="-0.2726" cy="-0.4268" r="0.0200"/><circle cx="-0.2726" cy="-0.4159" r="0.0200"/><circle cx="-0.2726" cy="-0.4026" r="0.0200"/><circle cx="-0.2726" cy="-0.3871" r="0.0200"/><circle cx="-0.2726" cy="-0.3695" r="0.0200"/><circle cx="-0.2726" cy="-0.3499" r="0.0200"/><circle cx="-0.2726" cy="-0.3284" r="0.0200"/><circle cx="-0.2726" cy="-0.3052" r="0.0200"/><circle cx="-0.2726" cy="-0.2803" r="0.0200"/><circle cx="-0.2726" cy="-0.2540" r="0.0200"/><circle cx="-0.2726" cy="-0.2264" r="0.0200"/><circle cx="-0.2726" cy="-0.1976" r="0.0200"/><circle cx="-0.2726" cy="-0.1679" r="0.0200"/><circle cx="-0.2726" cy="-0.1374" r="0.0200"/><circle cx="-0.2726" cy="-0.1063" r="0.0200"/><circle cx="-0.2726" cy="-0.0749" r="0.0200"/><circle cx="-0.2726" cy="-0.0433" r="0.0200"/><circle cx="-0.2726" cy="-0.0116" r="0.0200"/><circle cx="-0.2726" cy="0.0198" r="0.0200"/><circle cx="-0.2726" cy="0.0509" r="0.0200"/><circle cx="-0.2726" cy="0.0814" r="0.0200"/><circle cx="-0.2726" cy="0.1111" r="0.0200"/><circle cx="-0.2726" cy="0.1398" r="0.0200"/><circle cx="-0.2726" cy="0.1675" r="0.0200"/><circle cx="-0.2726" cy="0.1938" r="0.0200"/><circle cx="-0.2726" cy="0.2187" r="0.0200"/><circle cx="-0.2726" cy="0.2419" r="0.0200"/><circle cx="-0.2726" cy="0.2634" r="0.0200"/><circle cx="-0.2726" cy="0.2830" r="0.0200"/><circle cx="-0.2726" cy="0.3006" r="0.0200"/><circle cx="-0.2726" cy="0.3161" r="0.0200"/><circle cx="-0.2726" cy="0.3294" r="0.0200"/><circle cx="-0.2726" cy="0.3403" r="0.0200"/><circle cx="-0.2726" cy="0.3489" r="0.0200"/><circle cx="-0.2726" cy="0.3551" r="0.0200"/><circle cx="-0.2726" cy="0.3588" r="0.0200"/><circle cx="-0.2726" cy="0.3601" r="0.0200"/><circle cx="-0.1779" cy="-0.4453" r="0.0200"/><circle cx="-0.1779" cy="-0.4416" r="0.0200"/><circle cx="-0.1779" cy="-0.4354" r="0.0200"/><circle cx="-0.1779" cy="-0.4268" r="0.0200"/><circle cx="-0.1779" cy="-0.4159" r="0.0200"/><circle cx="-0.1779" cy="-0.4026" r="0.0200"/><circle cx="-0.1779" cy="-0.3871" r="0.0200"/><circle cx="-0.1779" cy="-0.3695" r="0.0200"/><circle cx="-0.1779" cy="-0.3499" r="0.0200"/><circle cx="-0.1779" cy="-0.3284" r="0.0200"/><circle cx="-0.1779" cy="-0.3052" r="0.0200"/><circle cx="-0.1779" cy="-0.2803" r="0.0200"/><circle cx="-0.1779" cy="-0.2540" r="0.0200"/><circle cx="-0.1779" cy="-0.2264" r="0.0200"/><circle cx="-0.1779" cy="-0.1976" r="0.0200"/><circle cx="-0.1779" cy="-0.1679" r="0.0200"/><circle cx="-0.1779" cy="-0.1374" r="0.0200"/><circle cx="-0.1779" cy="-0.1063" r="0.0200"/><circle cx="-0.1779" cy="-0.0749" r="0.0200"/><circle cx="-0.1779" cy="-0.0433" r="0.0200"/><circle cx="-0.1779" cy="-0.0116" r="0.0200"/><circle cx="-0.1779" cy="0.0198" r="0.0200"/><circle cx="-0.1779" cy="0.0509" r="0.0200"/><circle cx="-0.1779" cy="0.0814" r="0.0200"/><circle cx="-0.1779" cy="0.1111" r="0.0200"/><circle cx="-0.1779" cy="0.1398" r="0.0200"/><circle cx="-0.1779" cy="0.1675" r="0.0200"/><circle cx="-0.1779" cy="0.1938" r="0.0200"/><circle cx="-0.1779" cy="0.2187" r="0.0200"/><circle cx="-0.1779" cy="0.2419" r="0.0200"/><circle cx="-0.1779" cy="0.2634" r="0.0200"/><circle cx="-0.1779" cy="0.2830" r="0.0200"/><circle cx="-0.1779" cy="0.3006" r="0.0200"/><circle cx="-0.1779" cy="0.3161" r="0.0200"/><circle cx="-0.1779" cy="0.3294" r="0.0200"/><circle cx="-0.1779" cy="0.3403" r="0.0200"/><circle cx="-0.1779" cy="0.3489" r="0.0200"/><circle cx="-0.1779" cy="0.3551" r="0.0200"/><circle cx="-0.1779" cy="0.3588" r="0.0200"/><circle cx="-0.1779" cy="0.3601" r="0.0200"/><circle cx="-0.0855" cy="-0.4453" r="0.0200"/><circle cx="-0.0855" cy="-0.4416" r="0.0200"/><circle cx="-0.0855" cy="-0.4354" r="0.0200"/><circle cx="-0.0855" cy="-0.4268" r="0.0200"/><circle cx="-0.0855" cy="-0.4159" r="0.0200"/><circle cx="-0.0855" cy="-0.4026" r="0.0200"/><circle cx="-0.0855" cy="-0.3871" r="0.0200"/><circle cx="-0.0855" cy="-0.3695" r="0.0200"/><circle cx="-0.0855" cy="-0.3499" r="0.0200"/><circle cx="-0.0855" cy="-0.3284" r="0.0200"/><circle cx="-0.0855" cy="-0.3052" r="0.0200"/><circle cx="-0.0855" cy="-0.2803" r="0.0200"/><circle cx="-0.0855" cy="-0.2540" r="0.0200"/><circle cx="-0.0855" cy="-0.2264" r="0.0200"/><circle cx="-0.0855" cy="-0.1976" r="0.0200"/><circle cx="-0.0855" cy="-0.1679" r="0.0200"/><circle cx="-0.0855" cy="-0.1374" r="0.0200"/><circle cx="-0.0855" cy="-0.1063" r="0.0200"/><circle cx="-0.0855" cy="-0.0749" r="0.0200"/><circle cx="-0.0855" cy="-0.0433" r="0.0200"/><circle cx="-0.0855" cy="-0.0116" r="0.0200"/><circle cx="-0.0855" cy="0.0198" r="0.0200"/><circle cx="-0.0855" cy="0.0509" r="0.0200"/><circle cx="-0.0855" cy="0.0814" r="0.0200"/><circle cx="-0.0855" cy="0.1111" r="0.0200"/><circle cx="-0.0855" cy="0.1398" r="0.0200"/><circle cx="-0.0855" cy="0.1675" r="0.0200"/><circle cx="-0.0855" cy="0.1938" r="0.0200"/><circle cx="-0.0855" cy="0.2187" r="0.0200"/><circle cx="-0.0855" cy="0.2419" r="0.0200"/><circle cx="-0.0855" cy="0.2634" r="0.0200"/><circle cx="-0.0855" cy="0.2830" r="0.0200"/><circle cx="-0.0855" cy="0.3006" r="0.0200"/><circle cx="-0.0855" cy="0.3161" r="0.0200"/><circle cx="-0.0855" cy="0.3294" r="0.0200"/><circle cx="-0.0855" cy="0.3403" r="0.0200"/><circle cx="-0.0855" cy="0.3489" r="0.0200"/><circle cx="-0.0855" cy="0.3551" r="0.0200"/><circle cx="-0.0855" cy="0.3588" r="0.0200"/><circle cx="-0.0855" cy="0.3601" r="0.0200"/><circle cx="0.0039" cy="-0.4453" r="0.0200"/><circle cx="0.0039" cy="-0.4416" r="0.0200"/><circle cx="0.0039" cy="-0.4354" r="0.0200"/><circle cx="0.0039" cy="-0.4268" r="0.0200"/><circle cx="0.0039" cy="-0.4159" r="0.0200"/><circle cx="0.0039" cy="-0.4026" r="0.0200"/><circle cx="0.0039" cy="-0.3871" r="0.0200"/><circle cx="0.0039" cy="-0.3695" r="0.0200"/><circle cx="0.0039" cy="-0.3499" r="0.0200"/><circle cx="0.0039" cy="-0.3284" r="0.0200"/><circle cx="0.0039" cy="-0.3052" r="0.0200"/><circle cx="0.0039" cy="-0.2803" r="0.0200"/><circle cx="0.0039" cy="-0.2540" r="0.0200"/><circle cx="0.0039" cy="-0.2264" r="0.0200"/><circle cx="0.0039" cy="-0.1976" r="0.0200"/><circle cx="0.0039" cy="-0.1679" r="0.0200"/><circle cx="0.0039" cy="-0.1374" r="0.0200"/><circle cx="0.0039" cy="-0.1063" r="0.0200"/><circle cx="0.0039" cy="-0.0749" r="0.0200"/><circle cx="0.0039" cy="-0.0433" r="0.0200"/><circle cx="0.0039" cy="-0.0116" r="0.0200"/><circle cx="0.0039" cy="0.0198" r="0.0200"/><circle cx="0.0039" cy="0.0509" r="0.0200"/><circle cx="0.0039" cy="0.0814" r="0.0200"/><circle cx="0.0039" cy="0.1111" r="0.0200"/><circle cx="0.0039" cy="0.1398" r="0.0200"/><circle cx="0.0039" cy="0.1675" r="0.0200"/><circle cx="0.0039" cy="0.1938" r="0.0200"/><circle cx="0.0039" cy="0.2187" r="0.0200"/><circle cx="0.0039" cy="0.2419" r="0.0200"/><circle cx="0.0039" cy="0.2634" r="0.0200"/><circle cx="0.0039" cy="0.2830" r="0.0200"/><circle cx="0.0039" cy="0.3006" r="0.0200"/><circle cx="0.0039" cy="0.3161" r="0.0200"/><circle cx="0.0039" cy="0.3294" r="0.0200"/><circle cx="0.0039" cy="0.3403" r="0.0200"/><circle cx="0.0039" cy="0.3489" r="0.0200"/><circle cx="0.0039" cy="0.3551" r="0.0200"/><circle cx="0.0039" cy="0.3588" r="0.0200"/><circle cx="0.0039" cy="0.3601" r="0.0200"/><circle cx="0.0897" cy="-0.4453" r="0.0200"/><circle cx="0.0897" cy="-0.4416" r="0.0200"/><circle cx="0.0897" cy="-0.4354" r="0.0200"/><circle cx="0.0897" cy="-0.4268" r="0.0200"/><circle cx="0.0897" cy="-0.4159" r="0.0200"/><circle cx="0.0897" cy="-0.4026" r="0.0200"/><circle cx="0.0897" cy="-0.3871" r="0.0200"/><circle cx="0.0897" cy="-0.3695" r="0.0200"/><circle cx="0.0897" cy="-0.3499" r="0.0200"/><circle cx="0.0897" cy="-0.3284" r="0.0200"/><circle cx="0.0897" cy="-0.3052" r="0.0200"/><circle cx="0.0897" cy="-0.2803" r="0.0200"/><circle cx="0.0897" cy="-0.2540" r="0.0200"/><circle cx="0.0897" cy="-0.2264" r="0.0200"/><circle cx="0.0897" cy="-0.1976" r="0.0200"/><circle cx="0.0897" cy="-0.1679" r="0.0200"/><circle cx="0.0897" cy="-0.1374" r="0.0200"/><circle cx="0.0897" cy="-0.1063" r="0.0200"/><circle cx="0.0897" cy="-0.0749" r="0.0200"/><circle cx="0.0897" cy="-0.0433" r="0.0200"/><circle cx="0.0897" cy="-0.0116" r="0.0200"/><circle cx="0.0897" cy="0.0198" r="0.0200"/><circle cx="0.0897" cy="0.0509" r="0.0200"/><circle cx="0.0897" cy="0.0814" r="0.0200"/><circle cx="0.0897" cy="0.1111" r="0.0200"/><circle cx="0.0897" cy="0.1398" r="0.0200"/><circle cx="0.0897" cy="0.1675" r="0.0200"/><circle cx="0.0897" cy="0.1938" r="0.0200"/><circle cx="0.0897" cy="0.2187" r="0.0200"/><circle cx="0.0897" cy="0.2419" r="0.0200"/><circle cx="0.0897" cy="0.2634" r="0.0200"/><circle cx="0.0897" cy="0.2830" r="0.0200"/><circle cx="0.0897" cy="0.3006" r="0.0200"/><circle cx="0.0897" cy="0.3161" r="0.0200"/><circle cx="0.0897" cy="0.3294" r="0.0200"/><circle cx="0.0897" cy="0.3403" r="0.0200"/><circle cx="0.0897" cy="0.3489" r="0.0200"/><circle cx="0.0897" cy="0.3551" r="0.0200"/><circle cx="0.0897" cy="0.3588" r="0.0200"/><circle cx="0.0897" cy="0.3601" r="0.0200"/><circle cx="0.1716" cy="-0.4453" r="0.0200"/><circle cx="0.1716" cy="-0.4416" r="0.0200"/><circle cx="0.1716" cy="-0.4354" r="0.0200"/><circle cx="0.1716" cy="-0.4268" r="0.0200"/><circle cx="0.1716" cy="-0.4159" r="0.0200"/><circle cx="0.1716" cy="-0.4026" r="0.0200"/><circle cx="0.1716" cy="-0.3871" r="0.0200"/><circle cx="0.1716" cy="-0.3695" r="0.0200"/><circle cx="0.1716" cy="-0.3499" r="0.0200"/><circle cx="0.1716" cy="-0.3284" r="0.0200"/><circle cx="0.1716" cy="-0.3052" r="0.0200"/><circle cx="0.1716" cy="-0.2803" r="0.0200"/><circle cx="0.1716" cy="-0.2540" r="0.0200"/><circle cx="0.1716" cy="-0.2264" r="0.0200"/><circle cx="0.1716" cy="-0.1976" r="0.0200"/><circle cx="0.1716" cy="-0.1679" r="0.0200"/><circle cx="0.1716" cy="-0.1374" r="0.0200"/><circle cx="0.1716" cy="-0.1063" r="0.0200"/><circle cx="0.1716" cy="-0.0749" r="0.0200"/><circle cx="0.1716" cy="-0.0433" r="0.0200"/><circle cx="0.1716" cy="-0.0116" r="0.0200"/><circle cx="0.1716" cy="0.0198" r="0.0200"/><circle cx="0.1716" cy="0.0509" r="0.0200"/><circle cx="0.1716" cy="0.0814" r="0.0200"/><circle cx="0.1716" cy="0.1111" r="0.0200"/><circle cx="0.1716" cy="0.1398" r="0.0200"/><circle cx="0.1716" cy="0.1675" r="0.0200"/><circle cx="0.1716" cy="0.1938" r="0.0200"/><circle cx="0.1716" cy="0.2187" r="0.0200"/><circle cx="0.1716" cy="0.2419" r="0.0200"/><circle cx="0.1716" cy="0.2634" r="0.0200"/><circle cx="0.1716" cy="0.2830" r="0.0200"/><circle cx="0.1716" cy="0.3006" r="0.0200"/><circle cx="0.1716" cy="0.3161" r="0.0200"/><circle cx="0.1716" cy="0.3294" r="0.0200"/><circle cx="0.1716" cy="0.3403" r="0.0200"/><circle cx="0.1716" cy="0.3489" r="0.0200"/><circle cx="0.1716" cy="0.3551" r="0.0200"/><circle cx="0.1716" cy="0.3588" r="0.0200"/><circle cx="0.1716" cy="0.3601" r="0.0200"/><circle cx="0.2489" cy="-0.4453" r="0.0200"/><circle cx="0.2489" cy="-0.4416" r="0.0200"/><circle cx="0.2489" cy="-0.4354" r="0.0200"/><circle cx="0.2489" cy="-0.4268" r="0.0200"/><circle cx="0.2489" cy="-0.4159" r="0.0200"/><circle cx="0.2489" cy="-0.4026" r="0.0200"/><circle cx="0.2489" cy="-0.3871" r="0.0200"/><circle cx="0.2489" cy="-0.3695" r="0.0200"/><circle cx="0.2489" cy="-0.3499" r="0.0200"/><circle cx="0.2489" cy="-0.3284" r="0.0200"/><circle cx="0.2489" cy="-0.3052" r="0.0200"/><circle cx="0.2489" cy="-0.2803" r="0.0200"/><circle cx="0.2489" cy="-0.2540" r="0.0200"/><circle cx="0.2489" cy="-0.2264" r="0.0200"/><circle cx="0.2489" cy="-0.1976" r="0.0200"/><circle cx="0.2489" cy="-0.1679" r="0.0200"/><circle cx="0.2489" cy="-0.1374" r="0.0200"/><circle cx="0.2489" cy="-0.1063" r="0.0200"/><circle cx="0.2489" cy="-0.0749" r="0.0200"/><circle cx="0.2489" cy="-0.0433" r="0.0200"/><circle cx="0.2489" cy="-0.0116" r="0.0200"/><circle cx="0.2489" cy="0.0198" r="0.0200"/><circle cx="0.2489" cy="0.0509" r="0.0200"/><circle cx="0.2489" cy="0.0814" r="0.0200"/><circle cx="0.2489" cy="0.1111" r="0.0200"/><circle cx="0.2489" cy="0.1398" r="0.0200"/><circle cx="0.2489" cy="0.1675" r="0.0200"/><circle cx="0.2489" cy="0.1938" r="0.0200"/><circle cx="0.2489" cy="0.2187" r="0.0200"/><circle cx="0.2489" cy="0.2419" r="0.0200"/><circle cx="0.2489" cy="0.2634" r="0.0200"/><circle cx="0.2489" cy="0.2830" r="0.0200"/><circle cx="0.2489" cy="0.3006" r="0.0200"/><circle cx="0.2489" cy="0.3161" r="0.0200"/><circle cx="0.2489" cy="0.3294" r="0.0200"/><circle cx="0.2489" cy="0.3403" r="0.0200"/><circle cx="0.2489" cy="0.3489" r="0.0200"/><circle cx="0.2489" cy="0.3551" r="0.0200"/><circle cx="0.2489" cy="0.3588" r="0.0200"/><circle cx="0.2489" cy="0.3601" r="0.0200"/><circle cx="0.3212" cy="-0.4453" r="0.0200"/><circle cx="0.3212" cy="-0.4416" r="0.0200"/><circle cx="0.3212" cy="-0.4354" r="0.0200"/><circle cx="0.3212" cy="-0.4268" r="0.0200"/><circle cx="0.3212" cy="-0.4159" r="0.0200"/><circle cx="0.3212" cy="-0.4026" r="0.0200"/><circle cx="0.3212" cy="-0.3871" r="0.0200"/><circle cx="0.3212" cy="-0.3695" r="0.0200"/><circle cx="0.3212" cy="-0.3499" r="0.0200"/><circle cx="0.3212" cy="-0.3284" r="0.0200"/><circle cx="0.3212" cy="-0.3052" r="0.0200"/><circle cx="0.3212" cy="-0.2803" r="0.0200"/><circle cx="0.3212" cy="-0.2540" r="0.0200"/><circle cx="0.3212" cy="-0.2264" r="0.0200"/><circle cx="0.3212" cy="-0.1976" r="0.0200"/><circle cx="0.3212" cy="-0.1679" r="0.0200"/><circle cx="0.3212" cy="-0.1374" r="0.0200"/><circle cx="0.3212" cy="-0.1063" r="0.0200"/><circle cx="0.3212" cy="-0.0749" r="0.0200"/><circle cx="0.3212" cy="-0.0433" r="0.0200"/><circle cx="0.3212" cy="-0.0116" r="0.0200"/><circle cx="0.3212" cy="0.0198" r="0.0200"/><circle cx="0.3212" cy="0.0509" r="0.0200"/><circle cx="0.3212" cy="0.0814" r="0.0200"/><circle cx="0.3212" cy="0.1111" r="0.0200"/><circle cx="0.3212" cy="0.1398" r="0.0200"/><circle cx="0.3212" cy="0.1675" r="0.0200"/><circle cx="0.3212" cy="0.1938" r="0.0200"/><circle cx="0.3212" cy="0.2187" r="0.0200"/><circle cx="0.3212" cy="0.2419" r="0.0200"/><circle cx="0.3212" cy="0.2634" r="0.0200"/><circle cx="0.3212" cy="0.2830" r="0.0200"/><circle cx="0.3212" cy="0.3006" r="0.0200"/><circle cx="0.3212" cy="0.3161" r="0.0200"/><circle cx="0.3212" cy="0.3294" r="0.0200"/><circle cx="0.3212" cy="0.3403" r="0.0200"/><circle cx="0.3212" cy="0.3489" r="0.0200"/><circle cx="0.3212" cy="0.3551" r="0.0200"/><circle cx="0.3212" cy="0.3588" r="0.0200"/><circle cx="0.3212" cy="0.3601" r="0.0200"/><circle cx="0.3880" cy="-0.4453" r="0.0200"/><circle cx="0.3880" cy="-0.4416" r="0.0200"/><circle cx="0.3880" cy="-0.4354" r="0.0200"/><circle cx="0.3880" cy="-0.4268" r="0.0200"/><circle cx="0.3880" cy="-0.4159" r="0.0200"/><circle cx="0.3880" cy="-0.4026" r="0.0200"/><circle cx="0.3880" cy="-0.3871" r="0.0200"/><circle cx="0.3880" cy="-0.3695" r="0.0200"/><circle cx="0.3880" cy="-0.3499" r="0.0200"/><circle cx="0.3880" cy="-0.3284" r="0.0200"/><circle cx="0.3880" cy="-0.3052" r="0.0200"/><circle cx="0.3880" cy="-0.2803" r="0.0200"/><circle cx="0.3880" cy="-0.2540" r="0.0200"/><circle cx="0.3880" cy="-0.2264" r="0.0200"/><circle cx="0.3880" cy="-0.1976" r="0.0200"/><circle cx="0.3880" cy="-0.1679" r="0.0200"/><circle cx="0.3880" cy="-0.1374" r="0.0200"/><circle cx="0.3880" cy="-0.1063" r="0.0200"/><circle cx="0.3880" cy="-0.0749" r="0.0200"/><circle cx="0.3880" cy="-0.0433" r="0.0200"/><circle cx="0.3880" cy="-0.0116" r="0.0200"/><circle cx="0.3880" cy="0.0198" r="0.0200"/><circle cx="0.3880" cy="0.0509" r="0.0200"/><circle cx="0.3880" cy="0.0814" r="0.0200"/><circle cx="0.3880" cy="0.1111" r="0.0200"/><circle cx="0.3880" cy="0.1398" r="0.0200"/><circle cx="0.3880" cy="0.1675" r="0.0200"/><circle cx="0.3880" cy="0.1938" r="0.0200"/><circle cx="0.3880" cy="0.2187" r="0.0200"/><circle cx="0.3880" cy="0.2419" r="0.0200"/><circle cx="0.3880" cy="0.2634" r="0.0200"/><circle cx="0.3880" cy="0.2830" r="0.0200"/><circle cx="0.3880" cy="0.3006" r="0.0200"/><circle cx="0.3880" cy="0.3161" r="0.0200"/><circle cx="0.3880" cy="0.3294" r="0.0200"/><circle cx="0.3880" cy="0.3403" r="0.0200"/><circle cx="0.3880" cy="0.3489" r="0.0200"/><circle cx="0.3880" cy="0.3551" r="0.0200"/><circle cx="0.3880" cy="0.3588" r="0.0200"/><circle cx="0.3880" cy="0.3601" r="0.0200"/><circle cx="0.4489" cy="-0.4453" r="0.0200"/><circle cx="0.4489" cy="-0.4416" r="0.0200"/><circle cx="0.4489" cy="-0.4354" r="0.0200"/><circle cx="0.4489" cy="-0.4268" r="0.0200"/><circle cx="0.4489" cy="-0.4159" r="0.0200"/><circle cx="0.4489" cy="-0.4026" r="0.0200"/><circle cx="0.4489" cy="-0.3871" r="0.0200"/><circle cx="0.4489" cy="-0.3695" r="0.0200"/><circle cx="0.4489" cy="-0.3499" r="0.0200"/><circle cx="0.4489" cy="-0.3284" r="0.0200"/><circle cx="0.4489" cy="-0.3052" r="0.0200"/><circle cx="0.4489" cy="-0.2803" r="0.0200"/><circle cx="0.4489" cy="-0.2540" r="0.0200"/><circle cx="0.4489" cy="-0.2264" r="0.0200"/><circle cx="0.4489" cy="-0.1976" r="0.0200"/><circle cx="0.4489" cy="-0.1679" r="0.0200"/><circle cx="0.4489" cy="-0.1374" r="0.0200"/><circle cx="0.4489" cy="-0.1063" r="0.0200"/><circle cx="0.4489" cy="-0.0749" r="0.0200"/><circle cx="0.4489" cy="-0.0433" r="0.0200"/><circle cx="0.4489" cy="-0.0116" r="0.0200"/><circle cx="0.4489" cy="0.0198" r="0.0200"/><circle cx="0.4489" cy="0.0509" r="0.0200"/><circle cx="0.4489" cy="0.0814" r="0.0200"/><circle cx="0.4489" cy="0.1111" r="0.0200"/><circle cx="0.4489" cy="0.1398" r="0.0200"/><circle cx="0.4489" cy="0.1675" r="0.0200"/><circle cx="0.4489" cy="0.1938" r="0.0200"/><circle cx="0.4489" cy="0.2187" r="0.0200"/><circle cx="0.4489" cy="0.2419" r="0.0200"/><circle cx="0.4489" cy="0.2634" r="0.0200"/><circle cx="0.4489" cy="0.2830" r="0.0200"/><circle cx="0.4489" cy="0.3006" r="0.0200"/><circle cx="0.4489" cy="0.3161" r="0.0200"/><circle cx="0.4489" cy="0.3294" r="0.0200"/><circle cx="0.4489" cy="0.3403" r="0.0200"/><circle cx="0.4489" cy="0.3489" r="0.0200"/><circle cx="0.4489" cy="0.3551" r="0.0200"/><circle cx="0.4489" cy="0.3588" r="0.0200"/><circle cx="0.4489" cy="0.3601" r="0.0200"/><circle cx="0.5036" cy="-0.4453" r="0.0200"/><circle cx="0.5036" cy="-0.4416" r="0.0200"/><circle cx="0.5036" cy="-0.4354" r="0.0200"/><circle cx="0.5036" cy="-0.4268" r="0.0200"/><circle cx="0.5036" cy="-0.4159" r="0.0200"/><circle cx="0.5036" cy="-0.4026" r="0.0200"/><circle cx="0.5036" cy="-0.3871" r="0.0200"/><circle cx="0.5036" cy="-0.3695" r="0.0200"/><circle cx="0.5036" cy="-0.3499" r="0.0200"/><circle cx="0.5036" cy="-0.3284" r="0.0200"/><circle cx="0.5036" cy="-0.3052" r="0.0200"/><circle cx="0.5036" cy="-0.2803" r="0.0200"/><circle cx="0.5036" cy="-0.2540" r="0.0200"/><circle cx="0.5036" cy="-0.2264" r="0.0200"/><circle cx="0.5036" cy="-0.1976" r="0.0200"/><circle cx="0.5036" cy="-0.1679" r="0.0200"/><circle cx="0.5036" cy="-0.1374" r="0.0200"/><circle cx="0.5036" cy="-0.1063" r="0.0200"/><circle cx="0.5036" cy="-0.0749" r="0.0200"/><circle cx="0.5036" cy="-0.0433" r="0.0200"/><circle cx="0.5036" cy="-0.0116" r="0.0200"/><circle cx="0.5036" cy="0.0198" r="0.0200"/><circle cx="0.5036" cy="0.0509" r="0.0200"/><circle cx="0.5036" cy="0.0814" r="0.0200"/><circle cx="0.5036" cy="0.1111" r="0.0200"/><circle cx="0.5036" cy="0.1398" r="0.0200"/><circle cx="0.5036" cy="0.1675" r="0.0200"/><circle cx="0.5036" cy="0.1938" r="0.0200"/><circle cx="0.5036" cy="0.2187" r="0.0200"/><circle cx="0.5036" cy="0.2419" r="0.0200"/><circle cx="0.5036" cy="0.2634" r="0.0200"/><circle cx="0.5036" cy="0.2830" r="0.0200"/><circle cx="0.5036" cy="0.3006" r="0.0200"/><circle cx="0.5036" cy="0.3161" r="0.0200"/><circle cx="0.5036" cy="0.3294" r="0.0200"/><circle cx="0.5036" cy="0.3403" r="0.0200"/><circle cx="0.5036" cy="0.3489" r="0.0200"/><circle cx="0.5036" cy="0.3551" r="0.0200"/><circle cx="0.5036" cy="0.3588" r="0.0200"/><circle cx="0.5036" cy="0.3601" r="0.0200"/><circle cx="0.5517" cy="-0.4453" r="0.0200"/><circle cx="0.5517" cy="-0.4416" r="0.0200"/><circle cx="0.5517" cy="-0.4354" r="0.0200"/><circle cx="0.5517" cy="-0.4268" r="0.0200"/><circle cx="0.5517" cy="-0.4159" r="0.0200"/><circle cx="0.5517" cy="-0.4026" r="0.0200"/><circle cx="0.5517" cy="-0.3871" r="0.0200"/><circle cx="0.5517" cy="-0.3695" r="0.0200"/><circle cx="0.5517" cy="-0.3499" r="0.0200"/><circle cx="0.5517" cy="-0.3284" r="0.0200"/><circle cx="0.5517" cy="-0.3052" r="0.0200"/><circle cx="0.5517" cy="-0.2803" r="0.0200"/><circle cx="0.5517" cy="-0.2540" r="0.0200"/><circle cx="0.5517" cy="-0.2264" r="0.0200"/><circle cx="0.5517" cy="-0.1976" r="0.0200"/><circle cx="0.5517" cy="-0.1679" r="0.0200"/><circle cx="0.5517" cy="-0.1374" r="0.0200"/><circle cx="0.5517" cy="-0.1063" r="0.0200"/><circle cx="0.5517" cy="-0.0749" r="0.0200"/><circle cx="0.5517" cy="-0.0433" r="0.0200"/><circle cx="0.5517" cy="-0.0116" r="0.0200"/><circle cx="0.5517" cy="0.0198" r="0.0200"/><circle cx="0.5517" cy="0.0509" r="0.0200"/><circle cx="0.5517" cy="0.0814" r="0.0200"/><circle cx="0.5517" cy="0.1111" r="0.0200"/><circle cx="0.5517" cy="0.1398" r="0.0200"/><circle cx="0.5517" cy="0.1675" r="0.0200"/><circle cx="0.5517" cy="0.1938" r="0.0200"/><circle cx="0.5517" cy="0.2187" r="0.0200"/><circle cx="0.5517" cy="0.2419" r="0.0200"/><circle cx="0.5517" cy="0.2634" r="0.0200"/><circle cx="0.5517" cy="0.2830" r="0.0200"/><circle cx="0.5517" cy="0.3006" r="0.0200"/><circle cx="0.5517" cy="0.3161" r="0.0200"/><circle cx="0.5517" cy="0.3294" r="0.0200"/><circle cx="0.5517" cy="0.3403" r="0.0200"/><circle cx="0.5517" cy="0.3489" r="0.0200"/><circle cx="0.5517" cy="0.3551" r="0.0200"/><circle cx="0.5517" cy="0.3588" r="0.0200"/><circle cx="0.5517" cy="0.3601" r="0.0200"/><circle cx="0.5929" cy="-0.4453" r="0.0200"/><circle cx="0.5929" cy="-0.4416" r="0.0200"/><circle cx="0.5929" cy="-0.4354" r="0.0200"/><circle cx="0.5929" cy="-0.4268" r="0.0200"/><circle cx="0.5929" cy="-0.4159" r="0.0200"/><circle cx="0.5929" cy="-0.4026" r="0.0200"/><circle cx="0.5929" cy="-0.3871" r="0.0200"/><circle cx="0.5929" cy="-0.3695" r="0.0200"/><circle cx="0.5929" cy="-0.3499" r="0.0200"/><circle cx="0.5929" cy="-0.3284" r="0.0200"/><circle cx="0.5929" cy="-0.3052" r="0.0200"/><circle cx="0.5929" cy="-0.2803" r="0.0200"/><circle cx="0.5929" cy="-0.2540" r="0.0200"/><circle cx="0.5929" cy="-0.2264" r="0.0200"/><circle cx="0.5929" cy="-0.1976" r="0.0200"/><circle cx="0.5929" cy="-0.1679" r="0.0200"/><circle cx="0.5929" cy="-0.1374" r="0.0200"/><circle cx="0.5929" cy="-0.1063" r="0.0200"/><circle cx="0.5929" cy="-0.0749" r="0.0200"/><circle cx="0.5929" cy="-0.0433" r="0.0200"/><circle cx="0.5929" cy="-0.0116" r="0.0200"/><circle cx="0.5929" cy="0.0198" r="0.0200"/><circle cx="0.5929" cy="0.0509" r="0.0200"/><circle cx="0.5929" cy="0.0814" r="0.0200"/><circle cx="0.5929" cy="0.1111" r="0.0200"/><circle cx="0.5929" cy="0.1398" r="0.0200"/><circle cx="0.5929" cy="0.1675" r="0.0200"/><circle cx="0.5929" cy="0.1938" r="0.0200"/><circle cx="0.5929" cy="0.2187" r="0.0200"/><circle cx="0.5929" cy="0.2419" r="0.0200"/><circle cx="0.5929" cy="0.2634" r="0.0200"/><circle cx="0.5929" cy="0.2830" r="0.0200"/><circle cx="0.5929" cy="0.3006" r="0.0200"/><circle cx="0.5929" cy="0.3161" r="0.0200"/><circle cx="0.5929" cy="0.3294" r="0.0200"/><circle cx="0.5929" cy="0.3403" r="0.0200"/><circle cx="0.5929" cy="0.3489" r="0.0200"/><circle cx="0.5929" cy="0.3551" r="0.0200"/><circle cx="0.5929" cy="0.3588" r="0.0200"/><circle cx="0.5929" cy="0.3601" r="0.0200"/><circle cx="0.6270" cy="-0.4453" r="0.0200"/><circle cx="0.6270" cy="-0.4416" r="0.0200"/><circle cx="0.6270" cy="-0.4354" r="0.0200"/><circle cx="0.6270" cy="-0.4268" r="0.0200"/><circle cx="0.6270" cy="-0.4159" r="0.0200"/><circle cx="0.6270" cy="-0.4026" r="0.0200"/><circle cx="0.6270" cy="-0.3871" r="0.0200"/><circle cx="0.6270" cy="-0.3695" r="0.0200"/><circle cx="0.6270" cy="-0.3499" r="0.0200"/><circle cx="0.6270" cy="-0.3284" r="0.0200"/><circle cx="0.6270" cy="-0.3052" r="0.0200"/><circle cx="0.6270" cy="-0.2803" r="0.0200"/><circle cx="0.6270" cy="-0.2540" r="0.0200"/><circle cx="0.6270" cy="-0.2264" r="0.0200"/><circle cx="0.6270" cy="-0.1976" r="0.0200"/><circle cx="0.6270" cy="-0.1679" r="0.0200"/><circle cx="0.6270" cy="-0.1374" r="0.0200"/><circle cx="0.6270" cy="-0.1063" r="0.0200"/><circle cx="0.6270" cy="-0.0749" r="0.0200"/><circle cx="0.6270" cy="-0.0433" r="0.0200"/><circle cx="0.6270" cy="-0.0116" r="0.0200"/><circle cx="0.6270" cy="0.0198" r="0.0200"/><circle cx="0.6270" cy="0.0509" r="0.0200"/><circle cx="0.6270" cy="0.0814" r="0.0200"/><circle cx="0.6270" cy="0.1111" r="0.0200"/><circle cx="0.6270" cy="0.1398" r="0.0200"/><circle cx="0.6270" cy="0.1675" r="0.0200"/><circle cx="0.6270" cy="0.1938" r="0.0200"/><circle cx="0.6270" cy="0.2187" r="0.0200"/><circle cx="0.6270" cy="0.2419" r="0.0200"/><circle cx="0.6270" cy="0.2634" r="0.0200"/><circle cx="0.6270" cy="0.2830" r="0.0200"/><circle cx="0.6270" cy="0.3006" r="0.0200"/><circle cx="0.6270" cy="0.3161" r="0.0200"/><circle cx="0.6270" cy="0.3294" r="0.0200"/><circle cx="0.6270" cy="0.3403" r="0.0200"/><circle cx="0.6270" cy="0.3489" r="0.0200"/><circle cx="0.6270" cy="0.3551" r="0.0200"/><circle cx="0.6270" cy="0.3588" r="0.0200"/><circle cx="0.6270" cy="0.3601" r="0.0200"/><circle cx="0.6537" cy="-0.4453" r="0.0200"/><circle cx="0.6537" cy="-0.4416" r="0.0200"/><circle cx="0.6537" cy="-0.4354" r="0.0200"/><circle cx="0.6537" cy="-0.4268" r="0.0200"/><circle cx="0.6537" cy="-0.4159" r="0.0200"/><circle cx="0.6537" cy="-0.4026" r="0.0200"/><circle cx="0.6537" cy="-0.3871" r="0.0200"/><circle cx="0.6537" cy="-0.3695" r="0.0200"/><circle cx="0.6537" cy="-0.3499" r="0.0200"/><circle cx="0.6537" cy="-0.3284" r="0.0200"/><circle cx="0.6537" cy="-0.3052" r="0.0200"/><circle cx="0.6537" cy="-0.2803" r="0.0200"/><circle cx="0.6537" cy="-0.2540" r="0.0200"/><circle cx="0.6537" cy="-0.2264" r="0.0200"/><circle cx="0.6537" cy="-0.1976" r="0.0200"/><circle cx="0.6537" cy="-0.1679" r="0.0200"/><circle cx="0.6537" cy="-0.1374" r="0.0200"/><circle cx="0.6537" cy="-0.1063" r="0.0200"/><circle cx="0.6537" cy="-0.0749" r="0.0200"/><circle cx="0.6537" cy="-0.0433" r="0.0200"/><circle cx="0.6537" cy="-0.0116" r="0.0200"/><circle cx="0.6537" cy="0.0198" r="0.0200"/><circle cx="0.6537" cy="0.0509" r="0.0200"/><circle cx="0.6537" cy="0.0814" r="0.0200"/><circle cx="0.6537" cy="0.1111" r="0.0200"/><circle cx="0.6537" cy="0.1398" r="0.0200"/><circle cx="0.6537" cy="0.1675" r="0.0200"/><circle cx="0.6537" cy="0.1938" r="0.0200"/><circle cx="0.6537" cy="0.2187" r="0.0200"/><circle cx="0.6537" cy="0.2419" r="0.0200"/><circle cx="0.6537" cy="0.2634" r="0.0200"/><circle cx="0.6537" cy="0.2830" r="0.0200"/><circle cx="0.6537" cy="0.3006" r="0.0200"/><circle cx="0.6537" cy="0.3161" r="0.0200"/><circle cx="0.6537" cy="0.3294" r="0.0200"/><circle cx="0.6537" cy="0.3403" r="0.0200"/><circle cx="0.6537" cy="0.3489" r="0.0200"/><circle cx="0.6537" cy="0.3551" r="0.0200"/><circle cx="0.6537" cy="0.3588" r="0.0200"/><circle cx="0.6537" cy="0.3601" r="0.0200"/><circle cx="0.6729" cy="-0.4453" r="0.0200"/><circle cx="0.6729" cy="-0.4416" r="0.0200"/><circle cx="0.6729" cy="-0.4354" r="0.0200"/><circle cx="0.6729" cy="-0.4268" r="0.0200"/><circle cx="0.6729" cy="-0.4159" r="0.0200"/><circle cx="0.6729" cy="-0.4026" r="0.0200"/><circle cx="0.6729" cy="-0.3871" r="0.0200"/><circle cx="0.6729" cy="-0.3695" r="0.0200"/><circle cx="0.6729" cy="-0.3499" r="0.0200"/><circle cx="0.6729" cy="-0.3284" r="0.0200"/><circle cx="0.6729" cy="-0.3052" r="0.0200"/><circle cx="0.6729" cy="-0.2803" r="0.0200"/><circle cx="0.6729" cy="-0.2540" r="0.0200"/><circle cx="0.6729" cy="-0.2264" r="0.0200"/><circle cx="0.6729" cy="-0.1976" r="0.0200"/><circle cx="0.6729" cy="-0.1679" r="0.0200"/><circle cx="0.6729" cy="-0.1374" r="0.0200"/><circle cx="0.6729" cy="-0.1063" r="0.0200"/><circle cx="0.6729" cy="-0.0749" r="0.0200"/><circle cx="0.6729" cy="-0.0433" r="0.0200"/><circle cx="0.6729" cy="-0.0116" r="0.0200"/><circle cx="0.6729" cy="0.0198" r="0.0200"/><circle cx="0.6729" cy="0.0509" r="0.0200"/><circle cx="0.6729" cy="0.0814" r="0.0200"/><circle cx="0.6729" cy="0.1111" r="0.0200"/><circle cx="0.6729" cy="0.1398" r="0.0200"/><circle cx="0.6729" cy="0.1675" r="0.0200"/><circle cx="0.6729" cy="0.1938" r="0.0200"/><circle cx="0.6729" cy="0.2187" r="0.0200"/><circle cx="0.6729" cy="0.2419" r="0.0200"/><circle cx="0.6729" cy="0.2634" r="0.0200"/><circle cx="0.6729" cy="0.2830" r="0.0200"/><circle cx="0.6729" cy="0.3006" r="0.0200"/><circle cx="0.6729" cy="0.3161" r="0.0200"/><circle cx="0.6729" cy="0.3294" r="0.0200"/><circle cx="0.6729" cy="0.3403" r="0.0200"/><circle cx="0.6729" cy="0.3489" r="0.0200"/><circle cx="0.6729" cy="0.3551" r="0.0200"/><circle cx="0.6729" cy="0.3588" r="0.0200"/><circle cx="0.6729" cy="0.3601" r="0.0200"/><circle cx="0.6845" cy="-0.4453" r="0.0200"/><circle cx="0.6845" cy="-0.4416" r="0.0200"/><circle cx="0.6845" cy="-0.4354" r="0.0200"/><circle cx="0.6845" cy="-0.4268" r="0.0200"/><circle cx="0.6845" cy="-0.4159" r="0.0200"/><circle cx="0.6845" cy="-0.4026" r="0.0200"/><circle cx="0.6845" cy="-0.3871" r="0.0200"/><circle cx="0.6845" cy="-0.3695" r="0.0200"/><circle cx="0.6845" cy="-0.3499" r="0.0200"/><circle cx="0.6845" cy="-0.3284" r="0.0200"/><circle cx="0.6845" cy="-0.3052" r="0.0200"/><circle cx="0.6845" cy="-0.2803" r="0.0200"/><circle cx="0.6845" cy="-0.2540" r="0.0200"/><circle cx="0.6845" cy="-0.2264" r="0.0200"/><circle cx="0.6845" cy="-0.1976" r="0.0200"/><circle cx="0.6845" cy="-0.1679" r="0.0200"/><circle cx="0.6845" cy="-0.1374" r="0.0200"/><circle cx="0.6845" cy="-0.1063" r="0.0200"/><circle cx="0.6845" cy="-0.0749" r="0.0200"/><circle cx="0.6845" cy="-0.0433" r="0.0200"/><circle cx="0.6845" cy="-0.0116" r="0.0200"/><circle cx="0.6845" cy="0.0198" r="0.0200"/><circle cx="0.6845" cy="0.0509" r="0.0200"/><circle cx="0.6845" cy="0.0814" r="0.0200"/><circle cx="0.6845" cy="0.1111" r="0.0200"/><circle cx="0.6845" cy="0.1398" r="0.0200"/><circle cx="0.6845" cy="0.1675" r="0.0200"/><circle cx="0.6845" cy="0.1938" r="0.0200"/><circle cx="0.6845" cy="0.2187" r="0.0200"/><circle cx="0.6845" cy="0.2419" r="0.0200"/><circle cx="0.6845" cy="0.2634" r="0.0200"/><circle cx="0.6845" cy="0.2830" r="0.0200"/><circle cx="0.6845" cy="0.3006" r="0.0200"/><circle cx="0.6845" cy="0.3161" r="0.0200"/><circle cx="0.6845" cy="0.3294" r="0.0200"/><circle cx="0.6845" cy="0.3403" r="0.0200"/><circle cx="0.6845" cy="0.3489" r="0.0200"/><circle cx="0.6845" cy="0.3551" r="0.0200"/><circle cx="0.6845" cy="0.3588" r="0.0200"/><circle cx="0.6845" cy="0.3601" r="0.0200"/><circle cx="0.6884" cy="-0.4453" r="0.0200"/><circle cx="0.6884" cy="-0.4416" r="0.0200"/><circle cx="0.6884" cy="-0.4354" r="0.0200"/><circle cx="0.6884" cy="-0.4268" r="0.0200"/><circle cx="0.6884" cy="-0.4159" r="0.0200"/><circle cx="0.6884" cy="-0.4026" r="0.0200"/><circle cx="0.6884" cy="-0.3871" r="0.0200"/><circle cx="0.6884" cy="-0.3695" r="0.0200"/><circle cx="0.6884" cy="-0.3499" r="0.0200"/><circle cx="0.6884" cy="-0.3284" r="0.0200"/><circle cx="0.6884" cy="-0.3052" r="0.0200"/><circle cx="0.6884" cy="-0.2803" r="0.0200"/><circle cx="0.6884" cy="-0.2540" r="0.0200"/><circle cx="0.6884" cy="-0.2264" r="0.0200"/><circle cx="0.6884" cy="-0.1976" r="0.0200"/><circle cx="0.6884" cy="-0.1679" r="0.0200"/><circle cx="0.6884" cy="-0.1374" r="0.0200"/><circle cx="0.6884" cy="-0.1063" r="0.0200"/><circle cx="0.6884" cy="-0.0749" r="0.0200"/><circle cx="0.6884" cy="-0.0433" r="0.0200"/><circle cx="0.6884" cy="-0.0116" r="0.0200"/><circle cx="0.6884" cy="0.0198" r="0.0200"/><circle cx="0.6884" cy="0.0509" r="0.0200"/><circle cx="0.6884" cy="0.0814" r="0.0200"/><circle cx="0.6884" cy="0.1111" r="0.0200"/><circle cx="0.6884" cy="0.1398" r="0.0200"/><circle cx="0.6884" cy="0.1675" r="0.0200"/><circle cx="0.6884" cy="0.1938" r="0.0200"/><circle cx="0.6884" cy="0.2187" r="0.0200"/><circle cx="0.6884" cy="0.2419" r="0.0200"/><circle cx="0.6884" cy="0.2634" r="0.0200"/><circle cx="0.6884" cy="0.2830" r="0.0200"/><circle cx="0.6884" cy="0.3006" r="0.0200"/><circle cx="0.6884" cy="0.3161" r="0.0200"/><circle cx="0.6884" cy="0.3294" r="0.0200"/><circle cx="0.6884" cy="0.3403" r="0.0200"/><circle cx="0.6884" cy="0.3489" r="0.0200"/><circle cx="0.6884" cy="0.3551" r="0.0200"/><circle cx="0.6884" cy="0.3588" r="0.0200"/><circle cx="0.6884" cy="0.3601" r="0.0200"/><circle cx="0.6845" cy="-0.4453" r="0.0200"/><circle cx="0.6845" cy="-0.4416" r="0.0200"/><circle cx="0.6845" cy="-0.4354" r="0.0200"/><circle cx="0.6845" cy="-0.4268" r="0.0200"/><circle cx="0.6845" cy="-0.4159" r="0.0200"/><circle cx="0.6845" cy="-0.4026" r="0.0200"/><circle cx="0.6845" cy="-0.3871" r="0.0200"/><circle cx="0.6845" cy="-0.3695" r="0.0200"/><circle cx="0.6845" cy="-0.3499" r="0.0200"/><circle cx="0.6845" cy="-0.3284" r="0.0200"/><circle cx="0.6845" cy="-0.3052" r="0.0200"/><circle cx="0.6845" cy="-0.2803" r="0.0200"/><circle cx="0.6845" cy="-0.2540" r="0.0200"/><circle cx="0.6845" cy="-0.2264" r="0.0200"/><circle cx="0.6845" cy="-0.1976" r="0.0200"/><circle cx="0.6845" cy="-0.1679" r="0.0200"/><circle cx="0.6845" cy="-0.1374" r="0.0200"/><circle cx="0.6845" cy="-0.1063" r="0.0200"/><circle cx="0.6845" cy="-0.0749" r="0.0200"/><circle cx="0.6845" cy="-0.0433" r="0.0200"/><circle cx="0.6845" cy="-0.0116" r="0.0200"/><circle cx="0.6845" cy="0.0198" r="0.0200"/><circle cx="0.6845" cy="0.0509" r="0.0200"/><circle cx="0.6845" cy="0.0814" r="0.0200"/><circle cx="0.6845" cy="0.1111" r="0.0200"/><circle cx="0.6845" cy="0.1398" r="0.0200"/><circle cx="0.6845" cy="0.1675" r="0.0200"/><circle cx="0.6845" cy="0.1938" r="0.0200"/><circle cx="0.6845" cy="0.2187" r="0.0200"/><circle cx="0.6845" cy="0.2419" r="0.0200"/><circle cx="0.6845" cy="0.2634" r="0.0200"/><circle cx="0.6845" cy="0.2830" r="0.0200"/><circle cx="0.6845" cy="0.3006" r="0.0200"/><circle cx="0.6845" cy="0.3161" r="0.0200"/><circle cx="0.6845" cy="0.3294" r="0.0200"/><circle cx="0.6845" cy="0.3403" r="0.0200"/><circle cx="0.6845" cy="0.3489" r="0.0200"/><circle cx="0.6845" cy="0.3551" r="0.0200"/><circle cx="0.6845" cy="0.3588" r="0.0200"/><circle cx="0.6845" cy="0.3601" r="0.0200"/><circle cx="0.6729" cy="-0.4453" r="0.0200"/><circle cx="0.6729" cy="-0.4416" r="0.0200"/><circle cx="0.6729" cy="-0.4354" r="0.0200"/><circle cx="0.6729" cy="-0.4268" r="0.0200"/><circle cx="0.6729" cy="-0.4159" r="0.0200"/><circle cx="0.6729" cy="-0.4026" r="0.0200"/><circle cx="0.6729" cy="-0.3871" r="0.0200"/><circle cx="0.6729" cy="-0.3695" r="0.0200"/><circle cx="0.6729" cy="-0.3499" r="0.0200"/><circle cx="0.6729" cy="-0.3284" r="0.0200"/><circle cx="0.6729" cy="-0.3052" r="0.0200"/><circle cx="0.6729" cy="-0.2803" r="0.0200"/><circle cx="0.6729" cy="-0.2540" r="0.0200"/><circle cx="0.6729" cy="-0.2264" r="0.0200"/><circle cx="0.6729" cy="-0.1976" r="0.0200"/><circle cx="0.6729" cy="-0.1679" r="0.0200"/><circle cx="0.6729" cy="-0.1374" r="0.0200"/><circle cx="0.6729" cy="-0.1063" r="0.0200"/><circle cx="0.6729" cy="-0.0749" r="0.0200"/><circle cx="0.6729" cy="-0.0433" r="0.0200"/><circle cx="0.6729" cy="-0.0116" r="0.0200"/><circle cx="0.6729" cy="0.0198" r="0.0200"/><circle cx="0.6729" cy="0.0509" r="0.0200"/><circle cx="0.6729" cy="0.0814" r="0.0200"/><circle cx="0.6729" cy="0.1111" r="0.0200"/><circle cx="0.6729" cy="0.1398" r="0.0200"/><circle cx="0.6729" cy="0.1675" r="0.0200"/><circle cx="0.6729" cy="0.1938" r="0.0200"/><circle cx="0.6729" cy="0.2187" r="0.0200"/><circle cx="0.6729" cy="0.2419" r="0.0200"/><circle cx="0.6729" cy="0.2634" r="0.0200"/><circle cx="0.6729" cy="0.2830" r="0.0200"/><circle cx="0.6729" cy="0.3006" r="0.0200"/><circle cx="0.6729" cy="0.3161" r="0.0200"/><circle cx="0.6729" cy="0.3294" r="0.0200"/><circle cx="0.6729" cy="0.3403" r="0.0200"/><circle cx="0.6729" cy="0.3489" r="0.0200"/><circle cx="0.6729" cy="0.3551" r="0.0200"/><circle cx="0.6729" cy="0.3588" r="0.0200"/><circle cx="0.6729" cy="0.3601" r="0.0200"/><circle cx="0.6537" cy="-0.4453" r="0.0200"/><circle cx="0.6537" cy="-0.4416" r="0.0200"/><circle cx="0.6537" cy="-0.4354" r="0.0200"/><circle cx="0.6537" cy="-0.4268" r="0.0200"/><circle cx="0.6537" cy="-0.4159" r="0.0200"/><circle cx="0.6537" cy="-0.4026" r="0.0200"/><circle cx="0.6537" cy="-0.3871" r="0.0200"/><circle cx="0.6537" cy="-0.3695" r="0.0200"/><circle cx="0.6537" cy="-0.3499" r="0.0200"/><circle cx="0.6537" cy="-0.3284" r="0.0200"/><circle cx="0.6537" cy="-0.3052" r="0.0200"/><circle cx="0.6537" cy="-0.2803" r="0.0200"/><circle cx="0.6537" cy="-0.2540" r="0.0200"/><circle cx="0.6537" cy="-0.2264" r="0.0200"/><circle cx="0.6537" cy="-0.1976" r="0.0200"/><circle cx="0.6537" cy="-0.1679" r="0.0200"/><circle cx="0.6537" cy="-0.1374" r="0.0200"/><circle cx="0.6537" cy="-0.1063" r="0.0200"/><circle cx="0.6537" cy="-0.0749" r="0.0200"/><circle cx="0.6537" cy="-0.0433" r="0.0200"/><circle cx="0.6537" cy="-0.0116" r="0.0200"/><circle cx="0.6537" cy="0.0198" r="0.0200"/><circle cx="0.6537" cy="0.0509" r="0.0200"/><circle cx="0.6537" cy="0.0814" r="0.0200"/><circle cx="0.6537" cy="0.1111" r="0.0200"/><circle cx="0.6537" cy="0.1398" r="0.0200"/><circle cx="0.6537" cy="0.1675" r="0.0200"/><circle cx="0.6537" cy="0.1938" r="0.0200"/><circle cx="0.6537" cy="0.2187" r="0.0200"/><circle cx="0.6537" cy="0.2419" r="0.0200"/><circle cx="0.6537" cy="0.2634" r="0.0200"/><circle cx="0.6537" cy="0.2830" r="0.0200"/><circle cx="0.6537" cy="0.3006" r="0.0200"/><circle cx="0.6537" cy="0.3161" r="0.0200"/><circle cx="0.6537" cy="0.3294" r="0.0200"/><circle cx="0.6537" cy="0.3403" r="0.0200"/><circle cx="0.6537" cy="0.3489" r="0.0200"/><circle cx="0.6537" cy="0.3551" r="0.0200"/><circle cx="0.6537" cy="0.3588" r="0.0200"/><circle cx="0.6537" cy="0.3601" r="0.0200"/><circle cx="0.6270" cy="-0.4453" r="0.0200"/><circle cx="0.6270" cy="-0.4416" r="0.0200"/><circle cx="0.6270" cy="-0.4354" r="0.0200"/><circle cx="0.6270" cy="-0.4268" r="0.0200"/><circle cx="0.6270" cy="-0.4159" r="0.0200"/><circle cx="0.6270" cy="-0.4026" r="0.0200"/><circle cx="0.6270" cy="-0.3871" r="0.0200"/><circle cx="0.6270" cy="-0.3695" r="0.0200"/><circle cx="0.6270" cy="-0.3499" r="0.0200"/><circle cx="0.6270" cy="-0.3284" r="0.0200"/><circle cx="0.6270" cy="-0.3052" r="0.0200"/><circle cx="0.6270" cy="-0.2803" r="0.0200"/><circle cx="0.6270" cy="-0.2540" r="0.0200"/><circle cx="0.6270" cy="-0.2264" r="0.0200"/><circle cx="0.6270" cy="-0.1976" r="0.0200"/><circle cx="0.6270" cy="-0.1679" r="0.0200"/><circle cx="0.6270" cy="-0.1374" r="0.0200"/><circle cx="0.6270" cy="-0.1063" r="0.0200"/><circle cx="0.6270" cy="-0.0749" r="0.0200"/><circle cx="0.6270" cy="-0.0433" r="0.0200"/><circle cx="0.6270" cy="-0.0116" r="0.0200"/><circle cx="0.6270" cy="0.0198" r="0.0200"/><circle cx="0.6270" cy="0.0509" r="0.0200"/><circle cx="0.6270" cy="0.0814" r="0.0200"/><circle cx="0.6270" cy="0.1111" r="0.0200"/><circle cx="0.6270" cy="0.1398" r="0.0200"/><circle cx="0.6270" cy="0.1675" r="0.0200"/><circle cx="0.6270" cy="0.1938" r="0.0200"/><circle cx="0.6270" cy="0.2187" r="0.0200"/><circle cx="0.6270" cy="0.2419" r="0.0200"/><circle cx="0.6270" cy="0.2634" r="0.0200"/><circle cx="0.6270" cy="0.2830" r="0.0200"/><circle cx="0.6270" cy="0.3006" r="0.0200"/><circle cx="0.6270" cy="0.3161" r="0.0200"/><circle cx="0.6270" cy="0.3294" r="0.0200"/><circle cx="0.6270" cy="0.3403" r="0.0200"/><circle cx="0.6270" cy="0.3489" r="0.0200"/><circle cx="0.6270" cy="0.3551" r="0.0200"/><circle cx="0.6270" cy="0.3588" r="0.0200"/><circle cx="0.6270" cy="0.3601" r="0.0200"/><circle cx="0.5929" cy="-0.4453" r="0.0200"/><circle cx="0.5929" cy="-0.4416" r="0.0200"/><circle cx="0.5929" cy="-0.4354" r="0.0200"/><circle cx="0.5929" cy="-0.4268" r="0.0200"/><circle cx="0.5929" cy="-0.4159" r="0.0200"/><circle cx="0.5929" cy="-0.4026" r="0.0200"/><circle cx="0.5929" cy="-0.3871" r="0.0200"/><circle cx="0.5929" cy="-0.3695" r="0.0200"/><circle cx="0.5929" cy="-0.3499" r="0.0200"/><circle cx="0.5929" cy="-0.3284" r="0.0200"/><circle cx="0.5929" cy="-0.3052" r="0.0200"/><circle cx="0.5929" cy="-0.2803" r="0.0200"/><circle cx="0.5929" cy="-0.2540" r="0.0200"/><circle cx="0.5929" cy="-0.2264" r="0.0200"/><circle cx="0.5929" cy="-0.1976" r="0.0200"/><circle cx="0.5929" cy="-0.1679" r="0.0200"/><circle cx="0.5929" cy="-0.1374" r="0.0200"/><circle cx="0.5929" cy="-0.1063" r="0.0200"/><circle cx="0.5929" cy="-0.0749" r="0.0200"/><circle cx="0.5929" cy="-0.0433" r="0.0200"/><circle cx="0.5929" cy="-0.0116" r="0.0200"/><circle cx="0.5929" cy="0.0198" r="0.0200"/><circle cx="0.5929" cy="0.0509" r="0.0200"/><circle cx="0.5929" cy="0.0814" r="0.0200"/><circle cx="0.5929" cy="0.1111" r="0.0200"/><circle cx="0.5929" cy="0.1398" r="0.0200"/><circle cx="0.5929" cy="0.1675" r="0.0200"/><circle cx="0.5929" cy="0.1938" r="0.0200"/><circle cx="0.5929" cy="0.2187" r="0.0200"/><circle cx="0.5929" cy="0.2419" r="0.0200"/><circle cx="0.5929" cy="0.2634" r="0.0200"/><circle cx="0.5929" cy="0.2830" r="0.0200"/><circle cx="0.5929" cy="0.3006" r="0.0200"/><circle cx="0.5929" cy="0.3161" r="0.0200"/><circle cx="0.5929" cy="0.3294" r="0.0200"/><circle cx="0.5929" cy="0.3403" r="0.0200"/><circle cx="0.5929" cy="0.3489" r="0.0200"/><circle cx="0.5929" cy="0.3551" r="0.0200"/><circle cx="0.5929" cy="0.3588" r="0.0200"/><circle cx="0.5929" cy="0.3601" r="0.0200"/><circle cx="0.5517" cy="-0.4453" r="0.0200"/><circle cx="0.5517" cy="-0.4416" r="0.0200"/><circle cx="0.5517" cy="-0.4354" r="0.0200"/><circle cx="0.5517" cy="-0.4268" r="0.0200"/><circle cx="0.5517" cy="-0.4159" r="0.0200"/><circle cx="0.5517" cy="-0.4026" r="0.0200"/><circle cx="0.5517" cy="-0.3871" r="0.0200"/><circle cx="0.5517" cy="-0.3695" r="0.0200"/><circle cx="0.5517" cy="-0.3499" r="0.0200"/><circle cx="0.5517" cy="-0.3284" r="0.0200"/><circle cx="0.5517" cy="-0.3052" r="0.0200"/><circle cx="0.5517" cy="-0.2803" r="0.0200"/><circle cx="0.5517" cy="-0.2540" r="0.0200"/><circle cx="0.5517" cy="-0.2264" r="0.0200"/><circle cx="0.5517" cy="-0.1976" r="0.0200"/><circle cx="0.5517" cy="-0.1679" r="0.0200"/><circle cx="0.5517" cy="-0.1374" r="0.0200"/><circle cx="0.5517" cy="-0.1063" r="0.0200"/><circle cx="0.5517" cy="-0.0749" r="0.0200"/><circle cx="0.5517" cy="-0.0433" r="0.0200"/><circle cx="0.5517" cy="-0.0116" r="0.0200"/><circle cx="0.5517" cy="0.0198" r="0.0200"/><circle cx="0.5517" cy="0.0509" r="0.0200"/><circle cx="0.5517" cy="0.0814" r="0.0200"/><circle cx="0.5517" cy="0.1111" r="0.0200"/><circle cx="0.5517" cy="0.1398" r="0.0200"/><circle cx="0.5517" cy="0.1675" r="0.0200"/><circle cx="0.5517" cy="0.1938" r="0.0200"/><circle cx="0.5517" cy="0.2187" r="0.0200"/><circle cx="0.5517" cy="0.2419" r="0.0200"/><circle cx="0.5517" cy="0.2634" r="0.0200"/><circle cx="0.5517" cy="0.2830" r="0.0200"/><circle cx="0.5517" cy="0.3006" r="0.0200"/><circle cx="0.5517" cy="0.3161" r="0.0200"/><circle cx="0.5517" cy="0.3294" r="0.0200"/><circle cx="0.5517" cy="0.3403" r="0.0200"/><circle cx="0.5517" cy="0.3489" r="0.0200"/><circle cx="0.5517" cy="0.3551" r="0.0200"/><circle cx="0.5517" cy="0.3588" r="0.0200"/><circle cx="0.5517" cy="0.3601" r="0.0200"/><circle cx="0.5036" cy="-0.4453" r="0.0200"/><circle cx="0.5036" cy="-0.4416" r="0.0200"/><circle cx="0.5036" cy="-0.4354" r="0.0200"/><circle cx="0.5036" cy="-0.4268" r="0.0200"/><circle cx="0.5036" cy="-0.4159" r="0.0200"/><circle cx="0.5036" cy="-0.4026" r="0.0200"/><circle cx="0.5036" cy="-0.3871" r="0.0200"/><circle cx="0.5036" cy="-0.3695" r="0.0200"/><circle cx="0.5036" cy="-0.3499" r="0.0200"/><circle cx="0.5036" cy="-0.3284" r="0.0200"/><circle cx="0.5036" cy="-0.3052" r="0.0200"/><circle cx="0.5036" cy="-0.2803" r="0.0200"/><circle cx="0.5036" cy="-0.2540" r="0.0200"/><circle cx="0.5036" cy="-0.2264" r="0.0200"/><circle cx="0.5036" cy="-0.1976" r="0.0200"/><circle cx="0.5036" cy="-0.1679" r="0.0200"/><circle cx="0.5036" cy="-0.1374" r="0.0200"/><circle cx="0.5036" cy="-0.1063" r="0.0200"/><circle cx="0.5036" cy="-0.0749" r="0.0200"/><circle cx="0.5036" cy="-0.0433" r="0.0200"/><circle cx="0.5036" cy="-0.0116" r="0.0200"/><circle cx="0.5036" cy="0.0198" r="0.0200"/><circle cx="0.5036" cy="0.0509" r="0.0200"/><circle cx="0.5036" cy="0.0814" r="0.0200"/><circle cx="0.5036" cy="0.1111" r="0.0200"/><circle cx="0.5036" cy="0.1398" r="0.0200"/><circle cx="0.5036" cy="0.1675" r="0.0200"/><circle cx="0.5036" cy="0.1938" r="0.0200"/><circle cx="0.5036" cy="0.2187" r="0.0200"/><circle cx="0.5036" cy="0.2419" r="0.0200"/><circle cx="0.5036" cy="0.2634" r="0.0200"/><circle cx="0.5036" cy="0.2830" r="0.0200"/><circle cx="0.5036" cy="0.3006" r="0.0200"/><circle cx="0.5036" cy="0.3161" r="0.0200"/><circle cx="0.5036" cy="0.3294" r="0.0200"/><circle cx="0.5036" cy="0.3403" r="0.0200"/><circle cx="0.5036" cy="0.3489" r="0.0200"/><circle cx="0.5036" cy="0.3551" r="0.0200"/><circle cx="0.5036" cy="0.3588" r="0.0200"/><circle cx="0.5036" cy="0.3601" r="0.0200"/><circle cx="0.4489" cy="-0.4453" r="0.0200"/><circle cx="0.4489" cy="-0.4416" r="0.0200"/><circle cx="0.4489" cy="-0.4354" r="0.0200"/><circle cx="0.4489" cy="-0.4268" r="0.0200"/><circle cx="0.4489" cy="-0.4159" r="0.0200"/><circle cx="0.4489" cy="-0.4026" r="0.0200"/><circle cx="0.4489" cy="-0.3871" r="0.0200"/><circle cx="0.4489" cy="-0.3695" r="0.0200"/><circle cx="0.4489" cy="-0.3499" r="0.0200"/><circle cx="0.4489" cy="-0.3284" r="0.0200"/><circle cx="0.4489" cy="-0.3052" r="0.0200"/><circle cx="0.4489" cy="-0.2803" r="0.0200"/><circle cx="0.4489" cy="-0.2540" r="0.0200"/><circle cx="0.4489" cy="-0.2264" r="0.0200"/><circle cx="0.4489" cy="-0.1976" r="0.0200"/><circle cx="0.4489" cy="-0.1679" r="0.0200"/><circle cx="0.4489" cy="-0.1374" r="0.0200"/><circle cx="0.4489" cy="-0.1063" r="0.0200"/><circle cx="0.4489" cy="-0.0749" r="0.0200"/><circle cx="0.4489" cy="-0.0433" r="0.0200"/><circle cx="0.4489" cy="-0.0116" r="0.0200"/><circle cx="0.4489" cy="0.0198" r="0.0200"/><circle cx="0.4489" cy="0.0509" r="0.0200"/><circle cx="0.4489" cy="0.0814" r="0.0200"/><circle cx="0.4489" cy="0.1111" r="0.0200"/><circle cx="0.4489" cy="0.1398" r="0.0200"/><circle cx="0.4489" cy="0.1675" r="0.0200"/><circle cx="0.4489" cy="0.1938" r="0.0200"/><circle cx="0.4489" cy="0.2187" r="0.0200"/><circle cx="0.4489" cy="0.2419" r="0.0200"/><circle cx="0.4489" cy="0.2634" r="0.0200"/><circle cx="0.4489" cy="0.2830" r="0.0200"/><circle cx="0.4489" cy="0.3006" r="0.0200"/><circle cx="0.4489" cy="0.3161" r="0.0200"/><circle cx="0.4489" cy="0.3294" r="0.0200"/><circle cx="0.4489" cy="0.3403" r="0.0200"/><circle cx="0.4489" cy="0.3489" r="0.0200"/><circle cx="0.4489" cy="0.3551" r="0.0200"/><circle cx="0.4489" cy="0.3588" r="0.0200"/><circle cx="0.4489" cy="0.3601" r="0.0200"/><circle cx="0.3880" cy="-0.4453" r="0.0200"/><circle cx="0.3880" cy="-0.4416" r="0.0200"/><circle cx="0.3880" cy="-0.4354" r="0.0200"/><circle cx="0.3880" cy="-0.4268" r="0.0200"/><circle cx="0.3880" cy="-0.4159" r="0.0200"/><circle cx="0.3880" cy="-0.4026" r="0.0200"/><circle cx="0.3880" cy="-0.3871" r="0.0200"/><circle cx="0.3880" cy="-0.3695" r="0.0200"/><circle cx="0.3880" cy="-0.3499" r="0.0200"/><circle cx="0.3880" cy="-0.3284" r="0.0200"/><circle cx="0.3880" cy="-0.3052" r="0.0200"/><circle cx="0.3880" cy="-0.2803" r="0.0200"/><circle cx="0.3880" cy="-0.2540" r="0.0200"/><circle cx="0.3880" cy="-0.2264" r="0.0200"/><circle cx="0.3880" cy="-0.1976" r="0.0200"/><circle cx="0.3880" cy="-0.1679" r="0.0200"/><circle cx="0.3880" cy="-0.1374" r="0.0200"/><circle cx="0.3880" cy="-0.1063" r="0.0200"/><circle cx="0.3880" cy="-0.0749" r="0.0200"/><circle cx="0.3880" cy="-0.0433" r="0.0200"/><circle cx="0.3880" cy="-0.0116" r="0.0200"/><circle cx="0.3880" cy="0.0198" r="0.0200"/><circle cx="0.3880" cy="0.0509" r="0.0200"/><circle cx="0.3880" cy="0.0814" r="0.0200"/><circle cx="0.3880" cy="0.1111" r="0.0200"/><circle cx="0.3880" cy="0.1398" r="0.0200"/><circle cx="0.3880" cy="0.1675" r="0.0200"/><circle cx="0.3880" cy="0.1938" r="0.0200"/><circle cx="0.3880" cy="0.2187" r="0.0200"/><circle cx="0.3880" cy="0.2419" r="0.0200"/><circle cx="0.3880" cy="0.2634" r="0.0200"/><circle cx="0.3880" cy="0.2830" r="0.0200"/><circle cx="0.3880" cy="0.3006" r="0.0200"/><circle cx="0.3880" cy="0.3161" r="0.0200"/><circle cx="0.3880" cy="0.3294" r="0.0200"/><circle cx="0.3880" cy="0.3403" r="0.0200"/><circle cx="0.3880" cy="0.3489" r="0.0200"/><circle cx="0.3880" cy="0.3551" r="0.0200"/><circle cx="0.3880" cy="0.3588" r="0.0200"/><circle cx="0.3880" cy="0.3601" r="0.0200"/><circle cx="0.3212" cy="-0.4453" r="0.0200"/><circle cx="0.3212" cy="-0.4416" r="0.0200"/><circle cx="0.3212" cy="-0.4354" r="0.0200"/><circle cx="0.3212" cy="-0.4268" r="0.0200"/><circle cx="0.3212" cy="-0.4159" r="0.0200"/><circle cx="0.3212" cy="-0.4026" r="0.0200"/><circle cx="0.3212" cy="-0.3871" r="0.0200"/><circle cx="0.3212" cy="-0.3695" r="0.0200"/><circle cx="0.3212" cy="-0.3499" r="0.0200"/><circle cx="0.3212" cy="-0.3284" r="0.0200"/><circle cx="0.3212" cy="-0.3052" r="0.0200"/><circle cx="0.3212" cy="-0.2803" r="0.0200"/><circle cx="0.3212" cy="-0.2540" r="0.0200"/><circle cx="0.3212" cy="-0.2264" r="0.0200"/><circle cx="0.3212" cy="-0.1976" r="0.0200"/><circle cx="0.3212" cy="-0.1679" r="0.0200"/><circle cx="0.3212" cy="-0.1374" r="0.0200"/><circle cx="0.3212" cy="-0.1063" r="0.0200"/><circle cx="0.3212" cy="-0.0749" r="0.0200"/><circle cx="0.3212" cy="-0.0433" r="0.0200"/><circle cx="0.3212" cy="-0.0116" r="0.0200"/><circle cx="0.3212" cy="0.0198" r="0.0200"/><circle cx="0.3212" cy="0.0509" r="0.0200"/><circle cx="0.3212" cy="0.0814" r="0.0200"/><circle cx="0.3212" cy="0.1111" r="0.0200"/><circle cx="0.3212" cy="0.1398" r="0.0200"/><circle cx="0.3212" cy="0.1675" r="0.0200"/><circle cx="0.3212" cy="0.1938" r="0.0200"/><circle cx="0.3212" cy="0.2187" r="0.0200"/><circle cx="0.3212" cy="0.2419" r="0.0200"/><circle cx="0.3212" cy="0.2634" r="0.0200"/><circle cx="0.3212" cy="0.2830" r="0.0200"/><circle cx="0.3212" cy="0.3006" r="0.0200"/><circle cx="0.3212" cy="0.3161" r="0.0200"/><circle cx="0.3212" cy="0.3294" r="0.0200"/><circle cx="0.3212" cy="0.3403" r="0.0200"/><circle cx="0.3212" cy="0.3489" r="0.0200"/><circle cx="0.3212" cy="0.3551" r="0.0200"/><circle cx="0.3212" cy="0.3588" r="0.0200"/><circle cx="0.3212" cy="0.3601" r="0.0200"/><circle cx="0.2489" cy="-0.4453" r="0.0200"/><circle cx="0.2489" cy="-0.4416" r="0.0200"/><circle cx="0.2489" cy="-0.4354" r="0.0200"/><circle cx="0.2489" cy="-0.4268" r="0.0200"/><circle cx="0.2489" cy="-0.4159" r="0.0200"/><circle cx="0.2489" cy="-0.4026" r="0.0200"/><circle cx="0.2489" cy="-0.3871" r="0.0200"/><circle cx="0.2489" cy="-0.3695" r="0.0200"/><circle cx="0.2489" cy="-0.3499" r="0.0200"/><circle cx="0.2489" cy="-0.3284" r="0.0200"/><circle cx="0.2489" cy="-0.3052" r="0.0200"/><circle cx="0.2489" cy="-0.2803" r="0.0200"/><circle cx="0.2489" cy="-0.2540" r="0.0200"/><circle cx="0.2489" cy="-0.2264" r="0.0200"/><circle cx="0.2489" cy="-0.1976" r="0.0200"/><circle cx="0.2489" cy="-0.1679" r="0.0200"/><circle cx="0.2489" cy="-0.1374" r="0.0200"/><circle cx="0.2489" cy="-0.1063" r="0.0200"/><circle cx="0.2489" cy="-0.0749" r="0.0200"/><circle cx="0.2489" cy="-0.0433" r="0.0200"/><circle cx="0.2489" cy="-0.0116" r="0.0200"/><circle cx="0.2489" cy="0.0198" r="0.0200"/><circle cx="0.2489" cy="0.0509" r="0.0200"/><circle cx="0.2489" cy="0.0814" r="0.0200"/><circle cx="0.2489" cy="0.1111" r="0.0200"/><circle cx="0.2489" cy="0.1398" r="0.0200"/><circle cx="0.2489" cy="0.1675" r="0.0200"/><circle cx="0.2489" cy="0.1938" r="0.0200"/><circle cx="0.2489" cy="0.2187" r="0.0200"/><circle cx="0.2489" cy="0.2419" r="0.0200"/><circle cx="0.2489" cy="0.2634" r="0.0200"/><circle cx="0.2489" cy="0.2830" r="0.0200"/><circle cx="0.2489" cy="0.3006" r="0.0200"/><circle cx="0.2489" cy="0.3161" r="0.0200"/><circle cx="0.2489" cy="0.3294" r="0.0200"/><circle cx="0.2489" cy="0.3403" r="0.0200"/><circle cx="0.2489" cy="0.3489" r="0.0200"/><circle cx="0.2489" cy="0.3551" r="0.0200"/><circle cx="0.2489" cy="0.3588" r="0.0200"/><circle cx="0.2489" cy="0.3601" r="0.0200"/><circle cx="0.1716" cy="-0.4453" r="0.0200"/><circle cx="0.1716" cy="-0.4416" r="0.0200"/><circle cx="0.1716" cy="-0.4354" r="0.0200"/><circle cx="0.1716" cy="-0.4268" r="0.0200"/><circle cx="0.1716" cy="-0.4159" r="0.0200"/><circle cx="0.1716" cy="-0.4026" r="0.0200"/><circle cx="0.1716" cy="-0.3871" r="0.0200"/><circle cx="0.1716" cy="-0.3695" r="0.0200"/><circle cx="0.1716" cy="-0.3499" r="0.0200"/><circle cx="0.1716" cy="-0.3284" r="0.0200"/><circle cx="0.1716" cy="-0.3052" r="0.0200"/><circle cx="0.1716" cy="-0.2803" r="0.0200"/><circle cx="0.1716" cy="-0.2540" r="0.0200"/><circle cx="0.1716" cy="-0.2264" r="0.0200"/><circle cx="0.1716" cy="-0.1976" r="0.0200"/><circle cx="0.1716" cy="-0.1679" r="0.0200"/><circle cx="0.1716" cy="-0.1374" r="0.0200"/><circle cx="0.1716" cy="-0.1063" r="0.0200"/><circle cx="0.1716" cy="-0.0749" r="0.0200"/><circle cx="0.1716" cy="-0.0433" r="0.0200"/><circle cx="0.1716" cy="-0.0116" r="0.0200"/><circle cx="0.1716" cy="0.0198" r="0.0200"/><circle cx="0.1716" cy="0.0509" r="0.0200"/><circle cx="0.1716" cy="0.0814" r="0.0200"/><circle cx="0.1716" cy="0.1111" r="0.0200"/><circle cx="0.1716" cy="0.1398" r="0.0200"/><circle cx="0.1716" cy="0.1675" r="0.0200"/><circle cx="0.1716" cy="0.1938" r="0.0200"/><circle cx="0.1716" cy="0.2187" r="0.0200"/><circle cx="0.1716" cy="0.2419" r="0.0200"/><circle cx="0.1716" cy="0.2634" r="0.0200"/><circle cx="0.1716" cy="0.2830" r="0.0200"/><circle cx="0.1716" cy="0.3006" r="0.0200"/><circle cx="0.1716" cy="0.3161" r="0.0200"/><circle cx="0.1716" cy="0.3294" r="0.0200"/><circle cx="0.1716" cy="0.3403" r="0.0200"/><circle cx="0.1716" cy="0.3489" r="0.0200"/><circle cx="0.1716" cy="0.3551" r="0.0200"/><circle cx="0.1716" cy="0.3588" r="0.0200"/><circle cx="0.1716" cy="0.3601" r="0.0200"/><circle cx="0.0897" cy="-0.4453" r="0.0200"/><circle cx="0.0897" cy="-0.4416" r="0.0200"/><circle cx="0.0897" cy="-0.4354" r="0.0200"/><circle cx="0.0897" cy="-0.4268" r="0.0200"/><circle cx="0.0897" cy="-0.4159" r="0.0200"/><circle cx="0.0897" cy="-0.4026" r="0.0200"/><circle cx="0.0897" cy="-0.3871" r="0.0200"/><circle cx="0.0897" cy="-0.3695" r="0.0200"/><circle cx="0.0897" cy="-0.3499" r="0.0200"/><circle cx="0.0897" cy="-0.3284" r="0.0200"/><circle cx="0.0897" cy="-0.3052" r="0.0200"/><circle cx="0.0897" cy="-0.2803" r="0.0200"/><circle cx="0.0897" cy="-0.2540" r="0.0200"/><circle cx="0.0897" cy="-0.2264" r="0.0200"/><circle cx="0.0897" cy="-0.1976" r="0.0200"/><circle cx="0.0897" cy="-0.1679" r="0.0200"/><circle cx="0.0897" cy="-0.1374" r="0.0200"/><circle cx="0.0897" cy="-0.1063" r="0.0200"/><circle cx="0.0897" cy="-0.0749" r="0.0200"/><circle cx="0.0897" cy="-0.0433" r="0.0200"/><circle cx="0.0897" cy="-0.0116" r="0.0200"/><circle cx="0.0897" cy="0.0198" r="0.0200"/><circle cx="0.0897" cy="0.0509" r="0.0200"/><circle cx="0.0897" cy="0.0814" r="0.0200"/><circle cx="0.0897" cy="0.1111" r="0.0200"/><circle cx="0.0897" cy="0.1398" r="0.0200"/><circle cx="0.0897" cy="0.1675" r="0.0200"/><circle cx="0.0897" cy="0.1938" r="0.0200"/><circle cx="0.0897" cy="0.2187" r="0.0200"/><circle cx="0.0897" cy="0.2419" r="0.0200"/><circle cx="0.0897" cy="0.2634" r="0.0200"/><circle cx="0.0897" cy="0.2830" r="0.0200"/><circle cx="0.0897" cy="0.3006" r="0.0200"/><circle cx="0.0897" cy="0.3161" r="0.0200"/><circle cx="0.0897" cy="0.3294" r="0.0200"/><circle cx="0.0897" cy="0.3403" r="0.0200"/><circle cx="0.0897" cy="0.3489" r="0.0200"/><circle cx="0.0897" cy="0.3551" r="0.0200"/><circle cx="0.0897" cy="0.3588" r="0.0200"/><circle cx="0.0897" cy="0.3601" r="0.0200"/><circle cx="0.0039" cy="-0.4453" r="0.0200"/><circle cx="0.0039" cy="-0.4416" r="0.0200"/><circle cx="0.0039" cy="-0.4354" r="0.0200"/><circle cx="0.0039" cy="-0.4268" r="0.0200"/><circle cx="0.0039" cy="-0.4159" r="0.0200"/><circle cx="0.0039" cy="-0.4026" r="0.0200"/><circle cx="0.0039" cy="-0.3871" r="0.0200"/><circle cx="0.0039" cy="-0.3695" r="0.0200"/><circle cx="0.0039" cy="-0.3499" r="0.0200"/><circle cx="0.0039" cy="-0.3284" r="0.0200"/><circle cx="0.0039" cy="-0.3052" r="0.0200"/><circle cx="0.0039" cy="-0.2803" r="0.0200"/><circle cx="0.0039" cy="-0.2540" r="0.0200"/><circle cx="0.0039" cy="-0.2264" r="0.0200"/><circle cx="0.0039" cy="-0.1976" r="0.0200"/><circle cx="0.0039" cy="-0.1679" r="0.0200"/><circle cx="0.0039" cy="-0.1374" r="0.0200"/><circle cx="0.0039" cy="-0.1063" r="0.0200"/><circle cx="0.0039" cy="-0.0749" r="0.0200"/><circle cx="0.0039" cy="-0.0433" r="0.0200"/><circle cx="0.0039" cy="-0.0116" r="0.0200"/><circle cx="0.0039" cy="0.0198" r="0.0200"/><circle cx="0.0039" cy="0.0509" r="0.0200"/><circle cx="0.0039" cy="0.0814" r="0.0200"/><circle cx="0.0039" cy="0.1111" r="0.0200"/><circle cx="0.0039" cy="0.1398" r="0.0200"/><circle cx="0.0039" cy="0.1675" r="0.0200"/><circle cx="0.0039" cy="0.1938" r="0.0200"/><circle cx="0.0039" cy="0.2187" r="0.0200"/><circle cx="0.0039" cy="0.2419" r="0.0200"/><circle cx="0.0039" cy="0.2634" r="0.0200"/><circle cx="0.0039" cy="0.2830" r="0.0200"/><circle cx="0.0039" cy="0.3006" r="0.0200"/><circle cx="0.0039" cy="0.3161" r="0.0200"/><circle cx="0.0039" cy="0.3294" r="0.0200"/><circle cx="0.0039" cy="0.3403" r="0.0200"/><circle cx="0.0039" cy="0.3489" r="0.0200"/><circle cx="0.0039" cy="0.3551" r="0.0200"/><circle cx="0.0039" cy="0.3588" r="0.0200"/><circle cx="0.0039" cy="0.3601" r="0.0200"/><circle cx="-0.0855" cy="-0.4453" r="0.0200"/><circle cx="-0.0855" cy="-0.4416" r="0.0200"/><circle cx="-0.0855" cy="-0.4354" r="0.0200"/><circle cx="-0.0855" cy="-0.4268" r="0.0200"/><circle cx="-0.0855" cy="-0.4159" r="0.0200"/><circle cx="-0.0855" cy="-0.4026" r="0.0200"/><circle cx="-0.0855" cy="-0.3871" r="0.0200"/><circle cx="-0.0855" cy="-0.3695" r="0.0200"/><circle cx="-0.0855" cy="-0.3499" r="0.0200"/><circle cx="-0.0855" cy="-0.3284" r="0.0200"/><circle cx="-0.0855" cy="-0.3052" r="0.0200"/><circle cx="-0.0855" cy="-0.2803" r="0.0200"/><circle cx="-0.0855" cy="-0.2540" r="0.0200"/><circle cx="-0.0855" cy="-0.2264" r="0.0200"/><circle cx="-0.0855" cy="-0.1976" r="0.0200"/><circle cx="-0.0855" cy="-0.1679" r="0.0200"/><circle cx="-0.0855" cy="-0.1374" r="0.0200"/><circle cx="-0.0855" cy="-0.1063" r="0.0200"/><circle cx="-0.0855" cy="-0.0749" r="0.0200"/><circle cx="-0.0855" cy="-0.0433" r="0.0200"/><circle cx="-0.0855" cy="-0.0116" r="0.0200"/><circle cx="-0.0855" cy="0.0198" r="0.0200"/><circle cx="-0.0855" cy="0.0509" r="0.0200"/><circle cx="-0.0855" cy="0.0814" r="0.0200"/><circle cx="-0.0855" cy="0.1111" r="0.0200"/><circle cx="-0.0855" cy="0.1398" r="0.0200"/><circle cx="-0.0855" cy="0.1675" r="0.0200"/><circle cx="-0.0855" cy="0.1938" r="0.0200"/><circle cx="-0.0855" cy="0.2187" r="0.0200"/><circle cx="-0.0855" cy="0.2419" r="0.0200"/><circle cx="-0.0855" cy="0.2634" r="0.0200"/><circle cx="-0.0855" cy="0.2830" r="0.0200"/><circle cx="-0.0855" cy="0.3006" r="0.0200"/><circle cx="-0.0855" cy="0.3161" r="0.0200"/><circle cx="-0.0855" cy="0.3294" r="0.0200"/><circle cx="-0.0855" cy="0.3403" r="0.0200"/><circle cx="-0.0855" cy="0.3489" r="0.0200"/><circle cx="-0.0855" cy="0.3551" r="0.0200"/><circle cx="-0.0855" cy="0.3588" r="0.0200"/><circle cx="-0.0855" cy="0.3601" r="0.0200"/><circle cx="-0.1779" cy="-0.4453" r="0.0200"/><circle cx="-0.1779" cy="-0.4416" r="0.0200"/><circle cx="-0.1779" cy="-0.4354" r="0.0200"/><circle cx="-0.1779" cy="-0.4268" r="0.0200"/><circle cx="-0.1779" cy="-0.4159" r="0.0200"/><circle cx="-0.1779" cy="-0.4026" r="0.0200"/><circle cx="-0.1779" cy="-0.3871" r="0.0200"/><circle cx="-0.1779" cy="-0.3695" r="0.0200"/><circle cx="-0.1779" cy="-0.3499" r="0.0200"/><circle cx="-0.1779" cy="-0.3284" r="0.0200"/><circle cx="-0.1779" cy="-0.3052" r="0.0200"/><circle cx="-0.1779" cy="-0.2803" r="0.0200"/><circle cx="-0.1779" cy="-0.2540" r="0.0200"/><circle cx="-0.1779" cy="-0.2264" r="0.0200"/><circle cx="-0.1779" cy="-0.1976" r="0.0200"/><circle cx="-0.1779" cy="-0.1679" r="0.0200"/><circle cx="-0.1779" cy="-0.1374" r="0.0200"/><circle cx="-0.1779" cy="-0.1063" r="0.0200"/><circle cx="-0.1779" cy="-0.0749" r="0.0200"/><circle cx="-0.1779" cy="-0.0433" r="0.0200"/><circle cx="-0.1779" cy="-0.0116" r="0.0200"/><circle cx="-0.1779" cy="0.0198" r="0.0200"/><circle cx="-0.1779" cy="0.0509" r="0.0200"/><circle cx="-0.1779" cy="0.0814" r="0.0200"/><circle cx="-0.1779" cy="0.1111" r="0.0200"/><circle cx="-0.1779" cy="0.1398" r="0.0200"/><circle cx="-0.1779" cy="0.1675" r="0.0200"/><circle cx="-0.1779" cy="0.1938" r="0.0200"/><circle cx="-0.1779" cy="0.2187" r="0.0200"/><circle cx="-0.1779" cy="0.2419" r="0.0200"/><circle cx="-0.1779" cy="0.2634" r="0.0200"/><circle cx="-0.1779" cy="0.2830" r="0.0200"/><circle cx="-0.1779" cy="0.3006" r="0.0200"/><circle cx="-0.1779" cy="0.3161" r="0.0200"/><circle cx="-0.1779" cy="0.3294" r="0.0200"/><circle cx="-0.1779" cy="0.3403" r="0.0200"/><circle cx="-0.1779" cy="0.3489" r="0.0200"/><circle cx="-0.1779" cy="0.3551" r="0.0200"/><circle cx="-0.1779" cy="0.3588" r="0.0200"/><circle cx="-0.1779" cy="0.3601" r="0.0200"/><circle cx="-0.2726" cy="-0.4453" r="0.0200"/><circle cx="-0.2726" cy="-0.4416" r="0.0200"/><circle cx="-0.2726" cy="-0.4354" r="0.0200"/><circle cx="-0.2726" cy="-0.4268" r="0.0200"/><circle cx="-0.2726" cy="-0.4159" r="0.0200"/><circle cx="-0.2726" cy="-0.4026" r="0.0200"/><circle cx="-0.2726" cy="-0.3871" r="0.0200"/><circle cx="-0.2726" cy="-0.3695" r="0.0200"/><circle cx="-0.2726" cy="-0.3499" r="0.0200"/><circle cx="-0.2726" cy="-0.3284" r="0.0200"/><circle cx="-0.2726" cy="-0.3052" r="0.0200"/><circle cx="-0.2726" cy="-0.2803" r="0.0200"/><circle cx="-0.2726" cy="-0.2540" r="0.0200"/><circle cx="-0.2726" cy="-0.2264" r="0.0200"/><circle cx="-0.2726" cy="-0.1976" r="0.0200"/><circle cx="-0.2726" cy="-0.1679" r="0.0200"/><circle cx="-0.2726" cy="-0.1374" r="0.0200"/><circle cx="-0.2726" cy="-0.1063" r="0.0200"/><circle cx="-0.2726" cy="-0.0749" r="0.0200"/><circle cx="-0.2726" cy="-0.0433" r="0.0200"/><circle cx="-0.2726" cy="-0.0116" r="0.0200"/><circle cx="-0.2726" cy="0.0198" r="0.0200"/><circle cx="-0.2726" cy="0.0509" r="0.0200"/><circle cx="-0.2726" cy="0.0814" r="0.0200"/><circle cx="-0.2726" cy="0.1111" r="0.0200"/><circle cx="-0.2726" cy="0.1398" r="0.0200"/><circle cx="-0.2726" cy="0.1675" r="0.0200"/><circle cx="-0.2726" cy="0.1938" r="0.0200"/><circle cx="-0.2726" cy="0.2187" r="0.0200"/><circle cx="-0.2726" cy="0.2419" r="0.0200"/><circle cx="-0.2726" cy="0.2634" r="0.0200"/><circle cx="-0.2726" cy="0.2830" r="0.0200"/><circle cx="-0.2726" cy="0.3006" r="0.0200"/><circle cx="-0.2726" cy="0.3161" r="0.0200"/><circle cx="-0.2726" cy="0.3294" r="0.0200"/><circle cx="-0.2726" cy="0.3403" r="0.0200"/><circle cx="-0.2726" cy="0.3489" r="0.0200"/><circle cx="-0.2726" cy="0.3551" r="0.0200"/><circle cx="-0.2726" cy="0.3588" r="0.0200"/><circle cx="-0.2726" cy="0.3601" r="0.0200"/><circle cx="-0.3692" cy="-0.4453" r="0.0200"/><circle cx="-0.3692" cy="-0.4416" r="0.0200"/><circle cx="-0.3692" cy="-0.4354" r="0.0200"/><circle cx="-0.3692" cy="-0.4268" r="0.0200"/><circle cx="-0.3692" cy="-0.4159" r="0.0200"/><circle cx="-0.3692" cy="-0.4026" r="0.0200"/><circle cx="-0.3692" cy="-0.3871" r="0.0200"/><circle cx="-0.3692" cy="-0.3695" r="0.0200"/><circle cx="-0.3692" cy="-0.3499" r="0.0200"/><circle cx="-0.3692" cy="-0.3284" r="0.0200"/><circle cx="-0.3692" cy="-0.3052" r="0.0200"/><circle cx="-0.3692" cy="-0.2803" r="0.0200"/><circle cx="-0.3692" cy="-0.2540" r="0.0200"/><circle cx="-0.3692" cy="-0.2264" r="0.0200"/><circle cx="-0.3692" cy="-0.1976" r="0.0200"/><circle cx="-0.3692" cy="-0.1679" r="0.0200"/><circle cx="-0.3692" cy="-0.1374" r="0.0200"/><circle cx="-0.3692" cy="-0.1063" r="0.0200"/><circle cx="-0.3692" cy="-0.0749" r="0.0200"/><circle cx="-0.3692" cy="-0.0433" r="0.0200"/><circle cx="-0.3692" cy="-0.0116" r="0.0200"/><circle cx="-0.3692" cy="0.0198" r="0.0200"/><circle cx="-0.3692" cy="0.0509" r="0.0200"/><circle cx="-0.3692" cy="0.0814" r="0.0200"/><circle cx="-0.3692" cy="0.1111" r="0.0200"/><circle cx="-0.3692" cy="0.1398" r="0.0200"/><circle cx="-0.3692" cy="0.1675" r="0.0200"/><circle cx="-0.3692" cy="0.1938" r="0.0200"/><circle cx="-0.3692" cy="0.2187" r="0.0200"/><circle cx="-0.3692" cy="0.2419" r="0.0200"/><circle cx="-0.3692" cy="0.2634" r="0.0200"/><circle cx="-0.3692" cy="0.2830" r="0.0200"/><circle cx="-0.3692" cy="0.3006" r="0.0200"/><circle cx="-0.3692" cy="0.3161" r="0.0200"/><circle cx="-0.3692" cy="0.3294" r="0.0200"/><circle cx="-0.3692" cy="0.3403" r="0.0200"/><circle cx="-0.3692" cy="0.3489" r="0.0200"/><circle cx="-0.3692" cy="0.3551" r="0.0200"/><circle cx="-0.3692" cy="0.3588" r="0.0200"/><circle cx="-0.3692" cy="0.3601" r="0.0200"/><circle cx="-0.4669" cy="-0.4453" r="0.0200"/><circle cx="-0.4669" cy="-0.4416" r="0.0200"/><circle cx="-0.4669" cy="-0.4354" r="0.0200"/><circle cx="-0.4669" cy="-0.4268" r="0.0200"/><circle cx="-0.4669" cy="-0.4159" r="0.0200"/><circle cx="-0.4669" cy="-0.4026" r="0.0200"/><circle cx="-0.4669" cy="-0.3871" r="0.0200"/><circle cx="-0.4669" cy="-0.3695" r="0.0200"/><circle cx="-0.4669" cy="-0.3499" r="0.0200"/><circle cx="-0.4669" cy="-0.3284" r="0.0200"/><circle cx="-0.4669" cy="-0.3052" r="0.0200"/><circle cx="-0.4669" cy="-0.2803" r="0.0200"/><circle cx="-0.4669" cy="-0.2540" r="0.0200"/><circle cx="-0.4669" cy="-0.2264" r="0.0200"/><circle cx="-0.4669" cy="-0.1976" r="0.0200"/><circle cx="-0.4669" cy="-0.1679" r="0.0200"/><circle cx="-0.4669" cy="-0.1374" r="0.0200"/><circle cx="-0.4669" cy="-0.1063" r="0.0200"/><circle cx="-0.4669" cy="-0.0749" r="0.0200"/><circle cx="-0.4669" cy="-0.0433" r="0.0200"/><circle cx="-0.4669" cy="-0.0116" r="0.0200"/><circle cx="-0.4669" cy="0.0198" r="0.0200"/><circle cx="-0.4669" cy="0.0509" r="0.0200"/><circle cx="-0.4669" cy="0.0814" r="0.0200"/><circle cx="-0.4669" cy="0.1111" r="0.0200"/><circle cx="-0.4669" cy="0.1398" r="0.0200"/><circle cx="-0.4669" cy="0.1675" r="0.0200"/><circle cx="-0.4669" cy="0.1938" r="0.0200"/><circle cx="-0.4669" cy="0.2187" r="0.0200"/><circle cx="-0.4669" cy="0.2419" r="0.0200"/><circle cx="-0.4669" cy="0.2634" r="0.0200"/><circle cx="-0.4669" cy="0.2830" r="0.0200"/><circle cx="-0.4669" cy="0.3006" r="0.0200"/><circle cx="-0.4669" cy="0.3161" r="0.0200"/><circle cx="-0.4669" cy="0.3294" r="0.0200"/><circle cx="-0.4669" cy="0.3403" r="0.0200"/><circle cx="-0.4669" cy="0.3489" r="0.0200"/><circle cx="-0.4669" cy="0.3551" r="0.0200"/><circle cx="-0.4669" cy="0.3588" r="0.0200"/><circle cx="-0.4669" cy="0.3601" r="0.0200"/><circle cx="-0.5653" cy="-0.4453" r="0.0200"/><circle cx="-0.5653" cy="-0.4416" r="0.0200"/><circle cx="-0.5653" cy="-0.4354" r="0.0200"/><circle cx="-0.5653" cy="-0.4268" r="0.0200"/><circle cx="-0.5653" cy="-0.4159" r="0.0200"/><circle cx="-0.5653" cy="-0.4026" r="0.0200"/><circle cx="-0.5653" cy="-0.3871" r="0.0200"/><circle cx="-0.5653" cy="-0.3695" r="0.0200"/><circle cx="-0.5653" cy="-0.3499" r="0.0200"/><circle cx="-0.5653" cy="-0.3284" r="0.0200"/><circle cx="-0.5653" cy="-0.3052" r="0.0200"/><circle cx="-0.5653" cy="-0.2803" r="0.0200"/><circle cx="-0.5653" cy="-0.2540" r="0.0200"/><circle cx="-0.5653" cy="-0.2264" r="0.0200"/><circle cx="-0.5653" cy="-0.1976" r="0.0200"/><circle cx="-0.5653" cy="-0.1679" r="0.0200"/><circle cx="-0.5653" cy="-0.1374" r="0.0200"/><circle cx="-0.5653" cy="-0.1063" r="0.0200"/><circle cx="-0.5653" cy="-0.0749" r="0.0200"/><circle cx="-0.5653" cy="-0.0433" r="0.0200"/><circle cx="-0.5653" cy="-0.0116" r="0.0200"/><circle cx="-0.5653" cy="0.0198" r="0.0200"/><circle cx="-0.5653" cy="0.0509" r="0.0200"/><circle cx="-0.5653" cy="0.0814" r="0.0200"/><circle cx="-0.5653" cy="0.1111" r="0.0200"/><circle cx="-0.5653" cy="0.1398" r="0.0200"/><circle cx="-0.5653" cy="0.1675" r="0.0200"/><circle cx="-0.5653" cy="0.1938" r="0.0200"/><circle cx="-0.5653" cy="0.2187" r="0.0200"/><circle cx="-0.5653" cy="0.2419" r="0.0200"/><circle cx="-0.5653" cy="0.2634" r="0.0200"/><circle cx="-0.5653" cy="0.2830" r="0.0200"/><circle cx="-0.5653" cy="0.3006" r="0.0200"/><circle cx="-0.5653" cy="0.3161" r="0.0200"/><circle cx="-0.5653" cy="0.3294" r="0.0200"/><circle cx="-0.5653" cy="0.3403" r="0.0200"/><circle cx="-0.5653" cy="0.3489" r="0.0200"/><circle cx="-0.5653" cy="0.3551" r="0.0200"/><circle cx="-0.5653" cy="0.3588" r="0.0200"/><circle cx="-0.5653" cy="0.3601" r="0.0200"/></g></g><g class="hud"><g class="frame"><g stroke-width="0" stroke="rgb(0%, 0%, 0%)" stroke-opacity="0" fill="rgb(100%, 100%, 100%)" fill-opacity="0.02"><rect width="1.2954" height="0.8457" x="-0.5862" y="-0.4655"/></g></g><g class="axis"><g class="ticks"><g class="tickglyph"><g stroke-width="0.0040" stroke="rgb(5%, 5%, 5%)" stroke-opacity="0.4" fill="rgb(5%, 5%, 5%)" fill-opacity="0.4"><g transform="rotate(-90.0, -0.6113, 0.3601)"><polyline points="-0.6113,0.3751
-0.6113,0.3451"/></g><g transform="rotate(-90.0, -0.6113, 0.2794)"><polyline points="-0.6113,0.2944
-0.6113,0.2644"/></g><g transform="rotate(-90.0, -0.6113, 0.1987)"><polyline points="-0.6113,0.2137
-0.6113,0.1837"/></g><g transform="rotate(-90.0, -0.6113, 0.1181)"><polyline points="-0.6113,0.1331
-0.6113,0.1031"/></g><g transform="rotate(-90.0, -0.6113, 0.0374)"><polyline points="-0.6113,0.0524
-0.6113,0.0224"/></g><g transform="rotate(-90.0, -0.6113, -0.0433)"><polyline points="-0.6113,-0.0283
-0.6113,-0.0583"/></g><g transform="rotate(-90.0, -0.6113, -0.1239)"><polyline points="-0.6113,-0.1089
-0.6113,-0.1389"/></g><g transform="rotate(-90.0, -0.6113, -0.2046)"><polyline points="-0.6113,-0.1896
-0.6113,-0.2196"/></g><g transform="rotate(-90.0, -0.6113, -0.2852)"><polyline points="-0.6113,-0.2702
-0.6113,-0.3002"/></g><g transform="rotate(-90.0, -0.6113, -0.3659)"><polyline points="-0.6113,-0.3509
-0.6113,-0.3809"/></g><g transform="rotate(-90.0, -0.6113, -0.4466)"><polyline points="-0.6113,-0.4316
-0.6113,-0.4616"/></g></g></g><g class="ticktext"><g stroke-width="0.0" stroke="none" fill="rgb(5%, 5%, 5%)" fill-opacity="1.0" font-size="0.0418" text-anchor="end"><text x="-0.6413" y="0.3711">-1.0</text><text x="-0.6413" y="0.2905">-0.8</text><text x="-0.6413" y="0.2098">-0.6</text><text x="-0.6413" y="0.1292">-0.4</text><text x="-0.6413" y="0.0485">-0.2</text><text x="-0.6413" y="-0.0322"> 0.0</text><text x="-0.6413" y="-0.1128"> 0.2</text><text x="-0.6413" y="-0.1935"> 0.4</text><text x="-0.6413" y="-0.2741"> 0.6</text><text x="-0.6413" y="-0.3548"> 0.8</text><text x="-0.6413" y="-0.4355"> 1.0</text></g></g><g class="ticklines"><g stroke-width="0.0050" stroke="rgb(5%, 5%, 5%)" stroke-opacity="0.05" fill="none"><polyline points="-0.5653,0.3601 0.6884,0.3601"/><polyline points="-0.5653,0.2794 0.6884,0.2794"/><polyline points="-0.5653,0.1987 0.6884,0.1987"/><polyline points="-0.5653,0.1181 0.6884,0.1181"/><polyline points="-0.5653,0.0374 0.6884,0.0374"/><polyline points="-0.5653,-0.0433 0.6884,-0.0433"/><polyline points="-0.5653,-0.1239 0.6884,-0.1239"/><polyline points="-0.5653,-0.2046 0.6884,-0.2046"/><polyline points="-0.5653,-0.2852 0.6884,-0.2852"/><polyline points="-0.5653,-0.3659 0.6884,-0.3659"/><polyline points="-0.5653,-0.4466 0.6884,-0.4466"/></g></g></g><g class="axisbar"><g stroke-width="0" stroke="rgb(0%, 0%, 0%)" stroke-opacity="0" fill="rgb(5%, 5%, 5%)" fill-opacity="0.4"><rect width="0.0033" height="0.8098" x="-0.5979" y="-0.4482"/></g></g></g><g class="axis"><g class="ticks"><g class="tickglyph"><g stroke-width="0.0040" stroke="rgb(5%, 5%, 5%)" stroke-opacity="0.4" fill="rgb(5%, 5%, 5%)" fill-opacity="0.4"><polyline points="-0.5653,0.4194
-0.5653,0.3894"/><polyline points="-0.4399,0.4194
-0.4399,0.3894"/><polyline points="-0.3146,0.4194
-0.3146,0.3894"/><polyline points="-0.1892,0.4194
-0.1892,0.3894"/><polyline points="-0.0638,0.4194
-0.0638,0.3894"/><polyline points="0.0615,0.4194
0.0615,0.3894"/><polyline points="0.1869,0.4194
0.1869,0.3894"/><polyline points="0.3123,0.4194
0.3123,0.3894"/><polyline points="0.4376,0.4194
0.4376,0.3894"/><polyline points="0.5630,0.4194
0.5630,0.3894"/><polyline points="0.6884,0.4194
0.6884,0.3894"/></g></g><g class="ticktext"><g stroke-width="0.0" stroke="none" fill="rgb(5%, 5%, 5%)" fill-opacity="1.0" font-size="0.0418" text-anchor="middle"><text x="-0.5653" y="0.4556">0.0</text><text x="-0.4399" y="0.4556">0.1</text><text x="-0.3146" y="0.4556">0.2</text><text x="-0.1892" y="0.4556">0.3</text><text x="-0.0638" y="0.4556">0.4</text><text x="0.0615" y="0.4556">0.5</text><text x="0.1869" y="0.4556">0.6</text><text x="0.3123" y="0.4556">0.7</text><text x="0.4376" y="0.4556">0.8</text><text x="0.5630" y="0.4556">0.9</text><text x="0.6884" y="0.4556">1.0</text></g></g><g class="ticklines"><g stroke-width="0.0050" stroke="rgb(5%, 5%, 5%)" stroke-opacity="0.05" fill="none"><polyline points="-0.5653,0.3601 -0.5653,-0.4466"/><polyline points="-0.4399,0.3601 -0.4399,-0.4466"/><polyline points="-0.3146,0.3601 -0.3146,-0.4466"/><polyline points="-0.1892,0.3601 -0.1892,-0.4466"/><polyline points="-0.0638,0.3601 -0.0638,-0.4466"/><polyline points="0.0615,0.3601 0.0615,-0.4466"/><polyline points="0.1869,0.3601 0.1869,-0.4466"/><polyline points="0.3123,0.3601 0.3123,-0.4466"/><polyline points="0.4376,0.3601 0.4376,-0.4466"/><polyline points="0.5630,0.3601 0.5630,-0.4466"/><polyline points="0.6884,0.3601 0.6884,-0.4466"/></g></g></g><g class="axisbar"><g stroke-width="0" stroke="rgb(0%, 0%, 0%)" stroke-opacity="0" fill="rgb(5%, 5%, 5%)" fill-opacity="0.4"><rect width="1.2570" height="0.0032" x="-0.5670" y="0.3883"/></g></g></g><g class="frame"><g stroke-width="0" stroke="rgb(0%, 0%, 0%)" stroke-opacity="0" fill="rgb(100%, 100%, 100%)" fill-opacity="0.02"><rect width="1.5" height="1.0" x="-0.75" y="-0.5"/></g></g></g></svg>