<svg xmlns="http://www.w3.org/2000/svg" xmlns:xlink="http://www.w3.org/1999/xlink" width="450" height="300" viewBox="-0.75 -0.5 1.5 1.0"><style>svg {
  color-scheme: light dark;
}
{
  .canvas g, .title g, .axisbar g, .ticktext g, .tickglyph g, .ticklines g, .legendContent g text {
    fill: rgb(5%, 5%, 5%);
  }
  .ticklines g, .tickglyph g, .legendBorder g {
    stroke: rgb(5%, 5%, 5%);
  }
  .legendBorder g {
    fill: rgb(94%, 94%, 94%);
  }
}
@media (prefers-color-scheme:dark) {
  .canvas g, .title g, .axisbar g, .ticktext g, .tickglyph g, .ticklines g, .legendContent g text {
    fill: rgb(94%, 94%, 94%);
  }
  .ticklines g, .tickglyph g, .legendBorder g {
    stroke: rgb(94%, 94%, 94%);
  }
  .legendBorder g {
    fill: rgb(5%, 5%, 5%);
  }
}
svg { font-family: system-ui,-apple-system,"Segoe UI",Roboto,"Helvetica Neue",Arial,"Noto Sans","Liberation Sans",sans-serif,"Apple Color Emoji","Segoe UI Emoji","Segoe UI Symbol","Noto Color Emoji";
}

ticktext { font-family: SFMono-Regular,Menlo,Monaco,Consolas,"Liberation Mono","Courier New",monospace;
}

</style><g class="chart"><g stroke-width="0.0100" stroke="rgb(2%, 29%, 48%)" stroke-opacity="1.0" fill="rgb(2%, 73%, 80%)" fill-opacity="1.0"><circle cx="-0.4754" cy="-0.4454" r="0.0200"/><circle cx="-0.4754" cy="-0.4416" r="0.0200"/><circle cx="-0.4754" cy="-0.4353" r="0.0200"/><circle cx="-0.4754" cy="-0.4265" r="0.0200"/><circle cx="-0.4754" cy="-0.4154" r="0.0200"/><circle cx="-0.4754" cy="-0.4019" r="0.0200"/><circle cx="-0.4754" cy="-0.3861" r="0.0200"/><circle cx="-0.4754" cy="-0.3682" r="0.0200"/><circle cx="-0.4754" cy="-0.3482" r="0.0200"/><circle cx="-0.4754" cy="-0.3263" r="0.0200"/><circle cx="-0.4754" cy="-0.3027" r="0.0200"/><circle cx="-0.4754" cy="-0.2773" r="0.0200"/><circle cx="-0.4754" cy="-0.2505" r="0.0200"/><circle cx="-0.4754" cy="-0.2224" r="0.0200"/><circle cx="-0.4754" cy="-0.1931" r="0.0200"/><circle cx="-0.4754" cy="-0.1628" r="0.0200"/><circle cx="-0.4754" cy="-0.1318" r="0.0200"/><circle cx="-0.4754" cy="-0.1002" r="0.0200"/><circle cx="-0.4754" cy="-0.0682" r="0.0200"/><circle cx="-0.4754" cy="-0.0359" r="0.0200"/><circle cx="-0.4754" cy="-0.0037" r="0.0200"/><circle cx="-0.4754" cy="0.0283" r="0.0200"/><circle cx="-0.4754" cy="0.0599" r="0.0200"/><circle cx="-0.4754" cy="0.0910" r="0.0200"/><circle cx="-0.4754" cy="0.1212" r="0.0200"/><circle cx="-0.4754" cy="0.1505" r="0.0200"/><circle cx="-0.4754" cy="0.1786" r="0.0200"/><circle cx="-0.4754" cy="0.2055" r="0.0200"/><circle cx="-0.4754" cy="0.2308" r="0.0200"/><circle cx="-0.4754" cy="0.2545" r="0.0200"/><circle cx="-0.4754" cy="0.2763" r="0.0200"/><circle cx="-0.4754" cy="0.2963" r="0.0200"/><circle cx="-0.4754" cy="0.3142" r="0.0200"/><circle cx="-0.4754" cy="0.3300" r="0.0200"/><circle cx="-0.4754" cy="0.3435" r="0.0200"/><circle cx="-0.4754" cy="0.3546" r="0.0200"/><circle cx="-0.4754" cy="0.3634" r="0.0200"/><circle cx="-0.4754" cy="0.3697" r="0.0200"/><circle cx="-0.4754" cy="0.3735" r="0.0200"/><circle cx="-0.4754" cy="0.3747" r="0.0200"/><circle cx="-0.3773" cy="-0.4454" r="0.0200"/><circle cx="-0.3773" cy="-0.4416" r="0.0200"/><circle cx="-0.3773" cy="-0.4353" r="0.0200"/><circle cx="-0.3773" cy="-0.4265" r="0.0200"/><circle cx="-0.3773" cy="-0.4154" r="0.0200"/><circle cx="-0.3773" cy="-0.4019" r="0.0200"/><circle cx="-0.3773" cy="-0.3861" r="0.0200"/><circle cx="-0.3773" cy="-0.3682" r="0.0200"/><circle cx="-0.3773" cy="-0.3482" r="0.0200"/><circle cx="-0.3773" cy="-0.3263" r="0.0200"/><circle cx="-0.3773" cy="-0.3027" r="0.0200"/><circle cx="-0.3773" cy="-0.2773" r="0.0200"/><circle cx="-0.3773" cy="-0.2505" r="0.0200"/><circle cx="-0.3773" cy="-0.2224" r="0.0200"/><circle cx="-0.3773" cy="-0.1931" r="0.0200"/><circle cx="-0.3773" cy="-0.1628" r="0.0200"/><circle cx="-0.3773" cy="-0.1318" r="0.0200"/><circle cx="-0.3773" cy="-0.1002" r="0.0200"/><circle cx="-0.3773" cy="-0.0682" r="0.0200"/><circle cx="-0.3773" cy="-0.0359" r="0.0200"/><circle cx="-0.3773" cy="-0.0037" r="0.0200"/><circle cx="-0.3773" cy="0.0283" r="0.0200"/><circle cx="-0.3773" cy="0.0599" r="0.0200"/><circle cx="-0.3773" cy="0.0910" r="0.0200"/><circle cx="-0.3773" cy="0.1212" r="0.0200"/><circle cx="-0.3773" cy="0.1505" r="0.0200"/><circle cx="-0.3773" cy="0.1786" r="0.0200"/><circle cx="-0.3773" cy="0.2055" r="0.0200"/><circle cx="-0.3773" cy="0.2308" r="0.0200"/><circle cx="-0.3773" cy="0.2545" r="0.0200"/><circle cx="-0.3773" cy="0.2763" r="0.0200"/><circle cx="-0.3773" cy="0.2963" r="0.0200"/><circle cx="-0.3773" cy="0.3142" r="0.0200"/><circle cx="-0.3773" cy="0.3300" r="0.0200"/><circle cx="-0.3773" cy="0.3435" r="0.0200"/><circle cx="-0.3773" cy="0.3546" r="0.0200"/><circle cx="-0.3773" cy="0.3634" r="0.0200"/><circle cx="-0.3773" cy="0.3697" r="0.0200"/><circle cx="-0.3773" cy="0.3735" r="0.0200"/><circle cx="-0.3773" cy="0.3747" r="0.0200"/><circle cx="-0.2805" cy="-0.4454" r="0.0200"/><circle cx="-0.2805" cy="-0.4416" r="0.0200"/><circle cx="-0.2805" cy="-0.4353" r="0.0200"/><circle cx="-0.2805" cy="-0.4265" r="0.0200"/><circle cx="-0.2805" cy="-0.4154" r="0.0200"/><circle cx="-0.2805" cy="-0.4019" r="0.0200"/><circle cx="-0.2805" cy="-0.3861" r="0.0200"/><circle cx="-0.2805" cy="-0.3682" r="0.0200"/><circle cx="-0.2805" cy="-0.3482" r="0.0200"/><circle cx="-0.2805" cy="-0.3263" r="0.0200"/><circle cx="-0.2805" cy="-0.3027" r="0.0200"/><circle cx="-0.2805" cy="-0.2773" r="0.0200"/><circle cx="-0.2805" cy="-0.2505" r="0.0200"/><circle cx="-0.2805" cy="-0.2224" r="0.0200"/><circle cx="-0.2805" cy="-0.1931" r="0.0200"/><circle cx="-0.2805" cy="-0.1628" r="0.0200"/><circle cx="-0.2805" cy="-0.1318" r="0.0200"/><circle cx="-0.2805" cy="-0.1002" r="0.0200"/><circle cx="-0.2805" cy="-0.0682" r="0.0200"/><circle cx="-0.2805" cy="-0.0359" r="0.0200"/><circle cx="-0.2805" cy="-0.0037" r="0.0200"/><circle cx="-0.2805" cy="0.0283" r="0.0200"/><circle cx="-0.2805" cy="0.0599" r="0.0200"/><circle cx="-0.2805" cy="0.0910" r="0.0200"/><circle cx="-0.2805" cy="0.1212" r="0.0200"/><circle cx="-0.2805" cy="0.1505" r="0.0200"/><circle cx="-0.2805" cy="0.1786" r="0.0200"/><circle cx="-0.2805" cy="0.2055" r="0.0200"/><circle cx="-0.2805" cy="0.2308" r="0.0200"/><circle cx="-0.2805" cy="0.2545" r="0.0200"/><circle cx="-0.2805" cy="0.2763" r="0.0200"/><circle cx="-0.2805" cy="0.2963" r="0.0200"/><circle cx="-0.2805" cy="0.3142" r="0.0200"/><circle cx="-0.2805" cy="0.3300" r="0.0200"/><circle cx="-0.2805" cy="0.3435" r="0.0200"/><circle cx="-0.2805" cy="0.3546" r="0.0200"/><circle cx="-0.2805" cy="0.3634" r="0.0200"/><circle cx="-0.2805" cy="0.3697" r="0.0200"/><circle cx="-0.2805" cy="0.3735" r="0.0200"/><circle cx="-0.2805" cy="0.3747" r="0.0200"/><circle cx="-0.1855" cy="-0.4454" r="0.0200"/><circle cx="-0.1855" cy="-0.4416" r="0.0200"/><circle cx="-0.1855" cy="-0.4353" r="0.0200"/><circle cx="-0.1855" cy="-0.4265" r="0.0200"/><circle cx="-0.1855" cy="-0.4154" r="0.0200"/><circle cx="-0.1855" cy="-0.4019" r="0.0200"/><circle cx="-0.1855" cy="-0.3861" r="0.0200"/><circle cx="-0.1855" cy="-0.3682" r="0.0200"/><circle cx="-0.1855" cy="-0.3482" r="0.0200"/><circle cx="-0.1855" cy="-0.3263" r="0.0200"/><circle cx="-0.1855" cy="-0.3027" r="0.0200"/><circle cx="-0.1855" cy="-0.2773" r="0.0200"/><circle cx="-0.1855" cy="-0.2505" r="0.0200"/><circle cx="-0.1855" cy="-0.2224" r="0.0200"/><circle cx="-0.1855" cy="-0.1931" r="0.0200"/><circle cx="-0.1855" cy="-0.1628" r="0.0200"/><circle cx="-0.1855" cy="-0.1318" r="0.0200"/><circle cx="-0.1855" cy="-0.1002" r="0.0200"/><circle cx="-0.1855" cy="-0.0682" r="0.0200"/><circle cx="-0.1855" cy="-0.0359" r="0.0200"/><circle cx="-0.1855" cy="-0.0037" r="0.0200"/><circle cx="-0.1855" cy="0.0283" r="0.0200"/><circle cx="-0.1855" cy="0.0599" r="0.0200"/><circle cx="-0.1855" cy="0.0910" r="0.0200"/><circle cx="-0.1855" cy="0.1212" r="0.0200"/><circle cx="-0.1855" cy="0.1505" r="0.0200"/><circle cx="-0.1855" cy="0.1786" r="0.0200"/><circle cx="-0.1855" cy="0.2055" r="0.0200"/><circle cx="-0.1855" cy="0.2308" r="0.0200"/><circle cx="-0.1855" cy="0.2545" r="0.0200"/><circle cx="-0.1855" cy="0.2763" r="0.0200"/><circle cx="-0.1855" cy="0.2963" r="0.0200"/><circle cx="-0.1855" cy="0.3142" r="0.0200"/><circle cx="-0.1855" cy="0.3300" r="0.0200"/><circle cx="-0.1855" cy="0.3435" r="0.0200"/><circle cx="-0.1855" cy="0.3546" r="0.0200"/><circle cx="-0.1855" cy="0.3634" r="0.0200"/><circle cx="-0.1855" cy="0.3697" r="0.0200"/><circle cx="-0.1855" cy="0.3735" r="0.0200"/><circle cx="-0.1855" cy="0.3747" r="0.0200"/><circle cx="-0.0929" cy="-0.4454" r="0.0200"/><circle cx="-0.0929" cy="-0.4416" r="0.0200"/><circle cx="-0.0929" cy="-0.4353" r="0.0200"/><circle cx="-0.0929" cy="-0.4265" r="0.0200"/><circle cx="-0.0929" cy="-0.4154" r="0.0200"/><circle cx="-0.0929" cy="-0.4019" r="0.0200"/><circle cx="-0.0929" cy="-0.3861" r="0.0200"/><circle cx="-0.0929" cy="-0.3682" r="0.0200"/><circle cx="-0.0929" cy="-0.3482" r="0.0200"/><circle cx="-0.0929" cy="-0.3263" r="0.0200"/><circle cx="-0.0929" cy="-0.3027" r="0.0200"/><circle cx="-0.0929" cy="-0.2773" r="0.0200"/><circle cx="-0.0929" cy="-0.2505" r="0.0200"/><circle cx="-0.0929" cy="-0.2224" r="0.0200"/><circle cx="-0.0929" cy="-0.1931" r="0.0200"/><circle cx="-0.0929" cy="-0.1628" r="0.0200"/><circle cx="-0.0929" cy="-0.1318" r="0.0200"/><circle cx="-0.0929" cy="-0.1002" r="0.0200"/><circle cx="-0.0929" cy="-0.0682" r="0.0200"/><circle cx="-0.0929" cy="-0.0359" r="0.0200"/><circle cx="-0.0929" cy="-0.0037" r="0.0200"/><circle cx="-0.0929" cy="0.0283" r="0.0200"/><circle cx="-0.0929" cy="0.0599" r="0.0200"/><circle cx="-0.0929" cy="0.0910" r="0.0200"/><circle cx="-0.0929" cy="0.1212" r="0.0200"/><circle cx="-0.0929" cy="0.1505" r="0.0200"/><circle cx="-0.0929" cy="0.1786" r="0.0200"/><circle cx="-0.0929" cy="0.2055" r="0.0200"/><circle cx="-0.0929" cy="0.2308" r="0.0200"/><circle cx="-0.0929" cy="0.2545" r="0.0200"/><circle cx="-0.0929" cy="0.2763" r="0.0200"/><circle cx="-0.0929" cy="0.2963" r="0.0200"/><circle cx="-0.0929" cy="0.3142" r="0.0200"/><circle cx="-0.0929" cy="0.3300" r="0.0200"/><circle cx="-0.0929" cy="0.3435" r="0.0200"/><circle cx="-0.0929" cy="0.3546" r="0.0200"/><circle cx="-0.0929" cy="0.3634" r="0.0200"/><circle cx="-0.0929" cy="0.3697" r="0.0200"/><circle cx="-0.0929" cy="0.3735" r="0.0200"/><circle cx="-0.0929" cy="0.3747" r="0.0200"/><circle cx="-0.0033" cy="-0.4454" r="0.0200"/><circle cx="-0.0033" cy="-0.4416" r="0.0200"/><circle cx="-0.0033" cy="-0.4353" r="0.0200"/><circle cx="-0.0033" cy="-0.4265" r="0.0200"/><circle cx="-0.0033" cy="-0.4154" r="0.0200"/><circle cx="-0.0033" cy="-0.4019" r="0.0200"/><circle cx="-0.0033" cy="-0.3861" r="0.0200"/><circle cx="-0.0033" cy="-0.3682" r="0.0200"/><circle cx="-0.0033" cy="-0.3482" r="0.0200"/><circle cx="-0.0033" cy="-0.3263" r="0.0200"/><circle cx="-0.0033" cy="-0.3027" r="0.0200"/><circle cx="-0.0033" cy="-0.2773" r="0.0200"/><circle cx="-0.0033" cy="-0.2505" r="0.0200"/><circle cx="-0.0033" cy="-0.2224" r="0.0200"/><circle cx="-0.0033" cy="-0.1931" r="0.0200"/><circle cx="-0.0033" cy="-0.1628" r="0.0200"/><circle cx="-0.0033" cy="-0.1318" r="0.0200"/><circle cx="-0.0033" cy="-0.1002" r="0.0200"/><circle cx="-0.0033" cy="-0.0682" r="0.0200"/><circle cx="-0.0033" cy="-0.0359" r="0.0200"/><circle cx="-0.0033" cy="-0.0037" r="0.0200"/><circle cx="-0.0033" cy="0.0283" r="0.0200"/><circle cx="-0.0033" cy="0.0599" r="0.0200"/><circle cx="-0.0033" cy="0.0910" r="0.0200"/><circle cx="-0.0033" cy="0.1212" r="0.0200"/><circle cx="-0.0033" cy="0.1505" r="0.0200"/><circle cx="-0.0033" cy="0.1786" r="0.0200"/><circle cx="-0.0033" cy="0.2055" r="0.0200"/><circle cx="-0.0033" cy="0.2308" r="0.0200"/><circle cx="-0.0033" cy="0.2545" r="0.0200"/><circle cx="-0.0033" cy="0.2763" r="0.0200"/><circle cx="-0.0033" cy="0.2963" r="0.0200"/><circle cx="-0.0033" cy="0.3142" r="0.0200"/><circle cx="-0.0033" cy="0.3300" r="0.0200"/><circle cx="-0.0033" cy="0.3435" r="0.0200"/><circle cx="-0.0033" cy="0.3546" r="0.0200"/><circle cx="-0.0033" cy="0.3634" r="0.0200"/><circle cx="-0.0033" cy="0.3697" r="0.0200"/><circle cx="-0.0033" cy="0.3735" r="0.0200"/><circle cx="-0.0033" cy="0.3747" r="0.0200"/><circle cx="0.0828" cy="-0.4454" r="0.0200"/><circle cx="0.0828" cy="-0.4416" r="0.0200"/><circle cx="0.0828" cy="-0.4353" r="0.0200"/><circle cx="0.0828" cy="-0.4265" r="0.0200"/><circle cx="0.0828" cy="-0.4154" r="0.0200"/><circle cx="0.0828" cy="-0.4019" r="0.0200"/><circle cx="0.0828" cy="-0.3861" r="0.0200"/><circle cx="0.0828" cy="-0.3682" r="0.0200"/><circle cx="0.0828" cy="-0.3482" r="0.0200"/><circle cx="0.0828" cy="-0.3263" r="0.0200"/><circle cx="0.0828" cy="-0.3027" r="0.0200"/><circle cx="0.0828" cy="-0.2773" r="0.0200"/><circle cx="0.0828" cy="-0.2505" r="0.0200"/><circle cx="0.0828" cy="-0.2224" r="0.0200"/><circle cx="0.0828" cy="-0.1931" r="0.0200"/><circle cx="0.0828" cy="-0.1628" r="0.0200"/><circle cx="0.0828" cy="-0.1318" r="0.0200"/><circle cx="0.0828" cy="-0.1002" r="0.0200"/><circle cx="0.0828" cy="-0.0682" r="0.0200"/><circle cx="0.0828" cy="-0.0359" r="0.0200"/><circle cx="0.0828" cy="-0.0037" r="0.0200"/><circle cx="0.0828" cy="0.0283" r="0.0200"/><circle cx="0.0828" cy="0.0599" r="0.0200"/><circle cx="0.0828" cy="0.0910" r="0.0200"/><circle cx="0.0828" cy="0.1212" r="0.0200"/><circle cx="0.0828" cy="0.1505" r="0.0200"/><circle cx="0.0828" cy="0.1786" r="0.0200"/><circle cx="0.0828" cy="0.2055" r="0.0200"/><circle cx="0.0828" cy="0.2308" r="0.0200"/><circle cx="0.0828" cy="0.2545" r="0.0200"/><circle cx="0.0828" cy="0.2763" r="0.0200"/><circle cx="0.0828" cy="0.2963" r="0.0200"/><circle cx="0.0828" cy="0.3142" r="0.0200"/><circle cx="0.0828" cy="0.3300" r="0.0200"/><circle cx="0.0828" cy="0.3435" r="0.0200"/><circle cx="0.0828" cy="0.3546" r="0.0200"/><circle cx="0.0828" cy="0.3634" r="0.0200"/><circle cx="0.0828" cy="0.3697" r="0.0200"/><circle cx="0.0828" cy="0.3735" r="0.0200"/><circle cx="0.0828" cy="0.3747" r="0.0200"/><circle cx="0.1649" cy="-0.4454" r="0.0200"/><circle cx="0.1649" cy="-0.4416" r="0.0200"/><circle cx="0.1649" cy="-0.4353" r="0.0200"/><circle cx="0.1649" cy="-0.4265" r="0.0200"/><circle cx="0.1649" cy="-0.4154" r="0.0200"/><circle cx="0.1649" cy="-0.4019" r="0.0200"/><circle cx="0.1649" cy="-0.3861" r="0.0200"/><circle cx="0.1649" cy="-0.3682" r="0.0200"/><circle cx="0.1649" cy="-0.3482" r="0.0200"/><circle cx="0.1649" cy="-0.3263" r="0.0200"/><circle cx="0.1649" cy="-0.3027" r="0.0200"/><circle cx="0.1649" cy="-0.2773" r="0.0200"/><circle cx="0.1649" cy="-0.2505" r="0.0200"/><circle cx="0.1649" cy="-0.2224" r="0.0200"/><circle cx="0.1649" cy="-0.1931" r="0.0200"/><circle cx="0.1649" cy="-0.1628" r="0.0200"/><circle cx="0.1649" cy="-0.1318" r="0.0200"/><circle cx="0.1649" cy="-0.1002" r="0.0200"/><circle cx="0.1649" cy="-0.0682" r="0.0200"/><circle cx="0.1649" cy="-0.0359" r="0.0200"/><circle cx="0.1649" cy="-0.0037" r="0.0200"/><circle cx="0.1649" cy="0.0283" r="0.0200"/><circle cx="0.1649" cy="0.0599" r="0.0200"/><circle cx="0.1649" cy="0.0910" r="0.0200"/><circle cx="0.1649" cy="0.1212" r="0.0200"/><circle cx="0.1649" cy="0.1505" r="0.0200"/><circle cx="0.1649" cy="0.1786" r="0.0200"/><circle cx="0.1649" cy="0.2055" r="0.0200"/><circle cx="0.1649" cy="0.2308" r="0.0200"/><circle cx="0.1649" cy="0.2545" r="0.0200"/><circle cx="0.1649" cy="0.2763" r="0.0200"/><circle cx="0.1649" cy="0.2963" r="0.0200"/><circle cx="0.1649" cy="0.3142" r="0.0200"/><circle cx="0.1649" cy="0.3300" r="0.0200"/><circle cx="0.1649" cy="0.3435" r="0.0200"/><circle cx="0.1649" cy="0.3546" r="0.0200"/><circle cx="0.1649" cy="0.3634" r="0.0200"/><circle cx="0.1649" cy="0.3697" r="0.0200"/><circle cx="0.1649" cy="0.3735" r="0.0200"/><circle cx="0.1649" cy="0.3747" r="0.0200"/><circle cx="0.2424" cy="-0.4454" r="0.0200"/><circle cx="0.2424" cy="-0.4416" r="0.0200"/><circle cx="0.2424" cy="-0.4353" r="0.0200"/><circle cx="0.2424" cy="-0.4265" r="0.0200"/><circle cx="0.2424" cy="-0.4154" r="0.0200"/><circle cx="0.2424" cy="-0.4019" r="0.0200"/><circle cx="0.2424" cy="-0.3861" r="0.0200"/><circle cx="0.2424" cy="-0.3682" r="0.0200"/><circle cx="0.2424" cy="-0.3482" r="0.0200"/><circle cx="0.2424" cy="-0.3263" r="0.0200"/><circle cx="0.2424" cy="-0.3027" r="0.0200"/><circle cx="0.2424" cy="-0.2773" r="0.0200"/><circle cx="0.2424" cy="-0.2505" r="0.0200"/><circle cx="0.2424" cy="-0.2224" r="0.0200"/><circle cx="0.2424" cy="-0.1931" r="0.0200"/><circle cx="0.2424" cy="-0.1628" r="0.0200"/><circle cx="0.2424" cy="-0.1318" r="0.0200"/><circle cx="0.2424" cy="-0.1002" r="0.0200"/><circle cx="0.2424" cy="-0.0682" r="0.0200"/><circle cx="0.2424" cy="-0.0359" r="0.0200"/><circle cx="0.2424" cy="-0.0037" r="0.0200"/><circle cx="0.2424" cy="0.0283" r="0.0200"/><circle cx="0.2424" cy="0.0599" r="0.0200"/><circle cx="0.2424" cy="0.0910" r="0.0200"/><circle cx="0.2424" cy="0.1212" r="0.0200"/><circle cx="0.2424" cy="0.1505" r="0.0200"/><circle cx="0.2424" cy="0.1786" r="0.0200"/><circle cx="0.2424" cy="0.2055" r="0.0200"/><circle cx="0.2424" cy="0.2308" r="0.0200"/><circle cx="0.2424" cy="0.2545" r="0.0200"/><circle cx="0.2424" cy="0.2763" r="0.0200"/><circle cx="0.2424" cy="0.2963" r="0.0200"/><circle cx="0.2424" cy="0.3142" r="0.0200"/><circle cx="0.2424" cy="0.3300" r="0.0200"/><circle cx="0.2424" cy="0.3435" r="0.0200"/><circle cx="0.2424" cy="0.3546" r="0.0200"/><circle cx="0.2424" cy="0.3634" r="0.0200"/><circle cx="0.2424" cy="0.3697" r="0.0200"/><circle cx="0.2424" cy="0.3735" r="0.0200"/><circle cx="0.2424" cy="0.3747" r="0.0200"/><circle cx="0.3149" cy="-0.4454" r="0.0200"/><circle cx="0.3149" cy="-0.4416" r="0.0200"/><circle cx="0.3149" cy="-0.4353" r="0.0200"/><circle cx="0.3149" cy="-0.4265" r="0.0200"/><circle cx="0.3149" cy="-0.4154" r="0.0200"/><circle cx="0.3149" cy="-0.4019" r="0.0200"/><circle cx="0.3149" cy="-0.3861" r="0.0200"/><circle cx="0.3149" cy="-0.3682" r="0.0200"/><circle cx="0.3149" cy="-0.3482" r="0.0200"/><circle cx="0.3149" cy="-0.3263" r="0.0200"/><circle cx="0.3149" cy="-0.3027" r="0.0200"/><circle cx="0.3149" cy="-0.2773" r="0.0200"/><circle cx="0.3149" cy="-0.2505" r="0.0200"/><circle cx="0.3149" cy="-0.2224" r="0.0200"/><circle cx="0.3149" cy="-0.1931" r="0.0200"/><circle cx="0.3149" cy="-0.1628" r="0.0200"/><circle cx="0.3149" cy="-0.1318" r="0.0200"/><circle cx="0.3149" cy="-0.1002" r="0.0200"/><circle cx="0.3149" cy="-0.0682" r="0.0200"/><circle cx="0.3149" cy="-0.0359" r="0.0200"/><circle cx="0.3149" cy="-0.0037" r="0.0200"/><circle cx="0.3149" cy="0.0283" r="0.0200"/><circle cx="0.3149" cy="0.0599" r="0.0200"/><circle cx="0.3149" cy="0.0910" r="0.0200"/><circle cx="0.3149" cy="0.1212" r="0.0200"/><circle cx="0.3149" cy="0.1505" r="0.0200"/><circle cx="0.3149" cy="0.1786" r="0.0200"/><circle cx="0.3149" cy="0.2055" r="0.0200"/><circle cx="0.3149" cy="0.2308" r="0.0200"/><circle cx="0.3149" cy="0.2545" r="0.0200"/><circle cx="0.3149" cy="0.2763" r="0.0200"/><circle cx="0.3149" cy="0.2963" r="0.0200"/><circle cx="0.3149" cy="0.3142" r="0.0200"/><circle cx="0.3149" cy="0.3300" r="0.0200"/><circle cx="0.3149" cy="0.3435" r="0.0200"/><circle cx="0.3149" cy="0.3546" r="0.0200"/><circle cx="0.3149" cy="0.3634" r="0.0200"/><circle cx="0.3149" cy="0.3697" r="0.0200"/><circle cx="0.3149" cy="0.3735" r="0.0200"/><circle cx="0.3149" cy="0.3747" r="0.0200"/><circle cx="0.3819" cy="-0.4454" r="0.0200"/><circle cx="0.3819" cy="-0.4416" r="0.0200"/><circle cx="0.3819" cy="-0.4353" r="0.0200"/><circle cx="0.3819" cy="-0.4265" r="0.0200"/><circle cx="0.3819" cy="-0.4154" r="0.0200"/><circle cx="0.3819" cy="-0.4019" r="0.0200"/><circle cx="0.3819" cy="-0.3861" r="0.0200"/><circle cx="0.3819" cy="-0.3682" r="0.0200"/><circle cx="0.3819" cy="-0.3482" r="0.0200"/><circle cx="0.3819" cy="-0.3263" r="0.0200"/><circle cx="0.3819" cy="-0.3027" r="0.0200"/><circle cx="0.3819" cy="-0.2773" r="0.0200"/><circle cx="0.3819" cy="-0.2505" r="0.0200"/><circle cx="0.3819" cy="-0.2224" r="0.0200"/><circle cx="0.3819" cy="-0.1931" r="0.0200"/><circle cx="0.3819" cy="-0.1628" r="0.0200"/><circle cx="0.3819" cy="-0.1318" r="0.0200"/><circle cx="0.3819" cy="-0.1002" r="0.0200"/><circle cx="0.3819" cy="-0.0682" r="0.0200"/><circle cx="0.3819" cy="-0.0359" r="0.0200"/><circle cx="0.3819" cy="-0.0037" r="0.0200"/><circle cx="0.3819" cy="0.0283" r="0.0200"/><circle cx="0.3819" cy="0.0599" r="0.0200"/><circle cx="0.3819" cy="0.0910" r="0.0200"/><circle cx="0.3819" cy="0.1212" r="0.0200"/><circle cx="0.3819" cy="0.1505" r="0.0200"/><circle cx="0.3819" cy="0.1786" r="0.0200"/><circle cx="0.3819" cy="0.2055" r="0.0200"/><circle cx="0.3819" cy="0.2308" r="0.0200"/><circle cx="0.3819" cy="0.2545" r="0.0200"/><circle cx="0.3819" cy="0.2763" r="0.0200"/><circle cx="0.3819" cy="0.2963" r="0.0200"/><circle cx="0.3819" cy="0.3142" r="0.0200"/><circle cx="0.3819" cy="0.3300" r="0.0200"/><circle cx="0.3819" cy="0.3435" r="0.0200"/><circle cx="0.3819" cy="0.3546" r="0.0200"/><circle cx="0.3819" cy="0.3634" r="0.0200"/><circle cx="0.3819" cy="0.3697" r="0.0200"/><circle cx="0.3819" cy="0.3735" r="0.0200"/><circle cx="0.3819" cy="0.3747" r="0.0200"/><circle cx="0.4430" cy="-0.4454" r="0.0200"/><circle cx="0.4430" cy="-0.4416" r="0.0200"/><circle cx="0.4430" cy="-0.4353" r="0.0200"/><circle cx="0.4430" cy="-0.4265" r="0.0200"/><circle cx="0.4430" cy="-0.4154" r="0.0200"/><circle cx="0.4430" cy="-0.4019" r="0.0200"/><circle cx="0.4430" cy="-0.3861" r="0.0200"/><circle cx="0.4430" cy="-0.3682" r="0.0200"/><circle cx="0.4430" cy="-0.3482" r="0.0200"/><circle cx="0.4430" cy="-0.3263" r="0.0200"/><circle cx="0.4430" cy="-0.3027" r="0.0200"/><circle cx="0.4430" cy="-0.2773" r="0.0200"/><circle cx="0.4430" cy="-0.2505" r="0.0200"/><circle cx="0.4430" cy="-0.2224" r="0.0200"/><circle cx="0.4430" cy="-0.1931" r="0.0200"/><circle cx="0.4430" cy="-0.1628" r="0.0200"/><circle cx="0.4430" cy="-0.1318" r="0.0200"/><circle cx="0.4430" cy="-0.1002" r="0.0200"/><circle cx="0.4430" cy="-0.0682" r="0.0200"/><circle cx="0.4430" cy="-0.0359" r="0.0200"/><circle cx="0.4430" cy="-0.0037" r="0.0200"/><circle cx="0.4430" cy="0.0283" r="0.0200"/><circle cx="0.4430" cy="0.0599" r="0.0200"/><circle cx="0.4430" cy="0.0910" r="0.0200"/><circle cx="0.4430" cy="0.1212" r="0.0200"/><circle cx="0.4430" cy="0.1505" r="0.0200"/><circle cx="0.4430" cy="0.1786" r="0.0200"/><circle cx="0.4430" cy="0.2055" r="0.0200"/><circle cx="0.4430" cy="0.2308" r="0.0200"/><circle cx="0.4430" cy="0.2545" r="0.0200"/><circle cx="0.4430" cy="0.2763" r="0.0200"/><circle cx="0.4430" cy="0.2963" r="0.0200"/><circle cx="0.4430" cy="0.3142" r="0.0200"/><circle cx="0.4430" cy="0.3300" r="0.0200"/><circle cx="0.4430" cy="0.3435" r="0.0200"/><circle cx="0.4430" cy="0.3546" r="0.0200"/><circle cx="0.4430" cy="0.3634" r="0.0200"/><circle cx="0.4430" cy="0.3697" r="0.0200"/><circle cx="0.4430" cy="0.3735" r="0.0200"/><circle cx="0.4430" cy="0.3747" r="0.0200"/><circle cx="0.4979" cy="-0.4454" r="0.0200"/><circle cx="0.4979" cy="-0.4416" r="0.0200"/><circle cx="0.4979" cy="-0.4353" r="0.0200"/><circle cx="0.4979" cy="-0.4265" r="0.0200"/><circle cx="0.4979" cy="-0.4154" r="0.0200"/><circle cx="0.4979" cy="-0.4019" r="0.0200"/><circle cx="0.4979" cy="-0.3861" r="0.0200"/><circle cx="0.4979" cy="-0.3682" r="0.0200"/><circle cx="0.4979" cy="-0.3482" r="0.0200"/><circle cx="0.4979" cy="-0.3263" r="0.0200"/><circle cx="0.4979" cy="-0.3027" r="0.0200"/><circle cx="0.4979" cy="-0.2773" r="0.0200"/><circle cx="0.4979" cy="-0.2505" r="0.0200"/><circle cx="0.4979" cy="-0.2224" r="0.0200"/><circle cx="0.4979" cy="-0.1931" r="0.0200"/><circle cx="0.4979" cy="-0.1628" r="0.0200"/><circle cx="0.4979" cy="-0.1318" r="0.0200"/><circle cx="0.4979" cy="-0.1002" r="0.0200"/><circle cx="0.4979" cy="-0.0682" r="0.0200"/><circle cx="0.4979" cy="-0.0359" r="0.0200"/><circle cx="0.4979" cy="-0.0037" r="0.0200"/><circle cx="0.4979" cy="0.0283" r="0.0200"/><circle cx="0.4979" cy="0.0599" r="0.0200"/><circle cx="0.4979" cy="0.0910" r="0.0200"/><circle cx="0.4979" cy="0.1212" r="0.0200"/><circle cx="0.4979" cy="0.1505" r="0.0200"/><circle cx="0.4979" cy="0.1786" r="0.0200"/><circle cx="0.4979" cy="0.2055" r="0.0200"/><circle cx="0.4979" cy="0.2308" r="0.0200"/><circle cx="0.4979" cy="0.2545" r="0.0200"/><circle cx="0.4979" cy="0.2763" r="0.0200"/><circle cx="0.4979" cy="0.2963" r="0.0200"/><circle cx="0.4979" cy="0.3142" r="0.0200"/><circle cx="0.4979" cy="0.3300" r="0.0200"/><circle cx="0.4979" cy="0.3435" r="0.0200"/><circle cx="0.4979" cy="0.3546" r="0.0200"/><circle cx="0.4979" cy="0.3634" r="0.0200"/><circle cx="0.4979" cy="0.3697" r="0.0200"/><circle cx="0.4979" cy="0.3735" r="0.0200"/><circle cx="0.4979" cy="0.3747" r="0.0200"/><circle cx="0.5461" cy="-0.4454" r="0.0200"/><circle cx="0.5461" cy="-0.4416" r="0.0200"/><circle cx="0.5461" cy="-0.4353" r="0.0200"/><circle cx="0.5461" cy="-0.4265" r="0.0200"/><circle cx="0.5461" cy="-0.4154" r="0.0200"/><circle cx="0.5461" cy="-0.4019" r="0.0200"/><circle cx="0.5461" cy="-0.3861" r="0.0200"/><circle cx="0.5461" cy="-0.3682" r="0.0200"/><circle cx="0.5461" cy="-0.3482" r="0.0200"/><circle cx="0.5461" cy="-0.3263" r="0.0200"/><circle cx="0.5461" cy="-0.3027" r="0.0200"/><circle cx="0.5461" cy="-0.2773" r="0.0200"/><circle cx="0.5461" cy="-0.2505" r="0.0200"/><circle cx="0.5461" cy="-0.2224" r="0.0200"/><circle cx="0.5461" cy="-0.1931" r="0.0200"/><circle cx="0.5461" cy="-0.1628" r="0.0200"/><circle cx="0.5461" cy="-0.1318" r="0.0200"/><circle cx="0.5461" cy="-0.1002" r="0.0200"/><circle cx="0.5461" cy="-0.0682" r="0.0200"/><circle cx="0.5461" cy="-0.0359" r="0.0200"/><circle cx="0.5461" cy="-0.0037" r="0.0200"/><circle cx="0.5461" cy="0.0283" r="0.0200"/><circle cx="0.5461" cy="0.0599" r="0.0200"/><circle cx="0.5461" cy="0.0910" r="0.0200"/><circle cx="0.5461" cy="0.1212" r="0.0200"/><circle cx="0.5461" cy="0.1505" r="0.0200"/><circle cx="0.5461" cy="0.1786" r="0.0200"/><circle cx="0.5461" cy="0.2055" r="0.0200"/><circle cx="0.5461" cy="0.2308" r="0.0200"/><circle cx="0.5461" cy="0.2545" r="0.0200"/><circle cx="0.5461" cy="0.2763" r="0.0200"/><circle cx="0.5461" cy="0.2963" r="0.0200"/><circle cx="0.5461" cy="0.3142" r="0.0200"/><circle cx="0.5461" cy="0.3300" r="0.0200"/><circle cx="0.5461" cy="0.3435" r="0.0200"/><circle cx="0.5461" cy="0.3546" r="0.0200"/><circle cx="0.5461" cy="0.3634" r="0.0200"/><circle cx="0.5461" cy="0.3697" r="0.0200"/><circle cx="0.5461" cy="0.3735" r="0.0200"/><circle cx="0.5461" cy="0.3747" r="0.0200"/><circle cx="0.5874" cy="-0.4454" r="0.0200"/><circle cx="0.5874" cy="-0.4416" r="0.0200"/><circle cx="0.5874" cy="-0.4353" r="0.0200"/><circle cx="0.5874" cy="-0.4265" r="0.0200"/><circle cx="0.5874" cy="-0.4154" r="0.0200"/><circle cx="0.5874" cy="-0.4019" r="0.0200"/><circle cx="0.5874" cy="-0.3861" r="0.0200"/><circle cx="0.5874" cy="-0.3682" r="0.0200"/><circle cx="0.5874" cy="-0.3482" r="0.0200"/><circle cx="0.5874" cy="-0.3263" r="0.0200"/><circle cx="0.5874" cy="-0.3027" r="0.0200"/><circle cx="0.5874" cy="-0.2773" r="0.0200"/><circle cx="0.5874" cy="-0.2505" r="0.0200"/><circle cx="0.5874" cy="-0.2224" r="0.0200"/><circle cx="0.5874" cy="-0.1931" r="0.0200"/><circle cx="0.5874" cy="-0.1628" r="0.0200"/><circle cx="0.5874" cy="-0.1318" r="0.0200"/><circle cx="0.5874" cy="-0.1002" r="0.0200"/><circle cx="0.5874" cy="-0.0682" r="0.0200"/><circle cx="0.5874" cy="-0.0359" r="0.0200"/><circle cx="0.5874" cy="-0.0037" r="0.0200"/><circle cx="0.5874" cy="0.0283" r="0.0200"/><circle cx="0.5874" cy="0.0599" r="0.0200"/><circle cx="0.5874" cy="0.0910" r="0.0200"/><circle cx="0.5874" cy="0.1212" r="0.0200"/><circle cx="0.5874" cy="0.1505" r="0.0200"/><circle cx="0.5874" cy="0.1786" r="0.0200"/><circle cx="0.5874" cy="0.2055" r="0.0200"/><circle cx="0.5874" cy="0.2308" r="0.0200"/><circle cx="0.5874" cy="0.2545" r="0.0200"/><circle cx="0.5874" cy="0.2763" r="0.0200"/><circle cx="0.5874" cy="0.2963" r="0.0200"/><circle cx="0.5874" cy="0.3142" r="0.0200"/><circle cx="0.5874" cy="0.3300" r="0.0200"/><circle cx="0.5874" cy="0.3435" r="0.0200"/><circle cx="0.5874" cy="0.3546" r="0.0200"/><circle cx="0.5874" cy="0.3634" r="0.0200"/><circle cx="0.5874" cy="0.3697" r="0.0200"/><circle cx="0.5874" cy="0.3735" r="0.0200"/><circle cx="0.5874" cy="0.3747" r="0.0200"/><circle cx="0.6216" cy="-0.4454" r="0.0200"/><circle cx="0.6216" cy="-0.4416" r="0.0200"/><circle cx="0.6216" cy="-0.4353" r="0.0200"/><circle cx="0.6216" cy="-0.4265" r="0.0200"/><circle cx="0.6216" cy="-0.4154" r="0.0200"/><circle cx="0.6216" cy="-0.4019" r="0.0200"/><circle cx="0.6216" cy="-0.3861" r="0.0200"/><circle cx="0.6216" cy="-0.3682" r="0.0200"/><circle cx="0.6216" cy="-0.3482" r="0.0200"/><circle cx="0.6216" cy="-0.3263" r="0.0200"/><circle cx="0.6216" cy="-0.3027" r="0.0200"/><circle cx="0.6216" cy="-0.2773" r="0.0200"/><circle cx="0.6216" cy="-0.2505" r="0.0200"/><circle cx="0.6216" cy="-0.2224" r="0.0200"/><circle cx="0.6216" cy="-0.1931" r="0.0200"/><circle cx="0.6216" cy="-0.1628" r="0.0200"/><circle cx="0.6216" cy="-0.1318" r="0.0200"/><circle cx="0.6216" cy="-0.1002" r="0.0200"/><circle cx="0.6216" cy="-0.0682" r="0.0200"/><circle cx="0.6216" cy="-0.0359" r="0.0200"/><circle cx="0.6216" cy="-0.0037" r="0.0200"/><circle cx="0.6216" cy="0.0283" r="0.0200"/><circle cx="0.6216" cy="0.0599" r="0.0200"/><circle cx="0.6216" cy="0.0910" r="0.0200"/><circle cx="0.6216" cy="0.1212" r="0.0200"/><circle cx="0.6216" cy="0.1505" r="0.0200"/><circle cx="0.6216" cy="0.1786" r="0.0200"/><circle cx="0.6216" cy="0.2055" r="0.0200"/><circle cx="0.6216" cy="0.2308" r="0.0200"/><circle cx="0.6216" cy="0.2545" r="0.0200"/><circle cx="0.6216" cy="0.2763" r="0.0200"/><circle cx="0.6216" cy="0.2963" r="0.0200"/><circle cx="0.6216" cy="0.3142" r="0.0200"/><circle cx="0.6216" cy="0.3300" r="0.0200"/><circle cx="0.6216" cy="0.3435" r="0.0200"/><circle cx="0.6216" cy="0.3546" r="0.0200"/><circle cx="0.6216" cy="0.3634" r="0.0200"/><circle cx="0.6216" cy="0.3697" r="0.0200"/><circle cx="0.6216" cy="0.3735" r="0.0200"/><circle cx="0.6216" cy="0.3747" r="0.0200"/><circle cx="0.6484" cy="-0.4454" r="0.0200"/><circle cx="0.6484" cy="-0.4416" r="0.0200"/><circle cx="0.6484" cy="-0.4353" r="0.0200"/><circle cx="0.6484" cy="-0.4265" r="0.0200"/><circle cx="0.6484" cy="-0.4154" r="0.0200"/><circle cx="0.6484" cy="-0.4019" r="0.0200"/><circle cx="0.6484" cy="-0.3861" r="0.0200"/><circle cx="0.6484" cy="-0.3682" r="0.0200"/><circle cx="0.6484" cy="-0.3482" r="0.0200"/><circle cx="0.6484" cy="-0.3263" r="0.0200"/><circle cx="0.6484" cy="-0.3027" r="0.0200"/><circle cx="0.6484" cy="-0.2773" r="0.0200"/><circle cx="0.6484" cy="-0.2505" r="0.0200"/><circle cx="0.6484" cy="-0.2224" r="0.0200"/><circle cx="0.6484" cy="-0.1931" r="0.0200"/><circle cx="0.6484" cy="-0.1628" r="0.0200"/><circle cx="0.6484" cy="-0.1318" r="0.0200"/><circle cx="0.6484" cy="-0.1002" r="0.0200"/><circle cx="0.6484" cy="-0.0682" r="0.0200"/><circle cx="0.6484" cy="-0.0359" r="0.0200"/><circle cx="0.6484" cy="-0.0037" r="0.0200"/><circle cx="0.6484" cy="0.0283" r="0.0200"/><circle cx="0.6484" cy="0.0599" r="0.0200"/><circle cx="0.6484" cy="0.0910" r="0.0200"/><circle cx="0.6484" cy="0.1212" r="0.0200"/><circle cx="0.6484" cy="0.1505" r="0.0200"/><circle cx="0.6484" cy="0.1786" r="0.0200"/><circle cx="0.6484" cy="0.2055" r="0.0200"/><circle cx="0.6484" cy="0.2308" r="0.0200"/><circle cx="0.6484" cy="0.2545" r="0.0200"/><circle cx="0.6484" cy="0.2763" r="0.0200"/><circle cx="0.6484" cy="0.2963" r="0.0200"/><circle cx="0.6484" cy="0.3142" r="0.0200"/><circle cx="0.6484" cy="0.3300" r="0.0200"/><circle cx="0.6484" cy="0.3435" r="0.0200"/><circle cx="0.6484" cy="0.3546" r="0.0200"/><circle cx="0.6484" cy="0.3634" r="0.0200"/><circle cx="0.6484" cy="0.3697" r="0.0200"/><circle cx="0.6484" cy="0.3735" r="0.0200"/><circle cx="0.6484" cy="0.3747" r="0.0200"/><circle cx="0.6676" cy="-0.4454" r="0.0200"/><circle cx="0.6676" cy="-0.4416" r="0.0200"/><circle cx="0.6676" cy="-0.4353" r="0.0200"/><circle cx="0.6676" cy="-0.4265" r="0.0200"/><circle cx="0.6676" cy="-0.4154" r="0.0200"/><circle cx="0.6676" cy="-0.4019" r="0.0200"/><circle cx="0.6676" cy="-0.3861" r="0.0200"/><circle cx="0.6676" cy="-0.3682" r="0.0200"/><circle cx="0.6676" cy="-0.3482" r="0.0200"/><circle cx="0.6676" cy="-0.3263" r="0.0200"/><circle cx="0.6676" cy="-0.3027" r="0.0200"/><circle cx="0.6676" cy="-0.2773" r="0.0200"/><circle cx="0.6676" cy="-0.2505" r="0.0200"/><circle cx="0.6676" cy="-0.2224" r="0.0200"/><circle cx="0.6676" cy="-0.1931" r="0.0200"/><circle cx="0.6676" cy="-0.1628" r="0.0200"/><circle cx="0.6676" cy="-0.1318" r="0.0200"/><circle cx="0.6676" cy="-0.1002" r="0.0200"/><circle cx="0.6676" cy="-0.0682" r="0.0200"/><circle cx="0.6676" cy="-0.0359" r="0.0200"/><circle cx="0.6676" cy="-0.0037" r="0.0200"/><circle cx="0.6676" cy="0.0283" r="0.0200"/><circle cx="0.6676" cy="0.0599" r="0.0200"/><circle cx="0.6676" cy="0.0910" r="0.0200"/><circle cx="0.6676" cy="0.1212" r="0.0200"/><circle cx="0.6676" cy="0.1505" r="0.0200"/><circle cx="0.6676" cy="0.1786" r="0.0200"/><circle cx="0.6676" cy="0.2055" r="0.0200"/><circle cx="0.6676" cy="0.2308" r="0.0200"/><circle cx="0.6676" cy="0.2545" r="0.0200"/><circle cx="0.6676" cy="0.2763" r="0.0200"/><circle cx="0.6676" cy="0.2963" r="0.0200"/><circle cx="0.6676" cy="0.3142" r="0.0200"/><circle cx="0.6676" cy="0.3300" r="0.0200"/><circle cx="0.6676" cy="0.3435" r="0.0200"/><circle cx="0.6676" cy="0.3546" r="0.0200"/><circle cx="0.6676" cy="0.3634" r="0.0200"/><circle cx="0.6676" cy="0.3697" r="0.0200"/><circle cx="0.6676" cy="0.3735" r="0.0200"/><circle cx="0.6676" cy="0.3747" r="0.0200"/><circle cx="0.6792" cy="-0.4454" r="0.0200"/><circle cx="0.6792" cy="-0.4416" r="0.0200"/><circle cx="0.6792" cy="-0.4353" r="0.0200"/><circle cx="0.6792" cy="-0.4265" r="0.0200"/><circle cx="0.6792" cy="-0.4154" r="0.0200"/><circle cx="0.6792" cy="-0.4019" r="0.0200"/><circle cx="0.6792" cy="-0.3861" r="0.0200"/><circle cx="0.6792" cy="-0.3682" r="0.0200"/><circle cx="0.6792" cy="-0.3482" r="0.0200"/><circle cx="0.6792" cy="-0.3263" r="0.0200"/><circle cx="0.6792" cy="-0.3027" r="0.0200"/><circle cx="0.6792" cy="-0.2773" r="0.0200"/><circle cx="0.6792" cy="-0.2505" r="0.0200"/><circle cx="0.6792" cy="-0.2224" r="0.0200"/><circle cx="0.6792" cy="-0.1931" r="0.0200"/><circle cx="0.6792" cy="-0.1628" r="0.0200"/><circle cx="0.6792" cy="-0.1318" r="0.0200"/><circle cx="0.6792" cy="-0.1002" r="0.0200"/><circle cx="0.6792" cy="-0.0682" r="0.0200"/><circle cx="0.6792" cy="-0.0359" r="0.0200"/><circle cx="0.6792" cy="-0.0037" r="0.0200"/><circle cx="0.6792" cy="0.0283" r="0.0200"/><circle cx="0.6792" cy="0.0599" r="0.0200"/><circle cx="0.6792" cy="0.0910" r="0.0200"/><circle cx="0.6792" cy="0.1212" r="0.0200"/><circle cx="0.6792" cy="0.1505" r="0.0200"/><circle cx="0.6792" cy="0.1786" r="0.0200"/><circle cx="0.6792" cy="0.2055" r="0.0200"/><circle cx="0.6792" cy="0.2308" r="0.0200"/><circle cx="0.6792" cy="0.2545" r="0.0200"/><circle cx="0.6792" cy="0.2763" r="0.0200"/><circle cx="0.6792" cy="0.2963" r="0.0200"/><circle cx="0.6792" cy="0.3142" r="0.0200"/><circle cx="0.6792" cy="0.3300" r="0.0200"/><circle cx="0.6792" cy="0.3435" r="0.0200"/><circle cx="0.6792" cy="0.3546" r="0.0200"/><circle cx="0.6792" cy="0.3634" r="0.0200"/><circle cx="0.6792" cy="0.3697" r="0.0200"/><circle cx="0.6792" cy="0.3735" r="0.0200"/><circle cx="0.6792" cy="0.3747" r="0.0200"/><circle cx="0.6831" cy="-0.4454" r="0.0200"/><circle cx="0.6831" cy="-0.4416" r="0.0200"/><circle cx="0.6831" cy="-0.4353" r="0.0200"/><circle cx="0.6831" cy="-0.4265" r="0.0200"/><circle cx="0.6831" cy="-0.4154" r="0.0200"/><circle cx="0.6831" cy="-0.4019" r="0.0200"/><circle cx="0.6831" cy="-0.3861" r="0.0200"/><circle cx="0.6831" cy="-0.3682" r="0.0200"/><circle cx="0.6831" cy="-0.3482" r="0.0200"/><circle cx="0.6831" cy="-0.3263" r="0.0200"/><circle cx="0.6831" cy="-0.3027" r="0.0200"/><circle cx="0.6831" cy="-0.2773" r="0.0200"/><circle cx="0.6831" cy="-0.2505" r="0.0200"/><circle cx="0.6831" cy="-0.2224" r="0.0200"/><circle cx="0.6831" cy="-0.1931" r="0.0200"/><circle cx="0.6831" cy="-0.1628" r="0.0200"/><circle cx="0.6831" cy="-0.1318" r="0.0200"/><circle cx="0.6831" cy="-0.1002" r="0.0200"/><circle cx="0.6831" cy="-0.0682" r="0.0200"/><circle cx="0.6831" cy="-0.0359" r="0.0200"/><circle cx="0.6831" cy="-0.0037" r="0.0200"/><circle cx="0.6831" cy="0.0283" r="0.0200"/><circle cx="0.6831" cy="0.0599" r="0.0200"/><circle cx="0.6831" cy="0.0910" r="0.0200"/><circle cx="0.6831" cy="0.1212" r="0.0200"/><circle cx="0.6831" cy="0.1505" r="0.0200"/><circle cx="0.6831" cy="0.1786" r="0.0200"/><circle cx="0.6831" cy="0.2055" r="0.0200"/><circle cx="0.6831" cy="0.2308" r="0.0200"/><circle cx="0.6831" cy="0.2545" r="0.0200"/><circle cx="0.6831" cy="0.2763" r="0.0200"/><circle cx="0.6831" cy="0.2963" r="0.0200"/><circle cx="0.6831" cy="0.3142" r="0.0200"/><circle cx="0.6831" cy="0.3300" r="0.0200"/><circle cx="0.6831" cy="0.3435" r="0.0200"/><circle cx="0.6831" cy="0.3546" r="0.0200"/><circle cx="0.6831" cy="0.3634" r="0.0200"/><circle cx="0.6831" cy="0.3697" r="0.0200"/><circle cx="0.6831" cy="0.3735" r="0.0200"/><circle cx="0.6831" cy="0.3747" r="0.0200"/><circle cx="0.6792" cy="-0.4454" r="0.0200"/><circle cx="0.6792" cy="-0.4416" r="0.0200"/><circle cx="0.6792" cy="-0.4353" r="0.0200"/><circle cx="0.6792" cy="-0.4265" r="0.0200"/><circle cx="0.6792" cy="-0.4154" r="0.0200"/><circle cx="0.6792" cy="-0.4019" r="0.0200"/><circle cx="0.6792" cy="-0.3861" r="0.0200"/><circle cx="0.6792" cy="-0.3682" r="0.0200"/><circle cx="0.6792" cy="-0.3482" r="0.0200"/><circle cx="0.6792" cy="-0.3263" r="0.0200"/><circle cx="0.6792" cy="-0.3027" r="0.0200"/><circle cx="0.6792" cy="-0.2773" r="0.0200"/><circle cx="0.6792" cy="-0.2505" r="0.0200"/><circle cx="0.6792" cy="-0.2224" r="0.0200"/><circle cx="0.6792" cy="-0.1931" r="0.0200"/><circle cx="0.6792" cy="-0.1628" r="0.0200"/><circle cx="0.6792" cy="-0.1318" r="0.0200"/><circle cx="0.6792" cy="-0.1002" r="0.0200"/><circle cx="0.6792" cy="-0.0682" r="0.0200"/><circle cx="0.6792" cy="-0.0359" r="0.0200"/><circle cx="0.6792" cy="-0.0037" r="0.0200"/><circle cx="0.6792" cy="0.0283" r="0.0200"/><circle cx="0.6792" cy="0.0599" r="0.0200"/><circle cx="0.6792" cy="0.0910" r="0.0200"/><circle cx="0.6792" cy="0.1212" r="0.0200"/><circle cx="0.6792" cy="0.1505" r="0.0200"/><circle cx="0.6792" cy="0.1786" r="0.0200"/><circle cx="0.6792" cy="0.2055" r="0.0200"/><circle cx="0.6792" cy="0.2308" r="0.0200"/><circle cx="0.6792" cy="0.2545" r="0.0200"/><circle cx="0.6792" cy="0.2763" r="0.0200"/><circle cx="0.6792" cy="0.2963" r="0.0200"/><circle cx="0.6792" cy="0.3142" r="0.0200"/><circle cx="0.6792" cy="0.3300" r="0.0200"/><circle cx="0.6792" cy="0.3435" r="0.0200"/><circle cx="0.6792" cy="0.3546" r="0.0200"/><circle cx="0.6792" cy="0.3634" r="0.0200"/><circle cx="0.6792" cy="0.3697" r="0.0200"/><circle cx="0.6792" cy="0.3735" r="0.0200"/><circle cx="0.6792" cy="0.3747" r="0.0200"/><circle cx="0.6676" cy="-0.4454" r="0.0200"/><circle cx="0.6676" cy="-0.4416" r="0.0200"/><circle cx="0.6676" cy="-0.4353" r="0.0200"/><circle cx="0.6676" cy="-0.4265" r="0.0200"/><circle cx="0.6676" cy="-0.4154" r="0.0200"/><circle cx="0.6676" cy="-0.4019" r="0.0200"/><circle cx="0.6676" cy="-0.3861" r="0.0200"/><circle cx="0.6676" cy="-0.3682" r="0.0200"/><circle cx="0.6676" cy="-0.3482" r="0.0200"/><circle cx="0.6676" cy="-0.3263" r="0.0200"/><circle cx="0.6676" cy="-0.3027" r="0.0200"/><circle cx="0.6676" cy="-0.2773" r="0.0200"/><circle cx="0.6676" cy="-0.2505" r="0.0200"/><circle cx="0.6676" cy="-0.2224" r="0.0200"/><circle cx="0.6676" cy="-0.1931" r="0.0200"/><circle cx="0.6676" cy="-0.1628" r="0.0200"/><circle cx="0.6676" cy="-0.1318" r="0.0200"/><circle cx="0.6676" cy="-0.1002" r="0.0200"/><circle cx="0.6676" cy="-0.0682" r="0.0200"/><circle cx="0.6676" cy="-0.0359" r="0.0200"/><circle cx="0.6676" cy="-0.0037" r="0.0200"/><circle cx="0.6676" cy="0.0283" r="0.0200"/><circle cx="0.6676" cy="0.0599" r="0.0200"/><circle cx="0.6676" cy="0.0910" r="0.0200"/><circle cx="0.6676" cy="0.1212" r="0.0200"/><circle cx="0.6676" cy="0.1505" r="0.0200"/><circle cx="0.6676" cy="0.1786" r="0.0200"/><circle cx="0.6676" cy="0.2055" r="0.0200"/><circle cx="0.6676" cy="0.2308" r="0.0200"/><circle cx="0.6676" cy="0.2545" r="0.0200"/><circle cx="0.6676" cy="0.2763" r="0.0200"/><circle cx="0.6676" cy="0.2963" r="0.0200"/><circle cx="0.6676" cy="0.3142" r="0.0200"/><circle cx="0.6676" cy="0.3300" r="0.0200"/><circle cx="0.6676" cy="0.3435" r="0.0200"/><circle cx="0.6676" cy="0.3546" r="0.0200"/><circle cx="0.6676" cy="0.3634" r="0.0200"/><circle cx="0.6676" cy="0.3697" r="0.0200"/><circle cx="0.6676" cy="0.3735" r="0.0200"/><circle cx="0.6676" cy="0.3747" r="0.0200"/><circle cx="0.6484" cy="-0.4454" r="0.0200"/><circle cx="0.6484" cy="-0.4416" r="0.0200"/><circle cx="0.6484" cy="-0.4353" r="0.0200"/><circle cx="0.6484" cy="-0.4265" r="0.0200"/><circle cx="0.6484" cy="-0.4154" r="0.0200"/><circle cx="0.6484" cy="-0.4019" r="0.0200"/><circle cx="0.6484" cy="-0.3861" r="0.0200"/><circle cx="0.6484" cy="-0.3682" r="0.0200"/><circle cx="0.6484" cy="-0.3482" r="0.0200"/><circle cx="0.6484" cy="-0.3263" r="0.0200"/><circle cx="0.6484" cy="-0.3027" r="0.0200"/><circle cx="0.6484" cy="-0.2773" r="0.0200"/><circle cx="0.6484" cy="-0.2505" r="0.0200"/><circle cx="0.6484" cy="-0.2224" r="0.0200"/><circle cx="0.6484" cy="-0.1931" r="0.0200"/><circle cx="0.6484" cy="-0.1628" r="0.0200"/><circle cx="0.6484" cy="-0.1318" r="0.0200"/><circle cx="0.6484" cy="-0.1002" r="0.0200"/><circle cx="0.6484" cy="-0.0682" r="0.0200"/><circle cx="0.6484" cy="-0.0359" r="0.0200"/><circle cx="0.6484" cy="-0.0037" r="0.0200"/><circle cx="0.6484" cy="0.0283" r="0.0200"/><circle cx="0.6484" cy="0.0599" r="0.0200"/><circle cx="0.6484" cy="0.0910" r="0.0200"/><circle cx="0.6484" cy="0.1212" r="0.0200"/><circle cx="0.6484" cy="0.1505" r="0.0200"/><circle cx="0.6484" cy="0.1786" r="0.0200"/><circle cx="0.6484" cy="0.2055" r="0.0200"/><circle cx="0.6484" cy="0.2308" r="0.0200"/><circle cx="0.6484" cy="0.2545" r="0.0200"/><circle cx="0.6484" cy="0.2763" r="0.0200"/><circle cx="0.6484" cy="0.2963" r="0.0200"/><circle cx="0.6484" cy="0.3142" r="0.0200"/><circle cx="0.6484" cy="0.3300" r="0.0200"/><circle cx="0.6484" cy="0.3435" r="0.0200"/><circle cx="0.6484" cy="0.3546" r="0.0200"/><circle cx="0.6484" cy="0.3634" r="0.0200"/><circle cx="0.6484" cy="0.3697" r="0.0200"/><circle cx="0.6484" cy="0.3735" r="0.0200"/><circle cx="0.6484" cy="0.3747" r="0.0200"/><circle cx="0.6216" cy="-0.4454" r="0.0200"/><circle cx="0.6216" cy="-0.4416" r="0.0200"/><circle cx="0.6216" cy="-0.4353" r="0.0200"/><circle cx="0.6216" cy="-0.4265" r="0.0200"/><circle cx="0.6216" cy="-0.4154" r="0.0200"/><circle cx="0.6216" cy="-0.4019" r="0.0200"/><circle cx="0.6216" cy="-0.3861" r="0.0200"/><circle cx="0.6216" cy="-0.3682" r="0.0200"/><circle cx="0.6216" cy="-0.3482" r="0.0200"/><circle cx="0.6216" cy="-0.3263" r="0.0200"/><circle cx="0.6216" cy="-0.3027" r="0.0200"/><circle cx="0.6216" cy="-0.2773" r="0.0200"/><circle cx="0.6216" cy="-0.2505" r="0.0200"/><circle cx="0.6216" cy="-0.2224" r="0.0200"/><circle cx="0.6216" cy="-0.1931" r="0.0200"/><circle cx="0.6216" cy="-0.1628" r="0.0200"/><circle cx="0.6216" cy="-0.1318" r="0.0200"/><circle cx="0.6216" cy="-0.1002" r="0.0200"/><circle cx="0.6216" cy="-0.0682" r="0.0200"/><circle cx="0.6216" cy="-0.0359" r="0.0200"/><circle cx="0.6216" cy="-0.0037" r="0.0200"/><circle cx="0.6216" cy="0.0283" r="0.0200"/><circle cx="0.6216" cy="0.0599" r="0.0200"/><circle cx="0.6216" cy="0.0910" r="0.0200"/><circle cx="0.6216" cy="0.1212" r="0.0200"/><circle cx="0.6216" cy="0.1505" r="0.0200"/><circle cx="0.6216" cy="0.1786" r="0.0200"/><circle cx="0.6216" cy="0.2055" r="0.0200"/><circle cx="0.6216" cy="0.2308" r="0.0200"/><circle cx="0.6216" cy="0.2545" r="0.0200"/><circle cx="0.6216" cy="0.2763" r="0.0200"/><circle cx="0.6216" cy="0.2963" r="0.0200"/><circle cx="0.6216" cy="0.3142" r="0.0200"/><circle cx="0.6216" cy="0.3300" r="0.0200"/><circle cx="0.6216" cy="0.3435" r="0.0200"/><circle cx="0.6216" cy="0.3546" r="0.0200"/><circle cx="0.6216" cy="0.3634" r="0.0200"/><circle cx="0.6216" cy="0.3697" r="0.0200"/><circle cx="0.6216" cy="0.3735" r="0.0200"/><circle cx="0.6216" cy="0.3747" r="0.0200"/><circle cx="0.5874" cy="-0.4454" r="0.0200"/><circle cx="0.5874" cy="-0.4416" r="0.0200"/><circle cx="0.5874" cy="-0.4353" r="0.0200"/><circle cx="0.5874" cy="-0.4265" r="0.0200"/><circle cx="0.5874" cy="-0.4154" r="0.0200"/><circle cx="0.5874" cy="-0.4019" r="0.0200"/><circle cx="0.5874" cy="-0.3861" r="0.0200"/><circle cx="0.5874" cy="-0.3682" r="0.0200"/><circle cx="0.5874" cy="-0.3482" r="0.0200"/><circle cx="0.5874" cy="-0.3263" r="0.0200"/><circle cx="0.5874" cy="-0.3027" r="0.0200"/><circle cx="0.5874" cy="-0.2773" r="0.0200"/><circle cx="0.5874" cy="-0.2505" r="0.0200"/><circle cx="0.5874" cy="-0.2224" r="0.0200"/><circle cx="0.5874" cy="-0.1931" r="0.0200"/><circle cx="0.5874" cy="-0.1628" r="0.0200"/><circle cx="0.5874" cy="-0.1318" r="0.0200"/><circle cx="0.5874" cy="-0.1002" r="0.0200"/><circle cx="0.5874" cy="-0.0682" r="0.0200"/><circle cx="0.5874" cy="-0.0359" r="0.0200"/><circle cx="0.5874" cy="-0.0037" r="0.0200"/><circle cx="0.5874" cy="0.0283" r="0.0200"/><circle cx="0.5874" cy="0.0599" r="0.0200"/><circle cx="0.5874" cy="0.0910" r="0.0200"/><circle cx="0.5874" cy="0.1212" r="0.0200"/><circle cx="0.5874" cy="0.1505" r="0.0200"/><circle cx="0.5874" cy="0.1786" r="0.0200"/><circle cx="0.5874" cy="0.2055" r="0.0200"/><circle cx="0.5874" cy="0.2308" r="0.0200"/><circle cx="0.5874" cy="0.2545" r="0.0200"/><circle cx="0.5874" cy="0.2763" r="0.0200"/><circle cx="0.5874" cy="0.2963" r="0.0200"/><circle cx="0.5874" cy="0.3142" r="0.0200"/><circle cx="0.5874" cy="0.3300" r="0.0200"/><circle cx="0.5874" cy="0.3435" r="0.0200"/><circle cx="0.5874" cy="0.3546" r="0.0200"/><circle cx="0.5874" cy="0.3634" r="0.0200"/><circle cx="0.5874" cy="0.3697" r="0.0200"/><circle cx="0.5874" cy="0.3735" r="0.0200"/><circle cx="0.5874" cy="0.3747" r="0.0200"/><circle cx="0.5461" cy="-0.4454" r="0.0200"/><circle cx="0.5461" cy="-0.4416" r="0.0200"/><circle cx="0.5461" cy="-0.4353" r="0.0200"/><circle cx="0.5461" cy="-0.4265" r="0.0200"/><circle cx="0.5461" cy="-0.4154" r="0.0200"/><circle cx="0.5461" cy="-0.4019" r="0.0200"/><circle cx="0.5461" cy="-0.3861" r="0.0200"/><circle cx="0.5461" cy="-0.3682" r="0.0200"/><circle cx="0.5461" cy="-0.3482" r="0.0200"/><circle cx="0.5461" cy="-0.3263" r="0.0200"/><circle cx="0.5461" cy="-0.3027" r="0.0200"/><circle cx="0.5461" cy="-0.2773" r="0.0200"/><circle cx="0.5461" cy="-0.2505" r="0.0200"/><circle cx="0.5461" cy="-0.2224" r="0.0200"/><circle cx="0.5461" cy="-0.1931" r="0.0200"/><circle cx="0.5461" cy="-0.1628" r="0.0200"/><circle cx="0.5461" cy="-0.1318" r="0.0200"/><circle cx="0.5461" cy="-0.1002" r="0.0200"/><circle cx="0.5461" cy="-0.0682" r="0.0200"/><circle cx="0.5461" cy="-0.0359" r="0.0200"/><circle cx="0.5461" cy="-0.0037" r="0.0200"/><circle cx="0.5461" cy="0.0283" r="0.0200"/><circle cx="0.5461" cy="0.0599" r="0.0200"/><circle cx="0.5461" cy="0.0910" r="0.0200"/><circle cx="0.5461" cy="0.1212" r="0.0200"/><circle cx="0.5461" cy="0.1505" r="0.0200"/><circle cx="0.5461" cy="0.1786" r="0.0200"/><circle cx="0.5461" cy="0.2055" r="0.0200"/><circle cx="0.5461" cy="0.2308" r="0.0200"/><circle cx="0.5461" cy="0.2545" r="0.0200"/><circle cx="0.5461" cy="0.2763" r="0.0200"/><circle cx="0.5461" cy="0.2963" r="0.0200"/><circle cx="0.5461" cy="0.3142" r="0.0200"/><circle cx="0.5461" cy="0.3300" r="0.0200"/><circle cx="0.5461" cy="0.3435" r="0.0200"/><circle cx="0.5461" cy="0.3546" r="0.0200"/><circle cx="0.5461" cy="0.3634" r="0.0200"/><circle cx="0.5461" cy="0.3697" r="0.0200"/><circle cx="0.5461" cy="0.3735" r="0.0200"/><circle cx="0.5461" cy="0.3747" r="0.0200"/><circle cx="0.4979" cy="-0.4454" r="0.0200"/><circle cx="0.4979" cy="-0.4416" r="0.0200"/><circle cx="0.4979" cy="-0.4353" r="0.0200"/><circle cx="0.4979" cy="-0.4265" r="0.0200"/><circle cx="0.4979" cy="-0.4154" r="0.0200"/><circle cx="0.4979" cy="-0.4019" r="0.0200"/><circle cx="0.4979" cy="-0.3861" r="0.0200"/><circle cx="0.4979" cy="-0.3682" r="0.0200"/><circle cx="0.4979" cy="-0.3482" r="0.0200"/><circle cx="0.4979" cy="-0.3263" r="0.0200"/><circle cx="0.4979" cy="-0.3027" r="0.0200"/><circle cx="0.4979" cy="-0.2773" r="0.0200"/><circle cx="0.4979" cy="-0.2505" r="0.0200"/><circle cx="0.4979" cy="-0.2224" r="0.0200"/><circle cx="0.4979" cy="-0.1931" r="0.0200"/><circle cx="0.4979" cy="-0.1628" r="0.0200"/><circle cx="0.4979" cy="-0.1318" r="0.0200"/><circle cx="0.4979" cy="-0.1002" r="0.0200"/><circle cx="0.4979" cy="-0.0682" r="0.0200"/><circle cx="0.4979" cy="-0.0359" r="0.0200"/><circle cx="0.4979" cy="-0.0037" r="0.0200"/><circle cx="0.4979" cy="0.0283" r="0.0200"/><circle cx="0.4979" cy="0.0599" r="0.0200"/><circle cx="0.4979" cy="0.0910" r="0.0200"/><circle cx="0.4979" cy="0.1212" r="0.0200"/><circle cx="0.4979" cy="0.1505" r="0.0200"/><circle cx="0.4979" cy="0.1786" r="0.0200"/><circle cx="0.4979" cy="0.2055" r="0.0200"/><circle cx="0.4979" cy="0.2308" r="0.0200"/><circle cx="0.4979" cy="0.2545" r="0.0200"/><circle cx="0.4979" cy="0.2763" r="0.0200"/><circle cx="0.4979" cy="0.2963" r="0.0200"/><circle cx="0.4979" cy="0.3142" r="0.0200"/><circle cx="0.4979" cy="0.3300" r="0.0200"/><circle cx="0.4979" cy="0.3435" r="0.0200"/><circle cx="0.4979" cy="0.3546" r="0.0200"/><circle cx="0.4979" cy="0.3634" r="0.0200"/><circle cx="0.4979" cy="0.3697" r="0.0200"/><circle cx="0.4979" cy="0.3735" r="0.0200"/><circle cx="0.4979" cy="0.3747" r="0.0200"/><circle cx="0.4430" cy="-0.4454" r="0.0200"/><circle cx="0.4430" cy="-0.4416" r="0.0200"/><circle cx="0.4430" cy="-0.4353" r="0.0200"/><circle cx="0.4430" cy="-0.4265" r="0.0200"/><circle cx="0.4430" cy="-0.4154" r="0.0200"/><circle cx="0.4430" cy="-0.4019" r="0.0200"/><circle cx="0.4430" cy="-0.3861" r="0.0200"/><circle cx="0.4430" cy="-0.3682" r="0.0200"/><circle cx="0.4430" cy="-0.3482" r="0.0200"/><circle cx="0.4430" cy="-0.3263" r="0.0200"/><circle cx="0.4430" cy="-0.3027" r="0.0200"/><circle cx="0.4430" cy="-0.2773" r="0.0200"/><circle cx="0.4430" cy="-0.2505" r="0.0200"/><circle cx="0.4430" cy="-0.2224" r="0.0200"/><circle cx="0.4430" cy="-0.1931" r="0.0200"/><circle cx="0.4430" cy="-0.1628" r="0.0200"/><circle cx="0.4430" cy="-0.1318" r="0.0200"/><circle cx="0.4430" cy="-0.1002" r="0.0200"/><circle cx="0.4430" cy="-0.0682" r="0.0200"/><circle cx="0.4430" cy="-0.0359" r="0.0200"/><circle cx="0.4430" cy="-0.0037" r="0.0200"/><circle cx="0.4430" cy="0.0283" r="0.0200"/><circle cx="0.4430" cy="0.0599" r="0.0200"/><circle cx="0.4430" cy="0.0910" r="0.0200"/><circle cx="0.4430" cy="0.1212" r="0.0200"/><circle cx="0.4430" cy="0.1505" r="0.0200"/><circle cx="0.4430" cy="0.1786" r="0.0200"/><circle cx="0.4430" cy="0.2055" r="0.0200"/><circle cx="0.4430" cy="0.2308" r="0.0200"/><circle cx="0.4430" cy="0.2545" r="0.0200"/><circle cx="0.4430" cy="0.2763" r="0.0200"/><circle cx="0.4430" cy="0.2963" r="0.0200"/><circle cx="0.4430" cy="0.3142" r="0.0200"/><circle cx="0.4430" cy="0.3300" r="0.0200"/><circle cx="0.4430" cy="0.3435" r="0.0200"/><circle cx="0.4430" cy="0.3546" r="0.0200"/><circle cx="0.4430" cy="0.3634" r="0.0200"/><circle cx="0.4430" cy="0.3697" r="0.0200"/><circle cx="0.4430" cy="0.3735" r="0.0200"/><circle cx="0.4430" cy="0.3747" r="0.0200"/><circle cx="0.3819" cy="-0.4454" r="0.0200"/><circle cx="0.3819" cy="-0.4416" r="0.0200"/><circle cx="0.3819" cy="-0.4353" r="0.0200"/><circle cx="0.3819" cy="-0.4265" r="0.0200"/><circle cx="0.3819" cy="-0.4154" r="0.0200"/><circle cx="0.3819" cy="-0.4019" r="0.0200"/><circle cx="0.3819" cy="-0.3861" r="0.0200"/><circle cx="0.3819" cy="-0.3682" r="0.0200"/><circle cx="0.3819" cy="-0.3482" r="0.0200"/><circle cx="0.3819" cy="-0.3263" r="0.0200"/><circle cx="0.3819" cy="-0.3027" r="0.0200"/><circle cx="0.3819" cy="-0.2773" r="0.0200"/><circle cx="0.3819" cy="-0.2505" r="0.0200"/><circle cx="0.3819" cy="-0.2224" r="0.0200"/><circle cx="0.3819" cy="-0.1931" r="0.0200"/><circle cx="0.3819" cy="-0.1628" r="0.0200"/><circle cx="0.3819" cy="-0.1318" r="0.0200"/><circle cx="0.3819" cy="-0.1002" r="0.0200"/><circle cx="0.3819" cy="-0.0682" r="0.0200"/><circle cx="0.3819" cy="-0.0359" r="0.0200"/><circle cx="0.3819" cy="-0.0037" r="0.0200"/><circle cx="0.3819" cy="0.0283" r="0.0200"/><circle cx="0.3819" cy="0.0599" r="0.0200"/><circle cx="0.3819" cy="0.0910" r="0.0200"/><circle cx="0.3819" cy="0.1212" r="0.0200"/><circle cx="0.3819" cy="0.1505" r="0.0200"/><circle cx="0.3819" cy="0.1786" r="0.0200"/><circle cx="0.3819" cy="0.2055" r="0.0200"/><circle cx="0.3819" cy="0.2308" r="0.0200"/><circle cx="0.3819" cy="0.2545" r="0.0200"/><circle cx="0.3819" cy="0.2763" r="0.0200"/><circle cx="0.3819" cy="0.2963" r="0.0200"/><circle cx="0.3819" cy="0.3142" r="0.0200"/><circle cx="0.3819" cy="0.3300" r="0.0200"/><circle cx="0.3819" cy="0.3435" r="0.0200"/><circle cx="0.3819" cy="0.3546" r="0.0200"/><circle cx="0.3819" cy="0.3634" r="0.0200"/><circle cx="0.3819" cy="0.3697" r="0.0200"/><circle cx="0.3819" cy="0.3735" r="0.0200"/><circle cx="0.3819" cy="0.3747" r="0.0200"/><circle cx="0.3149" cy="-0.4454" r="0.0200"/><circle cx="0.3149" cy="-0.4416" r="0.0200"/><circle cx="0.3149" cy="-0.4353" r="0.0200"/><circle cx="0.3149" cy="-0.4265" r="0.0200"/><circle cx="0.3149" cy="-0.4154" r="0.0200"/><circle cx="0.3149" cy="-0.4019" r="0.0200"/><circle cx="0.3149" cy="-0.3861" r="0.0200"/><circle cx="0.3149" cy="-0.3682" r="0.0200"/><circle cx="0.3149" cy="-0.3482" r="0.0200"/><circle cx="0.3149" cy="-0.3263" r="0.0200"/><circle cx="0.3149" cy="-0.3027" r="0.0200"/><circle cx="0.3149" cy="-0.2773" r="0.0200"/><circle cx="0.3149" cy="-0.2505" r="0.0200"/><circle cx="0.3149" cy="-0.2224" r="0.0200"/><circle cx="0.3149" cy="-0.1931" r="0.0200"/><circle cx="0.3149" cy="-0.1628" r="0.0200"/><circle cx="0.3149" cy="-0.1318" r="0.0200"/><circle cx="0.3149" cy="-0.1002" r="0.0200"/><circle cx="0.3149" cy="-0.0682" r="0.0200"/><circle cx="0.3149" cy="-0.0359" r="0.0200"/><circle cx="0.3149" cy="-0.0037" r="0.0200"/><circle cx="0.3149" cy="0.0283" r="0.0200"/><circle cx="0.3149" cy="0.0599" r="0.0200"/><circle cx="0.3149" cy="0.0910" r="0.0200"/><circle cx="0.3149" cy="0.1212" r="0.0200"/><circle cx="0.3149" cy="0.1505" r="0.0200"/><circle cx="0.3149" cy="0.1786" r="0.0200"/><circle cx="0.3149" cy="0.2055" r="0.0200"/><circle cx="0.3149" cy="0.2308" r="0.0200"/><circle cx="0.3149" cy="0.2545" r="0.0200"/><circle cx="0.3149" cy="0.2763" r="0.0200"/><circle cx="0.3149" cy="0.2963" r="0.0200"/><circle cx="0.3149" cy="0.3142" r="0.0200"/><circle cx="0.3149" cy="0.3300" r="0.0200"/><circle cx="0.3149" cy="0.3435" r="0.0200"/><circle cx="0.3149" cy="0.3546" r="0.0200"/><circle cx="0.3149" cy="0.3634" r="0.0200"/><circle cx="0.3149" cy="0.3697" r="0.0200"/><circle cx="0.3149" cy="0.3735" r="0.0200"/><circle cx="0.3149" cy="0.3747" r="0.0200"/><circle cx="0.2424" cy="-0.4454" r="0.0200"/><circle cx="0.2424" cy="-0.4416" r="0.0200"/><circle cx="0.2424" cy="-0.4353" r="0.0200"/><circle cx="0.2424" cy="-0.4265" r="0.0200"/><circle cx="0.2424" cy="-0.4154" r="0.0200"/><circle cx="0.2424" cy="-0.4019" r="0.0200"/><circle cx="0.2424" cy="-0.3861" r="0.0200"/><circle cx="0.2424" cy="-0.3682" r="0.0200"/><circle cx="0.2424" cy="-0.3482" r="0.0200"/><circle cx="0.2424" cy="-0.3263" r="0.0200"/><circle cx="0.2424" cy="-0.3027" r="0.0200"/><circle cx="0.2424" cy="-0.2773" r="0.0200"/><circle cx="0.2424" cy="-0.2505" r="0.0200"/><circle cx="0.2424" cy="-0.2224" r="0.0200"/><circle cx="0.2424" cy="-0.1931" r="0.0200"/><circle cx="0.2424" cy="-0.1628" r="0.0200"/><circle cx="0.2424" cy="-0.1318" r="0.0200"/><circle cx="0.2424" cy="-0.1002" r="0.0200"/><circle cx="0.2424" cy="-0.0682" r="0.0200"/><circle cx="0.2424" cy="-0.0359" r="0.0200"/><circle cx="0.2424" cy="-0.0037" r="0.0200"/><circle cx="0.2424" cy="0.0283" r="0.0200"/><circle cx="0.2424" cy="0.0599" r="0.0200"/><circle cx="0.2424" cy="0.0910" r="0.0200"/><circle cx="0.2424" cy="0.1212" r="0.0200"/><circle cx="0.2424" cy="0.1505" r="0.0200"/><circle cx="0.2424" cy="0.1786" r="0.0200"/><circle cx="0.2424" cy="0.2055" r="0.0200"/><circle cx="0.2424" cy="0.2308" r="0.0200"/><circle cx="0.2424" cy="0.2545" r="0.0200"/><circle cx="0.2424" cy="0.2763" r="0.0200"/><circle cx="0.2424" cy="0.2963" r="0.0200"/><circle cx="0.2424" cy="0.3142" r="0.0200"/><circle cx="0.2424" cy="0.3300" r="0.0200"/><circle cx="0.2424" cy="0.3435" r="0.0200"/><circle cx="0.2424" cy="0.3546" r="0.0200"/><circle cx="0.2424" cy="0.3634" r="0.0200"/><circle cx="0.2424" cy="0.3697" r="0.0200"/><circle cx="0.2424" cy="0.3735" r="0.0200"/><circle cx="0.2424" cy="0.3747" r="0.0200"/><circle cx="0.1649" cy="-0.4454" r="0.0200"/><circle cx="0.1649" cy="-0.4416" r="0.0200"/><circle cx="0.1649" cy="-0.4353" r="0.0200"/><circle cx="0.1649" cy="-0.4265" r="0.0200"/><circle cx="0.1649" cy="-0.4154" r="0.0200"/><circle cx="0.1649" cy="-0.4019" r="0.0200"/><circle cx="0.1649" cy="-0.3861" r="0.0200"/><circle cx="0.1649" cy="-0.3682" r="0.0200"/><circle cx="0.1649" cy="-0.3482" r="0.0200"/><circle cx="0.1649" cy="-0.3263" r="0.0200"/><circle cx="0.1649" cy="-0.3027" r="0.0200"/><circle cx="0.1649" cy="-0.2773" r="0.0200"/><circle cx="0.1649" cy="-0.2505" r="0.0200"/><circle cx="0.1649" cy="-0.2224" r="0.0200"/><circle cx="0.1649" cy="-0.1931" r="0.0200"/><circle cx="0.1649" cy="-0.1628" r="0.0200"/><circle cx="0.1649" cy="-0.1318" r="0.0200"/><circle cx="0.1649" cy="-0.1002" r="0.0200"/><circle cx="0.1649" cy="-0.0682" r="0.0200"/><circle cx="0.1649" cy="-0.0359" r="0.0200"/><circle cx="0.1649" cy="-0.0037" r="0.0200"/><circle cx="0.1649" cy="0.0283" r="0.0200"/><circle cx="0.1649" cy="0.0599" r="0.0200"/><circle cx="0.1649" cy="0.0910" r="0.0200"/><circle cx="0.1649" cy="0.1212" r="0.0200"/><circle cx="0.1649" cy="0.1505" r="0.0200"/><circle cx="0.1649" cy="0.1786" r="0.0200"/><circle cx="0.1649" cy="0.2055" r="0.0200"/><circle cx="0.1649" cy="0.2308" r="0.0200"/><circle cx="0.1649" cy="0.2545" r="0.0200"/><circle cx="0.1649" cy="0.2763" r="0.0200"/><circle cx="0.1649" cy="0.2963" r="0.0200"/><circle cx="0.1649" cy="0.3142" r="0.0200"/><circle cx="0.1649" cy="0.3300" r="0.0200"/><circle cx="0.1649" cy="0.3435" r="0.0200"/><circle cx="0.1649" cy="0.3546" r="0.0200"/><circle cx="0.1649" cy="0.3634" r="0.0200"/><circle cx="0.1649" cy="0.3697" r="0.0200"/><circle cx="0.1649" cy="0.3735" r="0.0200"/><circle cx="0.1649" cy="0.3747" r="0.0200"/><circle cx="0.0828" cy="-0.4454" r="0.0200"/><circle cx="0.0828" cy="-0.4416" r="0.0200"/><circle cx="0.0828" cy="-0.4353" r="0.0200"/><circle cx="0.0828" cy="-0.4265" r="0.0200"/><circle cx="0.0828" cy="-0.4154" r="0.0200"/><circle cx="0.0828" cy="-0.4019" r="0.0200"/><circle cx="0.0828" cy="-0.3861" r="0.0200"/><circle cx="0.0828" cy="-0.3682" r="0.0200"/><circle cx="0.0828" cy="-0.3482" r="0.0200"/><circle cx="0.0828" cy="-0.3263" r="0.0200"/><circle cx="0.0828" cy="-0.3027" r="0.0200"/><circle cx="0.0828" cy="-0.2773" r="0.0200"/><circle cx="0.0828" cy="-0.2505" r="0.0200"/><circle cx="0.0828" cy="-0.2224" r="0.0200"/><circle cx="0.0828" cy="-0.1931" r="0.0200"/><circle cx="0.0828" cy="-0.1628" r="0.0200"/><circle cx="0.0828" cy="-0.1318" r="0.0200"/><circle cx="0.0828" cy="-0.1002" r="0.0200"/><circle cx="0.0828" cy="-0.0682" r="0.0200"/><circle cx="0.0828" cy="-0.0359" r="0.0200"/><circle cx="0.0828" cy="-0.0037" r="0.0200"/><circle cx="0.0828" cy="0.0283" r="0.0200"/><circle cx="0.0828" cy="0.0599" r="0.0200"/><circle cx="0.0828" cy="0.0910" r="0.0200"/><circle cx="0.0828" cy="0.1212" r="0.0200"/><circle cx="0.0828" cy="0.1505" r="0.0200"/><circle cx="0.0828" cy="0.1786" r="0.0200"/><circle cx="0.0828" cy="0.2055" r="0.0200"/><circle cx="0.0828" cy="0.2308" r="0.0200"/><circle cx="0.0828" cy="0.2545" r="0.0200"/><circle cx="0.0828" cy="0.2763" r="0.0200"/><circle cx="0.0828" cy="0.2963" r="0.0200"/><circle cx="0.0828" cy="0.3142" r="0.0200"/><circle cx="0.0828" cy="0.3300" r="0.0200"/><circle cx="0.0828" cy="0.3435" r="0.0200"/><circle cx="0.0828" cy="0.3546" r="0.0200"/><circle cx="0.0828" cy="0.3634" r="0.0200"/><circle cx="0.0828" cy="0.3697" r="0.0200"/><circle cx="0.0828" cy="0.3735" r="0.0200"/><circle cx="0.0828" cy="0.3747" r="0.0200"/><circle cx="-0.0033" cy="-0.4454" r="0.0200"/><circle cx="-0.0033" cy="-0.4416" r="0.0200"/><circle cx="-0.0033" cy="-0.4353" r="0.0200"/><circle cx="-0.0033" cy="-0.4265" r="0.0200"/><circle cx="-0.0033" cy="-0.4154" r="0.0200"/><circle cx="-0.0033" cy="-0.4019" r="0.0200"/><circle cx="-0.0033" cy="-0.3861" r="0.0200"/><circle cx="-0.0033" cy="-0.3682" r="0.0200"/><circle cx="-0.0033" cy="-0.3482" r="0.0200"/><circle cx="-0.0033" cy="-0.3263" r="0.0200"/><circle cx="-0.0033" cy="-0.3027" r="0.0200"/><circle cx="-0.0033" cy="-0.2773" r="0.0200"/><circle cx="-0.0033" cy="-0.2505" r="0.0200"/><circle cx="-0.0033" cy="-0.2224" r="0.0200"/><circle cx="-0.0033" cy="-0.1931" r="0.0200"/><circle cx="-0.0033" cy="-0.1628" r="0.0200"/><circle cx="-0.0033" cy="-0.1318" r="0.0200"/><circle cx="-0.0033" cy="-0.1002" r="0.0200"/><circle cx="-0.0033" cy="-0.0682" r="0.0200"/><circle cx="-0.0033" cy="-0.0359" r="0.0200"/><circle cx="-0.0033" cy="-0.0037" r="0.0200"/><circle cx="-0.0033" cy="0.0283" r="0.0200"/><circle cx="-0.0033" cy="0.0599" r="0.0200"/><circle cx="-0.0033" cy="0.0910" r="0.0200"/><circle cx="-0.0033" cy="0.1212" r="0.0200"/><circle cx="-0.0033" cy="0.1505" r="0.0200"/><circle cx="-0.0033" cy="0.1786" r="0.0200"/><circle cx="-0.0033" cy="0.2055" r="0.0200"/><circle cx="-0.0033" cy="0.2308" r="0.0200"/><circle cx="-0.0033" cy="0.2545" r="0.0200"/><circle cx="-0.0033" cy="0.2763" r="0.0200"/><circle cx="-0.0033" cy="0.2963" r="0.0200"/><circle cx="-0.0033" cy="0.3142" r="0.0200"/><circle cx="-0.0033" cy="0.3300" r="0.0200"/><circle cx="-0.0033" cy="0.3435" r="0.0200"/><circle cx="-0.0033" cy="0.3546" r="0.0200"/><circle cx="-0.0033" cy="0.3634" r="0.0200"/><circle cx="-0.0033" cy="0.3697" r="0.0200"/><circle cx="-0.0033" cy="0.3735" r="0.0200"/><circle cx="-0.0033" cy="0.3747" r="0.0200"/><circle cx="-0.0929" cy="-0.4454" r="0.0200"/><circle cx="-0.0929" cy="-0.4416" r="0.0200"/><circle cx="-0.0929" cy="-0.4353" r="0.0200"/><circle cx="-0.0929" cy="-0.4265" r="0.0200"/><circle cx="-0.0929" cy="-0.4154" r="0.0200"/><circle cx="-0.0929" cy="-0.4019" r="0.0200"/><circle cx="-0.0929" cy="-0.3861" r="0.0200"/><circle cx="-0.0929" cy="-0.3682" r="0.0200"/><circle cx="-0.0929" cy="-0.3482" r="0.0200"/><circle cx="-0.0929" cy="-0.3263" r="0.0200"/><circle cx="-0.0929" cy="-0.3027" r="0.0200"/><circle cx="-0.0929" cy="-0.2773" r="0.0200"/><circle cx="-0.0929" cy="-0.2505" r="0.0200"/><circle cx="-0.0929" cy="-0.2224" r="0.0200"/><circle cx="-0.0929" cy="-0.1931" r="0.0200"/><circle cx="-0.0929" cy="-0.1628" r="0.0200"/><circle cx="-0.0929" cy="-0.1318" r="0.0200"/><circle cx="-0.0929" cy="-0.1002" r="0.0200"/><circle cx="-0.0929" cy="-0.0682" r="0.0200"/><circle cx="-0.0929" cy="-0.0359" r="0.0200"/><circle cx="-0.0929" cy="-0.0037" r="0.0200"/><circle cx="-0.0929" cy="0.0283" r="0.0200"/><circle cx="-0.0929" cy="0.0599" r="0.0200"/><circle cx="-0.0929" cy="0.0910" r="0.0200"/><circle cx="-0.0929" cy="0.1212" r="0.0200"/><circle cx="-0.0929" cy="0.1505" r="0.0200"/><circle cx="-0.0929" cy="0.1786" r="0.0200"/><circle cx="-0.0929" cy="0.2055" r="0.0200"/><circle cx="-0.0929" cy="0.2308" r="0.0200"/><circle cx="-0.0929" cy="0.2545" r="0.0200"/><circle cx="-0.0929" cy="0.2763" r="0.0200"/><circle cx="-0.0929" cy="0.2963" r="0.0200"/><circle cx="-0.0929" cy="0.3142" r="0.0200"/><circle cx="-0.0929" cy="0.3300" r="0.0200"/><circle cx="-0.0929" cy="0.3435" r="0.0200"/><circle cx="-0.0929" cy="0.3546" r="0.0200"/><circle cx="-0.0929" cy="0.3634" r="0.0200"/><circle cx="-0.0929" cy="0.3697" r="0.0200"/><circle cx="-0.0929" cy="0.3735" r="0.0200"/><circle cx="-0.0929" cy="0.3747" r="0.0200"/><circle cx="-0.1855" cy="-0.4454" r="0.0200"/><circle cx="-0.1855" cy="-0.4416" r="0.0200"/><circle cx="-0.1855" cy="-0.4353" r="0.0200"/><circle cx="-0.1855" cy="-0.4265" r="0.0200"/><circle cx="-0.1855" cy="-0.4154" r="0.0200"/><circle cx="-0.1855" cy="-0.4019" r="0.0200"/><circle cx="-0.1855" cy="-0.3861" r="0.0200"/><circle cx="-0.1855" cy="-0.3682" r="0.0200"/><circle cx="-0.1855" cy="-0.3482" r="0.0200"/><circle cx="-0.1855" cy="-0.3263" r="0.0200"/><circle cx="-0.1855" cy="-0.3027" r="0.0200"/><circle cx="-0.1855" cy="-0.2773" r="0.0200"/><circle cx="-0.1855" cy="-0.2505" r="0.0200"/><circle cx="-0.1855" cy="-0.2224" r="0.0200"/><circle cx="-0.1855" cy="-0.1931" r="0.0200"/><circle cx="-0.1855" cy="-0.1628" r="0.0200"/><circle cx="-0.1855" cy="-0.1318" r="0.0200"/><circle cx="-0.1855" cy="-0.1002" r="0.0200"/><circle cx="-0.1855" cy="-0.0682" r="0.0200"/><circle cx="-0.1855" cy="-0.0359" r="0.0200"/><circle cx="-0.1855" cy="-0.0037" r="0.0200"/><circle cx="-0.1855" cy="0.0283" r="0.0200"/><circle cx="-0.1855" cy="0.0599" r="0.0200"/><circle cx="-0.1855" cy="0.0910" r="0.0200"/><circle cx="-0.1855" cy="0.1212" r="0.0200"/><circle cx="-0.1855" cy="0.1505" r="0.0200"/><circle cx="-0.1855" cy="0.1786" r="0.0200"/><circle cx="-0.1855" cy="0.2055" r="0.0200"/><circle cx="-0.1855" cy="0.2308" r="0.0200"/><circle cx="-0.1855" cy="0.2545" r="0.0200"/><circle cx="-0.1855" cy="0.2763" r="0.0200"/><circle cx="-0.1855" cy="0.2963" r="0.0200"/><circle cx="-0.1855" cy="0.3142" r="0.0200"/><circle cx="-0.1855" cy="0.3300" r="0.0200"/><circle cx="-0.1855" cy="0.3435" r="0.0200"/><circle cx="-0.1855" cy="0.3546" r="0.0200"/><circle cx="-0.1855" cy="0.3634" r="0.0200"/><circle cx="-0.1855" cy="0.3697" r="0.0200"/><circle cx="-0.1855" cy="0.3735" r="0.0200"/><circle cx="-0.1855" cy="0.3747" r="0.0200"/><circle cx="-0.2805" cy="-0.4454" r="0.0200"/><circle cx="-0.2805" cy="-0.4416" r="0.0200"/><circle cx="-0.2805" cy="-0.4353" r="0.0200"/><circle cx="-0.2805" cy="-0.4265" r="0.0200"/><circle cx="-0.2805" cy="-0.4154" r="0.0200"/><circle cx="-0.2805" cy="-0.4019" r="0.0200"/><circle cx="-0.2805" cy="-0.3861" r="0.0200"/><circle cx="-0.2805" cy="-0.3682" r="0.0200"/><circle cx="-0.2805" cy="-0.3482" r="0.0200"/><circle cx="-0.2805" cy="-0.3263" r="0.0200"/><circle cx="-0.2805" cy="-0.3027" r="0.0200"/><circle cx="-0.2805" cy="-0.2773" r="0.0200"/><circle cx="-0.2805" cy="-0.2505" r="0.0200"/><circle cx="-0.2805" cy="-0.2224" r="0.0200"/><circle cx="-0.2805" cy="-0.1931" r="0.0200"/><circle cx="-0.2805" cy="-0.1628" r="0.0200"/><circle cx="-0.2805" cy="-0.1318" r="0.0200"/><circle cx="-0.2805" cy="-0.1002" r="0.0200"/><circle cx="-0.2805" cy="-0.0682" r="0.0200"/><circle cx="-0.2805" cy="-0.0359" r="0.0200"/><circle cx="-0.2805" cy="-0.0037" r="0.0200"/><circle cx="-0.2805" cy="0.0283" r="0.0200"/><circle cx="-0.2805" cy="0.0599" r="0.0200"/><circle cx="-0.2805" cy="0.0910" r="0.0200"/><circle cx="-0.2805" cy="0.1212" r="0.0200"/><circle cx="-0.2805" cy="0.1505" r="0.0200"/><circle cx="-0.2805" cy="0.1786" r="0.0200"/><circle cx="-0.2805" cy="0.2055" r="0.0200"/><circle cx="-0.2805" cy="0.2308" r="0.0200"/><circle cx="-0.2805" cy="0.2545" r="0.0200"/><circle cx="-0.2805" cy="0.2763" r="0.0200"/><circle cx="-0.2805" cy="0.2963" r="0.0200"/><circle cx="-0.2805" cy="0.3142" r="0.0200"/><circle cx="-0.2805" cy="0.3300" r="0.0200"/><circle cx="-0.2805" cy="0.3435" r="0.0200"/><circle cx="-0.2805" cy="0.3546" r="0.0200"/><circle cx="-0.2805" cy="0.3634" r="0.0200"/><circle cx="-0.2805" cy="0.3697" r="0.0200"/><circle cx="-0.2805" cy="0.3735" r="0.0200"/><circle cx="-0.2805" cy="0.3747" r="0.0200"/><circle cx="-0.3773" cy="-0.4454" r="0.0200"/><circle cx="-0.3773" cy="-0.4416" r="0.0200"/><circle cx="-0.3773" cy="-0.4353" r="0.0200"/><circle cx="-0.3773" cy="-0.4265" r="0.0200"/><circle cx="-0.3773" cy="-0.4154" r="0.0200"/><circle cx="-0.3773" cy="-0.4019" r="0.0200"/><circle cx="-0.3773" cy="-0.3861" r="0.0200"/><circle cx="-0.3773" cy="-0.3682" r="0.0200"/><circle cx="-0.3773" cy="-0.3482" r="0.0200"/><circle cx="-0.3773" cy="-0.3263" r="0.0200"/><circle cx="-0.3773" cy="-0.3027" r="0.0200"/><circle cx="-0.3773" cy="-0.2773" r="0.0200"/><circle cx="-0.3773" cy="-0.2505" r="0.0200"/><circle cx="-0.3773" cy="-0.2224" r="0.0200"/><circle cx="-0.3773" cy="-0.1931" r="0.0200"/><circle cx="-0.3773" cy="-0.1628" r="0.0200"/><circle cx="-0.3773" cy="-0.1318" r="0.0200"/><circle cx="-0.3773" cy="-0.1002" r="0.0200"/><circle cx="-0.3773" cy="-0.0682" r="0.0200"/><circle cx="-0.3773" cy="-0.0359" r="0.0200"/><circle cx="-0.3773" cy="-0.0037" r="0.0200"/><circle cx="-0.3773" cy="0.0283" r="0.0200"/><circle cx="-0.3773" cy="0.0599" r="0.0200"/><circle cx="-0.3773" cy="0.0910" r="0.0200"/><circle cx="-0.3773" cy="0.1212" r="0.0200"/><circle cx="-0.3773" cy="0.1505" r="0.0200"/><circle cx="-0.3773" cy="0.1786" r="0.0200"/><circle cx="-0.3773" cy="0.2055" r="0.0200"/><circle cx="-0.3773" cy="0.2308" r="0.0200"/><circle cx="-0.3773" cy="0.2545" r="0.0200"/><circle cx="-0.3773" cy="0.2763" r="0.0200"/><circle cx="-0.3773" cy="0.2963" r="0.0200"/><circle cx="-0.3773" cy="0.3142" r="0.0200"/><circle cx="-0.3773" cy="0.3300" r="0.0200"/><circle cx="-0.3773" cy="0.3435" r="0.0200"/><circle cx="-0.3773" cy="0.3546" r="0.0200"/><circle cx="-0.3773" cy="0.3634" r="0.0200"/><circle cx="-0.3773" cy="0.3697" r="0.0200"/><circle cx="-0.3773" cy="0.3735" r="0.0200"/><circle cx="-0.3773" cy="0.3747" r="0.0200"/><circle cx="-0.4754" cy="-0.4454" r="0.0200"/><circle cx="-0.4754" cy="-0.4416" r="0.0200"/><circle cx="-0.4754" cy="-0.4353" r="0.0200"/><circle cx="-0.4754" cy="-0.4265" r="0.0200"/><circle cx="-0.4754" cy="-0.4154" r="0.0200"/><circle cx="-0.4754" cy="-0.4019" r="0.0200"/><circle cx="-0.4754" cy="-0.3861" r="0.0200"/><circle cx="-0.4754" cy="-0.3682" r="0.0200"/><circle cx="-0.4754" cy="-0.3482" r="0.0200"/><circle cx="-0.4754" cy="-0.3263" r="0.0200"/><circle cx="-0.4754" cy="-0.3027" r="0.0200"/><circle cx="-0.4754" cy="-0.2773" r="0.0200"/><circle cx="-0.4754" cy="-0.2505" r="0.0200"/><circle cx="-0.4754" cy="-0.2224" r="0.0200"/><circle cx="-0.4754" cy="-0.1931" r="0.0200"/><circle cx="-0.4754" cy="-0.1628" r="0.0200"/><circle cx="-0.4754" cy="-0.1318" r="0.0200"/><circle cx="-0.4754" cy="-0.1002" r="0.0200"/><circle cx="-0.4754" cy="-0.0682" r="0.0200"/><circle cx="-0.4754" cy="-0.0359" r="0.0200"/><circle cx="-0.4754" cy="-0.0037" r="0.0200"/><circle cx="-0.4754" cy="0.0283" r="0.0200"/><circle cx="-0.4754" cy="0.0599" r="0.0200"/><circle cx="-0.4754" cy="0.0910" r="0.0200"/><circle cx="-0.4754" cy="0.1212" r="0.0200"/><circle cx="-0.4754" cy="0.1505" r="0.0200"/><circle cx="-0.4754" cy="0.1786" r="0.0200"/><circle cx="-0.4754" cy="0.2055" r="0.0200"/><circle cx="-0.4754" cy="0.2308" r="0.0200"/><circle cx="-0.4754" cy="0.2545" r="0.0200"/><circle cx="-0.4754" cy="0.2763" r="0.0200"/><circle cx="-0.4754" cy="0.2963" r="0.0200"/><circle cx="-0.4754" cy="0.3142" r="0.0200"/><circle cx="-0.4754" cy="0.3300" r="0.0200"/><circle cx="-0.4754" cy="0.3435" r="0.0200"/><circle cx="-0.4754" cy="0.3546" r="0.0200"/><circle cx="-0.4754" cy="0.3634" r="0.0200"/><circle cx="-0.4754" cy="0.3697" r="0.0200"/><circle cx="-0.4754" cy="0.3735" r="0.0200"/><circle cx="-0.4754" cy="0.3747" r="0.0200"/><circle cx="-0.5740" cy="-0.4454" r="0.0200"/><circle cx="-0.5740" cy="-0.4416" r="0.0200"/><circle cx="-0.5740" cy="-0.4353" r="0.0200"/><circle cx="-0.5740" cy="-0.4265" r="0.0200"/><circle cx="-0.5740" cy="-0.4154" r="0.0200"/><circle cx="-0.5740" cy="-0.4019" r="0.0200"/><circle cx="-0.5740" cy="-0.3861" r="0.0200"/><circle cx="-0.5740" cy="-0.3682" r="0.0200"/><circle cx="-0.5740" cy="-0.3482" r="0.0200"/><circle cx="-0.5740" cy="-0.3263" r="0.0200"/><circle cx="-0.5740" cy="-0.3027" r="0.0200"/><circle cx="-0.5740" cy="-0.2773" r="0.0200"/><circle cx="-0.5740" cy="-0.2505" r="0.0200"/><circle cx="-0.5740" cy="-0.2224" r="0.0200"/><circle cx="-0.5740" cy="-0.1931" r="0.0200"/><circle cx="-0.5740" cy="-0.1628" r="0.0200"/><circle cx="-0.5740" cy="-0.1318" r="0.0200"/><circle cx="-0.5740" cy="-0.1002" r="0.0200"/><circle cx="-0.5740" cy="-0.0682" r="0.0200"/><circle cx="-0.5740" cy="-0.0359" r="0.0200"/><circle cx="-0.5740" cy="-0.0037" r="0.0200"/><circle cx="-0.5740" cy="0.0283" r="0.0200"/><circle cx="-0.5740" cy="0.0599" r="0.0200"/><circle cx="-0.5740" cy="0.0910" r="0.0200"/><circle cx="-0.5740" cy="0.1212" r="0.0200"/><circle cx="-0.5740" cy="0.1505" r="0.0200"/><circle cx="-0.5740" cy="0.1786" r="0.0200"/><circle cx="-0.5740" cy="0.2055" r="0.0200"/><circle cx="-0.5740" cy="0.2308" r="0.0200"/><circle cx="-0.5740" cy="0.2545" r="0.0200"/><circle cx="-0.5740" cy="0.2763" r="0.0200"/><circle cx="-0.5740" cy="0.2963" r="0.0200"/><circle cx="-0.5740" cy="0.3142" r="0.0200"/><circle cx="-0.5740" cy="0.3300" r="0.0200"/><circle cx="-0.5740" cy="0.3435" r="0.0200"/><circle cx="-0.5740" cy="0.3546" r="0.0200"/><circle cx="-0.5740" cy="0.3634" r="0.0200"/><circle cx="-0.5740" cy="0.3697" r="0.0200"/><circle cx="-0.5740" cy="0.3735" r="0.0200"/><circle cx="-0.5740" cy="0.3747" r="0.0200"/></g><g class="datapadding"></g></g><g class="hud"><g class="frame"><g stroke-width="0" stroke="rgb(0%, 0%, 0%)" stroke-opacity="0" fill="rgb(100%, 100%, 100%)" fill-opacity="0.02"><rect width="1.3011" height="0.8621" x="-0.5960" y="-0.4664"/></g></g><g class="axis"><g class="axisbar"><g stroke-width="0" stroke="rgb(0%, 0%, 0%)" stroke-opacity="0" fill="rgb(5%, 5%, 5%)" fill-opacity="0.4"><rect width="0.0035" height="0.8247" x="-0.5863" y="-0.4483"/></g></g><g class="ticks"><g class="ticklines"><g stroke-width="0.0050" stroke="rgb(5%, 5%, 5%)" stroke-opacity="0.05" fill="none"><polyline points="-0.5740,0.3747 0.6831,0.3747"/><polyline points="-0.5740,0.1694 0.6831,0.1694"/><polyline points="-0.5740,-0.0359 0.6831,-0.0359"/><polyline points="-0.5740,-0.2413 0.6831,-0.2413"/><polyline points="-0.5740,-0.4466 0.6831,-0.4466"/></g></g><g class="tickglyph"><g stroke-width="0.0035" stroke="rgb(5%, 5%, 5%)" stroke-opacity="0.4" fill="rgb(5%, 5%, 5%)" fill-opacity="0.4"><polyline points="-0.6110,0.3747
-0.5846,0.3747"/><polyline points="-0.6110,0.1694
-0.5846,0.1694"/><polyline points="-0.6110,-0.0359
-0.5846,-0.0359"/><polyline points="-0.6110,-0.2413
-0.5846,-0.2413"/><polyline points="-0.6110,-0.4466
-0.5846,-0.4466"/></g></g><g class="ticktext"><g stroke-width="0.0" stroke="none" fill="rgb(5%, 5%, 5%)" fill-opacity="1.0" font-size="0.0400" text-anchor="end"><text x="-0.6303" y="0.3840">-1.0</text><text x="-0.6303" y="0.1786">-0.5</text><text x="-0.6303" y="-0.0267"> 0.0</text><text x="-0.6303" y="-0.2320"> 0.5</text><text x="-0.6303" y="-0.4374"> 1.0</text></g></g></g></g><g class="axis"><g class="axisbar"><g stroke-width="0" stroke="rgb(0%, 0%, 0%)" stroke-opacity="0" fill="rgb(5%, 5%, 5%)" fill-opacity="0.4"><rect width="1.2606" height="0.0034" x="-0.5758" y="0.3832"/></g></g><g class="ticks"><g class="ticklines"><g stroke-width="0.0050" stroke="rgb(5%, 5%, 5%)" stroke-opacity="0.05" fill="none"><polyline points="-0.5740,0.3747 -0.5740,-0.4466"/><polyline points="-0.3226,0.3747 -0.3226,-0.4466"/><polyline points="-0.0712,0.3747 -0.0712,-0.4466"/><polyline points="0.1803,0.3747 0.1803,-0.4466"/><polyline points="0.4317,0.3747 0.4317,-0.4466"/><polyline points="0.6831,0.3747 0.6831,-0.4466"/></g></g><g class="tickglyph"><g stroke-width="0.0034" stroke="rgb(5%, 5%, 5%)" stroke-opacity="0.4" fill="rgb(5%, 5%, 5%)" fill-opacity="0.4"><polyline points="-0.5740,0.4101
-0.5740,0.3848"/><polyline points="-0.3226,0.4101
-0.3226,0.3848"/><polyline points="-0.0712,0.4101
-0.0712,0.3848"/><polyline points="0.1803,0.4101
0.1803,0.3848"/><polyline points="0.4317,0.4101
0.4317,0.3848"/><polyline points="0.6831,0.4101
0.6831,0.3848"/></g></g><g class="ticktext"><g stroke-width="0.0" stroke="none" fill="rgb(5%, 5%, 5%)" fill-opacity="1.0" font-size="0.0400" text-anchor="middle"><text x="-0.5740" y="0.4563">0.0</text><text x="-0.3226" y="0.4563">0.2</text><text x="-0.0712" y="0.4563">0.4</text><text x="0.1803" y="0.4563">0.6</text><text x="0.4317" y="0.4563">0.8</text><text x="0.6831" y="0.4563">1.0</text></g></g></g></g><g class="frame"><g stroke-width="0" stroke="rgb(0%, 0%, 0%)" stroke-opacity="0" fill="rgb(0%, 0%, 0%)" fill-opacity="0"><rect width="1.5" height="1.0" x="-0.75" y="-0.5"/></g></g></g></svg>