<svg height="300" viewBox="-0.75 -0.5 1.5 1.0" width="450" xmlns="http://www.w3.org/2000/svg" xmlns:xlink="http://www.w3.org/1999/xlink"><style>svg {
  color-scheme: light dark;
}
{
  .canvas g, .title g, .axisbar g, .ticktext g, .tickglyph g, .ticklines g, .legendContent g text {
    fill: rgb(5%, 5%, 5%);
  }
  .ticklines g, .tickglyph g, .legendBorder g {
    stroke: rgb(5%, 5%, 5%);
  }
  .legendBorder g {
    fill: rgb(94%, 94%, 94%);
  }
}
@media (prefers-color-scheme:dark) {
  .canvas g, .title g, .axisbar g, .ticktext g, .tickglyph g, .ticklines g, .legendContent g text {
    fill: rgb(94%, 94%, 94%);
  }
  .ticklines g, .tickglyph g, .legendBorder g {
    stroke: rgb(94%, 94%, 94%);
  }
  .legendBorder g {
    fill: rgb(5%, 5%, 5%);
  }
}</style><g class="chart"><g fill="rgb(2%, 73%, 80%)" fill-opacity="1.0" stroke="rgb(2%, 29%, 48%)" stroke-opacity="1.0" stroke-width="0.0100"><circle cx="-0.4789" cy="-0.4445" r="0.0025"/><circle cx="-0.4789" cy="-0.4408" r="0.0025"/><circle cx="-0.4789" cy="-0.4345" r="0.0025"/><circle cx="-0.4789" cy="-0.4258" r="0.0025"/><circle cx="-0.4789" cy="-0.4147" r="0.0025"/><circle cx="-0.4789" cy="-0.4012" r="0.0025"/><circle cx="-0.4789" cy="-0.3855" r="0.0025"/><circle cx="-0.4789" cy="-0.3677" r="0.0025"/><circle cx="-0.4789" cy="-0.3478" r="0.0025"/><circle cx="-0.4789" cy="-0.3260" r="0.0025"/><circle cx="-0.4789" cy="-0.3024" r="0.0025"/><circle cx="-0.4789" cy="-0.2772" r="0.0025"/><circle cx="-0.4789" cy="-0.2505" r="0.0025"/><circle cx="-0.4789" cy="-0.2224" r="0.0025"/><circle cx="-0.4789" cy="-0.1933" r="0.0025"/><circle cx="-0.4789" cy="-0.1631" r="0.0025"/><circle cx="-0.4789" cy="-0.1322" r="0.0025"/><circle cx="-0.4789" cy="-0.1007" r="0.0025"/><circle cx="-0.4789" cy="-0.0688" r="0.0025"/><circle cx="-0.4789" cy="-0.0367" r="0.0025"/><circle cx="-0.4789" cy="-0.0046" r="0.0025"/><circle cx="-0.4789" cy="0.0273" r="0.0025"/><circle cx="-0.4789" cy="0.0588" r="0.0025"/><circle cx="-0.4789" cy="0.0897" r="0.0025"/><circle cx="-0.4789" cy="0.1198" r="0.0025"/><circle cx="-0.4789" cy="0.1490" r="0.0025"/><circle cx="-0.4789" cy="0.1770" r="0.0025"/><circle cx="-0.4789" cy="0.2037" r="0.0025"/><circle cx="-0.4789" cy="0.2290" r="0.0025"/><circle cx="-0.4789" cy="0.2525" r="0.0025"/><circle cx="-0.4789" cy="0.2744" r="0.0025"/><circle cx="-0.4789" cy="0.2942" r="0.0025"/><circle cx="-0.4789" cy="0.3121" r="0.0025"/><circle cx="-0.4789" cy="0.3278" r="0.0025"/><circle cx="-0.4789" cy="0.3412" r="0.0025"/><circle cx="-0.4789" cy="0.3523" r="0.0025"/><circle cx="-0.4789" cy="0.3611" r="0.0025"/><circle cx="-0.4789" cy="0.3673" r="0.0025"/><circle cx="-0.4789" cy="0.3711" r="0.0025"/><circle cx="-0.4789" cy="0.3724" r="0.0025"/><circle cx="-0.3802" cy="-0.4445" r="0.0025"/><circle cx="-0.3802" cy="-0.4408" r="0.0025"/><circle cx="-0.3802" cy="-0.4345" r="0.0025"/><circle cx="-0.3802" cy="-0.4258" r="0.0025"/><circle cx="-0.3802" cy="-0.4147" r="0.0025"/><circle cx="-0.3802" cy="-0.4012" r="0.0025"/><circle cx="-0.3802" cy="-0.3855" r="0.0025"/><circle cx="-0.3802" cy="-0.3677" r="0.0025"/><circle cx="-0.3802" cy="-0.3478" r="0.0025"/><circle cx="-0.3802" cy="-0.3260" r="0.0025"/><circle cx="-0.3802" cy="-0.3024" r="0.0025"/><circle cx="-0.3802" cy="-0.2772" r="0.0025"/><circle cx="-0.3802" cy="-0.2505" r="0.0025"/><circle cx="-0.3802" cy="-0.2224" r="0.0025"/><circle cx="-0.3802" cy="-0.1933" r="0.0025"/><circle cx="-0.3802" cy="-0.1631" r="0.0025"/><circle cx="-0.3802" cy="-0.1322" r="0.0025"/><circle cx="-0.3802" cy="-0.1007" r="0.0025"/><circle cx="-0.3802" cy="-0.0688" r="0.0025"/><circle cx="-0.3802" cy="-0.0367" r="0.0025"/><circle cx="-0.3802" cy="-0.0046" r="0.0025"/><circle cx="-0.3802" cy="0.0273" r="0.0025"/><circle cx="-0.3802" cy="0.0588" r="0.0025"/><circle cx="-0.3802" cy="0.0897" r="0.0025"/><circle cx="-0.3802" cy="0.1198" r="0.0025"/><circle cx="-0.3802" cy="0.1490" r="0.0025"/><circle cx="-0.3802" cy="0.1770" r="0.0025"/><circle cx="-0.3802" cy="0.2037" r="0.0025"/><circle cx="-0.3802" cy="0.2290" r="0.0025"/><circle cx="-0.3802" cy="0.2525" r="0.0025"/><circle cx="-0.3802" cy="0.2744" r="0.0025"/><circle cx="-0.3802" cy="0.2942" r="0.0025"/><circle cx="-0.3802" cy="0.3121" r="0.0025"/><circle cx="-0.3802" cy="0.3278" r="0.0025"/><circle cx="-0.3802" cy="0.3412" r="0.0025"/><circle cx="-0.3802" cy="0.3523" r="0.0025"/><circle cx="-0.3802" cy="0.3611" r="0.0025"/><circle cx="-0.3802" cy="0.3673" r="0.0025"/><circle cx="-0.3802" cy="0.3711" r="0.0025"/><circle cx="-0.3802" cy="0.3724" r="0.0025"/><circle cx="-0.2827" cy="-0.4445" r="0.0025"/><circle cx="-0.2827" cy="-0.4408" r="0.0025"/><circle cx="-0.2827" cy="-0.4345" r="0.0025"/><circle cx="-0.2827" cy="-0.4258" r="0.0025"/><circle cx="-0.2827" cy="-0.4147" r="0.0025"/><circle cx="-0.2827" cy="-0.4012" r="0.0025"/><circle cx="-0.2827" cy="-0.3855" r="0.0025"/><circle cx="-0.2827" cy="-0.3677" r="0.0025"/><circle cx="-0.2827" cy="-0.3478" r="0.0025"/><circle cx="-0.2827" cy="-0.3260" r="0.0025"/><circle cx="-0.2827" cy="-0.3024" r="0.0025"/><circle cx="-0.2827" cy="-0.2772" r="0.0025"/><circle cx="-0.2827" cy="-0.2505" r="0.0025"/><circle cx="-0.2827" cy="-0.2224" r="0.0025"/><circle cx="-0.2827" cy="-0.1933" r="0.0025"/><circle cx="-0.2827" cy="-0.1631" r="0.0025"/><circle cx="-0.2827" cy="-0.1322" r="0.0025"/><circle cx="-0.2827" cy="-0.1007" r="0.0025"/><circle cx="-0.2827" cy="-0.0688" r="0.0025"/><circle cx="-0.2827" cy="-0.0367" r="0.0025"/><circle cx="-0.2827" cy="-0.0046" r="0.0025"/><circle cx="-0.2827" cy="0.0273" r="0.0025"/><circle cx="-0.2827" cy="0.0588" r="0.0025"/><circle cx="-0.2827" cy="0.0897" r="0.0025"/><circle cx="-0.2827" cy="0.1198" r="0.0025"/><circle cx="-0.2827" cy="0.1490" r="0.0025"/><circle cx="-0.2827" cy="0.1770" r="0.0025"/><circle cx="-0.2827" cy="0.2037" r="0.0025"/><circle cx="-0.2827" cy="0.2290" r="0.0025"/><circle cx="-0.2827" cy="0.2525" r="0.0025"/><circle cx="-0.2827" cy="0.2744" r="0.0025"/><circle cx="-0.2827" cy="0.2942" r="0.0025"/><circle cx="-0.2827" cy="0.3121" r="0.0025"/><circle cx="-0.2827" cy="0.3278" r="0.0025"/><circle cx="-0.2827" cy="0.3412" r="0.0025"/><circle cx="-0.2827" cy="0.3523" r="0.0025"/><circle cx="-0.2827" cy="0.3611" r="0.0025"/><circle cx="-0.2827" cy="0.3673" r="0.0025"/><circle cx="-0.2827" cy="0.3711" r="0.0025"/><circle cx="-0.2827" cy="0.3724" r="0.0025"/><circle cx="-0.1870" cy="-0.4445" r="0.0025"/><circle cx="-0.1870" cy="-0.4408" r="0.0025"/><circle cx="-0.1870" cy="-0.4345" r="0.0025"/><circle cx="-0.1870" cy="-0.4258" r="0.0025"/><circle cx="-0.1870" cy="-0.4147" r="0.0025"/><circle cx="-0.1870" cy="-0.4012" r="0.0025"/><circle cx="-0.1870" cy="-0.3855" r="0.0025"/><circle cx="-0.1870" cy="-0.3677" r="0.0025"/><circle cx="-0.1870" cy="-0.3478" r="0.0025"/><circle cx="-0.1870" cy="-0.3260" r="0.0025"/><circle cx="-0.1870" cy="-0.3024" r="0.0025"/><circle cx="-0.1870" cy="-0.2772" r="0.0025"/><circle cx="-0.1870" cy="-0.2505" r="0.0025"/><circle cx="-0.1870" cy="-0.2224" r="0.0025"/><circle cx="-0.1870" cy="-0.1933" r="0.0025"/><circle cx="-0.1870" cy="-0.1631" r="0.0025"/><circle cx="-0.1870" cy="-0.1322" r="0.0025"/><circle cx="-0.1870" cy="-0.1007" r="0.0025"/><circle cx="-0.1870" cy="-0.0688" r="0.0025"/><circle cx="-0.1870" cy="-0.0367" r="0.0025"/><circle cx="-0.1870" cy="-0.0046" r="0.0025"/><circle cx="-0.1870" cy="0.0273" r="0.0025"/><circle cx="-0.1870" cy="0.0588" r="0.0025"/><circle cx="-0.1870" cy="0.0897" r="0.0025"/><circle cx="-0.1870" cy="0.1198" r="0.0025"/><circle cx="-0.1870" cy="0.1490" r="0.0025"/><circle cx="-0.1870" cy="0.1770" r="0.0025"/><circle cx="-0.1870" cy="0.2037" r="0.0025"/><circle cx="-0.1870" cy="0.2290" r="0.0025"/><circle cx="-0.1870" cy="0.2525" r="0.0025"/><circle cx="-0.1870" cy="0.2744" r="0.0025"/><circle cx="-0.1870" cy="0.2942" r="0.0025"/><circle cx="-0.1870" cy="0.3121" r="0.0025"/><circle cx="-0.1870" cy="0.3278" r="0.0025"/><circle cx="-0.1870" cy="0.3412" r="0.0025"/><circle cx="-0.1870" cy="0.3523" r="0.0025"/><circle cx="-0.1870" cy="0.3611" r="0.0025"/><circle cx="-0.1870" cy="0.3673" r="0.0025"/><circle cx="-0.1870" cy="0.3711" r="0.0025"/><circle cx="-0.1870" cy="0.3724" r="0.0025"/><circle cx="-0.0938" cy="-0.4445" r="0.0025"/><circle cx="-0.0938" cy="-0.4408" r="0.0025"/><circle cx="-0.0938" cy="-0.4345" r="0.0025"/><circle cx="-0.0938" cy="-0.4258" r="0.0025"/><circle cx="-0.0938" cy="-0.4147" r="0.0025"/><circle cx="-0.0938" cy="-0.4012" r="0.0025"/><circle cx="-0.0938" cy="-0.3855" r="0.0025"/><circle cx="-0.0938" cy="-0.3677" r="0.0025"/><circle cx="-0.0938" cy="-0.3478" r="0.0025"/><circle cx="-0.0938" cy="-0.3260" r="0.0025"/><circle cx="-0.0938" cy="-0.3024" r="0.0025"/><circle cx="-0.0938" cy="-0.2772" r="0.0025"/><circle cx="-0.0938" cy="-0.2505" r="0.0025"/><circle cx="-0.0938" cy="-0.2224" r="0.0025"/><circle cx="-0.0938" cy="-0.1933" r="0.0025"/><circle cx="-0.0938" cy="-0.1631" r="0.0025"/><circle cx="-0.0938" cy="-0.1322" r="0.0025"/><circle cx="-0.0938" cy="-0.1007" r="0.0025"/><circle cx="-0.0938" cy="-0.0688" r="0.0025"/><circle cx="-0.0938" cy="-0.0367" r="0.0025"/><circle cx="-0.0938" cy="-0.0046" r="0.0025"/><circle cx="-0.0938" cy="0.0273" r="0.0025"/><circle cx="-0.0938" cy="0.0588" r="0.0025"/><circle cx="-0.0938" cy="0.0897" r="0.0025"/><circle cx="-0.0938" cy="0.1198" r="0.0025"/><circle cx="-0.0938" cy="0.1490" r="0.0025"/><circle cx="-0.0938" cy="0.1770" r="0.0025"/><circle cx="-0.0938" cy="0.2037" r="0.0025"/><circle cx="-0.0938" cy="0.2290" r="0.0025"/><circle cx="-0.0938" cy="0.2525" r="0.0025"/><circle cx="-0.0938" cy="0.2744" r="0.0025"/><circle cx="-0.0938" cy="0.2942" r="0.0025"/><circle cx="-0.0938" cy="0.3121" r="0.0025"/><circle cx="-0.0938" cy="0.3278" r="0.0025"/><circle cx="-0.0938" cy="0.3412" r="0.0025"/><circle cx="-0.0938" cy="0.3523" r="0.0025"/><circle cx="-0.0938" cy="0.3611" r="0.0025"/><circle cx="-0.0938" cy="0.3673" r="0.0025"/><circle cx="-0.0938" cy="0.3711" r="0.0025"/><circle cx="-0.0938" cy="0.3724" r="0.0025"/><circle cx="-0.0035" cy="-0.4445" r="0.0025"/><circle cx="-0.0035" cy="-0.4408" r="0.0025"/><circle cx="-0.0035" cy="-0.4345" r="0.0025"/><circle cx="-0.0035" cy="-0.4258" r="0.0025"/><circle cx="-0.0035" cy="-0.4147" r="0.0025"/><circle cx="-0.0035" cy="-0.4012" r="0.0025"/><circle cx="-0.0035" cy="-0.3855" r="0.0025"/><circle cx="-0.0035" cy="-0.3677" r="0.0025"/><circle cx="-0.0035" cy="-0.3478" r="0.0025"/><circle cx="-0.0035" cy="-0.3260" r="0.0025"/><circle cx="-0.0035" cy="-0.3024" r="0.0025"/><circle cx="-0.0035" cy="-0.2772" r="0.0025"/><circle cx="-0.0035" cy="-0.2505" r="0.0025"/><circle cx="-0.0035" cy="-0.2224" r="0.0025"/><circle cx="-0.0035" cy="-0.1933" r="0.0025"/><circle cx="-0.0035" cy="-0.1631" r="0.0025"/><circle cx="-0.0035" cy="-0.1322" r="0.0025"/><circle cx="-0.0035" cy="-0.1007" r="0.0025"/><circle cx="-0.0035" cy="-0.0688" r="0.0025"/><circle cx="-0.0035" cy="-0.0367" r="0.0025"/><circle cx="-0.0035" cy="-0.0046" r="0.0025"/><circle cx="-0.0035" cy="0.0273" r="0.0025"/><circle cx="-0.0035" cy="0.0588" r="0.0025"/><circle cx="-0.0035" cy="0.0897" r="0.0025"/><circle cx="-0.0035" cy="0.1198" r="0.0025"/><circle cx="-0.0035" cy="0.1490" r="0.0025"/><circle cx="-0.0035" cy="0.1770" r="0.0025"/><circle cx="-0.0035" cy="0.2037" r="0.0025"/><circle cx="-0.0035" cy="0.2290" r="0.0025"/><circle cx="-0.0035" cy="0.2525" r="0.0025"/><circle cx="-0.0035" cy="0.2744" r="0.0025"/><circle cx="-0.0035" cy="0.2942" r="0.0025"/><circle cx="-0.0035" cy="0.3121" r="0.0025"/><circle cx="-0.0035" cy="0.3278" r="0.0025"/><circle cx="-0.0035" cy="0.3412" r="0.0025"/><circle cx="-0.0035" cy="0.3523" r="0.0025"/><circle cx="-0.0035" cy="0.3611" r="0.0025"/><circle cx="-0.0035" cy="0.3673" r="0.0025"/><circle cx="-0.0035" cy="0.3711" r="0.0025"/><circle cx="-0.0035" cy="0.3724" r="0.0025"/><circle cx="0.0832" cy="-0.4445" r="0.0025"/><circle cx="0.0832" cy="-0.4408" r="0.0025"/><circle cx="0.0832" cy="-0.4345" r="0.0025"/><circle cx="0.0832" cy="-0.4258" r="0.0025"/><circle cx="0.0832" cy="-0.4147" r="0.0025"/><circle cx="0.0832" cy="-0.4012" r="0.0025"/><circle cx="0.0832" cy="-0.3855" r="0.0025"/><circle cx="0.0832" cy="-0.3677" r="0.0025"/><circle cx="0.0832" cy="-0.3478" r="0.0025"/><circle cx="0.0832" cy="-0.3260" r="0.0025"/><circle cx="0.0832" cy="-0.3024" r="0.0025"/><circle cx="0.0832" cy="-0.2772" r="0.0025"/><circle cx="0.0832" cy="-0.2505" r="0.0025"/><circle cx="0.0832" cy="-0.2224" r="0.0025"/><circle cx="0.0832" cy="-0.1933" r="0.0025"/><circle cx="0.0832" cy="-0.1631" r="0.0025"/><circle cx="0.0832" cy="-0.1322" r="0.0025"/><circle cx="0.0832" cy="-0.1007" r="0.0025"/><circle cx="0.0832" cy="-0.0688" r="0.0025"/><circle cx="0.0832" cy="-0.0367" r="0.0025"/><circle cx="0.0832" cy="-0.0046" r="0.0025"/><circle cx="0.0832" cy="0.0273" r="0.0025"/><circle cx="0.0832" cy="0.0588" r="0.0025"/><circle cx="0.0832" cy="0.0897" r="0.0025"/><circle cx="0.0832" cy="0.1198" r="0.0025"/><circle cx="0.0832" cy="0.1490" r="0.0025"/><circle cx="0.0832" cy="0.1770" r="0.0025"/><circle cx="0.0832" cy="0.2037" r="0.0025"/><circle cx="0.0832" cy="0.2290" r="0.0025"/><circle cx="0.0832" cy="0.2525" r="0.0025"/><circle cx="0.0832" cy="0.2744" r="0.0025"/><circle cx="0.0832" cy="0.2942" r="0.0025"/><circle cx="0.0832" cy="0.3121" r="0.0025"/><circle cx="0.0832" cy="0.3278" r="0.0025"/><circle cx="0.0832" cy="0.3412" r="0.0025"/><circle cx="0.0832" cy="0.3523" r="0.0025"/><circle cx="0.0832" cy="0.3611" r="0.0025"/><circle cx="0.0832" cy="0.3673" r="0.0025"/><circle cx="0.0832" cy="0.3711" r="0.0025"/><circle cx="0.0832" cy="0.3724" r="0.0025"/><circle cx="0.1659" cy="-0.4445" r="0.0025"/><circle cx="0.1659" cy="-0.4408" r="0.0025"/><circle cx="0.1659" cy="-0.4345" r="0.0025"/><circle cx="0.1659" cy="-0.4258" r="0.0025"/><circle cx="0.1659" cy="-0.4147" r="0.0025"/><circle cx="0.1659" cy="-0.4012" r="0.0025"/><circle cx="0.1659" cy="-0.3855" r="0.0025"/><circle cx="0.1659" cy="-0.3677" r="0.0025"/><circle cx="0.1659" cy="-0.3478" r="0.0025"/><circle cx="0.1659" cy="-0.3260" r="0.0025"/><circle cx="0.1659" cy="-0.3024" r="0.0025"/><circle cx="0.1659" cy="-0.2772" r="0.0025"/><circle cx="0.1659" cy="-0.2505" r="0.0025"/><circle cx="0.1659" cy="-0.2224" r="0.0025"/><circle cx="0.1659" cy="-0.1933" r="0.0025"/><circle cx="0.1659" cy="-0.1631" r="0.0025"/><circle cx="0.1659" cy="-0.1322" r="0.0025"/><circle cx="0.1659" cy="-0.1007" r="0.0025"/><circle cx="0.1659" cy="-0.0688" r="0.0025"/><circle cx="0.1659" cy="-0.0367" r="0.0025"/><circle cx="0.1659" cy="-0.0046" r="0.0025"/><circle cx="0.1659" cy="0.0273" r="0.0025"/><circle cx="0.1659" cy="0.0588" r="0.0025"/><circle cx="0.1659" cy="0.0897" r="0.0025"/><circle cx="0.1659" cy="0.1198" r="0.0025"/><circle cx="0.1659" cy="0.1490" r="0.0025"/><circle cx="0.1659" cy="0.1770" r="0.0025"/><circle cx="0.1659" cy="0.2037" r="0.0025"/><circle cx="0.1659" cy="0.2290" r="0.0025"/><circle cx="0.1659" cy="0.2525" r="0.0025"/><circle cx="0.1659" cy="0.2744" r="0.0025"/><circle cx="0.1659" cy="0.2942" r="0.0025"/><circle cx="0.1659" cy="0.3121" r="0.0025"/><circle cx="0.1659" cy="0.3278" r="0.0025"/><circle cx="0.1659" cy="0.3412" r="0.0025"/><circle cx="0.1659" cy="0.3523" r="0.0025"/><circle cx="0.1659" cy="0.3611" r="0.0025"/><circle cx="0.1659" cy="0.3673" r="0.0025"/><circle cx="0.1659" cy="0.3711" r="0.0025"/><circle cx="0.1659" cy="0.3724" r="0.0025"/><circle cx="0.2440" cy="-0.4445" r="0.0025"/><circle cx="0.2440" cy="-0.4408" r="0.0025"/><circle cx="0.2440" cy="-0.4345" r="0.0025"/><circle cx="0.2440" cy="-0.4258" r="0.0025"/><circle cx="0.2440" cy="-0.4147" r="0.0025"/><circle cx="0.2440" cy="-0.4012" r="0.0025"/><circle cx="0.2440" cy="-0.3855" r="0.0025"/><circle cx="0.2440" cy="-0.3677" r="0.0025"/><circle cx="0.2440" cy="-0.3478" r="0.0025"/><circle cx="0.2440" cy="-0.3260" r="0.0025"/><circle cx="0.2440" cy="-0.3024" r="0.0025"/><circle cx="0.2440" cy="-0.2772" r="0.0025"/><circle cx="0.2440" cy="-0.2505" r="0.0025"/><circle cx="0.2440" cy="-0.2224" r="0.0025"/><circle cx="0.2440" cy="-0.1933" r="0.0025"/><circle cx="0.2440" cy="-0.1631" r="0.0025"/><circle cx="0.2440" cy="-0.1322" r="0.0025"/><circle cx="0.2440" cy="-0.1007" r="0.0025"/><circle cx="0.2440" cy="-0.0688" r="0.0025"/><circle cx="0.2440" cy="-0.0367" r="0.0025"/><circle cx="0.2440" cy="-0.0046" r="0.0025"/><circle cx="0.2440" cy="0.0273" r="0.0025"/><circle cx="0.2440" cy="0.0588" r="0.0025"/><circle cx="0.2440" cy="0.0897" r="0.0025"/><circle cx="0.2440" cy="0.1198" r="0.0025"/><circle cx="0.2440" cy="0.1490" r="0.0025"/><circle cx="0.2440" cy="0.1770" r="0.0025"/><circle cx="0.2440" cy="0.2037" r="0.0025"/><circle cx="0.2440" cy="0.2290" r="0.0025"/><circle cx="0.2440" cy="0.2525" r="0.0025"/><circle cx="0.2440" cy="0.2744" r="0.0025"/><circle cx="0.2440" cy="0.2942" r="0.0025"/><circle cx="0.2440" cy="0.3121" r="0.0025"/><circle cx="0.2440" cy="0.3278" r="0.0025"/><circle cx="0.2440" cy="0.3412" r="0.0025"/><circle cx="0.2440" cy="0.3523" r="0.0025"/><circle cx="0.2440" cy="0.3611" r="0.0025"/><circle cx="0.2440" cy="0.3673" r="0.0025"/><circle cx="0.2440" cy="0.3711" r="0.0025"/><circle cx="0.2440" cy="0.3724" r="0.0025"/><circle cx="0.3170" cy="-0.4445" r="0.0025"/><circle cx="0.3170" cy="-0.4408" r="0.0025"/><circle cx="0.3170" cy="-0.4345" r="0.0025"/><circle cx="0.3170" cy="-0.4258" r="0.0025"/><circle cx="0.3170" cy="-0.4147" r="0.0025"/><circle cx="0.3170" cy="-0.4012" r="0.0025"/><circle cx="0.3170" cy="-0.3855" r="0.0025"/><circle cx="0.3170" cy="-0.3677" r="0.0025"/><circle cx="0.3170" cy="-0.3478" r="0.0025"/><circle cx="0.3170" cy="-0.3260" r="0.0025"/><circle cx="0.3170" cy="-0.3024" r="0.0025"/><circle cx="0.3170" cy="-0.2772" r="0.0025"/><circle cx="0.3170" cy="-0.2505" r="0.0025"/><circle cx="0.3170" cy="-0.2224" r="0.0025"/><circle cx="0.3170" cy="-0.1933" r="0.0025"/><circle cx="0.3170" cy="-0.1631" r="0.0025"/><circle cx="0.3170" cy="-0.1322" r="0.0025"/><circle cx="0.3170" cy="-0.1007" r="0.0025"/><circle cx="0.3170" cy="-0.0688" r="0.0025"/><circle cx="0.3170" cy="-0.0367" r="0.0025"/><circle cx="0.3170" cy="-0.0046" r="0.0025"/><circle cx="0.3170" cy="0.0273" r="0.0025"/><circle cx="0.3170" cy="0.0588" r="0.0025"/><circle cx="0.3170" cy="0.0897" r="0.0025"/><circle cx="0.3170" cy="0.1198" r="0.0025"/><circle cx="0.3170" cy="0.1490" r="0.0025"/><circle cx="0.3170" cy="0.1770" r="0.0025"/><circle cx="0.3170" cy="0.2037" r="0.0025"/><circle cx="0.3170" cy="0.2290" r="0.0025"/><circle cx="0.3170" cy="0.2525" r="0.0025"/><circle cx="0.3170" cy="0.2744" r="0.0025"/><circle cx="0.3170" cy="0.2942" r="0.0025"/><circle cx="0.3170" cy="0.3121" r="0.0025"/><circle cx="0.3170" cy="0.3278" r="0.0025"/><circle cx="0.3170" cy="0.3412" r="0.0025"/><circle cx="0.3170" cy="0.3523" r="0.0025"/><circle cx="0.3170" cy="0.3611" r="0.0025"/><circle cx="0.3170" cy="0.3673" r="0.0025"/><circle cx="0.3170" cy="0.3711" r="0.0025"/><circle cx="0.3170" cy="0.3724" r="0.0025"/><circle cx="0.3844" cy="-0.4445" r="0.0025"/><circle cx="0.3844" cy="-0.4408" r="0.0025"/><circle cx="0.3844" cy="-0.4345" r="0.0025"/><circle cx="0.3844" cy="-0.4258" r="0.0025"/><circle cx="0.3844" cy="-0.4147" r="0.0025"/><circle cx="0.3844" cy="-0.4012" r="0.0025"/><circle cx="0.3844" cy="-0.3855" r="0.0025"/><circle cx="0.3844" cy="-0.3677" r="0.0025"/><circle cx="0.3844" cy="-0.3478" r="0.0025"/><circle cx="0.3844" cy="-0.3260" r="0.0025"/><circle cx="0.3844" cy="-0.3024" r="0.0025"/><circle cx="0.3844" cy="-0.2772" r="0.0025"/><circle cx="0.3844" cy="-0.2505" r="0.0025"/><circle cx="0.3844" cy="-0.2224" r="0.0025"/><circle cx="0.3844" cy="-0.1933" r="0.0025"/><circle cx="0.3844" cy="-0.1631" r="0.0025"/><circle cx="0.3844" cy="-0.1322" r="0.0025"/><circle cx="0.3844" cy="-0.1007" r="0.0025"/><circle cx="0.3844" cy="-0.0688" r="0.0025"/><circle cx="0.3844" cy="-0.0367" r="0.0025"/><circle cx="0.3844" cy="-0.0046" r="0.0025"/><circle cx="0.3844" cy="0.0273" r="0.0025"/><circle cx="0.3844" cy="0.0588" r="0.0025"/><circle cx="0.3844" cy="0.0897" r="0.0025"/><circle cx="0.3844" cy="0.1198" r="0.0025"/><circle cx="0.3844" cy="0.1490" r="0.0025"/><circle cx="0.3844" cy="0.1770" r="0.0025"/><circle cx="0.3844" cy="0.2037" r="0.0025"/><circle cx="0.3844" cy="0.2290" r="0.0025"/><circle cx="0.3844" cy="0.2525" r="0.0025"/><circle cx="0.3844" cy="0.2744" r="0.0025"/><circle cx="0.3844" cy="0.2942" r="0.0025"/><circle cx="0.3844" cy="0.3121" r="0.0025"/><circle cx="0.3844" cy="0.3278" r="0.0025"/><circle cx="0.3844" cy="0.3412" r="0.0025"/><circle cx="0.3844" cy="0.3523" r="0.0025"/><circle cx="0.3844" cy="0.3611" r="0.0025"/><circle cx="0.3844" cy="0.3673" r="0.0025"/><circle cx="0.3844" cy="0.3711" r="0.0025"/><circle cx="0.3844" cy="0.3724" r="0.0025"/><circle cx="0.4460" cy="-0.4445" r="0.0025"/><circle cx="0.4460" cy="-0.4408" r="0.0025"/><circle cx="0.4460" cy="-0.4345" r="0.0025"/><circle cx="0.4460" cy="-0.4258" r="0.0025"/><circle cx="0.4460" cy="-0.4147" r="0.0025"/><circle cx="0.4460" cy="-0.4012" r="0.0025"/><circle cx="0.4460" cy="-0.3855" r="0.0025"/><circle cx="0.4460" cy="-0.3677" r="0.0025"/><circle cx="0.4460" cy="-0.3478" r="0.0025"/><circle cx="0.4460" cy="-0.3260" r="0.0025"/><circle cx="0.4460" cy="-0.3024" r="0.0025"/><circle cx="0.4460" cy="-0.2772" r="0.0025"/><circle cx="0.4460" cy="-0.2505" r="0.0025"/><circle cx="0.4460" cy="-0.2224" r="0.0025"/><circle cx="0.4460" cy="-0.1933" r="0.0025"/><circle cx="0.4460" cy="-0.1631" r="0.0025"/><circle cx="0.4460" cy="-0.1322" r="0.0025"/><circle cx="0.4460" cy="-0.1007" r="0.0025"/><circle cx="0.4460" cy="-0.0688" r="0.0025"/><circle cx="0.4460" cy="-0.0367" r="0.0025"/><circle cx="0.4460" cy="-0.0046" r="0.0025"/><circle cx="0.4460" cy="0.0273" r="0.0025"/><circle cx="0.4460" cy="0.0588" r="0.0025"/><circle cx="0.4460" cy="0.0897" r="0.0025"/><circle cx="0.4460" cy="0.1198" r="0.0025"/><circle cx="0.4460" cy="0.1490" r="0.0025"/><circle cx="0.4460" cy="0.1770" r="0.0025"/><circle cx="0.4460" cy="0.2037" r="0.0025"/><circle cx="0.4460" cy="0.2290" r="0.0025"/><circle cx="0.4460" cy="0.2525" r="0.0025"/><circle cx="0.4460" cy="0.2744" r="0.0025"/><circle cx="0.4460" cy="0.2942" r="0.0025"/><circle cx="0.4460" cy="0.3121" r="0.0025"/><circle cx="0.4460" cy="0.3278" r="0.0025"/><circle cx="0.4460" cy="0.3412" r="0.0025"/><circle cx="0.4460" cy="0.3523" r="0.0025"/><circle cx="0.4460" cy="0.3611" r="0.0025"/><circle cx="0.4460" cy="0.3673" r="0.0025"/><circle cx="0.4460" cy="0.3711" r="0.0025"/><circle cx="0.4460" cy="0.3724" r="0.0025"/><circle cx="0.5012" cy="-0.4445" r="0.0025"/><circle cx="0.5012" cy="-0.4408" r="0.0025"/><circle cx="0.5012" cy="-0.4345" r="0.0025"/><circle cx="0.5012" cy="-0.4258" r="0.0025"/><circle cx="0.5012" cy="-0.4147" r="0.0025"/><circle cx="0.5012" cy="-0.4012" r="0.0025"/><circle cx="0.5012" cy="-0.3855" r="0.0025"/><circle cx="0.5012" cy="-0.3677" r="0.0025"/><circle cx="0.5012" cy="-0.3478" r="0.0025"/><circle cx="0.5012" cy="-0.3260" r="0.0025"/><circle cx="0.5012" cy="-0.3024" r="0.0025"/><circle cx="0.5012" cy="-0.2772" r="0.0025"/><circle cx="0.5012" cy="-0.2505" r="0.0025"/><circle cx="0.5012" cy="-0.2224" r="0.0025"/><circle cx="0.5012" cy="-0.1933" r="0.0025"/><circle cx="0.5012" cy="-0.1631" r="0.0025"/><circle cx="0.5012" cy="-0.1322" r="0.0025"/><circle cx="0.5012" cy="-0.1007" r="0.0025"/><circle cx="0.5012" cy="-0.0688" r="0.0025"/><circle cx="0.5012" cy="-0.0367" r="0.0025"/><circle cx="0.5012" cy="-0.0046" r="0.0025"/><circle cx="0.5012" cy="0.0273" r="0.0025"/><circle cx="0.5012" cy="0.0588" r="0.0025"/><circle cx="0.5012" cy="0.0897" r="0.0025"/><circle cx="0.5012" cy="0.1198" r="0.0025"/><circle cx="0.5012" cy="0.1490" r="0.0025"/><circle cx="0.5012" cy="0.1770" r="0.0025"/><circle cx="0.5012" cy="0.2037" r="0.0025"/><circle cx="0.5012" cy="0.2290" r="0.0025"/><circle cx="0.5012" cy="0.2525" r="0.0025"/><circle cx="0.5012" cy="0.2744" r="0.0025"/><circle cx="0.5012" cy="0.2942" r="0.0025"/><circle cx="0.5012" cy="0.3121" r="0.0025"/><circle cx="0.5012" cy="0.3278" r="0.0025"/><circle cx="0.5012" cy="0.3412" r="0.0025"/><circle cx="0.5012" cy="0.3523" r="0.0025"/><circle cx="0.5012" cy="0.3611" r="0.0025"/><circle cx="0.5012" cy="0.3673" r="0.0025"/><circle cx="0.5012" cy="0.3711" r="0.0025"/><circle cx="0.5012" cy="0.3724" r="0.0025"/><circle cx="0.5498" cy="-0.4445" r="0.0025"/><circle cx="0.5498" cy="-0.4408" r="0.0025"/><circle cx="0.5498" cy="-0.4345" r="0.0025"/><circle cx="0.5498" cy="-0.4258" r="0.0025"/><circle cx="0.5498" cy="-0.4147" r="0.0025"/><circle cx="0.5498" cy="-0.4012" r="0.0025"/><circle cx="0.5498" cy="-0.3855" r="0.0025"/><circle cx="0.5498" cy="-0.3677" r="0.0025"/><circle cx="0.5498" cy="-0.3478" r="0.0025"/><circle cx="0.5498" cy="-0.3260" r="0.0025"/><circle cx="0.5498" cy="-0.3024" r="0.0025"/><circle cx="0.5498" cy="-0.2772" r="0.0025"/><circle cx="0.5498" cy="-0.2505" r="0.0025"/><circle cx="0.5498" cy="-0.2224" r="0.0025"/><circle cx="0.5498" cy="-0.1933" r="0.0025"/><circle cx="0.5498" cy="-0.1631" r="0.0025"/><circle cx="0.5498" cy="-0.1322" r="0.0025"/><circle cx="0.5498" cy="-0.1007" r="0.0025"/><circle cx="0.5498" cy="-0.0688" r="0.0025"/><circle cx="0.5498" cy="-0.0367" r="0.0025"/><circle cx="0.5498" cy="-0.0046" r="0.0025"/><circle cx="0.5498" cy="0.0273" r="0.0025"/><circle cx="0.5498" cy="0.0588" r="0.0025"/><circle cx="0.5498" cy="0.0897" r="0.0025"/><circle cx="0.5498" cy="0.1198" r="0.0025"/><circle cx="0.5498" cy="0.1490" r="0.0025"/><circle cx="0.5498" cy="0.1770" r="0.0025"/><circle cx="0.5498" cy="0.2037" r="0.0025"/><circle cx="0.5498" cy="0.2290" r="0.0025"/><circle cx="0.5498" cy="0.2525" r="0.0025"/><circle cx="0.5498" cy="0.2744" r="0.0025"/><circle cx="0.5498" cy="0.2942" r="0.0025"/><circle cx="0.5498" cy="0.3121" r="0.0025"/><circle cx="0.5498" cy="0.3278" r="0.0025"/><circle cx="0.5498" cy="0.3412" r="0.0025"/><circle cx="0.5498" cy="0.3523" r="0.0025"/><circle cx="0.5498" cy="0.3611" r="0.0025"/><circle cx="0.5498" cy="0.3673" r="0.0025"/><circle cx="0.5498" cy="0.3711" r="0.0025"/><circle cx="0.5498" cy="0.3724" r="0.0025"/><circle cx="0.5914" cy="-0.4445" r="0.0025"/><circle cx="0.5914" cy="-0.4408" r="0.0025"/><circle cx="0.5914" cy="-0.4345" r="0.0025"/><circle cx="0.5914" cy="-0.4258" r="0.0025"/><circle cx="0.5914" cy="-0.4147" r="0.0025"/><circle cx="0.5914" cy="-0.4012" r="0.0025"/><circle cx="0.5914" cy="-0.3855" r="0.0025"/><circle cx="0.5914" cy="-0.3677" r="0.0025"/><circle cx="0.5914" cy="-0.3478" r="0.0025"/><circle cx="0.5914" cy="-0.3260" r="0.0025"/><circle cx="0.5914" cy="-0.3024" r="0.0025"/><circle cx="0.5914" cy="-0.2772" r="0.0025"/><circle cx="0.5914" cy="-0.2505" r="0.0025"/><circle cx="0.5914" cy="-0.2224" r="0.0025"/><circle cx="0.5914" cy="-0.1933" r="0.0025"/><circle cx="0.5914" cy="-0.1631" r="0.0025"/><circle cx="0.5914" cy="-0.1322" r="0.0025"/><circle cx="0.5914" cy="-0.1007" r="0.0025"/><circle cx="0.5914" cy="-0.0688" r="0.0025"/><circle cx="0.5914" cy="-0.0367" r="0.0025"/><circle cx="0.5914" cy="-0.0046" r="0.0025"/><circle cx="0.5914" cy="0.0273" r="0.0025"/><circle cx="0.5914" cy="0.0588" r="0.0025"/><circle cx="0.5914" cy="0.0897" r="0.0025"/><circle cx="0.5914" cy="0.1198" r="0.0025"/><circle cx="0.5914" cy="0.1490" r="0.0025"/><circle cx="0.5914" cy="0.1770" r="0.0025"/><circle cx="0.5914" cy="0.2037" r="0.0025"/><circle cx="0.5914" cy="0.2290" r="0.0025"/><circle cx="0.5914" cy="0.2525" r="0.0025"/><circle cx="0.5914" cy="0.2744" r="0.0025"/><circle cx="0.5914" cy="0.2942" r="0.0025"/><circle cx="0.5914" cy="0.3121" r="0.0025"/><circle cx="0.5914" cy="0.3278" r="0.0025"/><circle cx="0.5914" cy="0.3412" r="0.0025"/><circle cx="0.5914" cy="0.3523" r="0.0025"/><circle cx="0.5914" cy="0.3611" r="0.0025"/><circle cx="0.5914" cy="0.3673" r="0.0025"/><circle cx="0.5914" cy="0.3711" r="0.0025"/><circle cx="0.5914" cy="0.3724" r="0.0025"/><circle cx="0.6258" cy="-0.4445" r="0.0025"/><circle cx="0.6258" cy="-0.4408" r="0.0025"/><circle cx="0.6258" cy="-0.4345" r="0.0025"/><circle cx="0.6258" cy="-0.4258" r="0.0025"/><circle cx="0.6258" cy="-0.4147" r="0.0025"/><circle cx="0.6258" cy="-0.4012" r="0.0025"/><circle cx="0.6258" cy="-0.3855" r="0.0025"/><circle cx="0.6258" cy="-0.3677" r="0.0025"/><circle cx="0.6258" cy="-0.3478" r="0.0025"/><circle cx="0.6258" cy="-0.3260" r="0.0025"/><circle cx="0.6258" cy="-0.3024" r="0.0025"/><circle cx="0.6258" cy="-0.2772" r="0.0025"/><circle cx="0.6258" cy="-0.2505" r="0.0025"/><circle cx="0.6258" cy="-0.2224" r="0.0025"/><circle cx="0.6258" cy="-0.1933" r="0.0025"/><circle cx="0.6258" cy="-0.1631" r="0.0025"/><circle cx="0.6258" cy="-0.1322" r="0.0025"/><circle cx="0.6258" cy="-0.1007" r="0.0025"/><circle cx="0.6258" cy="-0.0688" r="0.0025"/><circle cx="0.6258" cy="-0.0367" r="0.0025"/><circle cx="0.6258" cy="-0.0046" r="0.0025"/><circle cx="0.6258" cy="0.0273" r="0.0025"/><circle cx="0.6258" cy="0.0588" r="0.0025"/><circle cx="0.6258" cy="0.0897" r="0.0025"/><circle cx="0.6258" cy="0.1198" r="0.0025"/><circle cx="0.6258" cy="0.1490" r="0.0025"/><circle cx="0.6258" cy="0.1770" r="0.0025"/><circle cx="0.6258" cy="0.2037" r="0.0025"/><circle cx="0.6258" cy="0.2290" r="0.0025"/><circle cx="0.6258" cy="0.2525" r="0.0025"/><circle cx="0.6258" cy="0.2744" r="0.0025"/><circle cx="0.6258" cy="0.2942" r="0.0025"/><circle cx="0.6258" cy="0.3121" r="0.0025"/><circle cx="0.6258" cy="0.3278" r="0.0025"/><circle cx="0.6258" cy="0.3412" r="0.0025"/><circle cx="0.6258" cy="0.3523" r="0.0025"/><circle cx="0.6258" cy="0.3611" r="0.0025"/><circle cx="0.6258" cy="0.3673" r="0.0025"/><circle cx="0.6258" cy="0.3711" r="0.0025"/><circle cx="0.6258" cy="0.3724" r="0.0025"/><circle cx="0.6528" cy="-0.4445" r="0.0025"/><circle cx="0.6528" cy="-0.4408" r="0.0025"/><circle cx="0.6528" cy="-0.4345" r="0.0025"/><circle cx="0.6528" cy="-0.4258" r="0.0025"/><circle cx="0.6528" cy="-0.4147" r="0.0025"/><circle cx="0.6528" cy="-0.4012" r="0.0025"/><circle cx="0.6528" cy="-0.3855" r="0.0025"/><circle cx="0.6528" cy="-0.3677" r="0.0025"/><circle cx="0.6528" cy="-0.3478" r="0.0025"/><circle cx="0.6528" cy="-0.3260" r="0.0025"/><circle cx="0.6528" cy="-0.3024" r="0.0025"/><circle cx="0.6528" cy="-0.2772" r="0.0025"/><circle cx="0.6528" cy="-0.2505" r="0.0025"/><circle cx="0.6528" cy="-0.2224" r="0.0025"/><circle cx="0.6528" cy="-0.1933" r="0.0025"/><circle cx="0.6528" cy="-0.1631" r="0.0025"/><circle cx="0.6528" cy="-0.1322" r="0.0025"/><circle cx="0.6528" cy="-0.1007" r="0.0025"/><circle cx="0.6528" cy="-0.0688" r="0.0025"/><circle cx="0.6528" cy="-0.0367" r="0.0025"/><circle cx="0.6528" cy="-0.0046" r="0.0025"/><circle cx="0.6528" cy="0.0273" r="0.0025"/><circle cx="0.6528" cy="0.0588" r="0.0025"/><circle cx="0.6528" cy="0.0897" r="0.0025"/><circle cx="0.6528" cy="0.1198" r="0.0025"/><circle cx="0.6528" cy="0.1490" r="0.0025"/><circle cx="0.6528" cy="0.1770" r="0.0025"/><circle cx="0.6528" cy="0.2037" r="0.0025"/><circle cx="0.6528" cy="0.2290" r="0.0025"/><circle cx="0.6528" cy="0.2525" r="0.0025"/><circle cx="0.6528" cy="0.2744" r="0.0025"/><circle cx="0.6528" cy="0.2942" r="0.0025"/><circle cx="0.6528" cy="0.3121" r="0.0025"/><circle cx="0.6528" cy="0.3278" r="0.0025"/><circle cx="0.6528" cy="0.3412" r="0.0025"/><circle cx="0.6528" cy="0.3523" r="0.0025"/><circle cx="0.6528" cy="0.3611" r="0.0025"/><circle cx="0.6528" cy="0.3673" r="0.0025"/><circle cx="0.6528" cy="0.3711" r="0.0025"/><circle cx="0.6528" cy="0.3724" r="0.0025"/><circle cx="0.6722" cy="-0.4445" r="0.0025"/><circle cx="0.6722" cy="-0.4408" r="0.0025"/><circle cx="0.6722" cy="-0.4345" r="0.0025"/><circle cx="0.6722" cy="-0.4258" r="0.0025"/><circle cx="0.6722" cy="-0.4147" r="0.0025"/><circle cx="0.6722" cy="-0.4012" r="0.0025"/><circle cx="0.6722" cy="-0.3855" r="0.0025"/><circle cx="0.6722" cy="-0.3677" r="0.0025"/><circle cx="0.6722" cy="-0.3478" r="0.0025"/><circle cx="0.6722" cy="-0.3260" r="0.0025"/><circle cx="0.6722" cy="-0.3024" r="0.0025"/><circle cx="0.6722" cy="-0.2772" r="0.0025"/><circle cx="0.6722" cy="-0.2505" r="0.0025"/><circle cx="0.6722" cy="-0.2224" r="0.0025"/><circle cx="0.6722" cy="-0.1933" r="0.0025"/><circle cx="0.6722" cy="-0.1631" r="0.0025"/><circle cx="0.6722" cy="-0.1322" r="0.0025"/><circle cx="0.6722" cy="-0.1007" r="0.0025"/><circle cx="0.6722" cy="-0.0688" r="0.0025"/><circle cx="0.6722" cy="-0.0367" r="0.0025"/><circle cx="0.6722" cy="-0.0046" r="0.0025"/><circle cx="0.6722" cy="0.0273" r="0.0025"/><circle cx="0.6722" cy="0.0588" r="0.0025"/><circle cx="0.6722" cy="0.0897" r="0.0025"/><circle cx="0.6722" cy="0.1198" r="0.0025"/><circle cx="0.6722" cy="0.1490" r="0.0025"/><circle cx="0.6722" cy="0.1770" r="0.0025"/><circle cx="0.6722" cy="0.2037" r="0.0025"/><circle cx="0.6722" cy="0.2290" r="0.0025"/><circle cx="0.6722" cy="0.2525" r="0.0025"/><circle cx="0.6722" cy="0.2744" r="0.0025"/><circle cx="0.6722" cy="0.2942" r="0.0025"/><circle cx="0.6722" cy="0.3121" r="0.0025"/><circle cx="0.6722" cy="0.3278" r="0.0025"/><circle cx="0.6722" cy="0.3412" r="0.0025"/><circle cx="0.6722" cy="0.3523" r="0.0025"/><circle cx="0.6722" cy="0.3611" r="0.0025"/><circle cx="0.6722" cy="0.3673" r="0.0025"/><circle cx="0.6722" cy="0.3711" r="0.0025"/><circle cx="0.6722" cy="0.3724" r="0.0025"/><circle cx="0.6839" cy="-0.4445" r="0.0025"/><circle cx="0.6839" cy="-0.4408" r="0.0025"/><circle cx="0.6839" cy="-0.4345" r="0.0025"/><circle cx="0.6839" cy="-0.4258" r="0.0025"/><circle cx="0.6839" cy="-0.4147" r="0.0025"/><circle cx="0.6839" cy="-0.4012" r="0.0025"/><circle cx="0.6839" cy="-0.3855" r="0.0025"/><circle cx="0.6839" cy="-0.3677" r="0.0025"/><circle cx="0.6839" cy="-0.3478" r="0.0025"/><circle cx="0.6839" cy="-0.3260" r="0.0025"/><circle cx="0.6839" cy="-0.3024" r="0.0025"/><circle cx="0.6839" cy="-0.2772" r="0.0025"/><circle cx="0.6839" cy="-0.2505" r="0.0025"/><circle cx="0.6839" cy="-0.2224" r="0.0025"/><circle cx="0.6839" cy="-0.1933" r="0.0025"/><circle cx="0.6839" cy="-0.1631" r="0.0025"/><circle cx="0.6839" cy="-0.1322" r="0.0025"/><circle cx="0.6839" cy="-0.1007" r="0.0025"/><circle cx="0.6839" cy="-0.0688" r="0.0025"/><circle cx="0.6839" cy="-0.0367" r="0.0025"/><circle cx="0.6839" cy="-0.0046" r="0.0025"/><circle cx="0.6839" cy="0.0273" r="0.0025"/><circle cx="0.6839" cy="0.0588" r="0.0025"/><circle cx="0.6839" cy="0.0897" r="0.0025"/><circle cx="0.6839" cy="0.1198" r="0.0025"/><circle cx="0.6839" cy="0.1490" r="0.0025"/><circle cx="0.6839" cy="0.1770" r="0.0025"/><circle cx="0.6839" cy="0.2037" r="0.0025"/><circle cx="0.6839" cy="0.2290" r="0.0025"/><circle cx="0.6839" cy="0.2525" r="0.0025"/><circle cx="0.6839" cy="0.2744" r="0.0025"/><circle cx="0.6839" cy="0.2942" r="0.0025"/><circle cx="0.6839" cy="0.3121" r="0.0025"/><circle cx="0.6839" cy="0.3278" r="0.0025"/><circle cx="0.6839" cy="0.3412" r="0.0025"/><circle cx="0.6839" cy="0.3523" r="0.0025"/><circle cx="0.6839" cy="0.3611" r="0.0025"/><circle cx="0.6839" cy="0.3673" r="0.0025"/><circle cx="0.6839" cy="0.3711" r="0.0025"/><circle cx="0.6839" cy="0.3724" r="0.0025"/><circle cx="0.6878" cy="-0.4445" r="0.0025"/><circle cx="0.6878" cy="-0.4408" r="0.0025"/><circle cx="0.6878" cy="-0.4345" r="0.0025"/><circle cx="0.6878" cy="-0.4258" r="0.0025"/><circle cx="0.6878" cy="-0.4147" r="0.0025"/><circle cx="0.6878" cy="-0.4012" r="0.0025"/><circle cx="0.6878" cy="-0.3855" r="0.0025"/><circle cx="0.6878" cy="-0.3677" r="0.0025"/><circle cx="0.6878" cy="-0.3478" r="0.0025"/><circle cx="0.6878" cy="-0.3260" r="0.0025"/><circle cx="0.6878" cy="-0.3024" r="0.0025"/><circle cx="0.6878" cy="-0.2772" r="0.0025"/><circle cx="0.6878" cy="-0.2505" r="0.0025"/><circle cx="0.6878" cy="-0.2224" r="0.0025"/><circle cx="0.6878" cy="-0.1933" r="0.0025"/><circle cx="0.6878" cy="-0.1631" r="0.0025"/><circle cx="0.6878" cy="-0.1322" r="0.0025"/><circle cx="0.6878" cy="-0.1007" r="0.0025"/><circle cx="0.6878" cy="-0.0688" r="0.0025"/><circle cx="0.6878" cy="-0.0367" r="0.0025"/><circle cx="0.6878" cy="-0.0046" r="0.0025"/><circle cx="0.6878" cy="0.0273" r="0.0025"/><circle cx="0.6878" cy="0.0588" r="0.0025"/><circle cx="0.6878" cy="0.0897" r="0.0025"/><circle cx="0.6878" cy="0.1198" r="0.0025"/><circle cx="0.6878" cy="0.1490" r="0.0025"/><circle cx="0.6878" cy="0.1770" r="0.0025"/><circle cx="0.6878" cy="0.2037" r="0.0025"/><circle cx="0.6878" cy="0.2290" r="0.0025"/><circle cx="0.6878" cy="0.2525" r="0.0025"/><circle cx="0.6878" cy="0.2744" r="0.0025"/><circle cx="0.6878" cy="0.2942" r="0.0025"/><circle cx="0.6878" cy="0.3121" r="0.0025"/><circle cx="0.6878" cy="0.3278" r="0.0025"/><circle cx="0.6878" cy="0.3412" r="0.0025"/><circle cx="0.6878" cy="0.3523" r="0.0025"/><circle cx="0.6878" cy="0.3611" r="0.0025"/><circle cx="0.6878" cy="0.3673" r="0.0025"/><circle cx="0.6878" cy="0.3711" r="0.0025"/><circle cx="0.6878" cy="0.3724" r="0.0025"/><circle cx="0.6839" cy="-0.4445" r="0.0025"/><circle cx="0.6839" cy="-0.4408" r="0.0025"/><circle cx="0.6839" cy="-0.4345" r="0.0025"/><circle cx="0.6839" cy="-0.4258" r="0.0025"/><circle cx="0.6839" cy="-0.4147" r="0.0025"/><circle cx="0.6839" cy="-0.4012" r="0.0025"/><circle cx="0.6839" cy="-0.3855" r="0.0025"/><circle cx="0.6839" cy="-0.3677" r="0.0025"/><circle cx="0.6839" cy="-0.3478" r="0.0025"/><circle cx="0.6839" cy="-0.3260" r="0.0025"/><circle cx="0.6839" cy="-0.3024" r="0.0025"/><circle cx="0.6839" cy="-0.2772" r="0.0025"/><circle cx="0.6839" cy="-0.2505" r="0.0025"/><circle cx="0.6839" cy="-0.2224" r="0.0025"/><circle cx="0.6839" cy="-0.1933" r="0.0025"/><circle cx="0.6839" cy="-0.1631" r="0.0025"/><circle cx="0.6839" cy="-0.1322" r="0.0025"/><circle cx="0.6839" cy="-0.1007" r="0.0025"/><circle cx="0.6839" cy="-0.0688" r="0.0025"/><circle cx="0.6839" cy="-0.0367" r="0.0025"/><circle cx="0.6839" cy="-0.0046" r="0.0025"/><circle cx="0.6839" cy="0.0273" r="0.0025"/><circle cx="0.6839" cy="0.0588" r="0.0025"/><circle cx="0.6839" cy="0.0897" r="0.0025"/><circle cx="0.6839" cy="0.1198" r="0.0025"/><circle cx="0.6839" cy="0.1490" r="0.0025"/><circle cx="0.6839" cy="0.1770" r="0.0025"/><circle cx="0.6839" cy="0.2037" r="0.0025"/><circle cx="0.6839" cy="0.2290" r="0.0025"/><circle cx="0.6839" cy="0.2525" r="0.0025"/><circle cx="0.6839" cy="0.2744" r="0.0025"/><circle cx="0.6839" cy="0.2942" r="0.0025"/><circle cx="0.6839" cy="0.3121" r="0.0025"/><circle cx="0.6839" cy="0.3278" r="0.0025"/><circle cx="0.6839" cy="0.3412" r="0.0025"/><circle cx="0.6839" cy="0.3523" r="0.0025"/><circle cx="0.6839" cy="0.3611" r="0.0025"/><circle cx="0.6839" cy="0.3673" r="0.0025"/><circle cx="0.6839" cy="0.3711" r="0.0025"/><circle cx="0.6839" cy="0.3724" r="0.0025"/><circle cx="0.6722" cy="-0.4445" r="0.0025"/><circle cx="0.6722" cy="-0.4408" r="0.0025"/><circle cx="0.6722" cy="-0.4345" r="0.0025"/><circle cx="0.6722" cy="-0.4258" r="0.0025"/><circle cx="0.6722" cy="-0.4147" r="0.0025"/><circle cx="0.6722" cy="-0.4012" r="0.0025"/><circle cx="0.6722" cy="-0.3855" r="0.0025"/><circle cx="0.6722" cy="-0.3677" r="0.0025"/><circle cx="0.6722" cy="-0.3478" r="0.0025"/><circle cx="0.6722" cy="-0.3260" r="0.0025"/><circle cx="0.6722" cy="-0.3024" r="0.0025"/><circle cx="0.6722" cy="-0.2772" r="0.0025"/><circle cx="0.6722" cy="-0.2505" r="0.0025"/><circle cx="0.6722" cy="-0.2224" r="0.0025"/><circle cx="0.6722" cy="-0.1933" r="0.0025"/><circle cx="0.6722" cy="-0.1631" r="0.0025"/><circle cx="0.6722" cy="-0.1322" r="0.0025"/><circle cx="0.6722" cy="-0.1007" r="0.0025"/><circle cx="0.6722" cy="-0.0688" r="0.0025"/><circle cx="0.6722" cy="-0.0367" r="0.0025"/><circle cx="0.6722" cy="-0.0046" r="0.0025"/><circle cx="0.6722" cy="0.0273" r="0.0025"/><circle cx="0.6722" cy="0.0588" r="0.0025"/><circle cx="0.6722" cy="0.0897" r="0.0025"/><circle cx="0.6722" cy="0.1198" r="0.0025"/><circle cx="0.6722" cy="0.1490" r="0.0025"/><circle cx="0.6722" cy="0.1770" r="0.0025"/><circle cx="0.6722" cy="0.2037" r="0.0025"/><circle cx="0.6722" cy="0.2290" r="0.0025"/><circle cx="0.6722" cy="0.2525" r="0.0025"/><circle cx="0.6722" cy="0.2744" r="0.0025"/><circle cx="0.6722" cy="0.2942" r="0.0025"/><circle cx="0.6722" cy="0.3121" r="0.0025"/><circle cx="0.6722" cy="0.3278" r="0.0025"/><circle cx="0.6722" cy="0.3412" r="0.0025"/><circle cx="0.6722" cy="0.3523" r="0.0025"/><circle cx="0.6722" cy="0.3611" r="0.0025"/><circle cx="0.6722" cy="0.3673" r="0.0025"/><circle cx="0.6722" cy="0.3711" r="0.0025"/><circle cx="0.6722" cy="0.3724" r="0.0025"/><circle cx="0.6528" cy="-0.4445" r="0.0025"/><circle cx="0.6528" cy="-0.4408" r="0.0025"/><circle cx="0.6528" cy="-0.4345" r="0.0025"/><circle cx="0.6528" cy="-0.4258" r="0.0025"/><circle cx="0.6528" cy="-0.4147" r="0.0025"/><circle cx="0.6528" cy="-0.4012" r="0.0025"/><circle cx="0.6528" cy="-0.3855" r="0.0025"/><circle cx="0.6528" cy="-0.3677" r="0.0025"/><circle cx="0.6528" cy="-0.3478" r="0.0025"/><circle cx="0.6528" cy="-0.3260" r="0.0025"/><circle cx="0.6528" cy="-0.3024" r="0.0025"/><circle cx="0.6528" cy="-0.2772" r="0.0025"/><circle cx="0.6528" cy="-0.2505" r="0.0025"/><circle cx="0.6528" cy="-0.2224" r="0.0025"/><circle cx="0.6528" cy="-0.1933" r="0.0025"/><circle cx="0.6528" cy="-0.1631" r="0.0025"/><circle cx="0.6528" cy="-0.1322" r="0.0025"/><circle cx="0.6528" cy="-0.1007" r="0.0025"/><circle cx="0.6528" cy="-0.0688" r="0.0025"/><circle cx="0.6528" cy="-0.0367" r="0.0025"/><circle cx="0.6528" cy="-0.0046" r="0.0025"/><circle cx="0.6528" cy="0.0273" r="0.0025"/><circle cx="0.6528" cy="0.0588" r="0.0025"/><circle cx="0.6528" cy="0.0897" r="0.0025"/><circle cx="0.6528" cy="0.1198" r="0.0025"/><circle cx="0.6528" cy="0.1490" r="0.0025"/><circle cx="0.6528" cy="0.1770" r="0.0025"/><circle cx="0.6528" cy="0.2037" r="0.0025"/><circle cx="0.6528" cy="0.2290" r="0.0025"/><circle cx="0.6528" cy="0.2525" r="0.0025"/><circle cx="0.6528" cy="0.2744" r="0.0025"/><circle cx="0.6528" cy="0.2942" r="0.0025"/><circle cx="0.6528" cy="0.3121" r="0.0025"/><circle cx="0.6528" cy="0.3278" r="0.0025"/><circle cx="0.6528" cy="0.3412" r="0.0025"/><circle cx="0.6528" cy="0.3523" r="0.0025"/><circle cx="0.6528" cy="0.3611" r="0.0025"/><circle cx="0.6528" cy="0.3673" r="0.0025"/><circle cx="0.6528" cy="0.3711" r="0.0025"/><circle cx="0.6528" cy="0.3724" r="0.0025"/><circle cx="0.6258" cy="-0.4445" r="0.0025"/><circle cx="0.6258" cy="-0.4408" r="0.0025"/><circle cx="0.6258" cy="-0.4345" r="0.0025"/><circle cx="0.6258" cy="-0.4258" r="0.0025"/><circle cx="0.6258" cy="-0.4147" r="0.0025"/><circle cx="0.6258" cy="-0.4012" r="0.0025"/><circle cx="0.6258" cy="-0.3855" r="0.0025"/><circle cx="0.6258" cy="-0.3677" r="0.0025"/><circle cx="0.6258" cy="-0.3478" r="0.0025"/><circle cx="0.6258" cy="-0.3260" r="0.0025"/><circle cx="0.6258" cy="-0.3024" r="0.0025"/><circle cx="0.6258" cy="-0.2772" r="0.0025"/><circle cx="0.6258" cy="-0.2505" r="0.0025"/><circle cx="0.6258" cy="-0.2224" r="0.0025"/><circle cx="0.6258" cy="-0.1933" r="0.0025"/><circle cx="0.6258" cy="-0.1631" r="0.0025"/><circle cx="0.6258" cy="-0.1322" r="0.0025"/><circle cx="0.6258" cy="-0.1007" r="0.0025"/><circle cx="0.6258" cy="-0.0688" r="0.0025"/><circle cx="0.6258" cy="-0.0367" r="0.0025"/><circle cx="0.6258" cy="-0.0046" r="0.0025"/><circle cx="0.6258" cy="0.0273" r="0.0025"/><circle cx="0.6258" cy="0.0588" r="0.0025"/><circle cx="0.6258" cy="0.0897" r="0.0025"/><circle cx="0.6258" cy="0.1198" r="0.0025"/><circle cx="0.6258" cy="0.1490" r="0.0025"/><circle cx="0.6258" cy="0.1770" r="0.0025"/><circle cx="0.6258" cy="0.2037" r="0.0025"/><circle cx="0.6258" cy="0.2290" r="0.0025"/><circle cx="0.6258" cy="0.2525" r="0.0025"/><circle cx="0.6258" cy="0.2744" r="0.0025"/><circle cx="0.6258" cy="0.2942" r="0.0025"/><circle cx="0.6258" cy="0.3121" r="0.0025"/><circle cx="0.6258" cy="0.3278" r="0.0025"/><circle cx="0.6258" cy="0.3412" r="0.0025"/><circle cx="0.6258" cy="0.3523" r="0.0025"/><circle cx="0.6258" cy="0.3611" r="0.0025"/><circle cx="0.6258" cy="0.3673" r="0.0025"/><circle cx="0.6258" cy="0.3711" r="0.0025"/><circle cx="0.6258" cy="0.3724" r="0.0025"/><circle cx="0.5914" cy="-0.4445" r="0.0025"/><circle cx="0.5914" cy="-0.4408" r="0.0025"/><circle cx="0.5914" cy="-0.4345" r="0.0025"/><circle cx="0.5914" cy="-0.4258" r="0.0025"/><circle cx="0.5914" cy="-0.4147" r="0.0025"/><circle cx="0.5914" cy="-0.4012" r="0.0025"/><circle cx="0.5914" cy="-0.3855" r="0.0025"/><circle cx="0.5914" cy="-0.3677" r="0.0025"/><circle cx="0.5914" cy="-0.3478" r="0.0025"/><circle cx="0.5914" cy="-0.3260" r="0.0025"/><circle cx="0.5914" cy="-0.3024" r="0.0025"/><circle cx="0.5914" cy="-0.2772" r="0.0025"/><circle cx="0.5914" cy="-0.2505" r="0.0025"/><circle cx="0.5914" cy="-0.2224" r="0.0025"/><circle cx="0.5914" cy="-0.1933" r="0.0025"/><circle cx="0.5914" cy="-0.1631" r="0.0025"/><circle cx="0.5914" cy="-0.1322" r="0.0025"/><circle cx="0.5914" cy="-0.1007" r="0.0025"/><circle cx="0.5914" cy="-0.0688" r="0.0025"/><circle cx="0.5914" cy="-0.0367" r="0.0025"/><circle cx="0.5914" cy="-0.0046" r="0.0025"/><circle cx="0.5914" cy="0.0273" r="0.0025"/><circle cx="0.5914" cy="0.0588" r="0.0025"/><circle cx="0.5914" cy="0.0897" r="0.0025"/><circle cx="0.5914" cy="0.1198" r="0.0025"/><circle cx="0.5914" cy="0.1490" r="0.0025"/><circle cx="0.5914" cy="0.1770" r="0.0025"/><circle cx="0.5914" cy="0.2037" r="0.0025"/><circle cx="0.5914" cy="0.2290" r="0.0025"/><circle cx="0.5914" cy="0.2525" r="0.0025"/><circle cx="0.5914" cy="0.2744" r="0.0025"/><circle cx="0.5914" cy="0.2942" r="0.0025"/><circle cx="0.5914" cy="0.3121" r="0.0025"/><circle cx="0.5914" cy="0.3278" r="0.0025"/><circle cx="0.5914" cy="0.3412" r="0.0025"/><circle cx="0.5914" cy="0.3523" r="0.0025"/><circle cx="0.5914" cy="0.3611" r="0.0025"/><circle cx="0.5914" cy="0.3673" r="0.0025"/><circle cx="0.5914" cy="0.3711" r="0.0025"/><circle cx="0.5914" cy="0.3724" r="0.0025"/><circle cx="0.5498" cy="-0.4445" r="0.0025"/><circle cx="0.5498" cy="-0.4408" r="0.0025"/><circle cx="0.5498" cy="-0.4345" r="0.0025"/><circle cx="0.5498" cy="-0.4258" r="0.0025"/><circle cx="0.5498" cy="-0.4147" r="0.0025"/><circle cx="0.5498" cy="-0.4012" r="0.0025"/><circle cx="0.5498" cy="-0.3855" r="0.0025"/><circle cx="0.5498" cy="-0.3677" r="0.0025"/><circle cx="0.5498" cy="-0.3478" r="0.0025"/><circle cx="0.5498" cy="-0.3260" r="0.0025"/><circle cx="0.5498" cy="-0.3024" r="0.0025"/><circle cx="0.5498" cy="-0.2772" r="0.0025"/><circle cx="0.5498" cy="-0.2505" r="0.0025"/><circle cx="0.5498" cy="-0.2224" r="0.0025"/><circle cx="0.5498" cy="-0.1933" r="0.0025"/><circle cx="0.5498" cy="-0.1631" r="0.0025"/><circle cx="0.5498" cy="-0.1322" r="0.0025"/><circle cx="0.5498" cy="-0.1007" r="0.0025"/><circle cx="0.5498" cy="-0.0688" r="0.0025"/><circle cx="0.5498" cy="-0.0367" r="0.0025"/><circle cx="0.5498" cy="-0.0046" r="0.0025"/><circle cx="0.5498" cy="0.0273" r="0.0025"/><circle cx="0.5498" cy="0.0588" r="0.0025"/><circle cx="0.5498" cy="0.0897" r="0.0025"/><circle cx="0.5498" cy="0.1198" r="0.0025"/><circle cx="0.5498" cy="0.1490" r="0.0025"/><circle cx="0.5498" cy="0.1770" r="0.0025"/><circle cx="0.5498" cy="0.2037" r="0.0025"/><circle cx="0.5498" cy="0.2290" r="0.0025"/><circle cx="0.5498" cy="0.2525" r="0.0025"/><circle cx="0.5498" cy="0.2744" r="0.0025"/><circle cx="0.5498" cy="0.2942" r="0.0025"/><circle cx="0.5498" cy="0.3121" r="0.0025"/><circle cx="0.5498" cy="0.3278" r="0.0025"/><circle cx="0.5498" cy="0.3412" r="0.0025"/><circle cx="0.5498" cy="0.3523" r="0.0025"/><circle cx="0.5498" cy="0.3611" r="0.0025"/><circle cx="0.5498" cy="0.3673" r="0.0025"/><circle cx="0.5498" cy="0.3711" r="0.0025"/><circle cx="0.5498" cy="0.3724" r="0.0025"/><circle cx="0.5012" cy="-0.4445" r="0.0025"/><circle cx="0.5012" cy="-0.4408" r="0.0025"/><circle cx="0.5012" cy="-0.4345" r="0.0025"/><circle cx="0.5012" cy="-0.4258" r="0.0025"/><circle cx="0.5012" cy="-0.4147" r="0.0025"/><circle cx="0.5012" cy="-0.4012" r="0.0025"/><circle cx="0.5012" cy="-0.3855" r="0.0025"/><circle cx="0.5012" cy="-0.3677" r="0.0025"/><circle cx="0.5012" cy="-0.3478" r="0.0025"/><circle cx="0.5012" cy="-0.3260" r="0.0025"/><circle cx="0.5012" cy="-0.3024" r="0.0025"/><circle cx="0.5012" cy="-0.2772" r="0.0025"/><circle cx="0.5012" cy="-0.2505" r="0.0025"/><circle cx="0.5012" cy="-0.2224" r="0.0025"/><circle cx="0.5012" cy="-0.1933" r="0.0025"/><circle cx="0.5012" cy="-0.1631" r="0.0025"/><circle cx="0.5012" cy="-0.1322" r="0.0025"/><circle cx="0.5012" cy="-0.1007" r="0.0025"/><circle cx="0.5012" cy="-0.0688" r="0.0025"/><circle cx="0.5012" cy="-0.0367" r="0.0025"/><circle cx="0.5012" cy="-0.0046" r="0.0025"/><circle cx="0.5012" cy="0.0273" r="0.0025"/><circle cx="0.5012" cy="0.0588" r="0.0025"/><circle cx="0.5012" cy="0.0897" r="0.0025"/><circle cx="0.5012" cy="0.1198" r="0.0025"/><circle cx="0.5012" cy="0.1490" r="0.0025"/><circle cx="0.5012" cy="0.1770" r="0.0025"/><circle cx="0.5012" cy="0.2037" r="0.0025"/><circle cx="0.5012" cy="0.2290" r="0.0025"/><circle cx="0.5012" cy="0.2525" r="0.0025"/><circle cx="0.5012" cy="0.2744" r="0.0025"/><circle cx="0.5012" cy="0.2942" r="0.0025"/><circle cx="0.5012" cy="0.3121" r="0.0025"/><circle cx="0.5012" cy="0.3278" r="0.0025"/><circle cx="0.5012" cy="0.3412" r="0.0025"/><circle cx="0.5012" cy="0.3523" r="0.0025"/><circle cx="0.5012" cy="0.3611" r="0.0025"/><circle cx="0.5012" cy="0.3673" r="0.0025"/><circle cx="0.5012" cy="0.3711" r="0.0025"/><circle cx="0.5012" cy="0.3724" r="0.0025"/><circle cx="0.4460" cy="-0.4445" r="0.0025"/><circle cx="0.4460" cy="-0.4408" r="0.0025"/><circle cx="0.4460" cy="-0.4345" r="0.0025"/><circle cx="0.4460" cy="-0.4258" r="0.0025"/><circle cx="0.4460" cy="-0.4147" r="0.0025"/><circle cx="0.4460" cy="-0.4012" r="0.0025"/><circle cx="0.4460" cy="-0.3855" r="0.0025"/><circle cx="0.4460" cy="-0.3677" r="0.0025"/><circle cx="0.4460" cy="-0.3478" r="0.0025"/><circle cx="0.4460" cy="-0.3260" r="0.0025"/><circle cx="0.4460" cy="-0.3024" r="0.0025"/><circle cx="0.4460" cy="-0.2772" r="0.0025"/><circle cx="0.4460" cy="-0.2505" r="0.0025"/><circle cx="0.4460" cy="-0.2224" r="0.0025"/><circle cx="0.4460" cy="-0.1933" r="0.0025"/><circle cx="0.4460" cy="-0.1631" r="0.0025"/><circle cx="0.4460" cy="-0.1322" r="0.0025"/><circle cx="0.4460" cy="-0.1007" r="0.0025"/><circle cx="0.4460" cy="-0.0688" r="0.0025"/><circle cx="0.4460" cy="-0.0367" r="0.0025"/><circle cx="0.4460" cy="-0.0046" r="0.0025"/><circle cx="0.4460" cy="0.0273" r="0.0025"/><circle cx="0.4460" cy="0.0588" r="0.0025"/><circle cx="0.4460" cy="0.0897" r="0.0025"/><circle cx="0.4460" cy="0.1198" r="0.0025"/><circle cx="0.4460" cy="0.1490" r="0.0025"/><circle cx="0.4460" cy="0.1770" r="0.0025"/><circle cx="0.4460" cy="0.2037" r="0.0025"/><circle cx="0.4460" cy="0.2290" r="0.0025"/><circle cx="0.4460" cy="0.2525" r="0.0025"/><circle cx="0.4460" cy="0.2744" r="0.0025"/><circle cx="0.4460" cy="0.2942" r="0.0025"/><circle cx="0.4460" cy="0.3121" r="0.0025"/><circle cx="0.4460" cy="0.3278" r="0.0025"/><circle cx="0.4460" cy="0.3412" r="0.0025"/><circle cx="0.4460" cy="0.3523" r="0.0025"/><circle cx="0.4460" cy="0.3611" r="0.0025"/><circle cx="0.4460" cy="0.3673" r="0.0025"/><circle cx="0.4460" cy="0.3711" r="0.0025"/><circle cx="0.4460" cy="0.3724" r="0.0025"/><circle cx="0.3844" cy="-0.4445" r="0.0025"/><circle cx="0.3844" cy="-0.4408" r="0.0025"/><circle cx="0.3844" cy="-0.4345" r="0.0025"/><circle cx="0.3844" cy="-0.4258" r="0.0025"/><circle cx="0.3844" cy="-0.4147" r="0.0025"/><circle cx="0.3844" cy="-0.4012" r="0.0025"/><circle cx="0.3844" cy="-0.3855" r="0.0025"/><circle cx="0.3844" cy="-0.3677" r="0.0025"/><circle cx="0.3844" cy="-0.3478" r="0.0025"/><circle cx="0.3844" cy="-0.3260" r="0.0025"/><circle cx="0.3844" cy="-0.3024" r="0.0025"/><circle cx="0.3844" cy="-0.2772" r="0.0025"/><circle cx="0.3844" cy="-0.2505" r="0.0025"/><circle cx="0.3844" cy="-0.2224" r="0.0025"/><circle cx="0.3844" cy="-0.1933" r="0.0025"/><circle cx="0.3844" cy="-0.1631" r="0.0025"/><circle cx="0.3844" cy="-0.1322" r="0.0025"/><circle cx="0.3844" cy="-0.1007" r="0.0025"/><circle cx="0.3844" cy="-0.0688" r="0.0025"/><circle cx="0.3844" cy="-0.0367" r="0.0025"/><circle cx="0.3844" cy="-0.0046" r="0.0025"/><circle cx="0.3844" cy="0.0273" r="0.0025"/><circle cx="0.3844" cy="0.0588" r="0.0025"/><circle cx="0.3844" cy="0.0897" r="0.0025"/><circle cx="0.3844" cy="0.1198" r="0.0025"/><circle cx="0.3844" cy="0.1490" r="0.0025"/><circle cx="0.3844" cy="0.1770" r="0.0025"/><circle cx="0.3844" cy="0.2037" r="0.0025"/><circle cx="0.3844" cy="0.2290" r="0.0025"/><circle cx="0.3844" cy="0.2525" r="0.0025"/><circle cx="0.3844" cy="0.2744" r="0.0025"/><circle cx="0.3844" cy="0.2942" r="0.0025"/><circle cx="0.3844" cy="0.3121" r="0.0025"/><circle cx="0.3844" cy="0.3278" r="0.0025"/><circle cx="0.3844" cy="0.3412" r="0.0025"/><circle cx="0.3844" cy="0.3523" r="0.0025"/><circle cx="0.3844" cy="0.3611" r="0.0025"/><circle cx="0.3844" cy="0.3673" r="0.0025"/><circle cx="0.3844" cy="0.3711" r="0.0025"/><circle cx="0.3844" cy="0.3724" r="0.0025"/><circle cx="0.3170" cy="-0.4445" r="0.0025"/><circle cx="0.3170" cy="-0.4408" r="0.0025"/><circle cx="0.3170" cy="-0.4345" r="0.0025"/><circle cx="0.3170" cy="-0.4258" r="0.0025"/><circle cx="0.3170" cy="-0.4147" r="0.0025"/><circle cx="0.3170" cy="-0.4012" r="0.0025"/><circle cx="0.3170" cy="-0.3855" r="0.0025"/><circle cx="0.3170" cy="-0.3677" r="0.0025"/><circle cx="0.3170" cy="-0.3478" r="0.0025"/><circle cx="0.3170" cy="-0.3260" r="0.0025"/><circle cx="0.3170" cy="-0.3024" r="0.0025"/><circle cx="0.3170" cy="-0.2772" r="0.0025"/><circle cx="0.3170" cy="-0.2505" r="0.0025"/><circle cx="0.3170" cy="-0.2224" r="0.0025"/><circle cx="0.3170" cy="-0.1933" r="0.0025"/><circle cx="0.3170" cy="-0.1631" r="0.0025"/><circle cx="0.3170" cy="-0.1322" r="0.0025"/><circle cx="0.3170" cy="-0.1007" r="0.0025"/><circle cx="0.3170" cy="-0.0688" r="0.0025"/><circle cx="0.3170" cy="-0.0367" r="0.0025"/><circle cx="0.3170" cy="-0.0046" r="0.0025"/><circle cx="0.3170" cy="0.0273" r="0.0025"/><circle cx="0.3170" cy="0.0588" r="0.0025"/><circle cx="0.3170" cy="0.0897" r="0.0025"/><circle cx="0.3170" cy="0.1198" r="0.0025"/><circle cx="0.3170" cy="0.1490" r="0.0025"/><circle cx="0.3170" cy="0.1770" r="0.0025"/><circle cx="0.3170" cy="0.2037" r="0.0025"/><circle cx="0.3170" cy="0.2290" r="0.0025"/><circle cx="0.3170" cy="0.2525" r="0.0025"/><circle cx="0.3170" cy="0.2744" r="0.0025"/><circle cx="0.3170" cy="0.2942" r="0.0025"/><circle cx="0.3170" cy="0.3121" r="0.0025"/><circle cx="0.3170" cy="0.3278" r="0.0025"/><circle cx="0.3170" cy="0.3412" r="0.0025"/><circle cx="0.3170" cy="0.3523" r="0.0025"/><circle cx="0.3170" cy="0.3611" r="0.0025"/><circle cx="0.3170" cy="0.3673" r="0.0025"/><circle cx="0.3170" cy="0.3711" r="0.0025"/><circle cx="0.3170" cy="0.3724" r="0.0025"/><circle cx="0.2440" cy="-0.4445" r="0.0025"/><circle cx="0.2440" cy="-0.4408" r="0.0025"/><circle cx="0.2440" cy="-0.4345" r="0.0025"/><circle cx="0.2440" cy="-0.4258" r="0.0025"/><circle cx="0.2440" cy="-0.4147" r="0.0025"/><circle cx="0.2440" cy="-0.4012" r="0.0025"/><circle cx="0.2440" cy="-0.3855" r="0.0025"/><circle cx="0.2440" cy="-0.3677" r="0.0025"/><circle cx="0.2440" cy="-0.3478" r="0.0025"/><circle cx="0.2440" cy="-0.3260" r="0.0025"/><circle cx="0.2440" cy="-0.3024" r="0.0025"/><circle cx="0.2440" cy="-0.2772" r="0.0025"/><circle cx="0.2440" cy="-0.2505" r="0.0025"/><circle cx="0.2440" cy="-0.2224" r="0.0025"/><circle cx="0.2440" cy="-0.1933" r="0.0025"/><circle cx="0.2440" cy="-0.1631" r="0.0025"/><circle cx="0.2440" cy="-0.1322" r="0.0025"/><circle cx="0.2440" cy="-0.1007" r="0.0025"/><circle cx="0.2440" cy="-0.0688" r="0.0025"/><circle cx="0.2440" cy="-0.0367" r="0.0025"/><circle cx="0.2440" cy="-0.0046" r="0.0025"/><circle cx="0.2440" cy="0.0273" r="0.0025"/><circle cx="0.2440" cy="0.0588" r="0.0025"/><circle cx="0.2440" cy="0.0897" r="0.0025"/><circle cx="0.2440" cy="0.1198" r="0.0025"/><circle cx="0.2440" cy="0.1490" r="0.0025"/><circle cx="0.2440" cy="0.1770" r="0.0025"/><circle cx="0.2440" cy="0.2037" r="0.0025"/><circle cx="0.2440" cy="0.2290" r="0.0025"/><circle cx="0.2440" cy="0.2525" r="0.0025"/><circle cx="0.2440" cy="0.2744" r="0.0025"/><circle cx="0.2440" cy="0.2942" r="0.0025"/><circle cx="0.2440" cy="0.3121" r="0.0025"/><circle cx="0.2440" cy="0.3278" r="0.0025"/><circle cx="0.2440" cy="0.3412" r="0.0025"/><circle cx="0.2440" cy="0.3523" r="0.0025"/><circle cx="0.2440" cy="0.3611" r="0.0025"/><circle cx="0.2440" cy="0.3673" r="0.0025"/><circle cx="0.2440" cy="0.3711" r="0.0025"/><circle cx="0.2440" cy="0.3724" r="0.0025"/><circle cx="0.1659" cy="-0.4445" r="0.0025"/><circle cx="0.1659" cy="-0.4408" r="0.0025"/><circle cx="0.1659" cy="-0.4345" r="0.0025"/><circle cx="0.1659" cy="-0.4258" r="0.0025"/><circle cx="0.1659" cy="-0.4147" r="0.0025"/><circle cx="0.1659" cy="-0.4012" r="0.0025"/><circle cx="0.1659" cy="-0.3855" r="0.0025"/><circle cx="0.1659" cy="-0.3677" r="0.0025"/><circle cx="0.1659" cy="-0.3478" r="0.0025"/><circle cx="0.1659" cy="-0.3260" r="0.0025"/><circle cx="0.1659" cy="-0.3024" r="0.0025"/><circle cx="0.1659" cy="-0.2772" r="0.0025"/><circle cx="0.1659" cy="-0.2505" r="0.0025"/><circle cx="0.1659" cy="-0.2224" r="0.0025"/><circle cx="0.1659" cy="-0.1933" r="0.0025"/><circle cx="0.1659" cy="-0.1631" r="0.0025"/><circle cx="0.1659" cy="-0.1322" r="0.0025"/><circle cx="0.1659" cy="-0.1007" r="0.0025"/><circle cx="0.1659" cy="-0.0688" r="0.0025"/><circle cx="0.1659" cy="-0.0367" r="0.0025"/><circle cx="0.1659" cy="-0.0046" r="0.0025"/><circle cx="0.1659" cy="0.0273" r="0.0025"/><circle cx="0.1659" cy="0.0588" r="0.0025"/><circle cx="0.1659" cy="0.0897" r="0.0025"/><circle cx="0.1659" cy="0.1198" r="0.0025"/><circle cx="0.1659" cy="0.1490" r="0.0025"/><circle cx="0.1659" cy="0.1770" r="0.0025"/><circle cx="0.1659" cy="0.2037" r="0.0025"/><circle cx="0.1659" cy="0.2290" r="0.0025"/><circle cx="0.1659" cy="0.2525" r="0.0025"/><circle cx="0.1659" cy="0.2744" r="0.0025"/><circle cx="0.1659" cy="0.2942" r="0.0025"/><circle cx="0.1659" cy="0.3121" r="0.0025"/><circle cx="0.1659" cy="0.3278" r="0.0025"/><circle cx="0.1659" cy="0.3412" r="0.0025"/><circle cx="0.1659" cy="0.3523" r="0.0025"/><circle cx="0.1659" cy="0.3611" r="0.0025"/><circle cx="0.1659" cy="0.3673" r="0.0025"/><circle cx="0.1659" cy="0.3711" r="0.0025"/><circle cx="0.1659" cy="0.3724" r="0.0025"/><circle cx="0.0832" cy="-0.4445" r="0.0025"/><circle cx="0.0832" cy="-0.4408" r="0.0025"/><circle cx="0.0832" cy="-0.4345" r="0.0025"/><circle cx="0.0832" cy="-0.4258" r="0.0025"/><circle cx="0.0832" cy="-0.4147" r="0.0025"/><circle cx="0.0832" cy="-0.4012" r="0.0025"/><circle cx="0.0832" cy="-0.3855" r="0.0025"/><circle cx="0.0832" cy="-0.3677" r="0.0025"/><circle cx="0.0832" cy="-0.3478" r="0.0025"/><circle cx="0.0832" cy="-0.3260" r="0.0025"/><circle cx="0.0832" cy="-0.3024" r="0.0025"/><circle cx="0.0832" cy="-0.2772" r="0.0025"/><circle cx="0.0832" cy="-0.2505" r="0.0025"/><circle cx="0.0832" cy="-0.2224" r="0.0025"/><circle cx="0.0832" cy="-0.1933" r="0.0025"/><circle cx="0.0832" cy="-0.1631" r="0.0025"/><circle cx="0.0832" cy="-0.1322" r="0.0025"/><circle cx="0.0832" cy="-0.1007" r="0.0025"/><circle cx="0.0832" cy="-0.0688" r="0.0025"/><circle cx="0.0832" cy="-0.0367" r="0.0025"/><circle cx="0.0832" cy="-0.0046" r="0.0025"/><circle cx="0.0832" cy="0.0273" r="0.0025"/><circle cx="0.0832" cy="0.0588" r="0.0025"/><circle cx="0.0832" cy="0.0897" r="0.0025"/><circle cx="0.0832" cy="0.1198" r="0.0025"/><circle cx="0.0832" cy="0.1490" r="0.0025"/><circle cx="0.0832" cy="0.1770" r="0.0025"/><circle cx="0.0832" cy="0.2037" r="0.0025"/><circle cx="0.0832" cy="0.2290" r="0.0025"/><circle cx="0.0832" cy="0.2525" r="0.0025"/><circle cx="0.0832" cy="0.2744" r="0.0025"/><circle cx="0.0832" cy="0.2942" r="0.0025"/><circle cx="0.0832" cy="0.3121" r="0.0025"/><circle cx="0.0832" cy="0.3278" r="0.0025"/><circle cx="0.0832" cy="0.3412" r="0.0025"/><circle cx="0.0832" cy="0.3523" r="0.0025"/><circle cx="0.0832" cy="0.3611" r="0.0025"/><circle cx="0.0832" cy="0.3673" r="0.0025"/><circle cx="0.0832" cy="0.3711" r="0.0025"/><circle cx="0.0832" cy="0.3724" r="0.0025"/><circle cx="-0.0035" cy="-0.4445" r="0.0025"/><circle cx="-0.0035" cy="-0.4408" r="0.0025"/><circle cx="-0.0035" cy="-0.4345" r="0.0025"/><circle cx="-0.0035" cy="-0.4258" r="0.0025"/><circle cx="-0.0035" cy="-0.4147" r="0.0025"/><circle cx="-0.0035" cy="-0.4012" r="0.0025"/><circle cx="-0.0035" cy="-0.3855" r="0.0025"/><circle cx="-0.0035" cy="-0.3677" r="0.0025"/><circle cx="-0.0035" cy="-0.3478" r="0.0025"/><circle cx="-0.0035" cy="-0.3260" r="0.0025"/><circle cx="-0.0035" cy="-0.3024" r="0.0025"/><circle cx="-0.0035" cy="-0.2772" r="0.0025"/><circle cx="-0.0035" cy="-0.2505" r="0.0025"/><circle cx="-0.0035" cy="-0.2224" r="0.0025"/><circle cx="-0.0035" cy="-0.1933" r="0.0025"/><circle cx="-0.0035" cy="-0.1631" r="0.0025"/><circle cx="-0.0035" cy="-0.1322" r="0.0025"/><circle cx="-0.0035" cy="-0.1007" r="0.0025"/><circle cx="-0.0035" cy="-0.0688" r="0.0025"/><circle cx="-0.0035" cy="-0.0367" r="0.0025"/><circle cx="-0.0035" cy="-0.0046" r="0.0025"/><circle cx="-0.0035" cy="0.0273" r="0.0025"/><circle cx="-0.0035" cy="0.0588" r="0.0025"/><circle cx="-0.0035" cy="0.0897" r="0.0025"/><circle cx="-0.0035" cy="0.1198" r="0.0025"/><circle cx="-0.0035" cy="0.1490" r="0.0025"/><circle cx="-0.0035" cy="0.1770" r="0.0025"/><circle cx="-0.0035" cy="0.2037" r="0.0025"/><circle cx="-0.0035" cy="0.2290" r="0.0025"/><circle cx="-0.0035" cy="0.2525" r="0.0025"/><circle cx="-0.0035" cy="0.2744" r="0.0025"/><circle cx="-0.0035" cy="0.2942" r="0.0025"/><circle cx="-0.0035" cy="0.3121" r="0.0025"/><circle cx="-0.0035" cy="0.3278" r="0.0025"/><circle cx="-0.0035" cy="0.3412" r="0.0025"/><circle cx="-0.0035" cy="0.3523" r="0.0025"/><circle cx="-0.0035" cy="0.3611" r="0.0025"/><circle cx="-0.0035" cy="0.3673" r="0.0025"/><circle cx="-0.0035" cy="0.3711" r="0.0025"/><circle cx="-0.0035" cy="0.3724" r="0.0025"/><circle cx="-0.0938" cy="-0.4445" r="0.0025"/><circle cx="-0.0938" cy="-0.4408" r="0.0025"/><circle cx="-0.0938" cy="-0.4345" r="0.0025"/><circle cx="-0.0938" cy="-0.4258" r="0.0025"/><circle cx="-0.0938" cy="-0.4147" r="0.0025"/><circle cx="-0.0938" cy="-0.4012" r="0.0025"/><circle cx="-0.0938" cy="-0.3855" r="0.0025"/><circle cx="-0.0938" cy="-0.3677" r="0.0025"/><circle cx="-0.0938" cy="-0.3478" r="0.0025"/><circle cx="-0.0938" cy="-0.3260" r="0.0025"/><circle cx="-0.0938" cy="-0.3024" r="0.0025"/><circle cx="-0.0938" cy="-0.2772" r="0.0025"/><circle cx="-0.0938" cy="-0.2505" r="0.0025"/><circle cx="-0.0938" cy="-0.2224" r="0.0025"/><circle cx="-0.0938" cy="-0.1933" r="0.0025"/><circle cx="-0.0938" cy="-0.1631" r="0.0025"/><circle cx="-0.0938" cy="-0.1322" r="0.0025"/><circle cx="-0.0938" cy="-0.1007" r="0.0025"/><circle cx="-0.0938" cy="-0.0688" r="0.0025"/><circle cx="-0.0938" cy="-0.0367" r="0.0025"/><circle cx="-0.0938" cy="-0.0046" r="0.0025"/><circle cx="-0.0938" cy="0.0273" r="0.0025"/><circle cx="-0.0938" cy="0.0588" r="0.0025"/><circle cx="-0.0938" cy="0.0897" r="0.0025"/><circle cx="-0.0938" cy="0.1198" r="0.0025"/><circle cx="-0.0938" cy="0.1490" r="0.0025"/><circle cx="-0.0938" cy="0.1770" r="0.0025"/><circle cx="-0.0938" cy="0.2037" r="0.0025"/><circle cx="-0.0938" cy="0.2290" r="0.0025"/><circle cx="-0.0938" cy="0.2525" r="0.0025"/><circle cx="-0.0938" cy="0.2744" r="0.0025"/><circle cx="-0.0938" cy="0.2942" r="0.0025"/><circle cx="-0.0938" cy="0.3121" r="0.0025"/><circle cx="-0.0938" cy="0.3278" r="0.0025"/><circle cx="-0.0938" cy="0.3412" r="0.0025"/><circle cx="-0.0938" cy="0.3523" r="0.0025"/><circle cx="-0.0938" cy="0.3611" r="0.0025"/><circle cx="-0.0938" cy="0.3673" r="0.0025"/><circle cx="-0.0938" cy="0.3711" r="0.0025"/><circle cx="-0.0938" cy="0.3724" r="0.0025"/><circle cx="-0.1870" cy="-0.4445" r="0.0025"/><circle cx="-0.1870" cy="-0.4408" r="0.0025"/><circle cx="-0.1870" cy="-0.4345" r="0.0025"/><circle cx="-0.1870" cy="-0.4258" r="0.0025"/><circle cx="-0.1870" cy="-0.4147" r="0.0025"/><circle cx="-0.1870" cy="-0.4012" r="0.0025"/><circle cx="-0.1870" cy="-0.3855" r="0.0025"/><circle cx="-0.1870" cy="-0.3677" r="0.0025"/><circle cx="-0.1870" cy="-0.3478" r="0.0025"/><circle cx="-0.1870" cy="-0.3260" r="0.0025"/><circle cx="-0.1870" cy="-0.3024" r="0.0025"/><circle cx="-0.1870" cy="-0.2772" r="0.0025"/><circle cx="-0.1870" cy="-0.2505" r="0.0025"/><circle cx="-0.1870" cy="-0.2224" r="0.0025"/><circle cx="-0.1870" cy="-0.1933" r="0.0025"/><circle cx="-0.1870" cy="-0.1631" r="0.0025"/><circle cx="-0.1870" cy="-0.1322" r="0.0025"/><circle cx="-0.1870" cy="-0.1007" r="0.0025"/><circle cx="-0.1870" cy="-0.0688" r="0.0025"/><circle cx="-0.1870" cy="-0.0367" r="0.0025"/><circle cx="-0.1870" cy="-0.0046" r="0.0025"/><circle cx="-0.1870" cy="0.0273" r="0.0025"/><circle cx="-0.1870" cy="0.0588" r="0.0025"/><circle cx="-0.1870" cy="0.0897" r="0.0025"/><circle cx="-0.1870" cy="0.1198" r="0.0025"/><circle cx="-0.1870" cy="0.1490" r="0.0025"/><circle cx="-0.1870" cy="0.1770" r="0.0025"/><circle cx="-0.1870" cy="0.2037" r="0.0025"/><circle cx="-0.1870" cy="0.2290" r="0.0025"/><circle cx="-0.1870" cy="0.2525" r="0.0025"/><circle cx="-0.1870" cy="0.2744" r="0.0025"/><circle cx="-0.1870" cy="0.2942" r="0.0025"/><circle cx="-0.1870" cy="0.3121" r="0.0025"/><circle cx="-0.1870" cy="0.3278" r="0.0025"/><circle cx="-0.1870" cy="0.3412" r="0.0025"/><circle cx="-0.1870" cy="0.3523" r="0.0025"/><circle cx="-0.1870" cy="0.3611" r="0.0025"/><circle cx="-0.1870" cy="0.3673" r="0.0025"/><circle cx="-0.1870" cy="0.3711" r="0.0025"/><circle cx="-0.1870" cy="0.3724" r="0.0025"/><circle cx="-0.2827" cy="-0.4445" r="0.0025"/><circle cx="-0.2827" cy="-0.4408" r="0.0025"/><circle cx="-0.2827" cy="-0.4345" r="0.0025"/><circle cx="-0.2827" cy="-0.4258" r="0.0025"/><circle cx="-0.2827" cy="-0.4147" r="0.0025"/><circle cx="-0.2827" cy="-0.4012" r="0.0025"/><circle cx="-0.2827" cy="-0.3855" r="0.0025"/><circle cx="-0.2827" cy="-0.3677" r="0.0025"/><circle cx="-0.2827" cy="-0.3478" r="0.0025"/><circle cx="-0.2827" cy="-0.3260" r="0.0025"/><circle cx="-0.2827" cy="-0.3024" r="0.0025"/><circle cx="-0.2827" cy="-0.2772" r="0.0025"/><circle cx="-0.2827" cy="-0.2505" r="0.0025"/><circle cx="-0.2827" cy="-0.2224" r="0.0025"/><circle cx="-0.2827" cy="-0.1933" r="0.0025"/><circle cx="-0.2827" cy="-0.1631" r="0.0025"/><circle cx="-0.2827" cy="-0.1322" r="0.0025"/><circle cx="-0.2827" cy="-0.1007" r="0.0025"/><circle cx="-0.2827" cy="-0.0688" r="0.0025"/><circle cx="-0.2827" cy="-0.0367" r="0.0025"/><circle cx="-0.2827" cy="-0.0046" r="0.0025"/><circle cx="-0.2827" cy="0.0273" r="0.0025"/><circle cx="-0.2827" cy="0.0588" r="0.0025"/><circle cx="-0.2827" cy="0.0897" r="0.0025"/><circle cx="-0.2827" cy="0.1198" r="0.0025"/><circle cx="-0.2827" cy="0.1490" r="0.0025"/><circle cx="-0.2827" cy="0.1770" r="0.0025"/><circle cx="-0.2827" cy="0.2037" r="0.0025"/><circle cx="-0.2827" cy="0.2290" r="0.0025"/><circle cx="-0.2827" cy="0.2525" r="0.0025"/><circle cx="-0.2827" cy="0.2744" r="0.0025"/><circle cx="-0.2827" cy="0.2942" r="0.0025"/><circle cx="-0.2827" cy="0.3121" r="0.0025"/><circle cx="-0.2827" cy="0.3278" r="0.0025"/><circle cx="-0.2827" cy="0.3412" r="0.0025"/><circle cx="-0.2827" cy="0.3523" r="0.0025"/><circle cx="-0.2827" cy="0.3611" r="0.0025"/><circle cx="-0.2827" cy="0.3673" r="0.0025"/><circle cx="-0.2827" cy="0.3711" r="0.0025"/><circle cx="-0.2827" cy="0.3724" r="0.0025"/><circle cx="-0.3802" cy="-0.4445" r="0.0025"/><circle cx="-0.3802" cy="-0.4408" r="0.0025"/><circle cx="-0.3802" cy="-0.4345" r="0.0025"/><circle cx="-0.3802" cy="-0.4258" r="0.0025"/><circle cx="-0.3802" cy="-0.4147" r="0.0025"/><circle cx="-0.3802" cy="-0.4012" r="0.0025"/><circle cx="-0.3802" cy="-0.3855" r="0.0025"/><circle cx="-0.3802" cy="-0.3677" r="0.0025"/><circle cx="-0.3802" cy="-0.3478" r="0.0025"/><circle cx="-0.3802" cy="-0.3260" r="0.0025"/><circle cx="-0.3802" cy="-0.3024" r="0.0025"/><circle cx="-0.3802" cy="-0.2772" r="0.0025"/><circle cx="-0.3802" cy="-0.2505" r="0.0025"/><circle cx="-0.3802" cy="-0.2224" r="0.0025"/><circle cx="-0.3802" cy="-0.1933" r="0.0025"/><circle cx="-0.3802" cy="-0.1631" r="0.0025"/><circle cx="-0.3802" cy="-0.1322" r="0.0025"/><circle cx="-0.3802" cy="-0.1007" r="0.0025"/><circle cx="-0.3802" cy="-0.0688" r="0.0025"/><circle cx="-0.3802" cy="-0.0367" r="0.0025"/><circle cx="-0.3802" cy="-0.0046" r="0.0025"/><circle cx="-0.3802" cy="0.0273" r="0.0025"/><circle cx="-0.3802" cy="0.0588" r="0.0025"/><circle cx="-0.3802" cy="0.0897" r="0.0025"/><circle cx="-0.3802" cy="0.1198" r="0.0025"/><circle cx="-0.3802" cy="0.1490" r="0.0025"/><circle cx="-0.3802" cy="0.1770" r="0.0025"/><circle cx="-0.3802" cy="0.2037" r="0.0025"/><circle cx="-0.3802" cy="0.2290" r="0.0025"/><circle cx="-0.3802" cy="0.2525" r="0.0025"/><circle cx="-0.3802" cy="0.2744" r="0.0025"/><circle cx="-0.3802" cy="0.2942" r="0.0025"/><circle cx="-0.3802" cy="0.3121" r="0.0025"/><circle cx="-0.3802" cy="0.3278" r="0.0025"/><circle cx="-0.3802" cy="0.3412" r="0.0025"/><circle cx="-0.3802" cy="0.3523" r="0.0025"/><circle cx="-0.3802" cy="0.3611" r="0.0025"/><circle cx="-0.3802" cy="0.3673" r="0.0025"/><circle cx="-0.3802" cy="0.3711" r="0.0025"/><circle cx="-0.3802" cy="0.3724" r="0.0025"/><circle cx="-0.4789" cy="-0.4445" r="0.0025"/><circle cx="-0.4789" cy="-0.4408" r="0.0025"/><circle cx="-0.4789" cy="-0.4345" r="0.0025"/><circle cx="-0.4789" cy="-0.4258" r="0.0025"/><circle cx="-0.4789" cy="-0.4147" r="0.0025"/><circle cx="-0.4789" cy="-0.4012" r="0.0025"/><circle cx="-0.4789" cy="-0.3855" r="0.0025"/><circle cx="-0.4789" cy="-0.3677" r="0.0025"/><circle cx="-0.4789" cy="-0.3478" r="0.0025"/><circle cx="-0.4789" cy="-0.3260" r="0.0025"/><circle cx="-0.4789" cy="-0.3024" r="0.0025"/><circle cx="-0.4789" cy="-0.2772" r="0.0025"/><circle cx="-0.4789" cy="-0.2505" r="0.0025"/><circle cx="-0.4789" cy="-0.2224" r="0.0025"/><circle cx="-0.4789" cy="-0.1933" r="0.0025"/><circle cx="-0.4789" cy="-0.1631" r="0.0025"/><circle cx="-0.4789" cy="-0.1322" r="0.0025"/><circle cx="-0.4789" cy="-0.1007" r="0.0025"/><circle cx="-0.4789" cy="-0.0688" r="0.0025"/><circle cx="-0.4789" cy="-0.0367" r="0.0025"/><circle cx="-0.4789" cy="-0.0046" r="0.0025"/><circle cx="-0.4789" cy="0.0273" r="0.0025"/><circle cx="-0.4789" cy="0.0588" r="0.0025"/><circle cx="-0.4789" cy="0.0897" r="0.0025"/><circle cx="-0.4789" cy="0.1198" r="0.0025"/><circle cx="-0.4789" cy="0.1490" r="0.0025"/><circle cx="-0.4789" cy="0.1770" r="0.0025"/><circle cx="-0.4789" cy="0.2037" r="0.0025"/><circle cx="-0.4789" cy="0.2290" r="0.0025"/><circle cx="-0.4789" cy="0.2525" r="0.0025"/><circle cx="-0.4789" cy="0.2744" r="0.0025"/><circle cx="-0.4789" cy="0.2942" r="0.0025"/><circle cx="-0.4789" cy="0.3121" r="0.0025"/><circle cx="-0.4789" cy="0.3278" r="0.0025"/><circle cx="-0.4789" cy="0.3412" r="0.0025"/><circle cx="-0.4789" cy="0.3523" r="0.0025"/><circle cx="-0.4789" cy="0.3611" r="0.0025"/><circle cx="-0.4789" cy="0.3673" r="0.0025"/><circle cx="-0.4789" cy="0.3711" r="0.0025"/><circle cx="-0.4789" cy="0.3724" r="0.0025"/><circle cx="-0.5782" cy="-0.4445" r="0.0025"/><circle cx="-0.5782" cy="-0.4408" r="0.0025"/><circle cx="-0.5782" cy="-0.4345" r="0.0025"/><circle cx="-0.5782" cy="-0.4258" r="0.0025"/><circle cx="-0.5782" cy="-0.4147" r="0.0025"/><circle cx="-0.5782" cy="-0.4012" r="0.0025"/><circle cx="-0.5782" cy="-0.3855" r="0.0025"/><circle cx="-0.5782" cy="-0.3677" r="0.0025"/><circle cx="-0.5782" cy="-0.3478" r="0.0025"/><circle cx="-0.5782" cy="-0.3260" r="0.0025"/><circle cx="-0.5782" cy="-0.3024" r="0.0025"/><circle cx="-0.5782" cy="-0.2772" r="0.0025"/><circle cx="-0.5782" cy="-0.2505" r="0.0025"/><circle cx="-0.5782" cy="-0.2224" r="0.0025"/><circle cx="-0.5782" cy="-0.1933" r="0.0025"/><circle cx="-0.5782" cy="-0.1631" r="0.0025"/><circle cx="-0.5782" cy="-0.1322" r="0.0025"/><circle cx="-0.5782" cy="-0.1007" r="0.0025"/><circle cx="-0.5782" cy="-0.0688" r="0.0025"/><circle cx="-0.5782" cy="-0.0367" r="0.0025"/><circle cx="-0.5782" cy="-0.0046" r="0.0025"/><circle cx="-0.5782" cy="0.0273" r="0.0025"/><circle cx="-0.5782" cy="0.0588" r="0.0025"/><circle cx="-0.5782" cy="0.0897" r="0.0025"/><circle cx="-0.5782" cy="0.1198" r="0.0025"/><circle cx="-0.5782" cy="0.1490" r="0.0025"/><circle cx="-0.5782" cy="0.1770" r="0.0025"/><circle cx="-0.5782" cy="0.2037" r="0.0025"/><circle cx="-0.5782" cy="0.2290" r="0.0025"/><circle cx="-0.5782" cy="0.2525" r="0.0025"/><circle cx="-0.5782" cy="0.2744" r="0.0025"/><circle cx="-0.5782" cy="0.2942" r="0.0025"/><circle cx="-0.5782" cy="0.3121" r="0.0025"/><circle cx="-0.5782" cy="0.3278" r="0.0025"/><circle cx="-0.5782" cy="0.3412" r="0.0025"/><circle cx="-0.5782" cy="0.3523" r="0.0025"/><circle cx="-0.5782" cy="0.3611" r="0.0025"/><circle cx="-0.5782" cy="0.3673" r="0.0025"/><circle cx="-0.5782" cy="0.3711" r="0.0025"/><circle cx="-0.5782" cy="0.3724" r="0.0025"/></g></g><g class="hud"><g class="frame"><g fill="rgb(100%, 100%, 100%)" fill-opacity="0.02" stroke="rgb(0%, 0%, 0%)" stroke-opacity="0" stroke-width="0"><rect height="0.8292" width="1.2787" x="-0.5846" y="-0.4507"/></g></g><g class="axis"><g class="ticks"><g class="tickglyph"><g fill="rgb(5%, 5%, 5%)" fill-opacity="0.4" stroke="rgb(5%, 5%, 5%)" stroke-opacity="0.4" stroke-width="0.0040"><g transform="rotate(-90.0, -0.6099, 0.3724)"><polyline points="-0.6099,0.3874
-0.6099,0.3574"/></g><g transform="rotate(-90.0, -0.6099, 0.2906)"><polyline points="-0.6099,0.3056
-0.6099,0.2756"/></g><g transform="rotate(-90.0, -0.6099, 0.2087)"><polyline points="-0.6099,0.2237
-0.6099,0.1937"/></g><g transform="rotate(-90.0, -0.6099, 0.1269)"><polyline points="-0.6099,0.1419
-0.6099,0.1119"/></g><g transform="rotate(-90.0, -0.6099, 0.0451)"><polyline points="-0.6099,0.0601
-0.6099,0.0301"/></g><g transform="rotate(-90.0, -0.6099, -0.0367)"><polyline points="-0.6099,-0.0217
-0.6099,-0.0517"/></g><g transform="rotate(-90.0, -0.6099, -0.1185)"><polyline points="-0.6099,-0.1035
-0.6099,-0.1335"/></g><g transform="rotate(-90.0, -0.6099, -0.2003)"><polyline points="-0.6099,-0.1853
-0.6099,-0.2153"/></g><g transform="rotate(-90.0, -0.6099, -0.2822)"><polyline points="-0.6099,-0.2672
-0.6099,-0.2972"/></g><g transform="rotate(-90.0, -0.6099, -0.3640)"><polyline points="-0.6099,-0.3490
-0.6099,-0.3790"/></g><g transform="rotate(-90.0, -0.6099, -0.4458)"><polyline points="-0.6099,-0.4308
-0.6099,-0.4608"/></g></g></g><g class="ticktext"><g fill="rgb(5%, 5%, 5%)" fill-opacity="1.0" font-size="0.0422" stroke="none" stroke-width="0.0" text-anchor="end"><text x="-0.6403" y="0.3836">-1.0</text><text x="-0.6403" y="0.3018">-0.8</text><text x="-0.6403" y="0.2200">-0.6</text><text x="-0.6403" y="0.1382">-0.4</text><text x="-0.6403" y="0.0564">-0.2</text><text x="-0.6403" y="-0.0255"> 0.0</text><text x="-0.6403" y="-0.1073"> 0.2</text><text x="-0.6403" y="-0.1891"> 0.4</text><text x="-0.6403" y="-0.2709"> 0.6</text><text x="-0.6403" y="-0.3527"> 0.8</text><text x="-0.6403" y="-0.4345"> 1.0</text></g></g><g class="ticklines"><g fill="none" stroke="rgb(5%, 5%, 5%)" stroke-opacity="0.05" stroke-width="0.0050"><polyline points="-0.5782,0.3724 0.6878,0.3724"/><polyline points="-0.5782,0.2906 0.6878,0.2906"/><polyline points="-0.5782,0.2087 0.6878,0.2087"/><polyline points="-0.5782,0.1269 0.6878,0.1269"/><polyline points="-0.5782,0.0451 0.6878,0.0451"/><polyline points="-0.5782,-0.0367 0.6878,-0.0367"/><polyline points="-0.5782,-0.1185 0.6878,-0.1185"/><polyline points="-0.5782,-0.2003 0.6878,-0.2003"/><polyline points="-0.5782,-0.2822 0.6878,-0.2822"/><polyline points="-0.5782,-0.3640 0.6878,-0.3640"/><polyline points="-0.5782,-0.4458 0.6878,-0.4458"/></g></g></g><g class="axisbar"><g fill="rgb(5%, 5%, 5%)" fill-opacity="0.4" stroke="rgb(0%, 0%, 0%)" stroke-opacity="0" stroke-width="0"><rect height="0.8214" width="0.0034" x="-0.5964" y="-0.4474"/></g></g></g><g class="axis"><g class="ticks"><g class="tickglyph"><g fill="rgb(5%, 5%, 5%)" fill-opacity="0.4" stroke="rgb(5%, 5%, 5%)" stroke-opacity="0.4" stroke-width="0.0040"><polyline points="-0.5782,0.4180
-0.5782,0.3880"/><polyline points="-0.4516,0.4180
-0.4516,0.3880"/><polyline points="-0.3250,0.4180
-0.3250,0.3880"/><polyline points="-0.1984,0.4180
-0.1984,0.3880"/><polyline points="-0.0718,0.4180
-0.0718,0.3880"/><polyline points="0.0548,0.4180
0.0548,0.3880"/><polyline points="0.1814,0.4180
0.1814,0.3880"/><polyline points="0.3080,0.4180
0.3080,0.3880"/><polyline points="0.4346,0.4180
0.4346,0.3880"/><polyline points="0.5612,0.4180
0.5612,0.3880"/><polyline points="0.6878,0.4180
0.6878,0.3880"/></g></g><g class="ticktext"><g fill="rgb(5%, 5%, 5%)" fill-opacity="1.0" font-size="0.0422" stroke="none" stroke-width="0.0" text-anchor="middle"><text x="-0.5782" y="0.4550">0.0</text><text x="-0.4516" y="0.4550">0.1</text><text x="-0.3250" y="0.4550">0.2</text><text x="-0.1984" y="0.4550">0.3</text><text x="-0.0718" y="0.4550">0.4</text><text x="0.0548" y="0.4550">0.5</text><text x="0.1814" y="0.4550">0.6</text><text x="0.3080" y="0.4550">0.7</text><text x="0.4346" y="0.4550">0.8</text><text x="0.5612" y="0.4550">0.9</text><text x="0.6878" y="0.4550">1.0</text></g></g><g class="ticklines"><g fill="none" stroke="rgb(5%, 5%, 5%)" stroke-opacity="0.05" stroke-width="0.0050"><polyline points="-0.5782,0.3724 -0.5782,-0.4458"/><polyline points="-0.4516,0.3724 -0.4516,-0.4458"/><polyline points="-0.3250,0.3724 -0.3250,-0.4458"/><polyline points="-0.1984,0.3724 -0.1984,-0.4458"/><polyline points="-0.0718,0.3724 -0.0718,-0.4458"/><polyline points="0.0548,0.3724 0.0548,-0.4458"/><polyline points="0.1814,0.3724 0.1814,-0.4458"/><polyline points="0.3080,0.3724 0.3080,-0.4458"/><polyline points="0.4346,0.3724 0.4346,-0.4458"/><polyline points="0.5612,0.3724 0.5612,-0.4458"/><polyline points="0.6878,0.3724 0.6878,-0.4458"/></g></g></g><g class="axisbar"><g fill="rgb(5%, 5%, 5%)" fill-opacity="0.4" stroke="rgb(0%, 0%, 0%)" stroke-opacity="0" stroke-width="0"><rect height="0.0033" width="1.2694" x="-0.5799" y="0.3867"/></g></g></g><g class="frame"><g fill="rgb(100%, 100%, 100%)" fill-opacity="0.02" stroke="rgb(0%, 0%, 0%)" stroke-opacity="0" stroke-width="0"><rect height="1.0" width="1.5" x="-0.75" y="-0.5"/></g></g></g></svg>