<svg height="300" viewBox="-0.75 -0.5 1.5000 1.0" width="449" xmlns="http://www.w3.org/2000/svg" xmlns:xlink="http://www.w3.org/1999/xlink"><style>svg {
  color-scheme: light dark;
}
{
  .canvas g, .title g, .axisbar g, .ticktext g, .tickglyph g, .ticklines g, .legendContent g text {
    fill: rgb(5%, 5%, 5%);
  }
  .ticklines g, .tickglyph g, .legendBorder g {
    stroke: rgb(5%, 5%, 5%);
  }
  .legendBorder g {
    fill: rgb(94%, 94%, 94%);
  }
}
@media (prefers-color-scheme:dark) {
  .canvas g, .title g, .axisbar g, .ticktext g, .tickglyph g, .ticklines g, .legendContent g text {
    fill: rgb(94%, 94%, 94%);
  }
  .ticklines g, .tickglyph g, .legendBorder g {
    stroke: rgb(94%, 94%, 94%);
  }
  .legendBorder g {
    fill: rgb(5%, 5%, 5%);
  }
}</style><g class="chart"><g fill="rgb(0%, 0%, 100%)" fill-opacity="1.0" stroke="rgb(2%, 29%, 48%)" stroke-opacity="1.0" stroke-width="0.0030"><circle cx="-0.6235" cy="-0.4661" r="0.0050"/><circle cx="-0.6223" cy="-0.4661" r="0.0050"/><circle cx="-0.6210" cy="0.2627" r="0.0050"/><circle cx="-0.6198" cy="0.0198" r="0.0050"/><circle cx="-0.6185" cy="0.0198" r="0.0050"/><circle cx="-0.6173" cy="-0.1422" r="0.0050"/><circle cx="-0.6160" cy="0.1007" r="0.0050"/><circle cx="-0.6148" cy="0.2627" r="0.0050"/><circle cx="-0.6136" cy="-0.2232" r="0.0050"/><circle cx="-0.6123" cy="0.1007" r="0.0050"/><circle cx="-0.6111" cy="-0.3851" r="0.0050"/><circle cx="-0.6098" cy="0.1817" r="0.0050"/><circle cx="-0.6086" cy="0.0198" r="0.0050"/><circle cx="-0.6074" cy="0.1817" r="0.0050"/><circle cx="-0.6061" cy="-0.1422" r="0.0050"/><circle cx="-0.6049" cy="-0.0612" r="0.0050"/><circle cx="-0.6036" cy="-0.4661" r="0.0050"/><circle cx="-0.6024" cy="0.1817" r="0.0050"/><circle cx="-0.6012" cy="0.1007" r="0.0050"/><circle cx="-0.5999" cy="-0.3042" r="0.0050"/><circle cx="-0.5987" cy="-0.0612" r="0.0050"/><circle cx="-0.5974" cy="-0.0612" r="0.0050"/><circle cx="-0.5962" cy="0.2627" r="0.0050"/><circle cx="-0.5949" cy="0.1817" r="0.0050"/><circle cx="-0.5937" cy="-0.4661" r="0.0050"/><circle cx="-0.5925" cy="0.2627" r="0.0050"/><circle cx="-0.5912" cy="0.2627" r="0.0050"/><circle cx="-0.5900" cy="0.1007" r="0.0050"/><circle cx="-0.5887" cy="0.1817" r="0.0050"/><circle cx="-0.5875" cy="-0.3042" r="0.0050"/><circle cx="-0.5863" cy="0.2627" r="0.0050"/><circle cx="-0.5850" cy="-0.3851" r="0.0050"/><circle cx="-0.5838" cy="-0.3851" r="0.0050"/><circle cx="-0.5825" cy="-0.4661" r="0.0050"/><circle cx="-0.5813" cy="0.1817" r="0.0050"/><circle cx="-0.5800" cy="0.1817" r="0.0050"/><circle cx="-0.5788" cy="-0.3851" r="0.0050"/><circle cx="-0.5776" cy="0.1007" r="0.0050"/><circle cx="-0.5763" cy="0.2627" r="0.0050"/><circle cx="-0.5751" cy="-0.1422" r="0.0050"/><circle cx="-0.5738" cy="0.1817" r="0.0050"/><circle cx="-0.5726" cy="0.1817" r="0.0050"/><circle cx="-0.5714" cy="-0.2232" r="0.0050"/><circle cx="-0.5701" cy="0.2627" r="0.0050"/><circle cx="-0.5689" cy="0.0198" r="0.0050"/><circle cx="-0.5676" cy="-0.4661" r="0.0050"/><circle cx="-0.5664" cy="-0.3851" r="0.0050"/><circle cx="-0.5651" cy="-0.3042" r="0.0050"/><circle cx="-0.5639" cy="-0.4661" r="0.0050"/><circle cx="-0.5627" cy="-0.3042" r="0.0050"/><circle cx="-0.5614" cy="-0.0612" r="0.0050"/><circle cx="-0.5602" cy="0.0198" r="0.0050"/><circle cx="-0.5589" cy="-0.2232" r="0.0050"/><circle cx="-0.5577" cy="0.0198" r="0.0050"/><circle cx="-0.5565" cy="-0.0612" r="0.0050"/><circle cx="-0.5552" cy="-0.4661" r="0.0050"/><circle cx="-0.5540" cy="-0.2232" r="0.0050"/><circle cx="-0.5527" cy="-0.4661" r="0.0050"/><circle cx="-0.5515" cy="0.0198" r="0.0050"/><circle cx="-0.5503" cy="0.0198" r="0.0050"/><circle cx="-0.5490" cy="0.2627" r="0.0050"/><circle cx="-0.5478" cy="-0.0612" r="0.0050"/><circle cx="-0.5465" cy="-0.2232" r="0.0050"/><circle cx="-0.5453" cy="-0.3042" r="0.0050"/><circle cx="-0.5440" cy="-0.3851" r="0.0050"/><circle cx="-0.5428" cy="-0.1422" r="0.0050"/><circle cx="-0.5416" cy="-0.3851" r="0.0050"/><circle cx="-0.5403" cy="0.1007" r="0.0050"/><circle cx="-0.5391" cy="0.1817" r="0.0050"/><circle cx="-0.5378" cy="-0.1422" r="0.0050"/><circle cx="-0.5366" cy="-0.3042" r="0.0050"/><circle cx="-0.5354" cy="-0.1422" r="0.0050"/><circle cx="-0.5341" cy="-0.3042" r="0.0050"/><circle cx="-0.5329" cy="-0.0612" r="0.0050"/><circle cx="-0.5316" cy="0.1817" r="0.0050"/><circle cx="-0.5304" cy="0.1817" r="0.0050"/><circle cx="-0.5291" cy="-0.2232" r="0.0050"/><circle cx="-0.5279" cy="0.1817" r="0.0050"/><circle cx="-0.5267" cy="-0.2232" r="0.0050"/><circle cx="-0.5254" cy="-0.3851" r="0.0050"/><circle cx="-0.5242" cy="-0.3042" r="0.0050"/><circle cx="-0.5229" cy="0.1817" r="0.0050"/><circle cx="-0.5217" cy="-0.3851" r="0.0050"/><circle cx="-0.5205" cy="0.0198" r="0.0050"/><circle cx="-0.5192" cy="0.1007" r="0.0050"/><circle cx="-0.5180" cy="0.2627" r="0.0050"/><circle cx="-0.5167" cy="0.2627" r="0.0050"/><circle cx="-0.5155" cy="0.1817" r="0.0050"/><circle cx="-0.5142" cy="0.2627" r="0.0050"/><circle cx="-0.5130" cy="-0.4661" r="0.0050"/><circle cx="-0.5118" cy="-0.0612" r="0.0050"/><circle cx="-0.5105" cy="-0.4661" r="0.0050"/><circle cx="-0.5093" cy="0.1817" r="0.0050"/><circle cx="-0.5080" cy="0.2627" r="0.0050"/><circle cx="-0.5068" cy="-0.4661" r="0.0050"/><circle cx="-0.5056" cy="0.2627" r="0.0050"/><circle cx="-0.5043" cy="-0.2232" r="0.0050"/><circle cx="-0.5031" cy="-0.4661" r="0.0050"/><circle cx="-0.5018" cy="-0.4661" r="0.0050"/><circle cx="-0.5006" cy="0.1817" r="0.0050"/><circle cx="-0.4994" cy="-0.3851" r="0.0050"/><circle cx="-0.4981" cy="-0.0612" r="0.0050"/><circle cx="-0.4969" cy="0.2627" r="0.0050"/><circle cx="-0.4956" cy="-0.4661" r="0.0050"/><circle cx="-0.4944" cy="0.1007" r="0.0050"/><circle cx="-0.4931" cy="-0.3042" r="0.0050"/><circle cx="-0.4919" cy="-0.4661" r="0.0050"/><circle cx="-0.4907" cy="-0.0612" r="0.0050"/><circle cx="-0.4894" cy="0.1817" r="0.0050"/><circle cx="-0.4882" cy="-0.3851" r="0.0050"/><circle cx="-0.4869" cy="-0.4661" r="0.0050"/><circle cx="-0.4857" cy="-0.0612" r="0.0050"/><circle cx="-0.4845" cy="-0.0612" r="0.0050"/><circle cx="-0.4832" cy="-0.0612" r="0.0050"/><circle cx="-0.4820" cy="-0.3042" r="0.0050"/><circle cx="-0.4807" cy="-0.1422" r="0.0050"/><circle cx="-0.4795" cy="0.0198" r="0.0050"/><circle cx="-0.4782" cy="0.1007" r="0.0050"/><circle cx="-0.4770" cy="-0.1422" r="0.0050"/><circle cx="-0.4758" cy="-0.0612" r="0.0050"/><circle cx="-0.4745" cy="-0.0612" r="0.0050"/><circle cx="-0.4733" cy="0.1007" r="0.0050"/><circle cx="-0.4720" cy="-0.0612" r="0.0050"/><circle cx="-0.4708" cy="0.2627" r="0.0050"/><circle cx="-0.4696" cy="-0.3042" r="0.0050"/><circle cx="-0.4683" cy="0.1007" r="0.0050"/><circle cx="-0.4671" cy="0.1007" r="0.0050"/><circle cx="-0.4658" cy="-0.3042" r="0.0050"/><circle cx="-0.4646" cy="0.2627" r="0.0050"/><circle cx="-0.4634" cy="0.2627" r="0.0050"/><circle cx="-0.4621" cy="-0.3851" r="0.0050"/><circle cx="-0.4609" cy="-0.4661" r="0.0050"/><circle cx="-0.4596" cy="0.1007" r="0.0050"/><circle cx="-0.4584" cy="0.2627" r="0.0050"/><circle cx="-0.4571" cy="-0.3851" r="0.0050"/><circle cx="-0.4559" cy="-0.3042" r="0.0050"/><circle cx="-0.4547" cy="-0.3851" r="0.0050"/><circle cx="-0.4534" cy="0.0198" r="0.0050"/><circle cx="-0.4522" cy="-0.3851" r="0.0050"/><circle cx="-0.4509" cy="0.0198" r="0.0050"/><circle cx="-0.4497" cy="-0.1422" r="0.0050"/><circle cx="-0.4485" cy="0.1007" r="0.0050"/><circle cx="-0.4472" cy="-0.3042" r="0.0050"/><circle cx="-0.4460" cy="0.1007" r="0.0050"/><circle cx="-0.4447" cy="-0.2232" r="0.0050"/><circle cx="-0.4435" cy="-0.1422" r="0.0050"/><circle cx="-0.4422" cy="-0.2232" r="0.0050"/><circle cx="-0.4410" cy="-0.3042" r="0.0050"/><circle cx="-0.4398" cy="0.0198" r="0.0050"/><circle cx="-0.4385" cy="-0.2232" r="0.0050"/><circle cx="-0.4373" cy="0.1007" r="0.0050"/><circle cx="-0.4360" cy="-0.3851" r="0.0050"/><circle cx="-0.4348" cy="-0.2232" r="0.0050"/><circle cx="-0.4336" cy="0.0198" r="0.0050"/><circle cx="-0.4323" cy="-0.0612" r="0.0050"/><circle cx="-0.4311" cy="-0.1422" r="0.0050"/><circle cx="-0.4298" cy="-0.1422" r="0.0050"/><circle cx="-0.4286" cy="0.0198" r="0.0050"/><circle cx="-0.4273" cy="-0.1422" r="0.0050"/><circle cx="-0.4261" cy="-0.0612" r="0.0050"/><circle cx="-0.4249" cy="-0.0612" r="0.0050"/><circle cx="-0.4236" cy="-0.3851" r="0.0050"/><circle cx="-0.4224" cy="-0.0612" r="0.0050"/><circle cx="-0.4211" cy="0.0198" r="0.0050"/><circle cx="-0.4199" cy="0.1817" r="0.0050"/><circle cx="-0.4187" cy="0.0198" r="0.0050"/><circle cx="-0.4174" cy="-0.1422" r="0.0050"/><circle cx="-0.4162" cy="-0.3851" r="0.0050"/><circle cx="-0.4149" cy="-0.1422" r="0.0050"/><circle cx="-0.4137" cy="-0.3042" r="0.0050"/><circle cx="-0.4125" cy="0.1817" r="0.0050"/><circle cx="-0.4112" cy="0.2627" r="0.0050"/><circle cx="-0.4100" cy="0.1817" r="0.0050"/><circle cx="-0.4087" cy="-0.3042" r="0.0050"/><circle cx="-0.4075" cy="-0.1422" r="0.0050"/><circle cx="-0.4062" cy="-0.3851" r="0.0050"/><circle cx="-0.4050" cy="0.1007" r="0.0050"/><circle cx="-0.4038" cy="0.0198" r="0.0050"/><circle cx="-0.4025" cy="-0.2232" r="0.0050"/><circle cx="-0.4013" cy="-0.3851" r="0.0050"/><circle cx="-0.4000" cy="-0.0612" r="0.0050"/><circle cx="-0.3988" cy="-0.3851" r="0.0050"/><circle cx="-0.3976" cy="-0.0612" r="0.0050"/><circle cx="-0.3963" cy="0.0198" r="0.0050"/><circle cx="-0.3951" cy="-0.3042" r="0.0050"/><circle cx="-0.3938" cy="-0.3042" r="0.0050"/><circle cx="-0.3926" cy="-0.0612" r="0.0050"/><circle cx="-0.3913" cy="0.0198" r="0.0050"/><circle cx="-0.3901" cy="-0.3042" r="0.0050"/><circle cx="-0.3889" cy="0.0198" r="0.0050"/><circle cx="-0.3876" cy="0.1817" r="0.0050"/><circle cx="-0.3864" cy="-0.2232" r="0.0050"/><circle cx="-0.3851" cy="-0.3851" r="0.0050"/><circle cx="-0.3839" cy="0.2627" r="0.0050"/><circle cx="-0.3827" cy="-0.2232" r="0.0050"/><circle cx="-0.3814" cy="0.1007" r="0.0050"/><circle cx="-0.3802" cy="-0.3042" r="0.0050"/><circle cx="-0.3789" cy="-0.3851" r="0.0050"/><circle cx="-0.3777" cy="0.1007" r="0.0050"/><circle cx="-0.3764" cy="-0.3851" r="0.0050"/><circle cx="-0.3752" cy="0.1007" r="0.0050"/><circle cx="-0.3740" cy="-0.1422" r="0.0050"/><circle cx="-0.3727" cy="-0.3851" r="0.0050"/><circle cx="-0.3715" cy="-0.2232" r="0.0050"/><circle cx="-0.3702" cy="0.1007" r="0.0050"/><circle cx="-0.3690" cy="-0.0612" r="0.0050"/><circle cx="-0.3678" cy="-0.1422" r="0.0050"/><circle cx="-0.3665" cy="0.2627" r="0.0050"/><circle cx="-0.3653" cy="0.2627" r="0.0050"/><circle cx="-0.3640" cy="-0.4661" r="0.0050"/><circle cx="-0.3628" cy="0.0198" r="0.0050"/><circle cx="-0.3616" cy="-0.2232" r="0.0050"/><circle cx="-0.3603" cy="0.2627" r="0.0050"/><circle cx="-0.3591" cy="-0.3851" r="0.0050"/><circle cx="-0.3578" cy="-0.4661" r="0.0050"/><circle cx="-0.3566" cy="-0.4661" r="0.0050"/><circle cx="-0.3553" cy="-0.2232" r="0.0050"/><circle cx="-0.3541" cy="0.1817" r="0.0050"/><circle cx="-0.3529" cy="-0.3851" r="0.0050"/><circle cx="-0.3516" cy="-0.1422" r="0.0050"/><circle cx="-0.3504" cy="-0.3042" r="0.0050"/><circle cx="-0.3491" cy="0.1007" r="0.0050"/><circle cx="-0.3479" cy="-0.1422" r="0.0050"/><circle cx="-0.3467" cy="0.1007" r="0.0050"/><circle cx="-0.3454" cy="-0.3042" r="0.0050"/><circle cx="-0.3442" cy="0.1817" r="0.0050"/><circle cx="-0.3429" cy="0.2627" r="0.0050"/><circle cx="-0.3417" cy="0.2627" r="0.0050"/><circle cx="-0.3404" cy="0.2627" r="0.0050"/><circle cx="-0.3392" cy="0.1007" r="0.0050"/><circle cx="-0.3380" cy="0.2627" r="0.0050"/><circle cx="-0.3367" cy="0.1817" r="0.0050"/><circle cx="-0.3355" cy="-0.4661" r="0.0050"/><circle cx="-0.3342" cy="0.2627" r="0.0050"/><circle cx="-0.3330" cy="-0.4661" r="0.0050"/><circle cx="-0.3318" cy="0.2627" r="0.0050"/><circle cx="-0.3305" cy="0.2627" r="0.0050"/><circle cx="-0.3293" cy="0.2627" r="0.0050"/><circle cx="-0.3280" cy="-0.4661" r="0.0050"/><circle cx="-0.3268" cy="0.2627" r="0.0050"/><circle cx="-0.3255" cy="0.2627" r="0.0050"/><circle cx="-0.3243" cy="-0.4661" r="0.0050"/><circle cx="-0.3231" cy="0.2627" r="0.0050"/><circle cx="-0.3218" cy="-0.4661" r="0.0050"/><circle cx="-0.3206" cy="0.2627" r="0.0050"/><circle cx="-0.3193" cy="-0.3042" r="0.0050"/><circle cx="-0.3181" cy="0.2627" r="0.0050"/><circle cx="-0.3169" cy="0.1817" r="0.0050"/><circle cx="-0.3156" cy="-0.4661" r="0.0050"/><circle cx="-0.3144" cy="-0.4661" r="0.0050"/><circle cx="-0.3131" cy="-0.4661" r="0.0050"/><circle cx="-0.3119" cy="0.2627" r="0.0050"/><circle cx="-0.3107" cy="-0.4661" r="0.0050"/><circle cx="-0.3094" cy="0.1817" r="0.0050"/><circle cx="-0.3082" cy="0.2627" r="0.0050"/><circle cx="-0.3069" cy="-0.4661" r="0.0050"/><circle cx="-0.3057" cy="0.1817" r="0.0050"/><circle cx="-0.3044" cy="-0.4661" r="0.0050"/><circle cx="-0.3032" cy="0.0198" r="0.0050"/><circle cx="-0.3020" cy="-0.4661" r="0.0050"/><circle cx="-0.3007" cy="-0.3851" r="0.0050"/><circle cx="-0.2995" cy="0.1817" r="0.0050"/><circle cx="-0.2982" cy="-0.4661" r="0.0050"/><circle cx="-0.2970" cy="0.1817" r="0.0050"/><circle cx="-0.2958" cy="-0.3042" r="0.0050"/><circle cx="-0.2945" cy="-0.3851" r="0.0050"/><circle cx="-0.2933" cy="0.1817" r="0.0050"/><circle cx="-0.2920" cy="0.2627" r="0.0050"/><circle cx="-0.2908" cy="-0.3851" r="0.0050"/><circle cx="-0.2895" cy="-0.0612" r="0.0050"/><circle cx="-0.2883" cy="-0.3851" r="0.0050"/><circle cx="-0.2871" cy="-0.3851" r="0.0050"/><circle cx="-0.2858" cy="0.1007" r="0.0050"/><circle cx="-0.2846" cy="-0.3851" r="0.0050"/><circle cx="-0.2833" cy="0.1007" r="0.0050"/><circle cx="-0.2821" cy="0.1817" r="0.0050"/><circle cx="-0.2809" cy="-0.2232" r="0.0050"/><circle cx="-0.2796" cy="-0.3042" r="0.0050"/><circle cx="-0.2784" cy="0.1007" r="0.0050"/><circle cx="-0.2771" cy="-0.3851" r="0.0050"/><circle cx="-0.2759" cy="-0.3851" r="0.0050"/><circle cx="-0.2746" cy="-0.0612" r="0.0050"/><circle cx="-0.2734" cy="0.1817" r="0.0050"/><circle cx="-0.2722" cy="0.1817" r="0.0050"/><circle cx="-0.2709" cy="-0.3851" r="0.0050"/><circle cx="-0.2697" cy="-0.2232" r="0.0050"/><circle cx="-0.2684" cy="-0.4661" r="0.0050"/><circle cx="-0.2672" cy="0.1007" r="0.0050"/><circle cx="-0.2660" cy="-0.3851" r="0.0050"/><circle cx="-0.2647" cy="0.1007" r="0.0050"/><circle cx="-0.2635" cy="-0.1422" r="0.0050"/><circle cx="-0.2622" cy="-0.3851" r="0.0050"/><circle cx="-0.2610" cy="-0.3851" r="0.0050"/><circle cx="-0.2598" cy="0.0198" r="0.0050"/><circle cx="-0.2585" cy="-0.2232" r="0.0050"/><circle cx="-0.2573" cy="-0.1422" r="0.0050"/><circle cx="-0.2560" cy="-0.2232" r="0.0050"/><circle cx="-0.2548" cy="-0.3851" r="0.0050"/><circle cx="-0.2535" cy="0.0198" r="0.0050"/><circle cx="-0.2523" cy="-0.4661" r="0.0050"/><circle cx="-0.2511" cy="-0.3042" r="0.0050"/><circle cx="-0.2498" cy="0.1007" r="0.0050"/><circle cx="-0.2486" cy="0.1007" r="0.0050"/><circle cx="-0.2473" cy="0.2627" r="0.0050"/><circle cx="-0.2461" cy="-0.3851" r="0.0050"/><circle cx="-0.2449" cy="-0.3042" r="0.0050"/><circle cx="-0.2436" cy="-0.3851" r="0.0050"/><circle cx="-0.2424" cy="0.0198" r="0.0050"/><circle cx="-0.2411" cy="-0.0612" r="0.0050"/><circle cx="-0.2399" cy="0.1007" r="0.0050"/><circle cx="-0.2386" cy="-0.2232" r="0.0050"/><circle cx="-0.2374" cy="-0.2232" r="0.0050"/><circle cx="-0.2362" cy="0.1817" r="0.0050"/><circle cx="-0.2349" cy="-0.3042" r="0.0050"/><circle cx="-0.2337" cy="0.1817" r="0.0050"/><circle cx="-0.2324" cy="-0.3851" r="0.0050"/><circle cx="-0.2312" cy="-0.3851" r="0.0050"/><circle cx="-0.2300" cy="-0.2232" r="0.0050"/><circle cx="-0.2287" cy="-0.1422" r="0.0050"/><circle cx="-0.2275" cy="-0.3851" r="0.0050"/><circle cx="-0.2262" cy="0.1817" r="0.0050"/><circle cx="-0.2250" cy="-0.2232" r="0.0050"/><circle cx="-0.2237" cy="0.1007" r="0.0050"/><circle cx="-0.2225" cy="-0.3042" r="0.0050"/><circle cx="-0.2213" cy="0.1007" r="0.0050"/><circle cx="-0.2200" cy="-0.3851" r="0.0050"/><circle cx="-0.2188" cy="-0.3042" r="0.0050"/><circle cx="-0.2175" cy="0.0198" r="0.0050"/><circle cx="-0.2163" cy="-0.0612" r="0.0050"/><circle cx="-0.2151" cy="-0.2232" r="0.0050"/><circle cx="-0.2138" cy="-0.0612" r="0.0050"/><circle cx="-0.2126" cy="-0.2232" r="0.0050"/><circle cx="-0.2113" cy="0.1817" r="0.0050"/><circle cx="-0.2101" cy="0.1007" r="0.0050"/><circle cx="-0.2089" cy="-0.2232" r="0.0050"/><circle cx="-0.2076" cy="0.1007" r="0.0050"/><circle cx="-0.2064" cy="-0.3851" r="0.0050"/><circle cx="-0.2051" cy="0.0198" r="0.0050"/><circle cx="-0.2039" cy="-0.2232" r="0.0050"/><circle cx="-0.2026" cy="-0.2232" r="0.0050"/><circle cx="-0.2014" cy="-0.1422" r="0.0050"/><circle cx="-0.2002" cy="-0.2232" r="0.0050"/><circle cx="-0.1989" cy="-0.2232" r="0.0050"/><circle cx="-0.1977" cy="-0.0612" r="0.0050"/><circle cx="-0.1964" cy="-0.1422" r="0.0050"/><circle cx="-0.1952" cy="0.1817" r="0.0050"/><circle cx="-0.1940" cy="-0.3851" r="0.0050"/><circle cx="-0.1927" cy="0.0198" r="0.0050"/><circle cx="-0.1915" cy="0.0198" r="0.0050"/><circle cx="-0.1902" cy="-0.0612" r="0.0050"/><circle cx="-0.1890" cy="-0.0612" r="0.0050"/><circle cx="-0.1877" cy="0.1007" r="0.0050"/><circle cx="-0.1865" cy="-0.1422" r="0.0050"/><circle cx="-0.1853" cy="-0.1422" r="0.0050"/><circle cx="-0.1840" cy="-0.3042" r="0.0050"/><circle cx="-0.1828" cy="-0.1422" r="0.0050"/><circle cx="-0.1815" cy="-0.3042" r="0.0050"/><circle cx="-0.1803" cy="-0.0612" r="0.0050"/><circle cx="-0.1791" cy="-0.2232" r="0.0050"/><circle cx="-0.1778" cy="0.0198" r="0.0050"/><circle cx="-0.1766" cy="-0.3042" r="0.0050"/><circle cx="-0.1753" cy="-0.4661" r="0.0050"/><circle cx="-0.1741" cy="0.2627" r="0.0050"/><circle cx="-0.1728" cy="0.1817" r="0.0050"/><circle cx="-0.1716" cy="0.2627" r="0.0050"/><circle cx="-0.1704" cy="-0.4661" r="0.0050"/><circle cx="-0.1691" cy="0.1817" r="0.0050"/><circle cx="-0.1679" cy="0.0198" r="0.0050"/><circle cx="-0.1666" cy="-0.3851" r="0.0050"/><circle cx="-0.1654" cy="-0.1422" r="0.0050"/><circle cx="-0.1642" cy="0.1007" r="0.0050"/><circle cx="-0.1629" cy="0.1817" r="0.0050"/><circle cx="-0.1617" cy="0.1817" r="0.0050"/><circle cx="-0.1604" cy="0.1817" r="0.0050"/><circle cx="-0.1592" cy="-0.3042" r="0.0050"/><circle cx="-0.1580" cy="0.2627" r="0.0050"/><circle cx="-0.1567" cy="-0.1422" r="0.0050"/><circle cx="-0.1555" cy="-0.4661" r="0.0050"/><circle cx="-0.1542" cy="-0.4661" r="0.0050"/><circle cx="-0.1530" cy="0.1007" r="0.0050"/><circle cx="-0.1517" cy="-0.3042" r="0.0050"/><circle cx="-0.1505" cy="-0.2232" r="0.0050"/><circle cx="-0.1493" cy="0.1817" r="0.0050"/><circle cx="-0.1480" cy="-0.4661" r="0.0050"/><circle cx="-0.1468" cy="0.1817" r="0.0050"/><circle cx="-0.1455" cy="-0.4661" r="0.0050"/><circle cx="-0.1443" cy="-0.2232" r="0.0050"/><circle cx="-0.1431" cy="-0.3042" r="0.0050"/><circle cx="-0.1418" cy="-0.4661" r="0.0050"/><circle cx="-0.1406" cy="0.1007" r="0.0050"/><circle cx="-0.1393" cy="0.1007" r="0.0050"/><circle cx="-0.1381" cy="0.0198" r="0.0050"/><circle cx="-0.1368" cy="-0.0612" r="0.0050"/><circle cx="-0.1356" cy="0.1817" r="0.0050"/><circle cx="-0.1344" cy="-0.1422" r="0.0050"/><circle cx="-0.1331" cy="0.0198" r="0.0050"/><circle cx="-0.1319" cy="-0.2232" r="0.0050"/><circle cx="-0.1306" cy="-0.1422" r="0.0050"/><circle cx="-0.1294" cy="0.2627" r="0.0050"/><circle cx="-0.1282" cy="0.0198" r="0.0050"/><circle cx="-0.1269" cy="0.2627" r="0.0050"/><circle cx="-0.1257" cy="-0.3851" r="0.0050"/><circle cx="-0.1244" cy="0.1817" r="0.0050"/><circle cx="-0.1232" cy="-0.3851" r="0.0050"/><circle cx="-0.1219" cy="-0.4661" r="0.0050"/><circle cx="-0.1207" cy="-0.4661" r="0.0050"/><circle cx="-0.1195" cy="-0.4661" r="0.0050"/><circle cx="-0.1182" cy="0.0198" r="0.0050"/><circle cx="-0.1170" cy="-0.3042" r="0.0050"/><circle cx="-0.1157" cy="-0.0612" r="0.0050"/><circle cx="-0.1145" cy="-0.2232" r="0.0050"/><circle cx="-0.1133" cy="0.1817" r="0.0050"/><circle cx="-0.1120" cy="-0.3851" r="0.0050"/><circle cx="-0.1108" cy="-0.3042" r="0.0050"/><circle cx="-0.1095" cy="0.1007" r="0.0050"/><circle cx="-0.1083" cy="0.1817" r="0.0050"/><circle cx="-0.1071" cy="-0.1422" r="0.0050"/><circle cx="-0.1058" cy="0.1007" r="0.0050"/><circle cx="-0.1046" cy="-0.2232" r="0.0050"/><circle cx="-0.1033" cy="-0.4661" r="0.0050"/><circle cx="-0.1021" cy="0.0198" r="0.0050"/><circle cx="-0.1008" cy="-0.0612" r="0.0050"/><circle cx="-0.0996" cy="0.1007" r="0.0050"/><circle cx="-0.0984" cy="-0.3042" r="0.0050"/><circle cx="-0.0971" cy="-0.0612" r="0.0050"/><circle cx="-0.0959" cy="-0.0612" r="0.0050"/><circle cx="-0.0946" cy="-0.3042" r="0.0050"/><circle cx="-0.0934" cy="0.0198" r="0.0050"/><circle cx="-0.0922" cy="-0.0612" r="0.0050"/><circle cx="-0.0909" cy="0.1817" r="0.0050"/><circle cx="-0.0897" cy="0.0198" r="0.0050"/><circle cx="-0.0884" cy="0.0198" r="0.0050"/><circle cx="-0.0872" cy="0.1007" r="0.0050"/><circle cx="-0.0859" cy="-0.3851" r="0.0050"/><circle cx="-0.0847" cy="-0.0612" r="0.0050"/><circle cx="-0.0835" cy="-0.2232" r="0.0050"/><circle cx="-0.0822" cy="0.1007" r="0.0050"/><circle cx="-0.0810" cy="0.1007" r="0.0050"/><circle cx="-0.0797" cy="0.0198" r="0.0050"/><circle cx="-0.0785" cy="-0.0612" r="0.0050"/><circle cx="-0.0773" cy="-0.1422" r="0.0050"/><circle cx="-0.0760" cy="-0.3042" r="0.0050"/><circle cx="-0.0748" cy="0.0198" r="0.0050"/><circle cx="-0.0735" cy="-0.0612" r="0.0050"/><circle cx="-0.0723" cy="-0.2232" r="0.0050"/><circle cx="-0.0710" cy="0.2627" r="0.0050"/><circle cx="-0.0698" cy="-0.3042" r="0.0050"/><circle cx="-0.0686" cy="-0.2232" r="0.0050"/><circle cx="-0.0673" cy="-0.3851" r="0.0050"/><circle cx="-0.0661" cy="-0.2232" r="0.0050"/><circle cx="-0.0648" cy="0.1817" r="0.0050"/><circle cx="-0.0636" cy="-0.0612" r="0.0050"/><circle cx="-0.0624" cy="-0.1422" r="0.0050"/><circle cx="-0.0611" cy="0.1007" r="0.0050"/><circle cx="-0.0599" cy="0.1817" r="0.0050"/><circle cx="-0.0586" cy="-0.3042" r="0.0050"/><circle cx="-0.0574" cy="-0.3851" r="0.0050"/><circle cx="-0.0562" cy="-0.0612" r="0.0050"/><circle cx="-0.0549" cy="0.0198" r="0.0050"/><circle cx="-0.0537" cy="-0.1422" r="0.0050"/><circle cx="-0.0524" cy="0.0198" r="0.0050"/><circle cx="-0.0512" cy="0.2627" r="0.0050"/><circle cx="-0.0499" cy="-0.3042" r="0.0050"/><circle cx="-0.0487" cy="0.2627" r="0.0050"/><circle cx="-0.0475" cy="-0.4661" r="0.0050"/><circle cx="-0.0462" cy="-0.3851" r="0.0050"/><circle cx="-0.0450" cy="-0.0612" r="0.0050"/><circle cx="-0.0437" cy="-0.3042" r="0.0050"/><circle cx="-0.0425" cy="-0.1422" r="0.0050"/><circle cx="-0.0413" cy="-0.3042" r="0.0050"/><circle cx="-0.0400" cy="0.0198" r="0.0050"/><circle cx="-0.0388" cy="0.0198" r="0.0050"/><circle cx="-0.0375" cy="-0.0612" r="0.0050"/><circle cx="-0.0363" cy="-0.2232" r="0.0050"/><circle cx="-0.0350" cy="0.0198" r="0.0050"/><circle cx="-0.0338" cy="0.0198" r="0.0050"/><circle cx="-0.0326" cy="0.1007" r="0.0050"/><circle cx="-0.0313" cy="0.0198" r="0.0050"/><circle cx="-0.0301" cy="0.1817" r="0.0050"/><circle cx="-0.0288" cy="-0.0612" r="0.0050"/><circle cx="-0.0276" cy="-0.3851" r="0.0050"/><circle cx="-0.0264" cy="0.2627" r="0.0050"/><circle cx="-0.0251" cy="0.1007" r="0.0050"/><circle cx="-0.0239" cy="-0.4661" r="0.0050"/><circle cx="-0.0226" cy="0.1817" r="0.0050"/><circle cx="-0.0214" cy="0.2627" r="0.0050"/><circle cx="-0.0202" cy="0.2627" r="0.0050"/><circle cx="-0.0189" cy="-0.4661" r="0.0050"/><circle cx="-0.0177" cy="0.1007" r="0.0050"/><circle cx="-0.0164" cy="-0.3851" r="0.0050"/><circle cx="-0.0152" cy="-0.2232" r="0.0050"/><circle cx="-0.0139" cy="-0.3042" r="0.0050"/><circle cx="-0.0127" cy="-0.0612" r="0.0050"/><circle cx="-0.0115" cy="-0.2232" r="0.0050"/><circle cx="-0.0102" cy="0.0198" r="0.0050"/><circle cx="-0.0090" cy="-0.1422" r="0.0050"/><circle cx="-0.0077" cy="0.2627" r="0.0050"/><circle cx="-0.0065" cy="-0.0612" r="0.0050"/><circle cx="-0.0053" cy="-0.3042" r="0.0050"/><circle cx="-0.0040" cy="0.1817" r="0.0050"/><circle cx="-0.0028" cy="0.1007" r="0.0050"/><circle cx="-0.0015" cy="-0.2232" r="0.0050"/><circle cx="-0.0003" cy="-0.4661" r="0.0050"/><circle cx="0.0010" cy="0.0198" r="0.0050"/><circle cx="0.0022" cy="0.0198" r="0.0050"/><circle cx="0.0034" cy="-0.1422" r="0.0050"/><circle cx="0.0047" cy="-0.3851" r="0.0050"/><circle cx="0.0059" cy="-0.3851" r="0.0050"/><circle cx="0.0072" cy="0.0198" r="0.0050"/><circle cx="0.0084" cy="-0.0612" r="0.0050"/><circle cx="0.0096" cy="-0.2232" r="0.0050"/><circle cx="0.0109" cy="-0.3042" r="0.0050"/><circle cx="0.0121" cy="-0.0612" r="0.0050"/><circle cx="0.0134" cy="-0.1422" r="0.0050"/><circle cx="0.0146" cy="0.1007" r="0.0050"/><circle cx="0.0159" cy="-0.3851" r="0.0050"/><circle cx="0.0171" cy="-0.1422" r="0.0050"/><circle cx="0.0183" cy="0.1817" r="0.0050"/><circle cx="0.0196" cy="0.1817" r="0.0050"/><circle cx="0.0208" cy="-0.3042" r="0.0050"/><circle cx="0.0221" cy="0.1817" r="0.0050"/><circle cx="0.0233" cy="-0.3851" r="0.0050"/><circle cx="0.0245" cy="-0.1422" r="0.0050"/><circle cx="0.0258" cy="-0.0612" r="0.0050"/><circle cx="0.0270" cy="0.0198" r="0.0050"/><circle cx="0.0283" cy="-0.2232" r="0.0050"/><circle cx="0.0295" cy="0.1817" r="0.0050"/><circle cx="0.0307" cy="-0.1422" r="0.0050"/><circle cx="0.0320" cy="0.1817" r="0.0050"/><circle cx="0.0332" cy="-0.0612" r="0.0050"/><circle cx="0.0345" cy="-0.3042" r="0.0050"/><circle cx="0.0357" cy="-0.3042" r="0.0050"/><circle cx="0.0370" cy="0.2627" r="0.0050"/><circle cx="0.0382" cy="0.1817" r="0.0050"/><circle cx="0.0394" cy="0.2627" r="0.0050"/><circle cx="0.0407" cy="-0.3851" r="0.0050"/><circle cx="0.0419" cy="-0.4661" r="0.0050"/><circle cx="0.0432" cy="0.0198" r="0.0050"/><circle cx="0.0444" cy="0.1817" r="0.0050"/><circle cx="0.0456" cy="0.0198" r="0.0050"/><circle cx="0.0469" cy="-0.3851" r="0.0050"/><circle cx="0.0481" cy="0.0198" r="0.0050"/><circle cx="0.0494" cy="-0.3042" r="0.0050"/><circle cx="0.0506" cy="0.0198" r="0.0050"/><circle cx="0.0519" cy="-0.1422" r="0.0050"/><circle cx="0.0531" cy="-0.0612" r="0.0050"/><circle cx="0.0543" cy="-0.0612" r="0.0050"/><circle cx="0.0556" cy="-0.0612" r="0.0050"/><circle cx="0.0568" cy="-0.1422" r="0.0050"/><circle cx="0.0581" cy="0.1007" r="0.0050"/><circle cx="0.0593" cy="-0.3042" r="0.0050"/><circle cx="0.0605" cy="0.0198" r="0.0050"/><circle cx="0.0618" cy="-0.0612" r="0.0050"/><circle cx="0.0630" cy="0.0198" r="0.0050"/><circle cx="0.0643" cy="-0.2232" r="0.0050"/><circle cx="0.0655" cy="-0.1422" r="0.0050"/><circle cx="0.0668" cy="-0.1422" r="0.0050"/><circle cx="0.0680" cy="0.0198" r="0.0050"/><circle cx="0.0692" cy="0.1817" r="0.0050"/><circle cx="0.0705" cy="-0.0612" r="0.0050"/><circle cx="0.0717" cy="0.2627" r="0.0050"/><circle cx="0.0730" cy="-0.4661" r="0.0050"/><circle cx="0.0742" cy="-0.2232" r="0.0050"/><circle cx="0.0754" cy="0.0198" r="0.0050"/><circle cx="0.0767" cy="-0.3042" r="0.0050"/><circle cx="0.0779" cy="-0.2232" r="0.0050"/><circle cx="0.0792" cy="-0.1422" r="0.0050"/><circle cx="0.0804" cy="-0.0612" r="0.0050"/><circle cx="0.0816" cy="-0.1422" r="0.0050"/><circle cx="0.0829" cy="-0.2232" r="0.0050"/><circle cx="0.0841" cy="-0.3042" r="0.0050"/><circle cx="0.0854" cy="0.1007" r="0.0050"/><circle cx="0.0866" cy="-0.2232" r="0.0050"/><circle cx="0.0879" cy="0.1817" r="0.0050"/><circle cx="0.0891" cy="-0.3851" r="0.0050"/><circle cx="0.0903" cy="-0.2232" r="0.0050"/><circle cx="0.0916" cy="0.1007" r="0.0050"/><circle cx="0.0928" cy="-0.0612" r="0.0050"/><circle cx="0.0941" cy="0.1007" r="0.0050"/><circle cx="0.0953" cy="0.1817" r="0.0050"/><circle cx="0.0965" cy="0.2627" r="0.0050"/><circle cx="0.0978" cy="-0.4661" r="0.0050"/><circle cx="0.0990" cy="-0.3042" r="0.0050"/><circle cx="0.1003" cy="-0.1422" r="0.0050"/><circle cx="0.1015" cy="-0.3851" r="0.0050"/><circle cx="0.1028" cy="-0.1422" r="0.0050"/><circle cx="0.1040" cy="0.1007" r="0.0050"/><circle cx="0.1052" cy="-0.0612" r="0.0050"/><circle cx="0.1065" cy="-0.2232" r="0.0050"/><circle cx="0.1077" cy="0.1817" r="0.0050"/><circle cx="0.1090" cy="0.0198" r="0.0050"/><circle cx="0.1102" cy="-0.3851" r="0.0050"/><circle cx="0.1114" cy="0.1007" r="0.0050"/><circle cx="0.1127" cy="-0.3042" r="0.0050"/><circle cx="0.1139" cy="-0.1422" r="0.0050"/><circle cx="0.1152" cy="0.0198" r="0.0050"/><circle cx="0.1164" cy="-0.0612" r="0.0050"/><circle cx="0.1177" cy="-0.1422" r="0.0050"/><circle cx="0.1189" cy="-0.2232" r="0.0050"/><circle cx="0.1201" cy="-0.1422" r="0.0050"/><circle cx="0.1214" cy="-0.1422" r="0.0050"/><circle cx="0.1226" cy="0.1817" r="0.0050"/><circle cx="0.1239" cy="0.2627" r="0.0050"/><circle cx="0.1251" cy="-0.0612" r="0.0050"/><circle cx="0.1263" cy="-0.3851" r="0.0050"/><circle cx="0.1276" cy="-0.3851" r="0.0050"/><circle cx="0.1288" cy="-0.1422" r="0.0050"/><circle cx="0.1301" cy="-0.1422" r="0.0050"/><circle cx="0.1313" cy="0.1817" r="0.0050"/><circle cx="0.1325" cy="-0.3851" r="0.0050"/><circle cx="0.1338" cy="-0.2232" r="0.0050"/><circle cx="0.1350" cy="0.0198" r="0.0050"/><circle cx="0.1363" cy="-0.0612" r="0.0050"/><circle cx="0.1375" cy="-0.2232" r="0.0050"/><circle cx="0.1388" cy="0.0198" r="0.0050"/><circle cx="0.1400" cy="0.1007" r="0.0050"/><circle cx="0.1412" cy="0.0198" r="0.0050"/><circle cx="0.1425" cy="0.1817" r="0.0050"/><circle cx="0.1437" cy="0.1817" r="0.0050"/><circle cx="0.1450" cy="-0.1422" r="0.0050"/><circle cx="0.1462" cy="0.1817" r="0.0050"/><circle cx="0.1474" cy="-0.3851" r="0.0050"/><circle cx="0.1487" cy="0.0198" r="0.0050"/><circle cx="0.1499" cy="0.2627" r="0.0050"/><circle cx="0.1512" cy="0.2627" r="0.0050"/><circle cx="0.1524" cy="0.0198" r="0.0050"/><circle cx="0.1537" cy="-0.3851" r="0.0050"/><circle cx="0.1549" cy="-0.4661" r="0.0050"/><circle cx="0.1561" cy="-0.1422" r="0.0050"/><circle cx="0.1574" cy="0.1007" r="0.0050"/><circle cx="0.1586" cy="0.2627" r="0.0050"/><circle cx="0.1599" cy="-0.1422" r="0.0050"/><circle cx="0.1611" cy="0.2627" r="0.0050"/><circle cx="0.1623" cy="-0.4661" r="0.0050"/><circle cx="0.1636" cy="0.2627" r="0.0050"/><circle cx="0.1648" cy="-0.3851" r="0.0050"/><circle cx="0.1661" cy="-0.3042" r="0.0050"/><circle cx="0.1673" cy="-0.3851" r="0.0050"/><circle cx="0.1686" cy="0.0198" r="0.0050"/><circle cx="0.1698" cy="0.1817" r="0.0050"/><circle cx="0.1710" cy="0.1007" r="0.0050"/><circle cx="0.1723" cy="-0.2232" r="0.0050"/><circle cx="0.1735" cy="-0.4661" r="0.0050"/><circle cx="0.1748" cy="-0.3042" r="0.0050"/><circle cx="0.1760" cy="-0.2232" r="0.0050"/><circle cx="0.1772" cy="-0.3042" r="0.0050"/><circle cx="0.1785" cy="-0.2232" r="0.0050"/><circle cx="0.1797" cy="-0.2232" r="0.0050"/><circle cx="0.1810" cy="0.0198" r="0.0050"/><circle cx="0.1822" cy="-0.3042" r="0.0050"/><circle cx="0.1834" cy="-0.1422" r="0.0050"/><circle cx="0.1847" cy="0.1817" r="0.0050"/><circle cx="0.1859" cy="-0.3851" r="0.0050"/><circle cx="0.1872" cy="-0.1422" r="0.0050"/><circle cx="0.1884" cy="-0.1422" r="0.0050"/><circle cx="0.1897" cy="-0.2232" r="0.0050"/><circle cx="0.1909" cy="-0.3042" r="0.0050"/><circle cx="0.1921" cy="-0.2232" r="0.0050"/><circle cx="0.1934" cy="-0.2232" r="0.0050"/><circle cx="0.1946" cy="-0.0612" r="0.0050"/><circle cx="0.1959" cy="0.1007" r="0.0050"/><circle cx="0.1971" cy="0.1817" r="0.0050"/><circle cx="0.1983" cy="-0.0612" r="0.0050"/><circle cx="0.1996" cy="-0.3042" r="0.0050"/><circle cx="0.2008" cy="-0.0612" r="0.0050"/><circle cx="0.2021" cy="-0.2232" r="0.0050"/><circle cx="0.2033" cy="0.1007" r="0.0050"/><circle cx="0.2046" cy="-0.2232" r="0.0050"/><circle cx="0.2058" cy="0.0198" r="0.0050"/><circle cx="0.2070" cy="0.1007" r="0.0050"/><circle cx="0.2083" cy="-0.1422" r="0.0050"/><circle cx="0.2095" cy="-0.1422" r="0.0050"/><circle cx="0.2108" cy="0.2627" r="0.0050"/><circle cx="0.2120" cy="-0.4661" r="0.0050"/><circle cx="0.2132" cy="0.2627" r="0.0050"/><circle cx="0.2145" cy="0.2627" r="0.0050"/><circle cx="0.2157" cy="-0.4661" r="0.0050"/><circle cx="0.2170" cy="0.1817" r="0.0050"/><circle cx="0.2182" cy="-0.4661" r="0.0050"/><circle cx="0.2195" cy="-0.4661" r="0.0050"/><circle cx="0.2207" cy="-0.2232" r="0.0050"/><circle cx="0.2219" cy="0.1817" r="0.0050"/><circle cx="0.2232" cy="-0.3851" r="0.0050"/><circle cx="0.2244" cy="0.2627" r="0.0050"/><circle cx="0.2257" cy="0.1817" r="0.0050"/><circle cx="0.2269" cy="-0.4661" r="0.0050"/><circle cx="0.2281" cy="0.1817" r="0.0050"/><circle cx="0.2294" cy="0.2627" r="0.0050"/><circle cx="0.2306" cy="0.2627" r="0.0050"/><circle cx="0.2319" cy="-0.4661" r="0.0050"/><circle cx="0.2331" cy="-0.3851" r="0.0050"/><circle cx="0.2343" cy="-0.3042" r="0.0050"/><circle cx="0.2356" cy="-0.4661" r="0.0050"/><circle cx="0.2368" cy="0.0198" r="0.0050"/><circle cx="0.2381" cy="-0.0612" r="0.0050"/><circle cx="0.2393" cy="0.1007" r="0.0050"/><circle cx="0.2406" cy="0.1007" r="0.0050"/><circle cx="0.2418" cy="-0.3042" r="0.0050"/><circle cx="0.2430" cy="-0.0612" r="0.0050"/><circle cx="0.2443" cy="0.2627" r="0.0050"/><circle cx="0.2455" cy="0.0198" r="0.0050"/><circle cx="0.2468" cy="0.1007" r="0.0050"/><circle cx="0.2480" cy="0.0198" r="0.0050"/><circle cx="0.2492" cy="-0.3851" r="0.0050"/><circle cx="0.2505" cy="-0.2232" r="0.0050"/><circle cx="0.2517" cy="0.2627" r="0.0050"/><circle cx="0.2530" cy="-0.0612" r="0.0050"/><circle cx="0.2542" cy="0.2627" r="0.0050"/><circle cx="0.2555" cy="0.1817" r="0.0050"/><circle cx="0.2567" cy="0.1817" r="0.0050"/><circle cx="0.2579" cy="0.2627" r="0.0050"/><circle cx="0.2592" cy="-0.2232" r="0.0050"/><circle cx="0.2604" cy="0.2627" r="0.0050"/><circle cx="0.2617" cy="0.0198" r="0.0050"/><circle cx="0.2629" cy="0.1007" r="0.0050"/><circle cx="0.2641" cy="-0.4661" r="0.0050"/><circle cx="0.2654" cy="-0.4661" r="0.0050"/><circle cx="0.2666" cy="-0.3042" r="0.0050"/><circle cx="0.2679" cy="-0.3851" r="0.0050"/><circle cx="0.2691" cy="0.2627" r="0.0050"/><circle cx="0.2704" cy="-0.3042" r="0.0050"/><circle cx="0.2716" cy="0.1007" r="0.0050"/><circle cx="0.2728" cy="-0.3851" r="0.0050"/><circle cx="0.2741" cy="-0.4661" r="0.0050"/><circle cx="0.2753" cy="0.2627" r="0.0050"/><circle cx="0.2766" cy="0.2627" r="0.0050"/><circle cx="0.2778" cy="0.1007" r="0.0050"/><circle cx="0.2790" cy="-0.4661" r="0.0050"/><circle cx="0.2803" cy="-0.0612" r="0.0050"/><circle cx="0.2815" cy="0.2627" r="0.0050"/><circle cx="0.2828" cy="0.1007" r="0.0050"/><circle cx="0.2840" cy="0.1817" r="0.0050"/><circle cx="0.2852" cy="0.2627" r="0.0050"/><circle cx="0.2865" cy="-0.4661" r="0.0050"/><circle cx="0.2877" cy="-0.4661" r="0.0050"/><circle cx="0.2890" cy="0.0198" r="0.0050"/><circle cx="0.2902" cy="0.1817" r="0.0050"/><circle cx="0.2915" cy="-0.4661" r="0.0050"/><circle cx="0.2927" cy="0.1007" r="0.0050"/><circle cx="0.2939" cy="0.1007" r="0.0050"/><circle cx="0.2952" cy="0.2627" r="0.0050"/><circle cx="0.2964" cy="0.1007" r="0.0050"/><circle cx="0.2977" cy="-0.4661" r="0.0050"/><circle cx="0.2989" cy="0.0198" r="0.0050"/><circle cx="0.3001" cy="0.1817" r="0.0050"/><circle cx="0.3014" cy="0.1007" r="0.0050"/><circle cx="0.3026" cy="-0.4661" r="0.0050"/><circle cx="0.3039" cy="-0.4661" r="0.0050"/><circle cx="0.3051" cy="-0.3851" r="0.0050"/><circle cx="0.3064" cy="-0.3851" r="0.0050"/><circle cx="0.3076" cy="-0.0612" r="0.0050"/><circle cx="0.3088" cy="-0.3851" r="0.0050"/><circle cx="0.3101" cy="0.1817" r="0.0050"/><circle cx="0.3113" cy="-0.3851" r="0.0050"/><circle cx="0.3126" cy="-0.2232" r="0.0050"/><circle cx="0.3138" cy="-0.3042" r="0.0050"/><circle cx="0.3150" cy="-0.3851" r="0.0050"/><circle cx="0.3163" cy="0.1007" r="0.0050"/><circle cx="0.3175" cy="0.2627" r="0.0050"/><circle cx="0.3188" cy="-0.2232" r="0.0050"/><circle cx="0.3200" cy="-0.3042" r="0.0050"/><circle cx="0.3213" cy="0.1817" r="0.0050"/><circle cx="0.3225" cy="0.1817" r="0.0050"/><circle cx="0.3237" cy="-0.2232" r="0.0050"/><circle cx="0.3250" cy="0.0198" r="0.0050"/><circle cx="0.3262" cy="0.2627" r="0.0050"/><circle cx="0.3275" cy="0.0198" r="0.0050"/><circle cx="0.3287" cy="-0.3851" r="0.0050"/><circle cx="0.3299" cy="0.1817" r="0.0050"/><circle cx="0.3312" cy="-0.0612" r="0.0050"/><circle cx="0.3324" cy="-0.4661" r="0.0050"/><circle cx="0.3337" cy="-0.0612" r="0.0050"/><circle cx="0.3349" cy="0.1817" r="0.0050"/><circle cx="0.3361" cy="0.2627" r="0.0050"/><circle cx="0.3374" cy="-0.3042" r="0.0050"/><circle cx="0.3386" cy="0.2627" r="0.0050"/><circle cx="0.3399" cy="-0.1422" r="0.0050"/><circle cx="0.3411" cy="-0.4661" r="0.0050"/><circle cx="0.3424" cy="0.2627" r="0.0050"/><circle cx="0.3436" cy="-0.3042" r="0.0050"/><circle cx="0.3448" cy="-0.2232" r="0.0050"/><circle cx="0.3461" cy="-0.4661" r="0.0050"/><circle cx="0.3473" cy="0.2627" r="0.0050"/><circle cx="0.3486" cy="0.0198" r="0.0050"/><circle cx="0.3498" cy="0.2627" r="0.0050"/><circle cx="0.3510" cy="-0.1422" r="0.0050"/><circle cx="0.3523" cy="0.1817" r="0.0050"/><circle cx="0.3535" cy="-0.0612" r="0.0050"/><circle cx="0.3548" cy="-0.4661" r="0.0050"/><circle cx="0.3560" cy="0.0198" r="0.0050"/><circle cx="0.3573" cy="-0.4661" r="0.0050"/><circle cx="0.3585" cy="0.2627" r="0.0050"/><circle cx="0.3597" cy="0.0198" r="0.0050"/><circle cx="0.3610" cy="-0.1422" r="0.0050"/><circle cx="0.3622" cy="-0.4661" r="0.0050"/><circle cx="0.3635" cy="0.1007" r="0.0050"/><circle cx="0.3647" cy="-0.3042" r="0.0050"/><circle cx="0.3659" cy="-0.4661" r="0.0050"/><circle cx="0.3672" cy="-0.4661" r="0.0050"/><circle cx="0.3684" cy="0.1007" r="0.0050"/><circle cx="0.3697" cy="0.1007" r="0.0050"/><circle cx="0.3709" cy="-0.3851" r="0.0050"/><circle cx="0.3722" cy="0.1817" r="0.0050"/><circle cx="0.3734" cy="-0.2232" r="0.0050"/><circle cx="0.3746" cy="-0.3042" r="0.0050"/><circle cx="0.3759" cy="0.1817" r="0.0050"/><circle cx="0.3771" cy="0.2627" r="0.0050"/><circle cx="0.3784" cy="0.2627" r="0.0050"/><circle cx="0.3796" cy="0.2627" r="0.0050"/><circle cx="0.3808" cy="-0.0612" r="0.0050"/><circle cx="0.3821" cy="-0.3851" r="0.0050"/><circle cx="0.3833" cy="0.2627" r="0.0050"/><circle cx="0.3846" cy="-0.1422" r="0.0050"/><circle cx="0.3858" cy="-0.4661" r="0.0050"/><circle cx="0.3870" cy="-0.0612" r="0.0050"/><circle cx="0.3883" cy="-0.3042" r="0.0050"/><circle cx="0.3895" cy="-0.4661" r="0.0050"/><circle cx="0.3908" cy="-0.0612" r="0.0050"/><circle cx="0.3920" cy="0.1817" r="0.0050"/><circle cx="0.3933" cy="-0.1422" r="0.0050"/><circle cx="0.3945" cy="0.1007" r="0.0050"/><circle cx="0.3957" cy="-0.3042" r="0.0050"/><circle cx="0.3970" cy="-0.1422" r="0.0050"/><circle cx="0.3982" cy="-0.2232" r="0.0050"/><circle cx="0.3995" cy="-0.3851" r="0.0050"/><circle cx="0.4007" cy="-0.0612" r="0.0050"/><circle cx="0.4019" cy="0.1007" r="0.0050"/><circle cx="0.4032" cy="0.1007" r="0.0050"/><circle cx="0.4044" cy="0.0198" r="0.0050"/><circle cx="0.4057" cy="-0.0612" r="0.0050"/><circle cx="0.4069" cy="-0.4661" r="0.0050"/><circle cx="0.4082" cy="0.1007" r="0.0050"/><circle cx="0.4094" cy="-0.4661" r="0.0050"/><circle cx="0.4106" cy="-0.2232" r="0.0050"/><circle cx="0.4119" cy="-0.3042" r="0.0050"/><circle cx="0.4131" cy="0.1007" r="0.0050"/><circle cx="0.4144" cy="-0.1422" r="0.0050"/><circle cx="0.4156" cy="0.1817" r="0.0050"/><circle cx="0.4168" cy="-0.4661" r="0.0050"/><circle cx="0.4181" cy="-0.3042" r="0.0050"/><circle cx="0.4193" cy="-0.3851" r="0.0050"/><circle cx="0.4206" cy="-0.0612" r="0.0050"/><circle cx="0.4218" cy="0.0198" r="0.0050"/><circle cx="0.4230" cy="-0.3851" r="0.0050"/><circle cx="0.4243" cy="-0.0612" r="0.0050"/><circle cx="0.4255" cy="-0.0612" r="0.0050"/><circle cx="0.4268" cy="-0.0612" r="0.0050"/><circle cx="0.4280" cy="0.0198" r="0.0050"/><circle cx="0.4293" cy="-0.4661" r="0.0050"/><circle cx="0.4305" cy="-0.0612" r="0.0050"/><circle cx="0.4317" cy="-0.3851" r="0.0050"/><circle cx="0.4330" cy="-0.2232" r="0.0050"/><circle cx="0.4342" cy="-0.1422" r="0.0050"/><circle cx="0.4355" cy="0.1007" r="0.0050"/><circle cx="0.4367" cy="-0.1422" r="0.0050"/><circle cx="0.4379" cy="0.1817" r="0.0050"/><circle cx="0.4392" cy="0.2627" r="0.0050"/><circle cx="0.4404" cy="-0.0612" r="0.0050"/><circle cx="0.4417" cy="-0.2232" r="0.0050"/><circle cx="0.4429" cy="-0.3851" r="0.0050"/><circle cx="0.4442" cy="0.2627" r="0.0050"/><circle cx="0.4454" cy="0.1007" r="0.0050"/><circle cx="0.4466" cy="0.1817" r="0.0050"/><circle cx="0.4479" cy="0.1007" r="0.0050"/><circle cx="0.4491" cy="-0.2232" r="0.0050"/><circle cx="0.4504" cy="0.1817" r="0.0050"/><circle cx="0.4516" cy="0.0198" r="0.0050"/><circle cx="0.4528" cy="-0.3851" r="0.0050"/><circle cx="0.4541" cy="-0.3042" r="0.0050"/><circle cx="0.4553" cy="-0.3851" r="0.0050"/><circle cx="0.4566" cy="-0.3042" r="0.0050"/><circle cx="0.4578" cy="0.2627" r="0.0050"/><circle cx="0.4591" cy="-0.2232" r="0.0050"/><circle cx="0.4603" cy="0.1817" r="0.0050"/><circle cx="0.4615" cy="0.1007" r="0.0050"/><circle cx="0.4628" cy="-0.3042" r="0.0050"/><circle cx="0.4640" cy="0.1817" r="0.0050"/><circle cx="0.4653" cy="0.1817" r="0.0050"/><circle cx="0.4665" cy="0.1007" r="0.0050"/><circle cx="0.4677" cy="0.1817" r="0.0050"/><circle cx="0.4690" cy="0.1007" r="0.0050"/><circle cx="0.4702" cy="-0.0612" r="0.0050"/><circle cx="0.4715" cy="-0.4661" r="0.0050"/><circle cx="0.4727" cy="0.2627" r="0.0050"/><circle cx="0.4739" cy="0.1817" r="0.0050"/><circle cx="0.4752" cy="-0.4661" r="0.0050"/><circle cx="0.4764" cy="-0.4661" r="0.0050"/><circle cx="0.4777" cy="-0.0612" r="0.0050"/><circle cx="0.4789" cy="0.1007" r="0.0050"/><circle cx="0.4802" cy="0.2627" r="0.0050"/><circle cx="0.4814" cy="0.0198" r="0.0050"/><circle cx="0.4826" cy="0.0198" r="0.0050"/><circle cx="0.4839" cy="-0.0612" r="0.0050"/><circle cx="0.4851" cy="-0.4661" r="0.0050"/><circle cx="0.4864" cy="0.2627" r="0.0050"/><circle cx="0.4876" cy="-0.4661" r="0.0050"/><circle cx="0.4888" cy="-0.3042" r="0.0050"/><circle cx="0.4901" cy="0.0198" r="0.0050"/><circle cx="0.4913" cy="0.1007" r="0.0050"/><circle cx="0.4926" cy="-0.4661" r="0.0050"/><circle cx="0.4938" cy="-0.3042" r="0.0050"/><circle cx="0.4951" cy="-0.3851" r="0.0050"/><circle cx="0.4963" cy="0.0198" r="0.0050"/><circle cx="0.4975" cy="0.0198" r="0.0050"/><circle cx="0.4988" cy="-0.4661" r="0.0050"/><circle cx="0.5000" cy="0.1007" r="0.0050"/><circle cx="0.5013" cy="0.0198" r="0.0050"/><circle cx="0.5025" cy="0.2627" r="0.0050"/><circle cx="0.5037" cy="0.1007" r="0.0050"/><circle cx="0.5050" cy="-0.3042" r="0.0050"/><circle cx="0.5062" cy="-0.3042" r="0.0050"/><circle cx="0.5075" cy="-0.2232" r="0.0050"/><circle cx="0.5087" cy="0.2627" r="0.0050"/><circle cx="0.5100" cy="-0.4661" r="0.0050"/><circle cx="0.5112" cy="-0.3042" r="0.0050"/><circle cx="0.5124" cy="0.1007" r="0.0050"/><circle cx="0.5137" cy="-0.2232" r="0.0050"/><circle cx="0.5149" cy="0.1007" r="0.0050"/><circle cx="0.5162" cy="-0.0612" r="0.0050"/><circle cx="0.5174" cy="-0.2232" r="0.0050"/><circle cx="0.5186" cy="-0.0612" r="0.0050"/><circle cx="0.5199" cy="-0.3851" r="0.0050"/><circle cx="0.5211" cy="-0.2232" r="0.0050"/><circle cx="0.5224" cy="-0.1422" r="0.0050"/><circle cx="0.5236" cy="0.1817" r="0.0050"/><circle cx="0.5248" cy="-0.0612" r="0.0050"/><circle cx="0.5261" cy="-0.4661" r="0.0050"/><circle cx="0.5273" cy="-0.1422" r="0.0050"/><circle cx="0.5286" cy="-0.0612" r="0.0050"/><circle cx="0.5298" cy="0.2627" r="0.0050"/><circle cx="0.5311" cy="0.1817" r="0.0050"/><circle cx="0.5323" cy="-0.0612" r="0.0050"/><circle cx="0.5335" cy="-0.3042" r="0.0050"/><circle cx="0.5348" cy="0.0198" r="0.0050"/><circle cx="0.5360" cy="-0.3851" r="0.0050"/><circle cx="0.5373" cy="-0.2232" r="0.0050"/><circle cx="0.5385" cy="0.0198" r="0.0050"/><circle cx="0.5397" cy="0.2627" r="0.0050"/><circle cx="0.5410" cy="0.1817" r="0.0050"/><circle cx="0.5422" cy="0.1007" r="0.0050"/><circle cx="0.5435" cy="-0.1422" r="0.0050"/><circle cx="0.5447" cy="-0.3851" r="0.0050"/><circle cx="0.5460" cy="0.1817" r="0.0050"/><circle cx="0.5472" cy="-0.2232" r="0.0050"/><circle cx="0.5484" cy="-0.0612" r="0.0050"/><circle cx="0.5497" cy="0.1817" r="0.0050"/><circle cx="0.5509" cy="-0.3851" r="0.0050"/><circle cx="0.5522" cy="-0.0612" r="0.0050"/><circle cx="0.5534" cy="-0.0612" r="0.0050"/><circle cx="0.5546" cy="-0.3042" r="0.0050"/><circle cx="0.5559" cy="0.1817" r="0.0050"/><circle cx="0.5571" cy="-0.4661" r="0.0050"/><circle cx="0.5584" cy="-0.1422" r="0.0050"/><circle cx="0.5596" cy="-0.2232" r="0.0050"/><circle cx="0.5609" cy="-0.3042" r="0.0050"/><circle cx="0.5621" cy="-0.2232" r="0.0050"/><circle cx="0.5633" cy="-0.2232" r="0.0050"/><circle cx="0.5646" cy="-0.0612" r="0.0050"/><circle cx="0.5658" cy="0.1817" r="0.0050"/><circle cx="0.5671" cy="0.1007" r="0.0050"/><circle cx="0.5683" cy="-0.4661" r="0.0050"/><circle cx="0.5695" cy="-0.3042" r="0.0050"/><circle cx="0.5708" cy="-0.1422" r="0.0050"/><circle cx="0.5720" cy="-0.1422" r="0.0050"/><circle cx="0.5733" cy="-0.3042" r="0.0050"/><circle cx="0.5745" cy="-0.1422" r="0.0050"/><circle cx="0.5757" cy="0.1817" r="0.0050"/><circle cx="0.5770" cy="-0.3851" r="0.0050"/><circle cx="0.5782" cy="-0.3042" r="0.0050"/><circle cx="0.5795" cy="-0.3851" r="0.0050"/><circle cx="0.5807" cy="0.1007" r="0.0050"/><circle cx="0.5820" cy="0.0198" r="0.0050"/><circle cx="0.5832" cy="-0.3851" r="0.0050"/><circle cx="0.5844" cy="0.1817" r="0.0050"/><circle cx="0.5857" cy="0.1007" r="0.0050"/><circle cx="0.5869" cy="-0.1422" r="0.0050"/><circle cx="0.5882" cy="-0.3042" r="0.0050"/><circle cx="0.5894" cy="-0.1422" r="0.0050"/><circle cx="0.5906" cy="-0.2232" r="0.0050"/><circle cx="0.5919" cy="0.1817" r="0.0050"/><circle cx="0.5931" cy="-0.0612" r="0.0050"/><circle cx="0.5944" cy="0.2627" r="0.0050"/><circle cx="0.5956" cy="-0.0612" r="0.0050"/><circle cx="0.5969" cy="-0.2232" r="0.0050"/><circle cx="0.5981" cy="0.1007" r="0.0050"/><circle cx="0.5993" cy="-0.2232" r="0.0050"/><circle cx="0.6006" cy="0.0198" r="0.0050"/><circle cx="0.6018" cy="0.0198" r="0.0050"/><circle cx="0.6031" cy="-0.3042" r="0.0050"/><circle cx="0.6043" cy="-0.3851" r="0.0050"/><circle cx="0.6055" cy="-0.1422" r="0.0050"/><circle cx="0.6068" cy="0.1817" r="0.0050"/><circle cx="0.6080" cy="-0.1422" r="0.0050"/><circle cx="0.6093" cy="0.2627" r="0.0050"/><circle cx="0.6105" cy="0.1817" r="0.0050"/><circle cx="0.6118" cy="-0.0612" r="0.0050"/><circle cx="0.6130" cy="-0.4661" r="0.0050"/><circle cx="0.6142" cy="0.0198" r="0.0050"/><circle cx="0.6155" cy="-0.4661" r="0.0050"/><circle cx="0.6167" cy="0.1817" r="0.0050"/></g></g><g class="hud"><g class="frame"><g fill="rgb(100%, 100%, 100%)" fill-opacity="0.02" stroke="rgb(0%, 0%, 0%)" stroke-opacity="0" stroke-width="0"><rect height="0.7383" width="1.2510" x="-0.6289" y="-0.4708"/></g></g><g class="axis"><g class="ticks"><g class="tickglyph"><g fill="rgb(5%, 5%, 5%)" fill-opacity="0.4" stroke="rgb(5%, 5%, 5%)" stroke-opacity="0.4" stroke-width="0.0040"><g transform="rotate(-90.0, -0.6537, 0.2222)"><polyline points="-0.6537,0.2372
-0.6537,0.2072"/></g><g transform="rotate(-90.0, -0.6537, 0.1412)"><polyline points="-0.6537,0.1562
-0.6537,0.1262"/></g><g transform="rotate(-90.0, -0.6537, 0.0602)"><polyline points="-0.6537,0.0752
-0.6537,0.0452"/></g><g transform="rotate(-90.0, -0.6537, -0.0207)"><polyline points="-0.6537,-0.0057
-0.6537,-0.0357"/></g><g transform="rotate(-90.0, -0.6537, -0.1017)"><polyline points="-0.6537,-0.0867
-0.6537,-0.1167"/></g><g transform="rotate(-90.0, -0.6537, -0.1827)"><polyline points="-0.6537,-0.1677
-0.6537,-0.1977"/></g><g transform="rotate(-90.0, -0.6537, -0.2637)"><polyline points="-0.6537,-0.2487
-0.6537,-0.2787"/></g><g transform="rotate(-90.0, -0.6537, -0.3446)"><polyline points="-0.6537,-0.3296
-0.6537,-0.3596"/></g><g transform="rotate(-90.0, -0.6537, -0.4256)"><polyline points="-0.6537,-0.4106
-0.6537,-0.4406"/></g></g></g><g class="ticktext"><g fill="rgb(5%, 5%, 5%)" fill-opacity="1.0" font-size="0.0248" stroke="none" stroke-width="0.0" text-anchor="end"><text x="-0.6834" y="0.2282">10%</text><text x="-0.6834" y="0.1472">20%</text><text x="-0.6834" y="0.0663">30%</text><text x="-0.6834" y="-0.0147">40%</text><text x="-0.6834" y="-0.0957">50%</text><text x="-0.6834" y="-0.1767">60%</text><text x="-0.6834" y="-0.2577">70%</text><text x="-0.6834" y="-0.3386">80%</text><text x="-0.6834" y="-0.4196">90%</text></g></g></g><g class="axisbar"><g fill="rgb(5%, 5%, 5%)" fill-opacity="0.4" stroke="rgb(0%, 0%, 0%)" stroke-opacity="0" stroke-width="0"><rect height="0.7317" width="0.0033" x="-0.6404" y="-0.4676"/></g></g></g><g class="axis"><g class="ticks"><g class="tickglyph"><g fill="rgb(5%, 5%, 5%)" fill-opacity="0.4" stroke="rgb(5%, 5%, 5%)" stroke-opacity="0.4" stroke-width="0.0040"><polyline points="-0.5333,0.3043
-0.5333,0.2743"/><polyline points="-0.3548,0.3043
-0.3548,0.2743"/><polyline points="-0.1783,0.3043
-0.1783,0.2743"/><polyline points="0.0001,0.3043
0.0001,0.2743"/><polyline points="0.1757,0.3043
0.1757,0.2743"/><polyline points="0.3541,0.3043
0.3541,0.2743"/><polyline points="0.5297,0.3043
0.5297,0.2743"/><polyline points="0.7082,0.3043
0.7082,0.2743"/></g></g><g class="ticktext"><g fill="rgb(5%, 5%, 5%)" fill-opacity="1.0" font-size="0.0413" stroke="none" stroke-width="0.0" text-anchor="end"><text transform="rotate(-45.0, -0.5333, 0.3356)" x="-0.5333" y="0.3356">30 Jun 2019</text><text transform="rotate(-45.0, -0.3548, 0.3356)" x="-0.3548" y="0.3356">31 Dec 2019</text><text transform="rotate(-45.0, -0.1783, 0.3356)" x="-0.1783" y="0.3356">30 Jun 2020</text><text transform="rotate(-45.0, 0.0001, 0.3356)" x="0.0001" y="0.3356">31 Dec 2020</text><text transform="rotate(-45.0, 0.1757, 0.3356)" x="0.1757" y="0.3356">30 Jun 2021</text><text transform="rotate(-45.0, 0.3541, 0.3356)" x="0.3541" y="0.3356">31 Dec 2021</text><text transform="rotate(-45.0, 0.5297, 0.3356)" x="0.5297" y="0.3356">30 Jun 2022</text><text transform="rotate(-45.0, 0.7082, 0.3356)" x="0.7082" y="0.3356">31 Dec 2022</text></g></g><g class="ticklines"><g fill="none" stroke="rgb(5%, 5%, 5%)" stroke-opacity="0.05" stroke-width="0.0050"><polyline points="-0.5333,0.2627 -0.5333,-0.4661"/><polyline points="-0.3548,0.2627 -0.3548,-0.4661"/><polyline points="-0.1783,0.2627 -0.1783,-0.4661"/><polyline points="0.0001,0.2627 0.0001,-0.4661"/><polyline points="0.1757,0.2627 0.1757,-0.4661"/><polyline points="0.3541,0.2627 0.3541,-0.4661"/><polyline points="0.5297,0.2627 0.5297,-0.4661"/><polyline points="0.7082,0.2627 0.7082,-0.4661"/></g></g></g><g class="axisbar"><g fill="rgb(5%, 5%, 5%)" fill-opacity="0.4" stroke="rgb(0%, 0%, 0%)" stroke-opacity="0" stroke-width="0"><rect height="0.0029" width="1.2435" x="-0.6252" y="0.2747"/></g></g></g><g class="frame"><g fill="rgb(100%, 100%, 100%)" fill-opacity="0.02" stroke="rgb(0%, 0%, 0%)" stroke-opacity="0" stroke-width="0"><rect height="1.0" width="1.5000" x="-0.75" y="-0.5"/></g></g></g></svg>