<svg height="300" viewBox="-0.75 -0.5 1.5 1.0" width="450" xmlns="http://www.w3.org/2000/svg" xmlns:xlink="http://www.w3.org/1999/xlink"><style>svg {
  color-scheme: light dark;
}
{
  .canvas g, .title g, .axisbar g, .ticktext g, .tickglyph g, .ticklines g, .legendContent g text {
    fill: rgb(5%, 5%, 5%);
  }
  .ticklines g, .tickglyph g, .legendBorder g {
    stroke: rgb(5%, 5%, 5%);
  }
  .legendBorder g {
    fill: rgb(94%, 94%, 94%);
  }
}
@media (prefers-color-scheme:dark) {
  .canvas g, .title g, .axisbar g, .ticktext g, .tickglyph g, .ticklines g, .legendContent g text {
    fill: rgb(94%, 94%, 94%);
  }
  .ticklines g, .tickglyph g, .legendBorder g {
    stroke: rgb(94%, 94%, 94%);
  }
  .legendBorder g {
    fill: rgb(5%, 5%, 5%);
  }
}</style><g class="chart"><g fill="rgb(0%, 0%, 100%)" fill-opacity="1.0" stroke="rgb(2%, 29%, 48%)" stroke-opacity="1.0" stroke-width="0.0030"><circle cx="-0.6199" cy="-0.4661" r="0.0050"/><circle cx="-0.6185" cy="-0.4661" r="0.0050"/><circle cx="-0.6172" cy="0.2627" r="0.0050"/><circle cx="-0.6159" cy="0.0198" r="0.0050"/><circle cx="-0.6145" cy="0.0198" r="0.0050"/><circle cx="-0.6132" cy="-0.1422" r="0.0050"/><circle cx="-0.6119" cy="0.1007" r="0.0050"/><circle cx="-0.6105" cy="0.2627" r="0.0050"/><circle cx="-0.6092" cy="-0.2232" r="0.0050"/><circle cx="-0.6079" cy="0.1007" r="0.0050"/><circle cx="-0.6066" cy="-0.3851" r="0.0050"/><circle cx="-0.6052" cy="0.1817" r="0.0050"/><circle cx="-0.6039" cy="0.0198" r="0.0050"/><circle cx="-0.6026" cy="0.1817" r="0.0050"/><circle cx="-0.6012" cy="-0.1422" r="0.0050"/><circle cx="-0.5999" cy="-0.0612" r="0.0050"/><circle cx="-0.5986" cy="-0.4661" r="0.0050"/><circle cx="-0.5972" cy="0.1817" r="0.0050"/><circle cx="-0.5959" cy="0.1007" r="0.0050"/><circle cx="-0.5946" cy="-0.3042" r="0.0050"/><circle cx="-0.5933" cy="-0.0612" r="0.0050"/><circle cx="-0.5919" cy="-0.0612" r="0.0050"/><circle cx="-0.5906" cy="0.2627" r="0.0050"/><circle cx="-0.5893" cy="0.1817" r="0.0050"/><circle cx="-0.5879" cy="-0.4661" r="0.0050"/><circle cx="-0.5866" cy="0.2627" r="0.0050"/><circle cx="-0.5853" cy="0.2627" r="0.0050"/><circle cx="-0.5839" cy="0.1007" r="0.0050"/><circle cx="-0.5826" cy="0.1817" r="0.0050"/><circle cx="-0.5813" cy="-0.3042" r="0.0050"/><circle cx="-0.5800" cy="0.2627" r="0.0050"/><circle cx="-0.5786" cy="-0.3851" r="0.0050"/><circle cx="-0.5773" cy="-0.3851" r="0.0050"/><circle cx="-0.5760" cy="-0.4661" r="0.0050"/><circle cx="-0.5746" cy="0.1817" r="0.0050"/><circle cx="-0.5733" cy="0.1817" r="0.0050"/><circle cx="-0.5720" cy="-0.3851" r="0.0050"/><circle cx="-0.5706" cy="0.1007" r="0.0050"/><circle cx="-0.5693" cy="0.2627" r="0.0050"/><circle cx="-0.5680" cy="-0.1422" r="0.0050"/><circle cx="-0.5667" cy="0.1817" r="0.0050"/><circle cx="-0.5653" cy="0.1817" r="0.0050"/><circle cx="-0.5640" cy="-0.2232" r="0.0050"/><circle cx="-0.5627" cy="0.2627" r="0.0050"/><circle cx="-0.5613" cy="0.0198" r="0.0050"/><circle cx="-0.5600" cy="-0.4661" r="0.0050"/><circle cx="-0.5587" cy="-0.3851" r="0.0050"/><circle cx="-0.5573" cy="-0.3042" r="0.0050"/><circle cx="-0.5560" cy="-0.4661" r="0.0050"/><circle cx="-0.5547" cy="-0.3042" r="0.0050"/><circle cx="-0.5534" cy="-0.0612" r="0.0050"/><circle cx="-0.5520" cy="0.0198" r="0.0050"/><circle cx="-0.5507" cy="-0.2232" r="0.0050"/><circle cx="-0.5494" cy="0.0198" r="0.0050"/><circle cx="-0.5480" cy="-0.0612" r="0.0050"/><circle cx="-0.5467" cy="-0.4661" r="0.0050"/><circle cx="-0.5454" cy="-0.2232" r="0.0050"/><circle cx="-0.5440" cy="-0.4661" r="0.0050"/><circle cx="-0.5427" cy="0.0198" r="0.0050"/><circle cx="-0.5414" cy="0.0198" r="0.0050"/><circle cx="-0.5401" cy="0.2627" r="0.0050"/><circle cx="-0.5387" cy="-0.0612" r="0.0050"/><circle cx="-0.5374" cy="-0.2232" r="0.0050"/><circle cx="-0.5361" cy="-0.3042" r="0.0050"/><circle cx="-0.5347" cy="-0.3851" r="0.0050"/><circle cx="-0.5334" cy="-0.1422" r="0.0050"/><circle cx="-0.5321" cy="-0.3851" r="0.0050"/><circle cx="-0.5307" cy="0.1007" r="0.0050"/><circle cx="-0.5294" cy="0.1817" r="0.0050"/><circle cx="-0.5281" cy="-0.1422" r="0.0050"/><circle cx="-0.5268" cy="-0.3042" r="0.0050"/><circle cx="-0.5254" cy="-0.1422" r="0.0050"/><circle cx="-0.5241" cy="-0.3042" r="0.0050"/><circle cx="-0.5228" cy="-0.0612" r="0.0050"/><circle cx="-0.5214" cy="0.1817" r="0.0050"/><circle cx="-0.5201" cy="0.1817" r="0.0050"/><circle cx="-0.5188" cy="-0.2232" r="0.0050"/><circle cx="-0.5174" cy="0.1817" r="0.0050"/><circle cx="-0.5161" cy="-0.2232" r="0.0050"/><circle cx="-0.5148" cy="-0.3851" r="0.0050"/><circle cx="-0.5135" cy="-0.3042" r="0.0050"/><circle cx="-0.5121" cy="0.1817" r="0.0050"/><circle cx="-0.5108" cy="-0.3851" r="0.0050"/><circle cx="-0.5095" cy="0.0198" r="0.0050"/><circle cx="-0.5081" cy="0.1007" r="0.0050"/><circle cx="-0.5068" cy="0.2627" r="0.0050"/><circle cx="-0.5055" cy="0.2627" r="0.0050"/><circle cx="-0.5041" cy="0.1817" r="0.0050"/><circle cx="-0.5028" cy="0.2627" r="0.0050"/><circle cx="-0.5015" cy="-0.4661" r="0.0050"/><circle cx="-0.5002" cy="-0.0612" r="0.0050"/><circle cx="-0.4988" cy="-0.4661" r="0.0050"/><circle cx="-0.4975" cy="0.1817" r="0.0050"/><circle cx="-0.4962" cy="0.2627" r="0.0050"/><circle cx="-0.4948" cy="-0.4661" r="0.0050"/><circle cx="-0.4935" cy="0.2627" r="0.0050"/><circle cx="-0.4922" cy="-0.2232" r="0.0050"/><circle cx="-0.4908" cy="-0.4661" r="0.0050"/><circle cx="-0.4895" cy="-0.4661" r="0.0050"/><circle cx="-0.4882" cy="0.1817" r="0.0050"/><circle cx="-0.4869" cy="-0.3851" r="0.0050"/><circle cx="-0.4855" cy="-0.0612" r="0.0050"/><circle cx="-0.4842" cy="0.2627" r="0.0050"/><circle cx="-0.4829" cy="-0.4661" r="0.0050"/><circle cx="-0.4815" cy="0.1007" r="0.0050"/><circle cx="-0.4802" cy="-0.3042" r="0.0050"/><circle cx="-0.4789" cy="-0.4661" r="0.0050"/><circle cx="-0.4775" cy="-0.0612" r="0.0050"/><circle cx="-0.4762" cy="0.1817" r="0.0050"/><circle cx="-0.4749" cy="-0.3851" r="0.0050"/><circle cx="-0.4736" cy="-0.4661" r="0.0050"/><circle cx="-0.4722" cy="-0.0612" r="0.0050"/><circle cx="-0.4709" cy="-0.0612" r="0.0050"/><circle cx="-0.4696" cy="-0.0612" r="0.0050"/><circle cx="-0.4682" cy="-0.3042" r="0.0050"/><circle cx="-0.4669" cy="-0.1422" r="0.0050"/><circle cx="-0.4656" cy="0.0198" r="0.0050"/><circle cx="-0.4642" cy="0.1007" r="0.0050"/><circle cx="-0.4629" cy="-0.1422" r="0.0050"/><circle cx="-0.4616" cy="-0.0612" r="0.0050"/><circle cx="-0.4603" cy="-0.0612" r="0.0050"/><circle cx="-0.4589" cy="0.1007" r="0.0050"/><circle cx="-0.4576" cy="-0.0612" r="0.0050"/><circle cx="-0.4563" cy="0.2627" r="0.0050"/><circle cx="-0.4549" cy="-0.3042" r="0.0050"/><circle cx="-0.4536" cy="0.1007" r="0.0050"/><circle cx="-0.4523" cy="0.1007" r="0.0050"/><circle cx="-0.4509" cy="-0.3042" r="0.0050"/><circle cx="-0.4496" cy="0.2627" r="0.0050"/><circle cx="-0.4483" cy="0.2627" r="0.0050"/><circle cx="-0.4470" cy="-0.3851" r="0.0050"/><circle cx="-0.4456" cy="-0.4661" r="0.0050"/><circle cx="-0.4443" cy="0.1007" r="0.0050"/><circle cx="-0.4430" cy="0.2627" r="0.0050"/><circle cx="-0.4416" cy="-0.3851" r="0.0050"/><circle cx="-0.4403" cy="-0.3042" r="0.0050"/><circle cx="-0.4390" cy="-0.3851" r="0.0050"/><circle cx="-0.4376" cy="0.0198" r="0.0050"/><circle cx="-0.4363" cy="-0.3851" r="0.0050"/><circle cx="-0.4350" cy="0.0198" r="0.0050"/><circle cx="-0.4337" cy="-0.1422" r="0.0050"/><circle cx="-0.4323" cy="0.1007" r="0.0050"/><circle cx="-0.4310" cy="-0.3042" r="0.0050"/><circle cx="-0.4297" cy="0.1007" r="0.0050"/><circle cx="-0.4283" cy="-0.2232" r="0.0050"/><circle cx="-0.4270" cy="-0.1422" r="0.0050"/><circle cx="-0.4257" cy="-0.2232" r="0.0050"/><circle cx="-0.4243" cy="-0.3042" r="0.0050"/><circle cx="-0.4230" cy="0.0198" r="0.0050"/><circle cx="-0.4217" cy="-0.2232" r="0.0050"/><circle cx="-0.4204" cy="0.1007" r="0.0050"/><circle cx="-0.4190" cy="-0.3851" r="0.0050"/><circle cx="-0.4177" cy="-0.2232" r="0.0050"/><circle cx="-0.4164" cy="0.0198" r="0.0050"/><circle cx="-0.4150" cy="-0.0612" r="0.0050"/><circle cx="-0.4137" cy="-0.1422" r="0.0050"/><circle cx="-0.4124" cy="-0.1422" r="0.0050"/><circle cx="-0.4110" cy="0.0198" r="0.0050"/><circle cx="-0.4097" cy="-0.1422" r="0.0050"/><circle cx="-0.4084" cy="-0.0612" r="0.0050"/><circle cx="-0.4071" cy="-0.0612" r="0.0050"/><circle cx="-0.4057" cy="-0.3851" r="0.0050"/><circle cx="-0.4044" cy="-0.0612" r="0.0050"/><circle cx="-0.4031" cy="0.0198" r="0.0050"/><circle cx="-0.4017" cy="0.1817" r="0.0050"/><circle cx="-0.4004" cy="0.0198" r="0.0050"/><circle cx="-0.3991" cy="-0.1422" r="0.0050"/><circle cx="-0.3977" cy="-0.3851" r="0.0050"/><circle cx="-0.3964" cy="-0.1422" r="0.0050"/><circle cx="-0.3951" cy="-0.3042" r="0.0050"/><circle cx="-0.3938" cy="0.1817" r="0.0050"/><circle cx="-0.3924" cy="0.2627" r="0.0050"/><circle cx="-0.3911" cy="0.1817" r="0.0050"/><circle cx="-0.3898" cy="-0.3042" r="0.0050"/><circle cx="-0.3884" cy="-0.1422" r="0.0050"/><circle cx="-0.3871" cy="-0.3851" r="0.0050"/><circle cx="-0.3858" cy="0.1007" r="0.0050"/><circle cx="-0.3844" cy="0.0198" r="0.0050"/><circle cx="-0.3831" cy="-0.2232" r="0.0050"/><circle cx="-0.3818" cy="-0.3851" r="0.0050"/><circle cx="-0.3805" cy="-0.0612" r="0.0050"/><circle cx="-0.3791" cy="-0.3851" r="0.0050"/><circle cx="-0.3778" cy="-0.0612" r="0.0050"/><circle cx="-0.3765" cy="0.0198" r="0.0050"/><circle cx="-0.3751" cy="-0.3042" r="0.0050"/><circle cx="-0.3738" cy="-0.3042" r="0.0050"/><circle cx="-0.3725" cy="-0.0612" r="0.0050"/><circle cx="-0.3711" cy="0.0198" r="0.0050"/><circle cx="-0.3698" cy="-0.3042" r="0.0050"/><circle cx="-0.3685" cy="0.0198" r="0.0050"/><circle cx="-0.3672" cy="0.1817" r="0.0050"/><circle cx="-0.3658" cy="-0.2232" r="0.0050"/><circle cx="-0.3645" cy="-0.3851" r="0.0050"/><circle cx="-0.3632" cy="0.2627" r="0.0050"/><circle cx="-0.3618" cy="-0.2232" r="0.0050"/><circle cx="-0.3605" cy="0.1007" r="0.0050"/><circle cx="-0.3592" cy="-0.3042" r="0.0050"/><circle cx="-0.3578" cy="-0.3851" r="0.0050"/><circle cx="-0.3565" cy="0.1007" r="0.0050"/><circle cx="-0.3552" cy="-0.3851" r="0.0050"/><circle cx="-0.3539" cy="0.1007" r="0.0050"/><circle cx="-0.3525" cy="-0.1422" r="0.0050"/><circle cx="-0.3512" cy="-0.3851" r="0.0050"/><circle cx="-0.3499" cy="-0.2232" r="0.0050"/><circle cx="-0.3485" cy="0.1007" r="0.0050"/><circle cx="-0.3472" cy="-0.0612" r="0.0050"/><circle cx="-0.3459" cy="-0.1422" r="0.0050"/><circle cx="-0.3445" cy="0.2627" r="0.0050"/><circle cx="-0.3432" cy="0.2627" r="0.0050"/><circle cx="-0.3419" cy="-0.4661" r="0.0050"/><circle cx="-0.3406" cy="0.0198" r="0.0050"/><circle cx="-0.3392" cy="-0.2232" r="0.0050"/><circle cx="-0.3379" cy="0.2627" r="0.0050"/><circle cx="-0.3366" cy="-0.3851" r="0.0050"/><circle cx="-0.3352" cy="-0.4661" r="0.0050"/><circle cx="-0.3339" cy="-0.4661" r="0.0050"/><circle cx="-0.3326" cy="-0.2232" r="0.0050"/><circle cx="-0.3312" cy="0.1817" r="0.0050"/><circle cx="-0.3299" cy="-0.3851" r="0.0050"/><circle cx="-0.3286" cy="-0.1422" r="0.0050"/><circle cx="-0.3273" cy="-0.3042" r="0.0050"/><circle cx="-0.3259" cy="0.1007" r="0.0050"/><circle cx="-0.3246" cy="-0.1422" r="0.0050"/><circle cx="-0.3233" cy="0.1007" r="0.0050"/><circle cx="-0.3219" cy="-0.3042" r="0.0050"/><circle cx="-0.3206" cy="0.1817" r="0.0050"/><circle cx="-0.3193" cy="0.2627" r="0.0050"/><circle cx="-0.3179" cy="0.2627" r="0.0050"/><circle cx="-0.3166" cy="0.2627" r="0.0050"/><circle cx="-0.3153" cy="0.1007" r="0.0050"/><circle cx="-0.3140" cy="0.2627" r="0.0050"/><circle cx="-0.3126" cy="0.1817" r="0.0050"/><circle cx="-0.3113" cy="-0.4661" r="0.0050"/><circle cx="-0.3100" cy="0.2627" r="0.0050"/><circle cx="-0.3086" cy="-0.4661" r="0.0050"/><circle cx="-0.3073" cy="0.2627" r="0.0050"/><circle cx="-0.3060" cy="0.2627" r="0.0050"/><circle cx="-0.3046" cy="0.2627" r="0.0050"/><circle cx="-0.3033" cy="-0.4661" r="0.0050"/><circle cx="-0.3020" cy="0.2627" r="0.0050"/><circle cx="-0.3007" cy="0.2627" r="0.0050"/><circle cx="-0.2993" cy="-0.4661" r="0.0050"/><circle cx="-0.2980" cy="0.2627" r="0.0050"/><circle cx="-0.2967" cy="-0.4661" r="0.0050"/><circle cx="-0.2953" cy="0.2627" r="0.0050"/><circle cx="-0.2940" cy="-0.3042" r="0.0050"/><circle cx="-0.2927" cy="0.2627" r="0.0050"/><circle cx="-0.2913" cy="0.1817" r="0.0050"/><circle cx="-0.2900" cy="-0.4661" r="0.0050"/><circle cx="-0.2887" cy="-0.4661" r="0.0050"/><circle cx="-0.2874" cy="-0.4661" r="0.0050"/><circle cx="-0.2860" cy="0.2627" r="0.0050"/><circle cx="-0.2847" cy="-0.4661" r="0.0050"/><circle cx="-0.2834" cy="0.1817" r="0.0050"/><circle cx="-0.2820" cy="0.2627" r="0.0050"/><circle cx="-0.2807" cy="-0.4661" r="0.0050"/><circle cx="-0.2794" cy="0.1817" r="0.0050"/><circle cx="-0.2780" cy="-0.4661" r="0.0050"/><circle cx="-0.2767" cy="0.0198" r="0.0050"/><circle cx="-0.2754" cy="-0.4661" r="0.0050"/><circle cx="-0.2741" cy="-0.3851" r="0.0050"/><circle cx="-0.2727" cy="0.1817" r="0.0050"/><circle cx="-0.2714" cy="-0.4661" r="0.0050"/><circle cx="-0.2701" cy="0.1817" r="0.0050"/><circle cx="-0.2687" cy="-0.3042" r="0.0050"/><circle cx="-0.2674" cy="-0.3851" r="0.0050"/><circle cx="-0.2661" cy="0.1817" r="0.0050"/><circle cx="-0.2647" cy="0.2627" r="0.0050"/><circle cx="-0.2634" cy="-0.3851" r="0.0050"/><circle cx="-0.2621" cy="-0.0612" r="0.0050"/><circle cx="-0.2608" cy="-0.3851" r="0.0050"/><circle cx="-0.2594" cy="-0.3851" r="0.0050"/><circle cx="-0.2581" cy="0.1007" r="0.0050"/><circle cx="-0.2568" cy="-0.3851" r="0.0050"/><circle cx="-0.2554" cy="0.1007" r="0.0050"/><circle cx="-0.2541" cy="0.1817" r="0.0050"/><circle cx="-0.2528" cy="-0.2232" r="0.0050"/><circle cx="-0.2514" cy="-0.3042" r="0.0050"/><circle cx="-0.2501" cy="0.1007" r="0.0050"/><circle cx="-0.2488" cy="-0.3851" r="0.0050"/><circle cx="-0.2475" cy="-0.3851" r="0.0050"/><circle cx="-0.2461" cy="-0.0612" r="0.0050"/><circle cx="-0.2448" cy="0.1817" r="0.0050"/><circle cx="-0.2435" cy="0.1817" r="0.0050"/><circle cx="-0.2421" cy="-0.3851" r="0.0050"/><circle cx="-0.2408" cy="-0.2232" r="0.0050"/><circle cx="-0.2395" cy="-0.4661" r="0.0050"/><circle cx="-0.2381" cy="0.1007" r="0.0050"/><circle cx="-0.2368" cy="-0.3851" r="0.0050"/><circle cx="-0.2355" cy="0.1007" r="0.0050"/><circle cx="-0.2342" cy="-0.1422" r="0.0050"/><circle cx="-0.2328" cy="-0.3851" r="0.0050"/><circle cx="-0.2315" cy="-0.3851" r="0.0050"/><circle cx="-0.2302" cy="0.0198" r="0.0050"/><circle cx="-0.2288" cy="-0.2232" r="0.0050"/><circle cx="-0.2275" cy="-0.1422" r="0.0050"/><circle cx="-0.2262" cy="-0.2232" r="0.0050"/><circle cx="-0.2248" cy="-0.3851" r="0.0050"/><circle cx="-0.2235" cy="0.0198" r="0.0050"/><circle cx="-0.2222" cy="-0.4661" r="0.0050"/><circle cx="-0.2209" cy="-0.3042" r="0.0050"/><circle cx="-0.2195" cy="0.1007" r="0.0050"/><circle cx="-0.2182" cy="0.1007" r="0.0050"/><circle cx="-0.2169" cy="0.2627" r="0.0050"/><circle cx="-0.2155" cy="-0.3851" r="0.0050"/><circle cx="-0.2142" cy="-0.3042" r="0.0050"/><circle cx="-0.2129" cy="-0.3851" r="0.0050"/><circle cx="-0.2115" cy="0.0198" r="0.0050"/><circle cx="-0.2102" cy="-0.0612" r="0.0050"/><circle cx="-0.2089" cy="0.1007" r="0.0050"/><circle cx="-0.2076" cy="-0.2232" r="0.0050"/><circle cx="-0.2062" cy="-0.2232" r="0.0050"/><circle cx="-0.2049" cy="0.1817" r="0.0050"/><circle cx="-0.2036" cy="-0.3042" r="0.0050"/><circle cx="-0.2022" cy="0.1817" r="0.0050"/><circle cx="-0.2009" cy="-0.3851" r="0.0050"/><circle cx="-0.1996" cy="-0.3851" r="0.0050"/><circle cx="-0.1982" cy="-0.2232" r="0.0050"/><circle cx="-0.1969" cy="-0.1422" r="0.0050"/><circle cx="-0.1956" cy="-0.3851" r="0.0050"/><circle cx="-0.1943" cy="0.1817" r="0.0050"/><circle cx="-0.1929" cy="-0.2232" r="0.0050"/><circle cx="-0.1916" cy="0.1007" r="0.0050"/><circle cx="-0.1903" cy="-0.3042" r="0.0050"/><circle cx="-0.1889" cy="0.1007" r="0.0050"/><circle cx="-0.1876" cy="-0.3851" r="0.0050"/><circle cx="-0.1863" cy="-0.3042" r="0.0050"/><circle cx="-0.1849" cy="0.0198" r="0.0050"/><circle cx="-0.1836" cy="-0.0612" r="0.0050"/><circle cx="-0.1823" cy="-0.2232" r="0.0050"/><circle cx="-0.1810" cy="-0.0612" r="0.0050"/><circle cx="-0.1796" cy="-0.2232" r="0.0050"/><circle cx="-0.1783" cy="0.1817" r="0.0050"/><circle cx="-0.1770" cy="0.1007" r="0.0050"/><circle cx="-0.1756" cy="-0.2232" r="0.0050"/><circle cx="-0.1743" cy="0.1007" r="0.0050"/><circle cx="-0.1730" cy="-0.3851" r="0.0050"/><circle cx="-0.1716" cy="0.0198" r="0.0050"/><circle cx="-0.1703" cy="-0.2232" r="0.0050"/><circle cx="-0.1690" cy="-0.2232" r="0.0050"/><circle cx="-0.1677" cy="-0.1422" r="0.0050"/><circle cx="-0.1663" cy="-0.2232" r="0.0050"/><circle cx="-0.1650" cy="-0.2232" r="0.0050"/><circle cx="-0.1637" cy="-0.0612" r="0.0050"/><circle cx="-0.1623" cy="-0.1422" r="0.0050"/><circle cx="-0.1610" cy="0.1817" r="0.0050"/><circle cx="-0.1597" cy="-0.3851" r="0.0050"/><circle cx="-0.1583" cy="0.0198" r="0.0050"/><circle cx="-0.1570" cy="0.0198" r="0.0050"/><circle cx="-0.1557" cy="-0.0612" r="0.0050"/><circle cx="-0.1544" cy="-0.0612" r="0.0050"/><circle cx="-0.1530" cy="0.1007" r="0.0050"/><circle cx="-0.1517" cy="-0.1422" r="0.0050"/><circle cx="-0.1504" cy="-0.1422" r="0.0050"/><circle cx="-0.1490" cy="-0.3042" r="0.0050"/><circle cx="-0.1477" cy="-0.1422" r="0.0050"/><circle cx="-0.1464" cy="-0.3042" r="0.0050"/><circle cx="-0.1450" cy="-0.0612" r="0.0050"/><circle cx="-0.1437" cy="-0.2232" r="0.0050"/><circle cx="-0.1424" cy="0.0198" r="0.0050"/><circle cx="-0.1411" cy="-0.3042" r="0.0050"/><circle cx="-0.1397" cy="-0.4661" r="0.0050"/><circle cx="-0.1384" cy="0.2627" r="0.0050"/><circle cx="-0.1371" cy="0.1817" r="0.0050"/><circle cx="-0.1357" cy="0.2627" r="0.0050"/><circle cx="-0.1344" cy="-0.4661" r="0.0050"/><circle cx="-0.1331" cy="0.1817" r="0.0050"/><circle cx="-0.1317" cy="0.0198" r="0.0050"/><circle cx="-0.1304" cy="-0.3851" r="0.0050"/><circle cx="-0.1291" cy="-0.1422" r="0.0050"/><circle cx="-0.1278" cy="0.1007" r="0.0050"/><circle cx="-0.1264" cy="0.1817" r="0.0050"/><circle cx="-0.1251" cy="0.1817" r="0.0050"/><circle cx="-0.1238" cy="0.1817" r="0.0050"/><circle cx="-0.1224" cy="-0.3042" r="0.0050"/><circle cx="-0.1211" cy="0.2627" r="0.0050"/><circle cx="-0.1198" cy="-0.1422" r="0.0050"/><circle cx="-0.1184" cy="-0.4661" r="0.0050"/><circle cx="-0.1171" cy="-0.4661" r="0.0050"/><circle cx="-0.1158" cy="0.1007" r="0.0050"/><circle cx="-0.1145" cy="-0.3042" r="0.0050"/><circle cx="-0.1131" cy="-0.2232" r="0.0050"/><circle cx="-0.1118" cy="0.1817" r="0.0050"/><circle cx="-0.1105" cy="-0.4661" r="0.0050"/><circle cx="-0.1091" cy="0.1817" r="0.0050"/><circle cx="-0.1078" cy="-0.4661" r="0.0050"/><circle cx="-0.1065" cy="-0.2232" r="0.0050"/><circle cx="-0.1051" cy="-0.3042" r="0.0050"/><circle cx="-0.1038" cy="-0.4661" r="0.0050"/><circle cx="-0.1025" cy="0.1007" r="0.0050"/><circle cx="-0.1012" cy="0.1007" r="0.0050"/><circle cx="-0.0998" cy="0.0198" r="0.0050"/><circle cx="-0.0985" cy="-0.0612" r="0.0050"/><circle cx="-0.0972" cy="0.1817" r="0.0050"/><circle cx="-0.0958" cy="-0.1422" r="0.0050"/><circle cx="-0.0945" cy="0.0198" r="0.0050"/><circle cx="-0.0932" cy="-0.2232" r="0.0050"/><circle cx="-0.0918" cy="-0.1422" r="0.0050"/><circle cx="-0.0905" cy="0.2627" r="0.0050"/><circle cx="-0.0892" cy="0.0198" r="0.0050"/><circle cx="-0.0879" cy="0.2627" r="0.0050"/><circle cx="-0.0865" cy="-0.3851" r="0.0050"/><circle cx="-0.0852" cy="0.1817" r="0.0050"/><circle cx="-0.0839" cy="-0.3851" r="0.0050"/><circle cx="-0.0825" cy="-0.4661" r="0.0050"/><circle cx="-0.0812" cy="-0.4661" r="0.0050"/><circle cx="-0.0799" cy="-0.4661" r="0.0050"/><circle cx="-0.0785" cy="0.0198" r="0.0050"/><circle cx="-0.0772" cy="-0.3042" r="0.0050"/><circle cx="-0.0759" cy="-0.0612" r="0.0050"/><circle cx="-0.0746" cy="-0.2232" r="0.0050"/><circle cx="-0.0732" cy="0.1817" r="0.0050"/><circle cx="-0.0719" cy="-0.3851" r="0.0050"/><circle cx="-0.0706" cy="-0.3042" r="0.0050"/><circle cx="-0.0692" cy="0.1007" r="0.0050"/><circle cx="-0.0679" cy="0.1817" r="0.0050"/><circle cx="-0.0666" cy="-0.1422" r="0.0050"/><circle cx="-0.0652" cy="0.1007" r="0.0050"/><circle cx="-0.0639" cy="-0.2232" r="0.0050"/><circle cx="-0.0626" cy="-0.4661" r="0.0050"/><circle cx="-0.0613" cy="0.0198" r="0.0050"/><circle cx="-0.0599" cy="-0.0612" r="0.0050"/><circle cx="-0.0586" cy="0.1007" r="0.0050"/><circle cx="-0.0573" cy="-0.3042" r="0.0050"/><circle cx="-0.0559" cy="-0.0612" r="0.0050"/><circle cx="-0.0546" cy="-0.0612" r="0.0050"/><circle cx="-0.0533" cy="-0.3042" r="0.0050"/><circle cx="-0.0519" cy="0.0198" r="0.0050"/><circle cx="-0.0506" cy="-0.0612" r="0.0050"/><circle cx="-0.0493" cy="0.1817" r="0.0050"/><circle cx="-0.0480" cy="0.0198" r="0.0050"/><circle cx="-0.0466" cy="0.0198" r="0.0050"/><circle cx="-0.0453" cy="0.1007" r="0.0050"/><circle cx="-0.0440" cy="-0.3851" r="0.0050"/><circle cx="-0.0426" cy="-0.0612" r="0.0050"/><circle cx="-0.0413" cy="-0.2232" r="0.0050"/><circle cx="-0.0400" cy="0.1007" r="0.0050"/><circle cx="-0.0386" cy="0.1007" r="0.0050"/><circle cx="-0.0373" cy="0.0198" r="0.0050"/><circle cx="-0.0360" cy="-0.0612" r="0.0050"/><circle cx="-0.0347" cy="-0.1422" r="0.0050"/><circle cx="-0.0333" cy="-0.3042" r="0.0050"/><circle cx="-0.0320" cy="0.0198" r="0.0050"/><circle cx="-0.0307" cy="-0.0612" r="0.0050"/><circle cx="-0.0293" cy="-0.2232" r="0.0050"/><circle cx="-0.0280" cy="0.2627" r="0.0050"/><circle cx="-0.0267" cy="-0.3042" r="0.0050"/><circle cx="-0.0253" cy="-0.2232" r="0.0050"/><circle cx="-0.0240" cy="-0.3851" r="0.0050"/><circle cx="-0.0227" cy="-0.2232" r="0.0050"/><circle cx="-0.0214" cy="0.1817" r="0.0050"/><circle cx="-0.0200" cy="-0.0612" r="0.0050"/><circle cx="-0.0187" cy="-0.1422" r="0.0050"/><circle cx="-0.0174" cy="0.1007" r="0.0050"/><circle cx="-0.0160" cy="0.1817" r="0.0050"/><circle cx="-0.0147" cy="-0.3042" r="0.0050"/><circle cx="-0.0134" cy="-0.3851" r="0.0050"/><circle cx="-0.0120" cy="-0.0612" r="0.0050"/><circle cx="-0.0107" cy="0.0198" r="0.0050"/><circle cx="-0.0094" cy="-0.1422" r="0.0050"/><circle cx="-0.0081" cy="0.0198" r="0.0050"/><circle cx="-0.0067" cy="0.2627" r="0.0050"/><circle cx="-0.0054" cy="-0.3042" r="0.0050"/><circle cx="-0.0041" cy="0.2627" r="0.0050"/><circle cx="-0.0027" cy="-0.4661" r="0.0050"/><circle cx="-0.0014" cy="-0.3851" r="0.0050"/><circle cx="-0.0001" cy="-0.0612" r="0.0050"/><circle cx="0.0013" cy="-0.3042" r="0.0050"/><circle cx="0.0026" cy="-0.1422" r="0.0050"/><circle cx="0.0039" cy="-0.3042" r="0.0050"/><circle cx="0.0052" cy="0.0198" r="0.0050"/><circle cx="0.0066" cy="0.0198" r="0.0050"/><circle cx="0.0079" cy="-0.0612" r="0.0050"/><circle cx="0.0092" cy="-0.2232" r="0.0050"/><circle cx="0.0106" cy="0.0198" r="0.0050"/><circle cx="0.0119" cy="0.0198" r="0.0050"/><circle cx="0.0132" cy="0.1007" r="0.0050"/><circle cx="0.0146" cy="0.0198" r="0.0050"/><circle cx="0.0159" cy="0.1817" r="0.0050"/><circle cx="0.0172" cy="-0.0612" r="0.0050"/><circle cx="0.0185" cy="-0.3851" r="0.0050"/><circle cx="0.0199" cy="0.2627" r="0.0050"/><circle cx="0.0212" cy="0.1007" r="0.0050"/><circle cx="0.0225" cy="-0.4661" r="0.0050"/><circle cx="0.0239" cy="0.1817" r="0.0050"/><circle cx="0.0252" cy="0.2627" r="0.0050"/><circle cx="0.0265" cy="0.2627" r="0.0050"/><circle cx="0.0279" cy="-0.4661" r="0.0050"/><circle cx="0.0292" cy="0.1007" r="0.0050"/><circle cx="0.0305" cy="-0.3851" r="0.0050"/><circle cx="0.0318" cy="-0.2232" r="0.0050"/><circle cx="0.0332" cy="-0.3042" r="0.0050"/><circle cx="0.0345" cy="-0.0612" r="0.0050"/><circle cx="0.0358" cy="-0.2232" r="0.0050"/><circle cx="0.0372" cy="0.0198" r="0.0050"/><circle cx="0.0385" cy="-0.1422" r="0.0050"/><circle cx="0.0398" cy="0.2627" r="0.0050"/><circle cx="0.0412" cy="-0.0612" r="0.0050"/><circle cx="0.0425" cy="-0.3042" r="0.0050"/><circle cx="0.0438" cy="0.1817" r="0.0050"/><circle cx="0.0451" cy="0.1007" r="0.0050"/><circle cx="0.0465" cy="-0.2232" r="0.0050"/><circle cx="0.0478" cy="-0.4661" r="0.0050"/><circle cx="0.0491" cy="0.0198" r="0.0050"/><circle cx="0.0505" cy="0.0198" r="0.0050"/><circle cx="0.0518" cy="-0.1422" r="0.0050"/><circle cx="0.0531" cy="-0.3851" r="0.0050"/><circle cx="0.0545" cy="-0.3851" r="0.0050"/><circle cx="0.0558" cy="0.0198" r="0.0050"/><circle cx="0.0571" cy="-0.0612" r="0.0050"/><circle cx="0.0584" cy="-0.2232" r="0.0050"/><circle cx="0.0598" cy="-0.3042" r="0.0050"/><circle cx="0.0611" cy="-0.0612" r="0.0050"/><circle cx="0.0624" cy="-0.1422" r="0.0050"/><circle cx="0.0638" cy="0.1007" r="0.0050"/><circle cx="0.0651" cy="-0.3851" r="0.0050"/><circle cx="0.0664" cy="-0.1422" r="0.0050"/><circle cx="0.0678" cy="0.1817" r="0.0050"/><circle cx="0.0691" cy="0.1817" r="0.0050"/><circle cx="0.0704" cy="-0.3042" r="0.0050"/><circle cx="0.0717" cy="0.1817" r="0.0050"/><circle cx="0.0731" cy="-0.3851" r="0.0050"/><circle cx="0.0744" cy="-0.1422" r="0.0050"/><circle cx="0.0757" cy="-0.0612" r="0.0050"/><circle cx="0.0771" cy="0.0198" r="0.0050"/><circle cx="0.0784" cy="-0.2232" r="0.0050"/><circle cx="0.0797" cy="0.1817" r="0.0050"/><circle cx="0.0811" cy="-0.1422" r="0.0050"/><circle cx="0.0824" cy="0.1817" r="0.0050"/><circle cx="0.0837" cy="-0.0612" r="0.0050"/><circle cx="0.0850" cy="-0.3042" r="0.0050"/><circle cx="0.0864" cy="-0.3042" r="0.0050"/><circle cx="0.0877" cy="0.2627" r="0.0050"/><circle cx="0.0890" cy="0.1817" r="0.0050"/><circle cx="0.0904" cy="0.2627" r="0.0050"/><circle cx="0.0917" cy="-0.3851" r="0.0050"/><circle cx="0.0930" cy="-0.4661" r="0.0050"/><circle cx="0.0944" cy="0.0198" r="0.0050"/><circle cx="0.0957" cy="0.1817" r="0.0050"/><circle cx="0.0970" cy="0.0198" r="0.0050"/><circle cx="0.0983" cy="-0.3851" r="0.0050"/><circle cx="0.0997" cy="0.0198" r="0.0050"/><circle cx="0.1010" cy="-0.3042" r="0.0050"/><circle cx="0.1023" cy="0.0198" r="0.0050"/><circle cx="0.1037" cy="-0.1422" r="0.0050"/><circle cx="0.1050" cy="-0.0612" r="0.0050"/><circle cx="0.1063" cy="-0.0612" r="0.0050"/><circle cx="0.1077" cy="-0.0612" r="0.0050"/><circle cx="0.1090" cy="-0.1422" r="0.0050"/><circle cx="0.1103" cy="0.1007" r="0.0050"/><circle cx="0.1116" cy="-0.3042" r="0.0050"/><circle cx="0.1130" cy="0.0198" r="0.0050"/><circle cx="0.1143" cy="-0.0612" r="0.0050"/><circle cx="0.1156" cy="0.0198" r="0.0050"/><circle cx="0.1170" cy="-0.2232" r="0.0050"/><circle cx="0.1183" cy="-0.1422" r="0.0050"/><circle cx="0.1196" cy="-0.1422" r="0.0050"/><circle cx="0.1210" cy="0.0198" r="0.0050"/><circle cx="0.1223" cy="0.1817" r="0.0050"/><circle cx="0.1236" cy="-0.0612" r="0.0050"/><circle cx="0.1249" cy="0.2627" r="0.0050"/><circle cx="0.1263" cy="-0.4661" r="0.0050"/><circle cx="0.1276" cy="-0.2232" r="0.0050"/><circle cx="0.1289" cy="0.0198" r="0.0050"/><circle cx="0.1303" cy="-0.3042" r="0.0050"/><circle cx="0.1316" cy="-0.2232" r="0.0050"/><circle cx="0.1329" cy="-0.1422" r="0.0050"/><circle cx="0.1343" cy="-0.0612" r="0.0050"/><circle cx="0.1356" cy="-0.1422" r="0.0050"/><circle cx="0.1369" cy="-0.2232" r="0.0050"/><circle cx="0.1382" cy="-0.3042" r="0.0050"/><circle cx="0.1396" cy="0.1007" r="0.0050"/><circle cx="0.1409" cy="-0.2232" r="0.0050"/><circle cx="0.1422" cy="0.1817" r="0.0050"/><circle cx="0.1436" cy="-0.3851" r="0.0050"/><circle cx="0.1449" cy="-0.2232" r="0.0050"/><circle cx="0.1462" cy="0.1007" r="0.0050"/><circle cx="0.1476" cy="-0.0612" r="0.0050"/><circle cx="0.1489" cy="0.1007" r="0.0050"/><circle cx="0.1502" cy="0.1817" r="0.0050"/><circle cx="0.1515" cy="0.2627" r="0.0050"/><circle cx="0.1529" cy="-0.4661" r="0.0050"/><circle cx="0.1542" cy="-0.3042" r="0.0050"/><circle cx="0.1555" cy="-0.1422" r="0.0050"/><circle cx="0.1569" cy="-0.3851" r="0.0050"/><circle cx="0.1582" cy="-0.1422" r="0.0050"/><circle cx="0.1595" cy="0.1007" r="0.0050"/><circle cx="0.1609" cy="-0.0612" r="0.0050"/><circle cx="0.1622" cy="-0.2232" r="0.0050"/><circle cx="0.1635" cy="0.1817" r="0.0050"/><circle cx="0.1648" cy="0.0198" r="0.0050"/><circle cx="0.1662" cy="-0.3851" r="0.0050"/><circle cx="0.1675" cy="0.1007" r="0.0050"/><circle cx="0.1688" cy="-0.3042" r="0.0050"/><circle cx="0.1702" cy="-0.1422" r="0.0050"/><circle cx="0.1715" cy="0.0198" r="0.0050"/><circle cx="0.1728" cy="-0.0612" r="0.0050"/><circle cx="0.1742" cy="-0.1422" r="0.0050"/><circle cx="0.1755" cy="-0.2232" r="0.0050"/><circle cx="0.1768" cy="-0.1422" r="0.0050"/><circle cx="0.1781" cy="-0.1422" r="0.0050"/><circle cx="0.1795" cy="0.1817" r="0.0050"/><circle cx="0.1808" cy="0.2627" r="0.0050"/><circle cx="0.1821" cy="-0.0612" r="0.0050"/><circle cx="0.1835" cy="-0.3851" r="0.0050"/><circle cx="0.1848" cy="-0.3851" r="0.0050"/><circle cx="0.1861" cy="-0.1422" r="0.0050"/><circle cx="0.1875" cy="-0.1422" r="0.0050"/><circle cx="0.1888" cy="0.1817" r="0.0050"/><circle cx="0.1901" cy="-0.3851" r="0.0050"/><circle cx="0.1914" cy="-0.2232" r="0.0050"/><circle cx="0.1928" cy="0.0198" r="0.0050"/><circle cx="0.1941" cy="-0.0612" r="0.0050"/><circle cx="0.1954" cy="-0.2232" r="0.0050"/><circle cx="0.1968" cy="0.0198" r="0.0050"/><circle cx="0.1981" cy="0.1007" r="0.0050"/><circle cx="0.1994" cy="0.0198" r="0.0050"/><circle cx="0.2008" cy="0.1817" r="0.0050"/><circle cx="0.2021" cy="0.1817" r="0.0050"/><circle cx="0.2034" cy="-0.1422" r="0.0050"/><circle cx="0.2047" cy="0.1817" r="0.0050"/><circle cx="0.2061" cy="-0.3851" r="0.0050"/><circle cx="0.2074" cy="0.0198" r="0.0050"/><circle cx="0.2087" cy="0.2627" r="0.0050"/><circle cx="0.2101" cy="0.2627" r="0.0050"/><circle cx="0.2114" cy="0.0198" r="0.0050"/><circle cx="0.2127" cy="-0.3851" r="0.0050"/><circle cx="0.2141" cy="-0.4661" r="0.0050"/><circle cx="0.2154" cy="-0.1422" r="0.0050"/><circle cx="0.2167" cy="0.1007" r="0.0050"/><circle cx="0.2180" cy="0.2627" r="0.0050"/><circle cx="0.2194" cy="-0.1422" r="0.0050"/><circle cx="0.2207" cy="0.2627" r="0.0050"/><circle cx="0.2220" cy="-0.4661" r="0.0050"/><circle cx="0.2234" cy="0.2627" r="0.0050"/><circle cx="0.2247" cy="-0.3851" r="0.0050"/><circle cx="0.2260" cy="-0.3042" r="0.0050"/><circle cx="0.2274" cy="-0.3851" r="0.0050"/><circle cx="0.2287" cy="0.0198" r="0.0050"/><circle cx="0.2300" cy="0.1817" r="0.0050"/><circle cx="0.2313" cy="0.1007" r="0.0050"/><circle cx="0.2327" cy="-0.2232" r="0.0050"/><circle cx="0.2340" cy="-0.4661" r="0.0050"/><circle cx="0.2353" cy="-0.3042" r="0.0050"/><circle cx="0.2367" cy="-0.2232" r="0.0050"/><circle cx="0.2380" cy="-0.3042" r="0.0050"/><circle cx="0.2393" cy="-0.2232" r="0.0050"/><circle cx="0.2407" cy="-0.2232" r="0.0050"/><circle cx="0.2420" cy="0.0198" r="0.0050"/><circle cx="0.2433" cy="-0.3042" r="0.0050"/><circle cx="0.2446" cy="-0.1422" r="0.0050"/><circle cx="0.2460" cy="0.1817" r="0.0050"/><circle cx="0.2473" cy="-0.3851" r="0.0050"/><circle cx="0.2486" cy="-0.1422" r="0.0050"/><circle cx="0.2500" cy="-0.1422" r="0.0050"/><circle cx="0.2513" cy="-0.2232" r="0.0050"/><circle cx="0.2526" cy="-0.3042" r="0.0050"/><circle cx="0.2540" cy="-0.2232" r="0.0050"/><circle cx="0.2553" cy="-0.2232" r="0.0050"/><circle cx="0.2566" cy="-0.0612" r="0.0050"/><circle cx="0.2579" cy="0.1007" r="0.0050"/><circle cx="0.2593" cy="0.1817" r="0.0050"/><circle cx="0.2606" cy="-0.0612" r="0.0050"/><circle cx="0.2619" cy="-0.3042" r="0.0050"/><circle cx="0.2633" cy="-0.0612" r="0.0050"/><circle cx="0.2646" cy="-0.2232" r="0.0050"/><circle cx="0.2659" cy="0.1007" r="0.0050"/><circle cx="0.2673" cy="-0.2232" r="0.0050"/><circle cx="0.2686" cy="0.0198" r="0.0050"/><circle cx="0.2699" cy="0.1007" r="0.0050"/><circle cx="0.2712" cy="-0.1422" r="0.0050"/><circle cx="0.2726" cy="-0.1422" r="0.0050"/><circle cx="0.2739" cy="0.2627" r="0.0050"/><circle cx="0.2752" cy="-0.4661" r="0.0050"/><circle cx="0.2766" cy="0.2627" r="0.0050"/><circle cx="0.2779" cy="0.2627" r="0.0050"/><circle cx="0.2792" cy="-0.4661" r="0.0050"/><circle cx="0.2806" cy="0.1817" r="0.0050"/><circle cx="0.2819" cy="-0.4661" r="0.0050"/><circle cx="0.2832" cy="-0.4661" r="0.0050"/><circle cx="0.2845" cy="-0.2232" r="0.0050"/><circle cx="0.2859" cy="0.1817" r="0.0050"/><circle cx="0.2872" cy="-0.3851" r="0.0050"/><circle cx="0.2885" cy="0.2627" r="0.0050"/><circle cx="0.2899" cy="0.1817" r="0.0050"/><circle cx="0.2912" cy="-0.4661" r="0.0050"/><circle cx="0.2925" cy="0.1817" r="0.0050"/><circle cx="0.2939" cy="0.2627" r="0.0050"/><circle cx="0.2952" cy="0.2627" r="0.0050"/><circle cx="0.2965" cy="-0.4661" r="0.0050"/><circle cx="0.2978" cy="-0.3851" r="0.0050"/><circle cx="0.2992" cy="-0.3042" r="0.0050"/><circle cx="0.3005" cy="-0.4661" r="0.0050"/><circle cx="0.3018" cy="0.0198" r="0.0050"/><circle cx="0.3032" cy="-0.0612" r="0.0050"/><circle cx="0.3045" cy="0.1007" r="0.0050"/><circle cx="0.3058" cy="0.1007" r="0.0050"/><circle cx="0.3072" cy="-0.3042" r="0.0050"/><circle cx="0.3085" cy="-0.0612" r="0.0050"/><circle cx="0.3098" cy="0.2627" r="0.0050"/><circle cx="0.3111" cy="0.0198" r="0.0050"/><circle cx="0.3125" cy="0.1007" r="0.0050"/><circle cx="0.3138" cy="0.0198" r="0.0050"/><circle cx="0.3151" cy="-0.3851" r="0.0050"/><circle cx="0.3165" cy="-0.2232" r="0.0050"/><circle cx="0.3178" cy="0.2627" r="0.0050"/><circle cx="0.3191" cy="-0.0612" r="0.0050"/><circle cx="0.3205" cy="0.2627" r="0.0050"/><circle cx="0.3218" cy="0.1817" r="0.0050"/><circle cx="0.3231" cy="0.1817" r="0.0050"/><circle cx="0.3244" cy="0.2627" r="0.0050"/><circle cx="0.3258" cy="-0.2232" r="0.0050"/><circle cx="0.3271" cy="0.2627" r="0.0050"/><circle cx="0.3284" cy="0.0198" r="0.0050"/><circle cx="0.3298" cy="0.1007" r="0.0050"/><circle cx="0.3311" cy="-0.4661" r="0.0050"/><circle cx="0.3324" cy="-0.4661" r="0.0050"/><circle cx="0.3338" cy="-0.3042" r="0.0050"/><circle cx="0.3351" cy="-0.3851" r="0.0050"/><circle cx="0.3364" cy="0.2627" r="0.0050"/><circle cx="0.3377" cy="-0.3042" r="0.0050"/><circle cx="0.3391" cy="0.1007" r="0.0050"/><circle cx="0.3404" cy="-0.3851" r="0.0050"/><circle cx="0.3417" cy="-0.4661" r="0.0050"/><circle cx="0.3431" cy="0.2627" r="0.0050"/><circle cx="0.3444" cy="0.2627" r="0.0050"/><circle cx="0.3457" cy="0.1007" r="0.0050"/><circle cx="0.3471" cy="-0.4661" r="0.0050"/><circle cx="0.3484" cy="-0.0612" r="0.0050"/><circle cx="0.3497" cy="0.2627" r="0.0050"/><circle cx="0.3510" cy="0.1007" r="0.0050"/><circle cx="0.3524" cy="0.1817" r="0.0050"/><circle cx="0.3537" cy="0.2627" r="0.0050"/><circle cx="0.3550" cy="-0.4661" r="0.0050"/><circle cx="0.3564" cy="-0.4661" r="0.0050"/><circle cx="0.3577" cy="0.0198" r="0.0050"/><circle cx="0.3590" cy="0.1817" r="0.0050"/><circle cx="0.3604" cy="-0.4661" r="0.0050"/><circle cx="0.3617" cy="0.1007" r="0.0050"/><circle cx="0.3630" cy="0.1007" r="0.0050"/><circle cx="0.3643" cy="0.2627" r="0.0050"/><circle cx="0.3657" cy="0.1007" r="0.0050"/><circle cx="0.3670" cy="-0.4661" r="0.0050"/><circle cx="0.3683" cy="0.0198" r="0.0050"/><circle cx="0.3697" cy="0.1817" r="0.0050"/><circle cx="0.3710" cy="0.1007" r="0.0050"/><circle cx="0.3723" cy="-0.4661" r="0.0050"/><circle cx="0.3737" cy="-0.4661" r="0.0050"/><circle cx="0.3750" cy="-0.3851" r="0.0050"/><circle cx="0.3763" cy="-0.3851" r="0.0050"/><circle cx="0.3776" cy="-0.0612" r="0.0050"/><circle cx="0.3790" cy="-0.3851" r="0.0050"/><circle cx="0.3803" cy="0.1817" r="0.0050"/><circle cx="0.3816" cy="-0.3851" r="0.0050"/><circle cx="0.3830" cy="-0.2232" r="0.0050"/><circle cx="0.3843" cy="-0.3042" r="0.0050"/><circle cx="0.3856" cy="-0.3851" r="0.0050"/><circle cx="0.3870" cy="0.1007" r="0.0050"/><circle cx="0.3883" cy="0.2627" r="0.0050"/><circle cx="0.3896" cy="-0.2232" r="0.0050"/><circle cx="0.3909" cy="-0.3042" r="0.0050"/><circle cx="0.3923" cy="0.1817" r="0.0050"/><circle cx="0.3936" cy="0.1817" r="0.0050"/><circle cx="0.3949" cy="-0.2232" r="0.0050"/><circle cx="0.3963" cy="0.0198" r="0.0050"/><circle cx="0.3976" cy="0.2627" r="0.0050"/><circle cx="0.3989" cy="0.0198" r="0.0050"/><circle cx="0.4003" cy="-0.3851" r="0.0050"/><circle cx="0.4016" cy="0.1817" r="0.0050"/><circle cx="0.4029" cy="-0.0612" r="0.0050"/><circle cx="0.4042" cy="-0.4661" r="0.0050"/><circle cx="0.4056" cy="-0.0612" r="0.0050"/><circle cx="0.4069" cy="0.1817" r="0.0050"/><circle cx="0.4082" cy="0.2627" r="0.0050"/><circle cx="0.4096" cy="-0.3042" r="0.0050"/><circle cx="0.4109" cy="0.2627" r="0.0050"/><circle cx="0.4122" cy="-0.1422" r="0.0050"/><circle cx="0.4136" cy="-0.4661" r="0.0050"/><circle cx="0.4149" cy="0.2627" r="0.0050"/><circle cx="0.4162" cy="-0.3042" r="0.0050"/><circle cx="0.4175" cy="-0.2232" r="0.0050"/><circle cx="0.4189" cy="-0.4661" r="0.0050"/><circle cx="0.4202" cy="0.2627" r="0.0050"/><circle cx="0.4215" cy="0.0198" r="0.0050"/><circle cx="0.4229" cy="0.2627" r="0.0050"/><circle cx="0.4242" cy="-0.1422" r="0.0050"/><circle cx="0.4255" cy="0.1817" r="0.0050"/><circle cx="0.4269" cy="-0.0612" r="0.0050"/><circle cx="0.4282" cy="-0.4661" r="0.0050"/><circle cx="0.4295" cy="0.0198" r="0.0050"/><circle cx="0.4308" cy="-0.4661" r="0.0050"/><circle cx="0.4322" cy="0.2627" r="0.0050"/><circle cx="0.4335" cy="0.0198" r="0.0050"/><circle cx="0.4348" cy="-0.1422" r="0.0050"/><circle cx="0.4362" cy="-0.4661" r="0.0050"/><circle cx="0.4375" cy="0.1007" r="0.0050"/><circle cx="0.4388" cy="-0.3042" r="0.0050"/><circle cx="0.4402" cy="-0.4661" r="0.0050"/><circle cx="0.4415" cy="-0.4661" r="0.0050"/><circle cx="0.4428" cy="0.1007" r="0.0050"/><circle cx="0.4441" cy="0.1007" r="0.0050"/><circle cx="0.4455" cy="-0.3851" r="0.0050"/><circle cx="0.4468" cy="0.1817" r="0.0050"/><circle cx="0.4481" cy="-0.2232" r="0.0050"/><circle cx="0.4495" cy="-0.3042" r="0.0050"/><circle cx="0.4508" cy="0.1817" r="0.0050"/><circle cx="0.4521" cy="0.2627" r="0.0050"/><circle cx="0.4535" cy="0.2627" r="0.0050"/><circle cx="0.4548" cy="0.2627" r="0.0050"/><circle cx="0.4561" cy="-0.0612" r="0.0050"/><circle cx="0.4574" cy="-0.3851" r="0.0050"/><circle cx="0.4588" cy="0.2627" r="0.0050"/><circle cx="0.4601" cy="-0.1422" r="0.0050"/><circle cx="0.4614" cy="-0.4661" r="0.0050"/><circle cx="0.4628" cy="-0.0612" r="0.0050"/><circle cx="0.4641" cy="-0.3042" r="0.0050"/><circle cx="0.4654" cy="-0.4661" r="0.0050"/><circle cx="0.4668" cy="-0.0612" r="0.0050"/><circle cx="0.4681" cy="0.1817" r="0.0050"/><circle cx="0.4694" cy="-0.1422" r="0.0050"/><circle cx="0.4707" cy="0.1007" r="0.0050"/><circle cx="0.4721" cy="-0.3042" r="0.0050"/><circle cx="0.4734" cy="-0.1422" r="0.0050"/><circle cx="0.4747" cy="-0.2232" r="0.0050"/><circle cx="0.4761" cy="-0.3851" r="0.0050"/><circle cx="0.4774" cy="-0.0612" r="0.0050"/><circle cx="0.4787" cy="0.1007" r="0.0050"/><circle cx="0.4801" cy="0.1007" r="0.0050"/><circle cx="0.4814" cy="0.0198" r="0.0050"/><circle cx="0.4827" cy="-0.0612" r="0.0050"/><circle cx="0.4840" cy="-0.4661" r="0.0050"/><circle cx="0.4854" cy="0.1007" r="0.0050"/><circle cx="0.4867" cy="-0.4661" r="0.0050"/><circle cx="0.4880" cy="-0.2232" r="0.0050"/><circle cx="0.4894" cy="-0.3042" r="0.0050"/><circle cx="0.4907" cy="0.1007" r="0.0050"/><circle cx="0.4920" cy="-0.1422" r="0.0050"/><circle cx="0.4934" cy="0.1817" r="0.0050"/><circle cx="0.4947" cy="-0.4661" r="0.0050"/><circle cx="0.4960" cy="-0.3042" r="0.0050"/><circle cx="0.4973" cy="-0.3851" r="0.0050"/><circle cx="0.4987" cy="-0.0612" r="0.0050"/><circle cx="0.5000" cy="0.0198" r="0.0050"/><circle cx="0.5013" cy="-0.3851" r="0.0050"/><circle cx="0.5027" cy="-0.0612" r="0.0050"/><circle cx="0.5040" cy="-0.0612" r="0.0050"/><circle cx="0.5053" cy="-0.0612" r="0.0050"/><circle cx="0.5067" cy="0.0198" r="0.0050"/><circle cx="0.5080" cy="-0.4661" r="0.0050"/><circle cx="0.5093" cy="-0.0612" r="0.0050"/><circle cx="0.5106" cy="-0.3851" r="0.0050"/><circle cx="0.5120" cy="-0.2232" r="0.0050"/><circle cx="0.5133" cy="-0.1422" r="0.0050"/><circle cx="0.5146" cy="0.1007" r="0.0050"/><circle cx="0.5160" cy="-0.1422" r="0.0050"/><circle cx="0.5173" cy="0.1817" r="0.0050"/><circle cx="0.5186" cy="0.2627" r="0.0050"/><circle cx="0.5200" cy="-0.0612" r="0.0050"/><circle cx="0.5213" cy="-0.2232" r="0.0050"/><circle cx="0.5226" cy="-0.3851" r="0.0050"/><circle cx="0.5239" cy="0.2627" r="0.0050"/><circle cx="0.5253" cy="0.1007" r="0.0050"/><circle cx="0.5266" cy="0.1817" r="0.0050"/><circle cx="0.5279" cy="0.1007" r="0.0050"/><circle cx="0.5293" cy="-0.2232" r="0.0050"/><circle cx="0.5306" cy="0.1817" r="0.0050"/><circle cx="0.5319" cy="0.0198" r="0.0050"/><circle cx="0.5333" cy="-0.3851" r="0.0050"/><circle cx="0.5346" cy="-0.3042" r="0.0050"/><circle cx="0.5359" cy="-0.3851" r="0.0050"/><circle cx="0.5372" cy="-0.3042" r="0.0050"/><circle cx="0.5386" cy="0.2627" r="0.0050"/><circle cx="0.5399" cy="-0.2232" r="0.0050"/><circle cx="0.5412" cy="0.1817" r="0.0050"/><circle cx="0.5426" cy="0.1007" r="0.0050"/><circle cx="0.5439" cy="-0.3042" r="0.0050"/><circle cx="0.5452" cy="0.1817" r="0.0050"/><circle cx="0.5466" cy="0.1817" r="0.0050"/><circle cx="0.5479" cy="0.1007" r="0.0050"/><circle cx="0.5492" cy="0.1817" r="0.0050"/><circle cx="0.5505" cy="0.1007" r="0.0050"/><circle cx="0.5519" cy="-0.0612" r="0.0050"/><circle cx="0.5532" cy="-0.4661" r="0.0050"/><circle cx="0.5545" cy="0.2627" r="0.0050"/><circle cx="0.5559" cy="0.1817" r="0.0050"/><circle cx="0.5572" cy="-0.4661" r="0.0050"/><circle cx="0.5585" cy="-0.4661" r="0.0050"/><circle cx="0.5599" cy="-0.0612" r="0.0050"/><circle cx="0.5612" cy="0.1007" r="0.0050"/><circle cx="0.5625" cy="0.2627" r="0.0050"/><circle cx="0.5638" cy="0.0198" r="0.0050"/><circle cx="0.5652" cy="0.0198" r="0.0050"/><circle cx="0.5665" cy="-0.0612" r="0.0050"/><circle cx="0.5678" cy="-0.4661" r="0.0050"/><circle cx="0.5692" cy="0.2627" r="0.0050"/><circle cx="0.5705" cy="-0.4661" r="0.0050"/><circle cx="0.5718" cy="-0.3042" r="0.0050"/><circle cx="0.5732" cy="0.0198" r="0.0050"/><circle cx="0.5745" cy="0.1007" r="0.0050"/><circle cx="0.5758" cy="-0.4661" r="0.0050"/><circle cx="0.5771" cy="-0.3042" r="0.0050"/><circle cx="0.5785" cy="-0.3851" r="0.0050"/><circle cx="0.5798" cy="0.0198" r="0.0050"/><circle cx="0.5811" cy="0.0198" r="0.0050"/><circle cx="0.5825" cy="-0.4661" r="0.0050"/><circle cx="0.5838" cy="0.1007" r="0.0050"/><circle cx="0.5851" cy="0.0198" r="0.0050"/><circle cx="0.5865" cy="0.2627" r="0.0050"/><circle cx="0.5878" cy="0.1007" r="0.0050"/><circle cx="0.5891" cy="-0.3042" r="0.0050"/><circle cx="0.5904" cy="-0.3042" r="0.0050"/><circle cx="0.5918" cy="-0.2232" r="0.0050"/><circle cx="0.5931" cy="0.2627" r="0.0050"/><circle cx="0.5944" cy="-0.4661" r="0.0050"/><circle cx="0.5958" cy="-0.3042" r="0.0050"/><circle cx="0.5971" cy="0.1007" r="0.0050"/><circle cx="0.5984" cy="-0.2232" r="0.0050"/><circle cx="0.5998" cy="0.1007" r="0.0050"/><circle cx="0.6011" cy="-0.0612" r="0.0050"/><circle cx="0.6024" cy="-0.2232" r="0.0050"/><circle cx="0.6037" cy="-0.0612" r="0.0050"/><circle cx="0.6051" cy="-0.3851" r="0.0050"/><circle cx="0.6064" cy="-0.2232" r="0.0050"/><circle cx="0.6077" cy="-0.1422" r="0.0050"/><circle cx="0.6091" cy="0.1817" r="0.0050"/><circle cx="0.6104" cy="-0.0612" r="0.0050"/><circle cx="0.6117" cy="-0.4661" r="0.0050"/><circle cx="0.6131" cy="-0.1422" r="0.0050"/><circle cx="0.6144" cy="-0.0612" r="0.0050"/><circle cx="0.6157" cy="0.2627" r="0.0050"/><circle cx="0.6170" cy="0.1817" r="0.0050"/><circle cx="0.6184" cy="-0.0612" r="0.0050"/><circle cx="0.6197" cy="-0.3042" r="0.0050"/><circle cx="0.6210" cy="0.0198" r="0.0050"/><circle cx="0.6224" cy="-0.3851" r="0.0050"/><circle cx="0.6237" cy="-0.2232" r="0.0050"/><circle cx="0.6250" cy="0.0198" r="0.0050"/><circle cx="0.6264" cy="0.2627" r="0.0050"/><circle cx="0.6277" cy="0.1817" r="0.0050"/><circle cx="0.6290" cy="0.1007" r="0.0050"/><circle cx="0.6303" cy="-0.1422" r="0.0050"/><circle cx="0.6317" cy="-0.3851" r="0.0050"/><circle cx="0.6330" cy="0.1817" r="0.0050"/><circle cx="0.6343" cy="-0.2232" r="0.0050"/><circle cx="0.6357" cy="-0.0612" r="0.0050"/><circle cx="0.6370" cy="0.1817" r="0.0050"/><circle cx="0.6383" cy="-0.3851" r="0.0050"/><circle cx="0.6397" cy="-0.0612" r="0.0050"/><circle cx="0.6410" cy="-0.0612" r="0.0050"/><circle cx="0.6423" cy="-0.3042" r="0.0050"/><circle cx="0.6436" cy="0.1817" r="0.0050"/><circle cx="0.6450" cy="-0.4661" r="0.0050"/><circle cx="0.6463" cy="-0.1422" r="0.0050"/><circle cx="0.6476" cy="-0.2232" r="0.0050"/><circle cx="0.6490" cy="-0.3042" r="0.0050"/><circle cx="0.6503" cy="-0.2232" r="0.0050"/><circle cx="0.6516" cy="-0.2232" r="0.0050"/><circle cx="0.6530" cy="-0.0612" r="0.0050"/><circle cx="0.6543" cy="0.1817" r="0.0050"/><circle cx="0.6556" cy="0.1007" r="0.0050"/><circle cx="0.6569" cy="-0.4661" r="0.0050"/><circle cx="0.6583" cy="-0.3042" r="0.0050"/><circle cx="0.6596" cy="-0.1422" r="0.0050"/><circle cx="0.6609" cy="-0.1422" r="0.0050"/><circle cx="0.6623" cy="-0.3042" r="0.0050"/><circle cx="0.6636" cy="-0.1422" r="0.0050"/><circle cx="0.6649" cy="0.1817" r="0.0050"/><circle cx="0.6663" cy="-0.3851" r="0.0050"/><circle cx="0.6676" cy="-0.3042" r="0.0050"/><circle cx="0.6689" cy="-0.3851" r="0.0050"/><circle cx="0.6702" cy="0.1007" r="0.0050"/><circle cx="0.6716" cy="0.0198" r="0.0050"/><circle cx="0.6729" cy="-0.3851" r="0.0050"/><circle cx="0.6742" cy="0.1817" r="0.0050"/><circle cx="0.6756" cy="0.1007" r="0.0050"/><circle cx="0.6769" cy="-0.1422" r="0.0050"/><circle cx="0.6782" cy="-0.3042" r="0.0050"/><circle cx="0.6796" cy="-0.1422" r="0.0050"/><circle cx="0.6809" cy="-0.2232" r="0.0050"/><circle cx="0.6822" cy="0.1817" r="0.0050"/><circle cx="0.6835" cy="-0.0612" r="0.0050"/><circle cx="0.6849" cy="0.2627" r="0.0050"/><circle cx="0.6862" cy="-0.0612" r="0.0050"/><circle cx="0.6875" cy="-0.2232" r="0.0050"/><circle cx="0.6889" cy="0.1007" r="0.0050"/><circle cx="0.6902" cy="-0.2232" r="0.0050"/><circle cx="0.6915" cy="0.0198" r="0.0050"/><circle cx="0.6929" cy="0.0198" r="0.0050"/><circle cx="0.6942" cy="-0.3042" r="0.0050"/><circle cx="0.6955" cy="-0.3851" r="0.0050"/><circle cx="0.6968" cy="-0.1422" r="0.0050"/><circle cx="0.6982" cy="0.1817" r="0.0050"/><circle cx="0.6995" cy="-0.1422" r="0.0050"/><circle cx="0.7008" cy="0.2627" r="0.0050"/><circle cx="0.7022" cy="0.1817" r="0.0050"/><circle cx="0.7035" cy="-0.0612" r="0.0050"/><circle cx="0.7048" cy="-0.4661" r="0.0050"/><circle cx="0.7062" cy="0.0198" r="0.0050"/><circle cx="0.7075" cy="-0.4661" r="0.0050"/><circle cx="0.7088" cy="0.1817" r="0.0050"/></g></g><g class="hud"><g class="frame"><g fill="rgb(100%, 100%, 100%)" fill-opacity="0.02" stroke="rgb(0%, 0%, 0%)" stroke-opacity="0" stroke-width="0"><rect height="0.7383" width="1.3402" x="-0.6256" y="-0.4708"/></g></g><g class="axis"><g class="ticks"><g class="tickglyph"><g fill="rgb(5%, 5%, 5%)" fill-opacity="0.4" stroke="rgb(5%, 5%, 5%)" stroke-opacity="0.4" stroke-width="0.0040"><polyline points="-0.5345,0.3043
-0.5345,0.2743"/><polyline points="-0.3656,0.3043
-0.3656,0.2743"/><polyline points="-0.1986,0.3043
-0.1986,0.2743"/><polyline points="-0.0297,0.3043
-0.0297,0.2743"/><polyline points="0.1365,0.3043
0.1365,0.2743"/><polyline points="0.3054,0.3043
0.3054,0.2743"/><polyline points="0.4715,0.3043
0.4715,0.2743"/><polyline points="0.6404,0.3043
0.6404,0.2743"/></g></g><g class="ticktext"><g fill="rgb(5%, 5%, 5%)" fill-opacity="1.0" font-size="0.0443" stroke="none" stroke-width="0.0" text-anchor="end"><text transform="rotate(-45.0, -0.5345, 0.3356)" x="-0.5345" y="0.3356">30 Jun 2019</text><text transform="rotate(-45.0, -0.3656, 0.3356)" x="-0.3656" y="0.3356">31 Dec 2019</text><text transform="rotate(-45.0, -0.1986, 0.3356)" x="-0.1986" y="0.3356">30 Jun 2020</text><text transform="rotate(-45.0, -0.0297, 0.3356)" x="-0.0297" y="0.3356">31 Dec 2020</text><text transform="rotate(-45.0, 0.1365, 0.3356)" x="0.1365" y="0.3356">30 Jun 2021</text><text transform="rotate(-45.0, 0.3054, 0.3356)" x="0.3054" y="0.3356">31 Dec 2021</text><text transform="rotate(-45.0, 0.4715, 0.3356)" x="0.4715" y="0.3356">30 Jun 2022</text><text transform="rotate(-45.0, 0.6404, 0.3356)" x="0.6404" y="0.3356">31 Dec 2022</text></g></g><g class="ticklines"><g fill="none" stroke="rgb(5%, 5%, 5%)" stroke-opacity="0.05" stroke-width="0.0050"><polyline points="-0.5345,0.2627 -0.5345,-0.4661"/><polyline points="-0.3656,0.2627 -0.3656,-0.4661"/><polyline points="-0.1986,0.2627 -0.1986,-0.4661"/><polyline points="-0.0297,0.2627 -0.0297,-0.4661"/><polyline points="0.1365,0.2627 0.1365,-0.4661"/><polyline points="0.3054,0.2627 0.3054,-0.4661"/><polyline points="0.4715,0.2627 0.4715,-0.4661"/><polyline points="0.6404,0.2627 0.6404,-0.4661"/></g></g></g><g class="axisbar"><g fill="rgb(5%, 5%, 5%)" fill-opacity="0.4" stroke="rgb(0%, 0%, 0%)" stroke-opacity="0" stroke-width="0"><rect height="0.0029" width="1.3322" x="-0.6216" y="0.2747"/></g></g></g><g class="frame"><g fill="rgb(100%, 100%, 100%)" fill-opacity="0.02" stroke="rgb(0%, 0%, 0%)" stroke-opacity="0" stroke-width="0"><rect height="1.0" width="1.5" x="-0.75" y="-0.5"/></g></g></g></svg>