<svg height="300" viewBox="-0.75 -0.4938 1.5000 0.9909" width="454" xmlns="http://www.w3.org/2000/svg" xmlns:xlink="http://www.w3.org/1999/xlink"><style>svg {
  color-scheme: light dark;
}
{
  .canvas g, .title g, .axisbar g, .ticktext g, .tickglyph g, .ticklines g, .legendContent g text {
    fill: rgb(5%, 5%, 5%);
  }
  .ticklines g, .tickglyph g, .legendBorder g {
    stroke: rgb(5%, 5%, 5%);
  }
  .legendBorder g {
    fill: rgb(94%, 94%, 94%);
  }
}
@media (prefers-color-scheme:dark) {
  .canvas g, .title g, .axisbar g, .ticktext g, .tickglyph g, .ticklines g, .legendContent g text {
    fill: rgb(94%, 94%, 94%);
  }
  .ticklines g, .tickglyph g, .legendBorder g {
    stroke: rgb(94%, 94%, 94%);
  }
  .legendBorder g {
    fill: rgb(5%, 5%, 5%);
  }
}</style><g class="chart"><g class="barchart"><g fill="rgb(2%, 29%, 48%)" fill-opacity="0.7" stroke="rgb(2%, 29%, 48%)" stroke-opacity="1.0" stroke-width="0.0050"><rect height="0.4180" width="0.0605" x="-0.7417" y="-0.0165"/><rect height="0.7698" width="0.0605" x="-0.6073" y="-0.3683"/><rect height="0.7982" width="0.0605" x="-0.4730" y="-0.3966"/><rect height="0.4770" width="0.0605" x="-0.3386" y="-0.0755"/><rect height="0.1017" width="0.0605" x="-0.2043" y="0.2999"/><rect height="0.0172" width="0.0605" x="-0.0699" y="0.3844"/><rect height="0.3012" width="0.0605" x="0.0644" y="0.1003"/><rect height="0.6927" width="0.0605" x="0.1987" y="-0.2912"/><rect height="0.8316" width="0.0605" x="0.3331" y="-0.4301"/></g><g fill="rgb(66%, 7%, 55%)" fill-opacity="0.7" stroke="rgb(66%, 7%, 55%)" stroke-opacity="1.0" stroke-width="0.0050"><rect height="0.8361" width="0.0605" x="-0.6812" y="-0.4346"/><rect height="0.6439" width="0.0605" x="-0.5469" y="-0.2424"/><rect height="0.2441" width="0.0605" x="-0.4125" y="0.1575"/><rect height="0.0042" width="0.0605" x="-0.2782" y="0.3973"/><rect height="0.1448" width="0.0605" x="-0.1438" y="0.2567"/><rect height="0.5366" width="0.0605" x="-0.0095" y="-0.1351"/><rect height="0.8194" width="0.0605" x="0.1249" y="-0.4179"/><rect height="0.7332" width="0.0605" x="0.2592" y="-0.3317"/><rect height="0.3572" width="0.0605" x="0.3935" y="0.0443"/></g><g fill="rgb(2%, 29%, 48%)" fill-opacity="1.0" font-size="0.0322" stroke="none" stroke-width="0.0" text-anchor="middle"><text x="-0.7114" y="-0.0500">1.0</text><text x="-0.5771" y="-0.4017">1.8</text><text x="-0.4428" y="-0.4301">1.9</text><text x="-0.3084" y="-0.1090">1.1</text><text x="-0.1741" y="0.2664">0.24</text><text x="-0.0397" y="0.3509">0.041</text><text x="0.0946" y="0.0668">0.72</text><text x="0.2290" y="-0.3246">1.7</text><text x="0.3633" y="-0.4636">2.0</text></g><g fill="rgb(66%, 7%, 55%)" fill-opacity="1.0" font-size="0.0322" stroke="none" stroke-width="0.0" text-anchor="middle"><text x="-0.6510" y="-0.4680">2.0</text><text x="-0.5166" y="-0.2758">1.5</text><text x="-0.3823" y="0.1240">0.58</text><text x="-0.2480" y="0.3639">0.010</text><text x="-0.1136" y="0.2233">0.35</text><text x="0.0207" y="-0.1685">1.3</text><text x="0.1551" y="-0.4513">2.0</text><text x="0.2894" y="-0.3651">1.8</text><text x="0.4238" y="0.0109">0.85</text></g></g></g><g class="hud"><g class="axis"><g class="ticks"><g class="tickglyph"><g fill="rgb(5%, 5%, 5%)" fill-opacity="0.4" stroke="rgb(5%, 5%, 5%)" stroke-opacity="0.4" stroke-width="0.0040"><polyline points="-0.6812,0.4448
-0.6812,0.4148"/><polyline points="-0.5469,0.4448
-0.5469,0.4148"/><polyline points="-0.4125,0.4448
-0.4125,0.4148"/><polyline points="-0.2782,0.4448
-0.2782,0.4148"/><polyline points="-0.1438,0.4448
-0.1438,0.4148"/><polyline points="-0.0095,0.4448
-0.0095,0.4148"/><polyline points="0.1249,0.4448
0.1249,0.4148"/><polyline points="0.2592,0.4448
0.2592,0.4148"/><polyline points="0.3935,0.4448
0.3935,0.4148"/></g></g><g class="ticktext"><g fill="rgb(5%, 5%, 5%)" fill-opacity="1.0" font-size="0.0403" stroke="none" stroke-width="0.0" text-anchor="middle"><text x="-0.6812" y="0.485">row 0</text><text x="-0.5469" y="0.485">row 1</text><text x="-0.4125" y="0.485">row 2</text><text x="-0.2782" y="0.485">row 3</text><text x="-0.1438" y="0.485">row 4</text><text x="-0.0095" y="0.485">row 5</text><text x="0.1249" y="0.485">row 6</text><text x="0.2592" y="0.485">row 7</text><text x="0.3935" y="0.485">row 8</text></g></g></g><g class="axisbar"><g fill="rgb(5%, 5%, 5%)" fill-opacity="0.4" stroke="rgb(0%, 0%, 0%)" stroke-opacity="0" stroke-width="0"><rect height="0.0035" width="1.2123" x="-0.75" y="0.4124"/></g></g></g><g class="legend"><g class="legendBorder"><g fill="rgb(5%, 5%, 5%)" fill-opacity="0" stroke="rgb(5%, 5%, 5%)" stroke-opacity="1.0" stroke-width="0.0025"><rect height="0.1978" width="0.2232" x="0.5228" y="-0.1418"/></g></g><g class="legendContent"><g fill="rgb(5%, 5%, 5%)" fill-opacity="1.0" font-size="0.0363" stroke="none" stroke-width="0.0" text-anchor="start"><text x="0.5429" y="0.0109">col 1</text></g><g fill="rgb(66%, 7%, 55%)" fill-opacity="0.7" stroke="rgb(66%, 7%, 55%)" stroke-opacity="1.0" stroke-width="0.0012"><rect height="0.0652" width="0.0605" x="0.6649" y="-0.0315"/></g><g fill="rgb(5%, 5%, 5%)" fill-opacity="1.0" font-size="0.0363" stroke="none" stroke-width="0.0" text-anchor="start"><text x="0.5429" y="-0.0771">col 0</text></g><g fill="rgb(2%, 29%, 48%)" fill-opacity="0.7" stroke="rgb(2%, 29%, 48%)" stroke-opacity="1.0" stroke-width="0.0012"><rect height="0.0652" width="0.0605" x="0.6649" y="-0.1195"/></g></g></g></g></svg>