<svg height="300" viewBox="-0.75 -0.5 1.5 1.0" width="450" xmlns="http://www.w3.org/2000/svg" xmlns:xlink="http://www.w3.org/1999/xlink"><style>svg {
  color-scheme: light dark;
}
{
  .canvas g, .title g, .axisbar g, .ticktext g, .tickglyph g, .ticklines g, .legendContent g text {
    fill: rgb(5%, 5%, 5%);
  }
  .ticklines g, .tickglyph g, .legendBorder g {
    stroke: rgb(5%, 5%, 5%);
  }
  .legendBorder g {
    fill: rgb(94%, 94%, 94%);
  }
}
@media (prefers-color-scheme:dark) {
  .canvas g, .title g, .axisbar g, .ticktext g, .tickglyph g, .ticklines g, .legendContent g text {
    fill: rgb(94%, 94%, 94%);
  }
  .ticklines g, .tickglyph g, .legendBorder g {
    stroke: rgb(94%, 94%, 94%);
  }
  .legendBorder g {
    fill: rgb(5%, 5%, 5%);
  }
}</style><g class="chart"><g fill="none" stroke="rgb(2%, 73%, 80%)" stroke-opacity="1.0" stroke-width="0.0200"><polyline points="-0.74,-0.0025 -0.7251,-0.0049 -0.7101,-0.0074 -0.6952,-0.0098 -0.6802,-0.0122 -0.6653,-0.0145 -0.6503,-0.0168 -0.6354,-0.0191 -0.6204,-0.0214 -0.6055,-0.0235 -0.5905,-0.0256 -0.5756,-0.0277 -0.5606,-0.0297 -0.5457,-0.0316 -0.5307,-0.0334 -0.5158,-0.0352 -0.5008,-0.0369 -0.4859,-0.0384 -0.4709,-0.0399 -0.4560,-0.0413 -0.4410,-0.0425 -0.4261,-0.0437 -0.4111,-0.0448 -0.3962,-0.0457 -0.3812,-0.0465 -0.3663,-0.0473 -0.3513,-0.0479 -0.3364,-0.0483 -0.3214,-0.0487 -0.3065,-0.0489 -0.2915,-0.0490 -0.2766,-0.0490 -0.2616,-0.0489 -0.2467,-0.0486 -0.2317,-0.0483 -0.2168,-0.0478 -0.2018,-0.0471 -0.1869,-0.0464 -0.1719,-0.0456 -0.1570,-0.0446 -0.1420,-0.0435 -0.1271,-0.0423 -0.1121,-0.0410 -0.0972,-0.0397 -0.0822,-0.0382 -0.0673,-0.0366 -0.0523,-0.0349 -0.0374,-0.0331 -0.0224,-0.0313 -0.0075,-0.0294 0.0075,-0.0274 0.0224,-0.0253 0.0374,-0.0232 0.0523,-0.0210 0.0673,-0.0187 0.0822,-0.0165 0.0972,-0.0141 0.1121,-0.0118 0.1271,-0.0094 0.1420,-0.0070 0.1570,-0.0045 0.1719,-0.0021 0.1869,0.0004 0.2018,0.0028 0.2168,0.0053 0.2317,0.0077 0.2467,0.0101 0.2616,0.0125 0.2766,0.0148 0.2915,0.0172 0.3065,0.0194 0.3214,0.0217 0.3364,0.0238 0.3513,0.0259 0.3663,0.0280 0.3812,0.0300 0.3962,0.0319 0.4111,0.0337 0.4261,0.0354 0.4410,0.0371 0.4560,0.0386 0.4709,0.0401 0.4859,0.0414 0.5008,0.0427 0.5158,0.0438 0.5307,0.0449 0.5457,0.0458 0.5606,0.0466 0.5756,0.0473 0.5905,0.0479 0.6055,0.0483 0.6204,0.0487 0.6354,0.0489 0.6503,0.0490 0.6653,0.0489 0.6802,0.0488 0.6952,0.0485 0.7101,0.0481 0.7251,0.0476 0.74,0.0470"/></g><g fill="none" stroke="rgb(2%, 29%, 48%)" stroke-opacity="1.0" stroke-width="0.0200"><polyline points="-0.74,-0.0049 -0.7251,-0.0098 -0.7101,-0.0147 -0.6952,-0.0195 -0.6802,-0.0243 -0.6653,-0.0290 -0.6503,-0.0336 -0.6354,-0.0382 -0.6204,-0.0427 -0.6055,-0.0470 -0.5905,-0.0513 -0.5756,-0.0554 -0.5606,-0.0594 -0.5457,-0.0632 -0.5307,-0.0668 -0.5158,-0.0703 -0.5008,-0.0737 -0.4859,-0.0768 -0.4709,-0.0798 -0.4560,-0.0825 -0.4410,-0.0851 -0.4261,-0.0874 -0.4111,-0.0895 -0.3962,-0.0914 -0.3812,-0.0930 -0.3663,-0.0945 -0.3513,-0.0957 -0.3364,-0.0966 -0.3214,-0.0973 -0.3065,-0.0978 -0.2915,-0.0980 -0.2766,-0.0980 -0.2616,-0.0977 -0.2467,-0.0972 -0.2317,-0.0965 -0.2168,-0.0955 -0.2018,-0.0943 -0.1869,-0.0928 -0.1719,-0.0911 -0.1570,-0.0892 -0.1420,-0.0870 -0.1271,-0.0846 -0.1121,-0.0821 -0.0972,-0.0793 -0.0822,-0.0763 -0.0673,-0.0731 -0.0523,-0.0698 -0.0374,-0.0662 -0.0224,-0.0625 -0.0075,-0.0587 0.0075,-0.0547 0.0224,-0.0506 0.0374,-0.0463 0.0523,-0.0419 0.0673,-0.0374 0.0822,-0.0329 0.0972,-0.0282 0.1121,-0.0235 0.1271,-0.0187 0.1420,-0.0139 0.1570,-0.0090 0.1719,-0.0041 0.1869,0.0008 0.2018,0.0057 0.2168,0.0106 0.2317,0.0154 0.2467,0.0202 0.2616,0.0250 0.2766,0.0297 0.2915,0.0343 0.3065,0.0389 0.3214,0.0433 0.3364,0.0477 0.3513,0.0519 0.3663,0.0560 0.3812,0.0599 0.3962,0.0637 0.4111,0.0674 0.4261,0.0708 0.4410,0.0741 0.4560,0.0773 0.4709,0.0802 0.4859,0.0829 0.5008,0.0854 0.5158,0.0877 0.5307,0.0898 0.5457,0.0916 0.5606,0.0932 0.5756,0.0946 0.5905,0.0958 0.6055,0.0967 0.6204,0.0974 0.6354,0.0978 0.6503,0.0980 0.6653,0.0979 0.6802,0.0976 0.6952,0.0971 0.7101,0.0963 0.7251,0.0952 0.74,0.0940"/></g><g fill="none" stroke="rgb(66%, 7%, 55%)" stroke-opacity="1.0" stroke-width="0.0200"><polyline points="-0.74,-0.0074 -0.7251,-0.0147 -0.7101,-0.0220 -0.6952,-0.0292 -0.6802,-0.0364 -0.6653,-0.0435 -0.6503,-0.0504 -0.6354,-0.0573 -0.6204,-0.0640 -0.6055,-0.0705 -0.5905,-0.0769 -0.5756,-0.0830 -0.5606,-0.0890 -0.5457,-0.0947 -0.5307,-0.1002 -0.5158,-0.1055 -0.5008,-0.1105 -0.4859,-0.1152 -0.4709,-0.1196 -0.4560,-0.1237 -0.4410,-0.1276 -0.4261,-0.1311 -0.4111,-0.1342 -0.3962,-0.1371 -0.3812,-0.1396 -0.3663,-0.1417 -0.3513,-0.1435 -0.3364,-0.1449 -0.3214,-0.1460 -0.3065,-0.1467 -0.2915,-0.1470 -0.2766,-0.1470 -0.2616,-0.1466 -0.2467,-0.1458 -0.2317,-0.1447 -0.2168,-0.1432 -0.2018,-0.1414 -0.1869,-0.1392 -0.1719,-0.1366 -0.1570,-0.1337 -0.1420,-0.1305 -0.1271,-0.1269 -0.1121,-0.1231 -0.0972,-0.1189 -0.0822,-0.1144 -0.0673,-0.1097 -0.0523,-0.1046 -0.0374,-0.0993 -0.0224,-0.0938 -0.0075,-0.0880 0.0075,-0.0820 0.0224,-0.0758 0.0374,-0.0694 0.0523,-0.0629 0.0673,-0.0561 0.0822,-0.0493 0.0972,-0.0423 0.1121,-0.0352 0.1271,-0.0280 0.1420,-0.0208 0.1570,-0.0135 0.1719,-0.0061 0.1869,0.0012 0.2018,0.0085 0.2168,0.0159 0.2317,0.0232 0.2467,0.0304 0.2616,0.0375 0.2766,0.0446 0.2915,0.0515 0.3065,0.0584 0.3214,0.0650 0.3364,0.0715 0.3513,0.0779 0.3663,0.0840 0.3812,0.0899 0.3962,0.0956 0.4111,0.1011 0.4261,0.1063 0.4410,0.1112 0.4560,0.1159 0.4709,0.1203 0.4859,0.1243 0.5008,0.1281 0.5158,0.1315 0.5307,0.1347 0.5457,0.1374 0.5606,0.1399 0.5756,0.1420 0.5905,0.1437 0.6055,0.1451 0.6204,0.1461 0.6354,0.1467 0.6503,0.1470 0.6653,0.1469 0.6802,0.1464 0.6952,0.1456 0.7101,0.1444 0.7251,0.1429 0.74,0.1409"/></g><g fill="none" stroke="rgb(96%, 60%, 92%)" stroke-opacity="1.0" stroke-width="0.0200"><polyline points="-0.74,-0.0098 -0.7251,-0.0196 -0.7101,-0.0293 -0.6952,-0.0390 -0.6802,-0.0485 -0.6653,-0.0580 -0.6503,-0.0673 -0.6354,-0.0764 -0.6204,-0.0853 -0.6055,-0.0940 -0.5905,-0.1025 -0.5756,-0.1107 -0.5606,-0.1187 -0.5457,-0.1263 -0.5307,-0.1337 -0.5158,-0.1407 -0.5008,-0.1473 -0.4859,-0.1536 -0.4709,-0.1595 -0.4560,-0.1650 -0.4410,-0.1701 -0.4261,-0.1747 -0.4111,-0.1790 -0.3962,-0.1827 -0.3812,-0.1861 -0.3663,-0.1889 -0.3513,-0.1913 -0.3364,-0.1932 -0.3214,-0.1946 -0.3065,-0.1956 -0.2915,-0.1960 -0.2766,-0.1960 -0.2616,-0.1954 -0.2467,-0.1944 -0.2317,-0.1929 -0.2168,-0.1909 -0.2018,-0.1885 -0.1869,-0.1855 -0.1719,-0.1821 -0.1570,-0.1783 -0.1420,-0.1740 -0.1271,-0.1692 -0.1121,-0.1641 -0.0972,-0.1585 -0.0822,-0.1526 -0.0673,-0.1462 -0.0523,-0.1395 -0.0374,-0.1324 -0.0224,-0.1251 -0.0075,-0.1174 0.0075,-0.1094 0.0224,-0.1011 0.0374,-0.0926 0.0523,-0.0838 0.0673,-0.0749 0.0822,-0.0657 0.0972,-0.0564 0.1121,-0.0469 0.1271,-0.0374 0.1420,-0.0277 0.1570,-0.0180 0.1719,-0.0082 0.1869,0.0016 0.2018,0.0114 0.2168,0.0212 0.2317,0.0309 0.2467,0.0405 0.2616,0.0501 0.2766,0.0595 0.2915,0.0687 0.3065,0.0778 0.3214,0.0867 0.3364,0.0954 0.3513,0.1038 0.3663,0.1120 0.3812,0.1199 0.3962,0.1275 0.4111,0.1348 0.4261,0.1417 0.4410,0.1483 0.4560,0.1545 0.4709,0.1604 0.4859,0.1658 0.5008,0.1708 0.5158,0.1754 0.5307,0.1796 0.5457,0.1833 0.5606,0.1865 0.5756,0.1893 0.5905,0.1916 0.6055,0.1934 0.6204,0.1948 0.6354,0.1956 0.6503,0.1960 0.6653,0.1959 0.6802,0.1952 0.6952,0.1941 0.7101,0.1926 0.7251,0.1905 0.74,0.1879"/></g><g fill="none" stroke="rgb(100%, 71%, 35%)" stroke-opacity="1.0" stroke-width="0.0200"><polyline points="-0.74,-0.0123 -0.7251,-0.0245 -0.7101,-0.0367 -0.6952,-0.0487 -0.6802,-0.0607 -0.6653,-0.0724 -0.6503,-0.0841 -0.6354,-0.0955 -0.6204,-0.1066 -0.6055,-0.1175 -0.5905,-0.1281 -0.5756,-0.1384 -0.5606,-0.1483 -0.5457,-0.1579 -0.5307,-0.1671 -0.5158,-0.1758 -0.5008,-0.1841 -0.4859,-0.1920 -0.4709,-0.1994 -0.4560,-0.2062 -0.4410,-0.2126 -0.4261,-0.2184 -0.4111,-0.2237 -0.3962,-0.2284 -0.3812,-0.2326 -0.3663,-0.2361 -0.3513,-0.2391 -0.3364,-0.2415 -0.3214,-0.2433 -0.3065,-0.2445 -0.2915,-0.2450 -0.2766,-0.2450 -0.2616,-0.2443 -0.2467,-0.2430 -0.2317,-0.2411 -0.2168,-0.2387 -0.2018,-0.2356 -0.1869,-0.2319 -0.1719,-0.2277 -0.1570,-0.2228 -0.1420,-0.2175 -0.1271,-0.2116 -0.1121,-0.2051 -0.0972,-0.1981 -0.0822,-0.1907 -0.0673,-0.1828 -0.0523,-0.1744 -0.0374,-0.1655 -0.0224,-0.1563 -0.0075,-0.1467 0.0075,-0.1367 0.0224,-0.1264 0.0374,-0.1157 0.0523,-0.1048 0.0673,-0.0936 0.0822,-0.0821 0.0972,-0.0705 0.1121,-0.0587 0.1271,-0.0467 0.1420,-0.0346 0.1570,-0.0224 0.1719,-0.0102 0.1869,0.0020 0.2018,0.0143 0.2168,0.0265 0.2317,0.0386 0.2467,0.0507 0.2616,0.0626 0.2766,0.0743 0.2915,0.0859 0.3065,0.0973 0.3214,0.1084 0.3364,0.1192 0.3513,0.1298 0.3663,0.1400 0.3812,0.1499 0.3962,0.1594 0.4111,0.1685 0.4261,0.1772 0.4410,0.1854 0.4560,0.1932 0.4709,0.2005 0.4859,0.2073 0.5008,0.2135 0.5158,0.2193 0.5307,0.2245 0.5457,0.2291 0.5606,0.2331 0.5756,0.2366 0.5905,0.2395 0.6055,0.2418 0.6204,0.2435 0.6354,0.2445 0.6503,0.2450 0.6653,0.2448 0.6802,0.2441 0.6952,0.2427 0.7101,0.2407 0.7251,0.2381 0.74,0.2349"/></g><g fill="none" stroke="rgb(73%, 34%, 1%)" stroke-opacity="1.0" stroke-width="0.0200"><polyline points="-0.74,-0.0147 -0.7251,-0.0294 -0.7101,-0.0440 -0.6952,-0.0585 -0.6802,-0.0728 -0.6653,-0.0869 -0.6503,-0.1009 -0.6354,-0.1145 -0.6204,-0.1279 -0.6055,-0.1410 -0.5905,-0.1537 -0.5756,-0.1661 -0.5606,-0.1780 -0.5457,-0.1895 -0.5307,-0.2005 -0.5158,-0.2110 -0.5008,-0.2209 -0.4859,-0.2304 -0.4709,-0.2392 -0.4560,-0.2475 -0.4410,-0.2551 -0.4261,-0.2621 -0.4111,-0.2684 -0.3962,-0.2741 -0.3812,-0.2791 -0.3663,-0.2834 -0.3513,-0.2869 -0.3364,-0.2898 -0.3214,-0.2919 -0.3065,-0.2933 -0.2915,-0.2940 -0.2766,-0.2940 -0.2616,-0.2932 -0.2467,-0.2916 -0.2317,-0.2894 -0.2168,-0.2864 -0.2018,-0.2827 -0.1869,-0.2783 -0.1719,-0.2732 -0.1570,-0.2674 -0.1420,-0.2610 -0.1271,-0.2539 -0.1121,-0.2461 -0.0972,-0.2378 -0.0822,-0.2288 -0.0673,-0.2193 -0.0523,-0.2092 -0.0374,-0.1986 -0.0224,-0.1876 -0.0075,-0.1760 0.0075,-0.1640 0.0224,-0.1516 0.0374,-0.1388 0.0523,-0.1257 0.0673,-0.1123 0.0822,-0.0985 0.0972,-0.0846 0.1121,-0.0704 0.1271,-0.0560 0.1420,-0.0415 0.1570,-0.0269 0.1719,-0.0123 0.1869,0.0024 0.2018,0.0171 0.2168,0.0318 0.2317,0.0463 0.2467,0.0608 0.2616,0.0751 0.2766,0.0892 0.2915,0.1031 0.3065,0.1167 0.3214,0.1301 0.3364,0.1431 0.3513,0.1558 0.3663,0.1680 0.3812,0.1799 0.3962,0.1913 0.4111,0.2022 0.4261,0.2126 0.4410,0.2225 0.4560,0.2318 0.4709,0.2406 0.4859,0.2487 0.5008,0.2562 0.5158,0.2631 0.5307,0.2694 0.5457,0.2749 0.5606,0.2798 0.5756,0.2839 0.5905,0.2874 0.6055,0.2901 0.6204,0.2922 0.6354,0.2934 0.6503,0.2940 0.6653,0.2938 0.6802,0.2929 0.6952,0.2912 0.7101,0.2888 0.7251,0.2857 0.74,0.2819"/></g><g fill="none" stroke="rgb(21%, 29%, 7%)" stroke-opacity="1.0" stroke-width="0.0200"><polyline points="-0.74,-0.0172 -0.7251,-0.0343 -0.7101,-0.0513 -0.6952,-0.0682 -0.6802,-0.0849 -0.6653,-0.1014 -0.6503,-0.1177 -0.6354,-0.1336 -0.6204,-0.1492 -0.6055,-0.1645 -0.5905,-0.1793 -0.5756,-0.1937 -0.5606,-0.2076 -0.5457,-0.2210 -0.5307,-0.2339 -0.5158,-0.2461 -0.5008,-0.2578 -0.4859,-0.2688 -0.4709,-0.2791 -0.4560,-0.2887 -0.4410,-0.2976 -0.4261,-0.3058 -0.4111,-0.3132 -0.3962,-0.3198 -0.3812,-0.3256 -0.3663,-0.3306 -0.3513,-0.3348 -0.3364,-0.3381 -0.3214,-0.3406 -0.3065,-0.3422 -0.2915,-0.3430 -0.2766,-0.3429 -0.2616,-0.3420 -0.2467,-0.3402 -0.2317,-0.3376 -0.2168,-0.3341 -0.2018,-0.3298 -0.1869,-0.3247 -0.1719,-0.3187 -0.1570,-0.3120 -0.1420,-0.3044 -0.1271,-0.2962 -0.1121,-0.2871 -0.0972,-0.2774 -0.0822,-0.2670 -0.0673,-0.2558 -0.0523,-0.2441 -0.0374,-0.2318 -0.0224,-0.2188 -0.0075,-0.2053 0.0075,-0.1913 0.0224,-0.1769 0.0374,-0.1620 0.0523,-0.1466 0.0673,-0.1310 0.0822,-0.1150 0.0972,-0.0987 0.1121,-0.0821 0.1271,-0.0654 0.1420,-0.0484 0.1570,-0.0314 0.1719,-0.0143 0.1869,0.0028 0.2018,0.0200 0.2168,0.0371 0.2317,0.0541 0.2467,0.0709 0.2616,0.0876 0.2766,0.1041 0.2915,0.1203 0.3065,0.1362 0.3214,0.1518 0.3364,0.1670 0.3513,0.1817 0.3663,0.1960 0.3812,0.2099 0.3962,0.2232 0.4111,0.2359 0.4261,0.2481 0.4410,0.2596 0.4560,0.2705 0.4709,0.2807 0.4859,0.2902 0.5008,0.2990 0.5158,0.3070 0.5307,0.3143 0.5457,0.3207 0.5606,0.3264 0.5756,0.3313 0.5905,0.3353 0.6055,0.3385 0.6204,0.3409 0.6354,0.3423 0.6503,0.3430 0.6653,0.3428 0.6802,0.3417 0.6952,0.3398 0.7101,0.3370 0.7251,0.3334 0.74,0.3289"/></g><g fill="none" stroke="rgb(53%, 51%, 28%)" stroke-opacity="1.0" stroke-width="0.0200"><polyline points="-0.74,-0.0196 -0.7251,-0.0392 -0.7101,-0.0586 -0.6952,-0.0779 -0.6802,-0.0970 -0.6653,-0.1159 -0.6503,-0.1345 -0.6354,-0.1527 -0.6204,-0.1706 -0.6055,-0.1880 -0.5905,-0.2050 -0.5756,-0.2214 -0.5606,-0.2373 -0.5457,-0.2526 -0.5307,-0.2673 -0.5158,-0.2813 -0.5008,-0.2946 -0.4859,-0.3071 -0.4709,-0.3189 -0.4560,-0.3299 -0.4410,-0.3401 -0.4261,-0.3494 -0.4111,-0.3579 -0.3962,-0.3654 -0.3812,-0.3721 -0.3663,-0.3778 -0.3513,-0.3826 -0.3364,-0.3864 -0.3214,-0.3892 -0.3065,-0.3911 -0.2915,-0.3920 -0.2766,-0.3919 -0.2616,-0.3909 -0.2467,-0.3888 -0.2317,-0.3858 -0.2168,-0.3818 -0.2018,-0.3769 -0.1869,-0.3710 -0.1719,-0.3642 -0.1570,-0.3565 -0.1420,-0.3479 -0.1271,-0.3385 -0.1121,-0.3281 -0.0972,-0.3170 -0.0822,-0.3051 -0.0673,-0.2924 -0.0523,-0.2790 -0.0374,-0.2649 -0.0224,-0.2501 -0.0075,-0.2347 0.0075,-0.2187 0.0224,-0.2021 0.0374,-0.1851 0.0523,-0.1676 0.0673,-0.1497 0.0822,-0.1314 0.0972,-0.1127 0.1121,-0.0938 0.1271,-0.0747 0.1420,-0.0554 0.1570,-0.0359 0.1719,-0.0163 0.1869,0.0033 0.2018,0.0229 0.2168,0.0424 0.2317,0.0618 0.2467,0.0811 0.2616,0.1002 0.2766,0.1190 0.2915,0.1375 0.3065,0.1557 0.3214,0.1735 0.3364,0.1908 0.3513,0.2077 0.3663,0.2241 0.3812,0.2398 0.3962,0.2550 0.4111,0.2696 0.4261,0.2835 0.4410,0.2967 0.4560,0.3091 0.4709,0.3208 0.4859,0.3316 0.5008,0.3417 0.5158,0.3509 0.5307,0.3592 0.5457,0.3666 0.5606,0.3730 0.5756,0.3786 0.5905,0.3832 0.6055,0.3869 0.6204,0.3895 0.6354,0.3913 0.6503,0.3920 0.6653,0.3917 0.6802,0.3905 0.6952,0.3883 0.7101,0.3851 0.7251,0.3810 0.74,0.3759"/></g><g fill="none" stroke="rgb(2%, 73%, 80%)" stroke-opacity="1.0" stroke-width="0.0200"><polyline points="-0.74,-0.0221 -0.7251,-0.0441 -0.7101,-0.0659 -0.6952,-0.0877 -0.6802,-0.1092 -0.6653,-0.1304 -0.6503,-0.1513 -0.6354,-0.1718 -0.6204,-0.1919 -0.6055,-0.2115 -0.5905,-0.2306 -0.5756,-0.2491 -0.5606,-0.2670 -0.5457,-0.2842 -0.5307,-0.3007 -0.5158,-0.3164 -0.5008,-0.3314 -0.4859,-0.3455 -0.4709,-0.3588 -0.4560,-0.3712 -0.4410,-0.3826 -0.4261,-0.3931 -0.4111,-0.4026 -0.3962,-0.4111 -0.3812,-0.4186 -0.3663,-0.4250 -0.3513,-0.4304 -0.3364,-0.4347 -0.3214,-0.4379 -0.3065,-0.4400 -0.2915,-0.4410 -0.2766,-0.4409 -0.2616,-0.4397 -0.2467,-0.4374 -0.2317,-0.4340 -0.2168,-0.4296 -0.2018,-0.4240 -0.1869,-0.4174 -0.1719,-0.4098 -0.1570,-0.4011 -0.1420,-0.3914 -0.1271,-0.3808 -0.1121,-0.3692 -0.0972,-0.3566 -0.0822,-0.3432 -0.0673,-0.3289 -0.0523,-0.3138 -0.0374,-0.2980 -0.0224,-0.2813 -0.0075,-0.2640 0.0075,-0.2460 0.0224,-0.2274 0.0374,-0.2082 0.0523,-0.1885 0.0673,-0.1684 0.0822,-0.1478 0.0972,-0.1268 0.1121,-0.1056 0.1271,-0.0840 0.1420,-0.0623 0.1570,-0.0404 0.1719,-0.0184 0.1869,0.0037 0.2018,0.0257 0.2168,0.0477 0.2317,0.0695 0.2467,0.0912 0.2616,0.1127 0.2766,0.1338 0.2915,0.1547 0.3065,0.1751 0.3214,0.1951 0.3364,0.2147 0.3513,0.2337 0.3663,0.2521 0.3812,0.2698 0.3962,0.2869 0.4111,0.3033 0.4261,0.3189 0.4410,0.3338 0.4560,0.3478 0.4709,0.3609 0.4859,0.3731 0.5008,0.3844 0.5158,0.3947 0.5307,0.4041 0.5457,0.4124 0.5606,0.4197 0.5756,0.4259 0.5905,0.4311 0.6055,0.4352 0.6204,0.4382 0.6354,0.4402 0.6503,0.4410 0.6653,0.4407 0.6802,0.4393 0.6952,0.4369 0.7101,0.4333 0.7251,0.4286 0.74,0.4229"/></g><g fill="none" stroke="rgb(2%, 29%, 48%)" stroke-opacity="1.0" stroke-width="0.0200"><polyline points="-0.74,-0.0245 -0.7251,-0.0490 -0.7101,-0.0733 -0.6952,-0.0974 -0.6802,-0.1213 -0.6653,-0.1449 -0.6503,-0.1681 -0.6354,-0.1909 -0.6204,-0.2132 -0.6055,-0.2350 -0.5905,-0.2562 -0.5756,-0.2767 -0.5606,-0.2966 -0.5457,-0.3157 -0.5307,-0.3341 -0.5158,-0.3516 -0.5008,-0.3682 -0.4859,-0.3839 -0.4709,-0.3987 -0.4560,-0.4124 -0.4410,-0.4251 -0.4261,-0.4368 -0.4111,-0.4474 -0.3962,-0.4568 -0.3812,-0.4651 -0.3663,-0.4722 -0.3513,-0.4782 -0.3364,-0.4830 -0.3214,-0.4865 -0.3065,-0.4889 -0.2915,-0.49 -0.2766,-0.4899 -0.2616,-0.4886 -0.2467,-0.4860 -0.2317,-0.4823 -0.2168,-0.4773 -0.2018,-0.4711 -0.1869,-0.4638 -0.1719,-0.4553 -0.1570,-0.4457 -0.1420,-0.4349 -0.1271,-0.4231 -0.1121,-0.4102 -0.0972,-0.3963 -0.0822,-0.3813 -0.0673,-0.3655 -0.0523,-0.3487 -0.0374,-0.3311 -0.0224,-0.3126 -0.0075,-0.2933 0.0075,-0.2733 0.0224,-0.2527 0.0374,-0.2314 0.0523,-0.2095 0.0673,-0.1871 0.0822,-0.1642 0.0972,-0.1409 0.1121,-0.1173 0.1271,-0.0934 0.1420,-0.0692 0.1570,-0.0449 0.1719,-0.0204 0.1869,0.0041 0.2018,0.0286 0.2168,0.0530 0.2317,0.0773 0.2467,0.1014 0.2616,0.1252 0.2766,0.1487 0.2915,0.1719 0.3065,0.1946 0.3214,0.2168 0.3364,0.2385 0.3513,0.2596 0.3663,0.2801 0.3812,0.2998 0.3962,0.3188 0.4111,0.3370 0.4261,0.3544 0.4410,0.3709 0.4560,0.3864 0.4709,0.4010 0.4859,0.4146 0.5008,0.4271 0.5158,0.4386 0.5307,0.4490 0.5457,0.4582 0.5606,0.4663 0.5756,0.4733 0.5905,0.4790 0.6055,0.4836 0.6204,0.4869 0.6354,0.4891 0.6503,0.49 0.6653,0.4897 0.6802,0.4882 0.6952,0.4854 0.7101,0.4814 0.7251,0.4763 0.74,0.4699"/></g></g><g class="hud"/></svg>