<svg height="300" viewBox="-0.75 -0.5 1.5 1.0" width="450" xmlns="http://www.w3.org/2000/svg" xmlns:xlink="http://www.w3.org/1999/xlink"><style>svg {
  color-scheme: light dark;
}
{
  .canvas g, .title g, .axisbar g, .ticktext g, .tickglyph g, .ticklines g, .legendContent g text {
    fill: rgb(5%, 5%, 5%);
  }
  .ticklines g, .tickglyph g, .legendBorder g {
    stroke: rgb(5%, 5%, 5%);
  }
  .legendBorder g {
    fill: rgb(94%, 94%, 94%);
  }
}
@media (prefers-color-scheme:dark) {
  .canvas g, .title g, .axisbar g, .ticktext g, .tickglyph g, .ticklines g, .legendContent g text {
    fill: rgb(94%, 94%, 94%);
  }
  .ticklines g, .tickglyph g, .legendBorder g {
    stroke: rgb(94%, 94%, 94%);
  }
  .legendBorder g {
    fill: rgb(5%, 5%, 5%);
  }
}</style><g class="chart"><g fill="rgb(2%, 73%, 80%)" fill-opacity="1.0" stroke="rgb(2%, 29%, 48%)" stroke-opacity="1.0" stroke-width="0.0100"><circle cx="0.0873" cy="-0.4451" r="0.0025"/><circle cx="0.1249" cy="-0.4428" r="0.0025"/><circle cx="0.1622" cy="-0.4392" r="0.0025"/><circle cx="0.1991" cy="-0.4341" r="0.0025"/><circle cx="0.2355" cy="-0.4275" r="0.0025"/><circle cx="0.2712" cy="-0.4196" r="0.0025"/><circle cx="0.3061" cy="-0.4102" r="0.0025"/><circle cx="0.3401" cy="-0.3996" r="0.0025"/><circle cx="0.3730" cy="-0.3876" r="0.0025"/><circle cx="0.4048" cy="-0.3743" r="0.0025"/><circle cx="0.4353" cy="-0.3599" r="0.0025"/><circle cx="0.4644" cy="-0.3443" r="0.0025"/><circle cx="0.4920" cy="-0.3275" r="0.0025"/><circle cx="0.5180" cy="-0.3097" r="0.0025"/><circle cx="0.5424" cy="-0.2910" r="0.0025"/><circle cx="0.5649" cy="-0.2713" r="0.0025"/><circle cx="0.5857" cy="-0.2508" r="0.0025"/><circle cx="0.6044" cy="-0.2295" r="0.0025"/><circle cx="0.6212" cy="-0.2075" r="0.0025"/><circle cx="0.6359" cy="-0.1849" r="0.0025"/><circle cx="0.6486" cy="-0.1618" r="0.0025"/><circle cx="0.6590" cy="-0.1382" r="0.0025"/><circle cx="0.6673" cy="-0.1143" r="0.0025"/><circle cx="0.6733" cy="-0.0900" r="0.0025"/><circle cx="0.6771" cy="-0.0656" r="0.0025"/><circle cx="0.6787" cy="-0.0411" r="0.0025"/><circle cx="0.6779" cy="-0.0165" r="0.0025"/><circle cx="0.6750" cy="0.0079" r="0.0025"/><circle cx="0.6697" cy="0.0322" r="0.0025"/><circle cx="0.6622" cy="0.0563" r="0.0025"/><circle cx="0.6526" cy="0.0800" r="0.0025"/><circle cx="0.6407" cy="0.1033" r="0.0025"/><circle cx="0.6268" cy="0.1261" r="0.0025"/><circle cx="0.6107" cy="0.1483" r="0.0025"/><circle cx="0.5926" cy="0.1699" r="0.0025"/><circle cx="0.5726" cy="0.1907" r="0.0025"/><circle cx="0.5507" cy="0.2107" r="0.0025"/><circle cx="0.5270" cy="0.2298" r="0.0025"/><circle cx="0.5016" cy="0.2479" r="0.0025"/><circle cx="0.4745" cy="0.2650" r="0.0025"/><circle cx="0.4459" cy="0.2810" r="0.0025"/><circle cx="0.4159" cy="0.2959" r="0.0025"/><circle cx="0.3846" cy="0.3096" r="0.0025"/><circle cx="0.3521" cy="0.3221" r="0.0025"/><circle cx="0.3185" cy="0.3332" r="0.0025"/><circle cx="0.2839" cy="0.3430" r="0.0025"/><circle cx="0.2484" cy="0.3515" r="0.0025"/><circle cx="0.2123" cy="0.3585" r="0.0025"/><circle cx="0.1755" cy="0.3642" r="0.0025"/><circle cx="0.1384" cy="0.3684" r="0.0025"/><circle cx="0.1009" cy="0.3711" r="0.0025"/><circle cx="0.0632" cy="0.3724" r="0.0025"/><circle cx="0.0254" cy="0.3721" r="0.0025"/><circle cx="-0.0122" cy="0.3705" r="0.0025"/><circle cx="-0.0497" cy="0.3673" r="0.0025"/><circle cx="-0.0867" cy="0.3627" r="0.0025"/><circle cx="-0.1233" cy="0.3567" r="0.0025"/><circle cx="-0.1593" cy="0.3492" r="0.0025"/><circle cx="-0.1945" cy="0.3404" r="0.0025"/><circle cx="-0.2288" cy="0.3302" r="0.0025"/><circle cx="-0.2621" cy="0.3187" r="0.0025"/><circle cx="-0.2944" cy="0.3059" r="0.0025"/><circle cx="-0.3253" cy="0.2919" r="0.0025"/><circle cx="-0.3549" cy="0.2767" r="0.0025"/><circle cx="-0.3831" cy="0.2603" r="0.0025"/><circle cx="-0.4097" cy="0.2429" r="0.0025"/><circle cx="-0.4347" cy="0.2245" r="0.0025"/><circle cx="-0.4579" cy="0.2051" r="0.0025"/><circle cx="-0.4793" cy="0.1849" r="0.0025"/><circle cx="-0.4987" cy="0.1639" r="0.0025"/><circle cx="-0.5163" cy="0.1422" r="0.0025"/><circle cx="-0.5317" cy="0.1198" r="0.0025"/><circle cx="-0.5451" cy="0.0968" r="0.0025"/><circle cx="-0.5563" cy="0.0734" r="0.0025"/><circle cx="-0.5654" cy="0.0496" r="0.0025"/><circle cx="-0.5722" cy="0.0254" r="0.0025"/><circle cx="-0.5769" cy="0.0011" r="0.0025"/><circle cx="-0.5792" cy="-0.0234" r="0.0025"/><circle cx="-0.5793" cy="-0.0480" r="0.0025"/><circle cx="-0.5771" cy="-0.0725" r="0.0025"/><circle cx="-0.5727" cy="-0.0968" r="0.0025"/><circle cx="-0.5660" cy="-0.1210" r="0.0025"/><circle cx="-0.5571" cy="-0.1449" r="0.0025"/><circle cx="-0.5461" cy="-0.1683" r="0.0025"/><circle cx="-0.5329" cy="-0.1913" r="0.0025"/><circle cx="-0.5176" cy="-0.2137" r="0.0025"/><circle cx="-0.5002" cy="-0.2355" r="0.0025"/><circle cx="-0.4809" cy="-0.2566" r="0.0025"/><circle cx="-0.4596" cy="-0.2769" r="0.0025"/><circle cx="-0.4366" cy="-0.2963" r="0.0025"/><circle cx="-0.4118" cy="-0.3148" r="0.0025"/><circle cx="-0.3853" cy="-0.3323" r="0.0025"/><circle cx="-0.3572" cy="-0.3487" r="0.0025"/><circle cx="-0.3277" cy="-0.3640" r="0.0025"/><circle cx="-0.2969" cy="-0.3782" r="0.0025"/><circle cx="-0.2648" cy="-0.3911" r="0.0025"/><circle cx="-0.2315" cy="-0.4027" r="0.0025"/><circle cx="-0.1973" cy="-0.4130" r="0.0025"/><circle cx="-0.1621" cy="-0.4219" r="0.0025"/><circle cx="-0.1262" cy="-0.4295" r="0.0025"/></g></g><g class="hud"><g class="frame"><g fill="rgb(100%, 100%, 100%)" fill-opacity="0.02" stroke="rgb(0%, 0%, 0%)" stroke-opacity="0" stroke-width="0"><rect height="0.8297" width="1.2705" x="-0.5856" y="-0.4512"/></g></g><g class="axis"><g class="ticks"><g class="tickglyph"><g fill="rgb(5%, 5%, 5%)" fill-opacity="0.4" stroke="rgb(5%, 5%, 5%)" stroke-opacity="0.4" stroke-width="0.0040"><g transform="rotate(-90.0, -0.6108, 0.3724)"><polyline points="-0.6108,0.3874
-0.6108,0.3574"/></g><g transform="rotate(-90.0, -0.6108, 0.2906)"><polyline points="-0.6108,0.3056
-0.6108,0.2756"/></g><g transform="rotate(-90.0, -0.6108, 0.2088)"><polyline points="-0.6108,0.2238
-0.6108,0.1938"/></g><g transform="rotate(-90.0, -0.6108, 0.1270)"><polyline points="-0.6108,0.1420
-0.6108,0.1120"/></g><g transform="rotate(-90.0, -0.6108, 0.0452)"><polyline points="-0.6108,0.0602
-0.6108,0.0302"/></g><g transform="rotate(-90.0, -0.6108, -0.0367)"><polyline points="-0.6108,-0.0217
-0.6108,-0.0517"/></g><g transform="rotate(-90.0, -0.6108, -0.1185)"><polyline points="-0.6108,-0.1035
-0.6108,-0.1335"/></g><g transform="rotate(-90.0, -0.6108, -0.2003)"><polyline points="-0.6108,-0.1853
-0.6108,-0.2153"/></g><g transform="rotate(-90.0, -0.6108, -0.2821)"><polyline points="-0.6108,-0.2671
-0.6108,-0.2971"/></g><g transform="rotate(-90.0, -0.6108, -0.3640)"><polyline points="-0.6108,-0.3490
-0.6108,-0.3790"/></g><g transform="rotate(-90.0, -0.6108, -0.4458)"><polyline points="-0.6108,-0.4308
-0.6108,-0.4608"/></g></g></g><g class="ticktext"><g fill="rgb(5%, 5%, 5%)" fill-opacity="1.0" font-size="0.0419" stroke="none" stroke-width="0.0" text-anchor="end"><text x="-0.6410" y="0.3837">-1.0</text><text x="-0.6410" y="0.3019">-0.8</text><text x="-0.6410" y="0.2201">-0.6</text><text x="-0.6410" y="0.1382">-0.4</text><text x="-0.6410" y="0.0564">-0.2</text><text x="-0.6410" y="-0.0254"> 0.0</text><text x="-0.6410" y="-0.1072"> 0.2</text><text x="-0.6410" y="-0.1891"> 0.4</text><text x="-0.6410" y="-0.2709"> 0.6</text><text x="-0.6410" y="-0.3527"> 0.8</text><text x="-0.6410" y="-0.4345"> 1.0</text></g></g><g class="ticklines"><g fill="none" stroke="rgb(5%, 5%, 5%)" stroke-opacity="0.05" stroke-width="0.0050"><polyline points="-0.5795,0.3724 0.6787,0.3724"/><polyline points="-0.5795,0.2906 0.6787,0.2906"/><polyline points="-0.5795,0.2088 0.6787,0.2088"/><polyline points="-0.5795,0.1270 0.6787,0.1270"/><polyline points="-0.5795,0.0452 0.6787,0.0452"/><polyline points="-0.5795,-0.0367 0.6787,-0.0367"/><polyline points="-0.5795,-0.1185 0.6787,-0.1185"/><polyline points="-0.5795,-0.2003 0.6787,-0.2003"/><polyline points="-0.5795,-0.2821 0.6787,-0.2821"/><polyline points="-0.5795,-0.3640 0.6787,-0.3640"/><polyline points="-0.5795,-0.4458 0.6787,-0.4458"/></g></g></g><g class="axisbar"><g fill="rgb(5%, 5%, 5%)" fill-opacity="0.4" stroke="rgb(0%, 0%, 0%)" stroke-opacity="0" stroke-width="0"><rect height="0.8215" width="0.0034" x="-0.5973" y="-0.4474"/></g></g></g><g class="axis"><g class="ticks"><g class="tickglyph"><g fill="rgb(5%, 5%, 5%)" fill-opacity="0.4" stroke="rgb(5%, 5%, 5%)" stroke-opacity="0.4" stroke-width="0.0040"><polyline points="-0.5795,0.4180
-0.5795,0.3880"/><polyline points="-0.4537,0.4180
-0.4537,0.3880"/><polyline points="-0.3279,0.4180
-0.3279,0.3880"/><polyline points="-0.2021,0.4180
-0.2021,0.3880"/><polyline points="-0.0762,0.4180
-0.0762,0.3880"/><polyline points="0.0496,0.4180
0.0496,0.3880"/><polyline points="0.1754,0.4180
0.1754,0.3880"/><polyline points="0.3012,0.4180
0.3012,0.3880"/><polyline points="0.4271,0.4180
0.4271,0.3880"/><polyline points="0.5529,0.4180
0.5529,0.3880"/><polyline points="0.6787,0.4180
0.6787,0.3880"/></g></g><g class="ticktext"><g fill="rgb(5%, 5%, 5%)" fill-opacity="1.0" font-size="0.0419" stroke="none" stroke-width="0.0" text-anchor="middle"><text x="-0.5795" y="0.4550">-1.0</text><text x="-0.4537" y="0.4550">-0.8</text><text x="-0.3279" y="0.4550">-0.6</text><text x="-0.2021" y="0.4550">-0.4</text><text x="-0.0762" y="0.4550">-0.2</text><text x="0.0496" y="0.4550"> 0.0</text><text x="0.1754" y="0.4550"> 0.2</text><text x="0.3012" y="0.4550"> 0.4</text><text x="0.4271" y="0.4550"> 0.6</text><text x="0.5529" y="0.4550"> 0.8</text><text x="0.6787" y="0.4550"> 1.0</text></g></g><g class="ticklines"><g fill="none" stroke="rgb(5%, 5%, 5%)" stroke-opacity="0.05" stroke-width="0.0050"><polyline points="-0.5795,0.3724 -0.5795,-0.4458"/><polyline points="-0.4537,0.3724 -0.4537,-0.4458"/><polyline points="-0.3279,0.3724 -0.3279,-0.4458"/><polyline points="-0.2021,0.3724 -0.2021,-0.4458"/><polyline points="-0.0762,0.3724 -0.0762,-0.4458"/><polyline points="0.0496,0.3724 0.0496,-0.4458"/><polyline points="0.1754,0.3724 0.1754,-0.4458"/><polyline points="0.3012,0.3724 0.3012,-0.4458"/><polyline points="0.4271,0.3724 0.4271,-0.4458"/><polyline points="0.5529,0.3724 0.5529,-0.4458"/><polyline points="0.6787,0.3724 0.6787,-0.4458"/></g></g></g><g class="axisbar"><g fill="rgb(5%, 5%, 5%)" fill-opacity="0.4" stroke="rgb(0%, 0%, 0%)" stroke-opacity="0" stroke-width="0"><rect height="0.0033" width="1.2616" x="-0.5812" y="0.3867"/></g></g></g><g class="frame"><g fill="rgb(100%, 100%, 100%)" fill-opacity="0.02" stroke="rgb(0%, 0%, 0%)" stroke-opacity="0" stroke-width="0"><rect height="1.0" width="1.5" x="-0.75" y="-0.5"/></g></g></g></svg>