<svg height="300" viewBox="-0.75 -0.5 1.5 1.0" width="450" xmlns="http://www.w3.org/2000/svg" xmlns:xlink="http://www.w3.org/1999/xlink"><style>svg {
  color-scheme: light dark;
}
{
  .canvas g, .title g, .axisbar g, .ticktext g, .tickglyph g, .ticklines g, .legendContent g text {
    fill: rgb(5%, 5%, 5%);
  }
  .ticklines g, .tickglyph g, .legendBorder g {
    stroke: rgb(5%, 5%, 5%);
  }
  .legendBorder g {
    fill: rgb(94%, 94%, 94%);
  }
}
@media (prefers-color-scheme:dark) {
  .canvas g, .title g, .axisbar g, .ticktext g, .tickglyph g, .ticklines g, .legendContent g text {
    fill: rgb(94%, 94%, 94%);
  }
  .ticklines g, .tickglyph g, .legendBorder g {
    stroke: rgb(94%, 94%, 94%);
  }
  .legendBorder g {
    fill: rgb(5%, 5%, 5%);
  }
}</style><g class="chart"><g fill="rgb(2%, 73%, 80%)" fill-opacity="1.0" stroke="rgb(2%, 29%, 48%)" stroke-opacity="1.0" stroke-width="0.0100"><circle cx="0.0505" cy="-0.0749" r="0.0025"/><circle cx="0.0543" cy="-0.0747" r="0.0025"/><circle cx="0.0581" cy="-0.0744" r="0.0025"/><circle cx="0.0618" cy="-0.0738" r="0.0025"/><circle cx="0.0654" cy="-0.0732" r="0.0025"/><circle cx="0.0690" cy="-0.0724" r="0.0025"/><circle cx="0.0725" cy="-0.0714" r="0.0025"/><circle cx="0.0759" cy="-0.0704" r="0.0025"/><circle cx="0.0792" cy="-0.0692" r="0.0025"/><circle cx="0.0824" cy="-0.0678" r="0.0025"/><circle cx="0.0855" cy="-0.0664" r="0.0025"/><circle cx="0.0884" cy="-0.0648" r="0.0025"/><circle cx="0.0912" cy="-0.0631" r="0.0025"/><circle cx="0.0938" cy="-0.0613" r="0.0025"/><circle cx="0.0962" cy="-0.0594" r="0.0025"/><circle cx="0.0985" cy="-0.0575" r="0.0025"/><circle cx="0.1006" cy="-0.0554" r="0.0025"/><circle cx="0.1025" cy="-0.0533" r="0.0025"/><circle cx="0.1041" cy="-0.0510" r="0.0025"/><circle cx="0.1056" cy="-0.0488" r="0.0025"/><circle cx="0.1069" cy="-0.0464" r="0.0025"/><circle cx="0.1079" cy="-0.0441" r="0.0025"/><circle cx="0.1088" cy="-0.0417" r="0.0025"/><circle cx="0.1094" cy="-0.0392" r="0.0025"/><circle cx="0.1098" cy="-0.0368" r="0.0025"/><circle cx="0.1099" cy="-0.0343" r="0.0025"/><circle cx="0.1098" cy="-0.0318" r="0.0025"/><circle cx="0.1095" cy="-0.0294" r="0.0025"/><circle cx="0.1090" cy="-0.0269" r="0.0025"/><circle cx="0.1083" cy="-0.0245" r="0.0025"/><circle cx="0.1073" cy="-0.0221" r="0.0025"/><circle cx="0.1061" cy="-0.0198" r="0.0025"/><circle cx="0.1047" cy="-0.0175" r="0.0025"/><circle cx="0.1031" cy="-0.0152" r="0.0025"/><circle cx="0.1013" cy="-0.0131" r="0.0025"/><circle cx="0.0993" cy="-0.0110" r="0.0025"/><circle cx="0.0971" cy="-0.0090" r="0.0025"/><circle cx="0.0947" cy="-0.0070" r="0.0025"/><circle cx="0.0921" cy="-0.0052" r="0.0025"/><circle cx="0.0894" cy="-0.0035" r="0.0025"/><circle cx="0.0865" cy="-0.0019" r="0.0025"/><circle cx="0.0835" cy="-0.0004" r="0.0025"/><circle cx="0.0804" cy="0.0010" r="0.0025"/><circle cx="0.0771" cy="0.0022" r="0.0025"/><circle cx="0.0737" cy="0.0034" r="0.0025"/><circle cx="0.0703" cy="0.0043" r="0.0025"/><circle cx="0.0667" cy="0.0052" r="0.0025"/><circle cx="0.0631" cy="0.0059" r="0.0025"/><circle cx="0.0594" cy="0.0065" r="0.0025"/><circle cx="0.0557" cy="0.0069" r="0.0025"/><circle cx="0.0519" cy="0.0072" r="0.0025"/><circle cx="0.0481" cy="0.0073" r="0.0025"/><circle cx="0.0443" cy="0.0073" r="0.0025"/><circle cx="0.0405" cy="0.0071" r="0.0025"/><circle cx="0.0368" cy="0.0068" r="0.0025"/><circle cx="0.0331" cy="0.0063" r="0.0025"/><circle cx="0.0294" cy="0.0057" r="0.0025"/><circle cx="0.0258" cy="0.0050" r="0.0025"/><circle cx="0.0222" cy="0.0041" r="0.0025"/><circle cx="0.0188" cy="0.0031" r="0.0025"/><circle cx="0.0154" cy="0.0019" r="0.0025"/><circle cx="0.0122" cy="0.0006" r="0.0025"/><circle cx="0.0091" cy="-0.0008" r="0.0025"/><circle cx="0.0061" cy="-0.0023" r="0.0025"/><circle cx="0.0033" cy="-0.0040" r="0.0025"/><circle cx="0.0006" cy="-0.0057" r="0.0025"/><circle cx="-0.0019" cy="-0.0076" r="0.0025"/><circle cx="-0.0042" cy="-0.0095" r="0.0025"/><circle cx="-0.0064" cy="-0.0116" r="0.0025"/><circle cx="-0.0083" cy="-0.0137" r="0.0025"/><circle cx="-0.0101" cy="-0.0159" r="0.0025"/><circle cx="-0.0116" cy="-0.0181" r="0.0025"/><circle cx="-0.0130" cy="-0.0204" r="0.0025"/><circle cx="-0.0141" cy="-0.0228" r="0.0025"/><circle cx="-0.0150" cy="-0.0252" r="0.0025"/><circle cx="-0.0157" cy="-0.0276" r="0.0025"/><circle cx="-0.0162" cy="-0.0301" r="0.0025"/><circle cx="-0.0164" cy="-0.0325" r="0.0025"/><circle cx="-0.0164" cy="-0.0350" r="0.0025"/><circle cx="-0.0162" cy="-0.0375" r="0.0025"/><circle cx="-0.0157" cy="-0.0399" r="0.0025"/><circle cx="-0.0151" cy="-0.0423" r="0.0025"/><circle cx="-0.0142" cy="-0.0447" r="0.0025"/><circle cx="-0.0131" cy="-0.0471" r="0.0025"/><circle cx="-0.0117" cy="-0.0494" r="0.0025"/><circle cx="-0.0102" cy="-0.0517" r="0.0025"/><circle cx="-0.0085" cy="-0.0539" r="0.0025"/><circle cx="-0.0065" cy="-0.0560" r="0.0025"/><circle cx="-0.0044" cy="-0.0580" r="0.0025"/><circle cx="-0.0021" cy="-0.0600" r="0.0025"/><circle cx="0.0004" cy="-0.0618" r="0.0025"/><circle cx="0.0031" cy="-0.0636" r="0.0025"/><circle cx="0.0059" cy="-0.0653" r="0.0025"/><circle cx="0.0089" cy="-0.0668" r="0.0025"/><circle cx="0.0120" cy="-0.0682" r="0.0025"/><circle cx="0.0152" cy="-0.0695" r="0.0025"/><circle cx="0.0185" cy="-0.0707" r="0.0025"/><circle cx="0.0220" cy="-0.0717" r="0.0025"/><circle cx="0.0255" cy="-0.0726" r="0.0025"/><circle cx="0.0291" cy="-0.0734" r="0.0025"/></g><g fill="rgb(2%, 29%, 48%)" fill-opacity="1.0" stroke="rgb(2%, 29%, 48%)" stroke-opacity="1.0" stroke-width="0.0100"><rect height="0.0050" width="0.0050" x="0.0518" y="-0.1185"/><rect height="0.0050" width="0.0050" x="0.0594" y="-0.1181"/><rect height="0.0050" width="0.0050" x="0.0669" y="-0.1173"/><rect height="0.0050" width="0.0050" x="0.0743" y="-0.1163"/><rect height="0.0050" width="0.0050" x="0.0816" y="-0.1150"/><rect height="0.0050" width="0.0050" x="0.0887" y="-0.1134"/><rect height="0.0050" width="0.0050" x="0.0958" y="-0.1115"/><rect height="0.0050" width="0.0050" x="0.1026" y="-0.1094"/><rect height="0.0050" width="0.0050" x="0.1092" y="-0.1070"/><rect height="0.0050" width="0.0050" x="0.1156" y="-0.1043"/><rect height="0.0050" width="0.0050" x="0.1217" y="-0.1014"/><rect height="0.0050" width="0.0050" x="0.1275" y="-0.0982"/><rect height="0.0050" width="0.0050" x="0.1331" y="-0.0949"/><rect height="0.0050" width="0.0050" x="0.1383" y="-0.0913"/><rect height="0.0050" width="0.0050" x="0.1432" y="-0.0875"/><rect height="0.0050" width="0.0050" x="0.1477" y="-0.0836"/><rect height="0.0050" width="0.0050" x="0.1519" y="-0.0794"/><rect height="0.0050" width="0.0050" x="0.1557" y="-0.0752"/><rect height="0.0050" width="0.0050" x="0.1590" y="-0.0707"/><rect height="0.0050" width="0.0050" x="0.1620" y="-0.0662"/><rect height="0.0050" width="0.0050" x="0.1645" y="-0.0615"/><rect height="0.0050" width="0.0050" x="0.1666" y="-0.0568"/><rect height="0.0050" width="0.0050" x="0.1683" y="-0.0520"/><rect height="0.0050" width="0.0050" x="0.1695" y="-0.0471"/><rect height="0.0050" width="0.0050" x="0.1703" y="-0.0422"/><rect height="0.0050" width="0.0050" x="0.1706" y="-0.0372"/><rect height="0.0050" width="0.0050" x="0.1704" y="-0.0323"/><rect height="0.0050" width="0.0050" x="0.1698" y="-0.0274"/><rect height="0.0050" width="0.0050" x="0.1688" y="-0.0225"/><rect height="0.0050" width="0.0050" x="0.1673" y="-0.0177"/><rect height="0.0050" width="0.0050" x="0.1653" y="-0.0129"/><rect height="0.0050" width="0.0050" x="0.1630" y="-0.0082"/><rect height="0.0050" width="0.0050" x="0.1601" y="-0.0036"/><rect height="0.0050" width="0.0050" x="0.1569" y="0.0009"/><rect height="0.0050" width="0.0050" x="0.1533" y="0.0052"/><rect height="0.0050" width="0.0050" x="0.1493" y="0.0094"/><rect height="0.0050" width="0.0050" x="0.1449" y="0.0134"/><rect height="0.0050" width="0.0050" x="0.1401" y="0.0173"/><rect height="0.0050" width="0.0050" x="0.1350" y="0.0209"/><rect height="0.0050" width="0.0050" x="0.1296" y="0.0243"/><rect height="0.0050" width="0.0050" x="0.1238" y="0.0276"/><rect height="0.0050" width="0.0050" x="0.1178" y="0.0306"/><rect height="0.0050" width="0.0050" x="0.1115" y="0.0333"/><rect height="0.0050" width="0.0050" x="0.1050" y="0.0358"/><rect height="0.0050" width="0.0050" x="0.0982" y="0.0381"/><rect height="0.0050" width="0.0050" x="0.0913" y="0.0400"/><rect height="0.0050" width="0.0050" x="0.0842" y="0.0417"/><rect height="0.0050" width="0.0050" x="0.0769" y="0.0432"/><rect height="0.0050" width="0.0050" x="0.0695" y="0.0443"/><rect height="0.0050" width="0.0050" x="0.0621" y="0.0451"/><rect height="0.0050" width="0.0050" x="0.0545" y="0.0457"/><rect height="0.0050" width="0.0050" x="0.0470" y="0.0459"/><rect height="0.0050" width="0.0050" x="0.0394" y="0.0459"/><rect height="0.0050" width="0.0050" x="0.0318" y="0.0456"/><rect height="0.0050" width="0.0050" x="0.0243" y="0.0449"/><rect height="0.0050" width="0.0050" x="0.0169" y="0.0440"/><rect height="0.0050" width="0.0050" x="0.0095" y="0.0428"/><rect height="0.0050" width="0.0050" x="0.0023" y="0.0413"/><rect height="0.0050" width="0.0050" x="-0.0048" y="0.0395"/><rect height="0.0050" width="0.0050" x="-0.0117" y="0.0375"/><rect height="0.0050" width="0.0050" x="-0.0184" y="0.0352"/><rect height="0.0050" width="0.0050" x="-0.0248" y="0.0326"/><rect height="0.0050" width="0.0050" x="-0.0310" y="0.0298"/><rect height="0.0050" width="0.0050" x="-0.0370" y="0.0267"/><rect height="0.0050" width="0.0050" x="-0.0426" y="0.0234"/><rect height="0.0050" width="0.0050" x="-0.0480" y="0.0199"/><rect height="0.0050" width="0.0050" x="-0.0530" y="0.0162"/><rect height="0.0050" width="0.0050" x="-0.0577" y="0.0123"/><rect height="0.0050" width="0.0050" x="-0.0620" y="0.0082"/><rect height="0.0050" width="0.0050" x="-0.0659" y="0.0040"/><rect height="0.0050" width="0.0050" x="-0.0694" y="-0.0004"/><rect height="0.0050" width="0.0050" x="-0.0725" y="-0.0049"/><rect height="0.0050" width="0.0050" x="-0.0752" y="-0.0095"/><rect height="0.0050" width="0.0050" x="-0.0774" y="-0.0142"/><rect height="0.0050" width="0.0050" x="-0.0793" y="-0.0190"/><rect height="0.0050" width="0.0050" x="-0.0806" y="-0.0239"/><rect height="0.0050" width="0.0050" x="-0.0816" y="-0.0288"/><rect height="0.0050" width="0.0050" x="-0.0820" y="-0.0337"/><rect height="0.0050" width="0.0050" x="-0.0820" y="-0.0386"/><rect height="0.0050" width="0.0050" x="-0.0816" y="-0.0436"/><rect height="0.0050" width="0.0050" x="-0.0807" y="-0.0485"/><rect height="0.0050" width="0.0050" x="-0.0794" y="-0.0533"/><rect height="0.0050" width="0.0050" x="-0.0776" y="-0.0581"/><rect height="0.0050" width="0.0050" x="-0.0754" y="-0.0628"/><rect height="0.0050" width="0.0050" x="-0.0727" y="-0.0675"/><rect height="0.0050" width="0.0050" x="-0.0696" y="-0.0720"/><rect height="0.0050" width="0.0050" x="-0.0662" y="-0.0764"/><rect height="0.0050" width="0.0050" x="-0.0623" y="-0.0806"/><rect height="0.0050" width="0.0050" x="-0.0580" y="-0.0847"/><rect height="0.0050" width="0.0050" x="-0.0534" y="-0.0886"/><rect height="0.0050" width="0.0050" x="-0.0484" y="-0.0923"/><rect height="0.0050" width="0.0050" x="-0.0431" y="-0.0958"/><rect height="0.0050" width="0.0050" x="-0.0375" y="-0.0991"/><rect height="0.0050" width="0.0050" x="-0.0315" y="-0.1022"/><rect height="0.0050" width="0.0050" x="-0.0253" y="-0.1051"/><rect height="0.0050" width="0.0050" x="-0.0189" y="-0.1077"/><rect height="0.0050" width="0.0050" x="-0.0122" y="-0.1100"/><rect height="0.0050" width="0.0050" x="-0.0053" y="-0.1121"/><rect height="0.0050" width="0.0050" x="0.0017" y="-0.1139"/><rect height="0.0050" width="0.0050" x="0.0089" y="-0.1154"/></g><g fill="rgb(66%, 7%, 55%)" fill-opacity="1.0" stroke="rgb(2%, 29%, 48%)" stroke-opacity="1.0" stroke-width="0.0100"><rect height="0.0037" width="0.0050" x="0.0556" y="-0.1590"/><rect height="0.0037" width="0.0050" x="0.0669" y="-0.1583"/><rect height="0.0037" width="0.0050" x="0.0782" y="-0.1572"/><rect height="0.0037" width="0.0050" x="0.0893" y="-0.1557"/><rect height="0.0037" width="0.0050" x="0.1002" y="-0.1537"/><rect height="0.0037" width="0.0050" x="0.1110" y="-0.1513"/><rect height="0.0037" width="0.0050" x="0.1215" y="-0.1485"/><rect height="0.0037" width="0.0050" x="0.1318" y="-0.1453"/><rect height="0.0037" width="0.0050" x="0.1417" y="-0.1416"/><rect height="0.0037" width="0.0050" x="0.1512" y="-0.1376"/><rect height="0.0037" width="0.0050" x="0.1604" y="-0.1333"/><rect height="0.0037" width="0.0050" x="0.1692" y="-0.1286"/><rect height="0.0038" width="0.0050" x="0.1775" y="-0.1235"/><rect height="0.0038" width="0.0050" x="0.1854" y="-0.1181"/><rect height="0.0038" width="0.0050" x="0.1927" y="-0.1125"/><rect height="0.0038" width="0.0050" x="0.1995" y="-0.1065"/><rect height="0.0038" width="0.0050" x="0.2057" y="-0.1004"/><rect height="0.0038" width="0.0050" x="0.2114" y="-0.0939"/><rect height="0.0038" width="0.0050" x="0.2164" y="-0.0873"/><rect height="0.0038" width="0.0050" x="0.2209" y="-0.0805"/><rect height="0.0038" width="0.0050" x="0.2247" y="-0.0735"/><rect height="0.0038" width="0.0050" x="0.2278" y="-0.0664"/><rect height="0.0038" width="0.0050" x="0.2303" y="-0.0591"/><rect height="0.0038" width="0.0050" x="0.2321" y="-0.0518"/><rect height="0.0038" width="0.0050" x="0.2333" y="-0.0445"/><rect height="0.0038" width="0.0050" x="0.2337" y="-0.0371"/><rect height="0.0038" width="0.0050" x="0.2335" y="-0.0297"/><rect height="0.0038" width="0.0050" x="0.2326" y="-0.0223"/><rect height="0.0038" width="0.0050" x="0.2310" y="-0.0149"/><rect height="0.0038" width="0.0050" x="0.2288" y="-0.0077"/><rect height="0.0038" width="0.0050" x="0.2259" y="-0.0005"/><rect height="0.0038" width="0.0050" x="0.2223" y="0.0065"/><rect height="0.0038" width="0.0050" x="0.2181" y="0.0134"/><rect height="0.0038" width="0.0050" x="0.2133" y="0.0201"/><rect height="0.0038" width="0.0050" x="0.2078" y="0.0266"/><rect height="0.0038" width="0.0050" x="0.2018" y="0.0329"/><rect height="0.0038" width="0.0050" x="0.1952" y="0.0389"/><rect height="0.0038" width="0.0050" x="0.1881" y="0.0447"/><rect height="0.0038" width="0.0050" x="0.1804" y="0.0502"/><rect height="0.0038" width="0.0050" x="0.1722" y="0.0553"/><rect height="0.0038" width="0.0050" x="0.1636" y="0.0602"/><rect height="0.0038" width="0.0050" x="0.1546" y="0.0647"/><rect height="0.0038" width="0.0050" x="0.1452" y="0.0688"/><rect height="0.0038" width="0.0050" x="0.1354" y="0.0725"/><rect height="0.0038" width="0.0050" x="0.1252" y="0.0759"/><rect height="0.0038" width="0.0050" x="0.1148" y="0.0789"/><rect height="0.0038" width="0.0050" x="0.1041" y="0.0814"/><rect height="0.0038" width="0.0050" x="0.0933" y="0.0836"/><rect height="0.0038" width="0.0050" x="0.0822" y="0.0853"/><rect height="0.0038" width="0.0050" x="0.0710" y="0.0865"/><rect height="0.0038" width="0.0050" x="0.0597" y="0.0873"/><rect height="0.0038" width="0.0050" x="0.0483" y="0.0877"/><rect height="0.0038" width="0.0050" x="0.0370" y="0.0877"/><rect height="0.0038" width="0.0050" x="0.0256" y="0.0872"/><rect height="0.0038" width="0.0050" x="0.0144" y="0.0862"/><rect height="0.0038" width="0.0050" x="0.0032" y="0.0848"/><rect height="0.0038" width="0.0050" x="-0.0078" y="0.0830"/><rect height="0.0038" width="0.0050" x="-0.0187" y="0.0807"/><rect height="0.0038" width="0.0050" x="-0.0293" y="0.0781"/><rect height="0.0038" width="0.0050" x="-0.0396" y="0.0750"/><rect height="0.0038" width="0.0050" x="-0.0497" y="0.0715"/><rect height="0.0038" width="0.0050" x="-0.0594" y="0.0677"/><rect height="0.0038" width="0.0050" x="-0.0687" y="0.0634"/><rect height="0.0038" width="0.0050" x="-0.0776" y="0.0588"/><rect height="0.0038" width="0.0050" x="-0.0861" y="0.0539"/><rect height="0.0038" width="0.0050" x="-0.0941" y="0.0487"/><rect height="0.0038" width="0.0050" x="-0.1016" y="0.0431"/><rect height="0.0038" width="0.0050" x="-0.1086" y="0.0373"/><rect height="0.0038" width="0.0050" x="-0.1151" y="0.0312"/><rect height="0.0038" width="0.0050" x="-0.1209" y="0.0248"/><rect height="0.0038" width="0.0050" x="-0.1262" y="0.0182"/><rect height="0.0038" width="0.0050" x="-0.1309" y="0.0115"/><rect height="0.0038" width="0.0050" x="-0.1349" y="0.0046"/><rect height="0.0038" width="0.0050" x="-0.1383" y="-0.0025"/><rect height="0.0038" width="0.0050" x="-0.1410" y="-0.0097"/><rect height="0.0038" width="0.0050" x="-0.1431" y="-0.0170"/><rect height="0.0038" width="0.0050" x="-0.1444" y="-0.0243"/><rect height="0.0038" width="0.0050" x="-0.1452" y="-0.0317"/><rect height="0.0038" width="0.0050" x="-0.1452" y="-0.0391"/><rect height="0.0038" width="0.0050" x="-0.1445" y="-0.0465"/><rect height="0.0038" width="0.0050" x="-0.1432" y="-0.0539"/><rect height="0.0038" width="0.0050" x="-0.1412" y="-0.0612"/><rect height="0.0038" width="0.0050" x="-0.1385" y="-0.0684"/><rect height="0.0038" width="0.0050" x="-0.1352" y="-0.0755"/><rect height="0.0038" width="0.0050" x="-0.1312" y="-0.0824"/><rect height="0.0038" width="0.0050" x="-0.1266" y="-0.0892"/><rect height="0.0038" width="0.0050" x="-0.1214" y="-0.0958"/><rect height="0.0038" width="0.0050" x="-0.1155" y="-0.1021"/><rect height="0.0038" width="0.0050" x="-0.1091" y="-0.1082"/><rect height="0.0038" width="0.0050" x="-0.1022" y="-0.1141"/><rect height="0.0038" width="0.0050" x="-0.0947" y="-0.1197"/><rect height="0.0038" width="0.0050" x="-0.0867" y="-0.1250"/><rect height="0.0037" width="0.0050" x="-0.0783" y="-0.1299"/><rect height="0.0037" width="0.0050" x="-0.0694" y="-0.1345"/><rect height="0.0037" width="0.0050" x="-0.0601" y="-0.1388"/><rect height="0.0037" width="0.0050" x="-0.0504" y="-0.1427"/><rect height="0.0037" width="0.0050" x="-0.0404" y="-0.1462"/><rect height="0.0037" width="0.0050" x="-0.0301" y="-0.1493"/><rect height="0.0037" width="0.0050" x="-0.0195" y="-0.1520"/><rect height="0.0037" width="0.0050" x="-0.0087" y="-0.1543"/></g><g fill="rgb(96%, 60%, 92%)" fill-opacity="1.0" stroke="rgb(2%, 29%, 48%)" stroke-opacity="1.0" stroke-width="0.0100"><rect height="0.0037" rx="0.0100" ry="0.0100" width="0.0050" x="0.0594" y="-0.2001"/><rect height="0.0037" rx="0.0100" ry="0.0100" width="0.0050" x="0.0745" y="-0.1992"/><rect height="0.0037" rx="0.0100" ry="0.0100" width="0.0050" x="0.0895" y="-0.1977"/><rect height="0.0037" rx="0.0100" ry="0.0100" width="0.0050" x="0.1043" y="-0.1957"/><rect height="0.0037" rx="0.0100" ry="0.0100" width="0.0050" x="0.1189" y="-0.1930"/><rect height="0.0037" rx="0.0100" ry="0.0100" width="0.0050" x="0.1333" y="-0.1898"/><rect height="0.0037" rx="0.0100" ry="0.0100" width="0.0050" x="0.1473" y="-0.1861"/><rect height="0.0037" rx="0.0100" ry="0.0100" width="0.0050" x="0.1609" y="-0.1818"/><rect height="0.0037" rx="0.0100" ry="0.0100" width="0.0050" x="0.1741" y="-0.1769"/><rect height="0.0037" rx="0.0100" ry="0.0100" width="0.0050" x="0.1869" y="-0.1716"/><rect height="0.0037" rx="0.0100" ry="0.0100" width="0.0050" x="0.1992" y="-0.1658"/><rect height="0.0037" rx="0.0100" ry="0.0100" width="0.0050" x="0.2108" y="-0.1595"/><rect height="0.0037" rx="0.0100" ry="0.0100" width="0.0050" x="0.2219" y="-0.1528"/><rect height="0.0037" rx="0.0100" ry="0.0100" width="0.0050" x="0.2324" y="-0.1456"/><rect height="0.0037" rx="0.0100" ry="0.0100" width="0.0050" x="0.2422" y="-0.1381"/><rect height="0.0037" rx="0.0100" ry="0.0100" width="0.0050" x="0.2512" y="-0.1302"/><rect height="0.0038" rx="0.0100" ry="0.0100" width="0.0050" x="0.2595" y="-0.1219"/><rect height="0.0038" rx="0.0100" ry="0.0100" width="0.0050" x="0.2671" y="-0.1133"/><rect height="0.0038" rx="0.0100" ry="0.0100" width="0.0050" x="0.2738" y="-0.1045"/><rect height="0.0038" rx="0.0100" ry="0.0100" width="0.0050" x="0.2797" y="-0.0954"/><rect height="0.0038" rx="0.0100" ry="0.0100" width="0.0050" x="0.2848" y="-0.0861"/><rect height="0.0038" rx="0.0100" ry="0.0100" width="0.0050" x="0.2890" y="-0.0766"/><rect height="0.0038" rx="0.0100" ry="0.0100" width="0.0050" x="0.2923" y="-0.0670"/><rect height="0.0038" rx="0.0100" ry="0.0100" width="0.0050" x="0.2948" y="-0.0572"/><rect height="0.0038" rx="0.0100" ry="0.0100" width="0.0050" x="0.2963" y="-0.0474"/><rect height="0.0038" rx="0.0100" ry="0.0100" width="0.0050" x="0.2969" y="-0.0375"/><rect height="0.0038" rx="0.0100" ry="0.0100" width="0.0050" x="0.2966" y="-0.0276"/><rect height="0.0038" rx="0.0100" ry="0.0100" width="0.0050" x="0.2954" y="-0.0178"/><rect height="0.0038" rx="0.0100" ry="0.0100" width="0.0050" x="0.2933" y="-0.0080"/><rect height="0.0038" rx="0.0100" ry="0.0100" width="0.0050" x="0.2903" y="0.0017"/><rect height="0.0038" rx="0.0100" ry="0.0100" width="0.0050" x="0.2864" y="0.0112"/><rect height="0.0038" rx="0.0100" ry="0.0100" width="0.0050" x="0.2817" y="0.0206"/><rect height="0.0038" rx="0.0100" ry="0.0100" width="0.0050" x="0.2760" y="0.0298"/><rect height="0.0038" rx="0.0100" ry="0.0100" width="0.0050" x="0.2696" y="0.0387"/><rect height="0.0038" rx="0.0100" ry="0.0100" width="0.0050" x="0.2623" y="0.0474"/><rect height="0.0038" rx="0.0100" ry="0.0100" width="0.0050" x="0.2543" y="0.0558"/><rect height="0.0038" rx="0.0100" ry="0.0100" width="0.0050" x="0.2455" y="0.0638"/><rect height="0.0038" rx="0.0100" ry="0.0100" width="0.0050" x="0.2360" y="0.0715"/><rect height="0.0038" rx="0.0100" ry="0.0100" width="0.0050" x="0.2258" y="0.0788"/><rect height="0.0038" rx="0.0100" ry="0.0100" width="0.0050" x="0.2149" y="0.0857"/><rect height="0.0038" rx="0.0100" ry="0.0100" width="0.0050" x="0.2034" y="0.0921"/><rect height="0.0038" rx="0.0100" ry="0.0100" width="0.0050" x="0.1914" y="0.0981"/><rect height="0.0038" rx="0.0100" ry="0.0100" width="0.0050" x="0.1788" y="0.1036"/><rect height="0.0038" rx="0.0100" ry="0.0100" width="0.0050" x="0.1657" y="0.1086"/><rect height="0.0038" rx="0.0100" ry="0.0100" width="0.0050" x="0.1522" y="0.1131"/><rect height="0.0038" rx="0.0100" ry="0.0100" width="0.0050" x="0.1383" y="0.1171"/><rect height="0.0038" rx="0.0100" ry="0.0100" width="0.0050" x="0.1241" y="0.1205"/><rect height="0.0037" rx="0.0100" ry="0.0100" width="0.0050" x="0.1096" y="0.1233"/><rect height="0.0037" rx="0.0100" ry="0.0100" width="0.0050" x="0.0948" y="0.1256"/><rect height="0.0037" rx="0.0100" ry="0.0100" width="0.0050" x="0.0799" y="0.1273"/><rect height="0.0037" rx="0.0100" ry="0.0100" width="0.0050" x="0.0648" y="0.1284"/><rect height="0.0037" rx="0.0100" ry="0.0100" width="0.0050" x="0.0497" y="0.1289"/><rect height="0.0037" rx="0.0100" ry="0.0100" width="0.0050" x="0.0345" y="0.1288"/><rect height="0.0037" rx="0.0100" ry="0.0100" width="0.0050" x="0.0194" y="0.1281"/><rect height="0.0037" rx="0.0100" ry="0.0100" width="0.0050" x="0.0044" y="0.1269"/><rect height="0.0037" rx="0.0100" ry="0.0100" width="0.0050" x="-0.0105" y="0.1250"/><rect height="0.0037" rx="0.0100" ry="0.0100" width="0.0050" x="-0.0252" y="0.1226"/><rect height="0.0038" rx="0.0100" ry="0.0100" width="0.0050" x="-0.0396" y="0.1196"/><rect height="0.0038" rx="0.0100" ry="0.0100" width="0.0050" x="-0.0538" y="0.1160"/><rect height="0.0038" rx="0.0100" ry="0.0100" width="0.0050" x="-0.0676" y="0.1119"/><rect height="0.0038" rx="0.0100" ry="0.0100" width="0.0050" x="-0.0810" y="0.1073"/><rect height="0.0038" rx="0.0100" ry="0.0100" width="0.0050" x="-0.0939" y="0.1021"/><rect height="0.0038" rx="0.0100" ry="0.0100" width="0.0050" x="-0.1063" y="0.0965"/><rect height="0.0038" rx="0.0100" ry="0.0100" width="0.0050" x="-0.1182" y="0.0904"/><rect height="0.0038" rx="0.0100" ry="0.0100" width="0.0050" x="-0.1295" y="0.0838"/><rect height="0.0038" rx="0.0100" ry="0.0100" width="0.0050" x="-0.1402" y="0.0768"/><rect height="0.0038" rx="0.0100" ry="0.0100" width="0.0050" x="-0.1502" y="0.0694"/><rect height="0.0038" rx="0.0100" ry="0.0100" width="0.0050" x="-0.1596" y="0.0616"/><rect height="0.0038" rx="0.0100" ry="0.0100" width="0.0050" x="-0.1682" y="0.0534"/><rect height="0.0038" rx="0.0100" ry="0.0100" width="0.0050" x="-0.1760" y="0.0450"/><rect height="0.0038" rx="0.0100" ry="0.0100" width="0.0050" x="-0.1830" y="0.0362"/><rect height="0.0038" rx="0.0100" ry="0.0100" width="0.0050" x="-0.1892" y="0.0272"/><rect height="0.0038" rx="0.0100" ry="0.0100" width="0.0050" x="-0.1946" y="0.0180"/><rect height="0.0038" rx="0.0100" ry="0.0100" width="0.0050" x="-0.1991" y="0.0086"/><rect height="0.0038" rx="0.0100" ry="0.0100" width="0.0050" x="-0.2027" y="-0.0010"/><rect height="0.0038" rx="0.0100" ry="0.0100" width="0.0050" x="-0.2055" y="-0.0107"/><rect height="0.0038" rx="0.0100" ry="0.0100" width="0.0050" x="-0.2073" y="-0.0205"/><rect height="0.0038" rx="0.0100" ry="0.0100" width="0.0050" x="-0.2083" y="-0.0304"/><rect height="0.0038" rx="0.0100" ry="0.0100" width="0.0050" x="-0.2083" y="-0.0403"/><rect height="0.0038" rx="0.0100" ry="0.0100" width="0.0050" x="-0.2075" y="-0.0501"/><rect height="0.0038" rx="0.0100" ry="0.0100" width="0.0050" x="-0.2057" y="-0.0599"/><rect height="0.0038" rx="0.0100" ry="0.0100" width="0.0050" x="-0.2030" y="-0.0697"/><rect height="0.0038" rx="0.0100" ry="0.0100" width="0.0050" x="-0.1994" y="-0.0793"/><rect height="0.0038" rx="0.0100" ry="0.0100" width="0.0050" x="-0.1950" y="-0.0887"/><rect height="0.0038" rx="0.0100" ry="0.0100" width="0.0050" x="-0.1897" y="-0.0980"/><rect height="0.0038" rx="0.0100" ry="0.0100" width="0.0050" x="-0.1835" y="-0.1070"/><rect height="0.0038" rx="0.0100" ry="0.0100" width="0.0050" x="-0.1766" y="-0.1158"/><rect height="0.0038" rx="0.0100" ry="0.0100" width="0.0050" x="-0.1688" y="-0.1242"/><rect height="0.0037" rx="0.0100" ry="0.0100" width="0.0050" x="-0.1603" y="-0.1324"/><rect height="0.0037" rx="0.0100" ry="0.0100" width="0.0050" x="-0.1510" y="-0.1402"/><rect height="0.0037" rx="0.0100" ry="0.0100" width="0.0050" x="-0.1410" y="-0.1477"/><rect height="0.0037" rx="0.0100" ry="0.0100" width="0.0050" x="-0.1304" y="-0.1547"/><rect height="0.0037" rx="0.0100" ry="0.0100" width="0.0050" x="-0.1191" y="-0.1613"/><rect height="0.0037" rx="0.0100" ry="0.0100" width="0.0050" x="-0.1073" y="-0.1675"/><rect height="0.0037" rx="0.0100" ry="0.0100" width="0.0050" x="-0.0949" y="-0.1732"/><rect height="0.0037" rx="0.0100" ry="0.0100" width="0.0050" x="-0.0820" y="-0.1783"/><rect height="0.0037" rx="0.0100" ry="0.0100" width="0.0050" x="-0.0686" y="-0.1830"/><rect height="0.0037" rx="0.0100" ry="0.0100" width="0.0050" x="-0.0549" y="-0.1872"/><rect height="0.0037" rx="0.0100" ry="0.0100" width="0.0050" x="-0.0408" y="-0.1908"/><rect height="0.0037" rx="0.0100" ry="0.0100" width="0.0050" x="-0.0264" y="-0.1938"/></g><g fill="rgb(100%, 71%, 35%)" fill-opacity="1.0" stroke="rgb(2%, 29%, 48%)" stroke-opacity="1.0" stroke-width="0"><ellipse cx="6.568206268651755e-2" cy="-0.23928803044560698" rx="2.5e-3" ry="1.875e-3"/><ellipse cx="8.455256406514156e-2" cy="-0.23817835683347732" rx="2.5e-3" ry="1.875e-3"/><ellipse cx="0.10328699329142399" cy="-0.23633333870922446" rx="2.5e-3" ry="1.875e-3"/><ellipse cx="0.12181792665090585" cy="-0.23375961614571505" rx="2.5e-3" ry="1.875e-3"/><ellipse cx="0.14007867279449937" cy="-0.2304664517648911" rx="2.5e-3" ry="1.875e-3"/><ellipse cx="0.15800351275532742" cy="-0.2264656974023328" rx="2.5e-3" ry="1.875e-3"/><ellipse cx="0.17552793646603493" cy="-0.22177175145344896" rx="2.5e-3" ry="1.875e-3"/><ellipse cx="0.19258887492537013" cy="-0.21640150705480232" rx="2.5e-3" ry="1.875e-3"/><ellipse cx="0.20912492717848197" cy="-0.21037429128705998" rx="2.5e-3" ry="1.875e-3"/><ellipse cx="0.2250765812940524" cy="-0.20371179561837383" rx="2.5e-3" ry="1.875e-3"/><ellipse cx="0.2403864285429853" cy="-0.19643799783851934" rx="2.5e-3" ry="1.875e-3"/><ellipse cx="0.254999370007835" cy="-0.18857907576474486" rx="2.5e-3" ry="1.875e-3"/><ellipse cx="0.26886281487941077" cy="-0.18016331302989863" rx="2.5e-3" ry="1.875e-3"/><ellipse cx="0.28192686972689973" cy="-0.1712209972918931" rx="2.5e-3" ry="1.875e-3"/><ellipse cx="0.2941445180603366" cy="-0.1617843112308428" rx="2.5e-3" ry="1.875e-3"/><ellipse cx="0.30547178953919807" cy="-0.15188721672616934" rx="2.5e-3" ry="1.875e-3"/><ellipse cx="0.3158679182181452" cy="-0.1415653326305103" rx="2.5e-3" ry="1.875e-3"/><ellipse cx="0.3252954892604061" cy="-0.13085580658031282" rx="2.5e-3" ry="1.875e-3"/><ellipse cx="0.3337205735907829" cy="-0.11979718130445738" rx="2.5e-3" ry="1.875e-3"/><ellipse cx="0.34111285000368596" cy="-0.10842925591205466" rx="2.5e-3" ry="1.875e-3"/><ellipse cx="0.34744571428672955" cy="-9.679294265863125e-2" rx="2.5e-3" ry="1.875e-3"/><ellipse cx="0.352696374967167" cy="-8.493011970618924e-2" rx="2.5e-3" ry="1.875e-3"/><ellipse cx="0.35684593533658204" cy="-7.288348040704562e-2" rx="2.5e-3" ry="1.875e-3"/><ellipse cx="0.35987946145863203" cy="-6.0696379653868204e-2" rx="2.5e-3" ry="1.875e-3"/><ellipse cx="0.36178603591509306" cy="-4.841267784887904e-2" rx="2.5e-3" ry="1.875e-3"/><ellipse cx="0.36255879709677497" cy="-3.607658305376993e-2" rx="2.5e-3" ry="1.875e-3"/><ellipse cx="0.3621949638979056" cy="-2.3732491888419416e-2" rx="2.5e-3" ry="1.875e-3"/><ellipse cx="0.3606958457251084" cy="-1.1424829751004117e-2" rx="2.5e-3" ry="1.875e-3"/><ellipse cx="0.35806683778495163" cy="8.021090654613539e-4" rx="2.5e-3" ry="1.875e-3"/><ellipse cx="0.3543174016670325" cy="1.290432078474718e-2" rx="2.5e-3" ry="1.875e-3"/><ellipse cx="0.3494610312924702" cy="2.483825051348426e-2" rx="2.5e-3" ry="1.875e-3"/><ellipse cx="0.3435152043503624" cy="3.656094899174683e-2" rx="2.5e-3" ry="1.875e-3"/><ellipse cx="0.33650131939697836" cy="4.803022716400818e-2" rx="2.5e-3" ry="1.875e-3"/><ellipse cx="0.32844461884406306" cy="5.9204808014182264e-2" rx="2.5e-3" ry="1.875e-3"/><ellipse cx="0.31937409811341455" cy="7.004447511830769e-2" rx="2.5e-3" ry="1.875e-3"/><ellipse cx="0.3093224012846769" cy="8.051021738024539e-2" rx="2.5e-3" ry="1.875e-3"/><ellipse cx="0.29832570361190314" cy="9.056436942949764e-2" rx="2.5e-3" ry="1.875e-3"/><ellipse cx="0.2864235813317064" cy="0.10017074717586849" rx="2.5e-3" ry="1.875e-3"/><ellipse cx="0.2736588692315465" cy="0.10929477803311416" rx="2.5e-3" ry="1.875e-3"/><ellipse cx="0.2600775064907481" cy="0.11790362534291932" rx="2.5e-3" ry="1.875e-3"/><ellipse cx="0.24572837134906766" cy="0.12596630655140828" rx="2.5e-3" ry="1.875e-3"/><ellipse cx="0.23066310519780808" cy="0.1334538047128812" rx="2.5e-3" ry="1.875e-3"/><ellipse cx="0.2149359267265789" cy="0.1403391729194845" rx="2.5e-3" ry="1.875e-3"/><ellipse cx="0.19860343679456216" cy="0.14659763128097986" rx="2.5e-3" ry="1.875e-3"/><ellipse cx="0.18172441472853984" cy="0.15220665610558975" rx="2.5e-3" ry="1.875e-3"/><ellipse cx="0.16435960678079398" cy="0.15714606096096567" rx="2.5e-3" ry="1.875e-3"/><ellipse cx="0.1465715075081936" cy="0.16139806932354533" rx="2.5e-3" ry="1.875e-3"/><ellipse cx="0.1284241348592785" cy="0.16494737855484143" rx="2.5e-3" ry="1.875e-3"/><ellipse cx="0.10998279977877368" cy="0.16778121497441528" rx="2.5e-3" ry="1.875e-3"/><ellipse cx="9.131387115871725e-2" cy="0.16988937983133262" rx="2.5e-3" ry="1.875e-3"/><ellipse cx="7.248453698211765e-2" cy="0.1712642860086533" rx="2.5e-3" ry="1.875e-3"/><ellipse cx="5.3562562518769896e-2" cy="0.17190098532885945" rx="2.5e-3" ry="1.875e-3"/><ellipse cx="3.4616046443461834e-2" cy="0.17179718636195118" rx="2.5e-3" ry="1.875e-3"/><ellipse cx="1.5713175754282216e-2" cy="0.1709532626721198" rx="2.5e-3" ry="1.875e-3"/><ellipse cx="-3.078019626938211e-3" cy="0.16937225147332058" rx="2.5e-3" ry="1.875e-3"/><ellipse cx="-2.1689911688883123e-2" cy="0.16705984269858198" rx="2.5e-3" ry="1.875e-3"/><ellipse cx="-4.0055517718561084e-2" cy="0.1640243585223911" rx="2.5e-3" ry="1.875e-3"/><ellipse cx="-5.810874136673927e-2" cy="0.160276723409853" rx="2.5e-3" ry="1.875e-3"/><ellipse cx="-7.578461052342689e-2" cy="0.15583042480041226" rx="2.5e-3" ry="1.875e-3"/><ellipse cx="-9.301951114730722e-2" cy="0.15070146456763672" rx="2.5e-3" ry="1.875e-3"/><ellipse cx="-0.1097514162075941" cy="0.14490830142975197" rx="2.5e-3" ry="1.875e-3"/><ellipse cx="-0.12592010891435923" cy="0.13847178451818887" rx="2.5e-3" ry="1.875e-3"/><ellipse cx="-0.14146739943395126" cy="0.13141507834322508" rx="2.5e-3" ry="1.875e-3"/><ellipse cx="-0.15633733430955854" cy="0.12376357942676214" rx="2.5e-3" ry="1.875e-3"/><ellipse cx="-0.17047639783323143" cy="0.11554482490227208" rx="2.5e-3" ry="1.875e-3"/><ellipse cx="-0.1838337046446411" cy="0.10678839341085328" rx="2.5e-3" ry="1.875e-3"/><ellipse cx="-0.19636118286342685" cy="9.752579865006361e-2" rx="2.5e-3" ry="1.875e-3"/><ellipse cx="-0.20801374709605436" cy="8.779037595863992e-2" rx="2.5e-3" ry="1.875e-3"/><ellipse cx="-0.21874946069454482" cy="7.761716234527644e-2" rx="2.5e-3" ry="1.875e-3"/><ellipse cx="-0.22852968668312368" cy="6.704277039322892e-2" rx="2.5e-3" ry="1.875e-3"/><ellipse cx="-0.23731922680960826" cy="5.6105256494551836e-2" rx="2.5e-3" ry="1.875e-3"/><ellipse cx="-0.24508644822110792" cy="4.4843983888182726e-2" rx="2.5e-3" ry="1.875e-3"/><ellipse cx="-0.2518033973081333" cy="3.329948099478969e-2" rx="2.5e-3" ry="1.875e-3"/><ellipse cx="-0.2574459003074061" cy="2.1513295558221734e-2" rx="2.5e-3" ry="1.875e-3"/><ellipse cx="-0.26199365030130095" cy="9.527845118497469e-3" rx="2.5e-3" ry="1.875e-3"/><ellipse cx="-0.26543028030082016" cy="-2.613735645533022e-3" rx="2.5e-3" ry="1.875e-3"/><ellipse cx="-0.26774342214908076" cy="-1.4867750154453296e-2" rx="2.5e-3" ry="1.875e-3"/><ellipse cx="-0.2689247510333224" cy="-2.719009718877874e-2" rx="2.5e-3" ry="1.875e-3"/><ellipse cx="-0.2689700154452438" cy="-3.953642960572379e-2" rx="2.5e-3" ry="1.875e-3"/><ellipse cx="-0.26787905248184185" cy="-5.186231394102625e-2" rx="2.5e-3" ry="1.875e-3"/><ellipse cx="-0.26565578843168614" cy="-6.412339032143699e-2" rx="2.5e-3" ry="1.875e-3"/><ellipse cx="-0.2623082246445201" cy="-7.627553211236027e-2" rx="2.5e-3" ry="1.875e-3"/><ellipse cx="-0.2578484087350426" cy="-8.827500472608663e-2" rx="2.5e-3" ry="1.875e-3"/><ellipse cx="-0.25229239122450453" cy="-0.10007862301908255" rx="2.5e-3" ry="1.875e-3"/><ellipse cx="-0.24566016777616473" cy="-0.11164390671187086" rx="2.5e-3" ry="1.875e-3"/><ellipse cx="-0.23797560723249545" cy="-0.12292923327216554" rx="2.5e-3" ry="1.875e-3"/><ellipse cx="-0.22926636571312464" cy="-0.13389398771103944" rx="2.5e-3" ry="1.875e-3"/><ellipse cx="-0.21956378708266944" cy="-0.1444987087530265" rx="2.5e-3" ry="1.875e-3"/><ellipse cx="-0.20890279014667223" cy="-0.15470523085410026" rx="2.5e-3" ry="1.875e-3"/><ellipse cx="-0.19732174298160743" cy="-0.16447682155641774" rx="2.5e-3" ry="1.875e-3"/><ellipse cx="-0.184862324851239" cy="-0.17377831368550256" rx="2.5e-3" ry="1.875e-3"/><ellipse cx="-0.17156937620627954" cy="-0.1825762319140959" rx="2.5e-3" ry="1.875e-3"/><ellipse cx="-0.15749073730718877" cy="-0.19083891323718638" rx="2.5e-3" ry="1.875e-3"/><ellipse cx="-0.1426770760508982" cy="-0.19853662092463598" rx="2.5e-3" ry="1.875e-3"/><ellipse cx="-0.12718170562109543" cy="-0.20564165154129654" rx="2.5e-3" ry="1.875e-3"/><ellipse cx="-0.11106039261833656" cy="-0.21212843464946052" rx="2.5e-3" ry="1.875e-3"/><ellipse cx="-9.43711563605023e-2" cy="-0.21797362483482352" rx="2.5e-3" ry="1.875e-3"/><ellipse cx="-7.717406007590832e-2" cy="-0.22315618572476636" rx="2.5e-3" ry="1.875e-3"/><ellipse cx="-5.953099474054402e-2" cy="-0.22765746569657908" rx="2.5e-3" ry="1.875e-3"/><ellipse cx="-4.150545633739233e-2" cy="-0.23146126500316244" rx="2.5e-3" ry="1.875e-3"/></g><g fill="rgb(73%, 34%, 1%)" fill-opacity="1.0" stroke="rgb(2%, 29%, 48%)" stroke-opacity="1.0" stroke-width="0.0100"><polyline points="0.0695,-0.2779
0.0695,-0.2829"/><polyline points="0.0921,-0.2765
0.0921,-0.2815"/><polyline points="0.1146,-0.2743
0.1146,-0.2793"/><polyline points="0.1368,-0.2712
0.1368,-0.2762"/><polyline points="0.1587,-0.2673
0.1587,-0.2723"/><polyline points="0.1803,-0.2625
0.1803,-0.2675"/><polyline points="0.2013,-0.2569
0.2013,-0.2619"/><polyline points="0.2218,-0.2504
0.2218,-0.2554"/><polyline points="0.2416,-0.2432
0.2416,-0.2482"/><polyline points="0.2607,-0.2352
0.2607,-0.2402"/><polyline points="0.2791,-0.2265
0.2791,-0.2315"/><polyline points="0.2967,-0.2170
0.2967,-0.2220"/><polyline points="0.3133,-0.2069
0.3133,-0.2119"/><polyline points="0.3290,-0.1962
0.3290,-0.2012"/><polyline points="0.3436,-0.1849
0.3436,-0.1899"/><polyline points="0.3572,-0.1730
0.3572,-0.1780"/><polyline points="0.3697,-0.1606
0.3697,-0.1656"/><polyline points="0.3810,-0.1478
0.3810,-0.1528"/><polyline points="0.3911,-0.1345
0.3911,-0.1395"/><polyline points="0.4000,-0.1208
0.4000,-0.1258"/><polyline points="0.4076,-0.1069
0.4076,-0.1119"/><polyline points="0.4139,-0.0926
0.4139,-0.0976"/><polyline points="0.4189,-0.0782
0.4189,-0.0832"/><polyline points="0.4225,-0.0636
0.4225,-0.0686"/><polyline points="0.4248,-0.0488
0.4248,-0.0538"/><polyline points="0.4257,-0.0340
0.4257,-0.0390"/><polyline points="0.4253,-0.0192
0.4253,-0.0242"/><polyline points="0.4235,-0.0044
0.4235,-0.0094"/><polyline points="0.4203,0.0102
0.4203,0.0052"/><polyline points="0.4158,0.0248
0.4158,0.0198"/><polyline points="0.4100,0.0391
0.4100,0.0341"/><polyline points="0.4029,0.0531
0.4029,0.0481"/><polyline points="0.3945,0.0669
0.3945,0.0619"/><polyline points="0.3848,0.0803
0.3848,0.0753"/><polyline points="0.3739,0.0933
0.3739,0.0883"/><polyline points="0.3618,0.1059
0.3618,0.1009"/><polyline points="0.3486,0.1179
0.3486,0.1129"/><polyline points="0.3344,0.1295
0.3344,0.1245"/><polyline points="0.3190,0.1404
0.3190,0.1354"/><polyline points="0.3027,0.1508
0.3027,0.1458"/><polyline points="0.2855,0.1604
0.2855,0.1554"/><polyline points="0.2674,0.1694
0.2674,0.1644"/><polyline points="0.2486,0.1777
0.2486,0.1727"/><polyline points="0.2290,0.1852
0.2290,0.1802"/><polyline points="0.2087,0.1919
0.2087,0.1869"/><polyline points="0.1879,0.1978
0.1879,0.1928"/><polyline points="0.1665,0.2029
0.1665,0.1979"/><polyline points="0.1448,0.2072
0.1448,0.2022"/><polyline points="0.1226,0.2106
0.1226,0.2056"/><polyline points="0.1002,0.2131
0.1002,0.2081"/><polyline points="0.0776,0.2148
0.0776,0.2098"/><polyline points="0.0549,0.2156
0.0549,0.2106"/><polyline points="0.0322,0.2154
0.0322,0.2104"/><polyline points="0.0095,0.2144
0.0095,0.2094"/><polyline points="-0.0130,0.2125
-0.0130,0.2075"/><polyline points="-0.0354,0.2097
-0.0354,0.2047"/><polyline points="-0.0574,0.2061
-0.0574,0.2011"/><polyline points="-0.0791,0.2016
-0.0791,0.1966"/><polyline points="-0.1003,0.1963
-0.1003,0.1913"/><polyline points="-0.1210,0.1901
-0.1210,0.1851"/><polyline points="-0.1411,0.1832
-0.1411,0.1782"/><polyline points="-0.1605,0.1754
-0.1605,0.1704"/><polyline points="-0.1791,0.1670
-0.1791,0.1620"/><polyline points="-0.1970,0.1578
-0.1970,0.1528"/><polyline points="-0.2139,0.1479
-0.2139,0.1429"/><polyline points="-0.2299,0.1374
-0.2299,0.1324"/><polyline points="-0.2450,0.1263
-0.2450,0.1213"/><polyline points="-0.2590,0.1146
-0.2590,0.1096"/><polyline points="-0.2718,0.1024
-0.2718,0.0974"/><polyline points="-0.2836,0.0897
-0.2836,0.0847"/><polyline points="-0.2941,0.0766
-0.2941,0.0716"/><polyline points="-0.3035,0.0631
-0.3035,0.0581"/><polyline points="-0.3115,0.0492
-0.3115,0.0442"/><polyline points="-0.3183,0.0351
-0.3183,0.0301"/><polyline points="-0.3237,0.0207
-0.3237,0.0157"/><polyline points="-0.3279,0.0061
-0.3279,0.0011"/><polyline points="-0.3306,-0.0086
-0.3306,-0.0136"/><polyline points="-0.3321,-0.0234
-0.3321,-0.0284"/><polyline points="-0.3321,-0.0382
-0.3321,-0.0432"/><polyline points="-0.3308,-0.0530
-0.3308,-0.0580"/><polyline points="-0.3281,-0.0677
-0.3281,-0.0727"/><polyline points="-0.3241,-0.0823
-0.3241,-0.0873"/><polyline points="-0.3188,-0.0967
-0.3188,-0.1017"/><polyline points="-0.3121,-0.1108
-0.3121,-0.1158"/><polyline points="-0.3041,-0.1247
-0.3041,-0.1297"/><polyline points="-0.2949,-0.1382
-0.2949,-0.1432"/><polyline points="-0.2845,-0.1514
-0.2845,-0.1564"/><polyline points="-0.2728,-0.1641
-0.2728,-0.1691"/><polyline points="-0.2600,-0.1764
-0.2600,-0.1814"/><polyline points="-0.2461,-0.1881
-0.2461,-0.1931"/><polyline points="-0.2312,-0.1993
-0.2312,-0.2043"/><polyline points="-0.2152,-0.2098
-0.2152,-0.2148"/><polyline points="-0.1983,-0.2197
-0.1983,-0.2247"/><polyline points="-0.1806,-0.2290
-0.1806,-0.2340"/><polyline points="-0.1620,-0.2375
-0.1620,-0.2425"/><polyline points="-0.1426,-0.2453
-0.1426,-0.2503"/><polyline points="-0.1226,-0.2523
-0.1226,-0.2573"/><polyline points="-0.1020,-0.2585
-0.1020,-0.2635"/><polyline points="-0.0808,-0.2639
-0.0808,-0.2689"/><polyline points="-0.0592,-0.2685
-0.0592,-0.2735"/></g><g fill="rgb(21%, 29%, 7%)" fill-opacity="1.0" stroke="rgb(2%, 29%, 48%)" stroke-opacity="1.0" stroke-width="0.0100"><polyline points="0.0708,-0.3215
0.0758,-0.3215"/><polyline points="0.0972,-0.3199
0.1022,-0.3199"/><polyline points="0.1234,-0.3173
0.1284,-0.3173"/><polyline points="0.1493,-0.3137
0.1543,-0.3137"/><polyline points="0.1749,-0.3091
0.1799,-0.3091"/><polyline points="0.2000,-0.3035
0.2050,-0.3035"/><polyline points="0.2245,-0.2969
0.2295,-0.2969"/><polyline points="0.2484,-0.2894
0.2534,-0.2894"/><polyline points="0.2716,-0.2810
0.2766,-0.2810"/><polyline points="0.2939,-0.2717
0.2989,-0.2717"/><polyline points="0.3153,-0.2615
0.3203,-0.2615"/><polyline points="0.3358,-0.2505
0.3408,-0.2505"/><polyline points="0.3552,-0.2387
0.3602,-0.2387"/><polyline points="0.3735,-0.2262
0.3785,-0.2262"/><polyline points="0.3906,-0.2130
0.3956,-0.2130"/><polyline points="0.4065,-0.1991
0.4115,-0.1991"/><polyline points="0.4210,-0.1846
0.4260,-0.1846"/><polyline points="0.4342,-0.1697
0.4392,-0.1697"/><polyline points="0.4460,-0.1542
0.4510,-0.1542"/><polyline points="0.4564,-0.1383
0.4614,-0.1383"/><polyline points="0.4652,-0.1220
0.4702,-0.1220"/><polyline points="0.4726,-0.1054
0.4776,-0.1054"/><polyline points="0.4784,-0.0885
0.4834,-0.0885"/><polyline points="0.4826,-0.0714
0.4876,-0.0714"/><polyline points="0.4853,-0.0542
0.4903,-0.0542"/><polyline points="0.4864,-0.0370
0.4914,-0.0370"/><polyline points="0.4859,-0.0197
0.4909,-0.0197"/><polyline points="0.4838,-0.0025
0.4888,-0.0025"/><polyline points="0.4801,0.0147
0.4851,0.0147"/><polyline points="0.4748,0.0316
0.4798,0.0316"/><polyline points="0.4680,0.0483
0.4730,0.0483"/><polyline points="0.4597,0.0647
0.4647,0.0647"/><polyline points="0.4499,0.0808
0.4549,0.0808"/><polyline points="0.4386,0.0964
0.4436,0.0964"/><polyline points="0.4259,0.1116
0.4309,0.1116"/><polyline points="0.4119,0.1263
0.4169,0.1263"/><polyline points="0.3965,0.1403
0.4015,0.1403"/><polyline points="0.3798,0.1538
0.3848,0.1538"/><polyline points="0.3619,0.1666
0.3669,0.1666"/><polyline points="0.3429,0.1786
0.3479,0.1786"/><polyline points="0.3228,0.1899
0.3278,0.1899"/><polyline points="0.3017,0.2004
0.3067,0.2004"/><polyline points="0.2797,0.2100
0.2847,0.2100"/><polyline points="0.2568,0.2188
0.2618,0.2188"/><polyline points="0.2332,0.2266
0.2382,0.2266"/><polyline points="0.2089,0.2335
0.2139,0.2335"/><polyline points="0.1840,0.2395
0.1890,0.2395"/><polyline points="0.1586,0.2445
0.1636,0.2445"/><polyline points="0.1328,0.2484
0.1378,0.2484"/><polyline points="0.1066,0.2514
0.1116,0.2514"/><polyline points="0.0803,0.2533
0.0853,0.2533"/><polyline points="0.0538,0.2542
0.0588,0.2542"/><polyline points="0.0273,0.2541
0.0323,0.2541"/><polyline points="0.0008,0.2529
0.0058,0.2529"/><polyline points="-0.0255,0.2507
-0.0205,0.2507"/><polyline points="-0.0516,0.2474
-0.0466,0.2474"/><polyline points="-0.0773,0.2432
-0.0723,0.2432"/><polyline points="-0.1025,0.2379
-0.0975,0.2379"/><polyline points="-0.1273,0.2317
-0.1223,0.2317"/><polyline points="-0.1514,0.2245
-0.1464,0.2245"/><polyline points="-0.1748,0.2164
-0.1698,0.2164"/><polyline points="-0.1975,0.2074
-0.1925,0.2074"/><polyline points="-0.2193,0.1975
-0.2143,0.1975"/><polyline points="-0.2401,0.1868
-0.2351,0.1868"/><polyline points="-0.2599,0.1753
-0.2549,0.1753"/><polyline points="-0.2786,0.1630
-0.2736,0.1630"/><polyline points="-0.2961,0.1501
-0.2911,0.1501"/><polyline points="-0.3124,0.1364
-0.3074,0.1364"/><polyline points="-0.3274,0.1222
-0.3224,0.1222"/><polyline points="-0.3411,0.1074
-0.3361,0.1074"/><polyline points="-0.3534,0.0921
-0.3484,0.0921"/><polyline points="-0.3643,0.0763
-0.3593,0.0763"/><polyline points="-0.3737,0.0602
-0.3687,0.0602"/><polyline points="-0.3816,0.0437
-0.3766,0.0437"/><polyline points="-0.3880,0.0269
-0.3830,0.0269"/><polyline points="-0.3928,0.0099
-0.3878,0.0099"/><polyline points="-0.3960,-0.0073
-0.3910,-0.0073"/><polyline points="-0.3977,-0.0245
-0.3927,-0.0245"/><polyline points="-0.3978,-0.0418
-0.3928,-0.0418"/><polyline points="-0.3962,-0.0591
-0.3912,-0.0591"/><polyline points="-0.3931,-0.0762
-0.3881,-0.0762"/><polyline points="-0.3884,-0.0932
-0.3834,-0.0932"/><polyline points="-0.3822,-0.1100
-0.3772,-0.1100"/><polyline points="-0.3744,-0.1266
-0.3694,-0.1266"/><polyline points="-0.3651,-0.1428
-0.3601,-0.1428"/><polyline points="-0.3544,-0.1586
-0.3494,-0.1586"/><polyline points="-0.3422,-0.1739
-0.3372,-0.1739"/><polyline points="-0.3286,-0.1888
-0.3236,-0.1888"/><polyline points="-0.3137,-0.2030
-0.3087,-0.2030"/><polyline points="-0.2974,-0.2167
-0.2924,-0.2167"/><polyline points="-0.2800,-0.2297
-0.2750,-0.2297"/><polyline points="-0.2614,-0.2421
-0.2564,-0.2421"/><polyline points="-0.2417,-0.2536
-0.2367,-0.2536"/><polyline points="-0.2209,-0.2644
-0.2159,-0.2644"/><polyline points="-0.1993,-0.2744
-0.1943,-0.2744"/><polyline points="-0.1767,-0.2834
-0.1717,-0.2834"/><polyline points="-0.1533,-0.2916
-0.1483,-0.2916"/><polyline points="-0.1292,-0.2989
-0.1242,-0.2989"/><polyline points="-0.1045,-0.3052
-0.0995,-0.3052"/><polyline points="-0.0793,-0.3105
-0.0743,-0.3105"/></g><g fill="rgb(53%, 51%, 28%)" fill-opacity="1.0" stroke="rgb(2%, 29%, 48%)" stroke-opacity="1.0" stroke-width="0.0100"><polygon points="0,0 0.0050,-0.0050 0.0050,0" transform="translate(0.0770, -0.3625)"/><polygon points="0,0 0.0050,-0.0050 0.0050,0" transform="translate(0.1072, -0.3608)"/><polygon points="0,0 0.0050,-0.0050 0.0050,0" transform="translate(0.1372, -0.3578)"/><polygon points="0,0 0.0050,-0.0050 0.0050,0" transform="translate(0.1669, -0.3537)"/><polygon points="0,0 0.0050,-0.0050 0.0050,0" transform="translate(0.1961, -0.3484)"/><polygon points="0,0 0.0050,-0.0050 0.0050,0" transform="translate(0.2248, -0.3420)"/><polygon points="0,0 0.0050,-0.0050 0.0050,0" transform="translate(0.2528, -0.3345)"/><polygon points="0,0 0.0050,-0.0050 0.0050,0" transform="translate(0.2801, -0.3259)"/><polygon points="0,0 0.0050,-0.0050 0.0050,0" transform="translate(0.3066, -0.3163)"/><polygon points="0,0 0.0050,-0.0050 0.0050,0" transform="translate(0.3321, -0.3056)"/><polygon points="0,0 0.0050,-0.0050 0.0050,0" transform="translate(0.3566, -0.2940)"/><polygon points="0,0 0.0050,-0.0050 0.0050,0" transform="translate(0.3800, -0.2814)"/><polygon points="0,0 0.0050,-0.0050 0.0050,0" transform="translate(0.4021, -0.2679)"/><polygon points="0,0 0.0050,-0.0050 0.0050,0" transform="translate(0.4230, -0.2536)"/><polygon points="0,0 0.0050,-0.0050 0.0050,0" transform="translate(0.4426, -0.2385)"/><polygon points="0,0 0.0050,-0.0050 0.0050,0" transform="translate(0.4607, -0.2227)"/><polygon points="0,0 0.0050,-0.0050 0.0050,0" transform="translate(0.4773, -0.2062)"/><polygon points="0,0 0.0050,-0.0050 0.0050,0" transform="translate(0.4924, -0.1891)"/><polygon points="0,0 0.0050,-0.0050 0.0050,0" transform="translate(0.5059, -0.1714)"/><polygon points="0,0 0.0050,-0.0050 0.0050,0" transform="translate(0.5177, -0.1532)"/><polygon points="0,0 0.0050,-0.0050 0.0050,0" transform="translate(0.5279, -0.1346)"/><polygon points="0,0 0.0050,-0.0050 0.0050,0" transform="translate(0.5363, -0.1156)"/><polygon points="0,0 0.0050,-0.0050 0.0050,0" transform="translate(0.5429, -0.0963)"/><polygon points="0,0 0.0050,-0.0050 0.0050,0" transform="translate(0.5478, -0.0768)"/><polygon points="0,0 0.0050,-0.0050 0.0050,0" transform="translate(0.5508, -0.0571)"/><polygon points="0,0 0.0050,-0.0050 0.0050,0" transform="translate(0.5520, -0.0374)"/><polygon points="0,0 0.0050,-0.0050 0.0050,0" transform="translate(0.5515, -0.0177)"/><polygon points="0,0 0.0050,-0.0050 0.0050,0" transform="translate(0.5491, 0.0020)"/><polygon points="0,0 0.0050,-0.0050 0.0050,0" transform="translate(0.5449, 0.0216)"/><polygon points="0,0 0.0050,-0.0050 0.0050,0" transform="translate(0.5389, 0.0410)"/><polygon points="0,0 0.0050,-0.0050 0.0050,0" transform="translate(0.5311, 0.0601)"/><polygon points="0,0 0.0050,-0.0050 0.0050,0" transform="translate(0.5216, 0.0788)"/><polygon points="0,0 0.0050,-0.0050 0.0050,0" transform="translate(0.5104, 0.0972)"/><polygon points="0,0 0.0050,-0.0050 0.0050,0" transform="translate(0.4975, 0.1150)"/><polygon points="0,0 0.0050,-0.0050 0.0050,0" transform="translate(0.4830, 0.1324)"/><polygon points="0,0 0.0050,-0.0050 0.0050,0" transform="translate(0.4669, 0.1491)"/><polygon points="0,0 0.0050,-0.0050 0.0050,0" transform="translate(0.4493, 0.1652)"/><polygon points="0,0 0.0050,-0.0050 0.0050,0" transform="translate(0.4302, 0.1806)"/><polygon points="0,0 0.0050,-0.0050 0.0050,0" transform="translate(0.4098, 0.1952)"/><polygon points="0,0 0.0050,-0.0050 0.0050,0" transform="translate(0.3881, 0.2090)"/><polygon points="0,0 0.0050,-0.0050 0.0050,0" transform="translate(0.3651, 0.2219)"/><polygon points="0,0 0.0050,-0.0050 0.0050,0" transform="translate(0.3410, 0.2338)"/><polygon points="0,0 0.0050,-0.0050 0.0050,0" transform="translate(0.3159, 0.2449)"/><polygon points="0,0 0.0050,-0.0050 0.0050,0" transform="translate(0.2897, 0.2549)"/><polygon points="0,0 0.0050,-0.0050 0.0050,0" transform="translate(0.2627, 0.2638)"/><polygon points="0,0 0.0050,-0.0050 0.0050,0" transform="translate(0.2349, 0.2717)"/><polygon points="0,0 0.0050,-0.0050 0.0050,0" transform="translate(0.2065, 0.2785)"/><polygon points="0,0 0.0050,-0.0050 0.0050,0" transform="translate(0.1774, 0.2842)"/><polygon points="0,0 0.0050,-0.0050 0.0050,0" transform="translate(0.1479, 0.2888)"/><polygon points="0,0 0.0050,-0.0050 0.0050,0" transform="translate(0.1181, 0.2921)"/><polygon points="0,0 0.0050,-0.0050 0.0050,0" transform="translate(0.0879, 0.2943)"/><polygon points="0,0 0.0050,-0.0050 0.0050,0" transform="translate(0.0577, 0.2954)"/><polygon points="0,0 0.0050,-0.0050 0.0050,0" transform="translate(0.0273, 0.2952)"/><polygon points="0,0 0.0050,-0.0050 0.0050,0" transform="translate(-0.0029, 0.2938)"/><polygon points="0,0 0.0050,-0.0050 0.0050,0" transform="translate(-0.0330, 0.2913)"/><polygon points="0,0 0.0050,-0.0050 0.0050,0" transform="translate(-0.0627, 0.2876)"/><polygon points="0,0 0.0050,-0.0050 0.0050,0" transform="translate(-0.0921, 0.2828)"/><polygon points="0,0 0.0050,-0.0050 0.0050,0" transform="translate(-0.1210, 0.2768)"/><polygon points="0,0 0.0050,-0.0050 0.0050,0" transform="translate(-0.1493, 0.2696)"/><polygon points="0,0 0.0050,-0.0050 0.0050,0" transform="translate(-0.1769, 0.2614)"/><polygon points="0,0 0.0050,-0.0050 0.0050,0" transform="translate(-0.2036, 0.2522)"/><polygon points="0,0 0.0050,-0.0050 0.0050,0" transform="translate(-0.2295, 0.2419)"/><polygon points="0,0 0.0050,-0.0050 0.0050,0" transform="translate(-0.2544, 0.2306)"/><polygon points="0,0 0.0050,-0.0050 0.0050,0" transform="translate(-0.2782, 0.2183)"/><polygon points="0,0 0.0050,-0.0050 0.0050,0" transform="translate(-0.3008, 0.2052)"/><polygon points="0,0 0.0050,-0.0050 0.0050,0" transform="translate(-0.3222, 0.1912)"/><polygon points="0,0 0.0050,-0.0050 0.0050,0" transform="translate(-0.3422, 0.1764)"/><polygon points="0,0 0.0050,-0.0050 0.0050,0" transform="translate(-0.3609, 0.1608)"/><polygon points="0,0 0.0050,-0.0050 0.0050,0" transform="translate(-0.3780, 0.1445)"/><polygon points="0,0 0.0050,-0.0050 0.0050,0" transform="translate(-0.3937, 0.1276)"/><polygon points="0,0 0.0050,-0.0050 0.0050,0" transform="translate(-0.4078, 0.1101)"/><polygon points="0,0 0.0050,-0.0050 0.0050,0" transform="translate(-0.4202, 0.0921)"/><polygon points="0,0 0.0050,-0.0050 0.0050,0" transform="translate(-0.4309, 0.0736)"/><polygon points="0,0 0.0050,-0.0050 0.0050,0" transform="translate(-0.4400, 0.0547)"/><polygon points="0,0 0.0050,-0.0050 0.0050,0" transform="translate(-0.4472, 0.0356)"/><polygon points="0,0 0.0050,-0.0050 0.0050,0" transform="translate(-0.4527, 0.0161)"/><polygon points="0,0 0.0050,-0.0050 0.0050,0" transform="translate(-0.4564, -0.0035)"/><polygon points="0,0 0.0050,-0.0050 0.0050,0" transform="translate(-0.4583, -0.0232)"/><polygon points="0,0 0.0050,-0.0050 0.0050,0" transform="translate(-0.4584, -0.0429)"/><polygon points="0,0 0.0050,-0.0050 0.0050,0" transform="translate(-0.4567, -0.0627)"/><polygon points="0,0 0.0050,-0.0050 0.0050,0" transform="translate(-0.4531, -0.0823)"/><polygon points="0,0 0.0050,-0.0050 0.0050,0" transform="translate(-0.4477, -0.1017)"/><polygon points="0,0 0.0050,-0.0050 0.0050,0" transform="translate(-0.4406, -0.1209)"/><polygon points="0,0 0.0050,-0.0050 0.0050,0" transform="translate(-0.4317, -0.1398)"/><polygon points="0,0 0.0050,-0.0050 0.0050,0" transform="translate(-0.4211, -0.1583)"/><polygon points="0,0 0.0050,-0.0050 0.0050,0" transform="translate(-0.4088, -0.1764)"/><polygon points="0,0 0.0050,-0.0050 0.0050,0" transform="translate(-0.3949, -0.1939)"/><polygon points="0,0 0.0050,-0.0050 0.0050,0" transform="translate(-0.3793, -0.2109)"/><polygon points="0,0 0.0050,-0.0050 0.0050,0" transform="translate(-0.3623, -0.2272)"/><polygon points="0,0 0.0050,-0.0050 0.0050,0" transform="translate(-0.3438, -0.2429)"/><polygon points="0,0 0.0050,-0.0050 0.0050,0" transform="translate(-0.3238, -0.2577)"/><polygon points="0,0 0.0050,-0.0050 0.0050,0" transform="translate(-0.3026, -0.2718)"/><polygon points="0,0 0.0050,-0.0050 0.0050,0" transform="translate(-0.2800, -0.2850)"/><polygon points="0,0 0.0050,-0.0050 0.0050,0" transform="translate(-0.2563, -0.2973)"/><polygon points="0,0 0.0050,-0.0050 0.0050,0" transform="translate(-0.2315, -0.3087)"/><polygon points="0,0 0.0050,-0.0050 0.0050,0" transform="translate(-0.2057, -0.3191)"/><polygon points="0,0 0.0050,-0.0050 0.0050,0" transform="translate(-0.1790, -0.3284)"/><polygon points="0,0 0.0050,-0.0050 0.0050,0" transform="translate(-0.1515, -0.3367)"/><polygon points="0,0 0.0050,-0.0050 0.0050,0" transform="translate(-0.1233, -0.3439)"/><polygon points="0,0 0.0050,-0.0050 0.0050,0" transform="translate(-0.0945, -0.3500)"/></g><g fill="rgb(2%, 73%, 80%)" fill-opacity="1.0" stroke="rgb(2%, 29%, 48%)" stroke-opacity="1.0" stroke-width="0.2"><path d="M0.05,-0.03660254037844387 A0.1 0.1 0.0 0 1 0.0,0.05 0.1 0.1 0.0 0 1 -0.05,-0.03660254037844387 0.1 0.1 0.0 0 1 0.05,-0.03660254037844387 Z" transform="translate(0.0808, -0.4036) scale(0.0050)"/><path d="M0.05,-0.03660254037844387 A0.1 0.1 0.0 0 1 0.0,0.05 0.1 0.1 0.0 0 1 -0.05,-0.03660254037844387 0.1 0.1 0.0 0 1 0.05,-0.03660254037844387 Z" transform="translate(0.1148, -0.4016) scale(0.0050)"/><path d="M0.05,-0.03660254037844387 A0.1 0.1 0.0 0 1 0.0,0.05 0.1 0.1 0.0 0 1 -0.05,-0.03660254037844387 0.1 0.1 0.0 0 1 0.05,-0.03660254037844387 Z" transform="translate(0.1485, -0.3983) scale(0.0050)"/><path d="M0.05,-0.03660254037844387 A0.1 0.1 0.0 0 1 0.0,0.05 0.1 0.1 0.0 0 1 -0.05,-0.03660254037844387 0.1 0.1 0.0 0 1 0.05,-0.03660254037844387 Z" transform="translate(0.1819, -0.3937) scale(0.0050)"/><path d="M0.05,-0.03660254037844387 A0.1 0.1 0.0 0 1 0.0,0.05 0.1 0.1 0.0 0 1 -0.05,-0.03660254037844387 0.1 0.1 0.0 0 1 0.05,-0.03660254037844387 Z" transform="translate(0.2147, -0.3878) scale(0.0050)"/><path d="M0.05,-0.03660254037844387 A0.1 0.1 0.0 0 1 0.0,0.05 0.1 0.1 0.0 0 1 -0.05,-0.03660254037844387 0.1 0.1 0.0 0 1 0.05,-0.03660254037844387 Z" transform="translate(0.2470, -0.3806) scale(0.0050)"/><path d="M0.05,-0.03660254037844387 A0.1 0.1 0.0 0 1 0.0,0.05 0.1 0.1 0.0 0 1 -0.05,-0.03660254037844387 0.1 0.1 0.0 0 1 0.05,-0.03660254037844387 Z" transform="translate(0.2786, -0.3721) scale(0.0050)"/><path d="M0.05,-0.03660254037844387 A0.1 0.1 0.0 0 1 0.0,0.05 0.1 0.1 0.0 0 1 -0.05,-0.03660254037844387 0.1 0.1 0.0 0 1 0.05,-0.03660254037844387 Z" transform="translate(0.3093, -0.3624) scale(0.0050)"/><path d="M0.05,-0.03660254037844387 A0.1 0.1 0.0 0 1 0.0,0.05 0.1 0.1 0.0 0 1 -0.05,-0.03660254037844387 0.1 0.1 0.0 0 1 0.05,-0.03660254037844387 Z" transform="translate(0.3390, -0.3516) scale(0.0050)"/><path d="M0.05,-0.03660254037844387 A0.1 0.1 0.0 0 1 0.0,0.05 0.1 0.1 0.0 0 1 -0.05,-0.03660254037844387 0.1 0.1 0.0 0 1 0.05,-0.03660254037844387 Z" transform="translate(0.3677, -0.3396) scale(0.0050)"/><path d="M0.05,-0.03660254037844387 A0.1 0.1 0.0 0 1 0.0,0.05 0.1 0.1 0.0 0 1 -0.05,-0.03660254037844387 0.1 0.1 0.0 0 1 0.05,-0.03660254037844387 Z" transform="translate(0.3953, -0.3265) scale(0.0050)"/><path d="M0.05,-0.03660254037844387 A0.1 0.1 0.0 0 1 0.0,0.05 0.1 0.1 0.0 0 1 -0.05,-0.03660254037844387 0.1 0.1 0.0 0 1 0.05,-0.03660254037844387 Z" transform="translate(0.4216, -0.3124) scale(0.0050)"/><path d="M0.05,-0.03660254037844387 A0.1 0.1 0.0 0 1 0.0,0.05 0.1 0.1 0.0 0 1 -0.05,-0.03660254037844387 0.1 0.1 0.0 0 1 0.05,-0.03660254037844387 Z" transform="translate(0.4466, -0.2972) scale(0.0050)"/><path d="M0.05,-0.03660254037844387 A0.1 0.1 0.0 0 1 0.0,0.05 0.1 0.1 0.0 0 1 -0.05,-0.03660254037844387 0.1 0.1 0.0 0 1 0.05,-0.03660254037844387 Z" transform="translate(0.4701, -0.2811) scale(0.0050)"/><path d="M0.05,-0.03660254037844387 A0.1 0.1 0.0 0 1 0.0,0.05 0.1 0.1 0.0 0 1 -0.05,-0.03660254037844387 0.1 0.1 0.0 0 1 0.05,-0.03660254037844387 Z" transform="translate(0.4921, -0.2641) scale(0.0050)"/><path d="M0.05,-0.03660254037844387 A0.1 0.1 0.0 0 1 0.0,0.05 0.1 0.1 0.0 0 1 -0.05,-0.03660254037844387 0.1 0.1 0.0 0 1 0.05,-0.03660254037844387 Z" transform="translate(0.5125, -0.2463) scale(0.0050)"/><path d="M0.05,-0.03660254037844387 A0.1 0.1 0.0 0 1 0.0,0.05 0.1 0.1 0.0 0 1 -0.05,-0.03660254037844387 0.1 0.1 0.0 0 1 0.05,-0.03660254037844387 Z" transform="translate(0.5312, -0.2277) scale(0.0050)"/><path d="M0.05,-0.03660254037844387 A0.1 0.1 0.0 0 1 0.0,0.05 0.1 0.1 0.0 0 1 -0.05,-0.03660254037844387 0.1 0.1 0.0 0 1 0.05,-0.03660254037844387 Z" transform="translate(0.5481, -0.2085) scale(0.0050)"/><path d="M0.05,-0.03660254037844387 A0.1 0.1 0.0 0 1 0.0,0.05 0.1 0.1 0.0 0 1 -0.05,-0.03660254037844387 0.1 0.1 0.0 0 1 0.05,-0.03660254037844387 Z" transform="translate(0.5633, -0.1886) scale(0.0050)"/><path d="M0.05,-0.03660254037844387 A0.1 0.1 0.0 0 1 0.0,0.05 0.1 0.1 0.0 0 1 -0.05,-0.03660254037844387 0.1 0.1 0.0 0 1 0.05,-0.03660254037844387 Z" transform="translate(0.5766, -0.1681) scale(0.0050)"/><path d="M0.05,-0.03660254037844387 A0.1 0.1 0.0 0 1 0.0,0.05 0.1 0.1 0.0 0 1 -0.05,-0.03660254037844387 0.1 0.1 0.0 0 1 0.05,-0.03660254037844387 Z" transform="translate(0.5880, -0.1471) scale(0.0050)"/><path d="M0.05,-0.03660254037844387 A0.1 0.1 0.0 0 1 0.0,0.05 0.1 0.1 0.0 0 1 -0.05,-0.03660254037844387 0.1 0.1 0.0 0 1 0.05,-0.03660254037844387 Z" transform="translate(0.5975, -0.1258) scale(0.0050)"/><path d="M0.05,-0.03660254037844387 A0.1 0.1 0.0 0 1 0.0,0.05 0.1 0.1 0.0 0 1 -0.05,-0.03660254037844387 0.1 0.1 0.0 0 1 0.05,-0.03660254037844387 Z" transform="translate(0.6049, -0.1041) scale(0.0050)"/><path d="M0.05,-0.03660254037844387 A0.1 0.1 0.0 0 1 0.0,0.05 0.1 0.1 0.0 0 1 -0.05,-0.03660254037844387 0.1 0.1 0.0 0 1 0.05,-0.03660254037844387 Z" transform="translate(0.6104, -0.0822) scale(0.0050)"/><path d="M0.05,-0.03660254037844387 A0.1 0.1 0.0 0 1 0.0,0.05 0.1 0.1 0.0 0 1 -0.05,-0.03660254037844387 0.1 0.1 0.0 0 1 0.05,-0.03660254037844387 Z" transform="translate(0.6138, -0.0601) scale(0.0050)"/><path d="M0.05,-0.03660254037844387 A0.1 0.1 0.0 0 1 0.0,0.05 0.1 0.1 0.0 0 1 -0.05,-0.03660254037844387 0.1 0.1 0.0 0 1 0.05,-0.03660254037844387 Z" transform="translate(0.6152, -0.0379) scale(0.0050)"/><path d="M0.05,-0.03660254037844387 A0.1 0.1 0.0 0 1 0.0,0.05 0.1 0.1 0.0 0 1 -0.05,-0.03660254037844387 0.1 0.1 0.0 0 1 0.05,-0.03660254037844387 Z" transform="translate(0.6146, -0.0156) scale(0.0050)"/><path d="M0.05,-0.03660254037844387 A0.1 0.1 0.0 0 1 0.0,0.05 0.1 0.1 0.0 0 1 -0.05,-0.03660254037844387 0.1 0.1 0.0 0 1 0.05,-0.03660254037844387 Z" transform="translate(0.6119, 0.0065) scale(0.0050)"/><path d="M0.05,-0.03660254037844387 A0.1 0.1 0.0 0 1 0.0,0.05 0.1 0.1 0.0 0 1 -0.05,-0.03660254037844387 0.1 0.1 0.0 0 1 0.05,-0.03660254037844387 Z" transform="translate(0.6071, 0.0285) scale(0.0050)"/><path d="M0.05,-0.03660254037844387 A0.1 0.1 0.0 0 1 0.0,0.05 0.1 0.1 0.0 0 1 -0.05,-0.03660254037844387 0.1 0.1 0.0 0 1 0.05,-0.03660254037844387 Z" transform="translate(0.6004, 0.0503) scale(0.0050)"/><path d="M0.05,-0.03660254037844387 A0.1 0.1 0.0 0 1 0.0,0.05 0.1 0.1 0.0 0 1 -0.05,-0.03660254037844387 0.1 0.1 0.0 0 1 0.05,-0.03660254037844387 Z" transform="translate(0.5916, 0.0718) scale(0.0050)"/><path d="M0.05,-0.03660254037844387 A0.1 0.1 0.0 0 1 0.0,0.05 0.1 0.1 0.0 0 1 -0.05,-0.03660254037844387 0.1 0.1 0.0 0 1 0.05,-0.03660254037844387 Z" transform="translate(0.5809, 0.0929) scale(0.0050)"/><path d="M0.05,-0.03660254037844387 A0.1 0.1 0.0 0 1 0.0,0.05 0.1 0.1 0.0 0 1 -0.05,-0.03660254037844387 0.1 0.1 0.0 0 1 0.05,-0.03660254037844387 Z" transform="translate(0.5683, 0.1135) scale(0.0050)"/><path d="M0.05,-0.03660254037844387 A0.1 0.1 0.0 0 1 0.0,0.05 0.1 0.1 0.0 0 1 -0.05,-0.03660254037844387 0.1 0.1 0.0 0 1 0.05,-0.03660254037844387 Z" transform="translate(0.5538, 0.1337) scale(0.0050)"/><path d="M0.05,-0.03660254037844387 A0.1 0.1 0.0 0 1 0.0,0.05 0.1 0.1 0.0 0 1 -0.05,-0.03660254037844387 0.1 0.1 0.0 0 1 0.05,-0.03660254037844387 Z" transform="translate(0.5375, 0.1532) scale(0.0050)"/><path d="M0.05,-0.03660254037844387 A0.1 0.1 0.0 0 1 0.0,0.05 0.1 0.1 0.0 0 1 -0.05,-0.03660254037844387 0.1 0.1 0.0 0 1 0.05,-0.03660254037844387 Z" transform="translate(0.5194, 0.1720) scale(0.0050)"/><path d="M0.05,-0.03660254037844387 A0.1 0.1 0.0 0 1 0.0,0.05 0.1 0.1 0.0 0 1 -0.05,-0.03660254037844387 0.1 0.1 0.0 0 1 0.05,-0.03660254037844387 Z" transform="translate(0.4996, 0.1901) scale(0.0050)"/><path d="M0.05,-0.03660254037844387 A0.1 0.1 0.0 0 1 0.0,0.05 0.1 0.1 0.0 0 1 -0.05,-0.03660254037844387 0.1 0.1 0.0 0 1 0.05,-0.03660254037844387 Z" transform="translate(0.4782, 0.2074) scale(0.0050)"/><path d="M0.05,-0.03660254037844387 A0.1 0.1 0.0 0 1 0.0,0.05 0.1 0.1 0.0 0 1 -0.05,-0.03660254037844387 0.1 0.1 0.0 0 1 0.05,-0.03660254037844387 Z" transform="translate(0.4552, 0.2238) scale(0.0050)"/><path d="M0.05,-0.03660254037844387 A0.1 0.1 0.0 0 1 0.0,0.05 0.1 0.1 0.0 0 1 -0.05,-0.03660254037844387 0.1 0.1 0.0 0 1 0.05,-0.03660254037844387 Z" transform="translate(0.4307, 0.2393) scale(0.0050)"/><path d="M0.05,-0.03660254037844387 A0.1 0.1 0.0 0 1 0.0,0.05 0.1 0.1 0.0 0 1 -0.05,-0.03660254037844387 0.1 0.1 0.0 0 1 0.05,-0.03660254037844387 Z" transform="translate(0.4049, 0.2538) scale(0.0050)"/><path d="M0.05,-0.03660254037844387 A0.1 0.1 0.0 0 1 0.0,0.05 0.1 0.1 0.0 0 1 -0.05,-0.03660254037844387 0.1 0.1 0.0 0 1 0.05,-0.03660254037844387 Z" transform="translate(0.3778, 0.2673) scale(0.0050)"/><path d="M0.05,-0.03660254037844387 A0.1 0.1 0.0 0 1 0.0,0.05 0.1 0.1 0.0 0 1 -0.05,-0.03660254037844387 0.1 0.1 0.0 0 1 0.05,-0.03660254037844387 Z" transform="translate(0.3495, 0.2797) scale(0.0050)"/><path d="M0.05,-0.03660254037844387 A0.1 0.1 0.0 0 1 0.0,0.05 0.1 0.1 0.0 0 1 -0.05,-0.03660254037844387 0.1 0.1 0.0 0 1 0.05,-0.03660254037844387 Z" transform="translate(0.3201, 0.2910) scale(0.0050)"/><path d="M0.05,-0.03660254037844387 A0.1 0.1 0.0 0 1 0.0,0.05 0.1 0.1 0.0 0 1 -0.05,-0.03660254037844387 0.1 0.1 0.0 0 1 0.05,-0.03660254037844387 Z" transform="translate(0.2897, 0.3011) scale(0.0050)"/><path d="M0.05,-0.03660254037844387 A0.1 0.1 0.0 0 1 0.0,0.05 0.1 0.1 0.0 0 1 -0.05,-0.03660254037844387 0.1 0.1 0.0 0 1 0.05,-0.03660254037844387 Z" transform="translate(0.2585, 0.3099) scale(0.0050)"/><path d="M0.05,-0.03660254037844387 A0.1 0.1 0.0 0 1 0.0,0.05 0.1 0.1 0.0 0 1 -0.05,-0.03660254037844387 0.1 0.1 0.0 0 1 0.05,-0.03660254037844387 Z" transform="translate(0.2264, 0.3176) scale(0.0050)"/><path d="M0.05,-0.03660254037844387 A0.1 0.1 0.0 0 1 0.0,0.05 0.1 0.1 0.0 0 1 -0.05,-0.03660254037844387 0.1 0.1 0.0 0 1 0.05,-0.03660254037844387 Z" transform="translate(0.1938, 0.3240) scale(0.0050)"/><path d="M0.05,-0.03660254037844387 A0.1 0.1 0.0 0 1 0.0,0.05 0.1 0.1 0.0 0 1 -0.05,-0.03660254037844387 0.1 0.1 0.0 0 1 0.05,-0.03660254037844387 Z" transform="translate(0.1606, 0.3291) scale(0.0050)"/><path d="M0.05,-0.03660254037844387 A0.1 0.1 0.0 0 1 0.0,0.05 0.1 0.1 0.0 0 1 -0.05,-0.03660254037844387 0.1 0.1 0.0 0 1 0.05,-0.03660254037844387 Z" transform="translate(0.1270, 0.3329) scale(0.0050)"/><path d="M0.05,-0.03660254037844387 A0.1 0.1 0.0 0 1 0.0,0.05 0.1 0.1 0.0 0 1 -0.05,-0.03660254037844387 0.1 0.1 0.0 0 1 0.05,-0.03660254037844387 Z" transform="translate(0.0931, 0.3354) scale(0.0050)"/><path d="M0.05,-0.03660254037844387 A0.1 0.1 0.0 0 1 0.0,0.05 0.1 0.1 0.0 0 1 -0.05,-0.03660254037844387 0.1 0.1 0.0 0 1 0.05,-0.03660254037844387 Z" transform="translate(0.0590, 0.3365) scale(0.0050)"/><path d="M0.05,-0.03660254037844387 A0.1 0.1 0.0 0 1 0.0,0.05 0.1 0.1 0.0 0 1 -0.05,-0.03660254037844387 0.1 0.1 0.0 0 1 0.05,-0.03660254037844387 Z" transform="translate(0.0249, 0.3363) scale(0.0050)"/><path d="M0.05,-0.03660254037844387 A0.1 0.1 0.0 0 1 0.0,0.05 0.1 0.1 0.0 0 1 -0.05,-0.03660254037844387 0.1 0.1 0.0 0 1 0.05,-0.03660254037844387 Z" transform="translate(-0.0091, 0.3348) scale(0.0050)"/><path d="M0.05,-0.03660254037844387 A0.1 0.1 0.0 0 1 0.0,0.05 0.1 0.1 0.0 0 1 -0.05,-0.03660254037844387 0.1 0.1 0.0 0 1 0.05,-0.03660254037844387 Z" transform="translate(-0.0429, 0.3320) scale(0.0050)"/><path d="M0.05,-0.03660254037844387 A0.1 0.1 0.0 0 1 0.0,0.05 0.1 0.1 0.0 0 1 -0.05,-0.03660254037844387 0.1 0.1 0.0 0 1 0.05,-0.03660254037844387 Z" transform="translate(-0.0764, 0.3278) scale(0.0050)"/><path d="M0.05,-0.03660254037844387 A0.1 0.1 0.0 0 1 0.0,0.05 0.1 0.1 0.0 0 1 -0.05,-0.03660254037844387 0.1 0.1 0.0 0 1 0.05,-0.03660254037844387 Z" transform="translate(-0.1095, 0.3223) scale(0.0050)"/><path d="M0.05,-0.03660254037844387 A0.1 0.1 0.0 0 1 0.0,0.05 0.1 0.1 0.0 0 1 -0.05,-0.03660254037844387 0.1 0.1 0.0 0 1 0.05,-0.03660254037844387 Z" transform="translate(-0.1420, 0.3156) scale(0.0050)"/><path d="M0.05,-0.03660254037844387 A0.1 0.1 0.0 0 1 0.0,0.05 0.1 0.1 0.0 0 1 -0.05,-0.03660254037844387 0.1 0.1 0.0 0 1 0.05,-0.03660254037844387 Z" transform="translate(-0.1738, 0.3076) scale(0.0050)"/><path d="M0.05,-0.03660254037844387 A0.1 0.1 0.0 0 1 0.0,0.05 0.1 0.1 0.0 0 1 -0.05,-0.03660254037844387 0.1 0.1 0.0 0 1 0.05,-0.03660254037844387 Z" transform="translate(-0.2048, 0.2983) scale(0.0050)"/><path d="M0.05,-0.03660254037844387 A0.1 0.1 0.0 0 1 0.0,0.05 0.1 0.1 0.0 0 1 -0.05,-0.03660254037844387 0.1 0.1 0.0 0 1 0.05,-0.03660254037844387 Z" transform="translate(-0.2349, 0.2879) scale(0.0050)"/><path d="M0.05,-0.03660254037844387 A0.1 0.1 0.0 0 1 0.0,0.05 0.1 0.1 0.0 0 1 -0.05,-0.03660254037844387 0.1 0.1 0.0 0 1 0.05,-0.03660254037844387 Z" transform="translate(-0.2641, 0.2763) scale(0.0050)"/><path d="M0.05,-0.03660254037844387 A0.1 0.1 0.0 0 1 0.0,0.05 0.1 0.1 0.0 0 1 -0.05,-0.03660254037844387 0.1 0.1 0.0 0 1 0.05,-0.03660254037844387 Z" transform="translate(-0.2920, 0.2636) scale(0.0050)"/><path d="M0.05,-0.03660254037844387 A0.1 0.1 0.0 0 1 0.0,0.05 0.1 0.1 0.0 0 1 -0.05,-0.03660254037844387 0.1 0.1 0.0 0 1 0.05,-0.03660254037844387 Z" transform="translate(-0.3188, 0.2499) scale(0.0050)"/><path d="M0.05,-0.03660254037844387 A0.1 0.1 0.0 0 1 0.0,0.05 0.1 0.1 0.0 0 1 -0.05,-0.03660254037844387 0.1 0.1 0.0 0 1 0.05,-0.03660254037844387 Z" transform="translate(-0.3443, 0.2351) scale(0.0050)"/><path d="M0.05,-0.03660254037844387 A0.1 0.1 0.0 0 1 0.0,0.05 0.1 0.1 0.0 0 1 -0.05,-0.03660254037844387 0.1 0.1 0.0 0 1 0.05,-0.03660254037844387 Z" transform="translate(-0.3683, 0.2193) scale(0.0050)"/><path d="M0.05,-0.03660254037844387 A0.1 0.1 0.0 0 1 0.0,0.05 0.1 0.1 0.0 0 1 -0.05,-0.03660254037844387 0.1 0.1 0.0 0 1 0.05,-0.03660254037844387 Z" transform="translate(-0.3908, 0.2026) scale(0.0050)"/><path d="M0.05,-0.03660254037844387 A0.1 0.1 0.0 0 1 0.0,0.05 0.1 0.1 0.0 0 1 -0.05,-0.03660254037844387 0.1 0.1 0.0 0 1 0.05,-0.03660254037844387 Z" transform="translate(-0.4118, 0.1851) scale(0.0050)"/><path d="M0.05,-0.03660254037844387 A0.1 0.1 0.0 0 1 0.0,0.05 0.1 0.1 0.0 0 1 -0.05,-0.03660254037844387 0.1 0.1 0.0 0 1 0.05,-0.03660254037844387 Z" transform="translate(-0.4311, 0.1668) scale(0.0050)"/><path d="M0.05,-0.03660254037844387 A0.1 0.1 0.0 0 1 0.0,0.05 0.1 0.1 0.0 0 1 -0.05,-0.03660254037844387 0.1 0.1 0.0 0 1 0.05,-0.03660254037844387 Z" transform="translate(-0.4487, 0.1478) scale(0.0050)"/><path d="M0.05,-0.03660254037844387 A0.1 0.1 0.0 0 1 0.0,0.05 0.1 0.1 0.0 0 1 -0.05,-0.03660254037844387 0.1 0.1 0.0 0 1 0.05,-0.03660254037844387 Z" transform="translate(-0.4646, 0.1281) scale(0.0050)"/><path d="M0.05,-0.03660254037844387 A0.1 0.1 0.0 0 1 0.0,0.05 0.1 0.1 0.0 0 1 -0.05,-0.03660254037844387 0.1 0.1 0.0 0 1 0.05,-0.03660254037844387 Z" transform="translate(-0.4786, 0.1078) scale(0.0050)"/><path d="M0.05,-0.03660254037844387 A0.1 0.1 0.0 0 1 0.0,0.05 0.1 0.1 0.0 0 1 -0.05,-0.03660254037844387 0.1 0.1 0.0 0 1 0.05,-0.03660254037844387 Z" transform="translate(-0.4906, 0.0870) scale(0.0050)"/><path d="M0.05,-0.03660254037844387 A0.1 0.1 0.0 0 1 0.0,0.05 0.1 0.1 0.0 0 1 -0.05,-0.03660254037844387 0.1 0.1 0.0 0 1 0.05,-0.03660254037844387 Z" transform="translate(-0.5008, 0.0658) scale(0.0050)"/><path d="M0.05,-0.03660254037844387 A0.1 0.1 0.0 0 1 0.0,0.05 0.1 0.1 0.0 0 1 -0.05,-0.03660254037844387 0.1 0.1 0.0 0 1 0.05,-0.03660254037844387 Z" transform="translate(-0.5090, 0.0442) scale(0.0050)"/><path d="M0.05,-0.03660254037844387 A0.1 0.1 0.0 0 1 0.0,0.05 0.1 0.1 0.0 0 1 -0.05,-0.03660254037844387 0.1 0.1 0.0 0 1 0.05,-0.03660254037844387 Z" transform="translate(-0.5152, 0.0224) scale(0.0050)"/><path d="M0.05,-0.03660254037844387 A0.1 0.1 0.0 0 1 0.0,0.05 0.1 0.1 0.0 0 1 -0.05,-0.03660254037844387 0.1 0.1 0.0 0 1 0.05,-0.03660254037844387 Z" transform="translate(-0.5193, 0.0003) scale(0.0050)"/><path d="M0.05,-0.03660254037844387 A0.1 0.1 0.0 0 1 0.0,0.05 0.1 0.1 0.0 0 1 -0.05,-0.03660254037844387 0.1 0.1 0.0 0 1 0.05,-0.03660254037844387 Z" transform="translate(-0.5215, -0.0219) scale(0.0050)"/><path d="M0.05,-0.03660254037844387 A0.1 0.1 0.0 0 1 0.0,0.05 0.1 0.1 0.0 0 1 -0.05,-0.03660254037844387 0.1 0.1 0.0 0 1 0.05,-0.03660254037844387 Z" transform="translate(-0.5215, -0.0441) scale(0.0050)"/><path d="M0.05,-0.03660254037844387 A0.1 0.1 0.0 0 1 0.0,0.05 0.1 0.1 0.0 0 1 -0.05,-0.03660254037844387 0.1 0.1 0.0 0 1 0.05,-0.03660254037844387 Z" transform="translate(-0.5196, -0.0663) scale(0.0050)"/><path d="M0.05,-0.03660254037844387 A0.1 0.1 0.0 0 1 0.0,0.05 0.1 0.1 0.0 0 1 -0.05,-0.03660254037844387 0.1 0.1 0.0 0 1 0.05,-0.03660254037844387 Z" transform="translate(-0.5156, -0.0883) scale(0.0050)"/><path d="M0.05,-0.03660254037844387 A0.1 0.1 0.0 0 1 0.0,0.05 0.1 0.1 0.0 0 1 -0.05,-0.03660254037844387 0.1 0.1 0.0 0 1 0.05,-0.03660254037844387 Z" transform="translate(-0.5095, -0.1102) scale(0.0050)"/><path d="M0.05,-0.03660254037844387 A0.1 0.1 0.0 0 1 0.0,0.05 0.1 0.1 0.0 0 1 -0.05,-0.03660254037844387 0.1 0.1 0.0 0 1 0.05,-0.03660254037844387 Z" transform="translate(-0.5015, -0.1318) scale(0.0050)"/><path d="M0.05,-0.03660254037844387 A0.1 0.1 0.0 0 1 0.0,0.05 0.1 0.1 0.0 0 1 -0.05,-0.03660254037844387 0.1 0.1 0.0 0 1 0.05,-0.03660254037844387 Z" transform="translate(-0.4915, -0.1531) scale(0.0050)"/><path d="M0.05,-0.03660254037844387 A0.1 0.1 0.0 0 1 0.0,0.05 0.1 0.1 0.0 0 1 -0.05,-0.03660254037844387 0.1 0.1 0.0 0 1 0.05,-0.03660254037844387 Z" transform="translate(-0.4796, -0.1739) scale(0.0050)"/><path d="M0.05,-0.03660254037844387 A0.1 0.1 0.0 0 1 0.0,0.05 0.1 0.1 0.0 0 1 -0.05,-0.03660254037844387 0.1 0.1 0.0 0 1 0.05,-0.03660254037844387 Z" transform="translate(-0.4658, -0.1942) scale(0.0050)"/><path d="M0.05,-0.03660254037844387 A0.1 0.1 0.0 0 1 0.0,0.05 0.1 0.1 0.0 0 1 -0.05,-0.03660254037844387 0.1 0.1 0.0 0 1 0.05,-0.03660254037844387 Z" transform="translate(-0.4501, -0.2139) scale(0.0050)"/><path d="M0.05,-0.03660254037844387 A0.1 0.1 0.0 0 1 0.0,0.05 0.1 0.1 0.0 0 1 -0.05,-0.03660254037844387 0.1 0.1 0.0 0 1 0.05,-0.03660254037844387 Z" transform="translate(-0.4326, -0.2330) scale(0.0050)"/><path d="M0.05,-0.03660254037844387 A0.1 0.1 0.0 0 1 0.0,0.05 0.1 0.1 0.0 0 1 -0.05,-0.03660254037844387 0.1 0.1 0.0 0 1 0.05,-0.03660254037844387 Z" transform="translate(-0.4134, -0.2514) scale(0.0050)"/><path d="M0.05,-0.03660254037844387 A0.1 0.1 0.0 0 1 0.0,0.05 0.1 0.1 0.0 0 1 -0.05,-0.03660254037844387 0.1 0.1 0.0 0 1 0.05,-0.03660254037844387 Z" transform="translate(-0.3926, -0.2690) scale(0.0050)"/><path d="M0.05,-0.03660254037844387 A0.1 0.1 0.0 0 1 0.0,0.05 0.1 0.1 0.0 0 1 -0.05,-0.03660254037844387 0.1 0.1 0.0 0 1 0.05,-0.03660254037844387 Z" transform="translate(-0.3701, -0.2857) scale(0.0050)"/><path d="M0.05,-0.03660254037844387 A0.1 0.1 0.0 0 1 0.0,0.05 0.1 0.1 0.0 0 1 -0.05,-0.03660254037844387 0.1 0.1 0.0 0 1 0.05,-0.03660254037844387 Z" transform="translate(-0.3462, -0.3016) scale(0.0050)"/><path d="M0.05,-0.03660254037844387 A0.1 0.1 0.0 0 1 0.0,0.05 0.1 0.1 0.0 0 1 -0.05,-0.03660254037844387 0.1 0.1 0.0 0 1 0.05,-0.03660254037844387 Z" transform="translate(-0.3209, -0.3164) scale(0.0050)"/><path d="M0.05,-0.03660254037844387 A0.1 0.1 0.0 0 1 0.0,0.05 0.1 0.1 0.0 0 1 -0.05,-0.03660254037844387 0.1 0.1 0.0 0 1 0.05,-0.03660254037844387 Z" transform="translate(-0.2942, -0.3303) scale(0.0050)"/><path d="M0.05,-0.03660254037844387 A0.1 0.1 0.0 0 1 0.0,0.05 0.1 0.1 0.0 0 1 -0.05,-0.03660254037844387 0.1 0.1 0.0 0 1 0.05,-0.03660254037844387 Z" transform="translate(-0.2663, -0.3431) scale(0.0050)"/><path d="M0.05,-0.03660254037844387 A0.1 0.1 0.0 0 1 0.0,0.05 0.1 0.1 0.0 0 1 -0.05,-0.03660254037844387 0.1 0.1 0.0 0 1 0.05,-0.03660254037844387 Z" transform="translate(-0.2373, -0.3547) scale(0.0050)"/><path d="M0.05,-0.03660254037844387 A0.1 0.1 0.0 0 1 0.0,0.05 0.1 0.1 0.0 0 1 -0.05,-0.03660254037844387 0.1 0.1 0.0 0 1 0.05,-0.03660254037844387 Z" transform="translate(-0.2073, -0.3653) scale(0.0050)"/><path d="M0.05,-0.03660254037844387 A0.1 0.1 0.0 0 1 0.0,0.05 0.1 0.1 0.0 0 1 -0.05,-0.03660254037844387 0.1 0.1 0.0 0 1 0.05,-0.03660254037844387 Z" transform="translate(-0.1763, -0.3746) scale(0.0050)"/><path d="M0.05,-0.03660254037844387 A0.1 0.1 0.0 0 1 0.0,0.05 0.1 0.1 0.0 0 1 -0.05,-0.03660254037844387 0.1 0.1 0.0 0 1 0.05,-0.03660254037844387 Z" transform="translate(-0.1446, -0.3827) scale(0.0050)"/><path d="M0.05,-0.03660254037844387 A0.1 0.1 0.0 0 1 0.0,0.05 0.1 0.1 0.0 0 1 -0.05,-0.03660254037844387 0.1 0.1 0.0 0 1 0.05,-0.03660254037844387 Z" transform="translate(-0.1121, -0.3895) scale(0.0050)"/></g></g><g class="hud"><g class="frame"><g fill="rgb(100%, 100%, 100%)" fill-opacity="0.02" stroke="rgb(0%, 0%, 0%)" stroke-opacity="0" stroke-width="0"><rect height="0.8232" width="1.2633" x="-0.5849" y="-0.4455"/></g></g><g class="axis"><g class="ticks"><g class="tickglyph"><g fill="rgb(5%, 5%, 5%)" fill-opacity="0.4" stroke="rgb(5%, 5%, 5%)" stroke-opacity="0.4" stroke-width="0.0040"><g transform="rotate(-90.0, -0.6102, 0.3778)"><polyline points="-0.6102,0.3928
-0.6102,0.3628"/></g><g transform="rotate(-90.0, -0.6102, 0.2954)"><polyline points="-0.6102,0.3104
-0.6102,0.2804"/></g><g transform="rotate(-90.0, -0.6102, 0.2131)"><polyline points="-0.6102,0.2281
-0.6102,0.1981"/></g><g transform="rotate(-90.0, -0.6102, 0.1308)"><polyline points="-0.6102,0.1458
-0.6102,0.1158"/></g><g transform="rotate(-90.0, -0.6102, 0.0485)"><polyline points="-0.6102,0.0635
-0.6102,0.0335"/></g><g transform="rotate(-90.0, -0.6102, -0.0339)"><polyline points="-0.6102,-0.0189
-0.6102,-0.0489"/></g><g transform="rotate(-90.0, -0.6102, -0.1162)"><polyline points="-0.6102,-0.1012
-0.6102,-0.1312"/></g><g transform="rotate(-90.0, -0.6102, -0.1985)"><polyline points="-0.6102,-0.1835
-0.6102,-0.2135"/></g><g transform="rotate(-90.0, -0.6102, -0.2808)"><polyline points="-0.6102,-0.2658
-0.6102,-0.2958"/></g><g transform="rotate(-90.0, -0.6102, -0.3631)"><polyline points="-0.6102,-0.3481
-0.6102,-0.3781"/></g><g transform="rotate(-90.0, -0.6102, -0.4455)"><polyline points="-0.6102,-0.4305
-0.6102,-0.4605"/></g></g></g><g class="ticktext"><g fill="rgb(5%, 5%, 5%)" fill-opacity="1.0" font-size="0.0421" stroke="none" stroke-width="0.0" text-anchor="end"><text x="-0.6405" y="0.3891">-1.0</text><text x="-0.6405" y="0.3068">-0.8</text><text x="-0.6405" y="0.2244">-0.6</text><text x="-0.6405" y="0.1421">-0.4</text><text x="-0.6405" y="0.0598">-0.2</text><text x="-0.6405" y="-0.0225"> 0.0</text><text x="-0.6405" y="-0.1049"> 0.2</text><text x="-0.6405" y="-0.1872"> 0.4</text><text x="-0.6405" y="-0.2695"> 0.6</text><text x="-0.6405" y="-0.3518"> 0.8</text><text x="-0.6405" y="-0.4341"> 1.0</text></g></g><g class="ticklines"><g fill="none" stroke="rgb(5%, 5%, 5%)" stroke-opacity="0.05" stroke-width="0.0050"><polyline points="-0.5849,0.3778 0.6784,0.3778"/><polyline points="-0.5849,0.2954 0.6784,0.2954"/><polyline points="-0.5849,0.2131 0.6784,0.2131"/><polyline points="-0.5849,0.1308 0.6784,0.1308"/><polyline points="-0.5849,0.0485 0.6784,0.0485"/><polyline points="-0.5849,-0.0339 0.6784,-0.0339"/><polyline points="-0.5849,-0.1162 0.6784,-0.1162"/><polyline points="-0.5849,-0.1985 0.6784,-0.1985"/><polyline points="-0.5849,-0.2808 0.6784,-0.2808"/><polyline points="-0.5849,-0.3631 0.6784,-0.3631"/><polyline points="-0.5849,-0.4455 0.6784,-0.4455"/></g></g></g><g class="axisbar"><g fill="rgb(5%, 5%, 5%)" fill-opacity="0.4" stroke="rgb(0%, 0%, 0%)" stroke-opacity="0" stroke-width="0"><rect height="0.8265" width="0.0034" x="-0.5967" y="-0.4471"/></g></g></g><g class="axis"><g class="ticks"><g class="tickglyph"><g fill="rgb(5%, 5%, 5%)" fill-opacity="0.4" stroke="rgb(5%, 5%, 5%)" stroke-opacity="0.4" stroke-width="0.0040"><polyline points="-0.5849,0.4174
-0.5849,0.3874"/><polyline points="-0.4586,0.4174
-0.4586,0.3874"/><polyline points="-0.3323,0.4174
-0.3323,0.3874"/><polyline points="-0.2059,0.4174
-0.2059,0.3874"/><polyline points="-0.0796,0.4174
-0.0796,0.3874"/><polyline points="0.0467,0.4174
0.0467,0.3874"/><polyline points="0.1731,0.4174
0.1731,0.3874"/><polyline points="0.2994,0.4174
0.2994,0.3874"/><polyline points="0.4257,0.4174
0.4257,0.3874"/><polyline points="0.5521,0.4174
0.5521,0.3874"/><polyline points="0.6784,0.4174
0.6784,0.3874"/></g></g><g class="ticktext"><g fill="rgb(5%, 5%, 5%)" fill-opacity="1.0" font-size="0.0421" stroke="none" stroke-width="0.0" text-anchor="middle"><text x="-0.5849" y="0.4547">-1.0</text><text x="-0.4586" y="0.4547">-0.8</text><text x="-0.3323" y="0.4547">-0.6</text><text x="-0.2059" y="0.4547">-0.4</text><text x="-0.0796" y="0.4547">-0.2</text><text x="0.0467" y="0.4547"> 0.0</text><text x="0.1731" y="0.4547"> 0.2</text><text x="0.2994" y="0.4547"> 0.4</text><text x="0.4257" y="0.4547"> 0.6</text><text x="0.5521" y="0.4547"> 0.8</text><text x="0.6784" y="0.4547"> 1.0</text></g></g><g class="ticklines"><g fill="none" stroke="rgb(5%, 5%, 5%)" stroke-opacity="0.05" stroke-width="0.0050"><polyline points="-0.5849,0.3778 -0.5849,-0.4455"/><polyline points="-0.4586,0.3778 -0.4586,-0.4455"/><polyline points="-0.3323,0.3778 -0.3323,-0.4455"/><polyline points="-0.2059,0.3778 -0.2059,-0.4455"/><polyline points="-0.0796,0.3778 -0.0796,-0.4455"/><polyline points="0.0467,0.3778 0.0467,-0.4455"/><polyline points="0.1731,0.3778 0.1731,-0.4455"/><polyline points="0.2994,0.3778 0.2994,-0.4455"/><polyline points="0.4257,0.3778 0.4257,-0.4455"/><polyline points="0.5521,0.3778 0.5521,-0.4455"/><polyline points="0.6784,0.3778 0.6784,-0.4455"/></g></g></g><g class="axisbar"><g fill="rgb(5%, 5%, 5%)" fill-opacity="0.4" stroke="rgb(0%, 0%, 0%)" stroke-opacity="0" stroke-width="0"><rect height="0.0033" width="1.2667" x="-0.5866" y="0.3860"/></g></g></g><g class="frame"><g fill="rgb(100%, 100%, 100%)" fill-opacity="0.02" stroke="rgb(0%, 0%, 0%)" stroke-opacity="0" stroke-width="0"><rect height="1.0" width="1.5" x="-0.75" y="-0.5"/></g></g></g></svg>