<svg height="300" viewBox="-0.75 -0.5 1.5 1.0" width="450" xmlns="http://www.w3.org/2000/svg" xmlns:xlink="http://www.w3.org/1999/xlink"><style>svg {
  color-scheme: light dark;
}
{
  .canvas g, .title g, .axisbar g, .ticktext g, .tickglyph g, .ticklines g, .legendContent g text {
    fill: rgb(5%, 5%, 5%);
  }
  .ticklines g, .tickglyph g, .legendBorder g {
    stroke: rgb(5%, 5%, 5%);
  }
  .legendBorder g {
    fill: rgb(94%, 94%, 94%);
  }
}
@media (prefers-color-scheme:dark) {
  .canvas g, .title g, .axisbar g, .ticktext g, .tickglyph g, .ticklines g, .legendContent g text {
    fill: rgb(94%, 94%, 94%);
  }
  .ticklines g, .tickglyph g, .legendBorder g {
    stroke: rgb(94%, 94%, 94%);
  }
  .legendBorder g {
    fill: rgb(5%, 5%, 5%);
  }
}</style><g class="chart"><g class="histogram"><g fill="rgb(2%, 73%, 80%)" fill-opacity="0.1" stroke="rgb(2%, 29%, 48%)" stroke-opacity="1.0" stroke-width="0.0100"><rect height="0.0344" width="0.0326" x="-0.6855" y="0.3314"/><rect height="0.0058" width="0.0326" x="-0.6529" y="0.3600"/><rect height="0.0039" width="0.0326" x="-0.6202" y="0.3619"/><rect height="0.0097" width="0.0326" x="-0.5876" y="0.3561"/><rect height="0.0097" width="0.0326" x="-0.5550" y="0.3561"/><rect height="0.0136" width="0.0326" x="-0.5223" y="0.3522"/><rect height="0.0227" width="0.0326" x="-0.4897" y="0.3431"/><rect height="0.0182" width="0.0326" x="-0.4570" y="0.3476"/><rect height="0.0305" width="0.0326" x="-0.4244" y="0.3353"/><rect height="0.0416" width="0.0326" x="-0.3917" y="0.3243"/><rect height="0.0461" width="0.0326" x="-0.3591" y="0.3197"/><rect height="0.0734" width="0.0326" x="-0.3264" y="0.2925"/><rect height="0.0870" width="0.0326" x="-0.2938" y="0.2788"/><rect height="0.1234" width="0.0326" x="-0.2612" y="0.2425"/><rect height="0.1389" width="0.0326" x="-0.2285" y="0.2269"/><rect height="0.1928" width="0.0326" x="-0.1959" y="0.1730"/><rect height="0.2617" width="0.0326" x="-0.1632" y="0.1042"/><rect height="0.3590" width="0.0326" x="-0.1306" y="0.0068"/><rect height="0.4337" width="0.0326" x="-0.0979" y="-0.0679"/><rect height="0.6097" width="0.0326" x="-0.0653" y="-0.2438"/><rect height="0.7843" width="0.0326" x="-0.0326" y="-0.4185"/><rect height="0.8207" width="0.0326" x="0" y="-0.4549"/><rect height="0.6863" width="0.0326" x="0.0326" y="-0.3205"/><rect height="0.5733" width="0.0326" x="0.0653" y="-0.2075"/><rect height="0.4201" width="0.0326" x="0.0979" y="-0.0543"/><rect height="0.3344" width="0.0326" x="0.1306" y="0.0314"/><rect height="0.2461" width="0.0326" x="0.1632" y="0.1197"/><rect height="0.1786" width="0.0326" x="0.1959" y="0.1873"/><rect height="0.1402" width="0.0326" x="0.2285" y="0.2256"/><rect height="0.0967" width="0.0326" x="0.2612" y="0.2691"/><rect height="0.0669" width="0.0326" x="0.2938" y="0.2989"/><rect height="0.0422" width="0.0326" x="0.3264" y="0.3236"/><rect height="0.0435" width="0.0326" x="0.3591" y="0.3223"/><rect height="0.0299" width="0.0326" x="0.3917" y="0.3360"/><rect height="0.0149" width="0.0326" x="0.4244" y="0.3509"/><rect height="0.0162" width="0.0326" x="0.4570" y="0.3496"/><rect height="0.0071" width="0.0326" x="0.4897" y="0.3587"/><rect height="0.0110" width="0.0326" x="0.5223" y="0.3548"/><rect height="0.0078" width="0.0326" x="0.5550" y="0.3580"/><rect height="0.0039" width="0.0326" x="0.5876" y="0.3619"/><rect height="0.0084" width="0.0326" x="0.6202" y="0.3574"/><rect height="0.0266" width="0.0326" x="0.6529" y="0.3392"/></g></g></g><g class="hud"><g class="axis"><g class="ticks"><g class="tickglyph"><g fill="rgb(5%, 5%, 5%)" fill-opacity="0.4" stroke="rgb(5%, 5%, 5%)" stroke-opacity="0.4" stroke-width="0.0040"><polyline points="-0.6529,0.4095
-0.6529,0.3795"/><polyline points="-0.3264,0.4095
-0.3264,0.3795"/><polyline points="0,0.4095
0,0.3795"/><polyline points="0.3264,0.4095
0.3264,0.3795"/><polyline points="0.6529,0.4095
0.6529,0.3795"/></g></g><g class="ticktext"><g fill="rgb(5%, 5%, 5%)" fill-opacity="1.0" font-size="0.0457" stroke="none" stroke-width="0.0" text-anchor="middle"><text x="-0.6529" y="0.4467">-0.04</text><text x="-0.3264" y="0.4467">-0.02</text><text x="0" y="0.4467"> 0.00</text><text x="0.3264" y="0.4467"> 0.02</text><text x="0.6529" y="0.4467"> 0.04</text></g></g></g><g class="axisbar"><g fill="rgb(5%, 5%, 5%)" fill-opacity="0.4" stroke="rgb(0%, 0%, 0%)" stroke-opacity="0" stroke-width="0"><rect height="0.0033" width="1.3747" x="-0.6874" y="0.3781"/></g></g></g><g class="frame"><g fill="rgb(100%, 100%, 100%)" fill-opacity="0.02" stroke="rgb(0%, 0%, 0%)" stroke-opacity="0" stroke-width="0"><rect height="1.0" width="1.5" x="-0.75" y="-0.5"/></g></g></g></svg>