<svg height="300" viewBox="-0.75 -0.5 1.5 1.0" width="450" xmlns="http://www.w3.org/2000/svg" xmlns:xlink="http://www.w3.org/1999/xlink"><style>svg {
  color-scheme: light dark;
}
{
  .canvas g, .title g, .axisbar g, .ticktext g, .tickglyph g, .ticklines g, .legendContent g text {
    fill: rgb(5%, 5%, 5%);
  }
  .ticklines g, .tickglyph g, .legendBorder g {
    stroke: rgb(5%, 5%, 5%);
  }
  .legendBorder g {
    fill: rgb(94%, 94%, 94%);
  }
}
@media (prefers-color-scheme:dark) {
  .canvas g, .title g, .axisbar g, .ticktext g, .tickglyph g, .ticklines g, .legendContent g text {
    fill: rgb(94%, 94%, 94%);
  }
  .ticklines g, .tickglyph g, .legendBorder g {
    stroke: rgb(94%, 94%, 94%);
  }
  .legendBorder g {
    fill: rgb(5%, 5%, 5%);
  }
}</style><g class="chart"><g class="line"><g fill="none" stroke="rgb(2%, 73%, 80%)" stroke-opacity="1.0" stroke-width="0.0150"><polyline points="-0.6059,0.1875 -0.2077,0.1875 0.1905,-0.3537"/></g><g fill="none" stroke="rgb(2%, 29%, 48%)" stroke-opacity="1.0" stroke-width="0.0150"><polyline points="-0.6059,0.3228 0.5091,-0.0831"/></g><g fill="none" stroke="rgb(66%, 7%, 55%)" stroke-opacity="1.0" stroke-width="0.0150"><polyline points="-0.4068,-0.2184 -0.4068,0.3228"/></g></g></g><g class="hud"><g class="frame"><g fill="rgb(100%, 100%, 100%)" fill-opacity="0.02" stroke="rgb(0%, 0%, 0%)" stroke-opacity="0" stroke-width="0"><rect height="0.6866" width="1.2006" x="-0.6118" y="-0.3588"/></g></g><g class="axis"><g class="ticks"><g class="tickglyph"><g fill="rgb(5%, 5%, 5%)" fill-opacity="0.4" stroke="rgb(5%, 5%, 5%)" stroke-opacity="0.4" stroke-width="0.0040"><g transform="rotate(-90.0, -0.6357, 0.3228)"><polyline points="-0.6357,0.3378
-0.6357,0.3078"/></g><g transform="rotate(-90.0, -0.6357, 0.2551)"><polyline points="-0.6357,0.2701
-0.6357,0.2401"/></g><g transform="rotate(-90.0, -0.6357, 0.1875)"><polyline points="-0.6357,0.2025
-0.6357,0.1725"/></g><g transform="rotate(-90.0, -0.6357, 0.1198)"><polyline points="-0.6357,0.1348
-0.6357,0.1048"/></g><g transform="rotate(-90.0, -0.6357, 0.0522)"><polyline points="-0.6357,0.0672
-0.6357,0.0372"/></g><g transform="rotate(-90.0, -0.6357, -0.0155)"><polyline points="-0.6357,-0.0005
-0.6357,-0.0305"/></g><g transform="rotate(-90.0, -0.6357, -0.0831)"><polyline points="-0.6357,-0.0681
-0.6357,-0.0981"/></g><g transform="rotate(-90.0, -0.6357, -0.1508)"><polyline points="-0.6357,-0.1358
-0.6357,-0.1658"/></g><g transform="rotate(-90.0, -0.6357, -0.2184)"><polyline points="-0.6357,-0.2034
-0.6357,-0.2334"/></g><g transform="rotate(-90.0, -0.6357, -0.2861)"><polyline points="-0.6357,-0.2711
-0.6357,-0.3011"/></g><g transform="rotate(-90.0, -0.6357, -0.3537)"><polyline points="-0.6357,-0.3387
-0.6357,-0.3687"/></g></g></g><g class="ticktext"><g fill="rgb(5%, 5%, 5%)" fill-opacity="1.0" font-size="0.0398" stroke="none" stroke-width="0.0" text-anchor="end"><text x="-0.6644" y="0.3321">0.0</text><text x="-0.6644" y="0.2644">0.5</text><text x="-0.6644" y="0.1968">1.0</text><text x="-0.6644" y="0.1291">1.5</text><text x="-0.6644" y="0.0615">2.0</text><text x="-0.6644" y="-0.0062">2.5</text><text x="-0.6644" y="-0.0738">3.0</text><text x="-0.6644" y="-0.1415">3.5</text><text x="-0.6644" y="-0.2091">4.0</text><text x="-0.6644" y="-0.2768">4.5</text><text x="-0.6644" y="-0.3444">5.0</text></g></g><g class="ticklines"><g fill="none" stroke="rgb(5%, 5%, 5%)" stroke-opacity="0.05" stroke-width="0.0050"><polyline points="-0.6059,0.3228 0.5887,0.3228"/><polyline points="-0.6059,0.2551 0.5887,0.2551"/><polyline points="-0.6059,0.1875 0.5887,0.1875"/><polyline points="-0.6059,0.1198 0.5887,0.1198"/><polyline points="-0.6059,0.0522 0.5887,0.0522"/><polyline points="-0.6059,-0.0155 0.5887,-0.0155"/><polyline points="-0.6059,-0.0831 0.5887,-0.0831"/><polyline points="-0.6059,-0.1508 0.5887,-0.1508"/><polyline points="-0.6059,-0.2184 0.5887,-0.2184"/><polyline points="-0.6059,-0.2861 0.5887,-0.2861"/><polyline points="-0.6059,-0.3537 0.5887,-0.3537"/></g></g></g><g class="axisbar"><g fill="rgb(5%, 5%, 5%)" fill-opacity="0.4" stroke="rgb(0%, 0%, 0%)" stroke-opacity="0" stroke-width="0"><rect height="0.6792" width="0.0032" x="-0.6230" y="-0.3551"/></g></g></g><g class="axis"><g class="ticks"><g class="tickglyph"><g fill="rgb(5%, 5%, 5%)" fill-opacity="0.4" stroke="rgb(5%, 5%, 5%)" stroke-opacity="0.4" stroke-width="0.0040"><polyline points="-0.6059,0.3631
-0.6059,0.3331"/><polyline points="-0.4068,0.3631
-0.4068,0.3331"/><polyline points="-0.2077,0.3631
-0.2077,0.3331"/><polyline points="-0.0086,0.3631
-0.0086,0.3331"/><polyline points="0.1905,0.3631
0.1905,0.3331"/><polyline points="0.3896,0.3631
0.3896,0.3331"/><polyline points="0.5887,0.3631
0.5887,0.3331"/></g></g><g class="ticktext"><g fill="rgb(5%, 5%, 5%)" fill-opacity="1.0" font-size="0.0398" stroke="none" stroke-width="0.0" text-anchor="middle"><text x="-0.6059" y="0.3911">0.0</text><text x="-0.4068" y="0.3911">0.5</text><text x="-0.2077" y="0.3911">1.0</text><text x="-0.0086" y="0.3911">1.5</text><text x="0.1905" y="0.3911">2.0</text><text x="0.3896" y="0.3911">2.5</text><text x="0.5887" y="0.3911">3.0</text></g></g><g class="ticklines"><g fill="none" stroke="rgb(5%, 5%, 5%)" stroke-opacity="0.05" stroke-width="0.0050"><polyline points="-0.6059,0.3228 -0.6059,-0.3537"/><polyline points="-0.4068,0.3228 -0.4068,-0.3537"/><polyline points="-0.2077,0.3228 -0.2077,-0.3537"/><polyline points="-0.0086,0.3228 -0.0086,-0.3537"/><polyline points="0.1905,0.3228 0.1905,-0.3537"/><polyline points="0.3896,0.3228 0.3896,-0.3537"/><polyline points="0.5887,0.3228 0.5887,-0.3537"/></g></g></g><g class="axisbar"><g fill="rgb(5%, 5%, 5%)" fill-opacity="0.4" stroke="rgb(0%, 0%, 0%)" stroke-opacity="0" stroke-width="0"><rect height="0.0027" width="1.1978" x="-0.6074" y="0.3346"/></g></g></g><g class="title"><g fill="rgb(5%, 5%, 5%)" fill-opacity="1.0" font-size="0.0796" stroke="none" stroke-width="0.0" text-anchor="middle"><text x="-0.0513" y="-0.4188">Line Chart</text></g></g><g class="title"><g fill="rgb(5%, 5%, 5%)" fill-opacity="1.0" font-size="0.0478" stroke="none" stroke-width="0.0" text-anchor="end"><text x="0.6156" y="0.4608">Made with love and chart-svg</text></g></g><g class="legend"><g class="legendBorder"><g fill="rgb(99%, 99%, 99%)" fill-opacity="1.0" stroke="rgb(5%, 5%, 5%)" stroke-opacity="1.0" stroke-width="0.0025"><rect height="0.1793" width="0.3843" x="0.3299" y="0.0775"/></g></g><g class="legendContent"><g fill="rgb(5%, 5%, 5%)" fill-opacity="1.0" font-size="0.0398" stroke="none" stroke-width="0.0" text-anchor="start"><text x="0.3498" y="0.2297">palette1 2</text></g><g fill="none" stroke="rgb(66%, 7%, 55%)" stroke-opacity="1.0" stroke-width="0.0150"><polyline points="0.5688,0.2213 0.6883,0.2213"/></g><g fill="rgb(5%, 5%, 5%)" fill-opacity="1.0" font-size="0.0398" stroke="none" stroke-width="0.0" text-anchor="start"><text x="0.3498" y="0.1756">palette1 1</text></g><g fill="none" stroke="rgb(2%, 29%, 48%)" stroke-opacity="1.0" stroke-width="0.0150"><polyline points="0.5688,0.1672 0.6883,0.1672"/></g><g fill="rgb(5%, 5%, 5%)" fill-opacity="1.0" font-size="0.0398" stroke="none" stroke-width="0.0" text-anchor="start"><text x="0.3498" y="0.1215">palette1 0</text></g><g fill="none" stroke="rgb(2%, 73%, 80%)" stroke-opacity="1.0" stroke-width="0.0150"><polyline points="0.5688,0.1131 0.6883,0.1131"/></g></g></g><g class="frame"><g fill="rgb(100%, 100%, 100%)" fill-opacity="0.02" stroke="rgb(0%, 0%, 0%)" stroke-opacity="0" stroke-width="0"><rect height="1.0" width="1.5" x="-0.75" y="-0.5"/></g></g></g></svg>