<svg height="300" viewBox="-0.75 -0.5 1.5 1.0" width="450" xmlns="http://www.w3.org/2000/svg" xmlns:xlink="http://www.w3.org/1999/xlink"><style>svg {
  color-scheme: light dark;
}
{
  .canvas g, .title g, .axisbar g, .ticktext g, .tickglyph g, .ticklines g, .legendContent g text {
    fill: rgb(5%, 5%, 5%);
  }
  .ticklines g, .tickglyph g, .legendBorder g {
    stroke: rgb(5%, 5%, 5%);
  }
  .legendBorder g {
    fill: rgb(94%, 94%, 94%);
  }
}
@media (prefers-color-scheme:dark) {
  .canvas g, .title g, .axisbar g, .ticktext g, .tickglyph g, .ticklines g, .legendContent g text {
    fill: rgb(94%, 94%, 94%);
  }
  .ticklines g, .tickglyph g, .legendBorder g {
    stroke: rgb(94%, 94%, 94%);
  }
  .legendBorder g {
    fill: rgb(5%, 5%, 5%);
  }
}</style><g class="chart"><g class="histogram"><g fill="rgb(2%, 73%, 80%)" fill-opacity="0.1" stroke="rgb(2%, 29%, 48%)" stroke-opacity="1.0" stroke-width="0.0100"><rect height="0.8150" width="0.0666" x="-0.6657" y="-0.4492"/><rect height="0.3562" width="0.0666" x="-0.5991" y="0.0096"/><rect height="0.2736" width="0.0666" x="-0.5325" y="0.0923"/><rect height="0.2394" width="0.0666" x="-0.4660" y="0.1265"/><rect height="0.2080" width="0.0666" x="-0.3994" y="0.1578"/><rect height="0.2080" width="0.0666" x="-0.3328" y="0.1578"/><rect height="0.1938" width="0.0666" x="-0.2663" y="0.1720"/><rect height="0.1938" width="0.0666" x="-0.1997" y="0.1720"/><rect height="0.1710" width="0.0666" x="-0.1331" y="0.1948"/><rect height="0.1909" width="0.0666" x="-0.0666" y="0.1749"/><rect height="0.1852" width="0.0666" x="0" y="0.1806"/><rect height="0.1738" width="0.0666" x="0.0666" y="0.1920"/><rect height="0.1938" width="0.0666" x="0.1331" y="0.1720"/><rect height="0.1938" width="0.0666" x="0.1997" y="0.1720"/><rect height="0.2109" width="0.0666" x="0.2663" y="0.1549"/><rect height="0.2052" width="0.0666" x="0.3328" y="0.1606"/><rect height="0.2394" width="0.0666" x="0.3994" y="0.1265"/><rect height="0.2736" width="0.0666" x="0.4660" y="0.0923"/><rect height="0.3562" width="0.0666" x="0.5325" y="0.0096"/><rect height="0.8207" width="0.0666" x="0.5991" y="-0.4549"/></g></g></g><g class="hud"><g class="axis"><g class="ticks"><g class="tickglyph"><g fill="rgb(5%, 5%, 5%)" fill-opacity="0.4" stroke="rgb(5%, 5%, 5%)" stroke-opacity="0.4" stroke-width="0.0040"><polyline points="-0.6657,0.4095
-0.6657,0.3795"/><polyline points="-0.3328,0.4095
-0.3328,0.3795"/><polyline points="0,0.4095
0,0.3795"/><polyline points="0.3328,0.4095
0.3328,0.3795"/><polyline points="0.6657,0.4095
0.6657,0.3795"/></g></g><g class="ticktext"><g fill="rgb(5%, 5%, 5%)" fill-opacity="1.0" font-size="0.0444" stroke="none" stroke-width="0.0" text-anchor="middle"><text x="-0.6657" y="0.4467">-1.0</text><text x="-0.3328" y="0.4467">-0.5</text><text x="0" y="0.4467"> 0.0</text><text x="0.3328" y="0.4467"> 0.5</text><text x="0.6657" y="0.4467"> 1.0</text></g></g></g><g class="axisbar"><g fill="rgb(5%, 5%, 5%)" fill-opacity="0.4" stroke="rgb(0%, 0%, 0%)" stroke-opacity="0" stroke-width="0"><rect height="0.0033" width="1.3349" x="-0.6675" y="0.3781"/></g></g></g><g class="frame"><g fill="rgb(100%, 100%, 100%)" fill-opacity="0.02" stroke="rgb(0%, 0%, 0%)" stroke-opacity="0" stroke-width="0"><rect height="1.0" width="1.5" x="-0.75" y="-0.5"/></g></g></g></svg>