<svg height="300" viewBox="-0.75 -0.5 1.5 1.0" width="450" xmlns="http://www.w3.org/2000/svg" xmlns:xlink="http://www.w3.org/1999/xlink"><style>svg {
  color-scheme: light dark;
}
{
  .canvas g, .title g, .axisbar g, .ticktext g, .tickglyph g, .ticklines g, .legendContent g text {
    fill: rgb(5%, 5%, 5%);
  }
  .ticklines g, .tickglyph g, .legendBorder g {
    stroke: rgb(5%, 5%, 5%);
  }
  .legendBorder g {
    fill: rgb(94%, 94%, 94%);
  }
}
@media (prefers-color-scheme:dark) {
  .canvas g, .title g, .axisbar g, .ticktext g, .tickglyph g, .ticklines g, .legendContent g text {
    fill: rgb(94%, 94%, 94%);
  }
  .ticklines g, .tickglyph g, .legendBorder g {
    stroke: rgb(94%, 94%, 94%);
  }
  .legendBorder g {
    fill: rgb(5%, 5%, 5%);
  }
}</style><g class="chart"><g fill="none" stroke="rgb(2%, 73%, 80%)" stroke-opacity="1.0" stroke-width="0.0200"><polyline points="-0.74,0 -0.7370,-0.0049 -0.7341,-0.0098 -0.7311,-0.0147 -0.7282,-0.0196 -0.7252,-0.0245 -0.7222,-0.0294 -0.7193,-0.0343 -0.7163,-0.0392 -0.7134,-0.0440 -0.7104,-0.0489 -0.7074,-0.0538 -0.7045,-0.0587 -0.7015,-0.0635 -0.6986,-0.0684 -0.6956,-0.0732 -0.6926,-0.0781 -0.6897,-0.0829 -0.6867,-0.0877 -0.6838,-0.0925 -0.6808,-0.0973 -0.6778,-0.1021 -0.6749,-0.1069 -0.6719,-0.1117 -0.6690,-0.1165 -0.666,-0.1212 -0.6630,-0.1260 -0.6601,-0.1307 -0.6571,-0.1354 -0.6542,-0.1401 -0.6512,-0.1448 -0.6482,-0.1495 -0.6453,-0.1541 -0.6423,-0.1588 -0.6394,-0.1634 -0.6364,-0.1680 -0.6334,-0.1726 -0.6305,-0.1772 -0.6275,-0.1818 -0.6246,-0.1863 -0.6216,-0.1908 -0.6186,-0.1953 -0.6157,-0.1998 -0.6127,-0.2043 -0.6098,-0.2087 -0.6068,-0.2131 -0.6038,-0.2175 -0.6009,-0.2219 -0.5979,-0.2263 -0.5950,-0.2306 -0.592,-0.2349 -0.5890,-0.2392 -0.5861,-0.2435 -0.5831,-0.2477 -0.5802,-0.2519 -0.5772,-0.2561 -0.5742,-0.2603 -0.5713,-0.2644 -0.5683,-0.2685 -0.5654,-0.2726 -0.5624,-0.2767 -0.5594,-0.2807 -0.5565,-0.2847 -0.5535,-0.2887 -0.5506,-0.2926 -0.5476,-0.2965 -0.5446,-0.3004 -0.5417,-0.3043 -0.5387,-0.3081 -0.5358,-0.3119 -0.5328,-0.3157 -0.5298,-0.3194 -0.5269,-0.3231 -0.5239,-0.3268 -0.5210,-0.3304 -0.518,-0.3340 -0.5150,-0.3376 -0.5121,-0.3411 -0.5091,-0.3446 -0.5062,-0.3481 -0.5032,-0.3515 -0.5002,-0.3549 -0.4973,-0.3583 -0.4943,-0.3616 -0.4914,-0.3649 -0.4884,-0.3681 -0.4854,-0.3713 -0.4825,-0.3745 -0.4795,-0.3777 -0.4766,-0.3808 -0.4736,-0.3838 -0.4706,-0.3869 -0.4677,-0.3898 -0.4647,-0.3928 -0.4618,-0.3957 -0.4588,-0.3986 -0.4558,-0.4014 -0.4529,-0.4042 -0.4499,-0.4069 -0.4470,-0.4097 -0.444,-0.4123 -0.4410,-0.4149 -0.4381,-0.4175 -0.4351,-0.4201 -0.4322,-0.4226 -0.4292,-0.4250 -0.4262,-0.4275 -0.4233,-0.4298 -0.4203,-0.4322 -0.4174,-0.4344 -0.4144,-0.4367 -0.4114,-0.4389 -0.4085,-0.4410 -0.4055,-0.4432 -0.4026,-0.4452 -0.3996,-0.4473 -0.3966,-0.4492 -0.3937,-0.4512 -0.3907,-0.4531 -0.3878,-0.4549 -0.3848,-0.4567 -0.3818,-0.4585 -0.3789,-0.4602 -0.3759,-0.4618 -0.3730,-0.4634 -0.37,-0.4650 -0.3670,-0.4665 -0.3641,-0.4680 -0.3611,-0.4694 -0.3582,-0.4708 -0.3552,-0.4721 -0.3522,-0.4734 -0.3493,-0.4747 -0.3463,-0.4759 -0.3434,-0.4770 -0.3404,-0.4781 -0.3374,-0.4792 -0.3345,-0.4802 -0.3315,-0.4811 -0.3286,-0.4820 -0.3256,-0.4829 -0.3226,-0.4837 -0.3197,-0.4844 -0.3167,-0.4852 -0.3138,-0.4858 -0.3108,-0.4864 -0.3078,-0.4870 -0.3049,-0.4875 -0.3019,-0.4880 -0.2990,-0.4884 -0.2960,-0.4888 -0.2930,-0.4891 -0.2901,-0.4894 -0.2871,-0.4896 -0.2842,-0.4898 -0.2812,-0.4899 -0.2782,-0.4900 -0.2753,-0.49 -0.2723,-0.4900 -0.2694,-0.4899 -0.2664,-0.4898 -0.2634,-0.4896 -0.2605,-0.4894 -0.2575,-0.4891 -0.2546,-0.4888 -0.2516,-0.4885 -0.2486,-0.4881 -0.2457,-0.4876 -0.2427,-0.4871 -0.2398,-0.4865 -0.2368,-0.4859 -0.2338,-0.4853 -0.2309,-0.4846 -0.2279,-0.4838 -0.2250,-0.4830 -0.2220,-0.4822 -0.2190,-0.4813 -0.2161,-0.4803 -0.2131,-0.4793 -0.2102,-0.4783 -0.2072,-0.4772 -0.2042,-0.4760 -0.2013,-0.4749 -0.1983,-0.4736 -0.1954,-0.4724 -0.1924,-0.4710 -0.1894,-0.4697 -0.1865,-0.4682 -0.1835,-0.4668 -0.1806,-0.4652 -0.1776,-0.4637 -0.1746,-0.4621 -0.1717,-0.4604 -0.1687,-0.4587 -0.1658,-0.4570 -0.1628,-0.4552 -0.1598,-0.4534 -0.1569,-0.4515 -0.1539,-0.4495 -0.1510,-0.4476 -0.1480,-0.4456 -0.1450,-0.4435 -0.1421,-0.4414 -0.1391,-0.4392 -0.1362,-0.4370 -0.1332,-0.4348 -0.1302,-0.4325 -0.1273,-0.4302 -0.1243,-0.4278 -0.1214,-0.4254 -0.1184,-0.4230 -0.1154,-0.4205 -0.1125,-0.4179 -0.1095,-0.4154 -0.1066,-0.4127 -0.1036,-0.4101 -0.1006,-0.4074 -0.0977,-0.4046 -0.0947,-0.4019 -0.0918,-0.3990 -0.0888,-0.3962 -0.0858,-0.3933 -0.0829,-0.3903 -0.0799,-0.3873 -0.0770,-0.3843 -0.0740,-0.3813 -0.0710,-0.3782 -0.0681,-0.3750 -0.0651,-0.3719 -0.0622,-0.3686 -0.0592,-0.3654 -0.0562,-0.3621 -0.0533,-0.3588 -0.0503,-0.3554 -0.0474,-0.3520 -0.0444,-0.3486 -0.0414,-0.3452 -0.0385,-0.3417 -0.0355,-0.3381 -0.0326,-0.3346 -0.0296,-0.3310 -0.0266,-0.3273 -0.0237,-0.3237 -0.0207,-0.3200 -0.0178,-0.3163 -0.0148,-0.3125 -0.0118,-0.3087 -0.0089,-0.3049 -0.0059,-0.3010 -0.0030,-0.2972 0,-0.2933 0.0030,-0.2893 0.0059,-0.2853 0.0089,-0.2813 0.0118,-0.2773 0.0148,-0.2733 0.0178,-0.2692 0.0207,-0.2651 0.0237,-0.2609 0.0266,-0.2568 0.0296,-0.2526 0.0326,-0.2484 0.0355,-0.2441 0.0385,-0.2399 0.0414,-0.2356 0.0444,-0.2313 0.0474,-0.2270 0.0503,-0.2226 0.0533,-0.2182 0.0562,-0.2138 0.0592,-0.2094 0.0622,-0.2050 0.0651,-0.2005 0.0681,-0.1960 0.0710,-0.1915 0.0740,-0.1870 0.0770,-0.1825 0.0799,-0.1779 0.0829,-0.1733 0.0858,-0.1688 0.0888,-0.1641 0.0918,-0.1595 0.0947,-0.1549 0.0977,-0.1502 0.1006,-0.1455 0.1036,-0.1409 0.1066,-0.1362 0.1095,-0.1314 0.1125,-0.1267 0.1154,-0.1220 0.1184,-0.1172 0.1214,-0.1125 0.1243,-0.1077 0.1273,-0.1029 0.1302,-0.0981 0.1332,-0.0933 0.1362,-0.0885 0.1391,-0.0837 0.1421,-0.0788 0.1450,-0.0740 0.1480,-0.0691 0.1510,-0.0643 0.1539,-0.0594 0.1569,-0.0546 0.1598,-0.0497 0.1628,-0.0448 0.1658,-0.0399 0.1687,-0.0350 0.1717,-0.0302 0.1746,-0.0253 0.1776,-0.0204 0.1806,-0.0155 0.1835,-0.0106 0.1865,-0.0057 0.1894,-0.0008 0.1924,0.0041 0.1954,0.0090 0.1983,0.0139 0.2013,0.0188 0.2042,0.0237 0.2072,0.0286 0.2102,0.0335 0.2131,0.0384 0.2161,0.0433 0.2190,0.0481 0.2220,0.0530 0.2250,0.0579 0.2279,0.0627 0.2309,0.0676 0.2338,0.0725 0.2368,0.0773 0.2398,0.0821 0.2427,0.0870 0.2457,0.0918 0.2486,0.0966 0.2516,0.1014 0.2546,0.1062 0.2575,0.1109 0.2605,0.1157 0.2634,0.1205 0.2664,0.1252 0.2694,0.1299 0.2723,0.1347 0.2753,0.1394 0.2782,0.1441 0.2812,0.1487 0.2842,0.1534 0.2871,0.1580 0.2901,0.1627 0.2930,0.1673 0.2960,0.1719 0.2990,0.1765 0.3019,0.1810 0.3049,0.1856 0.3078,0.1901 0.3108,0.1946 0.3138,0.1991 0.3167,0.2036 0.3197,0.2080 0.3226,0.2124 0.3256,0.2168 0.3286,0.2212 0.3315,0.2256 0.3345,0.2299 0.3374,0.2342 0.3404,0.2385 0.3434,0.2428 0.3463,0.2470 0.3493,0.2513 0.3522,0.2555 0.3552,0.2596 0.3582,0.2638 0.3611,0.2679 0.3641,0.2720 0.3670,0.2760 0.3700,0.2801 0.3730,0.2841 0.3759,0.2881 0.3789,0.2920 0.3818,0.2959 0.3848,0.2998 0.3878,0.3037 0.3907,0.3075 0.3937,0.3113 0.3966,0.3151 0.3996,0.3188 0.4026,0.3225 0.4055,0.3262 0.4085,0.3298 0.4114,0.3334 0.4144,0.3370 0.4174,0.3405 0.4203,0.3441 0.4233,0.3475 0.4262,0.3510 0.4292,0.3544 0.4322,0.3577 0.4351,0.3611 0.4381,0.3644 0.4410,0.3676 0.4440,0.3708 0.4470,0.3740 0.4499,0.3772 0.4529,0.3803 0.4558,0.3833 0.4588,0.3864 0.4618,0.3894 0.4647,0.3923 0.4677,0.3952 0.4706,0.3981 0.4736,0.4010 0.4766,0.4038 0.4795,0.4065 0.4825,0.4092 0.4854,0.4119 0.4884,0.4145 0.4914,0.4171 0.4943,0.4197 0.4973,0.4222 0.5002,0.4246 0.5032,0.4271 0.5062,0.4295 0.5091,0.4318 0.5121,0.4341 0.5150,0.4363 0.5180,0.4385 0.5210,0.4407 0.5239,0.4428 0.5269,0.4449 0.5298,0.4469 0.5328,0.4489 0.5358,0.4509 0.5387,0.4528 0.5417,0.4546 0.5446,0.4564 0.5476,0.4582 0.5506,0.4599 0.5535,0.4616 0.5565,0.4632 0.5594,0.4648 0.5624,0.4663 0.5654,0.4678 0.5683,0.4692 0.5713,0.4706 0.5742,0.4719 0.5772,0.4732 0.5802,0.4745 0.5831,0.4757 0.5861,0.4768 0.5890,0.4779 0.5920,0.4790 0.5950,0.4800 0.5979,0.4810 0.6009,0.4819 0.6038,0.4827 0.6068,0.4836 0.6098,0.4843 0.6127,0.4850 0.6157,0.4857 0.6186,0.4863 0.6216,0.4869 0.6246,0.4874 0.6275,0.4879 0.6305,0.4883 0.6334,0.4887 0.6364,0.4890 0.6394,0.4893 0.6423,0.4896 0.6453,0.4897 0.6482,0.4899 0.6512,0.4900 0.6542,0.49 0.6571,0.4900 0.6601,0.4899 0.6630,0.4898 0.6660,0.4897 0.6690,0.4894 0.6719,0.4892 0.6749,0.4889 0.6778,0.4885 0.6808,0.4881 0.6838,0.4877 0.6867,0.4872 0.6897,0.4866 0.6926,0.4860 0.6956,0.4854 0.6986,0.4847 0.7015,0.4839 0.7045,0.4831 0.7074,0.4823 0.7104,0.4814 0.7134,0.4805 0.7163,0.4795 0.7193,0.4784 0.7222,0.4774 0.7252,0.4762 0.7282,0.4751 0.7311,0.4738 0.7341,0.4726 0.7370,0.4712 0.74,0.4699"/></g></g><g class="hud"/></svg>