<svg height="300" viewBox="-0.75 -0.5 1.5 1.0" width="450" xmlns="http://www.w3.org/2000/svg" xmlns:xlink="http://www.w3.org/1999/xlink"><style>svg {
  color-scheme: light dark;
}
{
  .canvas g, .title g, .axisbar g, .ticktext g, .tickglyph g, .ticklines g, .legendContent g text {
    fill: rgb(5%, 5%, 5%);
  }
  .ticklines g, .tickglyph g, .legendBorder g {
    stroke: rgb(5%, 5%, 5%);
  }
  .legendBorder g {
    fill: rgb(94%, 94%, 94%);
  }
}
@media (prefers-color-scheme:dark) {
  .canvas g, .title g, .axisbar g, .ticktext g, .tickglyph g, .ticklines g, .legendContent g text {
    fill: rgb(94%, 94%, 94%);
  }
  .ticklines g, .tickglyph g, .legendBorder g {
    stroke: rgb(94%, 94%, 94%);
  }
  .legendBorder g {
    fill: rgb(5%, 5%, 5%);
  }
}</style><g class="chart"><g fill="rgb(2%, 73%, 80%)" fill-opacity="0.1" stroke="rgb(2%, 29%, 48%)" stroke-opacity="1.0" stroke-width="0.0100"><rect height="0.1047" width="0.4041" x="-0.7003" y="0.2797"/><rect height="0.4800" width="0.0980" x="-0.2962" y="-0.0955"/><rect height="0.6611" width="0.0711" x="-0.1982" y="-0.2766"/><rect height="0.6054" width="0.0777" x="-0.1271" y="-0.2209"/><rect height="0.8464" width="0.0556" x="-0.0494" y="-0.4619"/><rect height="0.5204" width="0.0904" x="0.0062" y="-0.1359"/><rect height="0.5098" width="0.0922" x="0.0965" y="-0.1254"/><rect height="0.4623" width="0.1017" x="0.1888" y="-0.0779"/><rect height="0.4504" width="0.1044" x="0.2905" y="-0.0660"/><rect height="0.1415" width="0.2991" x="0.3949" y="0.2430"/></g></g><g class="hud"><g class="frame"><g fill="rgb(100%, 100%, 100%)" fill-opacity="0.02" stroke="rgb(0%, 0%, 0%)" stroke-opacity="0" stroke-width="0"><rect height="0.8548" width="1.4036" x="-0.7049" y="-0.4661"/></g></g><g class="axis"><g class="ticks"><g class="tickglyph"><g fill="rgb(5%, 5%, 5%)" fill-opacity="0.4" stroke="rgb(5%, 5%, 5%)" stroke-opacity="0.4" stroke-width="0.0040"><polyline points="-0.7003,0.4291
-0.7003,0.3991"/><polyline points="-0.2962,0.4291
-0.2962,0.3991"/><polyline points="-0.1982,0.4291
-0.1982,0.3991"/><polyline points="-0.1271,0.4291
-0.1271,0.3991"/><polyline points="-0.0494,0.4291
-0.0494,0.3991"/><polyline points="0.0062,0.4291
0.0062,0.3991"/><polyline points="0.0965,0.4291
0.0965,0.3991"/><polyline points="0.1888,0.4291
0.1888,0.3991"/><polyline points="0.2905,0.4291
0.2905,0.3991"/><polyline points="0.3949,0.4291
0.3949,0.3991"/><polyline points="0.6940,0.4291
0.6940,0.3991"/></g></g><g class="ticktext"><g fill="rgb(5%, 5%, 5%)" fill-opacity="1.0" font-size="0.0279" stroke="none" stroke-width="0.0" text-anchor="middle"><text x="-0.7003" y="0.4585">1%</text><text x="-0.2962" y="0.4585">10%</text><text x="-0.1982" y="0.4585">20%</text><text x="-0.1271" y="0.4585">30%</text><text x="-0.0494" y="0.4585">40%</text><text x="0.0062" y="0.4585">50%</text><text x="0.0965" y="0.4585">60%</text><text x="0.1888" y="0.4585">70%</text><text x="0.2905" y="0.4585">80%</text><text x="0.3949" y="0.4585">90%</text><text x="0.6940" y="0.4585">99%</text></g></g></g><g class="axisbar"><g fill="rgb(5%, 5%, 5%)" fill-opacity="0.4" stroke="rgb(0%, 0%, 0%)" stroke-opacity="0" stroke-width="0"><rect height="0.0034" width="1.3980" x="-0.7021" y="0.3972"/></g></g></g><g class="frame"><g fill="rgb(100%, 100%, 100%)" fill-opacity="0.02" stroke="rgb(0%, 0%, 0%)" stroke-opacity="0" stroke-width="0"><rect height="1.0" width="1.5" x="-0.75" y="-0.5"/></g></g></g></svg>