<svg height="300" viewBox="-0.75 -0.5 1.5 1.0" width="450" xmlns="http://www.w3.org/2000/svg" xmlns:xlink="http://www.w3.org/1999/xlink"><style>svg {
  color-scheme: light dark;
}
{
  .canvas g, .title g, .axisbar g, .ticktext g, .tickglyph g, .ticklines g, .legendContent g text {
    fill: rgb(5%, 5%, 5%);
  }
  .ticklines g, .tickglyph g, .legendBorder g {
    stroke: rgb(5%, 5%, 5%);
  }
  .legendBorder g {
    fill: rgb(94%, 94%, 94%);
  }
}
@media (prefers-color-scheme:dark) {
  .canvas g, .title g, .axisbar g, .ticktext g, .tickglyph g, .ticklines g, .legendContent g text {
    fill: rgb(94%, 94%, 94%);
  }
  .ticklines g, .tickglyph g, .legendBorder g {
    stroke: rgb(94%, 94%, 94%);
  }
  .legendBorder g {
    fill: rgb(5%, 5%, 5%);
  }
}</style><g class="chart"><g fill="none" stroke="rgb(70%, 10%, 30%)" stroke-opacity="0.5" stroke-width="0.0050"><polyline points="-0.6155,-0.0723 -0.6145,-0.0724 -0.6134,-0.0725 -0.6124,-0.0726 -0.6114,-0.0727 -0.6104,-0.0728 -0.6094,-0.0730 -0.6084,-0.0731 -0.6073,-0.0732 -0.6063,-0.0733 -0.6053,-0.0735 -0.6043,-0.0736 -0.6033,-0.0737 -0.6023,-0.0739 -0.6012,-0.0740 -0.6002,-0.0741 -0.5992,-0.0742 -0.5982,-0.0744 -0.5972,-0.0745 -0.5961,-0.0747 -0.5951,-0.0748 -0.5941,-0.0806 -0.5931,-0.0808 -0.5921,-0.0810 -0.5911,-0.0812 -0.5900,-0.0815 -0.5890,-0.0817 -0.5880,-0.0819 -0.5870,-0.0822 -0.5860,-0.0824 -0.5850,-0.0826 -0.5839,-0.0829 -0.5829,-0.0831 -0.5819,-0.0834 -0.5809,-0.0836 -0.5799,-0.0839 -0.5789,-0.0841 -0.5778,-0.0844 -0.5768,-0.0846 -0.5758,-0.0849 -0.5748,-0.0852 -0.5738,-0.0854 -0.5727,-0.0857 -0.5717,-0.0860 -0.5707,-0.0862 -0.5697,-0.0865 -0.5687,-0.0867 -0.5677,-0.0869 -0.5666,-0.0871 -0.5656,-0.0872 -0.5646,-0.0874 -0.5636,-0.0876 -0.5626,-0.0879 -0.5616,-0.0881 -0.5605,-0.0883 -0.5595,-0.0884 -0.5585,-0.0888 -0.5575,-0.0890 -0.5565,-0.0894 -0.5554,-0.0899 -0.5544,-0.0902 -0.5534,-0.0903 -0.5524,-0.0903 -0.5514,-0.0903 -0.5504,-0.0904 -0.5493,-0.0904 -0.5483,-0.0905 -0.5473,-0.0905 -0.5463,-0.0906 -0.5453,-0.0906 -0.5443,-0.0906 -0.5432,-0.0907 -0.5422,-0.0908 -0.5412,-0.0908 -0.5402,-0.0908 -0.5392,-0.0909 -0.5381,-0.0909 -0.5371,-0.0909 -0.5361,-0.0910 -0.5351,-0.0911 -0.5341,-0.0911 -0.5331,-0.0912 -0.5320,-0.0912 -0.5310,-0.0913 -0.5300,-0.0913 -0.5290,-0.0914 -0.5280,-0.0914 -0.5270,-0.0915 -0.5259,-0.0756 -0.5249,-0.0756 -0.5239,-0.0756 -0.5229,-0.0756 -0.5219,-0.0757 -0.5209,-0.0757 -0.5198,-0.0757 -0.5188,-0.0757 -0.5178,-0.0757 -0.5168,-0.0758 -0.5158,-0.0758 -0.5147,-0.0758 -0.5137,-0.0758 -0.5127,-0.0759 -0.5117,-0.0759 -0.5107,-0.0759 -0.5097,-0.0759 -0.5086,-0.0760 -0.5076,-0.0760 -0.5066,-0.0760 -0.5056,-0.0760 -0.5046,-0.0761 -0.5036,-0.0761 -0.5025,-0.0761 -0.5015,-0.0761 -0.5005,-0.0762 -0.4995,-0.0762 -0.4985,-0.0762 -0.4974,-0.0763 -0.4964,-0.0763 -0.4954,-0.0763 -0.4944,-0.0763 -0.4934,-0.0764 -0.4924,-0.0764 -0.4913,-0.0764 -0.4903,-0.0765 -0.4893,-0.0765 -0.4883,-0.0765 -0.4873,-0.0766 -0.4863,-0.0766 -0.4852,-0.0767 -0.4842,-0.0767 -0.4832,-0.0768 -0.4822,-0.0768 -0.4812,-0.0769 -0.4802,-0.0769 -0.4791,-0.0770 -0.4781,-0.0770 -0.4771,-0.0771 -0.4761,-0.0771 -0.4751,-0.0772 -0.4740,-0.0772 -0.4730,-0.0773 -0.4720,-0.0774 -0.4710,-0.0774 -0.4700,-0.0775 -0.4690,-0.0776 -0.4679,-0.0776 -0.4669,-0.0777 -0.4659,-0.0778 -0.4649,-0.0779 -0.4639,-0.0779 -0.4629,-0.0780 -0.4618,-0.0781 -0.4608,-0.0782 -0.4598,-0.0782 -0.4588,-0.0783 -0.4578,-0.0784 -0.4567,-0.0785 -0.4557,-0.0785 -0.4547,-0.0786 -0.4537,-0.0787 -0.4527,-0.0788 -0.4517,-0.0789 -0.4506,-0.0790 -0.4496,-0.0790 -0.4486,-0.0791 -0.4476,-0.0792 -0.4466,-0.0793 -0.4456,-0.0794 -0.4445,-0.0795 -0.4435,-0.0796 -0.4425,-0.0797 -0.4415,-0.0797 -0.4405,-0.0798 -0.4394,-0.0799 -0.4384,-0.0800 -0.4374,-0.0801 -0.4364,-0.0802 -0.4354,-0.0803 -0.4344,-0.0804 -0.4333,-0.0805 -0.4323,-0.0806 -0.4313,-0.0807 -0.4303,-0.0808 -0.4293,-0.0815 -0.4283,-0.0825 -0.4272,-0.0835 -0.4262,-0.0844 -0.4252,-0.0854 -0.4242,-0.0859 -0.4232,-0.0859 -0.4222,-0.0860 -0.4211,-0.0861 -0.4201,-0.0862 -0.4191,-0.0862 -0.4181,-0.0863 -0.4171,-0.0864 -0.4160,-0.0865 -0.4150,-0.0866 -0.4140,-0.0866 -0.4130,-0.0867 -0.4120,-0.0868 -0.4110,-0.0869 -0.4099,-0.0870 -0.4089,-0.0870 -0.4079,-0.0871 -0.4069,-0.0872 -0.4059,-0.0873 -0.4049,-0.0874 -0.4038,-0.0875 -0.4028,-0.0876 -0.4018,-0.0877 -0.4008,-0.0878 -0.3998,-0.0879 -0.3987,-0.0879 -0.3977,-0.0881 -0.3967,-0.0882 -0.3957,-0.0883 -0.3947,-0.0884 -0.3937,-0.0885 -0.3926,-0.0886 -0.3916,-0.0887 -0.3906,-0.0888 -0.3896,-0.0889 -0.3886,-0.0890 -0.3876,-0.0891 -0.3865,-0.0893 -0.3855,-0.0894 -0.3845,-0.0667 -0.3835,-0.0667 -0.3825,-0.0671 -0.3814,-0.0378 -0.3804,-0.0522 -0.3794,-0.0539 -0.3784,-0.0541 -0.3774,-0.0542 -0.3764,-0.0536 -0.3753,-0.0538 -0.3743,0.0502 -0.3733,0.0009 -0.3723,0.0078 -0.3713,0.1159 -0.3703,0.0853 -0.3692,0.1651 -0.3682,0.1646 -0.3672,0.1641 -0.3662,0.1636 -0.3652,0.1631 -0.3642,0.1625 -0.3631,0.1620 -0.3621,0.1615 -0.3611,0.1609 -0.3601,0.1604 -0.3591,0.1598 -0.3580,0.1593 -0.3570,0.1587 -0.3560,0.1581 -0.3550,0.1575 -0.3540,0.1570 -0.3530,0.1564 -0.3519,0.1558 -0.3509,0.1552 -0.3499,0.1546 -0.3489,0.1539 -0.3479,0.1533 -0.3469,0.1527 -0.3458,0.1521 -0.3448,0.1514 -0.3438,0.1508 -0.3428,0.1501 -0.3418,0.1495 -0.3407,0.1488 -0.3397,0.1481 -0.3387,0.1474 -0.3377,0.1468 -0.3367,0.1461 -0.3357,0.1454 -0.3346,0.1447 -0.3336,0.1439 -0.3326,0.1432 -0.3316,0.1425 -0.3306,0.1418 -0.3296,0.1410 -0.3285,0.1403 -0.3275,0.1395 -0.3265,0.1387 -0.3255,0.1380 -0.3245,0.1372 -0.3235,0.1364 -0.3224,0.1356 -0.3214,0.1348 -0.3204,0.1340 -0.3194,0.1332 -0.3184,0.1323 -0.3173,0.1315 -0.3163,0.1306 -0.3153,0.1298 -0.3143,0.1289 -0.3133,0.1280 -0.3123,0.1272 -0.3112,0.1263 -0.3102,0.1254 -0.3092,0.1245 -0.3082,0.1235 -0.3072,0.1226 -0.3062,0.1217 -0.3051,0.1207 -0.3041,0.1198 -0.3031,0.1188 -0.3021,0.1178 -0.3011,0.1168 -0.3000,0.0856 -0.2990,0.0849 -0.2980,0.0841 -0.2970,0.0834 -0.2960,0.0826 -0.2950,0.0818 -0.2939,0.0810 -0.2929,0.0802 -0.2919,0.0794 -0.2909,0.0786 -0.2899,0.0778 -0.2889,0.0770 -0.2878,0.0762 -0.2868,0.0753 -0.2858,0.0745 -0.2848,0.0736 -0.2838,0.0727 -0.2827,0.0719 -0.2817,0.0710 -0.2807,0.0701 -0.2797,0.0692 -0.2787,0.0683 -0.2777,0.0673 -0.2766,0.0664 -0.2756,0.0655 -0.2746,0.0645 -0.2736,0.0636 -0.2726,0.0626 -0.2716,0.0616 -0.2705,0.0606 -0.2695,0.0596 -0.2685,0.0586 -0.2675,0.0576 -0.2665,0.0566 -0.2655,0.0555 -0.2644,0.0545 -0.2634,0.0534 -0.2624,0.0523 -0.2614,0.0513 -0.2604,0.0272 -0.2593,0.0264 -0.2583,0.0257 -0.2573,0.0249 -0.2563,0.0241 -0.2553,0.0233 -0.2543,0.0225 -0.2532,0.0217 -0.2522,0.0209 -0.2512,0.0201 -0.2502,0.0193 -0.2492,0.0184 -0.2482,0.0176 -0.2471,0.0167 -0.2461,0.0158 -0.2451,0.0152 -0.2441,0.0149 -0.2431,0.0145 -0.2420,0.0141 -0.2410,0.0138 -0.2400,0.0134 -0.2390,0.0130 -0.2380,0.0126 -0.2370,0.0123 -0.2359,0.0119 -0.2349,0.0115 -0.2339,0.0111 -0.2329,0.0107 -0.2319,0.0103 -0.2309,0.0099 -0.2298,0.0095 -0.2288,0.0091 -0.2278,0.0087 -0.2268,0.0082 -0.2258,0.0078 -0.2248,0.0074 -0.2237,0.0070 -0.2227,0.0065 -0.2217,0.0061 -0.2207,0.0056 -0.2197,0.0052 -0.2186,0.0047 -0.2176,0.0043 -0.2166,0.0038 -0.2156,0.0033 -0.2146,0.0028 -0.2136,0.0024 -0.2125,0.0019 -0.2115,0.0014 -0.2105,0.0008 -0.2095,0.0001 -0.2085,-0.0007 -0.2075,-0.0014 -0.2064,-0.0022 -0.2054,-0.0029 -0.2044,-0.0037 -0.2034,-0.0045 -0.2024,-0.0052 -0.2013,-0.0060 -0.2003,-0.0068 -0.1993,-0.0076 -0.1983,-0.0085 -0.1973,-0.0093 -0.1963,-0.0101 -0.1952,-0.0110 -0.1942,-0.0118 -0.1932,-0.0127 -0.1922,-0.0135 -0.1912,-0.0143 -0.1902,-0.0147 -0.1891,-0.0151 -0.1881,-0.0155 -0.1871,-0.0160 -0.1861,-0.0164 -0.1851,-0.0168 -0.1840,-0.0172 -0.1830,-0.0177 -0.1820,-0.0181 -0.1810,-0.0185 -0.1800,-0.0190 -0.1790,-0.0194 -0.1779,-0.0199 -0.1769,-0.0203 -0.1759,-0.0244 -0.1749,-0.0276 -0.1739,-0.0280 -0.1729,-0.0284 -0.1718,-0.0288 -0.1708,-0.0292 -0.1698,-0.0296 -0.1688,-0.0301 -0.1678,-0.0305 -0.1668,-0.0309 -0.1657,-0.0313 -0.1647,-0.0318 -0.1637,-0.0322 -0.1627,-0.0327 -0.1617,-0.0330 -0.1606,-0.0330 -0.1596,-0.0331 -0.1586,-0.0331 -0.1576,-0.0331 -0.1566,-0.0331 -0.1556,-0.0331 -0.1545,-0.0331 -0.1535,-0.0331 -0.1525,-0.0331 -0.1515,-0.0331 -0.1505,-0.0331 -0.1495,-0.0331 -0.1484,-0.0331 -0.1474,-0.0334 -0.1464,-0.0343 -0.1454,-0.0353 -0.1444,-0.0362 -0.1433,-0.0363 -0.1423,-0.0372 -0.1413,-0.0394 -0.1403,-0.0416 -0.1393,-0.0438 -0.1383,-0.0461 -0.1372,-0.0475 -0.1362,-0.0482 -0.1352,-0.0490 -0.1342,-0.0498 -0.1332,-0.0506 -0.1322,-0.0514 -0.1311,-0.0522 -0.1301,-0.0530 -0.1291,-0.0538 -0.1281,-0.0547 -0.1271,-0.0555 -0.1260,-0.0563 -0.1250,-0.0572 -0.1240,-0.0581 -0.1230,-0.0588 -0.1220,-0.0588 -0.1210,-0.0588 -0.1199,-0.0589 -0.1189,-0.0589 -0.1179,-0.0589 -0.1169,-0.0590 -0.1159,-0.0590 -0.1149,-0.0590 -0.1138,-0.0590 -0.1128,-0.0591 -0.1118,-0.0591 -0.1108,-0.0591 -0.1098,-0.0592 -0.1088,-0.0592 -0.1077,-0.0592 -0.1067,-0.0593 -0.1057,-0.0593 -0.1047,-0.0593 -0.1037,-0.0594 -0.1026,-0.0594 -0.1016,-0.0594 -0.1006,-0.0595 -0.0996,-0.0595 -0.0986,-0.0595 -0.0976,-0.0596 -0.0965,-0.0596 -0.0955,-0.0597 -0.0945,-0.0597 -0.0935,-0.0597 -0.0925,-0.0598 -0.0915,-0.0598 -0.0904,-0.0598 -0.0894,-0.0599 -0.0884,-0.0599 -0.0874,-0.0600 -0.0864,-0.0602 -0.0853,-0.0603 -0.0843,-0.0605 -0.0833,-0.0607 -0.0823,-0.0608 -0.0813,-0.0610 -0.0803,-0.0612 -0.0792,-0.0614 -0.0782,-0.0616 -0.0772,-0.0618 -0.0762,-0.0619 -0.0752,-0.0621 -0.0742,-0.0622 -0.0731,-0.0626 -0.0721,-0.0635 -0.0711,-0.0642 -0.0701,-0.0646 -0.0691,-0.0650 -0.0681,-0.0653 -0.0670,-0.0656 -0.0660,-0.0659 -0.0650,-0.0662 -0.0640,-0.0665 -0.0630,-0.0668 -0.0619,-0.0638 -0.0609,-0.0640 -0.0599,-0.0641 -0.0589,-0.0690 -0.0579,-0.0697 -0.0569,-0.0704 -0.0558,-0.0711 -0.0548,-0.0718 -0.0538,-0.0725 -0.0528,-0.0733 -0.0518,-0.0740 -0.0508,-0.0748 -0.0497,-0.0755 -0.0487,-0.0761 -0.0477,-0.0768 -0.0467,-0.0775 -0.0457,-0.0784 -0.0446,-0.0793 -0.0436,-0.0795 -0.0426,-0.0797 -0.0416,-0.0799 -0.0406,-0.0800 -0.0396,-0.0802 -0.0385,-0.0804 -0.0375,-0.0806 -0.0365,-0.0808 -0.0355,-0.0809 -0.0345,-0.0811 -0.0335,-0.0813 -0.0324,-0.0815 -0.0314,-0.0817 -0.0304,-0.0821 -0.0294,-0.0825 -0.0284,-0.0829 -0.0273,-0.0831 -0.0263,-0.0835 -0.0253,-0.0840 -0.0243,-0.0824 -0.0233,-0.0825 -0.0223,-0.0826 -0.0212,-0.0827 -0.0202,-0.0828 -0.0192,-0.0829 -0.0182,-0.0830 -0.0172,-0.0863 -0.0162,-0.0880 -0.0151,-0.0880 -0.0141,-0.0880 -0.0131,-0.0881 -0.0121,-0.0881 -0.0111,-0.0881 -0.0101,-0.0882 -0.0090,-0.0882 -0.0080,-0.0882 -0.0070,-0.0883 -0.0060,-0.0883 -0.0050,-0.0883 -0.0039,-0.0884 -0.0029,-0.0885 -0.0019,-0.0887 -0.0009,-0.0888 0.0001,-0.0889 0.0011,-0.0891 0.0022,-0.0892 0.0032,-0.0893 0.0042,-0.0895 0.0052,-0.0896 0.0062,-0.0897 0.0072,-0.0899 0.0083,-0.0900 0.0093,-0.0901 0.0103,-0.0902 0.0113,-0.0904 0.0123,-0.0905 0.0134,-0.0906 0.0144,-0.0907 0.0154,-0.0908 0.0164,-0.0910 0.0174,-0.0911 0.0184,-0.0912 0.0195,-0.0916 0.0205,-0.0917 0.0215,-0.0917 0.0225,-0.0917 0.0235,-0.0918 0.0245,-0.0919 0.0256,-0.0919 0.0266,-0.0920 0.0276,-0.0920 0.0286,-0.0920 0.0296,-0.0921 0.0306,-0.0921 0.0317,-0.0921 0.0327,-0.0922 0.0337,-0.0922 0.0347,-0.0923 0.0357,-0.0923 0.0368,-0.0924 0.0378,-0.0924 0.0388,-0.0928 0.0398,-0.0931 0.0408,-0.0935 0.0418,-0.0943 0.0429,-0.0952 0.0439,-0.0961 0.0449,-0.0970 0.0459,-0.0976 0.0469,-0.0978 0.0479,-0.0981 0.0490,-0.0983 0.0500,-0.0986 0.0510,-0.0988 0.0520,-0.0991 0.0530,-0.0993 0.0541,-0.0996 0.0551,-0.0998 0.0561,-0.1001 0.0571,-0.1003 0.0581,-0.1006 0.0591,-0.1009 0.0602,-0.1011 0.0612,-0.1013 0.0622,-0.1014 0.0632,-0.1015 0.0642,-0.1016 0.0652,-0.1017 0.0663,-0.1018 0.0673,-0.1019 0.0683,-0.0961 0.0693,-0.0962 0.0703,-0.0962 0.0714,-0.0962 0.0724,-0.0962 0.0734,-0.0962 0.0744,-0.0963 0.0754,-0.0963 0.0764,-0.0963 0.0775,-0.0963 0.0785,-0.0964 0.0795,-0.0964 0.0805,-0.0964 0.0815,-0.0965 0.0825,-0.0965 0.0836,-0.0965 0.0846,-0.0965 0.0856,-0.0966 0.0866,-0.0966 0.0876,-0.0966 0.0886,-0.0966 0.0897,-0.0967 0.0907,-0.0967 0.0917,-0.0967 0.0927,-0.0968 0.0937,-0.0968 0.0948,-0.0968 0.0958,-0.0968 0.0968,-0.0969 0.0978,-0.0969 0.0988,-0.0969 0.0998,-0.0970 0.1009,-0.0970 0.1019,-0.0970 0.1029,-0.0971 0.1039,-0.0971 0.1049,-0.0971 0.1059,-0.0972 0.1070,-0.0972 0.1080,-0.0972 0.1090,-0.0973 0.1100,-0.0973 0.1110,-0.0973 0.1121,-0.0974 0.1131,-0.0974 0.1141,-0.0974 0.1151,-0.0975 0.1161,-0.0923 0.1171,-0.0923 0.1182,-0.0923 0.1192,-0.0923 0.1202,-0.0923 0.1212,-0.0923 0.1222,-0.0923 0.1232,-0.0923 0.1243,-0.0927 0.1253,-0.0928 0.1263,-0.0928 0.1273,-0.0928 0.1283,-0.0928 0.1294,-0.0928 0.1304,-0.0928 0.1314,-0.0928 0.1324,-0.0929 0.1334,-0.0929 0.1344,-0.0929 0.1355,-0.0929 0.1365,-0.0929 0.1375,-0.0791 0.1385,-0.0791 0.1395,-0.0792 0.1405,-0.0792 0.1416,-0.0792 0.1426,-0.0793 0.1436,-0.0793 0.1446,-0.0793 0.1456,-0.0793 0.1466,-0.0794 0.1477,-0.0794 0.1487,-0.0794 0.1497,-0.0795 0.1507,-0.0795 0.1517,-0.0795 0.1528,-0.0808 0.1538,-0.0833 0.1548,-0.0859 0.1558,-0.0878 0.1568,-0.0898 0.1578,-0.0902 0.1589,-0.0904 0.1599,-0.0905 0.1609,-0.0907 0.1619,-0.0908 0.1629,-0.0910 0.1639,-0.0911 0.1650,-0.0913 0.1660,-0.0915 0.1670,-0.0916 0.1680,-0.0917 0.1690,-0.0919 0.1701,-0.0920 0.1711,-0.0823 0.1721,-0.0823 0.1731,-0.0797 0.1741,-0.0797 0.1751,-0.0797 0.1762,-0.0578 0.1772,-0.0579 0.1782,-0.0580 0.1792,-0.0581 0.1802,-0.0571 0.1812,-0.0574 0.1823,-0.0575 0.1833,-0.0575 0.1843,-0.0576 0.1853,-0.0576 0.1863,-0.0577 0.1873,-0.0577 0.1884,-0.0578 0.1894,-0.0458 0.1904,-0.0458 0.1914,-0.0458 0.1924,-0.0458 0.1935,-0.0549 0.1945,-0.0549 0.1955,-0.0549 0.1965,-0.0549 0.1975,-0.0550 0.1985,-0.0550 0.1996,-0.0550 0.2006,-0.0551 0.2016,-0.0551 0.2026,-0.0551 0.2036,-0.0552 0.2046,-0.0552 0.2057,-0.0552 0.2067,-0.0480 0.2077,-0.0482 0.2087,-0.0483 0.2097,-0.0484 0.2108,-0.0484 0.2118,-0.0484 0.2128,-0.0485 0.2138,-0.0485 0.2148,-0.0485 0.2158,-0.0486 0.2169,-0.0486 0.2179,-0.0486 0.2189,-0.0487 0.2199,-0.0487 0.2209,-0.0488 0.2219,-0.0488 0.2230,-0.0488 0.2240,-0.0489 0.2250,-0.0489 0.2260,-0.0490 0.2270,-0.0490 0.2281,-0.0490 0.2291,-0.0491 0.2301,-0.0491 0.2311,-0.0492 0.2321,-0.0492 0.2331,-0.0492 0.2342,-0.0493 0.2352,-0.0493 0.2362,-0.0494 0.2372,-0.0494 0.2382,-0.0495 0.2392,-0.0495 0.2403,-0.0496 0.2413,-0.0496 0.2423,-0.0496 0.2433,-0.0497 0.2443,-0.0497 0.2453,-0.0498 0.2464,-0.0498 0.2474,-0.0499 0.2484,-0.0499 0.2494,-0.0500 0.2504,-0.0500 0.2515,-0.0501 0.2525,-0.0501 0.2535,-0.0502 0.2545,-0.0502 0.2555,-0.0503 0.2565,-0.0503 0.2576,-0.0504 0.2586,-0.0505 0.2596,-0.0505 0.2606,-0.0506 0.2616,-0.0506 0.2626,-0.0507 0.2637,-0.0507 0.2647,-0.0508 0.2657,-0.0509 0.2667,-0.0509 0.2677,-0.0510 0.2688,-0.0510 0.2698,-0.0511 0.2708,-0.0360 0.2718,-0.0360 0.2728,-0.0401 0.2738,-0.0404 0.2749,-0.0405 0.2759,-0.0407 0.2769,-0.0408 0.2779,-0.0409 0.2789,-0.0411 0.2799,-0.0412 0.2810,-0.0413 0.2820,-0.0415 0.2830,-0.0416 0.2840,-0.0418 0.2850,-0.0419 0.2860,-0.0421 0.2871,-0.0422 0.2881,-0.0424 0.2891,-0.0425 0.2901,-0.0427 0.2911,-0.0428 0.2922,-0.0430 0.2932,-0.0431 0.2942,-0.0433 0.2952,-0.0434 0.2962,-0.0436 0.2972,-0.0438 0.2983,-0.0439 0.2993,-0.0441 0.3003,-0.0443 0.3013,-0.0444 0.3023,-0.0446 0.3033,-0.0448 0.3044,-0.0450 0.3054,-0.0451 0.3064,-0.0453 0.3074,-0.0455 0.3084,-0.0457 0.3095,-0.0459 0.3105,-0.0464 0.3115,-0.0468 0.3125,-0.0474 0.3135,-0.0479 0.3145,-0.0483 0.3156,-0.0484 0.3166,-0.0485 0.3176,-0.0486 0.3186,-0.0487 0.3196,-0.0488 0.3206,-0.0489 0.3217,-0.0490 0.3227,-0.0491 0.3237,-0.0492 0.3247,-0.0493 0.3257,-0.0494 0.3268,-0.0495 0.3278,-0.0496 0.3288,-0.0498 0.3298,-0.0499 0.3308,-0.0500 0.3318,-0.0501 0.3329,-0.0502 0.3339,-0.0503 0.3349,-0.0504 0.3359,-0.0506 0.3369,-0.0507 0.3379,-0.0508 0.3390,-0.0509 0.3400,-0.0510 0.3410,-0.0549 0.3420,-0.0550 0.3430,-0.0551 0.3440,-0.0553 0.3451,-0.0554 0.3461,-0.0555 0.3471,-0.0557 0.3481,-0.0558 0.3491,-0.0559 0.3502,-0.0561 0.3512,-0.0562 0.3522,-0.0563 0.3532,-0.0565 0.3542,-0.0566 0.3552,-0.0568 0.3563,-0.0569 0.3573,-0.0571 0.3583,-0.0572 0.3593,-0.0574 0.3603,-0.0578 0.3613,-0.0581 0.3624,-0.0584 0.3634,-0.0586 0.3644,-0.0589 0.3654,-0.0591 0.3664,-0.0593 0.3675,-0.0596 0.3685,-0.0598 0.3695,-0.0601 0.3705,-0.0603 0.3715,-0.0606 0.3725,-0.0608 0.3736,-0.0611 0.3746,-0.0613 0.3756,-0.0616 0.3766,-0.0617 0.3776,-0.0618 0.3786,-0.0620 0.3797,-0.0621 0.3807,-0.0623 0.3817,-0.0624 0.3827,-0.0626 0.3837,-0.0627 0.3847,-0.0629 0.3858,-0.0630 0.3868,-0.0632 0.3878,-0.0633 0.3888,-0.0635 0.3898,-0.0636 0.3909,-0.0638 0.3919,-0.0639 0.3929,-0.0641 0.3939,-0.0643 0.3949,-0.0644 0.3959,-0.0646 0.3970,-0.0647 0.3980,-0.0648 0.3990,-0.0649 0.4000,-0.0651 0.4010,-0.0652"/></g><g fill="none" stroke="rgb(21%, 48%, -28%)" stroke-opacity="0.75" stroke-width="0.0050"><polyline points="-0.6155,-0.1275 -0.6145,-0.1283 -0.6134,-0.1291 -0.6124,-0.1298 -0.6114,-0.1303 -0.6104,-0.1310 -0.6094,-0.1318 -0.6084,-0.1326 -0.6073,-0.1333 -0.6063,-0.1341 -0.6053,-0.1349 -0.6043,-0.1345 -0.6033,-0.1353 -0.6023,-0.1360 -0.6012,-0.1367 -0.6002,-0.1374 -0.5992,-0.1384 -0.5982,-0.1391 -0.5972,-0.1399 -0.5961,-0.1400 -0.5951,-0.1401 -0.5941,-0.1401 -0.5931,-0.1402 -0.5921,-0.1403 -0.5911,-0.1403 -0.5900,-0.1404 -0.5890,-0.1394 -0.5880,-0.1399 -0.5870,-0.1400 -0.5860,-0.1401 -0.5850,-0.1347 -0.5839,-0.1356 -0.5829,-0.1365 -0.5819,-0.1374 -0.5809,-0.1383 -0.5799,-0.1393 -0.5789,-0.1399 -0.5778,-0.1400 -0.5768,-0.1342 -0.5758,-0.1349 -0.5748,-0.1355 -0.5738,-0.1360 -0.5727,-0.1367 -0.5717,-0.1316 -0.5707,-0.1320 -0.5697,-0.1325 -0.5687,-0.1329 -0.5677,-0.1335 -0.5666,-0.1342 -0.5656,-0.1350 -0.5646,-0.1358 -0.5636,-0.1363 -0.5626,-0.1371 -0.5616,-0.1377 -0.5605,-0.1379 -0.5595,-0.1381 -0.5585,-0.1382 -0.5575,-0.1384 -0.5565,-0.1386 -0.5554,-0.1388 -0.5544,-0.1369 -0.5534,-0.1372 -0.5524,-0.1375 -0.5514,-0.1377 -0.5504,-0.1379 -0.5493,-0.1380 -0.5483,-0.1382 -0.5473,-0.1383 -0.5463,-0.1385 -0.5453,-0.1387 -0.5443,-0.1388 -0.5432,-0.1390 -0.5422,-0.1391 -0.5412,-0.1393 -0.5402,-0.1393 -0.5392,-0.1394 -0.5381,-0.1395 -0.5371,-0.1399 -0.5361,-0.1398 -0.5351,-0.1399 -0.5341,-0.1401 -0.5331,-0.1401 -0.5320,-0.1402 -0.5310,-0.1403 -0.5300,-0.1404 -0.5290,-0.1392 -0.5280,-0.1389 -0.5270,-0.1390 -0.5259,-0.1366 -0.5249,-0.1366 -0.5239,-0.1366 -0.5229,-0.1367 -0.5219,-0.1367 -0.5209,-0.1363 -0.5198,-0.1364 -0.5188,-0.1340 -0.5178,-0.1343 -0.5168,-0.1346 -0.5158,-0.1351 -0.5147,-0.1354 -0.5137,-0.1358 -0.5127,-0.1361 -0.5117,-0.1329 -0.5107,-0.1328 -0.5097,-0.1333 -0.5086,-0.1336 -0.5076,-0.1340 -0.5066,-0.1346 -0.5056,-0.1349 -0.5046,-0.1353 -0.5036,-0.1358 -0.5025,-0.1363 -0.5015,-0.1364 -0.5005,-0.1365 -0.4995,-0.1366 -0.4985,-0.1368 -0.4974,-0.1369 -0.4964,-0.1370 -0.4954,-0.1372 -0.4944,-0.1373 -0.4934,-0.1374 -0.4924,-0.1376 -0.4913,-0.1378 -0.4903,-0.1378 -0.4893,-0.1379 -0.4883,-0.1381 -0.4873,-0.1382 -0.4863,-0.1383 -0.4852,-0.1371 -0.4842,-0.1350 -0.4832,-0.1359 -0.4822,-0.1363 -0.4812,-0.1365 -0.4802,-0.1310 -0.4791,-0.1315 -0.4781,-0.1320 -0.4771,-0.1324 -0.4761,-0.1329 -0.4751,-0.1334 -0.4740,-0.1339 -0.4730,-0.1343 -0.4720,-0.1346 -0.4710,-0.1349 -0.4700,-0.1352 -0.4690,-0.1356 -0.4679,-0.1360 -0.4669,-0.1363 -0.4659,-0.1367 -0.4649,-0.1371 -0.4639,-0.1375 -0.4629,-0.1378 -0.4618,-0.1379 -0.4608,-0.1381 -0.4598,-0.1383 -0.4588,-0.1384 -0.4578,-0.1386 -0.4567,-0.1388 -0.4557,-0.1389 -0.4547,-0.1391 -0.4537,-0.1393 -0.4527,-0.1395 -0.4517,-0.1396 -0.4506,-0.1398 -0.4496,-0.1400 -0.4486,-0.1402 -0.4476,-0.1403 -0.4466,-0.1406 -0.4456,-0.1408 -0.4445,-0.1409 -0.4435,-0.1410 -0.4425,-0.1412 -0.4415,-0.1395 -0.4405,-0.1399 -0.4394,-0.1400 -0.4384,-0.1401 -0.4374,-0.1401 -0.4364,-0.1402 -0.4354,-0.1401 -0.4344,-0.1402 -0.4333,-0.1403 -0.4323,-0.1404 -0.4313,-0.1405 -0.4303,-0.1406 -0.4293,-0.1407 -0.4283,-0.1417 -0.4272,-0.1427 -0.4262,-0.1428 -0.4252,-0.1429 -0.4242,-0.1430 -0.4232,-0.1432 -0.4222,-0.1433 -0.4211,-0.1434 -0.4201,-0.1436 -0.4191,-0.1428 -0.4181,-0.1429 -0.4171,-0.1430 -0.4160,-0.1432 -0.4150,-0.1433 -0.4140,-0.1435 -0.4130,-0.1436 -0.4120,-0.1438 -0.4110,-0.1439 -0.4099,-0.1440 -0.4089,-0.1440 -0.4079,-0.1440 -0.4069,-0.1441 -0.4059,-0.1441 -0.4049,-0.1432 -0.4038,-0.1426 -0.4028,-0.1426 -0.4018,-0.1427 -0.4008,-0.1427 -0.3998,-0.1403 -0.3987,-0.1405 -0.3977,-0.1414 -0.3967,-0.1423 -0.3957,-0.1424 -0.3947,-0.1425 -0.3937,-0.1425 -0.3926,-0.1426 -0.3916,-0.1427 -0.3906,-0.1428 -0.3896,-0.1430 -0.3886,-0.1430 -0.3876,-0.1431 -0.3865,-0.1432 -0.3855,-0.1423 -0.3845,-0.1388 -0.3835,-0.1378 -0.3825,-0.1378 -0.3814,-0.1370 -0.3804,-0.1373 -0.3794,-0.1374 -0.3784,-0.1322 -0.3774,-0.1323 -0.3764,-0.1315 -0.3753,-0.1218 -0.3743,-0.1171 -0.3733,-0.1173 -0.3723,-0.1137 -0.3713,-0.1122 -0.3703,-0.1127 -0.3692,-0.0984 -0.3682,-0.1117 -0.3672,-0.0839 -0.3662,-0.0841 -0.3652,-0.0804 -0.3642,-0.0782 -0.3631,-0.0784 -0.3621,-0.0786 -0.3611,-0.0788 -0.3601,-0.0768 -0.3591,-0.0771 -0.3580,-0.0773 -0.3570,-0.0722 -0.3560,-0.0727 -0.3550,-0.0735 -0.3540,-0.0739 -0.3530,-0.0749 -0.3519,-0.0752 -0.3509,-0.0758 -0.3499,-0.0763 -0.3489,-0.0766 -0.3479,-0.0774 -0.3469,-0.0777 -0.3458,-0.0779 -0.3448,-0.0782 -0.3438,-0.0749 -0.3428,-0.0752 -0.3418,-0.0754 -0.3407,-0.0762 -0.3397,-0.0769 -0.3387,-0.0772 -0.3377,-0.0774 -0.3367,-0.0776 -0.3357,-0.0784 -0.3346,-0.0786 -0.3336,-0.0785 -0.3326,-0.0788 -0.3316,-0.0791 -0.3306,-0.0794 -0.3296,-0.0797 -0.3285,-0.0803 -0.3275,-0.0807 -0.3265,-0.0805 -0.3255,-0.0807 -0.3245,-0.0810 -0.3235,-0.0839 -0.3224,-0.0846 -0.3214,-0.0853 -0.3204,-0.0859 -0.3194,-0.0866 -0.3184,-0.0904 -0.3173,-0.0963 -0.3163,-0.0968 -0.3153,-0.0972 -0.3143,-0.0977 -0.3133,-0.0982 -0.3123,-0.0973 -0.3112,-0.0980 -0.3102,-0.0986 -0.3092,-0.0989 -0.3082,-0.0997 -0.3072,-0.0826 -0.3062,-0.0847 -0.3051,-0.0871 -0.3041,-0.0894 -0.3031,-0.0919 -0.3021,-0.0937 -0.3011,-0.0951 -0.3000,-0.0965 -0.2990,-0.0985 -0.2980,-0.0884 -0.2970,-0.0888 -0.2960,-0.0893 -0.2950,-0.0897 -0.2939,-0.0901 -0.2929,-0.0907 -0.2919,-0.0912 -0.2909,-0.0918 -0.2899,-0.0923 -0.2889,-0.0929 -0.2878,-0.0934 -0.2868,-0.0940 -0.2858,-0.0945 -0.2848,-0.0950 -0.2838,-0.0956 -0.2827,-0.0962 -0.2817,-0.0975 -0.2807,-0.0985 -0.2797,-0.0996 -0.2787,-0.1006 -0.2777,-0.1032 -0.2766,-0.1039 -0.2756,-0.1029 -0.2746,-0.1034 -0.2736,-0.1037 -0.2726,-0.1043 -0.2716,-0.1049 -0.2705,-0.1054 -0.2695,-0.1060 -0.2685,-0.1066 -0.2675,-0.1072 -0.2665,-0.1076 -0.2655,-0.1080 -0.2644,-0.1096 -0.2634,-0.1099 -0.2624,-0.1102 -0.2614,-0.1106 -0.2604,-0.1110 -0.2593,-0.1114 -0.2583,-0.1118 -0.2573,-0.1121 -0.2563,-0.1124 -0.2553,-0.1125 -0.2543,-0.1125 -0.2532,-0.1126 -0.2522,-0.1127 -0.2512,-0.1127 -0.2502,-0.1128 -0.2492,-0.1129 -0.2482,-0.1129 -0.2471,-0.1111 -0.2461,-0.1115 -0.2451,-0.1059 -0.2441,-0.1075 -0.2431,-0.1075 -0.2420,-0.1082 -0.2410,-0.1088 -0.2400,-0.1124 -0.2390,-0.1119 -0.2380,-0.1129 -0.2370,-0.1101 -0.2359,-0.1105 -0.2349,-0.1125 -0.2339,-0.1092 -0.2329,-0.1117 -0.2319,-0.1118 -0.2309,-0.1118 -0.2298,-0.1119 -0.2288,-0.1120 -0.2278,-0.1121 -0.2268,-0.1121 -0.2258,-0.1122 -0.2248,-0.1122 -0.2237,-0.1123 -0.2227,-0.1124 -0.2217,-0.1126 -0.2207,-0.1131 -0.2197,-0.1136 -0.2186,-0.1141 -0.2176,-0.1146 -0.2166,-0.1151 -0.2156,-0.1143 -0.2146,-0.1146 -0.2136,-0.1147 -0.2125,-0.1150 -0.2115,-0.1152 -0.2105,-0.1124 -0.2095,-0.1126 -0.2085,-0.1118 -0.2075,-0.1119 -0.2064,-0.1120 -0.2054,-0.1121 -0.2044,-0.1121 -0.2034,-0.1122 -0.2024,-0.1123 -0.2013,-0.1124 -0.2003,-0.1126 -0.1993,-0.1130 -0.1983,-0.1134 -0.1973,-0.1138 -0.1963,-0.1142 -0.1952,-0.1144 -0.1942,-0.1146 -0.1932,-0.1152 -0.1922,-0.1156 -0.1912,-0.1161 -0.1902,-0.1165 -0.1891,-0.1156 -0.1881,-0.1158 -0.1871,-0.1160 -0.1861,-0.1162 -0.1851,-0.1164 -0.1840,-0.1168 -0.1830,-0.1177 -0.1820,-0.1185 -0.1810,-0.1194 -0.1800,-0.1203 -0.1790,-0.1215 -0.1779,-0.1226 -0.1769,-0.1238 -0.1759,-0.1250 -0.1749,-0.1253 -0.1739,-0.1257 -0.1729,-0.1260 -0.1718,-0.1263 -0.1708,-0.1267 -0.1698,-0.1270 -0.1688,-0.1274 -0.1678,-0.1277 -0.1668,-0.1281 -0.1657,-0.1285 -0.1647,-0.1288 -0.1637,-0.1290 -0.1627,-0.1258 -0.1617,-0.1262 -0.1606,-0.1266 -0.1596,-0.1270 -0.1586,-0.1274 -0.1576,-0.1278 -0.1566,-0.1282 -0.1556,-0.1286 -0.1545,-0.1289 -0.1535,-0.1290 -0.1525,-0.1292 -0.1515,-0.1293 -0.1505,-0.1295 -0.1495,-0.1296 -0.1484,-0.1298 -0.1474,-0.1300 -0.1464,-0.1280 -0.1454,-0.1284 -0.1444,-0.1235 -0.1433,-0.1246 -0.1423,-0.1253 -0.1413,-0.1257 -0.1403,-0.1262 -0.1393,-0.1267 -0.1383,-0.1272 -0.1372,-0.1276 -0.1362,-0.1281 -0.1352,-0.1286 -0.1342,-0.1289 -0.1332,-0.1291 -0.1322,-0.1293 -0.1311,-0.1293 -0.1301,-0.1294 -0.1291,-0.1296 -0.1281,-0.1297 -0.1271,-0.1299 -0.1260,-0.1271 -0.1250,-0.1278 -0.1240,-0.1289 -0.1230,-0.1291 -0.1220,-0.1260 -0.1210,-0.1247 -0.1199,-0.1248 -0.1189,-0.1250 -0.1179,-0.1252 -0.1169,-0.1253 -0.1159,-0.1255 -0.1149,-0.1257 -0.1138,-0.1259 -0.1128,-0.1260 -0.1118,-0.1262 -0.1108,-0.1246 -0.1098,-0.1248 -0.1088,-0.1249 -0.1077,-0.1251 -0.1067,-0.1252 -0.1057,-0.1254 -0.1047,-0.1256 -0.1037,-0.1257 -0.1026,-0.1259 -0.1016,-0.1261 -0.1006,-0.1262 -0.0996,-0.1274 -0.0986,-0.1277 -0.0976,-0.1280 -0.0965,-0.1282 -0.0955,-0.1285 -0.0945,-0.1288 -0.0935,-0.1291 -0.0925,-0.1295 -0.0915,-0.1302 -0.0904,-0.1301 -0.0894,-0.1303 -0.0884,-0.1305 -0.0874,-0.1308 -0.0864,-0.1311 -0.0853,-0.1315 -0.0843,-0.1319 -0.0833,-0.1323 -0.0823,-0.1328 -0.0813,-0.1333 -0.0803,-0.1337 -0.0792,-0.1341 -0.0782,-0.1345 -0.0772,-0.1348 -0.0762,-0.1351 -0.0752,-0.1354 -0.0742,-0.1341 -0.0731,-0.1343 -0.0721,-0.1325 -0.0711,-0.1327 -0.0701,-0.1325 -0.0691,-0.1327 -0.0681,-0.1330 -0.0670,-0.1332 -0.0660,-0.1335 -0.0650,-0.1326 -0.0640,-0.1327 -0.0630,-0.1343 -0.0619,-0.1346 -0.0609,-0.1355 -0.0599,-0.1363 -0.0589,-0.1364 -0.0579,-0.1365 -0.0569,-0.1366 -0.0558,-0.1367 -0.0548,-0.1368 -0.0538,-0.1369 -0.0528,-0.1370 -0.0518,-0.1371 -0.0508,-0.1372 -0.0497,-0.1373 -0.0487,-0.1374 -0.0477,-0.1376 -0.0467,-0.1377 -0.0457,-0.1356 -0.0446,-0.1367 -0.0436,-0.1361 -0.0426,-0.1364 -0.0416,-0.1366 -0.0406,-0.1369 -0.0396,-0.1371 -0.0385,-0.1374 -0.0375,-0.1375 -0.0365,-0.1376 -0.0355,-0.1377 -0.0345,-0.1378 -0.0335,-0.1380 -0.0324,-0.1385 -0.0314,-0.1385 -0.0304,-0.1386 -0.0294,-0.1386 -0.0284,-0.1387 -0.0273,-0.1388 -0.0263,-0.1388 -0.0253,-0.1374 -0.0243,-0.1377 -0.0233,-0.1381 -0.0223,-0.1384 -0.0212,-0.1385 -0.0202,-0.1386 -0.0192,-0.1387 -0.0182,-0.1387 -0.0172,-0.1388 -0.0162,-0.1388 -0.0151,-0.1389 -0.0141,-0.1389 -0.0131,-0.1390 -0.0121,-0.1391 -0.0111,-0.1391 -0.0101,-0.1386 -0.0090,-0.1386 -0.0080,-0.1388 -0.0070,-0.1391 -0.0060,-0.1398 -0.0050,-0.1400 -0.0039,-0.1398 -0.0029,-0.1385 -0.0019,-0.1386 -0.0009,-0.1386 0.0001,-0.1386 0.0011,-0.1386 0.0022,-0.1386 0.0032,-0.1389 0.0042,-0.1394 0.0052,-0.1396 0.0062,-0.1399 0.0072,-0.1401 0.0083,-0.1404 0.0093,-0.1406 0.0103,-0.1408 0.0113,-0.1408 0.0123,-0.1409 0.0134,-0.1410 0.0144,-0.1411 0.0154,-0.1412 0.0164,-0.1413 0.0174,-0.1413 0.0184,-0.1402 0.0195,-0.1385 0.0205,-0.1386 0.0215,-0.1386 0.0225,-0.1386 0.0235,-0.1386 0.0245,-0.1390 0.0256,-0.1385 0.0266,-0.1385 0.0276,-0.1375 0.0286,-0.1376 0.0296,-0.1357 0.0306,-0.1366 0.0317,-0.1368 0.0327,-0.1369 0.0337,-0.1370 0.0347,-0.1371 0.0357,-0.1373 0.0368,-0.1373 0.0378,-0.1374 0.0388,-0.1376 0.0398,-0.1376 0.0408,-0.1377 0.0418,-0.1379 0.0429,-0.1381 0.0439,-0.1382 0.0449,-0.1384 0.0459,-0.1386 0.0469,-0.1388 0.0479,-0.1391 0.0490,-0.1392 0.0500,-0.1394 0.0510,-0.1396 0.0520,-0.1398 0.0530,-0.1399 0.0541,-0.1401 0.0551,-0.1403 0.0561,-0.1405 0.0571,-0.1395 0.0581,-0.1395 0.0591,-0.1397 0.0602,-0.1397 0.0612,-0.1398 0.0622,-0.1398 0.0632,-0.1398 0.0642,-0.1399 0.0652,-0.1403 0.0663,-0.1406 0.0673,-0.1408 0.0683,-0.1396 0.0693,-0.1395 0.0703,-0.1385 0.0714,-0.1368 0.0724,-0.1367 0.0734,-0.1362 0.0744,-0.1364 0.0754,-0.1367 0.0764,-0.1370 0.0775,-0.1382 0.0785,-0.1384 0.0795,-0.1374 0.0805,-0.1375 0.0815,-0.1376 0.0825,-0.1377 0.0836,-0.1369 0.0846,-0.1343 0.0856,-0.1342 0.0866,-0.1344 0.0876,-0.1346 0.0886,-0.1355 0.0897,-0.1359 0.0907,-0.1364 0.0917,-0.1368 0.0927,-0.1369 0.0937,-0.1369 0.0948,-0.1370 0.0958,-0.1343 0.0968,-0.1345 0.0978,-0.1346 0.0988,-0.1353 0.0998,-0.1366 0.1009,-0.1369 0.1019,-0.1338 0.1029,-0.1339 0.1039,-0.1316 0.1049,-0.1324 0.1059,-0.1308 0.1070,-0.1298 0.1080,-0.1299 0.1090,-0.1291 0.1100,-0.1291 0.1110,-0.1292 0.1121,-0.1293 0.1131,-0.1293 0.1141,-0.1294 0.1151,-0.1295 0.1161,-0.1286 0.1171,-0.1287 0.1182,-0.1288 0.1192,-0.1289 0.1202,-0.1290 0.1212,-0.1279 0.1222,-0.1260 0.1232,-0.1263 0.1243,-0.1266 0.1253,-0.1268 0.1263,-0.1233 0.1273,-0.1239 0.1283,-0.1244 0.1294,-0.1192 0.1304,-0.1197 0.1314,-0.1205 0.1324,-0.1211 0.1334,-0.1193 0.1344,-0.1195 0.1355,-0.1198 0.1365,-0.1198 0.1375,-0.1180 0.1385,-0.1182 0.1395,-0.1183 0.1405,-0.1186 0.1416,-0.1191 0.1426,-0.1193 0.1436,-0.1195 0.1446,-0.1195 0.1456,-0.1197 0.1466,-0.1199 0.1477,-0.1201 0.1487,-0.1205 0.1497,-0.1213 0.1507,-0.1218 0.1517,-0.1222 0.1528,-0.1227 0.1538,-0.1232 0.1548,-0.1237 0.1558,-0.1197 0.1568,-0.1200 0.1578,-0.1202 0.1589,-0.1208 0.1599,-0.1215 0.1609,-0.1221 0.1619,-0.1228 0.1629,-0.1193 0.1639,-0.1195 0.1650,-0.1198 0.1660,-0.1194 0.1670,-0.1197 0.1680,-0.1199 0.1690,-0.1202 0.1701,-0.1198 0.1711,-0.1181 0.1721,-0.1183 0.1731,-0.1162 0.1741,-0.1165 0.1751,-0.1167 0.1762,-0.1142 0.1772,-0.1145 0.1782,-0.1148 0.1792,-0.1152 0.1802,-0.1118 0.1812,-0.1120 0.1823,-0.1100 0.1833,-0.1100 0.1843,-0.1101 0.1853,-0.1101 0.1863,-0.1102 0.1873,-0.1102 0.1884,-0.1112 0.1894,-0.1099 0.1904,-0.1099 0.1914,-0.1100 0.1924,-0.1099 0.1935,-0.1099 0.1945,-0.1100 0.1955,-0.1101 0.1965,-0.1101 0.1975,-0.1102 0.1985,-0.1104 0.1996,-0.1112 0.2006,-0.1113 0.2016,-0.1116 0.2026,-0.1119 0.2036,-0.1124 0.2046,-0.1102 0.2057,-0.1099 0.2067,-0.1028 0.2077,-0.1041 0.2087,-0.1084 0.2097,-0.1017 0.2108,-0.1019 0.2118,-0.1020 0.2128,-0.1021 0.2138,-0.1023 0.2148,-0.1024 0.2158,-0.1026 0.2169,-0.1043 0.2179,-0.1046 0.2189,-0.1049 0.2199,-0.1052 0.2209,-0.1055 0.2219,-0.1058 0.2230,-0.1055 0.2240,-0.1057 0.2250,-0.1059 0.2260,-0.1061 0.2270,-0.1063 0.2281,-0.1064 0.2291,-0.1066 0.2301,-0.1068 0.2311,-0.1070 0.2321,-0.1072 0.2331,-0.1074 0.2342,-0.1077 0.2352,-0.1083 0.2362,-0.1087 0.2372,-0.1093 0.2382,-0.1120 0.2392,-0.1125 0.2403,-0.1127 0.2413,-0.1129 0.2423,-0.1118 0.2433,-0.1122 0.2443,-0.1126 0.2453,-0.1130 0.2464,-0.1134 0.2474,-0.1142 0.2484,-0.1144 0.2494,-0.1146 0.2504,-0.1148 0.2515,-0.1148 0.2525,-0.1149 0.2535,-0.1150 0.2545,-0.1151 0.2555,-0.1135 0.2565,-0.1138 0.2576,-0.1140 0.2586,-0.1143 0.2596,-0.1106 0.2606,-0.1110 0.2616,-0.1114 0.2626,-0.1119 0.2637,-0.1123 0.2647,-0.1129 0.2657,-0.1132 0.2667,-0.1137 0.2677,-0.1143 0.2688,-0.1147 0.2698,-0.1148 0.2708,-0.1093 0.2718,-0.1098 0.2728,-0.1104 0.2738,-0.1109 0.2749,-0.1116 0.2759,-0.1118 0.2769,-0.1114 0.2779,-0.1116 0.2789,-0.1121 0.2799,-0.1123 0.2810,-0.1125 0.2820,-0.1128 0.2830,-0.1108 0.2840,-0.1111 0.2850,-0.1116 0.2860,-0.1118 0.2871,-0.1120 0.2881,-0.1122 0.2891,-0.1091 0.2901,-0.1096 0.2911,-0.1102 0.2922,-0.1107 0.2932,-0.1113 0.2942,-0.1051 0.2952,-0.1055 0.2962,-0.1059 0.2972,-0.1063 0.2983,-0.1067 0.2993,-0.1073 0.3003,-0.1090 0.3013,-0.1109 0.3023,-0.1116 0.3033,-0.1117 0.3044,-0.1119 0.3054,-0.1121 0.3064,-0.1123 0.3074,-0.1060 0.3084,-0.1066 0.3095,-0.1071 0.3105,-0.1077 0.3115,-0.1131 0.3125,-0.1043 0.3135,-0.1049 0.3145,-0.1054 0.3156,-0.1060 0.3166,-0.1066 0.3176,-0.1072 0.3186,-0.1094 0.3196,-0.1119 0.3206,-0.1120 0.3217,-0.1122 0.3227,-0.1123 0.3237,-0.1125 0.3247,-0.1126 0.3257,-0.1128 0.3268,-0.1129 0.3278,-0.1131 0.3288,-0.1133 0.3298,-0.1115 0.3308,-0.1118 0.3318,-0.1119 0.3329,-0.1120 0.3339,-0.1121 0.3349,-0.1123 0.3359,-0.1126 0.3369,-0.1128 0.3379,-0.1112 0.3390,-0.1113 0.3400,-0.1117 0.3410,-0.1118 0.3420,-0.1119 0.3430,-0.1120 0.3440,-0.1121 0.3451,-0.1124 0.3461,-0.1126 0.3471,-0.1129 0.3481,-0.1132 0.3491,-0.1135 0.3502,-0.1136 0.3512,-0.1137 0.3522,-0.1138 0.3532,-0.1140 0.3542,-0.1141 0.3552,-0.1142 0.3563,-0.1143 0.3573,-0.1144 0.3583,-0.1145 0.3593,-0.1158 0.3603,-0.1167 0.3613,-0.1179 0.3624,-0.1180 0.3634,-0.1180 0.3644,-0.1181 0.3654,-0.1181 0.3664,-0.1181 0.3675,-0.1182 0.3685,-0.1179 0.3695,-0.1181 0.3705,-0.1182 0.3715,-0.1185 0.3725,-0.1185 0.3736,-0.1185 0.3746,-0.1186 0.3756,-0.1186 0.3766,-0.1186 0.3776,-0.1186 0.3786,-0.1186 0.3797,-0.1186 0.3807,-0.1187 0.3817,-0.1187 0.3827,-0.1182 0.3837,-0.1183 0.3847,-0.1185 0.3858,-0.1188 0.3868,-0.1190 0.3878,-0.1191 0.3888,-0.1193 0.3898,-0.1195 0.3909,-0.1186 0.3919,-0.1187 0.3929,-0.1192 0.3939,-0.1193 0.3949,-0.1180 0.3959,-0.1182 0.3970,-0.1184 0.3980,-0.1186 0.3990,-0.1188 0.4000,-0.1189 0.4010,-0.1190"/></g><g fill="none" stroke="rgb(10%, 40%, 80%)" stroke-opacity="1.0" stroke-width="0.0050"><polyline points="-0.6155,-0.1655 -0.6145,-0.1657 -0.6134,-0.1656 -0.6124,-0.1656 -0.6114,-0.1656 -0.6104,-0.1656 -0.6094,-0.1659 -0.6084,-0.1657 -0.6073,-0.1658 -0.6063,-0.1656 -0.6053,-0.1657 -0.6043,-0.1656 -0.6033,-0.1655 -0.6023,-0.1654 -0.6012,-0.1655 -0.6002,-0.1664 -0.5992,-0.1664 -0.5982,-0.1664 -0.5972,-0.1662 -0.5961,-0.1662 -0.5951,-0.1663 -0.5941,-0.1654 -0.5931,-0.1652 -0.5921,-0.1658 -0.5911,-0.1652 -0.5900,-0.1659 -0.5890,-0.1651 -0.5880,-0.1647 -0.5870,-0.1644 -0.5860,-0.1647 -0.5850,-0.1644 -0.5839,-0.1647 -0.5829,-0.1653 -0.5819,-0.1662 -0.5809,-0.1654 -0.5799,-0.1647 -0.5789,-0.1655 -0.5778,-0.1646 -0.5768,-0.1641 -0.5758,-0.1646 -0.5748,-0.1648 -0.5738,-0.1650 -0.5727,-0.1653 -0.5717,-0.1649 -0.5707,-0.1647 -0.5697,-0.1651 -0.5687,-0.1654 -0.5677,-0.1658 -0.5666,-0.1662 -0.5656,-0.1663 -0.5646,-0.1662 -0.5636,-0.1662 -0.5626,-0.1662 -0.5616,-0.1662 -0.5605,-0.1658 -0.5595,-0.1659 -0.5585,-0.1661 -0.5575,-0.1662 -0.5565,-0.1662 -0.5554,-0.1659 -0.5544,-0.1656 -0.5534,-0.1656 -0.5524,-0.1658 -0.5514,-0.1660 -0.5504,-0.1662 -0.5493,-0.1662 -0.5483,-0.1663 -0.5473,-0.1662 -0.5463,-0.1659 -0.5453,-0.1657 -0.5443,-0.1660 -0.5432,-0.1662 -0.5422,-0.1663 -0.5412,-0.1665 -0.5402,-0.1653 -0.5392,-0.1663 -0.5381,-0.1663 -0.5371,-0.1660 -0.5361,-0.1660 -0.5351,-0.1664 -0.5341,-0.1673 -0.5331,-0.1665 -0.5320,-0.1667 -0.5310,-0.1666 -0.5300,-0.1664 -0.5290,-0.1663 -0.5280,-0.1662 -0.5270,-0.1660 -0.5259,-0.1657 -0.5249,-0.1660 -0.5239,-0.1662 -0.5229,-0.1663 -0.5219,-0.1662 -0.5209,-0.1659 -0.5198,-0.1662 -0.5188,-0.1660 -0.5178,-0.1662 -0.5168,-0.1663 -0.5158,-0.1664 -0.5147,-0.1663 -0.5137,-0.1664 -0.5127,-0.1663 -0.5117,-0.1663 -0.5107,-0.1663 -0.5097,-0.1663 -0.5086,-0.1664 -0.5076,-0.1665 -0.5066,-0.1654 -0.5056,-0.1653 -0.5046,-0.1654 -0.5036,-0.1655 -0.5025,-0.1657 -0.5015,-0.1655 -0.5005,-0.1656 -0.4995,-0.1656 -0.4985,-0.1657 -0.4974,-0.1656 -0.4964,-0.1657 -0.4954,-0.1658 -0.4944,-0.1657 -0.4934,-0.1656 -0.4924,-0.1655 -0.4913,-0.1654 -0.4903,-0.1653 -0.4893,-0.1654 -0.4883,-0.1653 -0.4873,-0.1652 -0.4863,-0.1654 -0.4852,-0.1653 -0.4842,-0.1652 -0.4832,-0.1653 -0.4822,-0.1654 -0.4812,-0.1654 -0.4802,-0.1653 -0.4791,-0.1654 -0.4781,-0.1655 -0.4771,-0.1656 -0.4761,-0.1655 -0.4751,-0.1656 -0.4740,-0.1655 -0.4730,-0.1659 -0.4720,-0.1657 -0.4710,-0.1659 -0.4700,-0.1657 -0.4690,-0.1657 -0.4679,-0.1658 -0.4669,-0.1662 -0.4659,-0.1665 -0.4649,-0.1658 -0.4639,-0.1667 -0.4629,-0.1664 -0.4618,-0.1659 -0.4608,-0.1664 -0.4598,-0.1663 -0.4588,-0.1657 -0.4578,-0.1658 -0.4567,-0.1662 -0.4557,-0.1659 -0.4547,-0.1662 -0.4537,-0.1660 -0.4527,-0.1660 -0.4517,-0.1661 -0.4506,-0.1660 -0.4496,-0.1659 -0.4486,-0.1658 -0.4476,-0.1657 -0.4466,-0.1658 -0.4456,-0.1660 -0.4445,-0.1661 -0.4435,-0.1663 -0.4425,-0.1661 -0.4415,-0.1659 -0.4405,-0.1658 -0.4394,-0.1659 -0.4384,-0.1658 -0.4374,-0.1659 -0.4364,-0.1659 -0.4354,-0.1658 -0.4344,-0.1659 -0.4333,-0.1659 -0.4323,-0.1659 -0.4313,-0.1659 -0.4303,-0.1659 -0.4293,-0.1658 -0.4283,-0.1659 -0.4272,-0.1661 -0.4262,-0.1660 -0.4252,-0.1659 -0.4242,-0.1660 -0.4232,-0.1659 -0.4222,-0.1658 -0.4211,-0.1659 -0.4201,-0.1659 -0.4191,-0.1659 -0.4181,-0.1659 -0.4171,-0.1659 -0.4160,-0.1659 -0.4150,-0.1660 -0.4140,-0.1659 -0.4130,-0.1660 -0.4120,-0.1660 -0.4110,-0.1661 -0.4099,-0.1662 -0.4089,-0.1663 -0.4079,-0.1662 -0.4069,-0.1660 -0.4059,-0.1660 -0.4049,-0.1659 -0.4038,-0.1658 -0.4028,-0.1659 -0.4018,-0.1657 -0.4008,-0.1658 -0.3998,-0.1657 -0.3987,-0.1657 -0.3977,-0.1662 -0.3967,-0.1664 -0.3957,-0.1665 -0.3947,-0.1663 -0.3937,-0.1667 -0.3926,-0.1666 -0.3916,-0.1667 -0.3906,-0.1674 -0.3896,-0.1680 -0.3886,-0.1669 -0.3876,-0.1676 -0.3865,-0.1666 -0.3855,-0.1670 -0.3845,-0.1666 -0.3835,-0.1662 -0.3825,-0.1657 -0.3814,-0.1652 -0.3804,-0.1672 -0.3794,-0.1651 -0.3784,-0.1655 -0.3774,-0.1660 -0.3764,-0.1655 -0.3753,-0.1654 -0.3743,-0.1653 -0.3733,-0.1654 -0.3723,-0.1653 -0.3713,-0.1644 -0.3703,-0.1647 -0.3692,-0.1646 -0.3682,-0.1647 -0.3672,-0.1645 -0.3662,-0.1646 -0.3652,-0.1644 -0.3642,-0.1640 -0.3631,-0.1641 -0.3621,-0.1661 -0.3611,-0.1667 -0.3601,-0.1664 -0.3591,-0.1671 -0.3580,-0.1664 -0.3570,-0.1661 -0.3560,-0.1667 -0.3550,-0.1670 -0.3540,-0.1676 -0.3530,-0.1668 -0.3519,-0.1673 -0.3509,-0.1649 -0.3499,-0.1676 -0.3489,-0.1643 -0.3479,-0.1642 -0.3469,-0.1643 -0.3458,-0.1648 -0.3448,-0.1643 -0.3438,-0.1642 -0.3428,-0.1643 -0.3418,-0.1661 -0.3407,-0.1657 -0.3397,-0.1664 -0.3387,-0.1656 -0.3377,-0.1675 -0.3367,-0.1638 -0.3357,-0.1649 -0.3346,-0.1657 -0.3336,-0.1658 -0.3326,-0.1658 -0.3316,-0.1651 -0.3306,-0.1652 -0.3296,-0.1656 -0.3285,-0.1655 -0.3275,-0.1644 -0.3265,-0.1650 -0.3255,-0.1655 -0.3245,-0.1653 -0.3235,-0.1657 -0.3224,-0.1657 -0.3214,-0.1647 -0.3204,-0.1655 -0.3194,-0.1658 -0.3184,-0.1679 -0.3173,-0.1672 -0.3163,-0.1674 -0.3153,-0.1682 -0.3143,-0.1689 -0.3133,-0.1694 -0.3123,-0.1691 -0.3112,-0.1682 -0.3102,-0.1686 -0.3092,-0.1688 -0.3082,-0.1684 -0.3072,-0.1679 -0.3062,-0.1682 -0.3051,-0.1692 -0.3041,-0.1699 -0.3031,-0.1693 -0.3021,-0.1686 -0.3011,-0.1675 -0.3000,-0.1686 -0.2990,-0.1696 -0.2980,-0.1684 -0.2970,-0.1689 -0.2960,-0.1692 -0.2950,-0.1698 -0.2939,-0.1713 -0.2929,-0.1718 -0.2919,-0.1720 -0.2909,-0.1705 -0.2899,-0.1703 -0.2889,-0.1703 -0.2878,-0.1720 -0.2868,-0.1713 -0.2858,-0.1721 -0.2848,-0.1709 -0.2838,-0.1741 -0.2827,-0.1738 -0.2817,-0.1720 -0.2807,-0.1734 -0.2797,-0.1722 -0.2787,-0.1724 -0.2777,-0.1722 -0.2766,-0.1715 -0.2756,-0.1730 -0.2746,-0.1722 -0.2736,-0.1721 -0.2726,-0.1720 -0.2716,-0.1720 -0.2705,-0.1739 -0.2695,-0.1721 -0.2685,-0.1717 -0.2675,-0.1717 -0.2665,-0.1722 -0.2655,-0.1716 -0.2644,-0.1715 -0.2634,-0.1720 -0.2624,-0.1715 -0.2614,-0.1717 -0.2604,-0.1716 -0.2593,-0.1714 -0.2583,-0.1713 -0.2573,-0.1714 -0.2563,-0.1715 -0.2553,-0.1717 -0.2543,-0.1717 -0.2532,-0.1718 -0.2522,-0.1717 -0.2512,-0.1717 -0.2502,-0.1716 -0.2492,-0.1717 -0.2482,-0.1719 -0.2471,-0.1718 -0.2461,-0.1717 -0.2451,-0.1716 -0.2441,-0.1718 -0.2431,-0.1717 -0.2420,-0.1717 -0.2410,-0.1720 -0.2400,-0.1721 -0.2390,-0.1721 -0.2380,-0.1720 -0.2370,-0.1721 -0.2359,-0.1720 -0.2349,-0.1717 -0.2339,-0.1716 -0.2329,-0.1715 -0.2319,-0.1716 -0.2309,-0.1717 -0.2298,-0.1715 -0.2288,-0.1716 -0.2278,-0.1717 -0.2268,-0.1717 -0.2258,-0.1718 -0.2248,-0.1716 -0.2237,-0.1717 -0.2227,-0.1718 -0.2217,-0.1718 -0.2207,-0.1720 -0.2197,-0.1717 -0.2186,-0.1712 -0.2176,-0.1709 -0.2166,-0.1706 -0.2156,-0.1683 -0.2146,-0.1713 -0.2136,-0.1712 -0.2125,-0.1721 -0.2115,-0.1722 -0.2105,-0.1722 -0.2095,-0.1721 -0.2085,-0.1711 -0.2075,-0.1715 -0.2064,-0.1718 -0.2054,-0.1719 -0.2044,-0.1724 -0.2034,-0.1721 -0.2024,-0.1727 -0.2013,-0.1725 -0.2003,-0.1730 -0.1993,-0.1720 -0.1983,-0.1723 -0.1973,-0.1721 -0.1963,-0.1727 -0.1952,-0.1716 -0.1942,-0.1724 -0.1932,-0.1723 -0.1922,-0.1726 -0.1912,-0.1729 -0.1902,-0.1749 -0.1891,-0.1727 -0.1881,-0.1746 -0.1871,-0.1726 -0.1861,-0.1707 -0.1851,-0.1719 -0.1840,-0.1714 -0.1830,-0.1705 -0.1820,-0.1713 -0.1810,-0.1703 -0.1800,-0.1713 -0.1790,-0.1713 -0.1779,-0.1712 -0.1769,-0.1711 -0.1759,-0.1710 -0.1749,-0.1714 -0.1739,-0.1686 -0.1729,-0.1713 -0.1718,-0.1703 -0.1708,-0.1711 -0.1698,-0.1701 -0.1688,-0.1695 -0.1678,-0.1706 -0.1668,-0.1711 -0.1657,-0.1706 -0.1647,-0.1702 -0.1637,-0.1686 -0.1627,-0.1715 -0.1617,-0.1714 -0.1606,-0.1715 -0.1596,-0.1716 -0.1586,-0.1716 -0.1576,-0.1716 -0.1566,-0.1715 -0.1556,-0.1715 -0.1545,-0.1715 -0.1535,-0.1714 -0.1525,-0.1715 -0.1515,-0.1715 -0.1505,-0.1709 -0.1495,-0.1685 -0.1484,-0.1714 -0.1474,-0.1707 -0.1464,-0.1699 -0.1454,-0.1713 -0.1444,-0.1700 -0.1433,-0.1714 -0.1423,-0.1714 -0.1413,-0.1706 -0.1403,-0.1714 -0.1393,-0.1715 -0.1383,-0.1715 -0.1372,-0.1715 -0.1362,-0.1715 -0.1352,-0.1685 -0.1342,-0.1686 -0.1332,-0.1715 -0.1322,-0.1690 -0.1311,-0.1713 -0.1301,-0.1693 -0.1291,-0.1692 -0.1281,-0.1679 -0.1271,-0.1676 -0.1260,-0.1672 -0.1250,-0.1674 -0.1240,-0.1673 -0.1230,-0.1675 -0.1220,-0.1669 -0.1210,-0.1662 -0.1199,-0.1670 -0.1189,-0.1663 -0.1179,-0.1670 -0.1169,-0.1676 -0.1159,-0.1669 -0.1149,-0.1673 -0.1138,-0.1676 -0.1128,-0.1671 -0.1118,-0.1673 -0.1108,-0.1669 -0.1098,-0.1666 -0.1088,-0.1668 -0.1077,-0.1666 -0.1067,-0.1664 -0.1057,-0.1665 -0.1047,-0.1666 -0.1037,-0.1665 -0.1026,-0.1663 -0.1016,-0.1663 -0.1006,-0.1665 -0.0996,-0.1666 -0.0986,-0.1664 -0.0976,-0.1665 -0.0965,-0.1678 -0.0955,-0.1679 -0.0945,-0.1683 -0.0935,-0.1700 -0.0925,-0.1694 -0.0915,-0.1710 -0.0904,-0.1682 -0.0894,-0.1680 -0.0884,-0.1679 -0.0874,-0.1681 -0.0864,-0.1679 -0.0853,-0.1681 -0.0843,-0.1682 -0.0833,-0.1683 -0.0823,-0.1679 -0.0813,-0.1682 -0.0803,-0.1679 -0.0792,-0.1686 -0.0782,-0.1685 -0.0772,-0.1683 -0.0762,-0.1684 -0.0752,-0.1684 -0.0742,-0.1683 -0.0731,-0.1674 -0.0721,-0.1659 -0.0711,-0.1676 -0.0701,-0.1674 -0.0691,-0.1657 -0.0681,-0.1655 -0.0670,-0.1658 -0.0660,-0.1659 -0.0650,-0.1683 -0.0640,-0.1674 -0.0630,-0.1670 -0.0619,-0.1683 -0.0609,-0.1662 -0.0599,-0.1659 -0.0589,-0.1658 -0.0579,-0.1662 -0.0569,-0.1661 -0.0558,-0.1662 -0.0548,-0.1659 -0.0538,-0.1658 -0.0528,-0.1657 -0.0518,-0.1658 -0.0508,-0.1663 -0.0497,-0.1667 -0.0487,-0.1664 -0.0477,-0.1657 -0.0467,-0.1664 -0.0457,-0.1663 -0.0446,-0.1665 -0.0436,-0.1659 -0.0426,-0.1658 -0.0416,-0.1659 -0.0406,-0.1665 -0.0396,-0.1674 -0.0385,-0.1658 -0.0375,-0.1657 -0.0365,-0.1658 -0.0355,-0.1675 -0.0345,-0.1691 -0.0335,-0.1664 -0.0324,-0.1657 -0.0314,-0.1660 -0.0304,-0.1659 -0.0294,-0.1658 -0.0284,-0.1669 -0.0273,-0.1669 -0.0263,-0.1668 -0.0253,-0.1666 -0.0243,-0.1668 -0.0233,-0.1668 -0.0223,-0.1670 -0.0212,-0.1672 -0.0202,-0.1673 -0.0192,-0.1671 -0.0182,-0.1669 -0.0172,-0.1670 -0.0162,-0.1669 -0.0151,-0.1669 -0.0141,-0.1669 -0.0131,-0.1669 -0.0121,-0.1669 -0.0111,-0.1680 -0.0101,-0.1678 -0.0090,-0.1678 -0.0080,-0.1679 -0.0070,-0.1680 -0.0060,-0.1682 -0.0050,-0.1682 -0.0039,-0.1682 -0.0029,-0.1682 -0.0019,-0.1672 -0.0009,-0.1673 0.0001,-0.1675 0.0011,-0.1675 0.0022,-0.1676 0.0032,-0.1675 0.0042,-0.1676 0.0052,-0.1677 0.0062,-0.1676 0.0072,-0.1675 0.0083,-0.1676 0.0093,-0.1675 0.0103,-0.1674 0.0113,-0.1673 0.0123,-0.1673 0.0134,-0.1672 0.0144,-0.1675 0.0154,-0.1674 0.0164,-0.1672 0.0174,-0.1671 0.0184,-0.1670 0.0195,-0.1670 0.0205,-0.1669 0.0215,-0.1670 0.0225,-0.1672 0.0235,-0.1673 0.0245,-0.1672 0.0256,-0.1672 0.0266,-0.1668 0.0276,-0.1666 0.0286,-0.1668 0.0296,-0.1666 0.0306,-0.1668 0.0317,-0.1670 0.0327,-0.1673 0.0337,-0.1672 0.0347,-0.1668 0.0357,-0.1666 0.0368,-0.1668 0.0378,-0.1671 0.0388,-0.1673 0.0398,-0.1674 0.0408,-0.1674 0.0418,-0.1675 0.0429,-0.1676 0.0439,-0.1675 0.0449,-0.1676 0.0459,-0.1676 0.0469,-0.1675 0.0479,-0.1676 0.0490,-0.1680 0.0500,-0.1682 0.0510,-0.1683 0.0520,-0.1684 0.0530,-0.1685 0.0541,-0.1686 0.0551,-0.1685 0.0561,-0.1684 0.0571,-0.1683 0.0581,-0.1683 0.0591,-0.1684 0.0602,-0.1683 0.0612,-0.1684 0.0622,-0.1683 0.0632,-0.1684 0.0642,-0.1684 0.0652,-0.1683 0.0663,-0.1685 0.0673,-0.1686 0.0683,-0.1684 0.0693,-0.1686 0.0703,-0.1685 0.0714,-0.1685 0.0724,-0.1686 0.0734,-0.1685 0.0744,-0.1686 0.0754,-0.1687 0.0764,-0.1686 0.0775,-0.1686 0.0785,-0.1687 0.0795,-0.1686 0.0805,-0.1676 0.0815,-0.1688 0.0825,-0.1687 0.0836,-0.1687 0.0846,-0.1675 0.0856,-0.1675 0.0866,-0.1687 0.0876,-0.1686 0.0886,-0.1689 0.0897,-0.1685 0.0907,-0.1678 0.0917,-0.1677 0.0927,-0.1677 0.0937,-0.1677 0.0948,-0.1676 0.0958,-0.1675 0.0968,-0.1674 0.0978,-0.1672 0.0988,-0.1668 0.0998,-0.1671 0.1009,-0.1674 0.1019,-0.1674 0.1029,-0.1675 0.1039,-0.1671 0.1049,-0.1670 0.1059,-0.1666 0.1070,-0.1663 0.1080,-0.1667 0.1090,-0.1663 0.1100,-0.1661 0.1110,-0.1657 0.1121,-0.1662 0.1131,-0.1667 0.1141,-0.1673 0.1151,-0.1674 0.1161,-0.1671 0.1171,-0.1674 0.1182,-0.1673 0.1192,-0.1675 0.1202,-0.1675 0.1212,-0.1674 0.1222,-0.1674 0.1232,-0.1668 0.1243,-0.1673 0.1253,-0.1661 0.1263,-0.1660 0.1273,-0.1659 0.1283,-0.1659 0.1294,-0.1660 0.1304,-0.1659 0.1314,-0.1659 0.1324,-0.1659 0.1334,-0.1658 0.1344,-0.1659 0.1355,-0.1658 0.1365,-0.1658 0.1375,-0.1643 0.1385,-0.1636 0.1395,-0.1643 0.1405,-0.1633 0.1416,-0.1628 0.1426,-0.1621 0.1436,-0.1630 0.1446,-0.1641 0.1456,-0.1657 0.1466,-0.1659 0.1477,-0.1653 0.1487,-0.1658 0.1497,-0.1650 0.1507,-0.1658 0.1517,-0.1659 0.1528,-0.1665 0.1538,-0.1662 0.1548,-0.1660 0.1558,-0.1660 0.1568,-0.1664 0.1578,-0.1668 0.1589,-0.1660 0.1599,-0.1657 0.1609,-0.1662 0.1619,-0.1655 0.1629,-0.1650 0.1639,-0.1645 0.1650,-0.1667 0.1660,-0.1635 0.1670,-0.1626 0.1680,-0.1639 0.1690,-0.1626 0.1701,-0.1621 0.1711,-0.1620 0.1721,-0.1621 0.1731,-0.1620 0.1741,-0.1618 0.1751,-0.1634 0.1762,-0.1618 0.1772,-0.1619 0.1782,-0.1644 0.1792,-0.1658 0.1802,-0.1644 0.1812,-0.1638 0.1823,-0.1633 0.1833,-0.1638 0.1843,-0.1632 0.1853,-0.1620 0.1863,-0.1622 0.1873,-0.1620 0.1884,-0.1620 0.1894,-0.1617 0.1904,-0.1617 0.1914,-0.1625 0.1924,-0.1634 0.1935,-0.1636 0.1945,-0.1637 0.1955,-0.1639 0.1965,-0.1641 0.1975,-0.1633 0.1985,-0.1623 0.1996,-0.1628 0.2006,-0.1614 0.2016,-0.1617 0.2026,-0.1626 0.2036,-0.1619 0.2046,-0.1659 0.2057,-0.1640 0.2067,-0.1659 0.2077,-0.1618 0.2087,-0.1644 0.2097,-0.1603 0.2108,-0.1606 0.2118,-0.1613 0.2128,-0.1621 0.2138,-0.1624 0.2148,-0.1627 0.2158,-0.1623 0.2169,-0.1620 0.2179,-0.1617 0.2189,-0.1616 0.2199,-0.1618 0.2209,-0.1619 0.2219,-0.1630 0.2230,-0.1627 0.2240,-0.1621 0.2250,-0.1617 0.2260,-0.1616 0.2270,-0.1617 0.2281,-0.1615 0.2291,-0.1617 0.2301,-0.1616 0.2311,-0.1617 0.2321,-0.1619 0.2331,-0.1651 0.2342,-0.1619 0.2352,-0.1627 0.2362,-0.1616 0.2372,-0.1626 0.2382,-0.1630 0.2392,-0.1633 0.2403,-0.1637 0.2413,-0.1630 0.2423,-0.1613 0.2433,-0.1628 0.2443,-0.1618 0.2453,-0.1618 0.2464,-0.1613 0.2474,-0.1617 0.2484,-0.1617 0.2494,-0.1618 0.2504,-0.1618 0.2515,-0.1619 0.2525,-0.1618 0.2535,-0.1618 0.2545,-0.1617 0.2555,-0.1617 0.2565,-0.1616 0.2576,-0.1617 0.2586,-0.1616 0.2596,-0.1617 0.2606,-0.1616 0.2616,-0.1615 0.2626,-0.1614 0.2637,-0.1616 0.2647,-0.1615 0.2657,-0.1614 0.2667,-0.1615 0.2677,-0.1616 0.2688,-0.1617 0.2698,-0.1618 0.2708,-0.1617 0.2718,-0.1618 0.2728,-0.1618 0.2738,-0.1617 0.2749,-0.1618 0.2759,-0.1618 0.2769,-0.1617 0.2779,-0.1616 0.2789,-0.1615 0.2799,-0.1614 0.2810,-0.1613 0.2820,-0.1615 0.2830,-0.1614 0.2840,-0.1612 0.2850,-0.1614 0.2860,-0.1616 0.2871,-0.1615 0.2881,-0.1609 0.2891,-0.1614 0.2901,-0.1611 0.2911,-0.1608 0.2922,-0.1605 0.2932,-0.1601 0.2942,-0.1597 0.2952,-0.1604 0.2962,-0.1609 0.2972,-0.1604 0.2983,-0.1603 0.2993,-0.1606 0.3003,-0.1613 0.3013,-0.1613 0.3023,-0.1612 0.3033,-0.1612 0.3044,-0.1613 0.3054,-0.1613 0.3064,-0.1592 0.3074,-0.1585 0.3084,-0.1577 0.3095,-0.1590 0.3105,-0.1599 0.3115,-0.1605 0.3125,-0.1599 0.3135,-0.1588 0.3145,-0.1593 0.3156,-0.1582 0.3166,-0.1582 0.3176,-0.1585 0.3186,-0.1569 0.3196,-0.1563 0.3206,-0.1585 0.3217,-0.1560 0.3227,-0.1570 0.3237,-0.1593 0.3247,-0.1563 0.3257,-0.1588 0.3268,-0.1589 0.3278,-0.1606 0.3288,-0.1599 0.3298,-0.1597 0.3308,-0.1599 0.3318,-0.1591 0.3329,-0.1594 0.3339,-0.1590 0.3349,-0.1593 0.3359,-0.1595 0.3369,-0.1599 0.3379,-0.1595 0.3390,-0.1593 0.3400,-0.1586 0.3410,-0.1587 0.3420,-0.1595 0.3430,-0.1587 0.3440,-0.1593 0.3451,-0.1588 0.3461,-0.1585 0.3471,-0.1585 0.3481,-0.1583 0.3491,-0.1581 0.3502,-0.1582 0.3512,-0.1582 0.3522,-0.1583 0.3532,-0.1600 0.3542,-0.1602 0.3552,-0.1604 0.3563,-0.1605 0.3573,-0.1605 0.3583,-0.1604 0.3593,-0.1600 0.3603,-0.1592 0.3613,-0.1603 0.3624,-0.1603 0.3634,-0.1605 0.3644,-0.1606 0.3654,-0.1608 0.3664,-0.1609 0.3675,-0.1607 0.3685,-0.1609 0.3695,-0.1610 0.3705,-0.1611 0.3715,-0.1611 0.3725,-0.1609 0.3736,-0.1610 0.3746,-0.1609 0.3756,-0.1606 0.3766,-0.1608 0.3776,-0.1609 0.3786,-0.1610 0.3797,-0.1611 0.3807,-0.1610 0.3817,-0.1609 0.3827,-0.1607 0.3837,-0.1604 0.3847,-0.1606 0.3858,-0.1590 0.3868,-0.1591 0.3878,-0.1612 0.3888,-0.1605 0.3898,-0.1611 0.3909,-0.1588 0.3919,-0.1589 0.3929,-0.1612 0.3939,-0.1614 0.3949,-0.1612 0.3959,-0.1600 0.3970,-0.1609 0.3980,-0.1609 0.3990,-0.1594 0.4000,-0.1608 0.4010,-0.1593"/></g><g fill="none" stroke="rgb(21%, 48%, -28%)" stroke-opacity="0.75" stroke-width="0.0050"><polyline points="-0.6155,-0.1946 -0.6145,-0.1947 -0.6134,-0.1947 -0.6124,-0.1946 -0.6114,-0.1946 -0.6104,-0.1946 -0.6094,-0.1946 -0.6084,-0.1946 -0.6073,-0.1946 -0.6063,-0.1946 -0.6053,-0.1946 -0.6043,-0.1946 -0.6033,-0.1946 -0.6023,-0.1946 -0.6012,-0.1946 -0.6002,-0.1945 -0.5992,-0.1945 -0.5982,-0.1945 -0.5972,-0.1945 -0.5961,-0.1945 -0.5951,-0.1945 -0.5941,-0.1945 -0.5931,-0.1945 -0.5921,-0.1945 -0.5911,-0.1944 -0.5900,-0.1941 -0.5890,-0.1934 -0.5880,-0.1930 -0.5870,-0.1926 -0.5860,-0.1926 -0.5850,-0.1926 -0.5839,-0.1925 -0.5829,-0.1923 -0.5819,-0.1919 -0.5809,-0.1918 -0.5799,-0.1916 -0.5789,-0.1914 -0.5778,-0.1912 -0.5768,-0.1910 -0.5758,-0.1908 -0.5748,-0.1906 -0.5738,-0.1905 -0.5727,-0.1904 -0.5717,-0.1902 -0.5707,-0.1901 -0.5697,-0.1915 -0.5687,-0.1914 -0.5677,-0.1914 -0.5666,-0.1928 -0.5656,-0.1926 -0.5646,-0.1924 -0.5636,-0.1922 -0.5626,-0.1921 -0.5616,-0.1919 -0.5605,-0.1917 -0.5595,-0.1919 -0.5585,-0.1919 -0.5575,-0.1921 -0.5565,-0.1921 -0.5554,-0.1920 -0.5544,-0.1917 -0.5534,-0.1918 -0.5524,-0.1916 -0.5514,-0.1916 -0.5504,-0.1915 -0.5493,-0.1914 -0.5483,-0.1913 -0.5473,-0.1912 -0.5463,-0.1910 -0.5453,-0.1909 -0.5443,-0.1908 -0.5432,-0.1907 -0.5422,-0.1906 -0.5412,-0.1906 -0.5402,-0.1905 -0.5392,-0.1904 -0.5381,-0.1903 -0.5371,-0.1902 -0.5361,-0.1902 -0.5351,-0.1901 -0.5341,-0.1900 -0.5331,-0.1899 -0.5320,-0.1898 -0.5310,-0.1897 -0.5300,-0.1896 -0.5290,-0.1895 -0.5280,-0.1894 -0.5270,-0.1893 -0.5259,-0.1892 -0.5249,-0.1902 -0.5239,-0.1901 -0.5229,-0.1909 -0.5219,-0.1908 -0.5209,-0.1908 -0.5198,-0.1917 -0.5188,-0.1917 -0.5178,-0.1916 -0.5168,-0.1921 -0.5158,-0.1940 -0.5147,-0.1939 -0.5137,-0.1938 -0.5127,-0.1937 -0.5117,-0.1936 -0.5107,-0.1943 -0.5097,-0.1942 -0.5086,-0.1942 -0.5076,-0.1948 -0.5066,-0.1948 -0.5056,-0.1947 -0.5046,-0.1947 -0.5036,-0.1950 -0.5025,-0.1950 -0.5015,-0.1949 -0.5005,-0.1949 -0.4995,-0.1951 -0.4985,-0.1949 -0.4974,-0.1948 -0.4964,-0.1949 -0.4954,-0.1948 -0.4944,-0.1947 -0.4934,-0.1947 -0.4924,-0.1946 -0.4913,-0.1946 -0.4903,-0.1946 -0.4893,-0.1946 -0.4883,-0.1946 -0.4873,-0.1946 -0.4863,-0.1946 -0.4852,-0.1946 -0.4842,-0.1946 -0.4832,-0.1946 -0.4822,-0.1946 -0.4812,-0.1946 -0.4802,-0.1946 -0.4791,-0.1946 -0.4781,-0.1946 -0.4771,-0.1947 -0.4761,-0.1947 -0.4751,-0.1947 -0.4740,-0.1947 -0.4730,-0.1947 -0.4720,-0.1946 -0.4710,-0.1946 -0.4700,-0.1946 -0.4690,-0.1946 -0.4679,-0.1946 -0.4669,-0.1946 -0.4659,-0.1946 -0.4649,-0.1946 -0.4639,-0.1946 -0.4629,-0.1946 -0.4618,-0.1946 -0.4608,-0.1946 -0.4598,-0.1946 -0.4588,-0.1946 -0.4578,-0.1943 -0.4567,-0.1938 -0.4557,-0.1929 -0.4547,-0.1928 -0.4537,-0.1929 -0.4527,-0.1928 -0.4517,-0.1927 -0.4506,-0.1926 -0.4496,-0.1924 -0.4486,-0.1923 -0.4476,-0.1922 -0.4466,-0.1921 -0.4456,-0.1920 -0.4445,-0.1919 -0.4435,-0.1917 -0.4425,-0.1916 -0.4415,-0.1915 -0.4405,-0.1915 -0.4394,-0.1914 -0.4384,-0.1914 -0.4374,-0.1913 -0.4364,-0.1913 -0.4354,-0.1912 -0.4344,-0.1912 -0.4333,-0.1911 -0.4323,-0.1911 -0.4313,-0.1910 -0.4303,-0.1910 -0.4293,-0.1906 -0.4283,-0.1902 -0.4272,-0.1899 -0.4262,-0.1898 -0.4252,-0.1897 -0.4242,-0.1897 -0.4232,-0.1896 -0.4222,-0.1896 -0.4211,-0.1895 -0.4201,-0.1894 -0.4191,-0.1894 -0.4181,-0.1893 -0.4171,-0.1893 -0.4160,-0.1892 -0.4150,-0.1891 -0.4140,-0.1891 -0.4130,-0.1890 -0.4120,-0.1888 -0.4110,-0.1885 -0.4099,-0.1882 -0.4089,-0.1882 -0.4079,-0.1881 -0.4069,-0.1881 -0.4059,-0.1881 -0.4049,-0.1880 -0.4038,-0.1880 -0.4028,-0.1888 -0.4018,-0.1886 -0.4008,-0.1882 -0.3998,-0.1882 -0.3987,-0.1881 -0.3977,-0.1892 -0.3967,-0.1910 -0.3957,-0.1910 -0.3947,-0.1903 -0.3937,-0.1902 -0.3926,-0.1894 -0.3916,-0.1893 -0.3906,-0.1893 -0.3896,-0.1893 -0.3886,-0.1893 -0.3876,-0.1892 -0.3865,-0.1892 -0.3855,-0.1891 -0.3845,-0.1891 -0.3835,-0.1891 -0.3825,-0.1890 -0.3814,-0.1887 -0.3804,-0.1884 -0.3794,-0.1893 -0.3784,-0.1893 -0.3774,-0.1913 -0.3764,-0.1911 -0.3753,-0.1908 -0.3743,-0.1907 -0.3733,-0.1921 -0.3723,-0.1920 -0.3713,-0.1919 -0.3703,-0.1928 -0.3692,-0.1927 -0.3682,-0.1949 -0.3672,-0.1949 -0.3662,-0.1949 -0.3652,-0.1948 -0.3642,-0.1948 -0.3631,-0.1959 -0.3621,-0.1962 -0.3611,-0.1971 -0.3601,-0.1970 -0.3591,-0.2004 -0.3580,-0.2001 -0.3570,-0.1996 -0.3560,-0.2043 -0.3550,-0.2040 -0.3540,-0.2063 -0.3530,-0.2064 -0.3519,-0.2234 -0.3509,-0.2154 -0.3499,-0.2145 -0.3489,-0.2319 -0.3479,-0.2312 -0.3469,-0.2302 -0.3458,-0.2373 -0.3448,-0.2361 -0.3438,-0.2350 -0.3428,-0.2344 -0.3418,-0.2334 -0.3407,-0.2324 -0.3397,-0.2312 -0.3387,-0.2301 -0.3377,-0.2397 -0.3367,-0.2397 -0.3357,-0.2396 -0.3346,-0.2396 -0.3336,-0.2395 -0.3326,-0.2341 -0.3316,-0.2329 -0.3306,-0.2334 -0.3296,-0.2330 -0.3285,-0.2326 -0.3275,-0.2323 -0.3265,-0.2319 -0.3255,-0.2315 -0.3245,-0.2396 -0.3235,-0.2395 -0.3224,-0.2360 -0.3214,-0.2338 -0.3204,-0.2334 -0.3194,-0.2330 -0.3184,-0.2326 -0.3173,-0.2322 -0.3163,-0.2318 -0.3153,-0.2313 -0.3143,-0.2309 -0.3133,-0.2305 -0.3123,-0.2301 -0.3112,-0.2340 -0.3102,-0.2335 -0.3092,-0.2331 -0.3082,-0.2327 -0.3072,-0.2323 -0.3062,-0.2319 -0.3051,-0.2291 -0.3041,-0.2310 -0.3031,-0.2305 -0.3021,-0.2301 -0.3011,-0.2296 -0.3000,-0.2290 -0.2990,-0.2269 -0.2980,-0.2247 -0.2970,-0.2227 -0.2960,-0.2219 -0.2950,-0.2211 -0.2939,-0.2203 -0.2929,-0.2195 -0.2919,-0.2186 -0.2909,-0.2179 -0.2899,-0.2170 -0.2889,-0.2162 -0.2878,-0.2153 -0.2868,-0.2145 -0.2858,-0.2143 -0.2848,-0.2140 -0.2838,-0.2137 -0.2827,-0.2134 -0.2817,-0.2131 -0.2807,-0.2128 -0.2797,-0.2124 -0.2787,-0.2121 -0.2777,-0.2115 -0.2766,-0.2112 -0.2756,-0.2108 -0.2746,-0.2104 -0.2736,-0.2101 -0.2726,-0.2099 -0.2716,-0.2097 -0.2705,-0.2095 -0.2695,-0.2093 -0.2685,-0.2092 -0.2675,-0.2090 -0.2665,-0.2088 -0.2655,-0.2086 -0.2644,-0.2084 -0.2634,-0.2083 -0.2624,-0.2081 -0.2614,-0.2080 -0.2604,-0.2078 -0.2593,-0.2076 -0.2583,-0.2075 -0.2573,-0.2073 -0.2563,-0.2071 -0.2553,-0.2069 -0.2543,-0.2067 -0.2532,-0.2065 -0.2522,-0.2062 -0.2512,-0.2060 -0.2502,-0.2058 -0.2492,-0.2056 -0.2482,-0.2065 -0.2471,-0.2064 -0.2461,-0.2063 -0.2451,-0.2062 -0.2441,-0.2072 -0.2431,-0.2072 -0.2420,-0.2070 -0.2410,-0.2070 -0.2400,-0.2069 -0.2390,-0.2067 -0.2380,-0.2066 -0.2370,-0.2065 -0.2359,-0.2063 -0.2349,-0.2061 -0.2339,-0.2060 -0.2329,-0.2059 -0.2319,-0.2071 -0.2309,-0.2082 -0.2298,-0.2080 -0.2288,-0.2079 -0.2278,-0.2077 -0.2268,-0.2076 -0.2258,-0.2088 -0.2248,-0.2087 -0.2237,-0.2093 -0.2227,-0.2092 -0.2217,-0.2092 -0.2207,-0.2098 -0.2197,-0.2098 -0.2186,-0.2097 -0.2176,-0.2096 -0.2166,-0.2095 -0.2156,-0.2094 -0.2146,-0.2094 -0.2136,-0.2094 -0.2125,-0.2094 -0.2115,-0.2094 -0.2105,-0.2094 -0.2095,-0.2094 -0.2085,-0.2093 -0.2075,-0.2093 -0.2064,-0.2093 -0.2054,-0.2093 -0.2044,-0.2095 -0.2034,-0.2102 -0.2024,-0.2112 -0.2013,-0.2108 -0.2003,-0.2108 -0.1993,-0.2107 -0.1983,-0.2106 -0.1973,-0.2106 -0.1963,-0.2105 -0.1952,-0.2104 -0.1942,-0.2103 -0.1932,-0.2103 -0.1922,-0.2102 -0.1912,-0.2101 -0.1902,-0.2101 -0.1891,-0.2100 -0.1881,-0.2100 -0.1871,-0.2099 -0.1861,-0.2099 -0.1851,-0.2098 -0.1840,-0.2098 -0.1830,-0.2097 -0.1820,-0.2097 -0.1810,-0.2097 -0.1800,-0.2096 -0.1790,-0.2096 -0.1779,-0.2095 -0.1769,-0.2095 -0.1759,-0.2095 -0.1749,-0.2094 -0.1739,-0.2094 -0.1729,-0.2094 -0.1718,-0.2094 -0.1708,-0.2094 -0.1698,-0.2094 -0.1688,-0.2093 -0.1678,-0.2093 -0.1668,-0.2093 -0.1657,-0.2093 -0.1647,-0.2090 -0.1637,-0.2082 -0.1627,-0.2080 -0.1617,-0.2079 -0.1606,-0.2078 -0.1596,-0.2062 -0.1586,-0.2062 -0.1576,-0.2062 -0.1566,-0.2062 -0.1556,-0.2061 -0.1545,-0.2061 -0.1535,-0.2061 -0.1525,-0.2060 -0.1515,-0.2061 -0.1505,-0.2060 -0.1495,-0.2059 -0.1484,-0.2059 -0.1474,-0.2056 -0.1464,-0.2054 -0.1454,-0.2052 -0.1444,-0.2050 -0.1433,-0.2061 -0.1423,-0.2060 -0.1413,-0.2060 -0.1403,-0.2060 -0.1393,-0.2059 -0.1383,-0.2057 -0.1372,-0.2055 -0.1362,-0.2053 -0.1352,-0.2051 -0.1342,-0.2049 -0.1332,-0.2046 -0.1322,-0.2044 -0.1311,-0.2044 -0.1301,-0.2043 -0.1291,-0.2042 -0.1281,-0.2042 -0.1271,-0.2041 -0.1260,-0.2040 -0.1250,-0.2039 -0.1240,-0.2050 -0.1230,-0.2047 -0.1220,-0.2045 -0.1210,-0.2044 -0.1199,-0.2060 -0.1189,-0.2060 -0.1179,-0.2059 -0.1169,-0.2059 -0.1159,-0.2057 -0.1149,-0.2053 -0.1138,-0.2050 -0.1128,-0.2048 -0.1118,-0.2047 -0.1108,-0.2046 -0.1098,-0.2045 -0.1088,-0.2044 -0.1077,-0.2043 -0.1067,-0.2042 -0.1057,-0.2041 -0.1047,-0.2060 -0.1037,-0.2053 -0.1026,-0.2049 -0.1016,-0.2048 -0.1006,-0.2046 -0.0996,-0.2051 -0.0986,-0.2050 -0.0976,-0.2049 -0.0965,-0.2048 -0.0955,-0.2048 -0.0945,-0.2047 -0.0935,-0.2046 -0.0925,-0.2045 -0.0915,-0.2044 -0.0904,-0.2043 -0.0894,-0.2042 -0.0884,-0.2042 -0.0874,-0.2041 -0.0864,-0.2040 -0.0853,-0.2039 -0.0843,-0.2038 -0.0833,-0.2037 -0.0823,-0.2037 -0.0813,-0.2036 -0.0803,-0.2036 -0.0792,-0.2036 -0.0782,-0.2035 -0.0772,-0.2035 -0.0762,-0.2035 -0.0752,-0.2034 -0.0742,-0.2034 -0.0731,-0.2033 -0.0721,-0.2031 -0.0711,-0.2028 -0.0701,-0.2036 -0.0691,-0.2036 -0.0681,-0.2036 -0.0670,-0.2035 -0.0660,-0.2032 -0.0650,-0.2034 -0.0640,-0.2034 -0.0630,-0.2034 -0.0619,-0.2032 -0.0609,-0.2028 -0.0599,-0.2024 -0.0589,-0.2019 -0.0579,-0.2015 -0.0569,-0.2011 -0.0558,-0.2009 -0.0548,-0.2007 -0.0538,-0.2004 -0.0528,-0.2002 -0.0518,-0.1996 -0.0508,-0.1994 -0.0497,-0.1991 -0.0487,-0.1988 -0.0477,-0.1987 -0.0467,-0.1986 -0.0457,-0.1985 -0.0446,-0.2007 -0.0436,-0.2004 -0.0426,-0.2001 -0.0416,-0.1998 -0.0406,-0.1995 -0.0396,-0.1992 -0.0385,-0.1987 -0.0375,-0.1986 -0.0365,-0.1985 -0.0355,-0.1984 -0.0345,-0.1983 -0.0335,-0.1982 -0.0324,-0.1981 -0.0314,-0.1981 -0.0304,-0.1980 -0.0294,-0.1979 -0.0284,-0.1978 -0.0273,-0.1977 -0.0263,-0.1976 -0.0253,-0.1974 -0.0243,-0.1985 -0.0233,-0.1984 -0.0223,-0.1983 -0.0212,-0.1982 -0.0202,-0.1981 -0.0192,-0.1980 -0.0182,-0.1979 -0.0172,-0.1978 -0.0162,-0.1977 -0.0151,-0.1976 -0.0141,-0.1973 -0.0131,-0.1970 -0.0121,-0.1967 -0.0111,-0.1965 -0.0101,-0.1964 -0.0090,-0.1962 -0.0080,-0.1960 -0.0070,-0.1959 -0.0060,-0.1958 -0.0050,-0.1958 -0.0039,-0.1958 -0.0029,-0.1958 -0.0019,-0.1957 -0.0009,-0.1957 0.0001,-0.1957 0.0011,-0.1956 0.0022,-0.1956 0.0032,-0.1956 0.0042,-0.1955 0.0052,-0.1954 0.0062,-0.1953 0.0072,-0.1952 0.0083,-0.1951 0.0093,-0.1949 0.0103,-0.1948 0.0113,-0.1947 0.0123,-0.1946 0.0134,-0.1945 0.0144,-0.1944 0.0154,-0.1943 0.0164,-0.1939 0.0174,-0.1939 0.0184,-0.1938 0.0195,-0.1937 0.0205,-0.1937 0.0215,-0.1936 0.0225,-0.1952 0.0235,-0.1951 0.0245,-0.1950 0.0256,-0.1942 0.0266,-0.1942 0.0276,-0.1940 0.0286,-0.1956 0.0296,-0.1956 0.0306,-0.1952 0.0317,-0.1951 0.0327,-0.1949 0.0337,-0.1948 0.0347,-0.1946 0.0357,-0.1945 0.0368,-0.1944 0.0378,-0.1955 0.0388,-0.1954 0.0398,-0.1953 0.0408,-0.1952 0.0418,-0.1950 0.0429,-0.1948 0.0439,-0.1945 0.0449,-0.1943 0.0459,-0.1942 0.0469,-0.1942 0.0479,-0.1941 0.0490,-0.1940 0.0500,-0.1939 0.0510,-0.1938 0.0520,-0.1937 0.0530,-0.1937 0.0541,-0.1936 0.0551,-0.1935 0.0561,-0.1934 0.0571,-0.1933 0.0581,-0.1932 0.0591,-0.1930 0.0602,-0.1928 0.0612,-0.1927 0.0622,-0.1925 0.0632,-0.1924 0.0642,-0.1921 0.0652,-0.1919 0.0663,-0.1918 0.0673,-0.1918 0.0683,-0.1918 0.0693,-0.1932 0.0703,-0.1930 0.0714,-0.1927 0.0724,-0.1939 0.0734,-0.1938 0.0744,-0.1953 0.0754,-0.1964 0.0764,-0.1964 0.0775,-0.1965 0.0785,-0.1964 0.0795,-0.1963 0.0805,-0.1963 0.0815,-0.1968 0.0825,-0.1967 0.0836,-0.1967 0.0846,-0.1966 0.0856,-0.1971 0.0866,-0.1970 0.0876,-0.1970 0.0886,-0.1978 0.0897,-0.1973 0.0907,-0.1973 0.0917,-0.1972 0.0927,-0.1972 0.0937,-0.1972 0.0948,-0.1971 0.0958,-0.1971 0.0968,-0.1970 0.0978,-0.1970 0.0988,-0.1969 0.0998,-0.1969 0.1009,-0.1968 0.1019,-0.1967 0.1029,-0.1965 0.1039,-0.1964 0.1049,-0.1962 0.1059,-0.1961 0.1070,-0.1960 0.1080,-0.1958 0.1090,-0.1955 0.1100,-0.1954 0.1110,-0.1952 0.1121,-0.1968 0.1131,-0.1973 0.1141,-0.1973 0.1151,-0.1973 0.1161,-0.1972 0.1171,-0.1971 0.1182,-0.1971 0.1192,-0.1971 0.1202,-0.1973 0.1212,-0.1975 0.1222,-0.1975 0.1232,-0.1973 0.1243,-0.2006 0.1253,-0.2003 0.1263,-0.1998 0.1273,-0.1995 0.1283,-0.1991 0.1294,-0.1989 0.1304,-0.2022 0.1314,-0.2032 0.1324,-0.2031 0.1334,-0.2029 0.1344,-0.2044 0.1355,-0.2043 0.1365,-0.2042 0.1375,-0.2040 0.1385,-0.2040 0.1395,-0.2047 0.1405,-0.2047 0.1416,-0.2047 0.1426,-0.2046 0.1436,-0.2059 0.1446,-0.2063 0.1456,-0.2063 0.1466,-0.2065 0.1477,-0.2065 0.1487,-0.2069 0.1497,-0.2064 0.1507,-0.2064 0.1517,-0.2063 0.1528,-0.2062 0.1538,-0.2061 0.1548,-0.2059 0.1558,-0.2054 0.1568,-0.2054 0.1578,-0.2053 0.1589,-0.2051 0.1599,-0.2053 0.1609,-0.2052 0.1619,-0.2051 0.1629,-0.2050 0.1639,-0.2049 0.1650,-0.2048 0.1660,-0.2047 0.1670,-0.2047 0.1680,-0.2055 0.1690,-0.2053 0.1701,-0.2052 0.1711,-0.2049 0.1721,-0.2048 0.1731,-0.2048 0.1741,-0.2047 0.1751,-0.2067 0.1762,-0.2066 0.1772,-0.2065 0.1782,-0.2064 0.1792,-0.2074 0.1802,-0.2072 0.1812,-0.2071 0.1823,-0.2069 0.1833,-0.2067 0.1843,-0.2066 0.1853,-0.2065 0.1863,-0.2083 0.1873,-0.2083 0.1884,-0.2093 0.1894,-0.2092 0.1904,-0.2091 0.1914,-0.2090 0.1924,-0.2099 0.1935,-0.2098 0.1945,-0.2097 0.1955,-0.2134 0.1965,-0.2168 0.1975,-0.2168 0.1985,-0.2160 0.1996,-0.2167 0.2006,-0.2167 0.2016,-0.2166 0.2026,-0.2162 0.2036,-0.2161 0.2046,-0.2160 0.2057,-0.2159 0.2067,-0.2158 0.2077,-0.2157 0.2087,-0.2156 0.2097,-0.2155 0.2108,-0.2154 0.2118,-0.2164 0.2128,-0.2163 0.2138,-0.2162 0.2148,-0.2167 0.2158,-0.2167 0.2169,-0.2167 0.2179,-0.2167 0.2189,-0.2167 0.2199,-0.2167 0.2209,-0.2167 0.2219,-0.2166 0.2230,-0.2166 0.2240,-0.2161 0.2250,-0.2160 0.2260,-0.2159 0.2270,-0.2158 0.2281,-0.2157 0.2291,-0.2167 0.2301,-0.2167 0.2311,-0.2171 0.2321,-0.2168 0.2331,-0.2167 0.2342,-0.2167 0.2352,-0.2167 0.2362,-0.2167 0.2372,-0.2185 0.2382,-0.2184 0.2392,-0.2182 0.2403,-0.2176 0.2413,-0.2169 0.2423,-0.2167 0.2433,-0.2167 0.2443,-0.2167 0.2453,-0.2167 0.2464,-0.2167 0.2474,-0.2185 0.2484,-0.2183 0.2494,-0.2183 0.2504,-0.2181 0.2515,-0.2177 0.2525,-0.2168 0.2535,-0.2167 0.2545,-0.2167 0.2555,-0.2167 0.2565,-0.2167 0.2576,-0.2167 0.2586,-0.2168 0.2596,-0.2165 0.2606,-0.2165 0.2616,-0.2166 0.2626,-0.2165 0.2637,-0.2164 0.2647,-0.2163 0.2657,-0.2158 0.2667,-0.2157 0.2677,-0.2156 0.2688,-0.2155 0.2698,-0.2153 0.2708,-0.2152 0.2718,-0.2151 0.2728,-0.2150 0.2738,-0.2148 0.2749,-0.2147 0.2759,-0.2146 0.2769,-0.2144 0.2779,-0.2141 0.2789,-0.2138 0.2799,-0.2135 0.2810,-0.2133 0.2820,-0.2152 0.2830,-0.2150 0.2840,-0.2149 0.2850,-0.2161 0.2860,-0.2184 0.2871,-0.2182 0.2881,-0.2182 0.2891,-0.2180 0.2901,-0.2179 0.2911,-0.2174 0.2922,-0.2170 0.2932,-0.2189 0.2942,-0.2188 0.2952,-0.2193 0.2962,-0.2193 0.2972,-0.2193 0.2983,-0.2193 0.2993,-0.2203 0.3003,-0.2198 0.3013,-0.2194 0.3023,-0.2194 0.3033,-0.2194 0.3044,-0.2237 0.3054,-0.2235 0.3064,-0.2234 0.3074,-0.2234 0.3084,-0.2218 0.3095,-0.2205 0.3105,-0.2197 0.3115,-0.2194 0.3125,-0.2194 0.3135,-0.2238 0.3145,-0.2237 0.3156,-0.2236 0.3166,-0.2235 0.3176,-0.2234 0.3186,-0.2215 0.3196,-0.2203 0.3206,-0.2195 0.3217,-0.2194 0.3227,-0.2194 0.3237,-0.2194 0.3247,-0.2193 0.3257,-0.2193 0.3268,-0.2238 0.3278,-0.2236 0.3288,-0.2234 0.3298,-0.2208 0.3308,-0.2199 0.3318,-0.2194 0.3329,-0.2194 0.3339,-0.2194 0.3349,-0.2193 0.3359,-0.2193 0.3369,-0.2193 0.3379,-0.2192 0.3390,-0.2192 0.3400,-0.2192 0.3410,-0.2192 0.3420,-0.2184 0.3430,-0.2175 0.3440,-0.2169 0.3451,-0.2164 0.3461,-0.2162 0.3471,-0.2163 0.3481,-0.2160 0.3491,-0.2157 0.3502,-0.2154 0.3512,-0.2152 0.3522,-0.2192 0.3532,-0.2190 0.3542,-0.2182 0.3552,-0.2175 0.3563,-0.2171 0.3573,-0.2167 0.3583,-0.2163 0.3593,-0.2159 0.3603,-0.2155 0.3613,-0.2175 0.3624,-0.2174 0.3634,-0.2173 0.3644,-0.2168 0.3654,-0.2166 0.3664,-0.2163 0.3675,-0.2161 0.3685,-0.2159 0.3695,-0.2156 0.3705,-0.2154 0.3715,-0.2138 0.3725,-0.2138 0.3736,-0.2137 0.3746,-0.2137 0.3756,-0.2137 0.3766,-0.2137 0.3776,-0.2136 0.3786,-0.2136 0.3797,-0.2135 0.3807,-0.2135 0.3817,-0.2134 0.3827,-0.2133 0.3837,-0.2131 0.3847,-0.2125 0.3858,-0.2118 0.3868,-0.2113 0.3878,-0.2109 0.3888,-0.2105 0.3898,-0.2100 0.3909,-0.2099 0.3919,-0.2099 0.3929,-0.2098 0.3939,-0.2098 0.3949,-0.2098 0.3959,-0.2098 0.3970,-0.2098 0.3980,-0.2101 0.3990,-0.2100 0.4000,-0.2112 0.4010,-0.2110"/></g><g fill="none" stroke="rgb(70%, 10%, 30%)" stroke-opacity="0.5" stroke-width="0.0050"><polyline points="-0.6155,-0.2525 -0.6145,-0.2520 -0.6134,-0.2515 -0.6124,-0.2510 -0.6114,-0.2476 -0.6104,-0.2470 -0.6094,-0.2464 -0.6084,-0.2458 -0.6073,-0.2452 -0.6063,-0.2441 -0.6053,-0.2303 -0.6043,-0.2303 -0.6033,-0.2302 -0.6023,-0.2301 -0.6012,-0.2300 -0.6002,-0.2299 -0.5992,-0.2298 -0.5982,-0.2297 -0.5972,-0.2296 -0.5961,-0.2326 -0.5951,-0.2314 -0.5941,-0.2302 -0.5931,-0.2292 -0.5921,-0.2291 -0.5911,-0.2291 -0.5900,-0.2290 -0.5890,-0.2290 -0.5880,-0.2289 -0.5870,-0.2288 -0.5860,-0.2287 -0.5850,-0.2287 -0.5839,-0.2286 -0.5829,-0.2285 -0.5819,-0.2285 -0.5809,-0.2284 -0.5799,-0.2283 -0.5789,-0.2283 -0.5778,-0.2282 -0.5768,-0.2281 -0.5758,-0.2280 -0.5748,-0.2280 -0.5738,-0.2279 -0.5727,-0.2278 -0.5717,-0.2277 -0.5707,-0.2276 -0.5697,-0.2276 -0.5687,-0.2275 -0.5677,-0.2273 -0.5666,-0.2268 -0.5656,-0.2263 -0.5646,-0.2258 -0.5636,-0.2253 -0.5626,-0.2253 -0.5616,-0.2253 -0.5605,-0.2253 -0.5595,-0.2253 -0.5585,-0.2252 -0.5575,-0.2252 -0.5565,-0.2252 -0.5554,-0.2252 -0.5544,-0.2252 -0.5534,-0.2251 -0.5524,-0.2251 -0.5514,-0.2251 -0.5504,-0.2251 -0.5493,-0.2251 -0.5483,-0.2250 -0.5473,-0.2250 -0.5463,-0.2250 -0.5453,-0.2250 -0.5443,-0.2250 -0.5432,-0.2249 -0.5422,-0.2249 -0.5412,-0.2249 -0.5402,-0.2249 -0.5392,-0.2248 -0.5381,-0.2248 -0.5371,-0.2248 -0.5361,-0.2248 -0.5351,-0.2248 -0.5341,-0.2248 -0.5331,-0.2247 -0.5320,-0.2247 -0.5310,-0.2247 -0.5300,-0.2247 -0.5290,-0.2247 -0.5280,-0.2247 -0.5270,-0.2247 -0.5259,-0.2247 -0.5249,-0.2247 -0.5239,-0.2247 -0.5229,-0.2247 -0.5219,-0.2247 -0.5209,-0.2247 -0.5198,-0.2246 -0.5188,-0.2246 -0.5178,-0.2246 -0.5168,-0.2246 -0.5158,-0.2246 -0.5147,-0.2246 -0.5137,-0.2246 -0.5127,-0.2246 -0.5117,-0.2246 -0.5107,-0.2246 -0.5097,-0.2246 -0.5086,-0.2246 -0.5076,-0.2245 -0.5066,-0.2245 -0.5056,-0.2245 -0.5046,-0.2245 -0.5036,-0.2245 -0.5025,-0.2245 -0.5015,-0.2245 -0.5005,-0.2245 -0.4995,-0.2245 -0.4985,-0.2245 -0.4974,-0.2244 -0.4964,-0.2244 -0.4954,-0.2244 -0.4944,-0.2244 -0.4934,-0.2244 -0.4924,-0.2244 -0.4913,-0.2244 -0.4903,-0.2244 -0.4893,-0.2244 -0.4883,-0.2242 -0.4873,-0.2239 -0.4863,-0.2235 -0.4852,-0.2232 -0.4842,-0.2228 -0.4832,-0.2224 -0.4822,-0.2221 -0.4812,-0.2217 -0.4802,-0.2213 -0.4791,-0.2210 -0.4781,-0.2206 -0.4771,-0.2205 -0.4761,-0.2204 -0.4751,-0.2203 -0.4740,-0.2202 -0.4730,-0.2201 -0.4720,-0.2201 -0.4710,-0.2200 -0.4700,-0.2199 -0.4690,-0.2198 -0.4679,-0.2197 -0.4669,-0.2196 -0.4659,-0.2195 -0.4649,-0.2194 -0.4639,-0.2193 -0.4629,-0.2192 -0.4618,-0.2191 -0.4608,-0.2190 -0.4598,-0.2189 -0.4588,-0.2188 -0.4578,-0.2187 -0.4567,-0.2186 -0.4557,-0.2185 -0.4547,-0.2184 -0.4537,-0.2183 -0.4527,-0.2182 -0.4517,-0.2181 -0.4506,-0.2180 -0.4496,-0.2179 -0.4486,-0.2178 -0.4476,-0.2177 -0.4466,-0.2175 -0.4456,-0.2174 -0.4445,-0.2173 -0.4435,-0.2172 -0.4425,-0.2171 -0.4415,-0.2170 -0.4405,-0.2169 -0.4394,-0.2169 -0.4384,-0.2168 -0.4374,-0.2168 -0.4364,-0.2168 -0.4354,-0.2167 -0.4344,-0.2167 -0.4333,-0.2167 -0.4323,-0.2166 -0.4313,-0.2166 -0.4303,-0.2165 -0.4293,-0.2165 -0.4283,-0.2165 -0.4272,-0.2164 -0.4262,-0.2164 -0.4252,-0.2163 -0.4242,-0.2162 -0.4232,-0.2150 -0.4222,-0.2138 -0.4211,-0.2126 -0.4201,-0.2117 -0.4191,-0.2112 -0.4181,-0.2107 -0.4171,-0.2102 -0.4160,-0.2097 -0.4150,-0.2092 -0.4140,-0.2087 -0.4130,-0.2082 -0.4120,-0.2079 -0.4110,-0.2078 -0.4099,-0.2077 -0.4089,-0.2077 -0.4079,-0.2076 -0.4069,-0.2075 -0.4059,-0.2074 -0.4049,-0.2074 -0.4038,-0.2073 -0.4028,-0.2072 -0.4018,-0.2071 -0.4008,-0.2070 -0.3998,-0.2069 -0.3987,-0.2069 -0.3977,-0.2071 -0.3967,-0.2071 -0.3957,-0.2071 -0.3947,-0.2071 -0.3937,-0.2071 -0.3926,-0.2071 -0.3916,-0.2071 -0.3906,-0.2071 -0.3896,-0.2070 -0.3886,-0.2070 -0.3876,-0.2070 -0.3865,-0.2070 -0.3855,-0.2070 -0.3845,-0.2070 -0.3835,-0.2070 -0.3825,-0.2069 -0.3814,-0.2069 -0.3804,-0.2069 -0.3794,-0.2899 -0.3784,-0.2898 -0.3774,-0.2898 -0.3764,-0.2898 -0.3753,-0.2897 -0.3743,-0.2859 -0.3733,-0.3001 -0.3723,-0.2986 -0.3713,-0.2985 -0.3703,-0.3615 -0.3692,-0.3054 -0.3682,-0.3457 -0.3672,-0.3454 -0.3662,-0.3451 -0.3652,-0.3449 -0.3642,-0.3446 -0.3631,-0.4211 -0.3621,-0.4211 -0.3611,-0.4210 -0.3601,-0.4210 -0.3591,-0.4209 -0.3580,-0.4209 -0.3570,-0.4209 -0.3560,-0.4208 -0.3550,-0.4208 -0.3540,-0.4207 -0.3530,-0.4207 -0.3519,-0.4206 -0.3509,-0.4206 -0.3499,-0.4205 -0.3489,-0.4205 -0.3479,-0.4204 -0.3469,-0.4204 -0.3458,-0.4203 -0.3448,-0.4203 -0.3438,-0.4202 -0.3428,-0.4201 -0.3418,-0.4201 -0.3407,-0.4200 -0.3397,-0.4200 -0.3387,-0.4199 -0.3377,-0.4199 -0.3367,-0.4198 -0.3357,-0.4198 -0.3346,-0.4197 -0.3336,-0.4196 -0.3326,-0.4196 -0.3316,-0.4195 -0.3306,-0.4195 -0.3296,-0.4194 -0.3285,-0.4193 -0.3275,-0.4193 -0.3265,-0.4192 -0.3255,-0.4191 -0.3245,-0.4191 -0.3235,-0.4190 -0.3224,-0.4190 -0.3214,-0.4189 -0.3204,-0.4188 -0.3194,-0.4187 -0.3184,-0.4187 -0.3173,-0.4186 -0.3163,-0.4185 -0.3153,-0.4185 -0.3143,-0.4184 -0.3133,-0.4183 -0.3123,-0.4183 -0.3112,-0.4182 -0.3102,-0.4181 -0.3092,-0.4180 -0.3082,-0.4180 -0.3072,-0.4179 -0.3062,-0.4178 -0.3051,-0.4177 -0.3041,-0.4163 -0.3031,-0.4127 -0.3021,-0.4090 -0.3011,-0.4054 -0.3000,-0.4016 -0.2990,-0.3979 -0.2980,-0.3941 -0.2970,-0.3902 -0.2960,-0.3876 -0.2950,-0.3865 -0.2939,-0.3853 -0.2929,-0.3841 -0.2919,-0.3829 -0.2909,-0.3817 -0.2899,-0.3805 -0.2889,-0.3792 -0.2878,-0.3780 -0.2868,-0.3767 -0.2858,-0.3755 -0.2848,-0.3742 -0.2838,-0.3729 -0.2827,-0.3716 -0.2817,-0.3702 -0.2807,-0.3689 -0.2797,-0.3676 -0.2787,-0.3662 -0.2777,-0.3648 -0.2766,-0.3634 -0.2756,-0.3620 -0.2746,-0.3606 -0.2736,-0.3600 -0.2726,-0.3596 -0.2716,-0.3592 -0.2705,-0.3588 -0.2695,-0.3585 -0.2685,-0.3581 -0.2675,-0.3577 -0.2665,-0.3573 -0.2655,-0.3569 -0.2644,-0.3565 -0.2634,-0.3560 -0.2624,-0.3556 -0.2614,-0.3552 -0.2604,-0.3548 -0.2593,-0.3544 -0.2583,-0.3539 -0.2573,-0.3535 -0.2563,-0.3530 -0.2553,-0.3526 -0.2543,-0.3521 -0.2532,-0.3517 -0.2522,-0.3512 -0.2512,-0.3508 -0.2502,-0.3410 -0.2492,-0.3409 -0.2482,-0.3408 -0.2471,-0.3406 -0.2461,-0.3405 -0.2451,-0.3404 -0.2441,-0.3451 -0.2431,-0.3443 -0.2420,-0.3436 -0.2410,-0.3428 -0.2400,-0.3420 -0.2390,-0.3412 -0.2380,-0.3404 -0.2370,-0.3396 -0.2359,-0.3392 -0.2349,-0.3389 -0.2339,-0.3386 -0.2329,-0.3383 -0.2319,-0.3380 -0.2309,-0.3377 -0.2298,-0.3374 -0.2288,-0.3371 -0.2278,-0.3368 -0.2268,-0.3365 -0.2258,-0.3362 -0.2248,-0.3359 -0.2237,-0.3356 -0.2227,-0.3353 -0.2217,-0.3349 -0.2207,-0.3345 -0.2197,-0.3341 -0.2186,-0.3336 -0.2176,-0.3332 -0.2166,-0.3327 -0.2156,-0.3323 -0.2146,-0.3318 -0.2136,-0.3313 -0.2125,-0.3309 -0.2115,-0.3304 -0.2105,-0.3299 -0.2095,-0.3294 -0.2085,-0.3289 -0.2075,-0.3284 -0.2064,-0.3279 -0.2054,-0.3265 -0.2044,-0.3250 -0.2034,-0.3234 -0.2024,-0.3218 -0.2013,-0.3202 -0.2003,-0.3186 -0.1993,-0.3170 -0.1983,-0.3153 -0.1973,-0.3137 -0.1963,-0.3126 -0.1952,-0.3116 -0.1942,-0.3106 -0.1932,-0.3096 -0.1922,-0.3086 -0.1912,-0.3075 -0.1902,-0.3065 -0.1891,-0.3062 -0.1881,-0.3051 -0.1871,-0.3040 -0.1861,-0.3030 -0.1851,-0.3019 -0.1840,-0.3008 -0.1830,-0.2997 -0.1820,-0.2986 -0.1810,-0.2966 -0.1800,-0.2945 -0.1790,-0.2935 -0.1779,-0.2931 -0.1769,-0.2928 -0.1759,-0.2924 -0.1749,-0.2920 -0.1739,-0.2916 -0.1729,-0.2912 -0.1718,-0.2908 -0.1708,-0.2904 -0.1698,-0.2900 -0.1688,-0.2895 -0.1678,-0.2891 -0.1668,-0.2887 -0.1657,-0.2883 -0.1647,-0.2870 -0.1637,-0.2851 -0.1627,-0.2833 -0.1617,-0.2813 -0.1606,-0.2794 -0.1596,-0.2775 -0.1586,-0.2755 -0.1576,-0.2735 -0.1566,-0.2718 -0.1556,-0.2711 -0.1545,-0.2705 -0.1535,-0.2698 -0.1525,-0.2691 -0.1515,-0.2685 -0.1505,-0.2678 -0.1495,-0.2671 -0.1484,-0.2664 -0.1474,-0.2657 -0.1464,-0.2650 -0.1454,-0.2643 -0.1444,-0.2636 -0.1433,-0.2632 -0.1423,-0.2621 -0.1413,-0.2614 -0.1403,-0.2606 -0.1393,-0.2603 -0.1383,-0.2601 -0.1372,-0.2599 -0.1362,-0.2597 -0.1352,-0.2594 -0.1342,-0.2592 -0.1332,-0.2590 -0.1322,-0.2587 -0.1311,-0.2585 -0.1301,-0.2582 -0.1291,-0.2580 -0.1281,-0.2577 -0.1271,-0.2575 -0.1260,-0.2575 -0.1250,-0.2572 -0.1240,-0.2567 -0.1230,-0.2558 -0.1220,-0.2543 -0.1210,-0.2527 -0.1199,-0.2511 -0.1189,-0.2495 -0.1179,-0.2478 -0.1169,-0.2467 -0.1159,-0.2463 -0.1149,-0.2458 -0.1138,-0.2453 -0.1128,-0.2449 -0.1118,-0.2444 -0.1108,-0.2439 -0.1098,-0.2435 -0.1088,-0.2430 -0.1077,-0.2425 -0.1067,-0.2420 -0.1057,-0.2415 -0.1047,-0.2410 -0.1037,-0.2405 -0.1026,-0.2403 -0.1016,-0.2402 -0.1006,-0.2401 -0.0996,-0.2401 -0.0986,-0.2400 -0.0976,-0.2400 -0.0965,-0.2399 -0.0955,-0.2399 -0.0945,-0.2398 -0.0935,-0.2397 -0.0925,-0.2397 -0.0915,-0.2396 -0.0904,-0.2395 -0.0894,-0.2394 -0.0884,-0.2391 -0.0874,-0.2387 -0.0864,-0.2383 -0.0853,-0.2380 -0.0843,-0.2376 -0.0833,-0.2372 -0.0823,-0.2368 -0.0813,-0.2365 -0.0803,-0.2361 -0.0792,-0.2357 -0.0782,-0.2353 -0.0772,-0.2352 -0.0762,-0.2350 -0.0752,-0.2349 -0.0742,-0.2347 -0.0731,-0.2345 -0.0721,-0.2344 -0.0711,-0.2342 -0.0701,-0.2340 -0.0691,-0.2339 -0.0681,-0.2337 -0.0670,-0.2335 -0.0660,-0.2334 -0.0650,-0.2332 -0.0640,-0.2330 -0.0630,-0.2328 -0.0619,-0.2326 -0.0609,-0.2325 -0.0599,-0.2323 -0.0589,-0.2321 -0.0579,-0.2319 -0.0569,-0.2317 -0.0558,-0.2315 -0.0548,-0.2314 -0.0538,-0.2314 -0.0528,-0.2313 -0.0518,-0.2313 -0.0508,-0.2312 -0.0497,-0.2312 -0.0487,-0.2312 -0.0477,-0.2311 -0.0467,-0.2311 -0.0457,-0.2310 -0.0446,-0.2310 -0.0436,-0.2309 -0.0426,-0.2309 -0.0416,-0.2308 -0.0406,-0.2308 -0.0396,-0.2307 -0.0385,-0.2307 -0.0375,-0.2306 -0.0365,-0.2306 -0.0355,-0.2305 -0.0345,-0.2305 -0.0335,-0.2304 -0.0324,-0.2304 -0.0314,-0.2303 -0.0304,-0.2303 -0.0294,-0.2302 -0.0284,-0.2301 -0.0273,-0.2299 -0.0263,-0.2296 -0.0253,-0.2293 -0.0243,-0.2289 -0.0233,-0.2286 -0.0223,-0.2283 -0.0212,-0.2280 -0.0202,-0.2279 -0.0192,-0.2278 -0.0182,-0.2277 -0.0172,-0.2276 -0.0162,-0.2274 -0.0151,-0.2274 -0.0141,-0.2273 -0.0131,-0.2272 -0.0121,-0.2271 -0.0111,-0.2270 -0.0101,-0.2269 -0.0090,-0.2268 -0.0080,-0.2267 -0.0070,-0.2267 -0.0060,-0.2262 -0.0050,-0.2249 -0.0039,-0.2239 -0.0029,-0.2235 -0.0019,-0.2231 -0.0009,-0.2227 0.0001,-0.2223 0.0011,-0.2219 0.0022,-0.2215 0.0032,-0.2211 0.0042,-0.2206 0.0052,-0.2204 0.0062,-0.2203 0.0072,-0.2202 0.0083,-0.2201 0.0093,-0.2200 0.0103,-0.2199 0.0113,-0.2198 0.0123,-0.2197 0.0134,-0.2196 0.0144,-0.2195 0.0154,-0.2194 0.0164,-0.2193 0.0174,-0.2192 0.0184,-0.2191 0.0195,-0.2191 0.0205,-0.2190 0.0215,-0.2189 0.0225,-0.2189 0.0235,-0.2188 0.0245,-0.2188 0.0256,-0.2187 0.0266,-0.2186 0.0276,-0.2186 0.0286,-0.2185 0.0296,-0.2184 0.0306,-0.2184 0.0317,-0.2183 0.0327,-0.2182 0.0337,-0.2182 0.0347,-0.2181 0.0357,-0.2180 0.0368,-0.2179 0.0378,-0.2179 0.0388,-0.2178 0.0398,-0.2177 0.0408,-0.2176 0.0418,-0.2175 0.0429,-0.2174 0.0439,-0.2174 0.0449,-0.2173 0.0459,-0.2172 0.0469,-0.2171 0.0479,-0.2170 0.0490,-0.2157 0.0500,-0.2155 0.0510,-0.2154 0.0520,-0.2153 0.0530,-0.2151 0.0541,-0.2150 0.0551,-0.2149 0.0561,-0.2147 0.0571,-0.2146 0.0581,-0.2145 0.0591,-0.2143 0.0602,-0.2141 0.0612,-0.2140 0.0622,-0.2138 0.0632,-0.2136 0.0642,-0.2130 0.0652,-0.2127 0.0663,-0.2127 0.0673,-0.2127 0.0683,-0.2127 0.0693,-0.2127 0.0703,-0.2127 0.0714,-0.2127 0.0724,-0.2127 0.0734,-0.2127 0.0744,-0.2126 0.0754,-0.2230 0.0764,-0.2230 0.0775,-0.2229 0.0785,-0.2229 0.0795,-0.2229 0.0805,-0.2229 0.0815,-0.2228 0.0825,-0.2228 0.0836,-0.2228 0.0846,-0.2227 0.0856,-0.2227 0.0866,-0.2227 0.0876,-0.2226 0.0886,-0.2226 0.0897,-0.2226 0.0907,-0.2225 0.0917,-0.2225 0.0927,-0.2225 0.0937,-0.2224 0.0948,-0.2224 0.0958,-0.2224 0.0968,-0.2223 0.0978,-0.2223 0.0988,-0.2223 0.0998,-0.2223 0.1009,-0.2222 0.1019,-0.2218 0.1029,-0.2217 0.1039,-0.2222 0.1049,-0.2221 0.1059,-0.2221 0.1070,-0.2213 0.1080,-0.2212 0.1090,-0.2211 0.1100,-0.2210 0.1110,-0.2209 0.1121,-0.2323 0.1131,-0.2323 0.1141,-0.2323 0.1151,-0.2322 0.1161,-0.2322 0.1171,-0.2322 0.1182,-0.2322 0.1192,-0.2322 0.1202,-0.2322 0.1212,-0.2322 0.1222,-0.2322 0.1232,-0.2322 0.1243,-0.2321 0.1253,-0.2321 0.1263,-0.2321 0.1273,-0.2318 0.1283,-0.2314 0.1294,-0.2311 0.1304,-0.2307 0.1314,-0.2308 0.1324,-0.2305 0.1334,-0.2302 0.1344,-0.2299 0.1355,-0.2296 0.1365,-0.2293 0.1375,-0.2293 0.1385,-0.2293 0.1395,-0.2360 0.1405,-0.2359 0.1416,-0.2359 0.1426,-0.2358 0.1436,-0.2358 0.1446,-0.2351 0.1456,-0.2350 0.1466,-0.2349 0.1477,-0.2348 0.1487,-0.2347 0.1497,-0.2346 0.1507,-0.2344 0.1517,-0.2343 0.1528,-0.2342 0.1538,-0.2341 0.1548,-0.2340 0.1558,-0.2338 0.1568,-0.2337 0.1578,-0.2336 0.1589,-0.2334 0.1599,-0.2333 0.1609,-0.2332 0.1619,-0.2330 0.1629,-0.2330 0.1639,-0.2329 0.1650,-0.2329 0.1660,-0.2329 0.1670,-0.2329 0.1680,-0.2329 0.1690,-0.2329 0.1701,-0.2328 0.1711,-0.2328 0.1721,-0.2328 0.1731,-0.2328 0.1741,-0.2328 0.1751,-0.2341 0.1762,-0.2341 0.1772,-0.2341 0.1782,-0.2341 0.1792,-0.2450 0.1802,-0.2449 0.1812,-0.2449 0.1823,-0.2448 0.1833,-0.2447 0.1843,-0.2446 0.1853,-0.2426 0.1863,-0.2401 0.1873,-0.2387 0.1884,-0.2387 0.1894,-0.2386 0.1904,-0.2386 0.1914,-0.2385 0.1924,-0.2385 0.1935,-0.2384 0.1945,-0.2384 0.1955,-0.2383 0.1965,-0.2383 0.1975,-0.2382 0.1985,-0.2382 0.1996,-0.2381 0.2006,-0.2381 0.2016,-0.2380 0.2026,-0.2380 0.2036,-0.2379 0.2046,-0.2378 0.2057,-0.2378 0.2067,-0.2377 0.2077,-0.2377 0.2087,-0.2376 0.2097,-0.2375 0.2108,-0.2375 0.2118,-0.2374 0.2128,-0.2374 0.2138,-0.2373 0.2148,-0.2497 0.2158,-0.2497 0.2169,-0.2497 0.2179,-0.2497 0.2189,-0.2496 0.2199,-0.2496 0.2209,-0.2496 0.2219,-0.2496 0.2230,-0.2495 0.2240,-0.2495 0.2250,-0.2495 0.2260,-0.2495 0.2270,-0.2494 0.2281,-0.2494 0.2291,-0.2494 0.2301,-0.2493 0.2311,-0.2492 0.2321,-0.2492 0.2331,-0.2491 0.2342,-0.2490 0.2352,-0.2489 0.2362,-0.2488 0.2372,-0.2487 0.2382,-0.2486 0.2392,-0.2485 0.2403,-0.2485 0.2413,-0.2484 0.2423,-0.2483 0.2433,-0.2482 0.2443,-0.2481 0.2453,-0.2480 0.2464,-0.2479 0.2474,-0.2478 0.2484,-0.2477 0.2494,-0.2476 0.2504,-0.2475 0.2515,-0.2474 0.2525,-0.2473 0.2535,-0.2472 0.2545,-0.2471 0.2555,-0.2470 0.2565,-0.2469 0.2576,-0.2468 0.2586,-0.2467 0.2596,-0.2466 0.2606,-0.2465 0.2616,-0.2463 0.2626,-0.2462 0.2637,-0.2461 0.2647,-0.2460 0.2657,-0.2459 0.2667,-0.2458 0.2677,-0.2457 0.2688,-0.2455 0.2698,-0.2454 0.2708,-0.2453 0.2718,-0.2452 0.2728,-0.2451 0.2738,-0.2450 0.2749,-0.2449 0.2759,-0.2448 0.2769,-0.2447 0.2779,-0.2446 0.2789,-0.2445 0.2799,-0.2444 0.2810,-0.2443 0.2820,-0.2442 0.2830,-0.2441 0.2840,-0.2440 0.2850,-0.2439 0.2860,-0.2505 0.2871,-0.2505 0.2881,-0.2505 0.2891,-0.2505 0.2901,-0.2505 0.2911,-0.2504 0.2922,-0.2504 0.2932,-0.2504 0.2942,-0.2504 0.2952,-0.2504 0.2962,-0.2503 0.2972,-0.2503 0.2983,-0.2503 0.2993,-0.2503 0.3003,-0.2502 0.3013,-0.2502 0.3023,-0.2502 0.3033,-0.2502 0.3044,-0.2501 0.3054,-0.2501 0.3064,-0.2501 0.3074,-0.2501 0.3084,-0.2500 0.3095,-0.2500 0.3105,-0.2500 0.3115,-0.2500 0.3125,-0.2499 0.3135,-0.2864 0.3145,-0.2851 0.3156,-0.2825 0.3166,-0.2798 0.3176,-0.2771 0.3186,-0.2744 0.3196,-0.2717 0.3206,-0.2689 0.3217,-0.2661 0.3227,-0.2633 0.3237,-0.2605 0.3247,-0.2576 0.3257,-0.2547 0.3268,-0.2522 0.3278,-0.2522 0.3288,-0.2522 0.3298,-0.2522 0.3308,-0.2522 0.3318,-0.2522 0.3329,-0.2521 0.3339,-0.2521 0.3349,-0.2521 0.3359,-0.2521 0.3369,-0.2521 0.3379,-0.2521 0.3390,-0.2521 0.3400,-0.2520 0.3410,-0.2520 0.3420,-0.2520 0.3430,-0.2520 0.3440,-0.2520 0.3451,-0.2520 0.3461,-0.2520 0.3471,-0.2519 0.3481,-0.2519 0.3491,-0.2519 0.3502,-0.2519 0.3512,-0.2519 0.3522,-0.2519 0.3532,-0.2518 0.3542,-0.2518 0.3552,-0.2518 0.3563,-0.2518 0.3573,-0.2518 0.3583,-0.2518 0.3593,-0.2517 0.3603,-0.2517 0.3613,-0.2517 0.3624,-0.2517 0.3634,-0.2517 0.3644,-0.2516 0.3654,-0.2516 0.3664,-0.2516 0.3675,-0.2516 0.3685,-0.2516 0.3695,-0.2515 0.3705,-0.2515 0.3715,-0.2515 0.3725,-0.2515 0.3736,-0.2515 0.3746,-0.2514 0.3756,-0.2514 0.3766,-0.2514 0.3776,-0.2514 0.3786,-0.2514 0.3797,-0.2513 0.3807,-0.2513 0.3817,-0.2513 0.3827,-0.2513 0.3837,-0.2513 0.3847,-0.2512 0.3858,-0.2512 0.3868,-0.2512 0.3878,-0.2512 0.3888,-0.2511 0.3898,-0.2511 0.3909,-0.2511 0.3919,-0.2511 0.3929,-0.2510 0.3939,-0.2510 0.3949,-0.2510 0.3959,-0.2510 0.3970,-0.2509 0.3980,-0.2509 0.3990,-0.2509 0.4000,-0.2509 0.4010,-0.2509"/></g></g><g class="hud"><g class="frame"><g fill="rgb(100%, 100%, 100%)" fill-opacity="0.02" stroke="rgb(0%, 0%, 0%)" stroke-opacity="0" stroke-width="0"><rect height="0.7218" width="1.0199" x="-0.6172" y="-0.4522"/></g></g><g class="axis"><g class="ticks"><g class="tickglyph"><g fill="rgb(5%, 5%, 5%)" fill-opacity="0.4" stroke="rgb(5%, 5%, 5%)" stroke-opacity="0.4" stroke-width="0.0040"><g transform="rotate(-90.0, -0.6375, 0.2697)"><polyline points="-0.6375,0.2847
-0.6375,0.2547"/></g><g transform="rotate(-90.0, -0.6375, 0.1253)"><polyline points="-0.6375,0.1403
-0.6375,0.1103"/></g><g transform="rotate(-90.0, -0.6375, -0.0191)"><polyline points="-0.6375,-0.0041
-0.6375,-0.0341"/></g><g transform="rotate(-90.0, -0.6375, -0.1634)"><polyline points="-0.6375,-0.1484
-0.6375,-0.1784"/></g><g transform="rotate(-90.0, -0.6375, -0.3078)"><polyline points="-0.6375,-0.2928
-0.6375,-0.3228"/></g><g transform="rotate(-90.0, -0.6375, -0.4522)"><polyline points="-0.6375,-0.4372
-0.6375,-0.4672"/></g></g></g><g class="ticktext"><g fill="rgb(5%, 5%, 5%)" fill-opacity="1.0" font-size="0.0339" stroke="none" stroke-width="0.0" text-anchor="end"><text x="-0.6619" y="0.2796">-15%</text><text x="-0.6619" y="0.1352">-10%</text><text x="-0.6619" y="-0.0092"> -5%</text><text x="-0.6619" y="-0.1535">  0%</text><text x="-0.6619" y="-0.2979">  5%</text><text x="-0.6619" y="-0.4423"> 10%</text></g></g><g class="ticklines"><g fill="none" stroke="rgb(5%, 5%, 5%)" stroke-opacity="0.05" stroke-width="0.0050"><polyline points="-0.6155,0.2697 0.4010,0.2697"/><polyline points="-0.6155,0.1253 0.4010,0.1253"/><polyline points="-0.6155,-0.0191 0.4010,-0.0191"/><polyline points="-0.6155,-0.1634 0.4010,-0.1634"/><polyline points="-0.6155,-0.3078 0.4010,-0.3078"/><polyline points="-0.6155,-0.4522 0.4010,-0.4522"/></g></g></g><g class="axisbar"><g fill="rgb(5%, 5%, 5%)" fill-opacity="0.4" stroke="rgb(0%, 0%, 0%)" stroke-opacity="0" stroke-width="0"><rect height="0.7247" width="0.0027" x="-0.6267" y="-0.4536"/></g></g></g><g class="axis"><g class="ticks"><g class="tickglyph"><g fill="rgb(5%, 5%, 5%)" fill-opacity="0.4" stroke="rgb(5%, 5%, 5%)" stroke-opacity="0.4" stroke-width="0.0040"><polyline points="-0.5416,0.3063
-0.5416,0.2763"/><polyline points="-0.3953,0.3063
-0.3953,0.2763"/><polyline points="-0.2506,0.3063
-0.2506,0.2763"/><polyline points="-0.1043,0.3063
-0.1043,0.2763"/><polyline points="0.0396,0.3063
0.0396,0.2763"/><polyline points="0.1858,0.3063
0.1858,0.2763"/><polyline points="0.3297,0.3063
0.3297,0.2763"/><polyline points="0.4760,0.3063
0.4760,0.2763"/></g></g><g class="ticktext"><g fill="rgb(5%, 5%, 5%)" fill-opacity="1.0" font-size="0.0339" stroke="none" stroke-width="0.0" text-anchor="end"><text transform="rotate(-45.0, -0.5416, 0.3371)" x="-0.5416" y="0.3371">30 Jun 2019</text><text transform="rotate(-45.0, -0.3953, 0.3371)" x="-0.3953" y="0.3371">31 Dec 2019</text><text transform="rotate(-45.0, -0.2506, 0.3371)" x="-0.2506" y="0.3371">30 Jun 2020</text><text transform="rotate(-45.0, -0.1043, 0.3371)" x="-0.1043" y="0.3371">31 Dec 2020</text><text transform="rotate(-45.0, 0.0396, 0.3371)" x="0.0396" y="0.3371">30 Jun 2021</text><text transform="rotate(-45.0, 0.1858, 0.3371)" x="0.1858" y="0.3371">31 Dec 2021</text><text transform="rotate(-45.0, 0.3297, 0.3371)" x="0.3297" y="0.3371">30 Jun 2022</text><text transform="rotate(-45.0, 0.4760, 0.3371)" x="0.4760" y="0.3371">31 Dec 2022</text></g></g><g class="ticklines"><g fill="none" stroke="rgb(5%, 5%, 5%)" stroke-opacity="0.05" stroke-width="0.0050"><polyline points="-0.5416,0.2697 -0.5416,-0.4522"/><polyline points="-0.3953,0.2697 -0.3953,-0.4522"/><polyline points="-0.2506,0.2697 -0.2506,-0.4522"/><polyline points="-0.1043,0.2697 -0.1043,-0.4522"/><polyline points="0.0396,0.2697 0.0396,-0.4522"/><polyline points="0.1858,0.2697 0.1858,-0.4522"/><polyline points="0.3297,0.2697 0.3297,-0.4522"/><polyline points="0.4760,0.2697 0.4760,-0.4522"/></g></g></g><g class="axisbar"><g fill="rgb(5%, 5%, 5%)" fill-opacity="0.4" stroke="rgb(0%, 0%, 0%)" stroke-opacity="0" stroke-width="0"><rect height="0.0029" width="1.0192" x="-0.6168" y="0.2769"/></g></g></g><g class="legend"><g class="legendBorder"><g fill="rgb(5%, 5%, 5%)" fill-opacity="0" stroke="rgb(5%, 5%, 5%)" stroke-opacity="1.0" stroke-width="0.0025"><rect height="0.2436" width="0.2025" x="0.5170" y="-0.1976"/></g></g><g class="legendContent"><g fill="rgb(5%, 5%, 5%)" fill-opacity="1.0" font-size="0.0169" stroke="none" stroke-width="0.0" text-anchor="start"><text x="0.5509" y="0.0045">99%</text></g><g fill="none" stroke="rgb(70%, 10%, 30%)" stroke-opacity="0.5" stroke-width="0.0050"><polyline points="0.5823,0 0.6839,0"/></g><g fill="rgb(5%, 5%, 5%)" fill-opacity="1.0" font-size="0.0169" stroke="none" stroke-width="0.0" text-anchor="start"><text x="0.5509" y="-0.0334">90%</text></g><g fill="none" stroke="rgb(21%, 48%, -28%)" stroke-opacity="0.75" stroke-width="0.0050"><polyline points="0.5823,-0.0379 0.6839,-0.0379"/></g><g fill="rgb(5%, 5%, 5%)" fill-opacity="1.0" font-size="0.0169" stroke="none" stroke-width="0.0" text-anchor="start"><text x="0.5509" y="-0.0713">50%</text></g><g fill="none" stroke="rgb(10%, 40%, 80%)" stroke-opacity="1.0" stroke-width="0.0050"><polyline points="0.5823,-0.0758 0.6839,-0.0758"/></g><g fill="rgb(5%, 5%, 5%)" fill-opacity="1.0" font-size="0.0169" stroke="none" stroke-width="0.0" text-anchor="start"><text x="0.5509" y="-0.1092">10%</text></g><g fill="none" stroke="rgb(21%, 48%, -28%)" stroke-opacity="0.75" stroke-width="0.0050"><polyline points="0.5823,-0.1137 0.6839,-0.1137"/></g><g fill="rgb(5%, 5%, 5%)" fill-opacity="1.0" font-size="0.0169" stroke="none" stroke-width="0.0" text-anchor="start"><text x="0.5509" y="-0.1471">1%</text></g><g fill="none" stroke="rgb(70%, 10%, 30%)" stroke-opacity="0.5" stroke-width="0.0050"><polyline points="0.5823,-0.1516 0.6839,-0.1516"/></g></g></g><g class="frame"><g fill="rgb(100%, 100%, 100%)" fill-opacity="0.02" stroke="rgb(0%, 0%, 0%)" stroke-opacity="0" stroke-width="0"><rect height="1.0" width="1.5" x="-0.75" y="-0.5"/></g></g></g></svg>