<svg height="600" viewBox="-0.75 -0.5 1.5 1.0" width="900" xmlns="http://www.w3.org/2000/svg" xmlns:xlink="http://www.w3.org/1999/xlink"><style>svg {
  color-scheme: light dark;
}
{
  .canvas g, .title g, .axisbar g, .ticktext g, .tickglyph g, .ticklines g, .legendContent g text {
    fill: rgb(5%, 5%, 5%);
  }
  .ticklines g, .tickglyph g, .legendBorder g {
    stroke: rgb(5%, 5%, 5%);
  }
  .legendBorder g {
    fill: rgb(94%, 94%, 94%);
  }
}
@media (prefers-color-scheme:dark) {
  .canvas g, .title g, .axisbar g, .ticktext g, .tickglyph g, .ticklines g, .legendContent g text {
    fill: rgb(94%, 94%, 94%);
  }
  .ticklines g, .tickglyph g, .legendBorder g {
    stroke: rgb(94%, 94%, 94%);
  }
  .legendBorder g {
    fill: rgb(5%, 5%, 5%);
  }
}</style><g class="chart"><g fill="none" stroke="rgb(70%, 10%, 30%)" stroke-opacity="0.5" stroke-width="0.0050"><polyline points="-0.6079,-0.0723 -0.6068,-0.0724 -0.6057,-0.0725 -0.6046,-0.0726 -0.6036,-0.0727 -0.6025,-0.0728 -0.6014,-0.0730 -0.6003,-0.0731 -0.5993,-0.0732 -0.5982,-0.0733 -0.5971,-0.0735 -0.5960,-0.0736 -0.5950,-0.0737 -0.5939,-0.0739 -0.5928,-0.0740 -0.5917,-0.0741 -0.5907,-0.0742 -0.5896,-0.0744 -0.5885,-0.0745 -0.5874,-0.0747 -0.5864,-0.0748 -0.5853,-0.0806 -0.5842,-0.0808 -0.5831,-0.0810 -0.5821,-0.0812 -0.5810,-0.0815 -0.5799,-0.0817 -0.5788,-0.0819 -0.5778,-0.0822 -0.5767,-0.0824 -0.5756,-0.0826 -0.5745,-0.0829 -0.5735,-0.0831 -0.5724,-0.0834 -0.5713,-0.0836 -0.5702,-0.0839 -0.5692,-0.0841 -0.5681,-0.0844 -0.5670,-0.0846 -0.5659,-0.0849 -0.5649,-0.0852 -0.5638,-0.0854 -0.5627,-0.0857 -0.5616,-0.0860 -0.5606,-0.0862 -0.5595,-0.0865 -0.5584,-0.0867 -0.5573,-0.0869 -0.5562,-0.0871 -0.5552,-0.0872 -0.5541,-0.0874 -0.5530,-0.0876 -0.5519,-0.0879 -0.5509,-0.0881 -0.5498,-0.0883 -0.5487,-0.0884 -0.5476,-0.0888 -0.5466,-0.0890 -0.5455,-0.0894 -0.5444,-0.0899 -0.5433,-0.0902 -0.5423,-0.0903 -0.5412,-0.0903 -0.5401,-0.0903 -0.5390,-0.0904 -0.5380,-0.0904 -0.5369,-0.0905 -0.5358,-0.0905 -0.5347,-0.0906 -0.5337,-0.0906 -0.5326,-0.0906 -0.5315,-0.0907 -0.5304,-0.0908 -0.5294,-0.0908 -0.5283,-0.0908 -0.5272,-0.0909 -0.5261,-0.0909 -0.5251,-0.0909 -0.5240,-0.0910 -0.5229,-0.0911 -0.5218,-0.0911 -0.5208,-0.0912 -0.5197,-0.0912 -0.5186,-0.0913 -0.5175,-0.0913 -0.5165,-0.0914 -0.5154,-0.0914 -0.5143,-0.0915 -0.5132,-0.0756 -0.5122,-0.0756 -0.5111,-0.0756 -0.5100,-0.0756 -0.5089,-0.0757 -0.5079,-0.0757 -0.5068,-0.0757 -0.5057,-0.0757 -0.5046,-0.0757 -0.5036,-0.0758 -0.5025,-0.0758 -0.5014,-0.0758 -0.5003,-0.0758 -0.4993,-0.0759 -0.4982,-0.0759 -0.4971,-0.0759 -0.4960,-0.0759 -0.4950,-0.0760 -0.4939,-0.0760 -0.4928,-0.0760 -0.4917,-0.0760 -0.4907,-0.0761 -0.4896,-0.0761 -0.4885,-0.0761 -0.4874,-0.0761 -0.4864,-0.0762 -0.4853,-0.0762 -0.4842,-0.0762 -0.4831,-0.0763 -0.4821,-0.0763 -0.4810,-0.0763 -0.4799,-0.0763 -0.4788,-0.0764 -0.4778,-0.0764 -0.4767,-0.0764 -0.4756,-0.0765 -0.4745,-0.0765 -0.4735,-0.0765 -0.4724,-0.0766 -0.4713,-0.0766 -0.4702,-0.0767 -0.4692,-0.0767 -0.4681,-0.0768 -0.4670,-0.0768 -0.4659,-0.0769 -0.4649,-0.0769 -0.4638,-0.0770 -0.4627,-0.0770 -0.4616,-0.0771 -0.4606,-0.0771 -0.4595,-0.0772 -0.4584,-0.0772 -0.4573,-0.0773 -0.4563,-0.0774 -0.4552,-0.0774 -0.4541,-0.0775 -0.4530,-0.0776 -0.4520,-0.0776 -0.4509,-0.0777 -0.4498,-0.0778 -0.4487,-0.0779 -0.4477,-0.0779 -0.4466,-0.0780 -0.4455,-0.0781 -0.4444,-0.0782 -0.4434,-0.0782 -0.4423,-0.0783 -0.4412,-0.0784 -0.4401,-0.0785 -0.4391,-0.0785 -0.4380,-0.0786 -0.4369,-0.0787 -0.4358,-0.0788 -0.4348,-0.0789 -0.4337,-0.0790 -0.4326,-0.0790 -0.4315,-0.0791 -0.4305,-0.0792 -0.4294,-0.0793 -0.4283,-0.0794 -0.4272,-0.0795 -0.4262,-0.0796 -0.4251,-0.0797 -0.4240,-0.0797 -0.4229,-0.0798 -0.4219,-0.0799 -0.4208,-0.0800 -0.4197,-0.0801 -0.4186,-0.0802 -0.4176,-0.0803 -0.4165,-0.0804 -0.4154,-0.0805 -0.4143,-0.0806 -0.4132,-0.0807 -0.4122,-0.0808 -0.4111,-0.0815 -0.4100,-0.0825 -0.4089,-0.0835 -0.4079,-0.0844 -0.4068,-0.0854 -0.4057,-0.0859 -0.4046,-0.0859 -0.4036,-0.0860 -0.4025,-0.0861 -0.4014,-0.0862 -0.4003,-0.0862 -0.3993,-0.0863 -0.3982,-0.0864 -0.3971,-0.0865 -0.3960,-0.0866 -0.3950,-0.0866 -0.3939,-0.0867 -0.3928,-0.0868 -0.3917,-0.0869 -0.3907,-0.0870 -0.3896,-0.0870 -0.3885,-0.0871 -0.3874,-0.0872 -0.3864,-0.0873 -0.3853,-0.0874 -0.3842,-0.0875 -0.3831,-0.0876 -0.3821,-0.0877 -0.3810,-0.0878 -0.3799,-0.0879 -0.3788,-0.0879 -0.3778,-0.0881 -0.3767,-0.0882 -0.3756,-0.0883 -0.3745,-0.0884 -0.3735,-0.0885 -0.3724,-0.0886 -0.3713,-0.0887 -0.3702,-0.0888 -0.3692,-0.0889 -0.3681,-0.0890 -0.3670,-0.0891 -0.3659,-0.0893 -0.3649,-0.0894 -0.3638,-0.0667 -0.3627,-0.0667 -0.3616,-0.0671 -0.3606,-0.0378 -0.3595,-0.0522 -0.3584,-0.0539 -0.3573,-0.0541 -0.3563,-0.0542 -0.3552,-0.0536 -0.3541,-0.0538 -0.3530,0.0502 -0.3520,0.0009 -0.3509,0.0078 -0.3498,0.1159 -0.3487,0.0853 -0.3477,0.1651 -0.3466,0.1646 -0.3455,0.1641 -0.3444,0.1636 -0.3434,0.1631 -0.3423,0.1625 -0.3412,0.1620 -0.3401,0.1615 -0.3391,0.1609 -0.3380,0.1604 -0.3369,0.1598 -0.3358,0.1593 -0.3348,0.1587 -0.3337,0.1581 -0.3326,0.1575 -0.3315,0.1570 -0.3305,0.1564 -0.3294,0.1558 -0.3283,0.1552 -0.3272,0.1546 -0.3262,0.1539 -0.3251,0.1533 -0.3240,0.1527 -0.3229,0.1521 -0.3219,0.1514 -0.3208,0.1508 -0.3197,0.1501 -0.3186,0.1495 -0.3176,0.1488 -0.3165,0.1481 -0.3154,0.1474 -0.3143,0.1468 -0.3133,0.1461 -0.3122,0.1454 -0.3111,0.1447 -0.3100,0.1439 -0.3090,0.1432 -0.3079,0.1425 -0.3068,0.1418 -0.3057,0.1410 -0.3047,0.1403 -0.3036,0.1395 -0.3025,0.1387 -0.3014,0.1380 -0.3004,0.1372 -0.2993,0.1364 -0.2982,0.1356 -0.2971,0.1348 -0.2961,0.1340 -0.2950,0.1332 -0.2939,0.1323 -0.2928,0.1315 -0.2918,0.1306 -0.2907,0.1298 -0.2896,0.1289 -0.2885,0.1280 -0.2875,0.1272 -0.2864,0.1263 -0.2853,0.1254 -0.2842,0.1245 -0.2832,0.1235 -0.2821,0.1226 -0.2810,0.1217 -0.2799,0.1207 -0.2789,0.1198 -0.2778,0.1188 -0.2767,0.1178 -0.2756,0.1168 -0.2746,0.0856 -0.2735,0.0849 -0.2724,0.0841 -0.2713,0.0834 -0.2702,0.0826 -0.2692,0.0818 -0.2681,0.0810 -0.2670,0.0802 -0.2659,0.0794 -0.2649,0.0786 -0.2638,0.0778 -0.2627,0.0770 -0.2616,0.0762 -0.2606,0.0753 -0.2595,0.0745 -0.2584,0.0736 -0.2573,0.0727 -0.2563,0.0719 -0.2552,0.0710 -0.2541,0.0701 -0.2530,0.0692 -0.2520,0.0683 -0.2509,0.0673 -0.2498,0.0664 -0.2487,0.0655 -0.2477,0.0645 -0.2466,0.0636 -0.2455,0.0626 -0.2444,0.0616 -0.2434,0.0606 -0.2423,0.0596 -0.2412,0.0586 -0.2401,0.0576 -0.2391,0.0566 -0.2380,0.0555 -0.2369,0.0545 -0.2358,0.0534 -0.2348,0.0523 -0.2337,0.0513 -0.2326,0.0272 -0.2315,0.0264 -0.2305,0.0257 -0.2294,0.0249 -0.2283,0.0241 -0.2272,0.0233 -0.2262,0.0225 -0.2251,0.0217 -0.2240,0.0209 -0.2229,0.0201 -0.2219,0.0193 -0.2208,0.0184 -0.2197,0.0176 -0.2186,0.0167 -0.2176,0.0158 -0.2165,0.0152 -0.2154,0.0149 -0.2143,0.0145 -0.2133,0.0141 -0.2122,0.0138 -0.2111,0.0134 -0.2100,0.0130 -0.2090,0.0126 -0.2079,0.0123 -0.2068,0.0119 -0.2057,0.0115 -0.2047,0.0111 -0.2036,0.0107 -0.2025,0.0103 -0.2014,0.0099 -0.2004,0.0095 -0.1993,0.0091 -0.1982,0.0087 -0.1971,0.0082 -0.1961,0.0078 -0.1950,0.0074 -0.1939,0.0070 -0.1928,0.0065 -0.1918,0.0061 -0.1907,0.0056 -0.1896,0.0052 -0.1885,0.0047 -0.1875,0.0043 -0.1864,0.0038 -0.1853,0.0033 -0.1842,0.0028 -0.1832,0.0024 -0.1821,0.0019 -0.1810,0.0014 -0.1799,0.0008 -0.1789,0.0001 -0.1778,-0.0007 -0.1767,-0.0014 -0.1756,-0.0022 -0.1746,-0.0029 -0.1735,-0.0037 -0.1724,-0.0045 -0.1713,-0.0052 -0.1703,-0.0060 -0.1692,-0.0068 -0.1681,-0.0076 -0.1670,-0.0085 -0.1660,-0.0093 -0.1649,-0.0101 -0.1638,-0.0110 -0.1627,-0.0118 -0.1617,-0.0127 -0.1606,-0.0135 -0.1595,-0.0143 -0.1584,-0.0147 -0.1574,-0.0151 -0.1563,-0.0155 -0.1552,-0.0160 -0.1541,-0.0164 -0.1531,-0.0168 -0.1520,-0.0172 -0.1509,-0.0177 -0.1498,-0.0181 -0.1488,-0.0185 -0.1477,-0.0190 -0.1466,-0.0194 -0.1455,-0.0199 -0.1445,-0.0203 -0.1434,-0.0244 -0.1423,-0.0276 -0.1412,-0.0280 -0.1402,-0.0284 -0.1391,-0.0288 -0.1380,-0.0292 -0.1369,-0.0296 -0.1359,-0.0301 -0.1348,-0.0305 -0.1337,-0.0309 -0.1326,-0.0313 -0.1316,-0.0318 -0.1305,-0.0322 -0.1294,-0.0327 -0.1283,-0.0330 -0.1272,-0.0330 -0.1262,-0.0331 -0.1251,-0.0331 -0.1240,-0.0331 -0.1229,-0.0331 -0.1219,-0.0331 -0.1208,-0.0331 -0.1197,-0.0331 -0.1186,-0.0331 -0.1176,-0.0331 -0.1165,-0.0331 -0.1154,-0.0331 -0.1143,-0.0331 -0.1133,-0.0334 -0.1122,-0.0343 -0.1111,-0.0353 -0.1100,-0.0362 -0.1090,-0.0363 -0.1079,-0.0372 -0.1068,-0.0394 -0.1057,-0.0416 -0.1047,-0.0438 -0.1036,-0.0461 -0.1025,-0.0475 -0.1014,-0.0482 -0.1004,-0.0490 -0.0993,-0.0498 -0.0982,-0.0506 -0.0971,-0.0514 -0.0961,-0.0522 -0.0950,-0.0530 -0.0939,-0.0538 -0.0928,-0.0547 -0.0918,-0.0555 -0.0907,-0.0563 -0.0896,-0.0572 -0.0885,-0.0581 -0.0875,-0.0588 -0.0864,-0.0588 -0.0853,-0.0588 -0.0842,-0.0589 -0.0832,-0.0589 -0.0821,-0.0589 -0.0810,-0.0590 -0.0799,-0.0590 -0.0789,-0.0590 -0.0778,-0.0590 -0.0767,-0.0591 -0.0756,-0.0591 -0.0746,-0.0591 -0.0735,-0.0592 -0.0724,-0.0592 -0.0713,-0.0592 -0.0703,-0.0593 -0.0692,-0.0593 -0.0681,-0.0593 -0.0670,-0.0594 -0.0660,-0.0594 -0.0649,-0.0594 -0.0638,-0.0595 -0.0627,-0.0595 -0.0617,-0.0595 -0.0606,-0.0596 -0.0595,-0.0596 -0.0584,-0.0597 -0.0574,-0.0597 -0.0563,-0.0597 -0.0552,-0.0598 -0.0541,-0.0598 -0.0531,-0.0598 -0.0520,-0.0599 -0.0509,-0.0599 -0.0498,-0.0600 -0.0488,-0.0602 -0.0477,-0.0603 -0.0466,-0.0605 -0.0455,-0.0607 -0.0445,-0.0608 -0.0434,-0.0610 -0.0423,-0.0612 -0.0412,-0.0614 -0.0402,-0.0616 -0.0391,-0.0618 -0.0380,-0.0619 -0.0369,-0.0621 -0.0359,-0.0622 -0.0348,-0.0626 -0.0337,-0.0635 -0.0326,-0.0642 -0.0316,-0.0646 -0.0305,-0.0650 -0.0294,-0.0653 -0.0283,-0.0656 -0.0273,-0.0659 -0.0262,-0.0662 -0.0251,-0.0665 -0.0240,-0.0668 -0.0230,-0.0638 -0.0219,-0.0640 -0.0208,-0.0641 -0.0197,-0.0690 -0.0187,-0.0697 -0.0176,-0.0704 -0.0165,-0.0711 -0.0154,-0.0718 -0.0144,-0.0725 -0.0133,-0.0733 -0.0122,-0.0740 -0.0111,-0.0748 -0.0101,-0.0755 -0.0090,-0.0761 -0.0079,-0.0768 -0.0068,-0.0775 -0.0058,-0.0784 -0.0047,-0.0793 -0.0036,-0.0795 -0.0025,-0.0797 -0.0015,-0.0799 -0.0004,-0.0800 0.0007,-0.0802 0.0018,-0.0804 0.0028,-0.0806 0.0039,-0.0808 0.0050,-0.0809 0.0061,-0.0811 0.0071,-0.0813 0.0082,-0.0815 0.0093,-0.0817 0.0104,-0.0821 0.0114,-0.0825 0.0125,-0.0829 0.0136,-0.0831 0.0147,-0.0835 0.0158,-0.0840 0.0168,-0.0824 0.0179,-0.0825 0.0190,-0.0826 0.0201,-0.0827 0.0211,-0.0828 0.0222,-0.0829 0.0233,-0.0830 0.0244,-0.0863 0.0254,-0.0880 0.0265,-0.0880 0.0276,-0.0880 0.0287,-0.0881 0.0297,-0.0881 0.0308,-0.0881 0.0319,-0.0882 0.0330,-0.0882 0.0340,-0.0882 0.0351,-0.0883 0.0362,-0.0883 0.0373,-0.0883 0.0383,-0.0884 0.0394,-0.0885 0.0405,-0.0887 0.0416,-0.0888 0.0426,-0.0889 0.0437,-0.0891 0.0448,-0.0892 0.0459,-0.0893 0.0469,-0.0895 0.0480,-0.0896 0.0491,-0.0897 0.0502,-0.0899 0.0512,-0.0900 0.0523,-0.0901 0.0534,-0.0902 0.0545,-0.0904 0.0555,-0.0905 0.0566,-0.0906 0.0577,-0.0907 0.0588,-0.0908 0.0598,-0.0910 0.0609,-0.0911 0.0620,-0.0912 0.0631,-0.0916 0.0641,-0.0917 0.0652,-0.0917 0.0663,-0.0917 0.0674,-0.0918 0.0684,-0.0919 0.0695,-0.0919 0.0706,-0.0920 0.0717,-0.0920 0.0727,-0.0920 0.0738,-0.0921 0.0749,-0.0921 0.0760,-0.0921 0.0770,-0.0922 0.0781,-0.0922 0.0792,-0.0923 0.0803,-0.0923 0.0813,-0.0924 0.0824,-0.0924 0.0835,-0.0928 0.0846,-0.0931 0.0856,-0.0935 0.0867,-0.0943 0.0878,-0.0952 0.0889,-0.0961 0.0899,-0.0970 0.0910,-0.0976 0.0921,-0.0978 0.0932,-0.0981 0.0942,-0.0983 0.0953,-0.0986 0.0964,-0.0988 0.0975,-0.0991 0.0985,-0.0993 0.0996,-0.0996 0.1007,-0.0998 0.1018,-0.1001 0.1028,-0.1003 0.1039,-0.1006 0.1050,-0.1009 0.1061,-0.1011 0.1071,-0.1013 0.1082,-0.1014 0.1093,-0.1015 0.1104,-0.1016 0.1114,-0.1017 0.1125,-0.1018 0.1136,-0.1019 0.1147,-0.0961 0.1157,-0.0962 0.1168,-0.0962 0.1179,-0.0962 0.1190,-0.0962 0.1200,-0.0962 0.1211,-0.0963 0.1222,-0.0963 0.1233,-0.0963 0.1243,-0.0963 0.1254,-0.0964 0.1265,-0.0964 0.1276,-0.0964 0.1286,-0.0965 0.1297,-0.0965 0.1308,-0.0965 0.1319,-0.0965 0.1329,-0.0966 0.1340,-0.0966 0.1351,-0.0966 0.1362,-0.0966 0.1372,-0.0967 0.1383,-0.0967 0.1394,-0.0967 0.1405,-0.0968 0.1415,-0.0968 0.1426,-0.0968 0.1437,-0.0968 0.1448,-0.0969 0.1458,-0.0969 0.1469,-0.0969 0.1480,-0.0970 0.1491,-0.0970 0.1501,-0.0970 0.1512,-0.0971 0.1523,-0.0971 0.1534,-0.0971 0.1545,-0.0972 0.1555,-0.0972 0.1566,-0.0972 0.1577,-0.0973 0.1588,-0.0973 0.1598,-0.0973 0.1609,-0.0974 0.1620,-0.0974 0.1631,-0.0974 0.1641,-0.0975 0.1652,-0.0923 0.1663,-0.0923 0.1674,-0.0923 0.1684,-0.0923 0.1695,-0.0923 0.1706,-0.0923 0.1717,-0.0923 0.1727,-0.0923 0.1738,-0.0927 0.1749,-0.0928 0.1760,-0.0928 0.1770,-0.0928 0.1781,-0.0928 0.1792,-0.0928 0.1803,-0.0928 0.1813,-0.0928 0.1824,-0.0929 0.1835,-0.0929 0.1846,-0.0929 0.1856,-0.0929 0.1867,-0.0929 0.1878,-0.0791 0.1889,-0.0791 0.1899,-0.0792 0.1910,-0.0792 0.1921,-0.0792 0.1932,-0.0793 0.1942,-0.0793 0.1953,-0.0793 0.1964,-0.0793 0.1975,-0.0794 0.1985,-0.0794 0.1996,-0.0794 0.2007,-0.0795 0.2018,-0.0795 0.2028,-0.0795 0.2039,-0.0808 0.2050,-0.0833 0.2061,-0.0859 0.2071,-0.0878 0.2082,-0.0898 0.2093,-0.0902 0.2104,-0.0904 0.2114,-0.0905 0.2125,-0.0907 0.2136,-0.0908 0.2147,-0.0910 0.2157,-0.0911 0.2168,-0.0913 0.2179,-0.0915 0.2190,-0.0916 0.2200,-0.0917 0.2211,-0.0919 0.2222,-0.0920 0.2233,-0.0823 0.2243,-0.0823 0.2254,-0.0797 0.2265,-0.0797 0.2276,-0.0797 0.2286,-0.0578 0.2297,-0.0579 0.2308,-0.0580 0.2319,-0.0581 0.2329,-0.0571 0.2340,-0.0574 0.2351,-0.0575 0.2362,-0.0575 0.2372,-0.0576 0.2383,-0.0576 0.2394,-0.0577 0.2405,-0.0577 0.2415,-0.0578 0.2426,-0.0458 0.2437,-0.0458 0.2448,-0.0458 0.2458,-0.0458 0.2469,-0.0549 0.2480,-0.0549 0.2491,-0.0549 0.2501,-0.0549 0.2512,-0.0550 0.2523,-0.0550 0.2534,-0.0550 0.2544,-0.0551 0.2555,-0.0551 0.2566,-0.0551 0.2577,-0.0552 0.2587,-0.0552 0.2598,-0.0552 0.2609,-0.0480 0.2620,-0.0482 0.2630,-0.0483 0.2641,-0.0484 0.2652,-0.0484 0.2663,-0.0484 0.2673,-0.0485 0.2684,-0.0485 0.2695,-0.0485 0.2706,-0.0486 0.2716,-0.0486 0.2727,-0.0486 0.2738,-0.0487 0.2749,-0.0487 0.2759,-0.0488 0.2770,-0.0488 0.2781,-0.0488 0.2792,-0.0489 0.2802,-0.0489 0.2813,-0.0490 0.2824,-0.0490 0.2835,-0.0490 0.2845,-0.0491 0.2856,-0.0491 0.2867,-0.0492 0.2878,-0.0492 0.2888,-0.0492 0.2899,-0.0493 0.2910,-0.0493 0.2921,-0.0494 0.2931,-0.0494 0.2942,-0.0495 0.2953,-0.0495 0.2964,-0.0496 0.2975,-0.0496 0.2985,-0.0496 0.2996,-0.0497 0.3007,-0.0497 0.3018,-0.0498 0.3028,-0.0498 0.3039,-0.0499 0.3050,-0.0499 0.3061,-0.0500 0.3071,-0.0500 0.3082,-0.0501 0.3093,-0.0501 0.3104,-0.0502 0.3114,-0.0502 0.3125,-0.0503 0.3136,-0.0503 0.3147,-0.0504 0.3157,-0.0505 0.3168,-0.0505 0.3179,-0.0506 0.3190,-0.0506 0.3200,-0.0507 0.3211,-0.0507 0.3222,-0.0508 0.3233,-0.0509 0.3243,-0.0509 0.3254,-0.0510 0.3265,-0.0510 0.3276,-0.0511 0.3286,-0.0360 0.3297,-0.0360 0.3308,-0.0401 0.3319,-0.0404 0.3329,-0.0405 0.3340,-0.0407 0.3351,-0.0408 0.3362,-0.0409 0.3372,-0.0411 0.3383,-0.0412 0.3394,-0.0413 0.3405,-0.0415 0.3415,-0.0416 0.3426,-0.0418 0.3437,-0.0419 0.3448,-0.0421 0.3458,-0.0422 0.3469,-0.0424 0.3480,-0.0425 0.3491,-0.0427 0.3501,-0.0428 0.3512,-0.0430 0.3523,-0.0431 0.3534,-0.0433 0.3544,-0.0434 0.3555,-0.0436 0.3566,-0.0438 0.3577,-0.0439 0.3587,-0.0441 0.3598,-0.0443 0.3609,-0.0444 0.3620,-0.0446 0.3630,-0.0448 0.3641,-0.0450 0.3652,-0.0451 0.3663,-0.0453 0.3673,-0.0455 0.3684,-0.0457 0.3695,-0.0459 0.3706,-0.0464 0.3716,-0.0468 0.3727,-0.0474 0.3738,-0.0479 0.3749,-0.0483 0.3759,-0.0484 0.3770,-0.0485 0.3781,-0.0486 0.3792,-0.0487 0.3802,-0.0488 0.3813,-0.0489 0.3824,-0.0490 0.3835,-0.0491 0.3845,-0.0492 0.3856,-0.0493 0.3867,-0.0494 0.3878,-0.0495 0.3888,-0.0496 0.3899,-0.0498 0.3910,-0.0499 0.3921,-0.0500 0.3931,-0.0501 0.3942,-0.0502 0.3953,-0.0503 0.3964,-0.0504 0.3974,-0.0506 0.3985,-0.0507 0.3996,-0.0508 0.4007,-0.0509 0.4017,-0.0510 0.4028,-0.0549 0.4039,-0.0550 0.4050,-0.0551 0.4060,-0.0553 0.4071,-0.0554 0.4082,-0.0555 0.4093,-0.0557 0.4103,-0.0558 0.4114,-0.0559 0.4125,-0.0561 0.4136,-0.0562 0.4146,-0.0563 0.4157,-0.0565 0.4168,-0.0566 0.4179,-0.0568 0.4189,-0.0569 0.4200,-0.0571 0.4211,-0.0572 0.4222,-0.0574 0.4232,-0.0578 0.4243,-0.0581 0.4254,-0.0584 0.4265,-0.0586 0.4275,-0.0589 0.4286,-0.0591 0.4297,-0.0593 0.4308,-0.0596 0.4318,-0.0598 0.4329,-0.0601 0.4340,-0.0603 0.4351,-0.0606 0.4361,-0.0608 0.4372,-0.0611 0.4383,-0.0613 0.4394,-0.0616 0.4405,-0.0617 0.4415,-0.0618 0.4426,-0.0620 0.4437,-0.0621 0.4448,-0.0623 0.4458,-0.0624 0.4469,-0.0626 0.4480,-0.0627 0.4491,-0.0629 0.4501,-0.0630 0.4512,-0.0632 0.4523,-0.0633 0.4534,-0.0635 0.4544,-0.0636 0.4555,-0.0638 0.4566,-0.0639 0.4577,-0.0641 0.4587,-0.0643 0.4598,-0.0644 0.4609,-0.0646 0.4620,-0.0647 0.4630,-0.0648 0.4641,-0.0649 0.4652,-0.0651 0.4663,-0.0652"/></g><g fill="none" stroke="rgb(21%, 48%, -28%)" stroke-opacity="0.75" stroke-width="0.0050"><polyline points="-0.6079,-0.1275 -0.6068,-0.1283 -0.6057,-0.1291 -0.6046,-0.1298 -0.6036,-0.1303 -0.6025,-0.1310 -0.6014,-0.1318 -0.6003,-0.1326 -0.5993,-0.1333 -0.5982,-0.1341 -0.5971,-0.1349 -0.5960,-0.1345 -0.5950,-0.1353 -0.5939,-0.1360 -0.5928,-0.1367 -0.5917,-0.1374 -0.5907,-0.1384 -0.5896,-0.1391 -0.5885,-0.1399 -0.5874,-0.1400 -0.5864,-0.1401 -0.5853,-0.1401 -0.5842,-0.1402 -0.5831,-0.1403 -0.5821,-0.1403 -0.5810,-0.1404 -0.5799,-0.1394 -0.5788,-0.1399 -0.5778,-0.1400 -0.5767,-0.1401 -0.5756,-0.1347 -0.5745,-0.1356 -0.5735,-0.1365 -0.5724,-0.1374 -0.5713,-0.1383 -0.5702,-0.1393 -0.5692,-0.1399 -0.5681,-0.1400 -0.5670,-0.1342 -0.5659,-0.1349 -0.5649,-0.1355 -0.5638,-0.1360 -0.5627,-0.1367 -0.5616,-0.1316 -0.5606,-0.1320 -0.5595,-0.1325 -0.5584,-0.1329 -0.5573,-0.1335 -0.5562,-0.1342 -0.5552,-0.1350 -0.5541,-0.1358 -0.5530,-0.1363 -0.5519,-0.1371 -0.5509,-0.1377 -0.5498,-0.1379 -0.5487,-0.1381 -0.5476,-0.1382 -0.5466,-0.1384 -0.5455,-0.1386 -0.5444,-0.1388 -0.5433,-0.1369 -0.5423,-0.1372 -0.5412,-0.1375 -0.5401,-0.1377 -0.5390,-0.1379 -0.5380,-0.1380 -0.5369,-0.1382 -0.5358,-0.1383 -0.5347,-0.1385 -0.5337,-0.1387 -0.5326,-0.1388 -0.5315,-0.1390 -0.5304,-0.1391 -0.5294,-0.1393 -0.5283,-0.1393 -0.5272,-0.1394 -0.5261,-0.1395 -0.5251,-0.1399 -0.5240,-0.1398 -0.5229,-0.1399 -0.5218,-0.1401 -0.5208,-0.1401 -0.5197,-0.1402 -0.5186,-0.1403 -0.5175,-0.1404 -0.5165,-0.1392 -0.5154,-0.1389 -0.5143,-0.1390 -0.5132,-0.1366 -0.5122,-0.1366 -0.5111,-0.1366 -0.5100,-0.1367 -0.5089,-0.1367 -0.5079,-0.1363 -0.5068,-0.1364 -0.5057,-0.1340 -0.5046,-0.1343 -0.5036,-0.1346 -0.5025,-0.1351 -0.5014,-0.1354 -0.5003,-0.1358 -0.4993,-0.1361 -0.4982,-0.1329 -0.4971,-0.1328 -0.4960,-0.1333 -0.4950,-0.1336 -0.4939,-0.1340 -0.4928,-0.1346 -0.4917,-0.1349 -0.4907,-0.1353 -0.4896,-0.1358 -0.4885,-0.1363 -0.4874,-0.1364 -0.4864,-0.1365 -0.4853,-0.1366 -0.4842,-0.1368 -0.4831,-0.1369 -0.4821,-0.1370 -0.4810,-0.1372 -0.4799,-0.1373 -0.4788,-0.1374 -0.4778,-0.1376 -0.4767,-0.1378 -0.4756,-0.1378 -0.4745,-0.1379 -0.4735,-0.1381 -0.4724,-0.1382 -0.4713,-0.1383 -0.4702,-0.1371 -0.4692,-0.1350 -0.4681,-0.1359 -0.4670,-0.1363 -0.4659,-0.1365 -0.4649,-0.1310 -0.4638,-0.1315 -0.4627,-0.1320 -0.4616,-0.1324 -0.4606,-0.1329 -0.4595,-0.1334 -0.4584,-0.1339 -0.4573,-0.1343 -0.4563,-0.1346 -0.4552,-0.1349 -0.4541,-0.1352 -0.4530,-0.1356 -0.4520,-0.1360 -0.4509,-0.1363 -0.4498,-0.1367 -0.4487,-0.1371 -0.4477,-0.1375 -0.4466,-0.1378 -0.4455,-0.1379 -0.4444,-0.1381 -0.4434,-0.1383 -0.4423,-0.1384 -0.4412,-0.1386 -0.4401,-0.1388 -0.4391,-0.1389 -0.4380,-0.1391 -0.4369,-0.1393 -0.4358,-0.1395 -0.4348,-0.1396 -0.4337,-0.1398 -0.4326,-0.1400 -0.4315,-0.1402 -0.4305,-0.1403 -0.4294,-0.1406 -0.4283,-0.1408 -0.4272,-0.1409 -0.4262,-0.1410 -0.4251,-0.1412 -0.4240,-0.1395 -0.4229,-0.1399 -0.4219,-0.1400 -0.4208,-0.1401 -0.4197,-0.1401 -0.4186,-0.1402 -0.4176,-0.1401 -0.4165,-0.1402 -0.4154,-0.1403 -0.4143,-0.1404 -0.4132,-0.1405 -0.4122,-0.1406 -0.4111,-0.1407 -0.4100,-0.1417 -0.4089,-0.1427 -0.4079,-0.1428 -0.4068,-0.1429 -0.4057,-0.1430 -0.4046,-0.1432 -0.4036,-0.1433 -0.4025,-0.1434 -0.4014,-0.1436 -0.4003,-0.1428 -0.3993,-0.1429 -0.3982,-0.1430 -0.3971,-0.1432 -0.3960,-0.1433 -0.3950,-0.1435 -0.3939,-0.1436 -0.3928,-0.1438 -0.3917,-0.1439 -0.3907,-0.1440 -0.3896,-0.1440 -0.3885,-0.1440 -0.3874,-0.1441 -0.3864,-0.1441 -0.3853,-0.1432 -0.3842,-0.1426 -0.3831,-0.1426 -0.3821,-0.1427 -0.3810,-0.1427 -0.3799,-0.1403 -0.3788,-0.1405 -0.3778,-0.1414 -0.3767,-0.1423 -0.3756,-0.1424 -0.3745,-0.1425 -0.3735,-0.1425 -0.3724,-0.1426 -0.3713,-0.1427 -0.3702,-0.1428 -0.3692,-0.1430 -0.3681,-0.1430 -0.3670,-0.1431 -0.3659,-0.1432 -0.3649,-0.1423 -0.3638,-0.1388 -0.3627,-0.1378 -0.3616,-0.1378 -0.3606,-0.1370 -0.3595,-0.1373 -0.3584,-0.1374 -0.3573,-0.1322 -0.3563,-0.1323 -0.3552,-0.1315 -0.3541,-0.1218 -0.3530,-0.1171 -0.3520,-0.1173 -0.3509,-0.1137 -0.3498,-0.1122 -0.3487,-0.1127 -0.3477,-0.0984 -0.3466,-0.1117 -0.3455,-0.0839 -0.3444,-0.0841 -0.3434,-0.0804 -0.3423,-0.0782 -0.3412,-0.0784 -0.3401,-0.0786 -0.3391,-0.0788 -0.3380,-0.0768 -0.3369,-0.0771 -0.3358,-0.0773 -0.3348,-0.0722 -0.3337,-0.0727 -0.3326,-0.0735 -0.3315,-0.0739 -0.3305,-0.0749 -0.3294,-0.0752 -0.3283,-0.0758 -0.3272,-0.0763 -0.3262,-0.0766 -0.3251,-0.0774 -0.3240,-0.0777 -0.3229,-0.0779 -0.3219,-0.0782 -0.3208,-0.0749 -0.3197,-0.0752 -0.3186,-0.0754 -0.3176,-0.0762 -0.3165,-0.0769 -0.3154,-0.0772 -0.3143,-0.0774 -0.3133,-0.0776 -0.3122,-0.0784 -0.3111,-0.0786 -0.3100,-0.0785 -0.3090,-0.0788 -0.3079,-0.0791 -0.3068,-0.0794 -0.3057,-0.0797 -0.3047,-0.0803 -0.3036,-0.0807 -0.3025,-0.0805 -0.3014,-0.0807 -0.3004,-0.0810 -0.2993,-0.0839 -0.2982,-0.0846 -0.2971,-0.0853 -0.2961,-0.0859 -0.2950,-0.0866 -0.2939,-0.0904 -0.2928,-0.0963 -0.2918,-0.0968 -0.2907,-0.0972 -0.2896,-0.0977 -0.2885,-0.0982 -0.2875,-0.0973 -0.2864,-0.0980 -0.2853,-0.0986 -0.2842,-0.0989 -0.2832,-0.0997 -0.2821,-0.0826 -0.2810,-0.0847 -0.2799,-0.0871 -0.2789,-0.0894 -0.2778,-0.0919 -0.2767,-0.0937 -0.2756,-0.0951 -0.2746,-0.0965 -0.2735,-0.0985 -0.2724,-0.0884 -0.2713,-0.0888 -0.2702,-0.0893 -0.2692,-0.0897 -0.2681,-0.0901 -0.2670,-0.0907 -0.2659,-0.0912 -0.2649,-0.0918 -0.2638,-0.0923 -0.2627,-0.0929 -0.2616,-0.0934 -0.2606,-0.0940 -0.2595,-0.0945 -0.2584,-0.0950 -0.2573,-0.0956 -0.2563,-0.0962 -0.2552,-0.0975 -0.2541,-0.0985 -0.2530,-0.0996 -0.2520,-0.1006 -0.2509,-0.1032 -0.2498,-0.1039 -0.2487,-0.1029 -0.2477,-0.1034 -0.2466,-0.1037 -0.2455,-0.1043 -0.2444,-0.1049 -0.2434,-0.1054 -0.2423,-0.1060 -0.2412,-0.1066 -0.2401,-0.1072 -0.2391,-0.1076 -0.2380,-0.1080 -0.2369,-0.1096 -0.2358,-0.1099 -0.2348,-0.1102 -0.2337,-0.1106 -0.2326,-0.1110 -0.2315,-0.1114 -0.2305,-0.1118 -0.2294,-0.1121 -0.2283,-0.1124 -0.2272,-0.1125 -0.2262,-0.1125 -0.2251,-0.1126 -0.2240,-0.1127 -0.2229,-0.1127 -0.2219,-0.1128 -0.2208,-0.1129 -0.2197,-0.1129 -0.2186,-0.1111 -0.2176,-0.1115 -0.2165,-0.1059 -0.2154,-0.1075 -0.2143,-0.1075 -0.2133,-0.1082 -0.2122,-0.1088 -0.2111,-0.1124 -0.2100,-0.1119 -0.2090,-0.1129 -0.2079,-0.1101 -0.2068,-0.1105 -0.2057,-0.1125 -0.2047,-0.1092 -0.2036,-0.1117 -0.2025,-0.1118 -0.2014,-0.1118 -0.2004,-0.1119 -0.1993,-0.1120 -0.1982,-0.1121 -0.1971,-0.1121 -0.1961,-0.1122 -0.1950,-0.1122 -0.1939,-0.1123 -0.1928,-0.1124 -0.1918,-0.1126 -0.1907,-0.1131 -0.1896,-0.1136 -0.1885,-0.1141 -0.1875,-0.1146 -0.1864,-0.1151 -0.1853,-0.1143 -0.1842,-0.1146 -0.1832,-0.1147 -0.1821,-0.1150 -0.1810,-0.1152 -0.1799,-0.1124 -0.1789,-0.1126 -0.1778,-0.1118 -0.1767,-0.1119 -0.1756,-0.1120 -0.1746,-0.1121 -0.1735,-0.1121 -0.1724,-0.1122 -0.1713,-0.1123 -0.1703,-0.1124 -0.1692,-0.1126 -0.1681,-0.1130 -0.1670,-0.1134 -0.1660,-0.1138 -0.1649,-0.1142 -0.1638,-0.1144 -0.1627,-0.1146 -0.1617,-0.1152 -0.1606,-0.1156 -0.1595,-0.1161 -0.1584,-0.1165 -0.1574,-0.1156 -0.1563,-0.1158 -0.1552,-0.1160 -0.1541,-0.1162 -0.1531,-0.1164 -0.1520,-0.1168 -0.1509,-0.1177 -0.1498,-0.1185 -0.1488,-0.1194 -0.1477,-0.1203 -0.1466,-0.1215 -0.1455,-0.1226 -0.1445,-0.1238 -0.1434,-0.1250 -0.1423,-0.1253 -0.1412,-0.1257 -0.1402,-0.1260 -0.1391,-0.1263 -0.1380,-0.1267 -0.1369,-0.1270 -0.1359,-0.1274 -0.1348,-0.1277 -0.1337,-0.1281 -0.1326,-0.1285 -0.1316,-0.1288 -0.1305,-0.1290 -0.1294,-0.1258 -0.1283,-0.1262 -0.1272,-0.1266 -0.1262,-0.1270 -0.1251,-0.1274 -0.1240,-0.1278 -0.1229,-0.1282 -0.1219,-0.1286 -0.1208,-0.1289 -0.1197,-0.1290 -0.1186,-0.1292 -0.1176,-0.1293 -0.1165,-0.1295 -0.1154,-0.1296 -0.1143,-0.1298 -0.1133,-0.1300 -0.1122,-0.1280 -0.1111,-0.1284 -0.1100,-0.1235 -0.1090,-0.1246 -0.1079,-0.1253 -0.1068,-0.1257 -0.1057,-0.1262 -0.1047,-0.1267 -0.1036,-0.1272 -0.1025,-0.1276 -0.1014,-0.1281 -0.1004,-0.1286 -0.0993,-0.1289 -0.0982,-0.1291 -0.0971,-0.1293 -0.0961,-0.1293 -0.0950,-0.1294 -0.0939,-0.1296 -0.0928,-0.1297 -0.0918,-0.1299 -0.0907,-0.1271 -0.0896,-0.1278 -0.0885,-0.1289 -0.0875,-0.1291 -0.0864,-0.1260 -0.0853,-0.1247 -0.0842,-0.1248 -0.0832,-0.1250 -0.0821,-0.1252 -0.0810,-0.1253 -0.0799,-0.1255 -0.0789,-0.1257 -0.0778,-0.1259 -0.0767,-0.1260 -0.0756,-0.1262 -0.0746,-0.1246 -0.0735,-0.1248 -0.0724,-0.1249 -0.0713,-0.1251 -0.0703,-0.1252 -0.0692,-0.1254 -0.0681,-0.1256 -0.0670,-0.1257 -0.0660,-0.1259 -0.0649,-0.1261 -0.0638,-0.1262 -0.0627,-0.1274 -0.0617,-0.1277 -0.0606,-0.1280 -0.0595,-0.1282 -0.0584,-0.1285 -0.0574,-0.1288 -0.0563,-0.1291 -0.0552,-0.1295 -0.0541,-0.1302 -0.0531,-0.1301 -0.0520,-0.1303 -0.0509,-0.1305 -0.0498,-0.1308 -0.0488,-0.1311 -0.0477,-0.1315 -0.0466,-0.1319 -0.0455,-0.1323 -0.0445,-0.1328 -0.0434,-0.1333 -0.0423,-0.1337 -0.0412,-0.1341 -0.0402,-0.1345 -0.0391,-0.1348 -0.0380,-0.1351 -0.0369,-0.1354 -0.0359,-0.1341 -0.0348,-0.1343 -0.0337,-0.1325 -0.0326,-0.1327 -0.0316,-0.1325 -0.0305,-0.1327 -0.0294,-0.1330 -0.0283,-0.1332 -0.0273,-0.1335 -0.0262,-0.1326 -0.0251,-0.1327 -0.0240,-0.1343 -0.0230,-0.1346 -0.0219,-0.1355 -0.0208,-0.1363 -0.0197,-0.1364 -0.0187,-0.1365 -0.0176,-0.1366 -0.0165,-0.1367 -0.0154,-0.1368 -0.0144,-0.1369 -0.0133,-0.1370 -0.0122,-0.1371 -0.0111,-0.1372 -0.0101,-0.1373 -0.0090,-0.1374 -0.0079,-0.1376 -0.0068,-0.1377 -0.0058,-0.1356 -0.0047,-0.1367 -0.0036,-0.1361 -0.0025,-0.1364 -0.0015,-0.1366 -0.0004,-0.1369 0.0007,-0.1371 0.0018,-0.1374 0.0028,-0.1375 0.0039,-0.1376 0.0050,-0.1377 0.0061,-0.1378 0.0071,-0.1380 0.0082,-0.1385 0.0093,-0.1385 0.0104,-0.1386 0.0114,-0.1386 0.0125,-0.1387 0.0136,-0.1388 0.0147,-0.1388 0.0158,-0.1374 0.0168,-0.1377 0.0179,-0.1381 0.0190,-0.1384 0.0201,-0.1385 0.0211,-0.1386 0.0222,-0.1387 0.0233,-0.1387 0.0244,-0.1388 0.0254,-0.1388 0.0265,-0.1389 0.0276,-0.1389 0.0287,-0.1390 0.0297,-0.1391 0.0308,-0.1391 0.0319,-0.1386 0.0330,-0.1386 0.0340,-0.1388 0.0351,-0.1391 0.0362,-0.1398 0.0373,-0.1400 0.0383,-0.1398 0.0394,-0.1385 0.0405,-0.1386 0.0416,-0.1386 0.0426,-0.1386 0.0437,-0.1386 0.0448,-0.1386 0.0459,-0.1389 0.0469,-0.1394 0.0480,-0.1396 0.0491,-0.1399 0.0502,-0.1401 0.0512,-0.1404 0.0523,-0.1406 0.0534,-0.1408 0.0545,-0.1408 0.0555,-0.1409 0.0566,-0.1410 0.0577,-0.1411 0.0588,-0.1412 0.0598,-0.1413 0.0609,-0.1413 0.0620,-0.1402 0.0631,-0.1385 0.0641,-0.1386 0.0652,-0.1386 0.0663,-0.1386 0.0674,-0.1386 0.0684,-0.1390 0.0695,-0.1385 0.0706,-0.1385 0.0717,-0.1375 0.0727,-0.1376 0.0738,-0.1357 0.0749,-0.1366 0.0760,-0.1368 0.0770,-0.1369 0.0781,-0.1370 0.0792,-0.1371 0.0803,-0.1373 0.0813,-0.1373 0.0824,-0.1374 0.0835,-0.1376 0.0846,-0.1376 0.0856,-0.1377 0.0867,-0.1379 0.0878,-0.1381 0.0889,-0.1382 0.0899,-0.1384 0.0910,-0.1386 0.0921,-0.1388 0.0932,-0.1391 0.0942,-0.1392 0.0953,-0.1394 0.0964,-0.1396 0.0975,-0.1398 0.0985,-0.1399 0.0996,-0.1401 0.1007,-0.1403 0.1018,-0.1405 0.1028,-0.1395 0.1039,-0.1395 0.1050,-0.1397 0.1061,-0.1397 0.1071,-0.1398 0.1082,-0.1398 0.1093,-0.1398 0.1104,-0.1399 0.1114,-0.1403 0.1125,-0.1406 0.1136,-0.1408 0.1147,-0.1396 0.1157,-0.1395 0.1168,-0.1385 0.1179,-0.1368 0.1190,-0.1367 0.1200,-0.1362 0.1211,-0.1364 0.1222,-0.1367 0.1233,-0.1370 0.1243,-0.1382 0.1254,-0.1384 0.1265,-0.1374 0.1276,-0.1375 0.1286,-0.1376 0.1297,-0.1377 0.1308,-0.1369 0.1319,-0.1343 0.1329,-0.1342 0.1340,-0.1344 0.1351,-0.1346 0.1362,-0.1355 0.1372,-0.1359 0.1383,-0.1364 0.1394,-0.1368 0.1405,-0.1369 0.1415,-0.1369 0.1426,-0.1370 0.1437,-0.1343 0.1448,-0.1345 0.1458,-0.1346 0.1469,-0.1353 0.1480,-0.1366 0.1491,-0.1369 0.1501,-0.1338 0.1512,-0.1339 0.1523,-0.1316 0.1534,-0.1324 0.1545,-0.1308 0.1555,-0.1298 0.1566,-0.1299 0.1577,-0.1291 0.1588,-0.1291 0.1598,-0.1292 0.1609,-0.1293 0.1620,-0.1293 0.1631,-0.1294 0.1641,-0.1295 0.1652,-0.1286 0.1663,-0.1287 0.1674,-0.1288 0.1684,-0.1289 0.1695,-0.1290 0.1706,-0.1279 0.1717,-0.1260 0.1727,-0.1263 0.1738,-0.1266 0.1749,-0.1268 0.1760,-0.1233 0.1770,-0.1239 0.1781,-0.1244 0.1792,-0.1192 0.1803,-0.1197 0.1813,-0.1205 0.1824,-0.1211 0.1835,-0.1193 0.1846,-0.1195 0.1856,-0.1198 0.1867,-0.1198 0.1878,-0.1180 0.1889,-0.1182 0.1899,-0.1183 0.1910,-0.1186 0.1921,-0.1191 0.1932,-0.1193 0.1942,-0.1195 0.1953,-0.1195 0.1964,-0.1197 0.1975,-0.1199 0.1985,-0.1201 0.1996,-0.1205 0.2007,-0.1213 0.2018,-0.1218 0.2028,-0.1222 0.2039,-0.1227 0.2050,-0.1232 0.2061,-0.1237 0.2071,-0.1197 0.2082,-0.1200 0.2093,-0.1202 0.2104,-0.1208 0.2114,-0.1215 0.2125,-0.1221 0.2136,-0.1228 0.2147,-0.1193 0.2157,-0.1195 0.2168,-0.1198 0.2179,-0.1194 0.2190,-0.1197 0.2200,-0.1199 0.2211,-0.1202 0.2222,-0.1198 0.2233,-0.1181 0.2243,-0.1183 0.2254,-0.1162 0.2265,-0.1165 0.2276,-0.1167 0.2286,-0.1142 0.2297,-0.1145 0.2308,-0.1148 0.2319,-0.1152 0.2329,-0.1118 0.2340,-0.1120 0.2351,-0.1100 0.2362,-0.1100 0.2372,-0.1101 0.2383,-0.1101 0.2394,-0.1102 0.2405,-0.1102 0.2415,-0.1112 0.2426,-0.1099 0.2437,-0.1099 0.2448,-0.1100 0.2458,-0.1099 0.2469,-0.1099 0.2480,-0.1100 0.2491,-0.1101 0.2501,-0.1101 0.2512,-0.1102 0.2523,-0.1104 0.2534,-0.1112 0.2544,-0.1113 0.2555,-0.1116 0.2566,-0.1119 0.2577,-0.1124 0.2587,-0.1102 0.2598,-0.1099 0.2609,-0.1028 0.2620,-0.1041 0.2630,-0.1084 0.2641,-0.1017 0.2652,-0.1019 0.2663,-0.1020 0.2673,-0.1021 0.2684,-0.1023 0.2695,-0.1024 0.2706,-0.1026 0.2716,-0.1043 0.2727,-0.1046 0.2738,-0.1049 0.2749,-0.1052 0.2759,-0.1055 0.2770,-0.1058 0.2781,-0.1055 0.2792,-0.1057 0.2802,-0.1059 0.2813,-0.1061 0.2824,-0.1063 0.2835,-0.1064 0.2845,-0.1066 0.2856,-0.1068 0.2867,-0.1070 0.2878,-0.1072 0.2888,-0.1074 0.2899,-0.1077 0.2910,-0.1083 0.2921,-0.1087 0.2931,-0.1093 0.2942,-0.1120 0.2953,-0.1125 0.2964,-0.1127 0.2975,-0.1129 0.2985,-0.1118 0.2996,-0.1122 0.3007,-0.1126 0.3018,-0.1130 0.3028,-0.1134 0.3039,-0.1142 0.3050,-0.1144 0.3061,-0.1146 0.3071,-0.1148 0.3082,-0.1148 0.3093,-0.1149 0.3104,-0.1150 0.3114,-0.1151 0.3125,-0.1135 0.3136,-0.1138 0.3147,-0.1140 0.3157,-0.1143 0.3168,-0.1106 0.3179,-0.1110 0.3190,-0.1114 0.3200,-0.1119 0.3211,-0.1123 0.3222,-0.1129 0.3233,-0.1132 0.3243,-0.1137 0.3254,-0.1143 0.3265,-0.1147 0.3276,-0.1148 0.3286,-0.1093 0.3297,-0.1098 0.3308,-0.1104 0.3319,-0.1109 0.3329,-0.1116 0.3340,-0.1118 0.3351,-0.1114 0.3362,-0.1116 0.3372,-0.1121 0.3383,-0.1123 0.3394,-0.1125 0.3405,-0.1128 0.3415,-0.1108 0.3426,-0.1111 0.3437,-0.1116 0.3448,-0.1118 0.3458,-0.1120 0.3469,-0.1122 0.3480,-0.1091 0.3491,-0.1096 0.3501,-0.1102 0.3512,-0.1107 0.3523,-0.1113 0.3534,-0.1051 0.3544,-0.1055 0.3555,-0.1059 0.3566,-0.1063 0.3577,-0.1067 0.3587,-0.1073 0.3598,-0.1090 0.3609,-0.1109 0.3620,-0.1116 0.3630,-0.1117 0.3641,-0.1119 0.3652,-0.1121 0.3663,-0.1123 0.3673,-0.1060 0.3684,-0.1066 0.3695,-0.1071 0.3706,-0.1077 0.3716,-0.1131 0.3727,-0.1043 0.3738,-0.1049 0.3749,-0.1054 0.3759,-0.1060 0.3770,-0.1066 0.3781,-0.1072 0.3792,-0.1094 0.3802,-0.1119 0.3813,-0.1120 0.3824,-0.1122 0.3835,-0.1123 0.3845,-0.1125 0.3856,-0.1126 0.3867,-0.1128 0.3878,-0.1129 0.3888,-0.1131 0.3899,-0.1133 0.3910,-0.1115 0.3921,-0.1118 0.3931,-0.1119 0.3942,-0.1120 0.3953,-0.1121 0.3964,-0.1123 0.3974,-0.1126 0.3985,-0.1128 0.3996,-0.1112 0.4007,-0.1113 0.4017,-0.1117 0.4028,-0.1118 0.4039,-0.1119 0.4050,-0.1120 0.4060,-0.1121 0.4071,-0.1124 0.4082,-0.1126 0.4093,-0.1129 0.4103,-0.1132 0.4114,-0.1135 0.4125,-0.1136 0.4136,-0.1137 0.4146,-0.1138 0.4157,-0.1140 0.4168,-0.1141 0.4179,-0.1142 0.4189,-0.1143 0.4200,-0.1144 0.4211,-0.1145 0.4222,-0.1158 0.4232,-0.1167 0.4243,-0.1179 0.4254,-0.1180 0.4265,-0.1180 0.4275,-0.1181 0.4286,-0.1181 0.4297,-0.1181 0.4308,-0.1182 0.4318,-0.1179 0.4329,-0.1181 0.4340,-0.1182 0.4351,-0.1185 0.4361,-0.1185 0.4372,-0.1185 0.4383,-0.1186 0.4394,-0.1186 0.4405,-0.1186 0.4415,-0.1186 0.4426,-0.1186 0.4437,-0.1186 0.4448,-0.1187 0.4458,-0.1187 0.4469,-0.1182 0.4480,-0.1183 0.4491,-0.1185 0.4501,-0.1188 0.4512,-0.1190 0.4523,-0.1191 0.4534,-0.1193 0.4544,-0.1195 0.4555,-0.1186 0.4566,-0.1187 0.4577,-0.1192 0.4587,-0.1193 0.4598,-0.1180 0.4609,-0.1182 0.4620,-0.1184 0.4630,-0.1186 0.4641,-0.1188 0.4652,-0.1189 0.4663,-0.1190"/></g><g fill="none" stroke="rgb(10%, 40%, 80%)" stroke-opacity="1.0" stroke-width="0.0050"><polyline points="-0.6079,-0.1655 -0.6068,-0.1657 -0.6057,-0.1656 -0.6046,-0.1656 -0.6036,-0.1656 -0.6025,-0.1656 -0.6014,-0.1659 -0.6003,-0.1657 -0.5993,-0.1658 -0.5982,-0.1656 -0.5971,-0.1657 -0.5960,-0.1656 -0.5950,-0.1655 -0.5939,-0.1654 -0.5928,-0.1655 -0.5917,-0.1664 -0.5907,-0.1664 -0.5896,-0.1664 -0.5885,-0.1662 -0.5874,-0.1662 -0.5864,-0.1663 -0.5853,-0.1654 -0.5842,-0.1652 -0.5831,-0.1658 -0.5821,-0.1652 -0.5810,-0.1659 -0.5799,-0.1651 -0.5788,-0.1647 -0.5778,-0.1644 -0.5767,-0.1647 -0.5756,-0.1644 -0.5745,-0.1647 -0.5735,-0.1653 -0.5724,-0.1662 -0.5713,-0.1654 -0.5702,-0.1647 -0.5692,-0.1655 -0.5681,-0.1646 -0.5670,-0.1641 -0.5659,-0.1646 -0.5649,-0.1648 -0.5638,-0.1650 -0.5627,-0.1653 -0.5616,-0.1649 -0.5606,-0.1647 -0.5595,-0.1651 -0.5584,-0.1654 -0.5573,-0.1658 -0.5562,-0.1662 -0.5552,-0.1663 -0.5541,-0.1662 -0.5530,-0.1662 -0.5519,-0.1662 -0.5509,-0.1662 -0.5498,-0.1658 -0.5487,-0.1659 -0.5476,-0.1661 -0.5466,-0.1662 -0.5455,-0.1662 -0.5444,-0.1659 -0.5433,-0.1656 -0.5423,-0.1656 -0.5412,-0.1658 -0.5401,-0.1660 -0.5390,-0.1662 -0.5380,-0.1662 -0.5369,-0.1663 -0.5358,-0.1662 -0.5347,-0.1659 -0.5337,-0.1657 -0.5326,-0.1660 -0.5315,-0.1662 -0.5304,-0.1663 -0.5294,-0.1665 -0.5283,-0.1653 -0.5272,-0.1663 -0.5261,-0.1663 -0.5251,-0.1660 -0.5240,-0.1660 -0.5229,-0.1664 -0.5218,-0.1673 -0.5208,-0.1665 -0.5197,-0.1667 -0.5186,-0.1666 -0.5175,-0.1664 -0.5165,-0.1663 -0.5154,-0.1662 -0.5143,-0.1660 -0.5132,-0.1657 -0.5122,-0.1660 -0.5111,-0.1662 -0.5100,-0.1663 -0.5089,-0.1662 -0.5079,-0.1659 -0.5068,-0.1662 -0.5057,-0.1660 -0.5046,-0.1662 -0.5036,-0.1663 -0.5025,-0.1664 -0.5014,-0.1663 -0.5003,-0.1664 -0.4993,-0.1663 -0.4982,-0.1663 -0.4971,-0.1663 -0.4960,-0.1663 -0.4950,-0.1664 -0.4939,-0.1665 -0.4928,-0.1654 -0.4917,-0.1653 -0.4907,-0.1654 -0.4896,-0.1655 -0.4885,-0.1657 -0.4874,-0.1655 -0.4864,-0.1656 -0.4853,-0.1656 -0.4842,-0.1657 -0.4831,-0.1656 -0.4821,-0.1657 -0.4810,-0.1658 -0.4799,-0.1657 -0.4788,-0.1656 -0.4778,-0.1655 -0.4767,-0.1654 -0.4756,-0.1653 -0.4745,-0.1654 -0.4735,-0.1653 -0.4724,-0.1652 -0.4713,-0.1654 -0.4702,-0.1653 -0.4692,-0.1652 -0.4681,-0.1653 -0.4670,-0.1654 -0.4659,-0.1654 -0.4649,-0.1653 -0.4638,-0.1654 -0.4627,-0.1655 -0.4616,-0.1656 -0.4606,-0.1655 -0.4595,-0.1656 -0.4584,-0.1655 -0.4573,-0.1659 -0.4563,-0.1657 -0.4552,-0.1659 -0.4541,-0.1657 -0.4530,-0.1657 -0.4520,-0.1658 -0.4509,-0.1662 -0.4498,-0.1665 -0.4487,-0.1658 -0.4477,-0.1667 -0.4466,-0.1664 -0.4455,-0.1659 -0.4444,-0.1664 -0.4434,-0.1663 -0.4423,-0.1657 -0.4412,-0.1658 -0.4401,-0.1662 -0.4391,-0.1659 -0.4380,-0.1662 -0.4369,-0.1660 -0.4358,-0.1660 -0.4348,-0.1661 -0.4337,-0.1660 -0.4326,-0.1659 -0.4315,-0.1658 -0.4305,-0.1657 -0.4294,-0.1658 -0.4283,-0.1660 -0.4272,-0.1661 -0.4262,-0.1663 -0.4251,-0.1661 -0.4240,-0.1659 -0.4229,-0.1658 -0.4219,-0.1659 -0.4208,-0.1658 -0.4197,-0.1659 -0.4186,-0.1659 -0.4176,-0.1658 -0.4165,-0.1659 -0.4154,-0.1659 -0.4143,-0.1659 -0.4132,-0.1659 -0.4122,-0.1659 -0.4111,-0.1658 -0.4100,-0.1659 -0.4089,-0.1661 -0.4079,-0.1660 -0.4068,-0.1659 -0.4057,-0.1660 -0.4046,-0.1659 -0.4036,-0.1658 -0.4025,-0.1659 -0.4014,-0.1659 -0.4003,-0.1659 -0.3993,-0.1659 -0.3982,-0.1659 -0.3971,-0.1659 -0.3960,-0.1660 -0.3950,-0.1659 -0.3939,-0.1660 -0.3928,-0.1660 -0.3917,-0.1661 -0.3907,-0.1662 -0.3896,-0.1663 -0.3885,-0.1662 -0.3874,-0.1660 -0.3864,-0.1660 -0.3853,-0.1659 -0.3842,-0.1658 -0.3831,-0.1659 -0.3821,-0.1657 -0.3810,-0.1658 -0.3799,-0.1657 -0.3788,-0.1657 -0.3778,-0.1662 -0.3767,-0.1664 -0.3756,-0.1665 -0.3745,-0.1663 -0.3735,-0.1667 -0.3724,-0.1666 -0.3713,-0.1667 -0.3702,-0.1674 -0.3692,-0.1680 -0.3681,-0.1669 -0.3670,-0.1676 -0.3659,-0.1666 -0.3649,-0.1670 -0.3638,-0.1666 -0.3627,-0.1662 -0.3616,-0.1657 -0.3606,-0.1652 -0.3595,-0.1672 -0.3584,-0.1651 -0.3573,-0.1655 -0.3563,-0.1660 -0.3552,-0.1655 -0.3541,-0.1654 -0.3530,-0.1653 -0.3520,-0.1654 -0.3509,-0.1653 -0.3498,-0.1644 -0.3487,-0.1647 -0.3477,-0.1646 -0.3466,-0.1647 -0.3455,-0.1645 -0.3444,-0.1646 -0.3434,-0.1644 -0.3423,-0.1640 -0.3412,-0.1641 -0.3401,-0.1661 -0.3391,-0.1667 -0.3380,-0.1664 -0.3369,-0.1671 -0.3358,-0.1664 -0.3348,-0.1661 -0.3337,-0.1667 -0.3326,-0.1670 -0.3315,-0.1676 -0.3305,-0.1668 -0.3294,-0.1673 -0.3283,-0.1649 -0.3272,-0.1676 -0.3262,-0.1643 -0.3251,-0.1642 -0.3240,-0.1643 -0.3229,-0.1648 -0.3219,-0.1643 -0.3208,-0.1642 -0.3197,-0.1643 -0.3186,-0.1661 -0.3176,-0.1657 -0.3165,-0.1664 -0.3154,-0.1656 -0.3143,-0.1675 -0.3133,-0.1638 -0.3122,-0.1649 -0.3111,-0.1657 -0.3100,-0.1658 -0.3090,-0.1658 -0.3079,-0.1651 -0.3068,-0.1652 -0.3057,-0.1656 -0.3047,-0.1655 -0.3036,-0.1644 -0.3025,-0.1650 -0.3014,-0.1655 -0.3004,-0.1653 -0.2993,-0.1657 -0.2982,-0.1657 -0.2971,-0.1647 -0.2961,-0.1655 -0.2950,-0.1658 -0.2939,-0.1679 -0.2928,-0.1672 -0.2918,-0.1674 -0.2907,-0.1682 -0.2896,-0.1689 -0.2885,-0.1694 -0.2875,-0.1691 -0.2864,-0.1682 -0.2853,-0.1686 -0.2842,-0.1688 -0.2832,-0.1684 -0.2821,-0.1679 -0.2810,-0.1682 -0.2799,-0.1692 -0.2789,-0.1699 -0.2778,-0.1693 -0.2767,-0.1686 -0.2756,-0.1675 -0.2746,-0.1686 -0.2735,-0.1696 -0.2724,-0.1684 -0.2713,-0.1689 -0.2702,-0.1692 -0.2692,-0.1698 -0.2681,-0.1713 -0.2670,-0.1718 -0.2659,-0.1720 -0.2649,-0.1705 -0.2638,-0.1703 -0.2627,-0.1703 -0.2616,-0.1720 -0.2606,-0.1713 -0.2595,-0.1721 -0.2584,-0.1709 -0.2573,-0.1741 -0.2563,-0.1738 -0.2552,-0.1720 -0.2541,-0.1734 -0.2530,-0.1722 -0.2520,-0.1724 -0.2509,-0.1722 -0.2498,-0.1715 -0.2487,-0.1730 -0.2477,-0.1722 -0.2466,-0.1721 -0.2455,-0.1720 -0.2444,-0.1720 -0.2434,-0.1739 -0.2423,-0.1721 -0.2412,-0.1717 -0.2401,-0.1717 -0.2391,-0.1722 -0.2380,-0.1716 -0.2369,-0.1715 -0.2358,-0.1720 -0.2348,-0.1715 -0.2337,-0.1717 -0.2326,-0.1716 -0.2315,-0.1714 -0.2305,-0.1713 -0.2294,-0.1714 -0.2283,-0.1715 -0.2272,-0.1717 -0.2262,-0.1717 -0.2251,-0.1718 -0.2240,-0.1717 -0.2229,-0.1717 -0.2219,-0.1716 -0.2208,-0.1717 -0.2197,-0.1719 -0.2186,-0.1718 -0.2176,-0.1717 -0.2165,-0.1716 -0.2154,-0.1718 -0.2143,-0.1717 -0.2133,-0.1717 -0.2122,-0.1720 -0.2111,-0.1721 -0.2100,-0.1721 -0.2090,-0.1720 -0.2079,-0.1721 -0.2068,-0.1720 -0.2057,-0.1717 -0.2047,-0.1716 -0.2036,-0.1715 -0.2025,-0.1716 -0.2014,-0.1717 -0.2004,-0.1715 -0.1993,-0.1716 -0.1982,-0.1717 -0.1971,-0.1717 -0.1961,-0.1718 -0.1950,-0.1716 -0.1939,-0.1717 -0.1928,-0.1718 -0.1918,-0.1718 -0.1907,-0.1720 -0.1896,-0.1717 -0.1885,-0.1712 -0.1875,-0.1709 -0.1864,-0.1706 -0.1853,-0.1683 -0.1842,-0.1713 -0.1832,-0.1712 -0.1821,-0.1721 -0.1810,-0.1722 -0.1799,-0.1722 -0.1789,-0.1721 -0.1778,-0.1711 -0.1767,-0.1715 -0.1756,-0.1718 -0.1746,-0.1719 -0.1735,-0.1724 -0.1724,-0.1721 -0.1713,-0.1727 -0.1703,-0.1725 -0.1692,-0.1730 -0.1681,-0.1720 -0.1670,-0.1723 -0.1660,-0.1721 -0.1649,-0.1727 -0.1638,-0.1716 -0.1627,-0.1724 -0.1617,-0.1723 -0.1606,-0.1726 -0.1595,-0.1729 -0.1584,-0.1749 -0.1574,-0.1727 -0.1563,-0.1746 -0.1552,-0.1726 -0.1541,-0.1707 -0.1531,-0.1719 -0.1520,-0.1714 -0.1509,-0.1705 -0.1498,-0.1713 -0.1488,-0.1703 -0.1477,-0.1713 -0.1466,-0.1713 -0.1455,-0.1712 -0.1445,-0.1711 -0.1434,-0.1710 -0.1423,-0.1714 -0.1412,-0.1686 -0.1402,-0.1713 -0.1391,-0.1703 -0.1380,-0.1711 -0.1369,-0.1701 -0.1359,-0.1695 -0.1348,-0.1706 -0.1337,-0.1711 -0.1326,-0.1706 -0.1316,-0.1702 -0.1305,-0.1686 -0.1294,-0.1715 -0.1283,-0.1714 -0.1272,-0.1715 -0.1262,-0.1716 -0.1251,-0.1716 -0.1240,-0.1716 -0.1229,-0.1715 -0.1219,-0.1715 -0.1208,-0.1715 -0.1197,-0.1714 -0.1186,-0.1715 -0.1176,-0.1715 -0.1165,-0.1709 -0.1154,-0.1685 -0.1143,-0.1714 -0.1133,-0.1707 -0.1122,-0.1699 -0.1111,-0.1713 -0.1100,-0.1700 -0.1090,-0.1714 -0.1079,-0.1714 -0.1068,-0.1706 -0.1057,-0.1714 -0.1047,-0.1715 -0.1036,-0.1715 -0.1025,-0.1715 -0.1014,-0.1715 -0.1004,-0.1685 -0.0993,-0.1686 -0.0982,-0.1715 -0.0971,-0.1690 -0.0961,-0.1713 -0.0950,-0.1693 -0.0939,-0.1692 -0.0928,-0.1679 -0.0918,-0.1676 -0.0907,-0.1672 -0.0896,-0.1674 -0.0885,-0.1673 -0.0875,-0.1675 -0.0864,-0.1669 -0.0853,-0.1662 -0.0842,-0.1670 -0.0832,-0.1663 -0.0821,-0.1670 -0.0810,-0.1676 -0.0799,-0.1669 -0.0789,-0.1673 -0.0778,-0.1676 -0.0767,-0.1671 -0.0756,-0.1673 -0.0746,-0.1669 -0.0735,-0.1666 -0.0724,-0.1668 -0.0713,-0.1666 -0.0703,-0.1664 -0.0692,-0.1665 -0.0681,-0.1666 -0.0670,-0.1665 -0.0660,-0.1663 -0.0649,-0.1663 -0.0638,-0.1665 -0.0627,-0.1666 -0.0617,-0.1664 -0.0606,-0.1665 -0.0595,-0.1678 -0.0584,-0.1679 -0.0574,-0.1683 -0.0563,-0.1700 -0.0552,-0.1694 -0.0541,-0.1710 -0.0531,-0.1682 -0.0520,-0.1680 -0.0509,-0.1679 -0.0498,-0.1681 -0.0488,-0.1679 -0.0477,-0.1681 -0.0466,-0.1682 -0.0455,-0.1683 -0.0445,-0.1679 -0.0434,-0.1682 -0.0423,-0.1679 -0.0412,-0.1686 -0.0402,-0.1685 -0.0391,-0.1683 -0.0380,-0.1684 -0.0369,-0.1684 -0.0359,-0.1683 -0.0348,-0.1674 -0.0337,-0.1659 -0.0326,-0.1676 -0.0316,-0.1674 -0.0305,-0.1657 -0.0294,-0.1655 -0.0283,-0.1658 -0.0273,-0.1659 -0.0262,-0.1683 -0.0251,-0.1674 -0.0240,-0.1670 -0.0230,-0.1683 -0.0219,-0.1662 -0.0208,-0.1659 -0.0197,-0.1658 -0.0187,-0.1662 -0.0176,-0.1661 -0.0165,-0.1662 -0.0154,-0.1659 -0.0144,-0.1658 -0.0133,-0.1657 -0.0122,-0.1658 -0.0111,-0.1663 -0.0101,-0.1667 -0.0090,-0.1664 -0.0079,-0.1657 -0.0068,-0.1664 -0.0058,-0.1663 -0.0047,-0.1665 -0.0036,-0.1659 -0.0025,-0.1658 -0.0015,-0.1659 -0.0004,-0.1665 0.0007,-0.1674 0.0018,-0.1658 0.0028,-0.1657 0.0039,-0.1658 0.0050,-0.1675 0.0061,-0.1691 0.0071,-0.1664 0.0082,-0.1657 0.0093,-0.1660 0.0104,-0.1659 0.0114,-0.1658 0.0125,-0.1669 0.0136,-0.1669 0.0147,-0.1668 0.0158,-0.1666 0.0168,-0.1668 0.0179,-0.1668 0.0190,-0.1670 0.0201,-0.1672 0.0211,-0.1673 0.0222,-0.1671 0.0233,-0.1669 0.0244,-0.1670 0.0254,-0.1669 0.0265,-0.1669 0.0276,-0.1669 0.0287,-0.1669 0.0297,-0.1669 0.0308,-0.1680 0.0319,-0.1678 0.0330,-0.1678 0.0340,-0.1679 0.0351,-0.1680 0.0362,-0.1682 0.0373,-0.1682 0.0383,-0.1682 0.0394,-0.1682 0.0405,-0.1672 0.0416,-0.1673 0.0426,-0.1675 0.0437,-0.1675 0.0448,-0.1676 0.0459,-0.1675 0.0469,-0.1676 0.0480,-0.1677 0.0491,-0.1676 0.0502,-0.1675 0.0512,-0.1676 0.0523,-0.1675 0.0534,-0.1674 0.0545,-0.1673 0.0555,-0.1673 0.0566,-0.1672 0.0577,-0.1675 0.0588,-0.1674 0.0598,-0.1672 0.0609,-0.1671 0.0620,-0.1670 0.0631,-0.1670 0.0641,-0.1669 0.0652,-0.1670 0.0663,-0.1672 0.0674,-0.1673 0.0684,-0.1672 0.0695,-0.1672 0.0706,-0.1668 0.0717,-0.1666 0.0727,-0.1668 0.0738,-0.1666 0.0749,-0.1668 0.0760,-0.1670 0.0770,-0.1673 0.0781,-0.1672 0.0792,-0.1668 0.0803,-0.1666 0.0813,-0.1668 0.0824,-0.1671 0.0835,-0.1673 0.0846,-0.1674 0.0856,-0.1674 0.0867,-0.1675 0.0878,-0.1676 0.0889,-0.1675 0.0899,-0.1676 0.0910,-0.1676 0.0921,-0.1675 0.0932,-0.1676 0.0942,-0.1680 0.0953,-0.1682 0.0964,-0.1683 0.0975,-0.1684 0.0985,-0.1685 0.0996,-0.1686 0.1007,-0.1685 0.1018,-0.1684 0.1028,-0.1683 0.1039,-0.1683 0.1050,-0.1684 0.1061,-0.1683 0.1071,-0.1684 0.1082,-0.1683 0.1093,-0.1684 0.1104,-0.1684 0.1114,-0.1683 0.1125,-0.1685 0.1136,-0.1686 0.1147,-0.1684 0.1157,-0.1686 0.1168,-0.1685 0.1179,-0.1685 0.1190,-0.1686 0.1200,-0.1685 0.1211,-0.1686 0.1222,-0.1687 0.1233,-0.1686 0.1243,-0.1686 0.1254,-0.1687 0.1265,-0.1686 0.1276,-0.1676 0.1286,-0.1688 0.1297,-0.1687 0.1308,-0.1687 0.1319,-0.1675 0.1329,-0.1675 0.1340,-0.1687 0.1351,-0.1686 0.1362,-0.1689 0.1372,-0.1685 0.1383,-0.1678 0.1394,-0.1677 0.1405,-0.1677 0.1415,-0.1677 0.1426,-0.1676 0.1437,-0.1675 0.1448,-0.1674 0.1458,-0.1672 0.1469,-0.1668 0.1480,-0.1671 0.1491,-0.1674 0.1501,-0.1674 0.1512,-0.1675 0.1523,-0.1671 0.1534,-0.1670 0.1545,-0.1666 0.1555,-0.1663 0.1566,-0.1667 0.1577,-0.1663 0.1588,-0.1661 0.1598,-0.1657 0.1609,-0.1662 0.1620,-0.1667 0.1631,-0.1673 0.1641,-0.1674 0.1652,-0.1671 0.1663,-0.1674 0.1674,-0.1673 0.1684,-0.1675 0.1695,-0.1675 0.1706,-0.1674 0.1717,-0.1674 0.1727,-0.1668 0.1738,-0.1673 0.1749,-0.1661 0.1760,-0.1660 0.1770,-0.1659 0.1781,-0.1659 0.1792,-0.1660 0.1803,-0.1659 0.1813,-0.1659 0.1824,-0.1659 0.1835,-0.1658 0.1846,-0.1659 0.1856,-0.1658 0.1867,-0.1658 0.1878,-0.1643 0.1889,-0.1636 0.1899,-0.1643 0.1910,-0.1633 0.1921,-0.1628 0.1932,-0.1621 0.1942,-0.1630 0.1953,-0.1641 0.1964,-0.1657 0.1975,-0.1659 0.1985,-0.1653 0.1996,-0.1658 0.2007,-0.1650 0.2018,-0.1658 0.2028,-0.1659 0.2039,-0.1665 0.2050,-0.1662 0.2061,-0.1660 0.2071,-0.1660 0.2082,-0.1664 0.2093,-0.1668 0.2104,-0.1660 0.2114,-0.1657 0.2125,-0.1662 0.2136,-0.1655 0.2147,-0.1650 0.2157,-0.1645 0.2168,-0.1667 0.2179,-0.1635 0.2190,-0.1626 0.2200,-0.1639 0.2211,-0.1626 0.2222,-0.1621 0.2233,-0.1620 0.2243,-0.1621 0.2254,-0.1620 0.2265,-0.1618 0.2276,-0.1634 0.2286,-0.1618 0.2297,-0.1619 0.2308,-0.1644 0.2319,-0.1658 0.2329,-0.1644 0.2340,-0.1638 0.2351,-0.1633 0.2362,-0.1638 0.2372,-0.1632 0.2383,-0.1620 0.2394,-0.1622 0.2405,-0.1620 0.2415,-0.1620 0.2426,-0.1617 0.2437,-0.1617 0.2448,-0.1625 0.2458,-0.1634 0.2469,-0.1636 0.2480,-0.1637 0.2491,-0.1639 0.2501,-0.1641 0.2512,-0.1633 0.2523,-0.1623 0.2534,-0.1628 0.2544,-0.1614 0.2555,-0.1617 0.2566,-0.1626 0.2577,-0.1619 0.2587,-0.1659 0.2598,-0.1640 0.2609,-0.1659 0.2620,-0.1618 0.2630,-0.1644 0.2641,-0.1603 0.2652,-0.1606 0.2663,-0.1613 0.2673,-0.1621 0.2684,-0.1624 0.2695,-0.1627 0.2706,-0.1623 0.2716,-0.1620 0.2727,-0.1617 0.2738,-0.1616 0.2749,-0.1618 0.2759,-0.1619 0.2770,-0.1630 0.2781,-0.1627 0.2792,-0.1621 0.2802,-0.1617 0.2813,-0.1616 0.2824,-0.1617 0.2835,-0.1615 0.2845,-0.1617 0.2856,-0.1616 0.2867,-0.1617 0.2878,-0.1619 0.2888,-0.1651 0.2899,-0.1619 0.2910,-0.1627 0.2921,-0.1616 0.2931,-0.1626 0.2942,-0.1630 0.2953,-0.1633 0.2964,-0.1637 0.2975,-0.1630 0.2985,-0.1613 0.2996,-0.1628 0.3007,-0.1618 0.3018,-0.1618 0.3028,-0.1613 0.3039,-0.1617 0.3050,-0.1617 0.3061,-0.1618 0.3071,-0.1618 0.3082,-0.1619 0.3093,-0.1618 0.3104,-0.1618 0.3114,-0.1617 0.3125,-0.1617 0.3136,-0.1616 0.3147,-0.1617 0.3157,-0.1616 0.3168,-0.1617 0.3179,-0.1616 0.3190,-0.1615 0.3200,-0.1614 0.3211,-0.1616 0.3222,-0.1615 0.3233,-0.1614 0.3243,-0.1615 0.3254,-0.1616 0.3265,-0.1617 0.3276,-0.1618 0.3286,-0.1617 0.3297,-0.1618 0.3308,-0.1618 0.3319,-0.1617 0.3329,-0.1618 0.3340,-0.1618 0.3351,-0.1617 0.3362,-0.1616 0.3372,-0.1615 0.3383,-0.1614 0.3394,-0.1613 0.3405,-0.1615 0.3415,-0.1614 0.3426,-0.1612 0.3437,-0.1614 0.3448,-0.1616 0.3458,-0.1615 0.3469,-0.1609 0.3480,-0.1614 0.3491,-0.1611 0.3501,-0.1608 0.3512,-0.1605 0.3523,-0.1601 0.3534,-0.1597 0.3544,-0.1604 0.3555,-0.1609 0.3566,-0.1604 0.3577,-0.1603 0.3587,-0.1606 0.3598,-0.1613 0.3609,-0.1613 0.3620,-0.1612 0.3630,-0.1612 0.3641,-0.1613 0.3652,-0.1613 0.3663,-0.1592 0.3673,-0.1585 0.3684,-0.1577 0.3695,-0.1590 0.3706,-0.1599 0.3716,-0.1605 0.3727,-0.1599 0.3738,-0.1588 0.3749,-0.1593 0.3759,-0.1582 0.3770,-0.1582 0.3781,-0.1585 0.3792,-0.1569 0.3802,-0.1563 0.3813,-0.1585 0.3824,-0.1560 0.3835,-0.1570 0.3845,-0.1593 0.3856,-0.1563 0.3867,-0.1588 0.3878,-0.1589 0.3888,-0.1606 0.3899,-0.1599 0.3910,-0.1597 0.3921,-0.1599 0.3931,-0.1591 0.3942,-0.1594 0.3953,-0.1590 0.3964,-0.1593 0.3974,-0.1595 0.3985,-0.1599 0.3996,-0.1595 0.4007,-0.1593 0.4017,-0.1586 0.4028,-0.1587 0.4039,-0.1595 0.4050,-0.1587 0.4060,-0.1593 0.4071,-0.1588 0.4082,-0.1585 0.4093,-0.1585 0.4103,-0.1583 0.4114,-0.1581 0.4125,-0.1582 0.4136,-0.1582 0.4146,-0.1583 0.4157,-0.1600 0.4168,-0.1602 0.4179,-0.1604 0.4189,-0.1605 0.4200,-0.1605 0.4211,-0.1604 0.4222,-0.1600 0.4232,-0.1592 0.4243,-0.1603 0.4254,-0.1603 0.4265,-0.1605 0.4275,-0.1606 0.4286,-0.1608 0.4297,-0.1609 0.4308,-0.1607 0.4318,-0.1609 0.4329,-0.1610 0.4340,-0.1611 0.4351,-0.1611 0.4361,-0.1609 0.4372,-0.1610 0.4383,-0.1609 0.4394,-0.1606 0.4405,-0.1608 0.4415,-0.1609 0.4426,-0.1610 0.4437,-0.1611 0.4448,-0.1610 0.4458,-0.1609 0.4469,-0.1607 0.4480,-0.1604 0.4491,-0.1606 0.4501,-0.1590 0.4512,-0.1591 0.4523,-0.1612 0.4534,-0.1605 0.4544,-0.1611 0.4555,-0.1588 0.4566,-0.1589 0.4577,-0.1612 0.4587,-0.1614 0.4598,-0.1612 0.4609,-0.1600 0.4620,-0.1609 0.4630,-0.1609 0.4641,-0.1594 0.4652,-0.1608 0.4663,-0.1593"/></g><g fill="none" stroke="rgb(21%, 48%, -28%)" stroke-opacity="0.75" stroke-width="0.0050"><polyline points="-0.6079,-0.1946 -0.6068,-0.1947 -0.6057,-0.1947 -0.6046,-0.1946 -0.6036,-0.1946 -0.6025,-0.1946 -0.6014,-0.1946 -0.6003,-0.1946 -0.5993,-0.1946 -0.5982,-0.1946 -0.5971,-0.1946 -0.5960,-0.1946 -0.5950,-0.1946 -0.5939,-0.1946 -0.5928,-0.1946 -0.5917,-0.1945 -0.5907,-0.1945 -0.5896,-0.1945 -0.5885,-0.1945 -0.5874,-0.1945 -0.5864,-0.1945 -0.5853,-0.1945 -0.5842,-0.1945 -0.5831,-0.1945 -0.5821,-0.1944 -0.5810,-0.1941 -0.5799,-0.1934 -0.5788,-0.1930 -0.5778,-0.1926 -0.5767,-0.1926 -0.5756,-0.1926 -0.5745,-0.1925 -0.5735,-0.1923 -0.5724,-0.1919 -0.5713,-0.1918 -0.5702,-0.1916 -0.5692,-0.1914 -0.5681,-0.1912 -0.5670,-0.1910 -0.5659,-0.1908 -0.5649,-0.1906 -0.5638,-0.1905 -0.5627,-0.1904 -0.5616,-0.1902 -0.5606,-0.1901 -0.5595,-0.1915 -0.5584,-0.1914 -0.5573,-0.1914 -0.5562,-0.1928 -0.5552,-0.1926 -0.5541,-0.1924 -0.5530,-0.1922 -0.5519,-0.1921 -0.5509,-0.1919 -0.5498,-0.1917 -0.5487,-0.1919 -0.5476,-0.1919 -0.5466,-0.1921 -0.5455,-0.1921 -0.5444,-0.1920 -0.5433,-0.1917 -0.5423,-0.1918 -0.5412,-0.1916 -0.5401,-0.1916 -0.5390,-0.1915 -0.5380,-0.1914 -0.5369,-0.1913 -0.5358,-0.1912 -0.5347,-0.1910 -0.5337,-0.1909 -0.5326,-0.1908 -0.5315,-0.1907 -0.5304,-0.1906 -0.5294,-0.1906 -0.5283,-0.1905 -0.5272,-0.1904 -0.5261,-0.1903 -0.5251,-0.1902 -0.5240,-0.1902 -0.5229,-0.1901 -0.5218,-0.1900 -0.5208,-0.1899 -0.5197,-0.1898 -0.5186,-0.1897 -0.5175,-0.1896 -0.5165,-0.1895 -0.5154,-0.1894 -0.5143,-0.1893 -0.5132,-0.1892 -0.5122,-0.1902 -0.5111,-0.1901 -0.5100,-0.1909 -0.5089,-0.1908 -0.5079,-0.1908 -0.5068,-0.1917 -0.5057,-0.1917 -0.5046,-0.1916 -0.5036,-0.1921 -0.5025,-0.1940 -0.5014,-0.1939 -0.5003,-0.1938 -0.4993,-0.1937 -0.4982,-0.1936 -0.4971,-0.1943 -0.4960,-0.1942 -0.4950,-0.1942 -0.4939,-0.1948 -0.4928,-0.1948 -0.4917,-0.1947 -0.4907,-0.1947 -0.4896,-0.1950 -0.4885,-0.1950 -0.4874,-0.1949 -0.4864,-0.1949 -0.4853,-0.1951 -0.4842,-0.1949 -0.4831,-0.1948 -0.4821,-0.1949 -0.4810,-0.1948 -0.4799,-0.1947 -0.4788,-0.1947 -0.4778,-0.1946 -0.4767,-0.1946 -0.4756,-0.1946 -0.4745,-0.1946 -0.4735,-0.1946 -0.4724,-0.1946 -0.4713,-0.1946 -0.4702,-0.1946 -0.4692,-0.1946 -0.4681,-0.1946 -0.4670,-0.1946 -0.4659,-0.1946 -0.4649,-0.1946 -0.4638,-0.1946 -0.4627,-0.1946 -0.4616,-0.1947 -0.4606,-0.1947 -0.4595,-0.1947 -0.4584,-0.1947 -0.4573,-0.1947 -0.4563,-0.1946 -0.4552,-0.1946 -0.4541,-0.1946 -0.4530,-0.1946 -0.4520,-0.1946 -0.4509,-0.1946 -0.4498,-0.1946 -0.4487,-0.1946 -0.4477,-0.1946 -0.4466,-0.1946 -0.4455,-0.1946 -0.4444,-0.1946 -0.4434,-0.1946 -0.4423,-0.1946 -0.4412,-0.1943 -0.4401,-0.1938 -0.4391,-0.1929 -0.4380,-0.1928 -0.4369,-0.1929 -0.4358,-0.1928 -0.4348,-0.1927 -0.4337,-0.1926 -0.4326,-0.1924 -0.4315,-0.1923 -0.4305,-0.1922 -0.4294,-0.1921 -0.4283,-0.1920 -0.4272,-0.1919 -0.4262,-0.1917 -0.4251,-0.1916 -0.4240,-0.1915 -0.4229,-0.1915 -0.4219,-0.1914 -0.4208,-0.1914 -0.4197,-0.1913 -0.4186,-0.1913 -0.4176,-0.1912 -0.4165,-0.1912 -0.4154,-0.1911 -0.4143,-0.1911 -0.4132,-0.1910 -0.4122,-0.1910 -0.4111,-0.1906 -0.4100,-0.1902 -0.4089,-0.1899 -0.4079,-0.1898 -0.4068,-0.1897 -0.4057,-0.1897 -0.4046,-0.1896 -0.4036,-0.1896 -0.4025,-0.1895 -0.4014,-0.1894 -0.4003,-0.1894 -0.3993,-0.1893 -0.3982,-0.1893 -0.3971,-0.1892 -0.3960,-0.1891 -0.3950,-0.1891 -0.3939,-0.1890 -0.3928,-0.1888 -0.3917,-0.1885 -0.3907,-0.1882 -0.3896,-0.1882 -0.3885,-0.1881 -0.3874,-0.1881 -0.3864,-0.1881 -0.3853,-0.1880 -0.3842,-0.1880 -0.3831,-0.1888 -0.3821,-0.1886 -0.3810,-0.1882 -0.3799,-0.1882 -0.3788,-0.1881 -0.3778,-0.1892 -0.3767,-0.1910 -0.3756,-0.1910 -0.3745,-0.1903 -0.3735,-0.1902 -0.3724,-0.1894 -0.3713,-0.1893 -0.3702,-0.1893 -0.3692,-0.1893 -0.3681,-0.1893 -0.3670,-0.1892 -0.3659,-0.1892 -0.3649,-0.1891 -0.3638,-0.1891 -0.3627,-0.1891 -0.3616,-0.1890 -0.3606,-0.1887 -0.3595,-0.1884 -0.3584,-0.1893 -0.3573,-0.1893 -0.3563,-0.1913 -0.3552,-0.1911 -0.3541,-0.1908 -0.3530,-0.1907 -0.3520,-0.1921 -0.3509,-0.1920 -0.3498,-0.1919 -0.3487,-0.1928 -0.3477,-0.1927 -0.3466,-0.1949 -0.3455,-0.1949 -0.3444,-0.1949 -0.3434,-0.1948 -0.3423,-0.1948 -0.3412,-0.1959 -0.3401,-0.1962 -0.3391,-0.1971 -0.3380,-0.1970 -0.3369,-0.2004 -0.3358,-0.2001 -0.3348,-0.1996 -0.3337,-0.2043 -0.3326,-0.2040 -0.3315,-0.2063 -0.3305,-0.2064 -0.3294,-0.2234 -0.3283,-0.2154 -0.3272,-0.2145 -0.3262,-0.2319 -0.3251,-0.2312 -0.3240,-0.2302 -0.3229,-0.2373 -0.3219,-0.2361 -0.3208,-0.2350 -0.3197,-0.2344 -0.3186,-0.2334 -0.3176,-0.2324 -0.3165,-0.2312 -0.3154,-0.2301 -0.3143,-0.2397 -0.3133,-0.2397 -0.3122,-0.2396 -0.3111,-0.2396 -0.3100,-0.2395 -0.3090,-0.2341 -0.3079,-0.2329 -0.3068,-0.2334 -0.3057,-0.2330 -0.3047,-0.2326 -0.3036,-0.2323 -0.3025,-0.2319 -0.3014,-0.2315 -0.3004,-0.2396 -0.2993,-0.2395 -0.2982,-0.2360 -0.2971,-0.2338 -0.2961,-0.2334 -0.2950,-0.2330 -0.2939,-0.2326 -0.2928,-0.2322 -0.2918,-0.2318 -0.2907,-0.2313 -0.2896,-0.2309 -0.2885,-0.2305 -0.2875,-0.2301 -0.2864,-0.2340 -0.2853,-0.2335 -0.2842,-0.2331 -0.2832,-0.2327 -0.2821,-0.2323 -0.2810,-0.2319 -0.2799,-0.2291 -0.2789,-0.2310 -0.2778,-0.2305 -0.2767,-0.2301 -0.2756,-0.2296 -0.2746,-0.2290 -0.2735,-0.2269 -0.2724,-0.2247 -0.2713,-0.2227 -0.2702,-0.2219 -0.2692,-0.2211 -0.2681,-0.2203 -0.2670,-0.2195 -0.2659,-0.2186 -0.2649,-0.2179 -0.2638,-0.2170 -0.2627,-0.2162 -0.2616,-0.2153 -0.2606,-0.2145 -0.2595,-0.2143 -0.2584,-0.2140 -0.2573,-0.2137 -0.2563,-0.2134 -0.2552,-0.2131 -0.2541,-0.2128 -0.2530,-0.2124 -0.2520,-0.2121 -0.2509,-0.2115 -0.2498,-0.2112 -0.2487,-0.2108 -0.2477,-0.2104 -0.2466,-0.2101 -0.2455,-0.2099 -0.2444,-0.2097 -0.2434,-0.2095 -0.2423,-0.2093 -0.2412,-0.2092 -0.2401,-0.2090 -0.2391,-0.2088 -0.2380,-0.2086 -0.2369,-0.2084 -0.2358,-0.2083 -0.2348,-0.2081 -0.2337,-0.2080 -0.2326,-0.2078 -0.2315,-0.2076 -0.2305,-0.2075 -0.2294,-0.2073 -0.2283,-0.2071 -0.2272,-0.2069 -0.2262,-0.2067 -0.2251,-0.2065 -0.2240,-0.2062 -0.2229,-0.2060 -0.2219,-0.2058 -0.2208,-0.2056 -0.2197,-0.2065 -0.2186,-0.2064 -0.2176,-0.2063 -0.2165,-0.2062 -0.2154,-0.2072 -0.2143,-0.2072 -0.2133,-0.2070 -0.2122,-0.2070 -0.2111,-0.2069 -0.2100,-0.2067 -0.2090,-0.2066 -0.2079,-0.2065 -0.2068,-0.2063 -0.2057,-0.2061 -0.2047,-0.2060 -0.2036,-0.2059 -0.2025,-0.2071 -0.2014,-0.2082 -0.2004,-0.2080 -0.1993,-0.2079 -0.1982,-0.2077 -0.1971,-0.2076 -0.1961,-0.2088 -0.1950,-0.2087 -0.1939,-0.2093 -0.1928,-0.2092 -0.1918,-0.2092 -0.1907,-0.2098 -0.1896,-0.2098 -0.1885,-0.2097 -0.1875,-0.2096 -0.1864,-0.2095 -0.1853,-0.2094 -0.1842,-0.2094 -0.1832,-0.2094 -0.1821,-0.2094 -0.1810,-0.2094 -0.1799,-0.2094 -0.1789,-0.2094 -0.1778,-0.2093 -0.1767,-0.2093 -0.1756,-0.2093 -0.1746,-0.2093 -0.1735,-0.2095 -0.1724,-0.2102 -0.1713,-0.2112 -0.1703,-0.2108 -0.1692,-0.2108 -0.1681,-0.2107 -0.1670,-0.2106 -0.1660,-0.2106 -0.1649,-0.2105 -0.1638,-0.2104 -0.1627,-0.2103 -0.1617,-0.2103 -0.1606,-0.2102 -0.1595,-0.2101 -0.1584,-0.2101 -0.1574,-0.2100 -0.1563,-0.2100 -0.1552,-0.2099 -0.1541,-0.2099 -0.1531,-0.2098 -0.1520,-0.2098 -0.1509,-0.2097 -0.1498,-0.2097 -0.1488,-0.2097 -0.1477,-0.2096 -0.1466,-0.2096 -0.1455,-0.2095 -0.1445,-0.2095 -0.1434,-0.2095 -0.1423,-0.2094 -0.1412,-0.2094 -0.1402,-0.2094 -0.1391,-0.2094 -0.1380,-0.2094 -0.1369,-0.2094 -0.1359,-0.2093 -0.1348,-0.2093 -0.1337,-0.2093 -0.1326,-0.2093 -0.1316,-0.2090 -0.1305,-0.2082 -0.1294,-0.2080 -0.1283,-0.2079 -0.1272,-0.2078 -0.1262,-0.2062 -0.1251,-0.2062 -0.1240,-0.2062 -0.1229,-0.2062 -0.1219,-0.2061 -0.1208,-0.2061 -0.1197,-0.2061 -0.1186,-0.2060 -0.1176,-0.2061 -0.1165,-0.2060 -0.1154,-0.2059 -0.1143,-0.2059 -0.1133,-0.2056 -0.1122,-0.2054 -0.1111,-0.2052 -0.1100,-0.2050 -0.1090,-0.2061 -0.1079,-0.2060 -0.1068,-0.2060 -0.1057,-0.2060 -0.1047,-0.2059 -0.1036,-0.2057 -0.1025,-0.2055 -0.1014,-0.2053 -0.1004,-0.2051 -0.0993,-0.2049 -0.0982,-0.2046 -0.0971,-0.2044 -0.0961,-0.2044 -0.0950,-0.2043 -0.0939,-0.2042 -0.0928,-0.2042 -0.0918,-0.2041 -0.0907,-0.2040 -0.0896,-0.2039 -0.0885,-0.2050 -0.0875,-0.2047 -0.0864,-0.2045 -0.0853,-0.2044 -0.0842,-0.2060 -0.0832,-0.2060 -0.0821,-0.2059 -0.0810,-0.2059 -0.0799,-0.2057 -0.0789,-0.2053 -0.0778,-0.2050 -0.0767,-0.2048 -0.0756,-0.2047 -0.0746,-0.2046 -0.0735,-0.2045 -0.0724,-0.2044 -0.0713,-0.2043 -0.0703,-0.2042 -0.0692,-0.2041 -0.0681,-0.2060 -0.0670,-0.2053 -0.0660,-0.2049 -0.0649,-0.2048 -0.0638,-0.2046 -0.0627,-0.2051 -0.0617,-0.2050 -0.0606,-0.2049 -0.0595,-0.2048 -0.0584,-0.2048 -0.0574,-0.2047 -0.0563,-0.2046 -0.0552,-0.2045 -0.0541,-0.2044 -0.0531,-0.2043 -0.0520,-0.2042 -0.0509,-0.2042 -0.0498,-0.2041 -0.0488,-0.2040 -0.0477,-0.2039 -0.0466,-0.2038 -0.0455,-0.2037 -0.0445,-0.2037 -0.0434,-0.2036 -0.0423,-0.2036 -0.0412,-0.2036 -0.0402,-0.2035 -0.0391,-0.2035 -0.0380,-0.2035 -0.0369,-0.2034 -0.0359,-0.2034 -0.0348,-0.2033 -0.0337,-0.2031 -0.0326,-0.2028 -0.0316,-0.2036 -0.0305,-0.2036 -0.0294,-0.2036 -0.0283,-0.2035 -0.0273,-0.2032 -0.0262,-0.2034 -0.0251,-0.2034 -0.0240,-0.2034 -0.0230,-0.2032 -0.0219,-0.2028 -0.0208,-0.2024 -0.0197,-0.2019 -0.0187,-0.2015 -0.0176,-0.2011 -0.0165,-0.2009 -0.0154,-0.2007 -0.0144,-0.2004 -0.0133,-0.2002 -0.0122,-0.1996 -0.0111,-0.1994 -0.0101,-0.1991 -0.0090,-0.1988 -0.0079,-0.1987 -0.0068,-0.1986 -0.0058,-0.1985 -0.0047,-0.2007 -0.0036,-0.2004 -0.0025,-0.2001 -0.0015,-0.1998 -0.0004,-0.1995 0.0007,-0.1992 0.0018,-0.1987 0.0028,-0.1986 0.0039,-0.1985 0.0050,-0.1984 0.0061,-0.1983 0.0071,-0.1982 0.0082,-0.1981 0.0093,-0.1981 0.0104,-0.1980 0.0114,-0.1979 0.0125,-0.1978 0.0136,-0.1977 0.0147,-0.1976 0.0158,-0.1974 0.0168,-0.1985 0.0179,-0.1984 0.0190,-0.1983 0.0201,-0.1982 0.0211,-0.1981 0.0222,-0.1980 0.0233,-0.1979 0.0244,-0.1978 0.0254,-0.1977 0.0265,-0.1976 0.0276,-0.1973 0.0287,-0.1970 0.0297,-0.1967 0.0308,-0.1965 0.0319,-0.1964 0.0330,-0.1962 0.0340,-0.1960 0.0351,-0.1959 0.0362,-0.1958 0.0373,-0.1958 0.0383,-0.1958 0.0394,-0.1958 0.0405,-0.1957 0.0416,-0.1957 0.0426,-0.1957 0.0437,-0.1956 0.0448,-0.1956 0.0459,-0.1956 0.0469,-0.1955 0.0480,-0.1954 0.0491,-0.1953 0.0502,-0.1952 0.0512,-0.1951 0.0523,-0.1949 0.0534,-0.1948 0.0545,-0.1947 0.0555,-0.1946 0.0566,-0.1945 0.0577,-0.1944 0.0588,-0.1943 0.0598,-0.1939 0.0609,-0.1939 0.0620,-0.1938 0.0631,-0.1937 0.0641,-0.1937 0.0652,-0.1936 0.0663,-0.1952 0.0674,-0.1951 0.0684,-0.1950 0.0695,-0.1942 0.0706,-0.1942 0.0717,-0.1940 0.0727,-0.1956 0.0738,-0.1956 0.0749,-0.1952 0.0760,-0.1951 0.0770,-0.1949 0.0781,-0.1948 0.0792,-0.1946 0.0803,-0.1945 0.0813,-0.1944 0.0824,-0.1955 0.0835,-0.1954 0.0846,-0.1953 0.0856,-0.1952 0.0867,-0.1950 0.0878,-0.1948 0.0889,-0.1945 0.0899,-0.1943 0.0910,-0.1942 0.0921,-0.1942 0.0932,-0.1941 0.0942,-0.1940 0.0953,-0.1939 0.0964,-0.1938 0.0975,-0.1937 0.0985,-0.1937 0.0996,-0.1936 0.1007,-0.1935 0.1018,-0.1934 0.1028,-0.1933 0.1039,-0.1932 0.1050,-0.1930 0.1061,-0.1928 0.1071,-0.1927 0.1082,-0.1925 0.1093,-0.1924 0.1104,-0.1921 0.1114,-0.1919 0.1125,-0.1918 0.1136,-0.1918 0.1147,-0.1918 0.1157,-0.1932 0.1168,-0.1930 0.1179,-0.1927 0.1190,-0.1939 0.1200,-0.1938 0.1211,-0.1953 0.1222,-0.1964 0.1233,-0.1964 0.1243,-0.1965 0.1254,-0.1964 0.1265,-0.1963 0.1276,-0.1963 0.1286,-0.1968 0.1297,-0.1967 0.1308,-0.1967 0.1319,-0.1966 0.1329,-0.1971 0.1340,-0.1970 0.1351,-0.1970 0.1362,-0.1978 0.1372,-0.1973 0.1383,-0.1973 0.1394,-0.1972 0.1405,-0.1972 0.1415,-0.1972 0.1426,-0.1971 0.1437,-0.1971 0.1448,-0.1970 0.1458,-0.1970 0.1469,-0.1969 0.1480,-0.1969 0.1491,-0.1968 0.1501,-0.1967 0.1512,-0.1965 0.1523,-0.1964 0.1534,-0.1962 0.1545,-0.1961 0.1555,-0.1960 0.1566,-0.1958 0.1577,-0.1955 0.1588,-0.1954 0.1598,-0.1952 0.1609,-0.1968 0.1620,-0.1973 0.1631,-0.1973 0.1641,-0.1973 0.1652,-0.1972 0.1663,-0.1971 0.1674,-0.1971 0.1684,-0.1971 0.1695,-0.1973 0.1706,-0.1975 0.1717,-0.1975 0.1727,-0.1973 0.1738,-0.2006 0.1749,-0.2003 0.1760,-0.1998 0.1770,-0.1995 0.1781,-0.1991 0.1792,-0.1989 0.1803,-0.2022 0.1813,-0.2032 0.1824,-0.2031 0.1835,-0.2029 0.1846,-0.2044 0.1856,-0.2043 0.1867,-0.2042 0.1878,-0.2040 0.1889,-0.2040 0.1899,-0.2047 0.1910,-0.2047 0.1921,-0.2047 0.1932,-0.2046 0.1942,-0.2059 0.1953,-0.2063 0.1964,-0.2063 0.1975,-0.2065 0.1985,-0.2065 0.1996,-0.2069 0.2007,-0.2064 0.2018,-0.2064 0.2028,-0.2063 0.2039,-0.2062 0.2050,-0.2061 0.2061,-0.2059 0.2071,-0.2054 0.2082,-0.2054 0.2093,-0.2053 0.2104,-0.2051 0.2114,-0.2053 0.2125,-0.2052 0.2136,-0.2051 0.2147,-0.2050 0.2157,-0.2049 0.2168,-0.2048 0.2179,-0.2047 0.2190,-0.2047 0.2200,-0.2055 0.2211,-0.2053 0.2222,-0.2052 0.2233,-0.2049 0.2243,-0.2048 0.2254,-0.2048 0.2265,-0.2047 0.2276,-0.2067 0.2286,-0.2066 0.2297,-0.2065 0.2308,-0.2064 0.2319,-0.2074 0.2329,-0.2072 0.2340,-0.2071 0.2351,-0.2069 0.2362,-0.2067 0.2372,-0.2066 0.2383,-0.2065 0.2394,-0.2083 0.2405,-0.2083 0.2415,-0.2093 0.2426,-0.2092 0.2437,-0.2091 0.2448,-0.2090 0.2458,-0.2099 0.2469,-0.2098 0.2480,-0.2097 0.2491,-0.2134 0.2501,-0.2168 0.2512,-0.2168 0.2523,-0.2160 0.2534,-0.2167 0.2544,-0.2167 0.2555,-0.2166 0.2566,-0.2162 0.2577,-0.2161 0.2587,-0.2160 0.2598,-0.2159 0.2609,-0.2158 0.2620,-0.2157 0.2630,-0.2156 0.2641,-0.2155 0.2652,-0.2154 0.2663,-0.2164 0.2673,-0.2163 0.2684,-0.2162 0.2695,-0.2167 0.2706,-0.2167 0.2716,-0.2167 0.2727,-0.2167 0.2738,-0.2167 0.2749,-0.2167 0.2759,-0.2167 0.2770,-0.2166 0.2781,-0.2166 0.2792,-0.2161 0.2802,-0.2160 0.2813,-0.2159 0.2824,-0.2158 0.2835,-0.2157 0.2845,-0.2167 0.2856,-0.2167 0.2867,-0.2171 0.2878,-0.2168 0.2888,-0.2167 0.2899,-0.2167 0.2910,-0.2167 0.2921,-0.2167 0.2931,-0.2185 0.2942,-0.2184 0.2953,-0.2182 0.2964,-0.2176 0.2975,-0.2169 0.2985,-0.2167 0.2996,-0.2167 0.3007,-0.2167 0.3018,-0.2167 0.3028,-0.2167 0.3039,-0.2185 0.3050,-0.2183 0.3061,-0.2183 0.3071,-0.2181 0.3082,-0.2177 0.3093,-0.2168 0.3104,-0.2167 0.3114,-0.2167 0.3125,-0.2167 0.3136,-0.2167 0.3147,-0.2167 0.3157,-0.2168 0.3168,-0.2165 0.3179,-0.2165 0.3190,-0.2166 0.3200,-0.2165 0.3211,-0.2164 0.3222,-0.2163 0.3233,-0.2158 0.3243,-0.2157 0.3254,-0.2156 0.3265,-0.2155 0.3276,-0.2153 0.3286,-0.2152 0.3297,-0.2151 0.3308,-0.2150 0.3319,-0.2148 0.3329,-0.2147 0.3340,-0.2146 0.3351,-0.2144 0.3362,-0.2141 0.3372,-0.2138 0.3383,-0.2135 0.3394,-0.2133 0.3405,-0.2152 0.3415,-0.2150 0.3426,-0.2149 0.3437,-0.2161 0.3448,-0.2184 0.3458,-0.2182 0.3469,-0.2182 0.3480,-0.2180 0.3491,-0.2179 0.3501,-0.2174 0.3512,-0.2170 0.3523,-0.2189 0.3534,-0.2188 0.3544,-0.2193 0.3555,-0.2193 0.3566,-0.2193 0.3577,-0.2193 0.3587,-0.2203 0.3598,-0.2198 0.3609,-0.2194 0.3620,-0.2194 0.3630,-0.2194 0.3641,-0.2237 0.3652,-0.2235 0.3663,-0.2234 0.3673,-0.2234 0.3684,-0.2218 0.3695,-0.2205 0.3706,-0.2197 0.3716,-0.2194 0.3727,-0.2194 0.3738,-0.2238 0.3749,-0.2237 0.3759,-0.2236 0.3770,-0.2235 0.3781,-0.2234 0.3792,-0.2215 0.3802,-0.2203 0.3813,-0.2195 0.3824,-0.2194 0.3835,-0.2194 0.3845,-0.2194 0.3856,-0.2193 0.3867,-0.2193 0.3878,-0.2238 0.3888,-0.2236 0.3899,-0.2234 0.3910,-0.2208 0.3921,-0.2199 0.3931,-0.2194 0.3942,-0.2194 0.3953,-0.2194 0.3964,-0.2193 0.3974,-0.2193 0.3985,-0.2193 0.3996,-0.2192 0.4007,-0.2192 0.4017,-0.2192 0.4028,-0.2192 0.4039,-0.2184 0.4050,-0.2175 0.4060,-0.2169 0.4071,-0.2164 0.4082,-0.2162 0.4093,-0.2163 0.4103,-0.2160 0.4114,-0.2157 0.4125,-0.2154 0.4136,-0.2152 0.4146,-0.2192 0.4157,-0.2190 0.4168,-0.2182 0.4179,-0.2175 0.4189,-0.2171 0.4200,-0.2167 0.4211,-0.2163 0.4222,-0.2159 0.4232,-0.2155 0.4243,-0.2175 0.4254,-0.2174 0.4265,-0.2173 0.4275,-0.2168 0.4286,-0.2166 0.4297,-0.2163 0.4308,-0.2161 0.4318,-0.2159 0.4329,-0.2156 0.4340,-0.2154 0.4351,-0.2138 0.4361,-0.2138 0.4372,-0.2137 0.4383,-0.2137 0.4394,-0.2137 0.4405,-0.2137 0.4415,-0.2136 0.4426,-0.2136 0.4437,-0.2135 0.4448,-0.2135 0.4458,-0.2134 0.4469,-0.2133 0.4480,-0.2131 0.4491,-0.2125 0.4501,-0.2118 0.4512,-0.2113 0.4523,-0.2109 0.4534,-0.2105 0.4544,-0.2100 0.4555,-0.2099 0.4566,-0.2099 0.4577,-0.2098 0.4587,-0.2098 0.4598,-0.2098 0.4609,-0.2098 0.4620,-0.2098 0.4630,-0.2101 0.4641,-0.2100 0.4652,-0.2112 0.4663,-0.2110"/></g><g fill="none" stroke="rgb(70%, 10%, 30%)" stroke-opacity="0.5" stroke-width="0.0050"><polyline points="-0.6079,-0.2525 -0.6068,-0.2520 -0.6057,-0.2515 -0.6046,-0.2510 -0.6036,-0.2476 -0.6025,-0.2470 -0.6014,-0.2464 -0.6003,-0.2458 -0.5993,-0.2452 -0.5982,-0.2441 -0.5971,-0.2303 -0.5960,-0.2303 -0.5950,-0.2302 -0.5939,-0.2301 -0.5928,-0.2300 -0.5917,-0.2299 -0.5907,-0.2298 -0.5896,-0.2297 -0.5885,-0.2296 -0.5874,-0.2326 -0.5864,-0.2314 -0.5853,-0.2302 -0.5842,-0.2292 -0.5831,-0.2291 -0.5821,-0.2291 -0.5810,-0.2290 -0.5799,-0.2290 -0.5788,-0.2289 -0.5778,-0.2288 -0.5767,-0.2287 -0.5756,-0.2287 -0.5745,-0.2286 -0.5735,-0.2285 -0.5724,-0.2285 -0.5713,-0.2284 -0.5702,-0.2283 -0.5692,-0.2283 -0.5681,-0.2282 -0.5670,-0.2281 -0.5659,-0.2280 -0.5649,-0.2280 -0.5638,-0.2279 -0.5627,-0.2278 -0.5616,-0.2277 -0.5606,-0.2276 -0.5595,-0.2276 -0.5584,-0.2275 -0.5573,-0.2273 -0.5562,-0.2268 -0.5552,-0.2263 -0.5541,-0.2258 -0.5530,-0.2253 -0.5519,-0.2253 -0.5509,-0.2253 -0.5498,-0.2253 -0.5487,-0.2253 -0.5476,-0.2252 -0.5466,-0.2252 -0.5455,-0.2252 -0.5444,-0.2252 -0.5433,-0.2252 -0.5423,-0.2251 -0.5412,-0.2251 -0.5401,-0.2251 -0.5390,-0.2251 -0.5380,-0.2251 -0.5369,-0.2250 -0.5358,-0.2250 -0.5347,-0.2250 -0.5337,-0.2250 -0.5326,-0.2250 -0.5315,-0.2249 -0.5304,-0.2249 -0.5294,-0.2249 -0.5283,-0.2249 -0.5272,-0.2248 -0.5261,-0.2248 -0.5251,-0.2248 -0.5240,-0.2248 -0.5229,-0.2248 -0.5218,-0.2248 -0.5208,-0.2247 -0.5197,-0.2247 -0.5186,-0.2247 -0.5175,-0.2247 -0.5165,-0.2247 -0.5154,-0.2247 -0.5143,-0.2247 -0.5132,-0.2247 -0.5122,-0.2247 -0.5111,-0.2247 -0.5100,-0.2247 -0.5089,-0.2247 -0.5079,-0.2247 -0.5068,-0.2246 -0.5057,-0.2246 -0.5046,-0.2246 -0.5036,-0.2246 -0.5025,-0.2246 -0.5014,-0.2246 -0.5003,-0.2246 -0.4993,-0.2246 -0.4982,-0.2246 -0.4971,-0.2246 -0.4960,-0.2246 -0.4950,-0.2246 -0.4939,-0.2245 -0.4928,-0.2245 -0.4917,-0.2245 -0.4907,-0.2245 -0.4896,-0.2245 -0.4885,-0.2245 -0.4874,-0.2245 -0.4864,-0.2245 -0.4853,-0.2245 -0.4842,-0.2245 -0.4831,-0.2244 -0.4821,-0.2244 -0.4810,-0.2244 -0.4799,-0.2244 -0.4788,-0.2244 -0.4778,-0.2244 -0.4767,-0.2244 -0.4756,-0.2244 -0.4745,-0.2244 -0.4735,-0.2242 -0.4724,-0.2239 -0.4713,-0.2235 -0.4702,-0.2232 -0.4692,-0.2228 -0.4681,-0.2224 -0.4670,-0.2221 -0.4659,-0.2217 -0.4649,-0.2213 -0.4638,-0.2210 -0.4627,-0.2206 -0.4616,-0.2205 -0.4606,-0.2204 -0.4595,-0.2203 -0.4584,-0.2202 -0.4573,-0.2201 -0.4563,-0.2201 -0.4552,-0.2200 -0.4541,-0.2199 -0.4530,-0.2198 -0.4520,-0.2197 -0.4509,-0.2196 -0.4498,-0.2195 -0.4487,-0.2194 -0.4477,-0.2193 -0.4466,-0.2192 -0.4455,-0.2191 -0.4444,-0.2190 -0.4434,-0.2189 -0.4423,-0.2188 -0.4412,-0.2187 -0.4401,-0.2186 -0.4391,-0.2185 -0.4380,-0.2184 -0.4369,-0.2183 -0.4358,-0.2182 -0.4348,-0.2181 -0.4337,-0.2180 -0.4326,-0.2179 -0.4315,-0.2178 -0.4305,-0.2177 -0.4294,-0.2175 -0.4283,-0.2174 -0.4272,-0.2173 -0.4262,-0.2172 -0.4251,-0.2171 -0.4240,-0.2170 -0.4229,-0.2169 -0.4219,-0.2169 -0.4208,-0.2168 -0.4197,-0.2168 -0.4186,-0.2168 -0.4176,-0.2167 -0.4165,-0.2167 -0.4154,-0.2167 -0.4143,-0.2166 -0.4132,-0.2166 -0.4122,-0.2165 -0.4111,-0.2165 -0.4100,-0.2165 -0.4089,-0.2164 -0.4079,-0.2164 -0.4068,-0.2163 -0.4057,-0.2162 -0.4046,-0.2150 -0.4036,-0.2138 -0.4025,-0.2126 -0.4014,-0.2117 -0.4003,-0.2112 -0.3993,-0.2107 -0.3982,-0.2102 -0.3971,-0.2097 -0.3960,-0.2092 -0.3950,-0.2087 -0.3939,-0.2082 -0.3928,-0.2079 -0.3917,-0.2078 -0.3907,-0.2077 -0.3896,-0.2077 -0.3885,-0.2076 -0.3874,-0.2075 -0.3864,-0.2074 -0.3853,-0.2074 -0.3842,-0.2073 -0.3831,-0.2072 -0.3821,-0.2071 -0.3810,-0.2070 -0.3799,-0.2069 -0.3788,-0.2069 -0.3778,-0.2071 -0.3767,-0.2071 -0.3756,-0.2071 -0.3745,-0.2071 -0.3735,-0.2071 -0.3724,-0.2071 -0.3713,-0.2071 -0.3702,-0.2071 -0.3692,-0.2070 -0.3681,-0.2070 -0.3670,-0.2070 -0.3659,-0.2070 -0.3649,-0.2070 -0.3638,-0.2070 -0.3627,-0.2070 -0.3616,-0.2069 -0.3606,-0.2069 -0.3595,-0.2069 -0.3584,-0.2899 -0.3573,-0.2898 -0.3563,-0.2898 -0.3552,-0.2898 -0.3541,-0.2897 -0.3530,-0.2859 -0.3520,-0.3001 -0.3509,-0.2986 -0.3498,-0.2985 -0.3487,-0.3615 -0.3477,-0.3054 -0.3466,-0.3457 -0.3455,-0.3454 -0.3444,-0.3451 -0.3434,-0.3449 -0.3423,-0.3446 -0.3412,-0.4211 -0.3401,-0.4211 -0.3391,-0.4210 -0.3380,-0.4210 -0.3369,-0.4209 -0.3358,-0.4209 -0.3348,-0.4209 -0.3337,-0.4208 -0.3326,-0.4208 -0.3315,-0.4207 -0.3305,-0.4207 -0.3294,-0.4206 -0.3283,-0.4206 -0.3272,-0.4205 -0.3262,-0.4205 -0.3251,-0.4204 -0.3240,-0.4204 -0.3229,-0.4203 -0.3219,-0.4203 -0.3208,-0.4202 -0.3197,-0.4201 -0.3186,-0.4201 -0.3176,-0.4200 -0.3165,-0.4200 -0.3154,-0.4199 -0.3143,-0.4199 -0.3133,-0.4198 -0.3122,-0.4198 -0.3111,-0.4197 -0.3100,-0.4196 -0.3090,-0.4196 -0.3079,-0.4195 -0.3068,-0.4195 -0.3057,-0.4194 -0.3047,-0.4193 -0.3036,-0.4193 -0.3025,-0.4192 -0.3014,-0.4191 -0.3004,-0.4191 -0.2993,-0.4190 -0.2982,-0.4190 -0.2971,-0.4189 -0.2961,-0.4188 -0.2950,-0.4187 -0.2939,-0.4187 -0.2928,-0.4186 -0.2918,-0.4185 -0.2907,-0.4185 -0.2896,-0.4184 -0.2885,-0.4183 -0.2875,-0.4183 -0.2864,-0.4182 -0.2853,-0.4181 -0.2842,-0.4180 -0.2832,-0.4180 -0.2821,-0.4179 -0.2810,-0.4178 -0.2799,-0.4177 -0.2789,-0.4163 -0.2778,-0.4127 -0.2767,-0.4090 -0.2756,-0.4054 -0.2746,-0.4016 -0.2735,-0.3979 -0.2724,-0.3941 -0.2713,-0.3902 -0.2702,-0.3876 -0.2692,-0.3865 -0.2681,-0.3853 -0.2670,-0.3841 -0.2659,-0.3829 -0.2649,-0.3817 -0.2638,-0.3805 -0.2627,-0.3792 -0.2616,-0.3780 -0.2606,-0.3767 -0.2595,-0.3755 -0.2584,-0.3742 -0.2573,-0.3729 -0.2563,-0.3716 -0.2552,-0.3702 -0.2541,-0.3689 -0.2530,-0.3676 -0.2520,-0.3662 -0.2509,-0.3648 -0.2498,-0.3634 -0.2487,-0.3620 -0.2477,-0.3606 -0.2466,-0.3600 -0.2455,-0.3596 -0.2444,-0.3592 -0.2434,-0.3588 -0.2423,-0.3585 -0.2412,-0.3581 -0.2401,-0.3577 -0.2391,-0.3573 -0.2380,-0.3569 -0.2369,-0.3565 -0.2358,-0.3560 -0.2348,-0.3556 -0.2337,-0.3552 -0.2326,-0.3548 -0.2315,-0.3544 -0.2305,-0.3539 -0.2294,-0.3535 -0.2283,-0.3530 -0.2272,-0.3526 -0.2262,-0.3521 -0.2251,-0.3517 -0.2240,-0.3512 -0.2229,-0.3508 -0.2219,-0.3410 -0.2208,-0.3409 -0.2197,-0.3408 -0.2186,-0.3406 -0.2176,-0.3405 -0.2165,-0.3404 -0.2154,-0.3451 -0.2143,-0.3443 -0.2133,-0.3436 -0.2122,-0.3428 -0.2111,-0.3420 -0.2100,-0.3412 -0.2090,-0.3404 -0.2079,-0.3396 -0.2068,-0.3392 -0.2057,-0.3389 -0.2047,-0.3386 -0.2036,-0.3383 -0.2025,-0.3380 -0.2014,-0.3377 -0.2004,-0.3374 -0.1993,-0.3371 -0.1982,-0.3368 -0.1971,-0.3365 -0.1961,-0.3362 -0.1950,-0.3359 -0.1939,-0.3356 -0.1928,-0.3353 -0.1918,-0.3349 -0.1907,-0.3345 -0.1896,-0.3341 -0.1885,-0.3336 -0.1875,-0.3332 -0.1864,-0.3327 -0.1853,-0.3323 -0.1842,-0.3318 -0.1832,-0.3313 -0.1821,-0.3309 -0.1810,-0.3304 -0.1799,-0.3299 -0.1789,-0.3294 -0.1778,-0.3289 -0.1767,-0.3284 -0.1756,-0.3279 -0.1746,-0.3265 -0.1735,-0.3250 -0.1724,-0.3234 -0.1713,-0.3218 -0.1703,-0.3202 -0.1692,-0.3186 -0.1681,-0.3170 -0.1670,-0.3153 -0.1660,-0.3137 -0.1649,-0.3126 -0.1638,-0.3116 -0.1627,-0.3106 -0.1617,-0.3096 -0.1606,-0.3086 -0.1595,-0.3075 -0.1584,-0.3065 -0.1574,-0.3062 -0.1563,-0.3051 -0.1552,-0.3040 -0.1541,-0.3030 -0.1531,-0.3019 -0.1520,-0.3008 -0.1509,-0.2997 -0.1498,-0.2986 -0.1488,-0.2966 -0.1477,-0.2945 -0.1466,-0.2935 -0.1455,-0.2931 -0.1445,-0.2928 -0.1434,-0.2924 -0.1423,-0.2920 -0.1412,-0.2916 -0.1402,-0.2912 -0.1391,-0.2908 -0.1380,-0.2904 -0.1369,-0.2900 -0.1359,-0.2895 -0.1348,-0.2891 -0.1337,-0.2887 -0.1326,-0.2883 -0.1316,-0.2870 -0.1305,-0.2851 -0.1294,-0.2833 -0.1283,-0.2813 -0.1272,-0.2794 -0.1262,-0.2775 -0.1251,-0.2755 -0.1240,-0.2735 -0.1229,-0.2718 -0.1219,-0.2711 -0.1208,-0.2705 -0.1197,-0.2698 -0.1186,-0.2691 -0.1176,-0.2685 -0.1165,-0.2678 -0.1154,-0.2671 -0.1143,-0.2664 -0.1133,-0.2657 -0.1122,-0.2650 -0.1111,-0.2643 -0.1100,-0.2636 -0.1090,-0.2632 -0.1079,-0.2621 -0.1068,-0.2614 -0.1057,-0.2606 -0.1047,-0.2603 -0.1036,-0.2601 -0.1025,-0.2599 -0.1014,-0.2597 -0.1004,-0.2594 -0.0993,-0.2592 -0.0982,-0.2590 -0.0971,-0.2587 -0.0961,-0.2585 -0.0950,-0.2582 -0.0939,-0.2580 -0.0928,-0.2577 -0.0918,-0.2575 -0.0907,-0.2575 -0.0896,-0.2572 -0.0885,-0.2567 -0.0875,-0.2558 -0.0864,-0.2543 -0.0853,-0.2527 -0.0842,-0.2511 -0.0832,-0.2495 -0.0821,-0.2478 -0.0810,-0.2467 -0.0799,-0.2463 -0.0789,-0.2458 -0.0778,-0.2453 -0.0767,-0.2449 -0.0756,-0.2444 -0.0746,-0.2439 -0.0735,-0.2435 -0.0724,-0.2430 -0.0713,-0.2425 -0.0703,-0.2420 -0.0692,-0.2415 -0.0681,-0.2410 -0.0670,-0.2405 -0.0660,-0.2403 -0.0649,-0.2402 -0.0638,-0.2401 -0.0627,-0.2401 -0.0617,-0.2400 -0.0606,-0.2400 -0.0595,-0.2399 -0.0584,-0.2399 -0.0574,-0.2398 -0.0563,-0.2397 -0.0552,-0.2397 -0.0541,-0.2396 -0.0531,-0.2395 -0.0520,-0.2394 -0.0509,-0.2391 -0.0498,-0.2387 -0.0488,-0.2383 -0.0477,-0.2380 -0.0466,-0.2376 -0.0455,-0.2372 -0.0445,-0.2368 -0.0434,-0.2365 -0.0423,-0.2361 -0.0412,-0.2357 -0.0402,-0.2353 -0.0391,-0.2352 -0.0380,-0.2350 -0.0369,-0.2349 -0.0359,-0.2347 -0.0348,-0.2345 -0.0337,-0.2344 -0.0326,-0.2342 -0.0316,-0.2340 -0.0305,-0.2339 -0.0294,-0.2337 -0.0283,-0.2335 -0.0273,-0.2334 -0.0262,-0.2332 -0.0251,-0.2330 -0.0240,-0.2328 -0.0230,-0.2326 -0.0219,-0.2325 -0.0208,-0.2323 -0.0197,-0.2321 -0.0187,-0.2319 -0.0176,-0.2317 -0.0165,-0.2315 -0.0154,-0.2314 -0.0144,-0.2314 -0.0133,-0.2313 -0.0122,-0.2313 -0.0111,-0.2312 -0.0101,-0.2312 -0.0090,-0.2312 -0.0079,-0.2311 -0.0068,-0.2311 -0.0058,-0.2310 -0.0047,-0.2310 -0.0036,-0.2309 -0.0025,-0.2309 -0.0015,-0.2308 -0.0004,-0.2308 0.0007,-0.2307 0.0018,-0.2307 0.0028,-0.2306 0.0039,-0.2306 0.0050,-0.2305 0.0061,-0.2305 0.0071,-0.2304 0.0082,-0.2304 0.0093,-0.2303 0.0104,-0.2303 0.0114,-0.2302 0.0125,-0.2301 0.0136,-0.2299 0.0147,-0.2296 0.0158,-0.2293 0.0168,-0.2289 0.0179,-0.2286 0.0190,-0.2283 0.0201,-0.2280 0.0211,-0.2279 0.0222,-0.2278 0.0233,-0.2277 0.0244,-0.2276 0.0254,-0.2274 0.0265,-0.2274 0.0276,-0.2273 0.0287,-0.2272 0.0297,-0.2271 0.0308,-0.2270 0.0319,-0.2269 0.0330,-0.2268 0.0340,-0.2267 0.0351,-0.2267 0.0362,-0.2262 0.0373,-0.2249 0.0383,-0.2239 0.0394,-0.2235 0.0405,-0.2231 0.0416,-0.2227 0.0426,-0.2223 0.0437,-0.2219 0.0448,-0.2215 0.0459,-0.2211 0.0469,-0.2206 0.0480,-0.2204 0.0491,-0.2203 0.0502,-0.2202 0.0512,-0.2201 0.0523,-0.2200 0.0534,-0.2199 0.0545,-0.2198 0.0555,-0.2197 0.0566,-0.2196 0.0577,-0.2195 0.0588,-0.2194 0.0598,-0.2193 0.0609,-0.2192 0.0620,-0.2191 0.0631,-0.2191 0.0641,-0.2190 0.0652,-0.2189 0.0663,-0.2189 0.0674,-0.2188 0.0684,-0.2188 0.0695,-0.2187 0.0706,-0.2186 0.0717,-0.2186 0.0727,-0.2185 0.0738,-0.2184 0.0749,-0.2184 0.0760,-0.2183 0.0770,-0.2182 0.0781,-0.2182 0.0792,-0.2181 0.0803,-0.2180 0.0813,-0.2179 0.0824,-0.2179 0.0835,-0.2178 0.0846,-0.2177 0.0856,-0.2176 0.0867,-0.2175 0.0878,-0.2174 0.0889,-0.2174 0.0899,-0.2173 0.0910,-0.2172 0.0921,-0.2171 0.0932,-0.2170 0.0942,-0.2157 0.0953,-0.2155 0.0964,-0.2154 0.0975,-0.2153 0.0985,-0.2151 0.0996,-0.2150 0.1007,-0.2149 0.1018,-0.2147 0.1028,-0.2146 0.1039,-0.2145 0.1050,-0.2143 0.1061,-0.2141 0.1071,-0.2140 0.1082,-0.2138 0.1093,-0.2136 0.1104,-0.2130 0.1114,-0.2127 0.1125,-0.2127 0.1136,-0.2127 0.1147,-0.2127 0.1157,-0.2127 0.1168,-0.2127 0.1179,-0.2127 0.1190,-0.2127 0.1200,-0.2127 0.1211,-0.2126 0.1222,-0.2230 0.1233,-0.2230 0.1243,-0.2229 0.1254,-0.2229 0.1265,-0.2229 0.1276,-0.2229 0.1286,-0.2228 0.1297,-0.2228 0.1308,-0.2228 0.1319,-0.2227 0.1329,-0.2227 0.1340,-0.2227 0.1351,-0.2226 0.1362,-0.2226 0.1372,-0.2226 0.1383,-0.2225 0.1394,-0.2225 0.1405,-0.2225 0.1415,-0.2224 0.1426,-0.2224 0.1437,-0.2224 0.1448,-0.2223 0.1458,-0.2223 0.1469,-0.2223 0.1480,-0.2223 0.1491,-0.2222 0.1501,-0.2218 0.1512,-0.2217 0.1523,-0.2222 0.1534,-0.2221 0.1545,-0.2221 0.1555,-0.2213 0.1566,-0.2212 0.1577,-0.2211 0.1588,-0.2210 0.1598,-0.2209 0.1609,-0.2323 0.1620,-0.2323 0.1631,-0.2323 0.1641,-0.2322 0.1652,-0.2322 0.1663,-0.2322 0.1674,-0.2322 0.1684,-0.2322 0.1695,-0.2322 0.1706,-0.2322 0.1717,-0.2322 0.1727,-0.2322 0.1738,-0.2321 0.1749,-0.2321 0.1760,-0.2321 0.1770,-0.2318 0.1781,-0.2314 0.1792,-0.2311 0.1803,-0.2307 0.1813,-0.2308 0.1824,-0.2305 0.1835,-0.2302 0.1846,-0.2299 0.1856,-0.2296 0.1867,-0.2293 0.1878,-0.2293 0.1889,-0.2293 0.1899,-0.2360 0.1910,-0.2359 0.1921,-0.2359 0.1932,-0.2358 0.1942,-0.2358 0.1953,-0.2351 0.1964,-0.2350 0.1975,-0.2349 0.1985,-0.2348 0.1996,-0.2347 0.2007,-0.2346 0.2018,-0.2344 0.2028,-0.2343 0.2039,-0.2342 0.2050,-0.2341 0.2061,-0.2340 0.2071,-0.2338 0.2082,-0.2337 0.2093,-0.2336 0.2104,-0.2334 0.2114,-0.2333 0.2125,-0.2332 0.2136,-0.2330 0.2147,-0.2330 0.2157,-0.2329 0.2168,-0.2329 0.2179,-0.2329 0.2190,-0.2329 0.2200,-0.2329 0.2211,-0.2329 0.2222,-0.2328 0.2233,-0.2328 0.2243,-0.2328 0.2254,-0.2328 0.2265,-0.2328 0.2276,-0.2341 0.2286,-0.2341 0.2297,-0.2341 0.2308,-0.2341 0.2319,-0.2450 0.2329,-0.2449 0.2340,-0.2449 0.2351,-0.2448 0.2362,-0.2447 0.2372,-0.2446 0.2383,-0.2426 0.2394,-0.2401 0.2405,-0.2387 0.2415,-0.2387 0.2426,-0.2386 0.2437,-0.2386 0.2448,-0.2385 0.2458,-0.2385 0.2469,-0.2384 0.2480,-0.2384 0.2491,-0.2383 0.2501,-0.2383 0.2512,-0.2382 0.2523,-0.2382 0.2534,-0.2381 0.2544,-0.2381 0.2555,-0.2380 0.2566,-0.2380 0.2577,-0.2379 0.2587,-0.2378 0.2598,-0.2378 0.2609,-0.2377 0.2620,-0.2377 0.2630,-0.2376 0.2641,-0.2375 0.2652,-0.2375 0.2663,-0.2374 0.2673,-0.2374 0.2684,-0.2373 0.2695,-0.2497 0.2706,-0.2497 0.2716,-0.2497 0.2727,-0.2497 0.2738,-0.2496 0.2749,-0.2496 0.2759,-0.2496 0.2770,-0.2496 0.2781,-0.2495 0.2792,-0.2495 0.2802,-0.2495 0.2813,-0.2495 0.2824,-0.2494 0.2835,-0.2494 0.2845,-0.2494 0.2856,-0.2493 0.2867,-0.2492 0.2878,-0.2492 0.2888,-0.2491 0.2899,-0.2490 0.2910,-0.2489 0.2921,-0.2488 0.2931,-0.2487 0.2942,-0.2486 0.2953,-0.2485 0.2964,-0.2485 0.2975,-0.2484 0.2985,-0.2483 0.2996,-0.2482 0.3007,-0.2481 0.3018,-0.2480 0.3028,-0.2479 0.3039,-0.2478 0.3050,-0.2477 0.3061,-0.2476 0.3071,-0.2475 0.3082,-0.2474 0.3093,-0.2473 0.3104,-0.2472 0.3114,-0.2471 0.3125,-0.2470 0.3136,-0.2469 0.3147,-0.2468 0.3157,-0.2467 0.3168,-0.2466 0.3179,-0.2465 0.3190,-0.2463 0.3200,-0.2462 0.3211,-0.2461 0.3222,-0.2460 0.3233,-0.2459 0.3243,-0.2458 0.3254,-0.2457 0.3265,-0.2455 0.3276,-0.2454 0.3286,-0.2453 0.3297,-0.2452 0.3308,-0.2451 0.3319,-0.2450 0.3329,-0.2449 0.3340,-0.2448 0.3351,-0.2447 0.3362,-0.2446 0.3372,-0.2445 0.3383,-0.2444 0.3394,-0.2443 0.3405,-0.2442 0.3415,-0.2441 0.3426,-0.2440 0.3437,-0.2439 0.3448,-0.2505 0.3458,-0.2505 0.3469,-0.2505 0.3480,-0.2505 0.3491,-0.2505 0.3501,-0.2504 0.3512,-0.2504 0.3523,-0.2504 0.3534,-0.2504 0.3544,-0.2504 0.3555,-0.2503 0.3566,-0.2503 0.3577,-0.2503 0.3587,-0.2503 0.3598,-0.2502 0.3609,-0.2502 0.3620,-0.2502 0.3630,-0.2502 0.3641,-0.2501 0.3652,-0.2501 0.3663,-0.2501 0.3673,-0.2501 0.3684,-0.2500 0.3695,-0.2500 0.3706,-0.2500 0.3716,-0.2500 0.3727,-0.2499 0.3738,-0.2864 0.3749,-0.2851 0.3759,-0.2825 0.3770,-0.2798 0.3781,-0.2771 0.3792,-0.2744 0.3802,-0.2717 0.3813,-0.2689 0.3824,-0.2661 0.3835,-0.2633 0.3845,-0.2605 0.3856,-0.2576 0.3867,-0.2547 0.3878,-0.2522 0.3888,-0.2522 0.3899,-0.2522 0.3910,-0.2522 0.3921,-0.2522 0.3931,-0.2522 0.3942,-0.2521 0.3953,-0.2521 0.3964,-0.2521 0.3974,-0.2521 0.3985,-0.2521 0.3996,-0.2521 0.4007,-0.2521 0.4017,-0.2520 0.4028,-0.2520 0.4039,-0.2520 0.4050,-0.2520 0.4060,-0.2520 0.4071,-0.2520 0.4082,-0.2520 0.4093,-0.2519 0.4103,-0.2519 0.4114,-0.2519 0.4125,-0.2519 0.4136,-0.2519 0.4146,-0.2519 0.4157,-0.2518 0.4168,-0.2518 0.4179,-0.2518 0.4189,-0.2518 0.4200,-0.2518 0.4211,-0.2518 0.4222,-0.2517 0.4232,-0.2517 0.4243,-0.2517 0.4254,-0.2517 0.4265,-0.2517 0.4275,-0.2516 0.4286,-0.2516 0.4297,-0.2516 0.4308,-0.2516 0.4318,-0.2516 0.4329,-0.2515 0.4340,-0.2515 0.4351,-0.2515 0.4361,-0.2515 0.4372,-0.2515 0.4383,-0.2514 0.4394,-0.2514 0.4405,-0.2514 0.4415,-0.2514 0.4426,-0.2514 0.4437,-0.2513 0.4448,-0.2513 0.4458,-0.2513 0.4469,-0.2513 0.4480,-0.2513 0.4491,-0.2512 0.4501,-0.2512 0.4512,-0.2512 0.4523,-0.2512 0.4534,-0.2511 0.4544,-0.2511 0.4555,-0.2511 0.4566,-0.2511 0.4577,-0.2510 0.4587,-0.2510 0.4598,-0.2510 0.4609,-0.2510 0.4620,-0.2509 0.4630,-0.2509 0.4641,-0.2509 0.4652,-0.2509 0.4663,-0.2509"/></g></g><g class="hud"><g class="frame"><g fill="rgb(100%, 100%, 100%)" fill-opacity="0.02" stroke="rgb(0%, 0%, 0%)" stroke-opacity="0" stroke-width="0"><rect height="0.7218" width="1.0777" x="-0.6096" y="-0.4522"/></g></g><g class="axis"><g class="ticks"><g class="tickglyph"><g fill="rgb(5%, 5%, 5%)" fill-opacity="0.4" stroke="rgb(5%, 5%, 5%)" stroke-opacity="0.4" stroke-width="0.0040"><g transform="rotate(-90.0, -0.6311, 0.2697)"><polyline points="-0.6311,0.2847
-0.6311,0.2547"/></g><g transform="rotate(-90.0, -0.6311, 0.1253)"><polyline points="-0.6311,0.1403
-0.6311,0.1103"/></g><g transform="rotate(-90.0, -0.6311, -0.0191)"><polyline points="-0.6311,-0.0041
-0.6311,-0.0341"/></g><g transform="rotate(-90.0, -0.6311, -0.1634)"><polyline points="-0.6311,-0.1484
-0.6311,-0.1784"/></g><g transform="rotate(-90.0, -0.6311, -0.3078)"><polyline points="-0.6311,-0.2928
-0.6311,-0.3228"/></g><g transform="rotate(-90.0, -0.6311, -0.4522)"><polyline points="-0.6311,-0.4372
-0.6311,-0.4672"/></g></g></g><g class="ticktext"><g fill="rgb(5%, 5%, 5%)" fill-opacity="1.0" font-size="0.0358" stroke="none" stroke-width="0.0" text-anchor="end"><text x="-0.6569" y="0.2796">-15%</text><text x="-0.6569" y="0.1352">-10%</text><text x="-0.6569" y="-0.0092"> -5%</text><text x="-0.6569" y="-0.1535">  0%</text><text x="-0.6569" y="-0.2979">  5%</text><text x="-0.6569" y="-0.4423"> 10%</text></g></g><g class="ticklines"><g fill="none" stroke="rgb(5%, 5%, 5%)" stroke-opacity="0.05" stroke-width="0.0050"><polyline points="-0.6079,0.2697 0.4663,0.2697"/><polyline points="-0.6079,0.1253 0.4663,0.1253"/><polyline points="-0.6079,-0.0191 0.4663,-0.0191"/><polyline points="-0.6079,-0.1634 0.4663,-0.1634"/><polyline points="-0.6079,-0.3078 0.4663,-0.3078"/><polyline points="-0.6079,-0.4522 0.4663,-0.4522"/></g></g></g><g class="axisbar"><g fill="rgb(5%, 5%, 5%)" fill-opacity="0.4" stroke="rgb(0%, 0%, 0%)" stroke-opacity="0" stroke-width="0"><rect height="0.7247" width="0.0029" x="-0.6197" y="-0.4536"/></g></g></g><g class="axis"><g class="ticks"><g class="tickglyph"><g fill="rgb(5%, 5%, 5%)" fill-opacity="0.4" stroke="rgb(5%, 5%, 5%)" stroke-opacity="0.4" stroke-width="0.0040"><polyline points="-0.5389,0.3063
-0.5389,0.2763"/><polyline points="-0.4023,0.3063
-0.4023,0.2763"/><polyline points="-0.2673,0.3063
-0.2673,0.2763"/><polyline points="-0.1307,0.3063
-0.1307,0.2763"/><polyline points="0.0036,0.3063
0.0036,0.2763"/><polyline points="0.1401,0.3063
0.1401,0.2763"/><polyline points="0.2744,0.3063
0.2744,0.2763"/><polyline points="0.4109,0.3063
0.4109,0.2763"/></g></g><g class="ticktext"><g fill="rgb(5%, 5%, 5%)" fill-opacity="1.0" font-size="0.0358" stroke="none" stroke-width="0.0" text-anchor="end"><text transform="rotate(-45.0, -0.5389, 0.3371)" x="-0.5389" y="0.3371">30 Jun 2019</text><text transform="rotate(-45.0, -0.4023, 0.3371)" x="-0.4023" y="0.3371">31 Dec 2019</text><text transform="rotate(-45.0, -0.2673, 0.3371)" x="-0.2673" y="0.3371">30 Jun 2020</text><text transform="rotate(-45.0, -0.1307, 0.3371)" x="-0.1307" y="0.3371">31 Dec 2020</text><text transform="rotate(-45.0, 0.0036, 0.3371)" x="0.0036" y="0.3371">30 Jun 2021</text><text transform="rotate(-45.0, 0.1401, 0.3371)" x="0.1401" y="0.3371">31 Dec 2021</text><text transform="rotate(-45.0, 0.2744, 0.3371)" x="0.2744" y="0.3371">30 Jun 2022</text><text transform="rotate(-45.0, 0.4109, 0.3371)" x="0.4109" y="0.3371">31 Dec 2022</text></g></g><g class="ticklines"><g fill="none" stroke="rgb(5%, 5%, 5%)" stroke-opacity="0.05" stroke-width="0.0050"><polyline points="-0.5389,0.2697 -0.5389,-0.4522"/><polyline points="-0.4023,0.2697 -0.4023,-0.4522"/><polyline points="-0.2673,0.2697 -0.2673,-0.4522"/><polyline points="-0.1307,0.2697 -0.1307,-0.4522"/><polyline points="0.0036,0.2697 0.0036,-0.4522"/><polyline points="0.1401,0.2697 0.1401,-0.4522"/><polyline points="0.2744,0.2697 0.2744,-0.4522"/><polyline points="0.4109,0.2697 0.4109,-0.4522"/></g></g></g><g class="axisbar"><g fill="rgb(5%, 5%, 5%)" fill-opacity="0.4" stroke="rgb(0%, 0%, 0%)" stroke-opacity="0" stroke-width="0"><rect height="0.0029" width="1.0770" x="-0.6093" y="0.2769"/></g></g></g><g class="legend"><g class="legendBorder"><g fill="rgb(5%, 5%, 5%)" fill-opacity="0" stroke="rgb(5%, 5%, 5%)" stroke-opacity="1.0" stroke-width="0.0025"><rect height="0.2436" width="0.2139" x="0.5038" y="-0.1976"/></g></g><g class="legendContent"><g fill="rgb(5%, 5%, 5%)" fill-opacity="1.0" font-size="0.0179" stroke="none" stroke-width="0.0" text-anchor="start"><text x="0.5397" y="0.0045">99%</text></g><g fill="none" stroke="rgb(70%, 10%, 30%)" stroke-opacity="0.5" stroke-width="0.0050"><polyline points="0.5728,0 0.6802,0"/></g><g fill="rgb(5%, 5%, 5%)" fill-opacity="1.0" font-size="0.0179" stroke="none" stroke-width="0.0" text-anchor="start"><text x="0.5397" y="-0.0334">90%</text></g><g fill="none" stroke="rgb(21%, 48%, -28%)" stroke-opacity="0.75" stroke-width="0.0050"><polyline points="0.5728,-0.0379 0.6802,-0.0379"/></g><g fill="rgb(5%, 5%, 5%)" fill-opacity="1.0" font-size="0.0179" stroke="none" stroke-width="0.0" text-anchor="start"><text x="0.5397" y="-0.0713">50%</text></g><g fill="none" stroke="rgb(10%, 40%, 80%)" stroke-opacity="1.0" stroke-width="0.0050"><polyline points="0.5728,-0.0758 0.6802,-0.0758"/></g><g fill="rgb(5%, 5%, 5%)" fill-opacity="1.0" font-size="0.0179" stroke="none" stroke-width="0.0" text-anchor="start"><text x="0.5397" y="-0.1092">10%</text></g><g fill="none" stroke="rgb(21%, 48%, -28%)" stroke-opacity="0.75" stroke-width="0.0050"><polyline points="0.5728,-0.1137 0.6802,-0.1137"/></g><g fill="rgb(5%, 5%, 5%)" fill-opacity="1.0" font-size="0.0179" stroke="none" stroke-width="0.0" text-anchor="start"><text x="0.5397" y="-0.1471">1%</text></g><g fill="none" stroke="rgb(70%, 10%, 30%)" stroke-opacity="0.5" stroke-width="0.0050"><polyline points="0.5728,-0.1516 0.6802,-0.1516"/></g></g></g><g class="frame"><g fill="rgb(100%, 100%, 100%)" fill-opacity="0.02" stroke="rgb(0%, 0%, 0%)" stroke-opacity="0" stroke-width="0"><rect height="1.0" width="1.5" x="-0.75" y="-0.5"/></g></g></g></svg>