<svg height="300" viewBox="-0.75 -0.5 1.5 1.0" width="450" xmlns="http://www.w3.org/2000/svg" xmlns:xlink="http://www.w3.org/1999/xlink"><style>svg {
  color-scheme: light dark;
}
{
  .canvas g, .title g, .axisbar g, .ticktext g, .tickglyph g, .ticklines g, .legendContent g text {
    fill: rgb(5%, 5%, 5%);
  }
  .ticklines g, .tickglyph g, .legendBorder g {
    stroke: rgb(5%, 5%, 5%);
  }
  .legendBorder g {
    fill: rgb(94%, 94%, 94%);
  }
}
@media (prefers-color-scheme:dark) {
  .canvas g, .title g, .axisbar g, .ticktext g, .tickglyph g, .ticklines g, .legendContent g text {
    fill: rgb(94%, 94%, 94%);
  }
  .ticklines g, .tickglyph g, .legendBorder g {
    stroke: rgb(94%, 94%, 94%);
  }
  .legendBorder g {
    fill: rgb(5%, 5%, 5%);
  }
}</style><g class="chart"><g fill="rgb(2%, 73%, 80%)" fill-opacity="1.0" stroke="rgb(2%, 29%, 48%)" stroke-opacity="1.0" stroke-width="0.0100"><circle cx="-0.3301" cy="0.3045" r="0.0025"/><circle cx="-0.0919" cy="0.2326" r="0.0025"/><circle cx="0.2154" cy="0.2274" r="0.0025"/><circle cx="0.0552" cy="0.1760" r="0.0025"/><circle cx="0.3385" cy="0.3020" r="0.0025"/><circle cx="0.0390" cy="0.2664" r="0.0025"/><circle cx="0.1311" cy="0.2544" r="0.0025"/><circle cx="0.0069" cy="0.3016" r="0.0025"/><circle cx="0.0837" cy="0.1934" r="0.0025"/><circle cx="0.1144" cy="0.3023" r="0.0025"/><circle cx="0.0068" cy="0.3008" r="0.0025"/><circle cx="-0.0551" cy="0.2944" r="0.0025"/><circle cx="0.0676" cy="0.2570" r="0.0025"/><circle cx="0.1594" cy="0.2945" r="0.0025"/><circle cx="-0.0845" cy="0.2612" r="0.0025"/><circle cx="0.2941" cy="0.1951" r="0.0025"/><circle cx="0.0526" cy="0.2607" r="0.0025"/><circle cx="-0.0085" cy="0.2476" r="0.0025"/><circle cx="0.1855" cy="0.3103" r="0.0025"/><circle cx="-0.0972" cy="0.1867" r="0.0025"/><circle cx="0.1695" cy="0.1662" r="0.0025"/><circle cx="-0.1416" cy="0.1525" r="0.0025"/><circle cx="0.1396" cy="0.2465" r="0.0025"/><circle cx="-0.0971" cy="0.3063" r="0.0025"/><circle cx="0.0506" cy="0.3187" r="0.0025"/><circle cx="0.1545" cy="0.2594" r="0.0025"/><circle cx="0.0951" cy="0.2051" r="0.0025"/><circle cx="0.2397" cy="0.2392" r="0.0025"/><circle cx="-0.1088" cy="0.2437" r="0.0025"/><circle cx="0.1220" cy="0.2611" r="0.0025"/><circle cx="0.0790" cy="0.2604" r="0.0025"/><circle cx="-0.2399" cy="0.3167" r="0.0025"/><circle cx="-0.1856" cy="0.1717" r="0.0025"/><circle cx="0.0056" cy="0.3068" r="0.0025"/><circle cx="-0.1123" cy="0.2134" r="0.0025"/><circle cx="0.2862" cy="0.0356" r="0.0025"/><circle cx="-0.1691" cy="0.2939" r="0.0025"/><circle cx="-0.0388" cy="0.1760" r="0.0025"/><circle cx="-0.2477" cy="0.2714" r="0.0025"/><circle cx="0.1104" cy="0.2765" r="0.0025"/><circle cx="-0.2342" cy="0.2091" r="0.0025"/><circle cx="-0.0098" cy="0.2280" r="0.0025"/><circle cx="0.2175" cy="0.2334" r="0.0025"/><circle cx="-0.1737" cy="0.2219" r="0.0025"/><circle cx="0.0510" cy="0.2899" r="0.0025"/><circle cx="-0.2524" cy="0.3180" r="0.0025"/><circle cx="-0.3670" cy="0.3209" r="0.0025"/><circle cx="-0.2798" cy="0.3135" r="0.0025"/><circle cx="-0.0587" cy="0.3078" r="0.0025"/><circle cx="0.2130" cy="0.2809" r="0.0025"/><circle cx="-0.1358" cy="0.2181" r="0.0025"/><circle cx="-0.2028" cy="0.2424" r="0.0025"/><circle cx="-0.0268" cy="0.3148" r="0.0025"/><circle cx="-0.5028" cy="0.3072" r="0.0025"/><circle cx="0.3017" cy="0.2691" r="0.0025"/><circle cx="0.0403" cy="0.3012" r="0.0025"/><circle cx="-0.1908" cy="0.3224" r="0.0025"/><circle cx="-0.1272" cy="0.2916" r="0.0025"/><circle cx="-0.5016" cy="0.2951" r="0.0025"/><circle cx="-0.0129" cy="0.2819" r="0.0025"/><circle cx="-0.0799" cy="0.2152" r="0.0025"/><circle cx="-0.0806" cy="0.0927" r="0.0025"/><circle cx="0.4346" cy="0.2486" r="0.0025"/><circle cx="0.2435" cy="0.2708" r="0.0025"/><circle cx="0.0240" cy="0.2656" r="0.0025"/><circle cx="0.0896" cy="0.3031" r="0.0025"/><circle cx="-0.0765" cy="0.3155" r="0.0025"/><circle cx="-0.3309" cy="0.3069" r="0.0025"/><circle cx="0.1743" cy="0.3154" r="0.0025"/><circle cx="0.3242" cy="0.2911" r="0.0025"/><circle cx="0.1722" cy="0.3047" r="0.0025"/><circle cx="-0.0422" cy="0.2432" r="0.0025"/><circle cx="-0.1589" cy="0.2784" r="0.0025"/><circle cx="-0.0275" cy="0.2222" r="0.0025"/><circle cx="-0.1776" cy="0.1551" r="0.0025"/><circle cx="-0.0617" cy="0.2577" r="0.0025"/><circle cx="-0.0784" cy="0.2643" r="0.0025"/><circle cx="-0.1301" cy="0.2843" r="0.0025"/><circle cx="0.6100" cy="0.2865" r="0.0025"/><circle cx="0.0582" cy="0.2873" r="0.0025"/><circle cx="0.1213" cy="0.2520" r="0.0025"/><circle cx="0.1370" cy="0.0590" r="0.0025"/><circle cx="0.0716" cy="0.2645" r="0.0025"/><circle cx="0.0550" cy="0.2710" r="0.0025"/><circle cx="0.0708" cy="0.2553" r="0.0025"/><circle cx="-0.1222" cy="0.2585" r="0.0025"/><circle cx="0.0220" cy="0.2632" r="0.0025"/><circle cx="0.1351" cy="0.2856" r="0.0025"/><circle cx="-0.0252" cy="0.2866" r="0.0025"/><circle cx="0.1660" cy="0.2422" r="0.0025"/><circle cx="-0.1689" cy="0.2936" r="0.0025"/><circle cx="-0.2208" cy="0.2385" r="0.0025"/><circle cx="0.0217" cy="0.2149" r="0.0025"/><circle cx="0.2487" cy="0.2336" r="0.0025"/><circle cx="0.0873" cy="0.2873" r="0.0025"/><circle cx="0.0386" cy="0.3017" r="0.0025"/><circle cx="0.0542" cy="0.3078" r="0.0025"/><circle cx="0.0700" cy="0.3116" r="0.0025"/><circle cx="-0.0092" cy="0.3201" r="0.0025"/><circle cx="0.0221" cy="0.3129" r="0.0025"/><circle cx="0.2110" cy="0.3157" r="0.0025"/><circle cx="0.2556" cy="0.2413" r="0.0025"/><circle cx="0.1302" cy="0.2917" r="0.0025"/><circle cx="0.1137" cy="0.2212" r="0.0025"/><circle cx="-0.2692" cy="0.2649" r="0.0025"/><circle cx="0.1438" cy="0.3192" r="0.0025"/><circle cx="-0.0545" cy="0.2645" r="0.0025"/><circle cx="-0.0401" cy="0.3173" r="0.0025"/><circle cx="0.3272" cy="0.2554" r="0.0025"/><circle cx="0.0379" cy="0.1995" r="0.0025"/><circle cx="0.0668" cy="0.2858" r="0.0025"/><circle cx="0.0817" cy="0.2758" r="0.0025"/><circle cx="0.1560" cy="0.3100" r="0.0025"/><circle cx="0.1991" cy="0.3026" r="0.0025"/><circle cx="-0.0665" cy="0.2972" r="0.0025"/><circle cx="0.0503" cy="0.2979" r="0.0025"/><circle cx="0.0506" cy="0.3065" r="0.0025"/><circle cx="-0.0082" cy="0.2962" r="0.0025"/><circle cx="0.0503" cy="0.2973" r="0.0025"/><circle cx="-0.2297" cy="0.2386" r="0.0025"/><circle cx="-0.0840" cy="0.2557" r="0.0025"/><circle cx="0.0657" cy="0.2030" r="0.0025"/><circle cx="0.0957" cy="0.2390" r="0.0025"/><circle cx="0.2421" cy="0.2587" r="0.0025"/><circle cx="-0.0659" cy="0.2558" r="0.0025"/><circle cx="-0.0233" cy="0.1850" r="0.0025"/><circle cx="-0.2604" cy="0.2353" r="0.0025"/><circle cx="0.1095" cy="0.3012" r="0.0025"/><circle cx="0.1251" cy="0.2337" r="0.0025"/><circle cx="0.2700" cy="0.2872" r="0.0025"/><circle cx="0.1231" cy="0.1719" r="0.0025"/><circle cx="-0.0654" cy="0.1353" r="0.0025"/><circle cx="0.0350" cy="0.2085" r="0.0025"/><circle cx="-0.1532" cy="0.1244" r="0.0025"/><circle cx="0.1365" cy="0.1152" r="0.0025"/><circle cx="0.3223" cy="0.1233" r="0.0025"/><circle cx="-0.0921" cy="0.2691" r="0.0025"/><circle cx="0.0488" cy="0.2887" r="0.0025"/><circle cx="0.2612" cy="0.2373" r="0.0025"/><circle cx="0.0914" cy="0.2811" r="0.0025"/><circle cx="0.0764" cy="0.2862" r="0.0025"/><circle cx="-0.0352" cy="0.2776" r="0.0025"/><circle cx="-0.0357" cy="0.2052" r="0.0025"/><circle cx="-0.0078" cy="0.2433" r="0.0025"/><circle cx="-0.1343" cy="0.2889" r="0.0025"/><circle cx="0.0903" cy="0.2902" r="0.0025"/><circle cx="0.1466" cy="0.2927" r="0.0025"/><circle cx="-0.0210" cy="0.3182" r="0.0025"/><circle cx="-0.0637" cy="0.2895" r="0.0025"/><circle cx="-0.0641" cy="0.2747" r="0.0025"/><circle cx="-0.0221" cy="0.2994" r="0.0025"/><circle cx="-0.0361" cy="0.2653" r="0.0025"/><circle cx="0.1329" cy="0.1975" r="0.0025"/><circle cx="0.2436" cy="0.2573" r="0.0025"/><circle cx="0.0487" cy="0.3198" r="0.0025"/><circle cx="0.1713" cy="0.3083" r="0.0025"/><circle cx="-0.1301" cy="0.3006" r="0.0025"/><circle cx="-0.0632" cy="0.3050" r="0.0025"/><circle cx="0.2668" cy="0.3202" r="0.0025"/><circle cx="0.0754" cy="0.3000" r="0.0025"/><circle cx="-0.3082" cy="0.2866" r="0.0025"/><circle cx="-0.1058" cy="0.2834" r="0.0025"/><circle cx="0.1720" cy="0.2491" r="0.0025"/><circle cx="0.2395" cy="0.2670" r="0.0025"/><circle cx="0.0751" cy="0.2628" r="0.0025"/><circle cx="-0.1020" cy="0.2912" r="0.0025"/><circle cx="-0.0486" cy="0.2691" r="0.0025"/><circle cx="-0.1724" cy="0.2732" r="0.0025"/><circle cx="-0.1887" cy="0.2835" r="0.0025"/><circle cx="0.0474" cy="0.3085" r="0.0025"/><circle cx="0.1867" cy="0.2828" r="0.0025"/><circle cx="0.3347" cy="0.3181" r="0.0025"/><circle cx="-0.0872" cy="0.1081" r="0.0025"/><circle cx="-0.0621" cy="0.0160" r="0.0025"/><circle cx="-0.2137" cy="0.0489" r="0.0025"/><circle cx="0.1157" cy="0.2609" r="0.0025"/><circle cx="0.1027" cy="0.1018" r="0.0025"/><circle cx="0.1293" cy="0.1315" r="0.0025"/><circle cx="-0.0203" cy="0.1523" r="0.0025"/><circle cx="0.0334" cy="0.2473" r="0.0025"/><circle cx="0.1416" cy="0.1756" r="0.0025"/><circle cx="0.3004" cy="0.2352" r="0.0025"/><circle cx="-0.0587" cy="0.1816" r="0.0025"/><circle cx="0.1120" cy="0.1648" r="0.0025"/><circle cx="0.1644" cy="0.3073" r="0.0025"/><circle cx="-0.1243" cy="0.1214" r="0.0025"/><circle cx="0.1371" cy="0.1109" r="0.0025"/><circle cx="-0.2169" cy="0.3047" r="0.0025"/><circle cx="-0.3155" cy="0.3147" r="0.0025"/><circle cx="-0.3772" cy="0.0756" r="0.0025"/><circle cx="0.2787" cy="0.2593" r="0.0025"/><circle cx="0.2234" cy="0.2903" r="0.0025"/><circle cx="0.1408" cy="0.2599" r="0.0025"/><circle cx="0.1659" cy="0.1983" r="0.0025"/><circle cx="0.3206" cy="0.3027" r="0.0025"/><circle cx="-0.0832" cy="0.2868" r="0.0025"/><circle cx="0.0839" cy="0.3205" r="0.0025"/><circle cx="-0.0712" cy="0.2475" r="0.0025"/><circle cx="-0.0853" cy="0.2647" r="0.0025"/><circle cx="0.2270" cy="0.1619" r="0.0025"/><circle cx="0.0072" cy="0.1653" r="0.0025"/><circle cx="0.2245" cy="0.2966" r="0.0025"/><circle cx="-0.1851" cy="0.3020" r="0.0025"/><circle cx="-0.0849" cy="0.2339" r="0.0025"/><circle cx="0.1480" cy="0.2705" r="0.0025"/><circle cx="-0.0962" cy="0.1773" r="0.0025"/><circle cx="0.0189" cy="0.1948" r="0.0025"/><circle cx="-0.3067" cy="0.1588" r="0.0025"/><circle cx="0.0577" cy="0.2488" r="0.0025"/><circle cx="-0.2580" cy="0.3120" r="0.0025"/><circle cx="0.0320" cy="0.2559" r="0.0025"/><circle cx="-0.0202" cy="0.1375" r="0.0025"/><circle cx="-0.2084" cy="0.1961" r="0.0025"/><circle cx="0.1667" cy="0.2325" r="0.0025"/><circle cx="0.2064" cy="0.2908" r="0.0025"/><circle cx="0.3085" cy="0.0724" r="0.0025"/><circle cx="-0.3070" cy="0.2768" r="0.0025"/><circle cx="0.0447" cy="0.2226" r="0.0025"/><circle cx="0.0461" cy="0.3021" r="0.0025"/><circle cx="0.2419" cy="0.0329" r="0.0025"/><circle cx="0.4305" cy="0.0695" r="0.0025"/><circle cx="0.2470" cy="0.2479" r="0.0025"/><circle cx="0.0821" cy="0.2212" r="0.0025"/><circle cx="0.0935" cy="0.2718" r="0.0025"/><circle cx="0.2402" cy="0.0448" r="0.0025"/><circle cx="-0.0661" cy="0.3047" r="0.0025"/><circle cx="0.1647" cy="0.1934" r="0.0025"/><circle cx="-0.1516" cy="0.1568" r="0.0025"/><circle cx="-0.0926" cy="0.1982" r="0.0025"/><circle cx="0.1288" cy="0.1330" r="0.0025"/><circle cx="0.1166" cy="0.2029" r="0.0025"/><circle cx="0.0433" cy="0.2980" r="0.0025"/><circle cx="-0.3987" cy="0.2524" r="0.0025"/><circle cx="-0.0201" cy="0.0386" r="0.0025"/><circle cx="-0.0311" cy="0.2584" r="0.0025"/><circle cx="-0.0188" cy="0.1143" r="0.0025"/><circle cx="-0.3089" cy="0.2102" r="0.0025"/><circle cx="-0.4331" cy="0.0332" r="0.0025"/><circle cx="-0.0085" cy="0.1215" r="0.0025"/><circle cx="-0.2836" cy="0.2972" r="0.0025"/><circle cx="-0.1148" cy="0.1360" r="0.0025"/><circle cx="0.2451" cy="0.1305" r="0.0025"/><circle cx="0.0337" cy="0.0441" r="0.0025"/><circle cx="0.1639" cy="0.0709" r="0.0025"/><circle cx="0.3046" cy="0.2468" r="0.0025"/><circle cx="0.0204" cy="0.2765" r="0.0025"/><circle cx="0.0959" cy="0.0792" r="0.0025"/><circle cx="0.2724" cy="0.3063" r="0.0025"/><circle cx="-0.0555" cy="0.2400" r="0.0025"/><circle cx="0.0816" cy="0.3162" r="0.0025"/><circle cx="0.0943" cy="0.2214" r="0.0025"/><circle cx="-0.1942" cy="0.2246" r="0.0025"/><circle cx="0.0434" cy="0.1228" r="0.0025"/><circle cx="0.0694" cy="0.0973" r="0.0025"/><circle cx="0.0693" cy="0.2453" r="0.0025"/><circle cx="0.2179" cy="0.3063" r="0.0025"/><circle cx="0.0195" cy="0.2809" r="0.0025"/><circle cx="-0.3680" cy="0.1662" r="0.0025"/><circle cx="-0.2494" cy="0.2421" r="0.0025"/><circle cx="0.0565" cy="0.1605" r="0.0025"/><circle cx="0.0066" cy="0.2826" r="0.0025"/><circle cx="-0.0192" cy="0.1475" r="0.0025"/><circle cx="0.0318" cy="0.2980" r="0.0025"/><circle cx="0.0956" cy="0.2044" r="0.0025"/><circle cx="0.0828" cy="0.2653" r="0.0025"/><circle cx="-0.0440" cy="0.2011" r="0.0025"/><circle cx="-0.3528" cy="0.2082" r="0.0025"/><circle cx="-0.0210" cy="0.1993" r="0.0025"/><circle cx="-0.1371" cy="0.1251" r="0.0025"/><circle cx="-0.0073" cy="0.2216" r="0.0025"/><circle cx="-0.0462" cy="0.1857" r="0.0025"/><circle cx="0.1761" cy="0.1830" r="0.0025"/><circle cx="-0.0973" cy="0.2016" r="0.0025"/><circle cx="-0.0071" cy="0.2101" r="0.0025"/><circle cx="-0.0724" cy="0.0354" r="0.0025"/><circle cx="-0.3529" cy="0.0320" r="0.0025"/><circle cx="0.2186" cy="0.0626" r="0.0025"/><circle cx="0.0205" cy="0.1314" r="0.0025"/><circle cx="0.1385" cy="-0.2004" r="0.0025"/><circle cx="0.1379" cy="-0.0397" r="0.0025"/><circle cx="-0.1637" cy="0.3006" r="0.0025"/><circle cx="-0.0075" cy="0.1139" r="0.0025"/><circle cx="-0.1262" cy="-0.2373" r="0.0025"/><circle cx="-0.0875" cy="0.0623" r="0.0025"/><circle cx="-0.0610" cy="0.0949" r="0.0025"/><circle cx="0.1131" cy="0.0253" r="0.0025"/><circle cx="0.0999" cy="0.1614" r="0.0025"/><circle cx="-0.2472" cy="0.1936" r="0.0025"/><circle cx="0.0053" cy="0.1107" r="0.0025"/><circle cx="0.1004" cy="0.0891" r="0.0025"/><circle cx="0.0201" cy="0.1200" r="0.0025"/><circle cx="0.1530" cy="-0.1987" r="0.0025"/><circle cx="0.2179" cy="0.0219" r="0.0025"/><circle cx="0.1637" cy="0.2684" r="0.0025"/><circle cx="0.0976" cy="0.1680" r="0.0025"/><circle cx="-0.1751" cy="0.0977" r="0.0025"/><circle cx="0.0447" cy="0.1743" r="0.0025"/><circle cx="-0.1242" cy="0.2353" r="0.0025"/><circle cx="0.0058" cy="0.2829" r="0.0025"/><circle cx="0.1631" cy="0.0615" r="0.0025"/><circle cx="-0.0712" cy="0.3041" r="0.0025"/><circle cx="-0.0725" cy="0.1039" r="0.0025"/><circle cx="0.4338" cy="0.0276" r="0.0025"/><circle cx="-0.0047" cy="0.1566" r="0.0025"/><circle cx="0.2100" cy="0.2684" r="0.0025"/><circle cx="-0.0944" cy="0.1506" r="0.0025"/><circle cx="0.0441" cy="0.2099" r="0.0025"/><circle cx="-0.0827" cy="0.2766" r="0.0025"/><circle cx="0.0825" cy="0.2385" r="0.0025"/><circle cx="0.2089" cy="0.0187" r="0.0025"/><circle cx="-0.1189" cy="0.1656" r="0.0025"/><circle cx="0.3070" cy="-0.0819" r="0.0025"/><circle cx="-0.0922" cy="0.0233" r="0.0025"/><circle cx="-0.2080" cy="0.1341" r="0.0025"/><circle cx="-0.0325" cy="0.1067" r="0.0025"/><circle cx="0.2207" cy="0.2319" r="0.0025"/><circle cx="0.0823" cy="0.1475" r="0.0025"/><circle cx="-0.0308" cy="0.0418" r="0.0025"/><circle cx="-0.0942" cy="0.1735" r="0.0025"/><circle cx="-0.1966" cy="0.1566" r="0.0025"/><circle cx="0.0055" cy="0.2550" r="0.0025"/><circle cx="0.0572" cy="0.1595" r="0.0025"/><circle cx="0.0573" cy="0.2480" r="0.0025"/><circle cx="-0.0188" cy="0.3070" r="0.0025"/><circle cx="-0.1721" cy="0.2277" r="0.0025"/><circle cx="-0.0457" cy="0.1904" r="0.0025"/><circle cx="0.1978" cy="0.2313" r="0.0025"/><circle cx="0.0705" cy="0.3041" r="0.0025"/><circle cx="0.0950" cy="0.2830" r="0.0025"/><circle cx="-0.1451" cy="0.3114" r="0.0025"/><circle cx="-0.0069" cy="0.1359" r="0.0025"/><circle cx="-0.0191" cy="0.0902" r="0.0025"/><circle cx="0.1584" cy="0.0199" r="0.0025"/><circle cx="0.0574" cy="0.1416" r="0.0025"/><circle cx="-0.1451" cy="0.2894" r="0.0025"/><circle cx="-0.1473" cy="0.1603" r="0.0025"/><circle cx="-0.0327" cy="0.2329" r="0.0025"/><circle cx="-0.0066" cy="0.2140" r="0.0025"/><circle cx="-0.2526" cy="0.0044" r="0.0025"/><circle cx="-0.0469" cy="0.2061" r="0.0025"/><circle cx="0.0714" cy="0.3057" r="0.0025"/><circle cx="0.1235" cy="0.1795" r="0.0025"/><circle cx="0.0068" cy="0.2895" r="0.0025"/><circle cx="-0.2545" cy="0.1345" r="0.0025"/><circle cx="0.1363" cy="0.1852" r="0.0025"/><circle cx="-0.0062" cy="0.3126" r="0.0025"/><circle cx="0.0975" cy="0.3210" r="0.0025"/><circle cx="0.1232" cy="0.2985" r="0.0025"/><circle cx="0.0455" cy="0.1078" r="0.0025"/><circle cx="-0.0450" cy="0.1384" r="0.0025"/><circle cx="-0.0068" cy="0.1716" r="0.0025"/><circle cx="-0.0195" cy="0.2115" r="0.0025"/><circle cx="-0.0585" cy="0.3047" r="0.0025"/><circle cx="0.1998" cy="0.2461" r="0.0025"/><circle cx="0.1350" cy="0.2429" r="0.0025"/><circle cx="-0.0442" cy="0.1941" r="0.0025"/><circle cx="-0.0964" cy="0.2494" r="0.0025"/><circle cx="-0.0198" cy="0.1586" r="0.0025"/><circle cx="-0.2271" cy="0.2784" r="0.0025"/><circle cx="0.0185" cy="0.2293" r="0.0025"/><circle cx="0.0455" cy="-0.0883" r="0.0025"/><circle cx="0.1620" cy="0.0886" r="0.0025"/><circle cx="0.0070" cy="0.2847" r="0.0025"/><circle cx="-0.0195" cy="0.2966" r="0.0025"/><circle cx="0.0450" cy="0.2315" r="0.0025"/><circle cx="0.1987" cy="0.2066" r="0.0025"/><circle cx="-0.0311" cy="0.2671" r="0.0025"/><circle cx="0.0190" cy="0.1335" r="0.0025"/><circle cx="-0.1861" cy="0.2252" r="0.0025"/><circle cx="0.1598" cy="0.2512" r="0.0025"/><circle cx="-0.2119" cy="0.2848" r="0.0025"/><circle cx="0.0959" cy="-0.1441" r="0.0025"/><circle cx="-0.0449" cy="-0.0820" r="0.0025"/><circle cx="0.1990" cy="0.1970" r="0.0025"/><circle cx="-0.0826" cy="0.2882" r="0.0025"/><circle cx="0.0188" cy="0.2040" r="0.0025"/><circle cx="-0.0193" cy="0.1692" r="0.0025"/><circle cx="-0.0840" cy="0.2721" r="0.0025"/><circle cx="-0.0847" cy="0.2492" r="0.0025"/><circle cx="-0.1769" cy="0.2482" r="0.0025"/><circle cx="-0.1527" cy="0.2646" r="0.0025"/><circle cx="-0.1541" cy="0.2532" r="0.0025"/><circle cx="0.1124" cy="0.1392" r="0.0025"/><circle cx="0.0201" cy="-0.0245" r="0.0025"/><circle cx="0.1388" cy="0.2684" r="0.0025"/><circle cx="0.0201" cy="-0.0244" r="0.0025"/><circle cx="0.0327" cy="0.2782" r="0.0025"/><circle cx="0.0065" cy="0.0494" r="0.0025"/><circle cx="0.0851" cy="0.2503" r="0.0025"/><circle cx="0.0198" cy="0.1691" r="0.0025"/><circle cx="0.0717" cy="0.1460" r="0.0025"/><circle cx="-0.2693" cy="0.3098" r="0.0025"/><circle cx="0.1241" cy="0.2965" r="0.0025"/><circle cx="-0.3253" cy="0.0767" r="0.0025"/><circle cx="0.0452" cy="-0.0992" r="0.0025"/><circle cx="0.1531" cy="-0.1033" r="0.0025"/><circle cx="0.1917" cy="0.1967" r="0.0025"/><circle cx="-0.0982" cy="0.1691" r="0.0025"/><circle cx="0.0191" cy="0.3091" r="0.0025"/><circle cx="0.1117" cy="0.0555" r="0.0025"/><circle cx="0.1244" cy="0.2244" r="0.0025"/><circle cx="-0.0453" cy="0.2872" r="0.0025"/><circle cx="0.0974" cy="0.1230" r="0.0025"/><circle cx="0.2005" cy="0.3079" r="0.0025"/><circle cx="-0.0057" cy="0.0639" r="0.0025"/><circle cx="-0.0969" cy="0.0527" r="0.0025"/><circle cx="0.0963" cy="0.2917" r="0.0025"/><circle cx="0.1859" cy="0.1430" r="0.0025"/><circle cx="-0.0567" cy="0.1989" r="0.0025"/><circle cx="0.0189" cy="0.1169" r="0.0025"/><circle cx="-0.1218" cy="0.2888" r="0.0025"/><circle cx="-0.1623" cy="0.2900" r="0.0025"/><circle cx="-0.1379" cy="0.0968" r="0.0025"/><circle cx="0.0581" cy="-0.3162" r="0.0025"/><circle cx="0.0327" cy="-0.0582" r="0.0025"/><circle cx="-0.1903" cy="0.1655" r="0.0025"/><circle cx="-0.4898" cy="0.1736" r="0.0025"/><circle cx="-0.0500" cy="0.1795" r="0.0025"/><circle cx="-0.0075" cy="0.2795" r="0.0025"/><circle cx="-0.1995" cy="0.2570" r="0.0025"/><circle cx="0.0882" cy="0.2506" r="0.0025"/><circle cx="-0.1729" cy="0.1759" r="0.0025"/><circle cx="0.0334" cy="0.2593" r="0.0025"/><circle cx="0.0756" cy="0.2710" r="0.0025"/><circle cx="-0.3139" cy="0.1933" r="0.0025"/><circle cx="-0.1504" cy="0.2050" r="0.0025"/><circle cx="-0.2950" cy="0.0493" r="0.0025"/><circle cx="0.0628" cy="0.0567" r="0.0025"/><circle cx="0.2496" cy="0.3070" r="0.0025"/><circle cx="0.2190" cy="0.1801" r="0.0025"/><circle cx="-0.1195" cy="0.2932" r="0.0025"/><circle cx="-0.1217" cy="0.2160" r="0.0025"/><circle cx="-0.1227" cy="0.2435" r="0.0025"/><circle cx="-0.2397" cy="0.1973" r="0.0025"/><circle cx="-0.1261" cy="0.1402" r="0.0025"/><circle cx="0.1373" cy="0.2648" r="0.0025"/><circle cx="-0.0660" cy="0.2100" r="0.0025"/><circle cx="-0.1407" cy="0.1597" r="0.0025"/><circle cx="-0.0977" cy="0.2044" r="0.0025"/><circle cx="-0.3234" cy="0.3040" r="0.0025"/><circle cx="0.4083" cy="0.2380" r="0.0025"/><circle cx="0.0669" cy="0.2065" r="0.0025"/><circle cx="0.0507" cy="0.0739" r="0.0025"/><circle cx="0.1381" cy="0.1500" r="0.0025"/><circle cx="0.3385" cy="0.2395" r="0.0025"/><circle cx="0.0220" cy="0.2550" r="0.0025"/><circle cx="-0.0078" cy="0.0730" r="0.0025"/><circle cx="0.2755" cy="0.1547" r="0.0025"/><circle cx="0.1474" cy="0.3073" r="0.0025"/><circle cx="-0.1190" cy="0.2258" r="0.0025"/><circle cx="-0.0223" cy="0.1601" r="0.0025"/><circle cx="-0.0501" cy="0.0314" r="0.0025"/><circle cx="-0.2785" cy="0.1248" r="0.0025"/><circle cx="0.1339" cy="0.2579" r="0.0025"/><circle cx="-0.0645" cy="0.2742" r="0.0025"/><circle cx="-0.0226" cy="0.2444" r="0.0025"/><circle cx="0.1915" cy="0.3175" r="0.0025"/><circle cx="-0.0213" cy="0.2728" r="0.0025"/><circle cx="-0.0649" cy="0.2073" r="0.0025"/><circle cx="-0.1371" cy="0.2558" r="0.0025"/><circle cx="-0.0518" cy="0.0981" r="0.0025"/><circle cx="0.1641" cy="0.2642" r="0.0025"/><circle cx="0.0213" cy="0.2169" r="0.0025"/><circle cx="-0.0365" cy="0.3164" r="0.0025"/><circle cx="0.4024" cy="0.2291" r="0.0025"/><circle cx="0.3266" cy="0.2521" r="0.0025"/><circle cx="0.0898" cy="0.1910" r="0.0025"/><circle cx="-0.0070" cy="0.0887" r="0.0025"/><circle cx="-0.1586" cy="0.2868" r="0.0025"/><circle cx="-0.1051" cy="0.2885" r="0.0025"/><circle cx="0.0891" cy="0.1106" r="0.0025"/><circle cx="-0.0765" cy="0.2863" r="0.0025"/><circle cx="0.0338" cy="0.1620" r="0.0025"/><circle cx="0.0480" cy="0.1200" r="0.0025"/><circle cx="-0.2023" cy="0.3017" r="0.0025"/><circle cx="-0.2059" cy="0.2296" r="0.0025"/><circle cx="0.1468" cy="0.2451" r="0.0025"/><circle cx="-0.1202" cy="0.2247" r="0.0025"/><circle cx="0.0625" cy="0.2979" r="0.0025"/><circle cx="0.1473" cy="0.1819" r="0.0025"/><circle cx="-0.0071" cy="0.2294" r="0.0025"/><circle cx="0.2706" cy="0.1751" r="0.0025"/><circle cx="0.0901" cy="0.1649" r="0.0025"/><circle cx="0.1435" cy="0.2639" r="0.0025"/><circle cx="0.1697" cy="0.1884" r="0.0025"/><circle cx="-0.0200" cy="0.2077" r="0.0025"/><circle cx="-0.1841" cy="0.2720" r="0.0025"/><circle cx="0.0602" cy="0.3093" r="0.0025"/><circle cx="0.1693" cy="0.2192" r="0.0025"/><circle cx="-0.1421" cy="0.2512" r="0.0025"/><circle cx="-0.0488" cy="0.1934" r="0.0025"/><circle cx="0.1015" cy="0.1855" r="0.0025"/><circle cx="0.0339" cy="0.1804" r="0.0025"/><circle cx="-0.1024" cy="0.1532" r="0.0025"/><circle cx="-0.2832" cy="0.2887" r="0.0025"/><circle cx="0.0329" cy="0.2123" r="0.0025"/><circle cx="-0.0769" cy="0.1710" r="0.0025"/><circle cx="0.1033" cy="0.1250" r="0.0025"/><circle cx="0.1310" cy="0.1159" r="0.0025"/><circle cx="-0.0897" cy="0.0810" r="0.0025"/></g></g><g class="hud"><g class="frame"><g fill="rgb(100%, 100%, 100%)" fill-opacity="0.02" stroke="rgb(0%, 0%, 0%)" stroke-opacity="0" stroke-width="0"><rect height="0.6809" width="1.1998" x="-0.5087" y="-0.3534"/></g></g><g class="axis"><g class="ticks"><g class="tickglyph"><g fill="rgb(5%, 5%, 5%)" fill-opacity="0.4" stroke="rgb(5%, 5%, 5%)" stroke-opacity="0.4" stroke-width="0.0040"><g transform="rotate(-90.0, -0.5327, 0.3243)"><polyline points="-0.5327,0.3393
-0.5327,0.3093"/></g><g transform="rotate(-90.0, -0.5327, 0.1888)"><polyline points="-0.5327,0.2038
-0.5327,0.1738"/></g><g transform="rotate(-90.0, -0.5327, 0.0532)"><polyline points="-0.5327,0.0682
-0.5327,0.0382"/></g><g transform="rotate(-90.0, -0.5327, -0.0823)"><polyline points="-0.5327,-0.0673
-0.5327,-0.0973"/></g><g transform="rotate(-90.0, -0.5327, -0.2179)"><polyline points="-0.5327,-0.2029
-0.5327,-0.2329"/></g><g transform="rotate(-90.0, -0.5327, -0.3534)"><polyline points="-0.5327,-0.3384
-0.5327,-0.3684"/></g></g></g><g class="ticktext"><g fill="rgb(5%, 5%, 5%)" fill-opacity="1.0" font-size="0.0399" stroke="none" stroke-width="0.0" text-anchor="end"><text x="-0.5615" y="0.3337">0.0%</text><text x="-0.5615" y="0.1981">0.1%</text><text x="-0.5615" y="0.0625">0.2%</text><text x="-0.5615" y="-0.0730">0.3%</text><text x="-0.5615" y="-0.2086">0.4%</text><text x="-0.5615" y="-0.3441">0.5%</text></g></g><g class="ticklines"><g fill="none" stroke="rgb(5%, 5%, 5%)" stroke-opacity="0.05" stroke-width="0.0050"><polyline points="-0.5072,0.3243 0.6911,0.3243"/><polyline points="-0.5072,0.1888 0.6911,0.1888"/><polyline points="-0.5072,0.0532 0.6911,0.0532"/><polyline points="-0.5072,-0.0823 0.6911,-0.0823"/><polyline points="-0.5072,-0.2179 0.6911,-0.2179"/><polyline points="-0.5072,-0.3534 0.6911,-0.3534"/></g></g></g><g class="axisbar"><g fill="rgb(5%, 5%, 5%)" fill-opacity="0.4" stroke="rgb(0%, 0%, 0%)" stroke-opacity="0" stroke-width="0"><rect height="0.6805" width="0.0032" x="-0.5199" y="-0.3548"/></g></g></g><g class="axis"><g class="ticks"><g class="tickglyph"><g fill="rgb(5%, 5%, 5%)" fill-opacity="0.4" stroke="rgb(5%, 5%, 5%)" stroke-opacity="0.4" stroke-width="0.0040"><polyline points="-0.5072,0.3628
-0.5072,0.3328"/><polyline points="-0.3360,0.3628
-0.3360,0.3328"/><polyline points="-0.1648,0.3628
-0.1648,0.3328"/><polyline points="0.0064,0.3628
0.0064,0.3328"/><polyline points="0.1775,0.3628
0.1775,0.3328"/><polyline points="0.3487,0.3628
0.3487,0.3328"/><polyline points="0.5199,0.3628
0.5199,0.3328"/><polyline points="0.6911,0.3628
0.6911,0.3328"/></g></g><g class="ticktext"><g fill="rgb(5%, 5%, 5%)" fill-opacity="1.0" font-size="0.0399" stroke="none" stroke-width="0.0" text-anchor="middle"><text x="-0.5072" y="0.3909">-3%</text><text x="-0.3360" y="0.3909">-2%</text><text x="-0.1648" y="0.3909">-1%</text><text x="0.0064" y="0.3909"> 0%</text><text x="0.1775" y="0.3909"> 1%</text><text x="0.3487" y="0.3909"> 2%</text><text x="0.5199" y="0.3909"> 3%</text><text x="0.6911" y="0.3909"> 4%</text></g></g><g class="ticklines"><g fill="none" stroke="rgb(5%, 5%, 5%)" stroke-opacity="0.05" stroke-width="0.0050"><polyline points="-0.5072,0.3243 -0.5072,-0.3534"/><polyline points="-0.3360,0.3243 -0.3360,-0.3534"/><polyline points="-0.1648,0.3243 -0.1648,-0.3534"/><polyline points="0.0064,0.3243 0.0064,-0.3534"/><polyline points="0.1775,0.3243 0.1775,-0.3534"/><polyline points="0.3487,0.3243 0.3487,-0.3534"/><polyline points="0.5199,0.3243 0.5199,-0.3534"/><polyline points="0.6911,0.3243 0.6911,-0.3534"/></g></g></g><g class="axisbar"><g fill="rgb(5%, 5%, 5%)" fill-opacity="0.4" stroke="rgb(0%, 0%, 0%)" stroke-opacity="0" stroke-width="0"><rect height="0.0027" width="1.2015" x="-0.5088" y="0.3343"/></g></g></g><g class="title"><g fill="rgb(5%, 5%, 5%)" fill-opacity="1.0" font-size="0.0799" stroke="none" stroke-width="0.0" text-anchor="middle"><text x="0.0423" y="-0.4187">scatter</text></g></g><g class="title"><g fill="rgb(5%, 5%, 5%)" fill-opacity="1.0" font-size="0.0479" stroke="none" stroke-width="0.0" text-anchor="middle"><text x="0.0423" y="0.4607">ma</text></g></g><g class="title"><g fill="rgb(5%, 5%, 5%)" fill-opacity="1.0" font-size="0.0479" stroke="none" stroke-width="0.0" text-anchor="middle"><text transform="rotate(-90.0, -0.6797, 0.0149)" x="-0.6797" y="0.0149">std</text></g></g><g class="frame"><g fill="rgb(100%, 100%, 100%)" fill-opacity="0.02" stroke="rgb(0%, 0%, 0%)" stroke-opacity="0" stroke-width="0"><rect height="1.0" width="1.5" x="-0.75" y="-0.5"/></g></g></g></svg>