<svg height="300" viewBox="-0.75 -0.5 1.5000 1.0" width="449" xmlns="http://www.w3.org/2000/svg" xmlns:xlink="http://www.w3.org/1999/xlink"><style>svg {
  color-scheme: light dark;
}
{
  .canvas g, .title g, .axisbar g, .ticktext g, .tickglyph g, .ticklines g, .legendContent g text {
    fill: rgb(5%, 5%, 5%);
  }
  .ticklines g, .tickglyph g, .legendBorder g {
    stroke: rgb(5%, 5%, 5%);
  }
  .legendBorder g {
    fill: rgb(94%, 94%, 94%);
  }
}
@media (prefers-color-scheme:dark) {
  .canvas g, .title g, .axisbar g, .ticktext g, .tickglyph g, .ticklines g, .legendContent g text {
    fill: rgb(94%, 94%, 94%);
  }
  .ticklines g, .tickglyph g, .legendBorder g {
    stroke: rgb(94%, 94%, 94%);
  }
  .legendBorder g {
    fill: rgb(5%, 5%, 5%);
  }
}</style><g class="chart"><g fill="rgb(2%, 73%, 80%)" fill-opacity="1.0" stroke="rgb(2%, 29%, 48%)" stroke-opacity="1.0" stroke-width="0.0100"><circle cx="0.0322" cy="0.2980" r="0.0200"/><circle cx="0.1395" cy="0.2253" r="0.0200"/><circle cx="0.2528" cy="0.2200" r="0.0200"/><circle cx="0.0793" cy="0.1682" r="0.0200"/><circle cx="0.0557" cy="0.2955" r="0.0200"/><circle cx="0.1235" cy="0.2595" r="0.0200"/><circle cx="0.2053" cy="0.2473" r="0.0200"/><circle cx="0.2314" cy="0.2950" r="0.0200"/><circle cx="0.0782" cy="0.1857" r="0.0200"/><circle cx="0.1021" cy="0.2957" r="0.0200"/><circle cx="0.1296" cy="0.2942" r="0.0200"/><circle cx="0.1646" cy="0.2878" r="0.0200"/><circle cx="0.0857" cy="0.2499" r="0.0200"/><circle cx="0.1203" cy="0.2878" r="0.0200"/><circle cx="0.0465" cy="0.2543" r="0.0200"/><circle cx="0.1977" cy="0.1874" r="0.0200"/><circle cx="0.1239" cy="0.2538" r="0.0200"/><circle cx="0.0342" cy="0.2405" r="0.0200"/><circle cx="0.0188" cy="0.3038" r="0.0200"/><circle cx="0.1799" cy="0.1789" r="0.0200"/><circle cx="-0.0049" cy="0.1582" r="0.0200"/><circle cx="0.1959" cy="0.1444" r="0.0200"/><circle cx="0.1056" cy="0.2394" r="0.0200"/><circle cx="0.0853" cy="0.2998" r="0.0200"/><circle cx="0.0789" cy="0.3124" r="0.0200"/><circle cx="0.1548" cy="0.2524" r="0.0200"/><circle cx="0.0153" cy="0.1975" r="0.0200"/><circle cx="0.1146" cy="0.2320" r="0.0200"/><circle cx="0.0204" cy="0.2365" r="0.0200"/><circle cx="0.0942" cy="0.2541" r="0.0200"/><circle cx="0.1688" cy="0.2534" r="0.0200"/><circle cx="0.1613" cy="0.3103" r="0.0200"/><circle cx="-0.0174" cy="0.1638" r="0.0200"/><circle cx="-0.0003" cy="0.3003" r="0.0200"/><circle cx="-0.1301" cy="0.2059" r="0.0200"/><circle cx="0.2077" cy="0.0263" r="0.0200"/><circle cx="0.2362" cy="0.2873" r="0.0200"/><circle cx="0.0626" cy="0.1682" r="0.0200"/><circle cx="0.0016" cy="0.2645" r="0.0200"/><circle cx="0.0575" cy="0.2696" r="0.0200"/><circle cx="0.1924" cy="0.2015" r="0.0200"/><circle cx="0.0799" cy="0.2206" r="0.0200"/><circle cx="0.1861" cy="0.2261" r="0.0200"/><circle cx="0.0665" cy="0.2145" r="0.0200"/><circle cx="0.1061" cy="0.2832" r="0.0200"/><circle cx="0.0991" cy="0.3116" r="0.0200"/><circle cx="0.0951" cy="0.3145" r="0.0200"/><circle cx="0.0825" cy="0.3071" r="0.0200"/><circle cx="0.1018" cy="0.3013" r="0.0200"/><circle cx="0.0510" cy="0.2741" r="0.0200"/><circle cx="0.1753" cy="0.2107" r="0.0200"/><circle cx="0.0797" cy="0.2352" r="0.0200"/><circle cx="0.0891" cy="0.3084" r="0.0200"/><circle cx="0.0691" cy="0.3007" r="0.0200"/><circle cx="0.1338" cy="0.2622" r="0.0200"/><circle cx="0.1071" cy="0.2947" r="0.0200"/><circle cx="0.1056" cy="0.3161" r="0.0200"/><circle cx="0.0673" cy="0.2849" r="0.0200"/><circle cx="0.0332" cy="0.2885" r="0.0200"/><circle cx="0.0828" cy="0.2751" r="0.0200"/><circle cx="-0.0449" cy="0.2077" r="0.0200"/><circle cx="0.2261" cy="0.0839" r="0.0200"/><circle cx="0.1391" cy="0.2415" r="0.0200"/><circle cx="0.0767" cy="0.2639" r="0.0200"/><circle cx="0.1454" cy="0.2587" r="0.0200"/><circle cx="0.1209" cy="0.2966" r="0.0200"/><circle cx="0.1107" cy="0.3091" r="0.0200"/><circle cx="0.0902" cy="0.3004" r="0.0200"/><circle cx="0.1007" cy="0.3089" r="0.0200"/><circle cx="0.1396" cy="0.2844" r="0.0200"/><circle cx="0.1624" cy="0.2982" r="0.0200"/><circle cx="0.0674" cy="0.2360" r="0.0200"/><circle cx="0.1209" cy="0.2716" r="0.0200"/><circle cx="0.0014" cy="0.2148" r="0.0200"/><circle cx="0.1993" cy="0.1470" r="0.0200"/><circle cx="0.1223" cy="0.2506" r="0.0200"/><circle cx="0.0522" cy="0.2573" r="0.0200"/><circle cx="0.0989" cy="0.2775" r="0.0200"/><circle cx="0.0547" cy="0.2798" r="0.0200"/><circle cx="0.0115" cy="0.2806" r="0.0200"/><circle cx="-0.0731" cy="0.2449" r="0.0200"/><circle cx="0.2374" cy="0.0498" r="0.0200"/><circle cx="0.1702" cy="0.2575" r="0.0200"/><circle cx="0.1079" cy="0.2641" r="0.0200"/><circle cx="0.1885" cy="0.2483" r="0.0200"/><circle cx="0.1116" cy="0.2514" r="0.0200"/><circle cx="0.0402" cy="0.2562" r="0.0200"/><circle cx="0.0853" cy="0.2788" r="0.0200"/><circle cx="0.1294" cy="0.2799" r="0.0200"/><circle cx="0.0333" cy="0.2350" r="0.0200"/><circle cx="0.0687" cy="0.2870" r="0.0200"/><circle cx="0.1691" cy="0.2313" r="0.0200"/><circle cx="0.0412" cy="0.2074" r="0.0200"/><circle cx="0.1472" cy="0.2263" r="0.0200"/><circle cx="0.1044" cy="0.2806" r="0.0200"/><circle cx="0.0780" cy="0.2951" r="0.0200"/><circle cx="0.0973" cy="0.3013" r="0.0200"/><circle cx="0.1121" cy="0.3052" r="0.0200"/><circle cx="0.1170" cy="0.3137" r="0.0200"/><circle cx="0.1036" cy="0.3064" r="0.0200"/><circle cx="0.1137" cy="0.3093" r="0.0200"/><circle cx="0.0165" cy="0.2341" r="0.0200"/><circle cx="-0.0211" cy="0.2851" r="0.0200"/><circle cx="0.0995" cy="0.2138" r="0.0200"/><circle cx="0.1686" cy="0.2580" r="0.0200"/><circle cx="0.1727" cy="0.3128" r="0.0200"/><circle cx="0.1027" cy="0.2576" r="0.0200"/><circle cx="0.1097" cy="0.3109" r="0.0200"/><circle cx="0.0290" cy="0.2483" r="0.0200"/><circle cx="0.1750" cy="0.1919" r="0.0200"/><circle cx="0.1308" cy="0.2790" r="0.0200"/><circle cx="0.0740" cy="0.2690" r="0.0200"/><circle cx="0.0904" cy="0.3035" r="0.0200"/><circle cx="0.1158" cy="0.2961" r="0.0200"/><circle cx="0.0841" cy="0.2906" r="0.0200"/><circle cx="0.0533" cy="0.2913" r="0.0200"/><circle cx="0.0740" cy="0.3000" r="0.0200"/><circle cx="0.0411" cy="0.2896" r="0.0200"/><circle cx="0.0095" cy="0.2907" r="0.0200"/><circle cx="0.1098" cy="0.2314" r="0.0200"/><circle cx="0.0298" cy="0.2487" r="0.0200"/><circle cx="0.1717" cy="0.1954" r="0.0200"/><circle cx="0.0722" cy="0.2318" r="0.0200"/><circle cx="-0.0043" cy="0.2517" r="0.0200"/><circle cx="-0.0845" cy="0.2487" r="0.0200"/><circle cx="0.0785" cy="0.1772" r="0.0200"/><circle cx="0.1822" cy="0.2281" r="0.0200"/><circle cx="0.2086" cy="0.2946" r="0.0200"/><circle cx="0.1025" cy="0.2264" r="0.0200"/><circle cx="0.0596" cy="0.2805" r="0.0200"/><circle cx="-0.1188" cy="0.1640" r="0.0200"/><circle cx="0.1023" cy="0.1269" r="0.0200"/><circle cx="-0.0325" cy="0.2010" r="0.0200"/><circle cx="0.2013" cy="0.1160" r="0.0200"/><circle cx="-0.0431" cy="0.1066" r="0.0200"/><circle cx="0.1917" cy="0.1149" r="0.0200"/><circle cx="0.1288" cy="0.2622" r="0.0200"/><circle cx="0.1703" cy="0.2820" r="0.0200"/><circle cx="0.0685" cy="0.2301" r="0.0200"/><circle cx="0.0183" cy="0.2743" r="0.0200"/><circle cx="0.0629" cy="0.2794" r="0.0200"/><circle cx="0.1175" cy="0.2708" r="0.0200"/><circle cx="0.2569" cy="0.1976" r="0.0200"/><circle cx="0.1625" cy="0.2361" r="0.0200"/><circle cx="0.1214" cy="0.2822" r="0.0200"/><circle cx="0.1613" cy="0.2835" r="0.0200"/><circle cx="0.1243" cy="0.2860" r="0.0200"/><circle cx="0.1175" cy="0.3118" r="0.0200"/><circle cx="0.0768" cy="0.2829" r="0.0200"/><circle cx="0.1348" cy="0.2679" r="0.0200"/><circle cx="0.1058" cy="0.2928" r="0.0200"/><circle cx="0.0367" cy="0.2584" r="0.0200"/><circle cx="0.1851" cy="0.1898" r="0.0200"/><circle cx="0.1073" cy="0.2503" r="0.0200"/><circle cx="0.1055" cy="0.3135" r="0.0200"/><circle cx="0.1242" cy="0.3018" r="0.0200"/><circle cx="0.1520" cy="0.2940" r="0.0200"/><circle cx="0.1294" cy="0.2984" r="0.0200"/><circle cx="0.1249" cy="0.3139" r="0.0200"/><circle cx="0.0964" cy="0.2935" r="0.0200"/><circle cx="0.0523" cy="0.2799" r="0.0200"/><circle cx="0.0045" cy="0.2767" r="0.0200"/><circle cx="0.0926" cy="0.2419" r="0.0200"/><circle cx="0.1595" cy="0.2600" r="0.0200"/><circle cx="0.0876" cy="0.2558" r="0.0200"/><circle cx="0.1260" cy="0.2846" r="0.0200"/><circle cx="0.0614" cy="0.2622" r="0.0200"/><circle cx="0.1211" cy="0.2664" r="0.0200"/><circle cx="0.0735" cy="0.2768" r="0.0200"/><circle cx="0.0553" cy="0.3021" r="0.0200"/><circle cx="0.1038" cy="0.2761" r="0.0200"/><circle cx="0.1104" cy="0.3118" r="0.0200"/><circle cx="-0.1427" cy="0.0995" r="0.0200"/><circle cx="0.2178" cy="0.0064" r="0.0200"/><circle cx="-0.1038" cy="0.0396" r="0.0200"/><circle cx="-0.0324" cy="0.2539" r="0.0200"/><circle cx="0.2281" cy="0.0931" r="0.0200"/><circle cx="0.0030" cy="0.1232" r="0.0200"/><circle cx="0.2038" cy="0.1441" r="0.0200"/><circle cx="0.2931" cy="0.2402" r="0.0200"/><circle cx="0.1191" cy="0.1677" r="0.0200"/><circle cx="0.0153" cy="0.2280" r="0.0200"/><circle cx="0.1823" cy="0.1738" r="0.0200"/><circle cx="-0.0042" cy="0.1568" r="0.0200"/><circle cx="0.0119" cy="0.3008" r="0.0200"/><circle cx="0.2495" cy="0.1129" r="0.0200"/><circle cx="0.0001" cy="0.1023" r="0.0200"/><circle cx="-0.0165" cy="0.2982" r="0.0200"/><circle cx="-0.0277" cy="0.3083" r="0.0200"/><circle cx="0.2634" cy="0.0666" r="0.0200"/><circle cx="0.1895" cy="0.2523" r="0.0200"/><circle cx="0.1499" cy="0.2836" r="0.0200"/><circle cx="0.2253" cy="0.2529" r="0.0200"/><circle cx="0.0778" cy="0.1906" r="0.0200"/><circle cx="0.1014" cy="0.2961" r="0.0200"/><circle cx="0.0574" cy="0.2801" r="0.0200"/><circle cx="0.0609" cy="0.3142" r="0.0200"/><circle cx="0.1509" cy="0.2403" r="0.0200"/><circle cx="0.0813" cy="0.2577" r="0.0200"/><circle cx="-0.1088" cy="0.1538" r="0.0200"/><circle cx="0.0769" cy="0.1573" r="0.0200"/><circle cx="0.0467" cy="0.2900" r="0.0200"/><circle cx="0.0728" cy="0.2954" r="0.0200"/><circle cx="0.1786" cy="0.2266" r="0.0200"/><circle cx="0.1159" cy="0.2636" r="0.0200"/><circle cx="-0.0562" cy="0.1694" r="0.0200"/><circle cx="0.0950" cy="0.1871" r="0.0200"/><circle cx="-0.0985" cy="0.1508" r="0.0200"/><circle cx="-0.0109" cy="0.2417" r="0.0200"/><circle cx="-0.0242" cy="0.3056" r="0.0200"/><circle cx="-0.1043" cy="0.2488" r="0.0200"/><circle cx="0.1143" cy="0.1292" r="0.0200"/><circle cx="-0.0352" cy="0.1884" r="0.0200"/><circle cx="0.0719" cy="0.2252" r="0.0200"/><circle cx="0.0332" cy="0.2841" r="0.0200"/><circle cx="0.3281" cy="0.0634" r="0.0200"/><circle cx="0.2757" cy="0.2700" r="0.0200"/><circle cx="0.1566" cy="0.2152" r="0.0200"/><circle cx="0.1816" cy="0.2955" r="0.0200"/><circle cx="-0.1595" cy="0.0235" r="0.0200"/><circle cx="0.1379" cy="0.0605" r="0.0200"/><circle cx="0.0504" cy="0.2408" r="0.0200"/><circle cx="0.1710" cy="0.2138" r="0.0200"/><circle cx="0.2321" cy="0.2649" r="0.0200"/><circle cx="-0.0951" cy="0.0355" r="0.0200"/><circle cx="-0.1052" cy="0.2982" r="0.0200"/><circle cx="0.0481" cy="0.1857" r="0.0200"/><circle cx="0.2439" cy="0.1487" r="0.0200"/><circle cx="0.0968" cy="0.1906" r="0.0200"/><circle cx="-0.1269" cy="0.1247" r="0.0200"/><circle cx="0.0145" cy="0.1953" r="0.0200"/><circle cx="-0.0150" cy="0.2914" r="0.0200"/><circle cx="-0.0991" cy="0.2454" r="0.0200"/><circle cx="0.2353" cy="0.0292" r="0.0200"/><circle cx="0.3096" cy="0.2514" r="0.0200"/><circle cx="0.0638" cy="0.1058" r="0.0200"/><circle cx="-0.0689" cy="0.2027" r="0.0200"/><circle cx="0.2717" cy="0.0238" r="0.0200"/><circle cx="0.0353" cy="0.1131" r="0.0200"/><circle cx="0.0074" cy="0.2906" r="0.0200"/><circle cx="-0.2130" cy="0.1277" r="0.0200"/><circle cx="0.0135" cy="0.1221" r="0.0200"/><circle cx="0.3412" cy="0.0348" r="0.0200"/><circle cx="0.0453" cy="0.0619" r="0.0200"/><circle cx="-0.0434" cy="0.2397" r="0.0200"/><circle cx="0.0123" cy="0.2697" r="0.0200"/><circle cx="0.2992" cy="0.0702" r="0.0200"/><circle cx="0.3099" cy="0.2998" r="0.0200"/><circle cx="0.2112" cy="0.2327" r="0.0200"/><circle cx="0.2040" cy="0.3098" r="0.0200"/><circle cx="0.0835" cy="0.2140" r="0.0200"/><circle cx="0.1999" cy="0.2173" r="0.0200"/><circle cx="-0.0358" cy="0.1143" r="0.0200"/><circle cx="0.2295" cy="0.0885" r="0.0200"/><circle cx="0.1386" cy="0.2381" r="0.0200"/><circle cx="0.1589" cy="0.2997" r="0.0200"/><circle cx="0.2097" cy="0.2742" r="0.0200"/><circle cx="0.0246" cy="0.1582" r="0.0200"/><circle cx="-0.0709" cy="0.2349" r="0.0200"/><circle cx="0.1208" cy="0.1524" r="0.0200"/><circle cx="0.1682" cy="0.2758" r="0.0200"/><circle cx="-0.0388" cy="0.1393" r="0.0200"/><circle cx="-0.0109" cy="0.2914" r="0.0200"/><circle cx="0.1295" cy="0.1968" r="0.0200"/><circle cx="0.0610" cy="0.2584" r="0.0200"/><circle cx="-0.0832" cy="0.1935" r="0.0200"/><circle cx="0.0524" cy="0.2007" r="0.0200"/><circle cx="0.1985" cy="0.1916" r="0.0200"/><circle cx="-0.0345" cy="0.1166" r="0.0200"/><circle cx="0.0848" cy="0.2142" r="0.0200"/><circle cx="0.2469" cy="0.1779" r="0.0200"/><circle cx="0.0818" cy="0.1752" r="0.0200"/><circle cx="-0.0615" cy="0.1940" r="0.0200"/><circle cx="-0.1950" cy="0.2025" r="0.0200"/><circle cx="0.1432" cy="0.0260" r="0.0200"/><circle cx="-0.1983" cy="0.0226" r="0.0200"/><circle cx="0.1072" cy="0.0535" r="0.0200"/><circle cx="0.3323" cy="0.1230" r="0.0200"/><circle cx="-0.2818" cy="-0.2123" r="0.0200"/><circle cx="0.1426" cy="-0.0499" r="0.0200"/><circle cx="0.1359" cy="0.2940" r="0.0200"/><circle cx="0.3823" cy="0.1053" r="0.0200"/><circle cx="-0.2750" cy="-0.2496" r="0.0200"/><circle cx="0.0289" cy="0.0532" r="0.0200"/><circle cx="-0.2390" cy="0.0861" r="0.0200"/><circle cx="0.1107" cy="0.0158" r="0.0200"/><circle cx="-0.0788" cy="0.1533" r="0.0200"/><circle cx="0.0737" cy="0.1859" r="0.0200"/><circle cx="0.3236" cy="0.1021" r="0.0200"/><circle cx="0.0487" cy="0.0803" r="0.0200"/><circle cx="0.2872" cy="0.1116" r="0.0200"/><circle cx="-0.3248" cy="-0.2105" r="0.0200"/><circle cx="0.0271" cy="0.0123" r="0.0200"/><circle cx="0.0886" cy="0.2615" r="0.0200"/><circle cx="0.2715" cy="0.1601" r="0.0200"/><circle cx="0.0065" cy="0.0890" r="0.0200"/><circle cx="0.1813" cy="0.1664" r="0.0200"/><circle cx="0.2849" cy="0.2280" r="0.0200"/><circle cx="0.3329" cy="0.2762" r="0.0200"/><circle cx="0.0253" cy="0.0524" r="0.0200"/><circle cx="0.0119" cy="0.2976" r="0.0200"/><circle cx="0.2700" cy="0.0952" r="0.0200"/><circle cx="-0.0770" cy="0.0181" r="0.0200"/><circle cx="0.1181" cy="0.1486" r="0.0200"/><circle cx="0.1824" cy="0.2614" r="0.0200"/><circle cx="-0.0209" cy="0.1424" r="0.0200"/><circle cx="-0.1543" cy="0.2024" r="0.0200"/><circle cx="-0.2094" cy="0.2698" r="0.0200"/><circle cx="-0.3098" cy="0.2313" r="0.0200"/><circle cx="0.0479" cy="0.0091" r="0.0200"/><circle cx="0.2323" cy="0.1576" r="0.0200"/><circle cx="-0.2431" cy="-0.0925" r="0.0200"/><circle cx="0.1081" cy="0.0137" r="0.0200"/><circle cx="0.3296" cy="0.1257" r="0.0200"/><circle cx="0.0753" cy="0.0981" r="0.0200"/><circle cx="0.1823" cy="0.2246" r="0.0200"/><circle cx="0.3893" cy="0.1393" r="0.0200"/><circle cx="0.0588" cy="0.0324" r="0.0200"/><circle cx="-0.1165" cy="0.1656" r="0.0200"/><circle cx="0.0794" cy="0.1486" r="0.0200"/><circle cx="-0.0008" cy="0.2480" r="0.0200"/><circle cx="0.1922" cy="0.1514" r="0.0200"/><circle cx="0.1037" cy="0.2409" r="0.0200"/><circle cx="0.1232" cy="0.3005" r="0.0200"/><circle cx="0.2363" cy="0.2203" r="0.0200"/><circle cx="0.0797" cy="0.1826" r="0.0200"/><circle cx="-0.0288" cy="0.2240" r="0.0200"/><circle cx="-0.0061" cy="0.2976" r="0.0200"/><circle cx="0.0423" cy="0.2762" r="0.0200"/><circle cx="0.0571" cy="0.3049" r="0.0200"/><circle cx="0.2777" cy="0.1275" r="0.0200"/><circle cx="0.0040" cy="0.0814" r="0.0200"/><circle cx="0.3600" cy="0.0103" r="0.0200"/><circle cx="0.1473" cy="0.1334" r="0.0200"/><circle cx="0.1859" cy="0.2827" r="0.0200"/><circle cx="-0.0061" cy="0.1522" r="0.0200"/><circle cx="0.1002" cy="0.2256" r="0.0200"/><circle cx="-0.0288" cy="0.2065" r="0.0200"/><circle cx="0.3455" cy="-0.0053" r="0.0200"/><circle cx="0.2092" cy="0.1986" r="0.0200"/><circle cx="0.2292" cy="0.2992" r="0.0200"/><circle cx="0.0596" cy="0.1716" r="0.0200"/><circle cx="0.0203" cy="0.2828" r="0.0200"/><circle cx="0.2425" cy="0.1262" r="0.0200"/><circle cx="0.0802" cy="0.1774" r="0.0200"/><circle cx="0.0711" cy="0.3061" r="0.0200"/><circle cx="0.0749" cy="0.3146" r="0.0200"/><circle cx="0.0447" cy="0.2919" r="0.0200"/><circle cx="0.2982" cy="0.0991" r="0.0200"/><circle cx="0.0812" cy="0.1301" r="0.0200"/><circle cx="0.2593" cy="0.1637" r="0.0200"/><circle cx="0.1277" cy="0.2040" r="0.0200"/><circle cx="0.1063" cy="0.2982" r="0.0200"/><circle cx="0.0147" cy="0.2389" r="0.0200"/><circle cx="0.1098" cy="0.2358" r="0.0200"/><circle cx="-0.0426" cy="0.1864" r="0.0200"/><circle cx="-0.1298" cy="0.2423" r="0.0200"/><circle cx="0.0641" cy="0.1506" r="0.0200"/><circle cx="0.1164" cy="0.2716" r="0.0200"/><circle cx="0.2276" cy="0.2220" r="0.0200"/><circle cx="-0.2553" cy="-0.0990" r="0.0200"/><circle cx="0.0190" cy="0.0797" r="0.0200"/><circle cx="-0.0239" cy="0.2780" r="0.0200"/><circle cx="0.0083" cy="0.2900" r="0.0200"/><circle cx="0.1170" cy="0.2242" r="0.0200"/><circle cx="-0.0206" cy="0.1990" r="0.0200"/><circle cx="0.0459" cy="0.2601" r="0.0200"/><circle cx="0.2692" cy="0.1251" r="0.0200"/><circle cx="0.1541" cy="0.2179" r="0.0200"/><circle cx="0.2394" cy="0.2441" r="0.0200"/><circle cx="0.1934" cy="0.2780" r="0.0200"/><circle cx="-0.3548" cy="-0.1554" r="0.0200"/><circle cx="0.1195" cy="-0.0926" r="0.0200"/><circle cx="-0.0265" cy="0.1894" r="0.0200"/><circle cx="0.0147" cy="0.2815" r="0.0200"/><circle cx="0.1555" cy="0.1964" r="0.0200"/><circle cx="-0.0259" cy="0.1612" r="0.0200"/><circle cx="-0.0860" cy="0.2652" r="0.0200"/><circle cx="0.0019" cy="0.2420" r="0.0200"/><circle cx="-0.0871" cy="0.2410" r="0.0200"/><circle cx="-0.0174" cy="0.2577" r="0.0200"/><circle cx="0.0657" cy="0.2462" r="0.0200"/><circle cx="0.2824" cy="0.1309" r="0.0200"/><circle cx="-0.1257" cy="-0.0345" r="0.0200"/><circle cx="-0.0655" cy="0.2615" r="0.0200"/><circle cx="0.3427" cy="-0.0344" r="0.0200"/><circle cx="0.3901" cy="0.2714" r="0.0200"/><circle cx="0.0684" cy="0.0402" r="0.0200"/><circle cx="-0.0158" cy="0.2432" r="0.0200"/><circle cx="-0.1975" cy="0.1611" r="0.0200"/><circle cx="0.0109" cy="0.1378" r="0.0200"/><circle cx="0.0216" cy="0.3034" r="0.0200"/><circle cx="0.0541" cy="0.2899" r="0.0200"/><circle cx="0.3440" cy="0.0677" r="0.0200"/><circle cx="-0.1514" cy="-0.1100" r="0.0200"/><circle cx="0.3482" cy="-0.1142" r="0.0200"/><circle cx="0.2022" cy="0.1891" r="0.0200"/><circle cx="0.0208" cy="0.1612" r="0.0200"/><circle cx="0.0072" cy="0.3026" r="0.0200"/><circle cx="0.3219" cy="0.0463" r="0.0200"/><circle cx="0.2066" cy="0.2170" r="0.0200"/><circle cx="0.2495" cy="0.2805" r="0.0200"/><circle cx="0.0138" cy="0.1145" r="0.0200"/><circle cx="0.0260" cy="0.3014" r="0.0200"/><circle cx="0.3308" cy="0.0549" r="0.0200"/><circle cx="0.0134" cy="0.0435" r="0.0200"/><circle cx="0.0459" cy="0.2850" r="0.0200"/><circle cx="-0.1664" cy="0.1347" r="0.0200"/><circle cx="-0.0202" cy="0.1913" r="0.0200"/><circle cx="0.2224" cy="0.1084" r="0.0200"/><circle cx="0.1837" cy="0.2821" r="0.0200"/><circle cx="0.1437" cy="0.2833" r="0.0200"/><circle cx="-0.1227" cy="0.0880" r="0.0200"/><circle cx="0.6269" cy="-0.3293" r="0.0200"/><circle cx="0.1817" cy="-0.0686" r="0.0200"/><circle cx="-0.0021" cy="0.1575" r="0.0200"/><circle cx="0.1739" cy="0.1657" r="0.0200"/><circle cx="0.0047" cy="0.1716" r="0.0200"/><circle cx="0.0561" cy="0.2728" r="0.0200"/><circle cx="0.1348" cy="0.2500" r="0.0200"/><circle cx="0.0486" cy="0.2435" r="0.0200"/><circle cx="0.2223" cy="0.1680" r="0.0200"/><circle cx="0.1470" cy="0.2523" r="0.0200"/><circle cx="0.0848" cy="0.2642" r="0.0200"/><circle cx="-0.0685" cy="0.1856" r="0.0200"/><circle cx="0.0708" cy="0.1974" r="0.0200"/><circle cx="0.3926" cy="0.0401" r="0.0200"/><circle cx="0.0799" cy="0.0475" r="0.0200"/><circle cx="0.0754" cy="0.3005" r="0.0200"/><circle cx="-0.0935" cy="0.1722" r="0.0200"/><circle cx="-0.0586" cy="0.2865" r="0.0200"/><circle cx="0.0681" cy="0.2086" r="0.0200"/><circle cx="0.1624" cy="0.2364" r="0.0200"/><circle cx="0.0138" cy="0.1897" r="0.0200"/><circle cx="0.2291" cy="0.1320" r="0.0200"/><circle cx="0.1607" cy="0.2578" r="0.0200"/><circle cx="0.0269" cy="0.2024" r="0.0200"/><circle cx="-0.1656" cy="0.1517" r="0.0200"/><circle cx="-0.0258" cy="0.1968" r="0.0200"/><circle cx="-0.0037" cy="0.2974" r="0.0200"/><circle cx="0.0974" cy="0.2307" r="0.0200"/><circle cx="0.2352" cy="0.1989" r="0.0200"/><circle cx="-0.0578" cy="0.0649" r="0.0200"/><circle cx="0.1454" cy="0.1418" r="0.0200"/><circle cx="0.0470" cy="0.2323" r="0.0200"/><circle cx="-0.0339" cy="0.2480" r="0.0200"/><circle cx="0.2603" cy="0.0640" r="0.0200"/><circle cx="0.0626" cy="0.1466" r="0.0200"/><circle cx="0.0471" cy="0.3008" r="0.0200"/><circle cx="0.1624" cy="0.2185" r="0.0200"/><circle cx="-0.0296" cy="0.1521" r="0.0200"/><circle cx="0.3131" cy="0.0219" r="0.0200"/><circle cx="0.0806" cy="0.1164" r="0.0200"/><circle cx="0.1570" cy="0.2508" r="0.0200"/><circle cx="0.2155" cy="0.2673" r="0.0200"/><circle cx="0.1220" cy="0.2372" r="0.0200"/><circle cx="0.1275" cy="0.3111" r="0.0200"/><circle cx="0.0672" cy="0.2660" r="0.0200"/><circle cx="-0.0698" cy="0.1997" r="0.0200"/><circle cx="0.0100" cy="0.2488" r="0.0200"/><circle cx="0.2748" cy="0.0893" r="0.0200"/><circle cx="0.2064" cy="0.2573" r="0.0200"/><circle cx="0.0807" cy="0.2094" r="0.0200"/><circle cx="0.0855" cy="0.3100" r="0.0200"/><circle cx="0.1970" cy="0.2218" r="0.0200"/><circle cx="0.1128" cy="0.2450" r="0.0200"/><circle cx="-0.0433" cy="0.1832" r="0.0200"/><circle cx="0.2324" cy="0.0798" r="0.0200"/><circle cx="0.1921" cy="0.2801" r="0.0200"/><circle cx="0.2339" cy="0.2818" r="0.0200"/><circle cx="-0.0163" cy="0.1020" r="0.0200"/><circle cx="0.0253" cy="0.2796" r="0.0200"/><circle cx="0.2152" cy="0.1540" r="0.0200"/><circle cx="-0.0237" cy="0.1115" r="0.0200"/><circle cx="-0.0019" cy="0.2951" r="0.0200"/><circle cx="0.1090" cy="0.2223" r="0.0200"/><circle cx="0.2015" cy="0.2379" r="0.0200"/><circle cx="0.0850" cy="0.2174" r="0.0200"/><circle cx="0.1151" cy="0.2913" r="0.0200"/><circle cx="-0.0516" cy="0.1741" r="0.0200"/><circle cx="0.0591" cy="0.2221" r="0.0200"/><circle cx="-0.1155" cy="0.1672" r="0.0200"/><circle cx="0.0708" cy="0.1569" r="0.0200"/><circle cx="0.1405" cy="0.2569" r="0.0200"/><circle cx="-0.0185" cy="0.1806" r="0.0200"/><circle cx="0.1177" cy="0.2001" r="0.0200"/><circle cx="0.0570" cy="0.2651" r="0.0200"/><circle cx="0.0398" cy="0.3028" r="0.0200"/><circle cx="0.1628" cy="0.2118" r="0.0200"/><circle cx="0.2481" cy="0.2441" r="0.0200"/><circle cx="0.0949" cy="0.1857" r="0.0200"/><circle cx="-0.0673" cy="0.1777" r="0.0200"/><circle cx="0.1009" cy="0.1725" r="0.0200"/><circle cx="-0.0992" cy="0.1450" r="0.0200"/><circle cx="-0.0594" cy="0.2820" r="0.0200"/><circle cx="0.0717" cy="0.2048" r="0.0200"/><circle cx="0.2510" cy="0.1630" r="0.0200"/><circle cx="0.0179" cy="0.1165" r="0.0200"/><circle cx="0.2615" cy="0.1073" r="0.0200"/><circle cx="-0.0229" cy="0.0721" r="0.0200"/></g></g><g class="hud"><g class="frame"><g fill="rgb(100%, 100%, 100%)" fill-opacity="0.02" stroke="rgb(0%, 0%, 0%)" stroke-opacity="0" stroke-width="0"><rect height="0.7002" width="1.2066" x="-0.5159" y="-0.3669"/></g></g><g class="axis"><g class="ticks"><g class="tickglyph"><g fill="rgb(5%, 5%, 5%)" fill-opacity="0.4" stroke="rgb(5%, 5%, 5%)" stroke-opacity="0.4" stroke-width="0.0040"><g transform="rotate(-90.0, -0.5401, 0.3180)"><polyline points="-0.5401,0.3330
-0.5401,0.3030"/></g><g transform="rotate(-90.0, -0.5401, 0.1810)"><polyline points="-0.5401,0.1960
-0.5401,0.1660"/></g><g transform="rotate(-90.0, -0.5401, 0.0440)"><polyline points="-0.5401,0.0590
-0.5401,0.0290"/></g><g transform="rotate(-90.0, -0.5401, -0.0930)"><polyline points="-0.5401,-0.0780
-0.5401,-0.1080"/></g><g transform="rotate(-90.0, -0.5401, -0.2300)"><polyline points="-0.5401,-0.2150
-0.5401,-0.2450"/></g><g transform="rotate(-90.0, -0.5401, -0.3669)"><polyline points="-0.5401,-0.3519
-0.5401,-0.3819"/></g></g></g><g class="ticktext"><g fill="rgb(5%, 5%, 5%)" fill-opacity="1.0" font-size="0.0402" stroke="none" stroke-width="0.0" text-anchor="end"><text x="-0.5690" y="0.3274">0.0%</text><text x="-0.5690" y="0.1904">0.1%</text><text x="-0.5690" y="0.0534">0.2%</text><text x="-0.5690" y="-0.0835">0.3%</text><text x="-0.5690" y="-0.2205">0.4%</text><text x="-0.5690" y="-0.3575">0.5%</text></g></g><g class="ticklines"><g fill="none" stroke="rgb(5%, 5%, 5%)" stroke-opacity="0.05" stroke-width="0.0050"><polyline points="-0.5159,0.3180 0.6907,0.3180"/><polyline points="-0.5159,0.1810 0.6907,0.1810"/><polyline points="-0.5159,0.0440 0.6907,0.0440"/><polyline points="-0.5159,-0.0930 0.6907,-0.0930"/><polyline points="-0.5159,-0.2300 0.6907,-0.2300"/><polyline points="-0.5159,-0.3669 0.6907,-0.3669"/></g></g></g><g class="axisbar"><g fill="rgb(5%, 5%, 5%)" fill-opacity="0.4" stroke="rgb(0%, 0%, 0%)" stroke-opacity="0" stroke-width="0"><rect height="0.6877" width="0.0032" x="-0.5272" y="-0.3683"/></g></g></g><g class="axis"><g class="ticks"><g class="tickglyph"><g fill="rgb(5%, 5%, 5%)" fill-opacity="0.4" stroke="rgb(5%, 5%, 5%)" stroke-opacity="0.4" stroke-width="0.0040"><polyline points="-0.5159,0.3688
-0.5159,0.3388"/><polyline points="-0.3148,0.3688
-0.3148,0.3388"/><polyline points="-0.1137,0.3688
-0.1137,0.3388"/><polyline points="0.0874,0.3688
0.0874,0.3388"/><polyline points="0.2885,0.3688
0.2885,0.3388"/><polyline points="0.4896,0.3688
0.4896,0.3388"/><polyline points="0.6907,0.3688
0.6907,0.3388"/></g></g><g class="ticktext"><g fill="rgb(5%, 5%, 5%)" fill-opacity="1.0" font-size="0.0402" stroke="none" stroke-width="0.0" text-anchor="middle"><text x="-0.5159" y="0.3973">-6%</text><text x="-0.3148" y="0.3973">-4%</text><text x="-0.1137" y="0.3973">-2%</text><text x="0.0874" y="0.3973"> 0%</text><text x="0.2885" y="0.3973"> 2%</text><text x="0.4896" y="0.3973"> 4%</text><text x="0.6907" y="0.3973"> 6%</text></g></g><g class="ticklines"><g fill="none" stroke="rgb(5%, 5%, 5%)" stroke-opacity="0.05" stroke-width="0.0050"><polyline points="-0.5159,0.3180 -0.5159,-0.3669"/><polyline points="-0.3148,0.3180 -0.3148,-0.3669"/><polyline points="-0.1137,0.3180 -0.1137,-0.3669"/><polyline points="0.0874,0.3180 0.0874,-0.3669"/><polyline points="0.2885,0.3180 0.2885,-0.3669"/><polyline points="0.4896,0.3180 0.4896,-0.3669"/><polyline points="0.6907,0.3180 0.6907,-0.3669"/></g></g></g><g class="axisbar"><g fill="rgb(5%, 5%, 5%)" fill-opacity="0.4" stroke="rgb(0%, 0%, 0%)" stroke-opacity="0" stroke-width="0"><rect height="0.0027" width="1.2098" x="-0.5175" y="0.3401"/></g></g></g><g class="title"><g fill="rgb(5%, 5%, 5%)" fill-opacity="1.0" font-size="0.0644" stroke="none" stroke-width="0.0" text-anchor="middle"><text x="0.0382" y="-0.4288">scatter</text></g></g><g class="title"><g fill="rgb(5%, 5%, 5%)" fill-opacity="1.0" font-size="0.0402" stroke="none" stroke-width="0.0" text-anchor="middle"><text x="0.0382" y="0.4623">ma</text></g></g><g class="title"><g fill="rgb(5%, 5%, 5%)" fill-opacity="1.0" font-size="0.0402" stroke="none" stroke-width="0.0" text-anchor="middle"><text transform="rotate(-90.0, -0.6856, 0.0113)" x="-0.6856" y="0.0113">std</text></g></g><g class="frame"><g fill="rgb(100%, 100%, 100%)" fill-opacity="0.02" stroke="rgb(0%, 0%, 0%)" stroke-opacity="0" stroke-width="0"><rect height="1.0" width="1.5000" x="-0.75" y="-0.5"/></g></g></g></svg>