<svg height="300" viewBox="-0.75 -0.4999 1.5 0.9999" width="450" xmlns="http://www.w3.org/2000/svg" xmlns:xlink="http://www.w3.org/1999/xlink"><style>svg {
  color-scheme: light dark;
}
{
  .canvas g, .title g, .axisbar g, .ticktext g, .tickglyph g, .ticklines g, .legendContent g text {
    fill: rgb(5%, 5%, 5%);
  }
  .ticklines g, .tickglyph g, .legendBorder g {
    stroke: rgb(5%, 5%, 5%);
  }
  .legendBorder g {
    fill: rgb(94%, 94%, 94%);
  }
}
@media (prefers-color-scheme:dark) {
  .canvas g, .title g, .axisbar g, .ticktext g, .tickglyph g, .ticklines g, .legendContent g text {
    fill: rgb(94%, 94%, 94%);
  }
  .ticklines g, .tickglyph g, .legendBorder g {
    stroke: rgb(94%, 94%, 94%);
  }
  .legendBorder g {
    fill: rgb(5%, 5%, 5%);
  }
}</style><g class="chart"><g class="barchart"><g fill="rgb(2%, 29%, 48%)" fill-opacity="0.7" stroke="rgb(2%, 29%, 48%)" stroke-opacity="1.0" stroke-width="0.0050"><rect height="0" width="0.1346" x="-0.7405" y="0.4012"/><rect height="0.0932" width="0.1346" x="-0.5909" y="0.3080"/><rect height="0.1864" width="0.1346" x="-0.4413" y="0.2148"/><rect height="0.2796" width="0.1346" x="-0.2917" y="0.1216"/><rect height="0.3728" width="0.1346" x="-0.1421" y="0.0284"/><rect height="0.4660" width="0.1346" x="0.0075" y="-0.0648"/><rect height="0.5593" width="0.1346" x="0.1571" y="-0.1580"/><rect height="0.6525" width="0.1346" x="0.3067" y="-0.2512"/><rect height="0.7457" width="0.1346" x="0.4563" y="-0.3444"/><rect height="0.8389" width="0.1346" x="0.6059" y="-0.4376"/></g><g fill="rgb(2%, 29%, 48%)" fill-opacity="1.0" font-size="0.0359" stroke="none" stroke-width="0.0" text-anchor="middle"><text x="-0.6732" y="0.3677">0.0</text><text x="-0.5236" y="0.2745">1.0</text><text x="-0.3740" y="0.1813">2.0</text><text x="-0.2244" y="0.0881">3.0</text><text x="-0.0748" y="-0.0052">4.0</text><text x="0.0748" y="-0.0984">5.0</text><text x="0.2244" y="-0.1916">6.0</text><text x="0.3740" y="-0.2848">7.0</text><text x="0.5236" y="-0.3780">8.0</text><text x="0.6732" y="-0.4712">9.0</text></g></g></g><g class="hud"><g class="axis"><g class="ticks"><g class="tickglyph"><g fill="rgb(5%, 5%, 5%)" fill-opacity="0.4" stroke="rgb(5%, 5%, 5%)" stroke-opacity="0.4" stroke-width="0.0040"><polyline points="-0.6732,0.4446
-0.6732,0.4146"/><polyline points="-0.5236,0.4446
-0.5236,0.4146"/><polyline points="-0.3740,0.4446
-0.3740,0.4146"/><polyline points="-0.2244,0.4446
-0.2244,0.4146"/><polyline points="-0.0748,0.4446
-0.0748,0.4146"/><polyline points="0.0748,0.4446
0.0748,0.4146"/><polyline points="0.2244,0.4446
0.2244,0.4146"/><polyline points="0.3740,0.4446
0.3740,0.4146"/><polyline points="0.5236,0.4446
0.5236,0.4146"/><polyline points="0.6732,0.4446
0.6732,0.4146"/></g></g><g class="ticktext"><g fill="rgb(5%, 5%, 5%)" fill-opacity="1.0" font-size="0.0499" stroke="none" stroke-width="0.0" text-anchor="middle"><text x="-0.6732" y="0.485">0</text><text x="-0.5236" y="0.485">1</text><text x="-0.3740" y="0.485">2</text><text x="-0.2244" y="0.485">3</text><text x="-0.0748" y="0.485">4</text><text x="0.0748" y="0.485">5</text><text x="0.2244" y="0.485">6</text><text x="0.3740" y="0.485">7</text><text x="0.5236" y="0.485">8</text><text x="0.6732" y="0.485">9</text></g></g></g><g class="axisbar"><g fill="rgb(5%, 5%, 5%)" fill-opacity="0.4" stroke="rgb(0%, 0%, 0%)" stroke-opacity="0" stroke-width="0"><rect height="0.0035" width="1.5" x="-0.75" y="0.4122"/></g></g></g><g class="legend"/></g></svg>